G04 Layer_Color=16711935*
%FSLAX25Y25*%
%MOIN*%
G70*
G01*
G75*
%ADD105R,0.01772X0.01575*%
%ADD111R,0.01654X0.01654*%
%ADD118R,0.01575X0.01772*%
%ADD119R,0.02762X0.02920*%
%ADD120R,0.02920X0.02762*%
%ADD121R,0.01654X0.01654*%
%ADD124O,0.05321X0.06306*%
%ADD125O,0.05223X0.07880*%
%ADD126C,0.03998*%
%ADD127C,0.03600*%
%ADD128C,0.04567*%
%ADD129R,0.01817X0.02369*%
%ADD130R,0.01975X0.02369*%
%ADD131R,0.05124X0.05321*%
%ADD132R,0.02998X0.01975*%
%ADD133R,0.03747X0.09455*%
%ADD134C,0.22700*%
%ADD135R,0.04400X0.04400*%
%ADD136R,0.04337X0.03943*%
G04:AMPARAMS|DCode=137|XSize=43.37mil|YSize=35.5mil|CornerRadius=0mil|HoleSize=0mil|Usage=FLASHONLY|Rotation=45.000|XOffset=0mil|YOffset=0mil|HoleType=Round|Shape=Rectangle|*
%AMROTATEDRECTD137*
4,1,4,-0.00278,-0.02788,-0.02788,-0.00278,0.00278,0.02788,0.02788,0.00278,-0.00278,-0.02788,0.0*
%
%ADD137ROTATEDRECTD137*%

G04:AMPARAMS|DCode=138|XSize=43.37mil|YSize=35.5mil|CornerRadius=0mil|HoleSize=0mil|Usage=FLASHONLY|Rotation=135.000|XOffset=0mil|YOffset=0mil|HoleType=Round|Shape=Rectangle|*
%AMROTATEDRECTD138*
4,1,4,0.02788,-0.00278,0.00278,-0.02788,-0.02788,0.00278,-0.00278,0.02788,0.02788,-0.00278,0.0*
%
%ADD138ROTATEDRECTD138*%

%ADD139R,0.03943X0.04337*%
D105*
X3800Y14119D02*
D03*
Y16481D02*
D03*
X-6400Y22081D02*
D03*
Y19719D02*
D03*
X1100Y29300D02*
D03*
Y26938D02*
D03*
X4400Y29281D02*
D03*
Y26919D02*
D03*
D111*
X-3999Y30622D02*
D03*
Y32827D02*
D03*
D118*
X-14081Y13100D02*
D03*
X-11719D02*
D03*
D119*
X-16789Y3600D02*
D03*
X-20411D02*
D03*
D120*
X29800Y13889D02*
D03*
Y17511D02*
D03*
X-9200Y-17611D02*
D03*
Y-13989D02*
D03*
X-14000Y-17611D02*
D03*
Y-13989D02*
D03*
X-19200Y-17511D02*
D03*
Y-13889D02*
D03*
X34300Y13889D02*
D03*
Y17511D02*
D03*
D121*
X-19300Y15300D02*
D03*
X-21505D02*
D03*
X-19298Y12400D02*
D03*
X-21502D02*
D03*
D124*
X-9843Y-28583D02*
D03*
X9843Y-28386D02*
D03*
D125*
X-14173Y-40000D02*
D03*
X14173Y-39998D02*
D03*
D126*
X37200Y-24200D02*
D03*
X24100Y36300D02*
D03*
X-40700Y-14700D02*
D03*
D127*
X0Y-2500D02*
D03*
D128*
X4617Y42765D02*
D03*
X9315Y41055D02*
D03*
X14014Y39345D02*
D03*
X18712Y37635D02*
D03*
D129*
X75Y13532D02*
D03*
X-3075D02*
D03*
D130*
X-1500Y17469D02*
D03*
D131*
X-34500Y-15709D02*
D03*
Y-4291D02*
D03*
D132*
X-16642Y18141D02*
D03*
Y20700D02*
D03*
Y23259D02*
D03*
X-9358D02*
D03*
Y20700D02*
D03*
Y18141D02*
D03*
D133*
X-27272Y5800D02*
D03*
X-36328D02*
D03*
D134*
X0Y0D02*
D03*
D135*
X12500D02*
D03*
D136*
X36100Y-13942D02*
D03*
Y-19257D02*
D03*
D137*
X29100Y-24924D02*
D03*
X24924Y-29100D02*
D03*
X27987Y-32162D02*
D03*
X32162Y-27986D02*
D03*
X-27987Y32162D02*
D03*
X-32162Y27986D02*
D03*
X-29100Y24924D02*
D03*
X-24924Y29100D02*
D03*
D138*
X-32162Y-27987D02*
D03*
X-27986Y-32162D02*
D03*
X-24924Y-29100D02*
D03*
X-29100Y-24924D02*
D03*
X32162Y27987D02*
D03*
X27986Y32162D02*
D03*
X24924Y29100D02*
D03*
X29100Y24924D02*
D03*
D139*
X-16443Y8500D02*
D03*
X-21757D02*
D03*
M02*
