G04 Layer_Physical_Order=4*
G04 Layer_Color=16711680*
%FSLAX25Y25*%
%MOIN*%
G70*
G01*
G75*
%ADD12R,0.01260X0.01260*%
%ADD13R,0.01260X0.01260*%
%ADD14R,0.02520X0.02362*%
%ADD15R,0.02362X0.02520*%
%ADD16R,0.01181X0.01378*%
%ADD17R,0.01378X0.01181*%
%ADD43C,0.01000*%
%ADD44C,0.00400*%
%ADD46C,0.00500*%
%ADD47C,0.00800*%
%ADD48C,0.00700*%
%ADD49C,0.00600*%
%ADD51C,0.03598*%
%ADD52O,0.04921X0.05906*%
%ADD53O,0.04823X0.07480*%
%ADD54C,0.01000*%
%ADD55C,0.01300*%
%ADD56C,0.01800*%
%ADD57C,0.02800*%
%ADD58C,0.02600*%
%ADD59R,0.03543X0.03937*%
G04:AMPARAMS|DCode=60|XSize=39.37mil|YSize=31.5mil|CornerRadius=0mil|HoleSize=0mil|Usage=FLASHONLY|Rotation=315.000|XOffset=0mil|YOffset=0mil|HoleType=Round|Shape=Rectangle|*
%AMROTATEDRECTD60*
4,1,4,-0.02506,0.00278,-0.00278,0.02506,0.02506,-0.00278,0.00278,-0.02506,-0.02506,0.00278,0.0*
%
%ADD60ROTATEDRECTD60*%

G04:AMPARAMS|DCode=61|XSize=39.37mil|YSize=31.5mil|CornerRadius=0mil|HoleSize=0mil|Usage=FLASHONLY|Rotation=45.000|XOffset=0mil|YOffset=0mil|HoleType=Round|Shape=Rectangle|*
%AMROTATEDRECTD61*
4,1,4,-0.00278,-0.02506,-0.02506,-0.00278,0.00278,0.02506,0.02506,0.00278,-0.00278,-0.02506,0.0*
%
%ADD61ROTATEDRECTD61*%

%ADD62R,0.03937X0.03543*%
%ADD63R,0.04000X0.04000*%
%ADD64C,0.08700*%
%ADD65R,0.03347X0.09055*%
%ADD66R,0.02598X0.01575*%
%ADD67R,0.04724X0.04921*%
%ADD68R,0.01575X0.01969*%
%ADD69R,0.01417X0.01969*%
%ADD70C,0.03937*%
%ADD71C,0.01500*%
G36*
X4074Y46564D02*
X8117Y46032D01*
X12098Y45149D01*
X12159Y45130D01*
X12154Y44677D01*
X12142Y44611D01*
X11691Y44309D01*
X11381Y43846D01*
X11322Y43550D01*
X14078D01*
X14019Y43846D01*
X13872Y44065D01*
X14191Y44489D01*
X15987Y43923D01*
X19754Y42362D01*
X23371Y40479D01*
X26810Y38289D01*
X30045Y35806D01*
X33051Y33051D01*
X35806Y30045D01*
X38289Y26810D01*
X38325Y26753D01*
X38150Y26497D01*
Y24900D01*
Y23522D01*
X38446Y23581D01*
X38909Y23891D01*
X39219Y24354D01*
X39229Y24404D01*
X39758Y24503D01*
X40479Y23371D01*
X40999Y22372D01*
X40652Y21958D01*
X40550Y21978D01*
Y20600D01*
Y19222D01*
X40846Y19281D01*
X41309Y19591D01*
X41619Y20054D01*
X41625Y20087D01*
X42150Y20162D01*
X42362Y19754D01*
X42827Y18632D01*
X42550Y18295D01*
Y16800D01*
Y15422D01*
X42846Y15481D01*
X43309Y15791D01*
X43404Y15933D01*
X43658Y15959D01*
X43961Y15866D01*
X44835Y13093D01*
X44411Y12776D01*
X44346Y12819D01*
X44050Y12878D01*
Y11500D01*
X43800D01*
Y11250D01*
X42422D01*
X42472Y11000D01*
X42452Y10870D01*
X42254Y10500D01*
X34016Y10500D01*
X33809Y10809D01*
X33346Y11119D01*
X33050Y11178D01*
Y9800D01*
Y8422D01*
X33289Y8470D01*
X33450Y8428D01*
X33789Y8247D01*
Y6653D01*
X33450Y6472D01*
X33289Y6430D01*
X33050Y6478D01*
Y5100D01*
Y3722D01*
X33289Y3770D01*
X33450Y3728D01*
X33789Y3547D01*
Y-147D01*
X33450Y-328D01*
X33289Y-370D01*
X33050Y-322D01*
Y-1700D01*
Y-3078D01*
X33289Y-3030D01*
X33450Y-3072D01*
X33789Y-3253D01*
Y-5947D01*
X33450Y-6128D01*
X33289Y-6170D01*
X33050Y-6122D01*
Y-7500D01*
Y-8878D01*
X33289Y-8830D01*
X33450Y-8872D01*
X33789Y-9053D01*
Y-9185D01*
X35493D01*
X35774Y-9643D01*
X35775Y-9685D01*
X35722Y-9950D01*
X38478D01*
X38425Y-9685D01*
X38425Y-9643D01*
X38707Y-9185D01*
X42172Y-9185D01*
X42455Y-9685D01*
X42422Y-9850D01*
X43800D01*
Y-10100D01*
X44050D01*
Y-11478D01*
X44346Y-11419D01*
X44809Y-11109D01*
X44879Y-11005D01*
X45347Y-11205D01*
X45149Y-12098D01*
X43923Y-15987D01*
X43376Y-17306D01*
X42896Y-17160D01*
X42927Y-17000D01*
X42819Y-16454D01*
X42509Y-15991D01*
X42046Y-15681D01*
X41750Y-15622D01*
Y-17000D01*
Y-18378D01*
X42046Y-18319D01*
X42509Y-18009D01*
X42600Y-17874D01*
X43043Y-18111D01*
X42362Y-19754D01*
X40479Y-23371D01*
X39804Y-24431D01*
X39332Y-24241D01*
X39340Y-24200D01*
X39177Y-23381D01*
X38713Y-22686D01*
X38019Y-22223D01*
X37200Y-22060D01*
X36381Y-22223D01*
X35686Y-22686D01*
X35223Y-23381D01*
X35060Y-24200D01*
X35223Y-25019D01*
X35686Y-25714D01*
X36381Y-26177D01*
X37200Y-26340D01*
X38019Y-26177D01*
X38158Y-26085D01*
X38523Y-26442D01*
X38289Y-26810D01*
X35806Y-30045D01*
X33312Y-32767D01*
X32812Y-32573D01*
Y-29988D01*
X35092Y-27708D01*
X32441Y-25057D01*
X29233Y-28265D01*
X31513Y-30545D01*
Y-32669D01*
X29131Y-35051D01*
X28403D01*
X28212Y-34589D01*
X30916Y-31884D01*
X28265Y-29232D01*
X26286Y-31211D01*
X26191Y-31192D01*
X26026Y-30650D01*
X27854Y-28822D01*
X25203Y-26170D01*
X21994Y-29379D01*
X22861Y-30245D01*
X22141Y-30965D01*
X21951Y-31424D01*
Y-32731D01*
X21431Y-33251D01*
X17869D01*
X17159Y-32541D01*
X16700Y-32351D01*
X-9744D01*
X-9776Y-31851D01*
X-9122Y-31764D01*
X-8450Y-31486D01*
X-7874Y-31044D01*
X-7431Y-30467D01*
X-7153Y-29796D01*
X-7058Y-29075D01*
Y-28091D01*
X-7153Y-27370D01*
X-7431Y-26698D01*
X-7874Y-26122D01*
X-8450Y-25679D01*
X-9122Y-25401D01*
X-9843Y-25306D01*
X-10563Y-25401D01*
X-11235Y-25679D01*
X-11811Y-26122D01*
X-12254Y-26698D01*
X-12532Y-27370D01*
X-12627Y-28091D01*
Y-29075D01*
X-12532Y-29796D01*
X-12254Y-30467D01*
X-11811Y-31044D01*
X-11235Y-31486D01*
X-10563Y-31764D01*
X-9909Y-31851D01*
X-9941Y-32351D01*
X-12885D01*
X-13078Y-32158D01*
Y-31554D01*
X-13268Y-31095D01*
X-22151Y-22213D01*
Y-13067D01*
X-22026Y-12767D01*
Y-9879D01*
X-22217Y-9420D01*
X-23051Y-8585D01*
Y732D01*
X-22946Y888D01*
X-22884Y1200D01*
X-22946Y1512D01*
X-23123Y1777D01*
X-23388Y1954D01*
X-23700Y2016D01*
X-24012Y1954D01*
X-24277Y1777D01*
X-24454Y1512D01*
X-24516Y1200D01*
X-24515Y1195D01*
X-24911Y806D01*
X-24912Y806D01*
X-25197Y913D01*
X-25299Y1066D01*
Y6620D01*
X-24329Y7590D01*
X-23829Y7456D01*
Y6231D01*
X-23396D01*
X-23347Y5731D01*
X-23590Y5683D01*
X-23970Y5429D01*
X-24224Y5049D01*
X-24264Y4850D01*
X-23141D01*
Y4600D01*
X-22891D01*
Y3477D01*
X-22692Y3517D01*
X-22392Y3717D01*
X-22089Y3627D01*
X-21892Y3499D01*
Y2040D01*
X-20005D01*
X-19129Y1165D01*
X-19154Y895D01*
X-19600Y516D01*
X-19912Y454D01*
X-20177Y277D01*
X-20354Y12D01*
X-20416Y-300D01*
X-20354Y-612D01*
X-20195Y-849D01*
Y-2600D01*
X-20021Y-3021D01*
X-19021Y-4021D01*
X-18600Y-4195D01*
X-14049D01*
X-13812Y-4354D01*
X-13500Y-4416D01*
X-13188Y-4354D01*
X-12923Y-4177D01*
X-12746Y-3912D01*
X-12684Y-3600D01*
X-12746Y-3288D01*
X-12923Y-3023D01*
X-13188Y-2846D01*
X-13500Y-2784D01*
X-13812Y-2846D01*
X-14049Y-3005D01*
X-17376D01*
X-17528Y-2505D01*
X-17448Y-2452D01*
X-17272Y-2187D01*
X-17210Y-1875D01*
Y1214D01*
X-17210Y1214D01*
X-17235Y1340D01*
X-17039Y1657D01*
Y3600D01*
Y5360D01*
X-17437D01*
X-17729Y5860D01*
X-17632Y6032D01*
X-16692D01*
Y8500D01*
Y10968D01*
X-17793D01*
X-18168Y11270D01*
X-18168Y11468D01*
Y12277D01*
X-17872Y12415D01*
X-17668Y12463D01*
X-17246Y12181D01*
X-16950Y12122D01*
Y13500D01*
X-16450D01*
Y12122D01*
X-16154Y12181D01*
X-15691Y12491D01*
X-15672Y12519D01*
X-15172Y12367D01*
Y11911D01*
X-14331D01*
Y13100D01*
X-13831D01*
Y11911D01*
X-13027D01*
X-12991Y11911D01*
X-12573Y12111D01*
X-12490Y12111D01*
X-10828D01*
Y14089D01*
X-11159D01*
Y15019D01*
X-11015Y15115D01*
X-10805Y15429D01*
X-10731Y15800D01*
X-10805Y16171D01*
X-11015Y16485D01*
X-11329Y16695D01*
X-11700Y16769D01*
X-11869Y16735D01*
X-13159Y18024D01*
Y20100D01*
X-13159Y20100D01*
X-13317Y20483D01*
X-13317Y20483D01*
X-13917Y21083D01*
X-14300Y21241D01*
X-14300Y21241D01*
X-14689D01*
X-14968Y21521D01*
X-15043Y21741D01*
Y22172D01*
X-15043Y22287D01*
Y22511D01*
X-14543Y22601D01*
X-12395Y20453D01*
Y18600D01*
X-12221Y18179D01*
X-11762Y17720D01*
X-11341Y17546D01*
X-10958D01*
Y17053D01*
X-7759D01*
Y17216D01*
X-7668Y17287D01*
X-7085Y17315D01*
X-6771Y17105D01*
X-6400Y17031D01*
X-6029Y17105D01*
X-5715Y17315D01*
X-5505Y17629D01*
X-5431Y18000D01*
X-5497Y18328D01*
X-5493Y18362D01*
X-5411Y18828D01*
X-5411D01*
Y20609D01*
X-6989D01*
X-7037Y20691D01*
X-6752Y21191D01*
X-5411D01*
Y22972D01*
X-5599D01*
X-5646Y23212D01*
X-5823Y23477D01*
X-5943Y23597D01*
Y25149D01*
X-5443Y25198D01*
X-5442Y25191D01*
X-5221Y24860D01*
X-4890Y24639D01*
X-4548Y24571D01*
X-4382Y24345D01*
X-4254Y24112D01*
X-4316Y23800D01*
X-4254Y23488D01*
X-4241Y23469D01*
X-4118Y23100D01*
X-4241Y22731D01*
X-4254Y22712D01*
X-4316Y22400D01*
X-4254Y22088D01*
X-4077Y21823D01*
Y21577D01*
X-4254Y21312D01*
X-4316Y21000D01*
X-4254Y20688D01*
X-4077Y20423D01*
X-3812Y20246D01*
X-3533Y20191D01*
X-2592Y19251D01*
X-2587Y18753D01*
X-2587Y18607D01*
Y16184D01*
X-413D01*
Y16794D01*
X87Y16833D01*
X409Y16481D01*
X483Y16110D01*
X693Y15796D01*
X1007Y15586D01*
X1378Y15513D01*
X1749Y15586D01*
X1963Y15729D01*
X2443Y15678D01*
X2546Y15646D01*
X2696Y15386D01*
X2611Y15210D01*
X2611Y15173D01*
Y14588D01*
X2459Y14461D01*
X2111Y14274D01*
X1900Y14316D01*
X1588Y14254D01*
X1584Y14251D01*
X1084Y14487D01*
Y14816D01*
X-934D01*
Y12247D01*
X1084D01*
Y12482D01*
X1584Y12749D01*
X1588Y12746D01*
X1900Y12684D01*
X2212Y12746D01*
X2477Y12923D01*
X2489Y12942D01*
X2611Y13028D01*
X3550D01*
Y14119D01*
X3800D01*
Y14369D01*
X4989D01*
Y15173D01*
X4989Y15210D01*
X4789Y15627D01*
X4789Y15710D01*
Y17372D01*
X2811D01*
Y17076D01*
X2123D01*
X2063Y17166D01*
X1749Y17376D01*
X1378Y17450D01*
X1306Y17436D01*
X852Y17889D01*
X432Y18064D01*
X-59D01*
X-277Y18282D01*
X-197Y18828D01*
X25Y18905D01*
X17246D01*
X17498Y18550D01*
X19702D01*
X19954Y18905D01*
X23500D01*
X23921Y19079D01*
X28108Y23266D01*
X29379Y21994D01*
X32030Y24646D01*
X28822Y27854D01*
X26170Y25203D01*
X27266Y24107D01*
X23260Y20102D01*
X22777Y20151D01*
X22651Y20497D01*
X22632Y20595D01*
X22842Y20910D01*
X22870Y21050D01*
X21900D01*
Y21300D01*
X21650D01*
Y22270D01*
X21510Y22242D01*
X21179Y22021D01*
X20958Y21690D01*
X20947Y21634D01*
X20421Y21521D01*
X20090Y21742D01*
X19950Y21770D01*
Y20800D01*
X19700D01*
Y20550D01*
X18693D01*
X18413Y20095D01*
X2472D01*
X2091Y20576D01*
X2029Y20888D01*
X1852Y21152D01*
X1588Y21329D01*
X1276Y21391D01*
X963Y21329D01*
X699Y21152D01*
X522Y20888D01*
X460Y20576D01*
X79Y20095D01*
X-1753D01*
X-2691Y21033D01*
X-2746Y21312D01*
X-2923Y21577D01*
Y21823D01*
X-2746Y22088D01*
X-2703Y22305D01*
X-2644Y22329D01*
X-2029Y22944D01*
X-1969Y23089D01*
X-1429Y23629D01*
X23424D01*
X23845Y23803D01*
X25345Y25303D01*
X25520Y25724D01*
Y26487D01*
X27854Y28822D01*
X25934Y30742D01*
X26098Y31284D01*
X26194Y31304D01*
X28265Y29233D01*
X30916Y31884D01*
X27708Y35092D01*
X25374Y32758D01*
X22162D01*
X21741Y32583D01*
X19979Y30821D01*
X19805Y30400D01*
Y26047D01*
X19653Y25895D01*
X15138D01*
X15031Y26046D01*
X14917Y26395D01*
X15028Y26563D01*
X15090Y26875D01*
X15028Y27187D01*
X14852Y27452D01*
X14587Y27628D01*
X14275Y27691D01*
X13963Y27628D01*
X13698Y27452D01*
X13521Y27187D01*
X13459Y26875D01*
X13521Y26563D01*
X13633Y26395D01*
X13519Y26046D01*
X13411Y25895D01*
X5834D01*
X5389Y26028D01*
X5389Y26395D01*
Y27809D01*
X3411D01*
Y27753D01*
X2089D01*
Y27828D01*
X111D01*
X111Y26047D01*
X-326Y25895D01*
X-2000D01*
X-2421Y25721D01*
X-3106Y25036D01*
X-3533Y25316D01*
X-3530Y25331D01*
X-4500D01*
Y25581D01*
X-4750D01*
Y26551D01*
X-4890Y26523D01*
X-5221Y26302D01*
X-5359Y26095D01*
X-5377Y26095D01*
X-5859Y26241D01*
X-5905Y26471D01*
X-6115Y26785D01*
X-6429Y26995D01*
X-6800Y27069D01*
X-7171Y26995D01*
X-7485Y26785D01*
X-7695Y26471D01*
X-7769Y26100D01*
X-7695Y25729D01*
X-7575Y25550D01*
Y24770D01*
X-7759Y24346D01*
X-10958D01*
Y22287D01*
X-10958Y22172D01*
Y21787D01*
X-10958Y21672D01*
Y21353D01*
X-11087Y21282D01*
X-11457Y21199D01*
X-13938Y23680D01*
X-14359Y23854D01*
X-15043D01*
Y24346D01*
X-18241D01*
Y22287D01*
X-18241Y22172D01*
Y21787D01*
X-18241Y21672D01*
Y19846D01*
X-18441Y19428D01*
X-18441Y19177D01*
X-18941Y18910D01*
X-18954Y18919D01*
X-19250Y18978D01*
Y17600D01*
X-19750D01*
Y18978D01*
X-20046Y18919D01*
X-20189Y18823D01*
X-20689Y19091D01*
Y22597D01*
X-20640Y22630D01*
X-20374Y23027D01*
X-20281Y23495D01*
X-20374Y23964D01*
X-20640Y24360D01*
X-21036Y24626D01*
X-21505Y24719D01*
X-21954Y24629D01*
X-21991Y24653D01*
X-22249Y25042D01*
X-11404Y35886D01*
X4860D01*
X5133Y35941D01*
X5365Y36095D01*
X8292Y39022D01*
X8524Y38882D01*
X9416Y38744D01*
X10293Y38959D01*
X11020Y39492D01*
X11308Y39967D01*
X11787Y39792D01*
X11703Y39244D01*
X11917Y38368D01*
X12451Y37640D01*
X13223Y37172D01*
X14114Y37034D01*
X14991Y37249D01*
X15719Y37782D01*
X15735Y37810D01*
X16215Y37635D01*
X16197Y37525D01*
X16431Y36571D01*
X17012Y35779D01*
X17851Y35270D01*
X17932Y35257D01*
X18048Y34734D01*
X17879Y34621D01*
X17658Y34290D01*
X17630Y34150D01*
X19570D01*
X19542Y34290D01*
X19321Y34621D01*
X19204Y34699D01*
X19299Y35237D01*
X19776Y35354D01*
X20568Y35934D01*
X20945Y36556D01*
X18627Y37400D01*
X18712Y37635D01*
X18477Y37720D01*
X19321Y40039D01*
X18602Y40149D01*
X17648Y39916D01*
X16856Y39335D01*
X16798Y39240D01*
X16319Y39414D01*
X16324Y39446D01*
X16110Y40322D01*
X15576Y41050D01*
X14805Y41518D01*
X13913Y41656D01*
X13404Y41531D01*
X13246Y41981D01*
X13709Y42291D01*
X14019Y42754D01*
X14078Y43050D01*
X11322D01*
X11336Y42981D01*
X10912Y42777D01*
X10869Y42766D01*
X10106Y43229D01*
X9214Y43366D01*
X8338Y43151D01*
X7610Y42618D01*
X7322Y42143D01*
X6843Y42318D01*
X6927Y42866D01*
X6713Y43743D01*
X6179Y44470D01*
X5408Y44939D01*
X4516Y45076D01*
X3639Y44861D01*
X2911Y44328D01*
X2443Y43556D01*
X2306Y42664D01*
X2520Y41788D01*
X3054Y41060D01*
X3825Y40592D01*
X3951Y40573D01*
Y39868D01*
X3846Y39712D01*
X3784Y39400D01*
X3846Y39088D01*
X4023Y38823D01*
X4288Y38646D01*
X4600Y38584D01*
X4912Y38646D01*
X5177Y38823D01*
X5354Y39088D01*
X5416Y39400D01*
X5354Y39712D01*
X5249Y39868D01*
Y40585D01*
X5594Y40669D01*
X6322Y41203D01*
X6610Y41677D01*
X7089Y41502D01*
X7004Y40954D01*
X7219Y40078D01*
X7265Y40014D01*
X4564Y37314D01*
X-11700D01*
X-11973Y37259D01*
X-12205Y37105D01*
X-23775Y25535D01*
X-24275Y25742D01*
Y27098D01*
X-21994Y29379D01*
X-24646Y32030D01*
X-27854Y28822D01*
X-25574Y26542D01*
Y25864D01*
X-25996Y25458D01*
X-26447Y25479D01*
X-28822Y27854D01*
X-30856Y25820D01*
X-30968Y25823D01*
X-31170Y26328D01*
X-29233Y28265D01*
X-31884Y30916D01*
X-35092Y27708D01*
X-33100Y25716D01*
X-34585Y24230D01*
X-34865Y24175D01*
X-35129Y23998D01*
X-35306Y23733D01*
X-35368Y23421D01*
X-35306Y23109D01*
X-35129Y22844D01*
X-34921Y22705D01*
X-34891Y22437D01*
X-34921Y22169D01*
X-35129Y22029D01*
X-35306Y21765D01*
X-35368Y21453D01*
X-35306Y21141D01*
X-35129Y20876D01*
X-34924Y20739D01*
X-34920Y20731D01*
X-34891Y20469D01*
X-34921Y20200D01*
X-35129Y20061D01*
X-35306Y19796D01*
X-35368Y19484D01*
X-35306Y19172D01*
X-35129Y18907D01*
X-34865Y18731D01*
X-34553Y18669D01*
X-34241Y18731D01*
X-33976Y18907D01*
X-33799Y19172D01*
X-33763Y19356D01*
X-33268Y19851D01*
X-30166D01*
X-29959Y19351D01*
X-30396Y18914D01*
X-30990Y19027D01*
X-31023Y19077D01*
X-31288Y19254D01*
X-31600Y19316D01*
X-31912Y19254D01*
X-32177Y19077D01*
X-32354Y18812D01*
X-32416Y18500D01*
X-32399Y18414D01*
X-32693Y17965D01*
X-32770Y17914D01*
X-40228D01*
X-40288Y17954D01*
X-40600Y18016D01*
X-40912Y17954D01*
X-41177Y17777D01*
X-41354Y17512D01*
X-41416Y17200D01*
X-41354Y16888D01*
X-41177Y16623D01*
X-40912Y16446D01*
X-40600Y16384D01*
X-40288Y16446D01*
X-40228Y16486D01*
X-35443D01*
X-35399Y16435D01*
X-35222Y15986D01*
X-35306Y15859D01*
X-35368Y15547D01*
X-35306Y15235D01*
X-35129Y14970D01*
X-35120Y14964D01*
X-35093Y14394D01*
X-35230Y14290D01*
X-35764Y14336D01*
X-36112Y14568D01*
X-36521Y14649D01*
X-36931Y14568D01*
X-37278Y14336D01*
X-37510Y13988D01*
X-37592Y13579D01*
Y10628D01*
X-38301D01*
Y972D01*
X-37398D01*
Y128D01*
X-37317Y-282D01*
X-37085Y-630D01*
X-36645Y-1069D01*
X-36837Y-1531D01*
X-37162D01*
Y-7052D01*
X-31838D01*
X-31716Y-7501D01*
Y-7862D01*
X-35077Y-11223D01*
X-35254Y-11488D01*
X-35316Y-11800D01*
X-35316Y-11800D01*
Y-12948D01*
X-37162D01*
Y-17260D01*
X-37254Y-17397D01*
X-37316Y-17709D01*
Y-18827D01*
X-37412Y-18846D01*
X-37677Y-19023D01*
X-37677Y-19023D01*
X-39542Y-20888D01*
X-39600Y-20877D01*
X-40068Y-20970D01*
X-40465Y-21235D01*
X-40730Y-21632D01*
X-40756Y-21758D01*
X-41280Y-21833D01*
X-42362Y-19754D01*
X-43923Y-15987D01*
X-45149Y-12098D01*
X-46032Y-8117D01*
X-46455Y-4900D01*
X-45987Y-4628D01*
X-45906Y-4662D01*
X-41181D01*
X-40951Y-4567D01*
X-40856Y-4337D01*
Y3537D01*
X-40951Y3767D01*
X-41181Y3862D01*
X-45906D01*
X-46076Y3791D01*
X-46568Y3987D01*
X-46564Y4074D01*
X-46032Y8117D01*
X-45149Y12098D01*
X-44652Y13673D01*
X-44077Y13835D01*
X-43846Y13681D01*
X-43550Y13622D01*
Y15000D01*
X-43300D01*
Y15250D01*
X-41922D01*
X-41981Y15546D01*
X-42291Y16009D01*
X-42754Y16319D01*
X-43207Y16409D01*
X-43567Y16845D01*
X-42362Y19754D01*
X-41003Y22365D01*
X-40699Y22324D01*
X-40507Y22236D01*
X-40442Y21910D01*
X-40221Y21579D01*
X-39890Y21358D01*
X-39750Y21330D01*
Y22300D01*
Y23270D01*
X-39890Y23242D01*
X-40027Y23151D01*
X-40392Y23508D01*
X-38289Y26810D01*
X-35806Y30045D01*
X-33051Y33051D01*
X-30045Y35806D01*
X-26810Y38289D01*
X-23371Y40479D01*
X-19754Y42362D01*
X-15987Y43923D01*
X-12098Y45149D01*
X-8117Y46032D01*
X-4074Y46564D01*
X0Y46742D01*
X4074Y46564D01*
D02*
G37*
G36*
X-30349Y-9456D02*
Y-16100D01*
X-30159Y-16559D01*
X-29750Y-16969D01*
Y-22366D01*
X-32030Y-24646D01*
X-28822Y-27854D01*
X-26293Y-25325D01*
X-25574Y-26045D01*
Y-26541D01*
X-27854Y-28822D01*
X-24797Y-31879D01*
X-25208Y-32289D01*
X-28265Y-29233D01*
X-30916Y-31884D01*
X-27708Y-35092D01*
X-26814Y-34198D01*
X-26449Y-34349D01*
X-25700D01*
X-25241Y-34159D01*
X-21141Y-30059D01*
X-20951Y-29600D01*
Y-29321D01*
X-20489Y-29130D01*
X-14163Y-35456D01*
X-14164Y-35521D01*
X-14175Y-35590D01*
X-14304Y-35954D01*
X-14881Y-36030D01*
X-15541Y-36303D01*
X-16107Y-36737D01*
X-16542Y-37304D01*
X-16815Y-37963D01*
X-16908Y-38671D01*
Y-41329D01*
X-16815Y-42037D01*
X-16542Y-42696D01*
X-16107Y-43262D01*
X-15911Y-43413D01*
X-16163Y-43850D01*
X-19754Y-42362D01*
X-22797Y-40778D01*
X-22630Y-40302D01*
X-22500Y-40327D01*
X-21954Y-40219D01*
X-21491Y-39909D01*
X-21181Y-39446D01*
X-21122Y-39150D01*
X-23878D01*
X-23819Y-39446D01*
X-23638Y-39716D01*
X-23996Y-40082D01*
X-26810Y-38289D01*
X-30045Y-35806D01*
X-33051Y-33051D01*
X-35806Y-30045D01*
X-37845Y-27389D01*
X-37600Y-26927D01*
X-37054Y-26819D01*
X-36591Y-26509D01*
X-36281Y-26046D01*
X-36222Y-25750D01*
X-37600D01*
Y-25500D01*
X-37850D01*
Y-24122D01*
X-38146Y-24181D01*
X-38609Y-24491D01*
X-38898Y-24923D01*
X-39087Y-24970D01*
X-39439Y-25005D01*
X-40298Y-23656D01*
X-40219Y-23509D01*
X-39963Y-23251D01*
X-39600Y-23324D01*
X-39132Y-23230D01*
X-38735Y-22965D01*
X-38470Y-22568D01*
X-38377Y-22100D01*
X-38388Y-22042D01*
X-36762Y-20416D01*
X-36500D01*
X-36188Y-20354D01*
X-35923Y-20177D01*
X-35816Y-20016D01*
X-35316Y-20115D01*
Y-25649D01*
X-35316Y-25649D01*
X-35254Y-25961D01*
X-35077Y-26226D01*
X-34343Y-26959D01*
X-35092Y-27708D01*
X-31884Y-30916D01*
X-29233Y-28265D01*
X-32441Y-25057D01*
X-33190Y-25806D01*
X-33684Y-25311D01*
Y-18469D01*
X-31838D01*
Y-12948D01*
X-33684D01*
Y-12138D01*
X-30811Y-9265D01*
X-30349Y-9456D01*
D02*
G37*
G36*
X16395Y-36159D02*
X16854Y-36349D01*
X28559D01*
X28720Y-36823D01*
X26810Y-38289D01*
X23371Y-40479D01*
X21523Y-41442D01*
X21279Y-41263D01*
X21132Y-41082D01*
X21178Y-40850D01*
X18422D01*
X18481Y-41146D01*
X18791Y-41609D01*
X19254Y-41919D01*
X19433Y-41954D01*
X19484Y-42474D01*
X16158Y-43852D01*
X15905Y-43415D01*
X16107Y-43261D01*
X16542Y-42694D01*
X16815Y-42035D01*
X16908Y-41327D01*
Y-38669D01*
X16815Y-37962D01*
X16542Y-37302D01*
X16107Y-36735D01*
X15541Y-36301D01*
X15230Y-36172D01*
X15329Y-35672D01*
X15908D01*
X16395Y-36159D01*
D02*
G37*
G36*
X13116Y-36172D02*
X12806Y-36301D01*
X12239Y-36735D01*
X11805Y-37302D01*
X11532Y-37962D01*
X11438Y-38669D01*
Y-41327D01*
X11532Y-42035D01*
X11805Y-42694D01*
X12239Y-43261D01*
X12806Y-43695D01*
X13465Y-43968D01*
X13969Y-44035D01*
X14014Y-44545D01*
X12098Y-45149D01*
X8117Y-46032D01*
X4074Y-46564D01*
X1190Y-46690D01*
X1033Y-46271D01*
X1018Y-46197D01*
X1319Y-45746D01*
X1378Y-45450D01*
X-1378D01*
X-1319Y-45746D01*
X-1018Y-46197D01*
X-1033Y-46271D01*
X-1190Y-46690D01*
X-4074Y-46564D01*
X-8117Y-46032D01*
X-12098Y-45149D01*
X-14009Y-44546D01*
X-13965Y-44036D01*
X-13465Y-43970D01*
X-12806Y-43697D01*
X-12239Y-43262D01*
X-11805Y-42696D01*
X-11532Y-42037D01*
X-11438Y-41329D01*
Y-38671D01*
X-11532Y-37963D01*
X-11805Y-37304D01*
X-12239Y-36737D01*
X-12806Y-36303D01*
X-13121Y-36172D01*
X-13022Y-35672D01*
X13017D01*
X13116Y-36172D01*
D02*
G37*
%LPC*%
G36*
X-6950Y45478D02*
Y44350D01*
X-5822D01*
X-5881Y44646D01*
X-6191Y45109D01*
X-6654Y45419D01*
X-6950Y45478D01*
D02*
G37*
G36*
X-7450D02*
X-7746Y45419D01*
X-8209Y45109D01*
X-8519Y44646D01*
X-8578Y44350D01*
X-7450D01*
Y45478D01*
D02*
G37*
G36*
X-5822Y43850D02*
X-6950D01*
Y42722D01*
X-6654Y42781D01*
X-6191Y43091D01*
X-5881Y43554D01*
X-5822Y43850D01*
D02*
G37*
G36*
X-7450D02*
X-8578D01*
X-8519Y43554D01*
X-8209Y43091D01*
X-7746Y42781D01*
X-7450Y42722D01*
Y43850D01*
D02*
G37*
G36*
X19791Y39868D02*
X19032Y37784D01*
X21116Y37026D01*
X21226Y37745D01*
X20993Y38699D01*
X20412Y39491D01*
X19791Y39868D01*
D02*
G37*
G36*
X-18850Y36878D02*
Y35750D01*
X-17722D01*
X-17781Y36046D01*
X-18091Y36509D01*
X-18554Y36819D01*
X-18850Y36878D01*
D02*
G37*
G36*
X-19350D02*
X-19646Y36819D01*
X-20109Y36509D01*
X-20419Y36046D01*
X-20478Y35750D01*
X-19350D01*
Y36878D01*
D02*
G37*
G36*
X-27708Y35092D02*
X-28320Y34480D01*
X-28703Y34540D01*
X-28886Y34621D01*
X-29023Y34827D01*
X-29288Y35004D01*
X-29600Y35066D01*
X-29912Y35004D01*
X-30177Y34827D01*
X-30354Y34562D01*
X-30416Y34250D01*
Y33776D01*
X-30416Y33776D01*
X-30354Y33464D01*
X-30177Y33199D01*
X-29889Y32911D01*
X-30916Y31884D01*
X-28265Y29233D01*
X-25057Y32441D01*
X-27708Y35092D01*
D02*
G37*
G36*
X24100Y38440D02*
X23281Y38277D01*
X22587Y37813D01*
X22123Y37119D01*
X21960Y36300D01*
X22123Y35481D01*
X22587Y34786D01*
X23281Y34323D01*
X24100Y34160D01*
X24919Y34323D01*
X25613Y34786D01*
X26077Y35481D01*
X26240Y36300D01*
X26077Y37119D01*
X25613Y37813D01*
X24919Y38277D01*
X24100Y38440D01*
D02*
G37*
G36*
X-17722Y35250D02*
X-18850D01*
Y34122D01*
X-18554Y34181D01*
X-18091Y34491D01*
X-17781Y34954D01*
X-17722Y35250D01*
D02*
G37*
G36*
X-19350D02*
X-20478D01*
X-20419Y34954D01*
X-20109Y34491D01*
X-19646Y34181D01*
X-19350Y34122D01*
Y35250D01*
D02*
G37*
G36*
X-23050Y34778D02*
Y33650D01*
X-21922D01*
X-21981Y33946D01*
X-22291Y34409D01*
X-22754Y34719D01*
X-23050Y34778D01*
D02*
G37*
G36*
X-23550D02*
X-23846Y34719D01*
X-24309Y34409D01*
X-24619Y33946D01*
X-24678Y33650D01*
X-23550D01*
Y34778D01*
D02*
G37*
G36*
X-741Y34669D02*
X-1112Y34595D01*
X-1426Y34385D01*
X-1636Y34071D01*
X-1674Y33880D01*
X-1911Y33642D01*
X-3069D01*
Y33757D01*
X-4929D01*
Y32169D01*
X-5129Y31752D01*
X-5129Y31480D01*
Y30872D01*
X-3999D01*
X-2869D01*
Y31752D01*
X-2477Y32011D01*
X-1573D01*
X-1573Y32011D01*
X-1261Y32073D01*
X-996Y32250D01*
X-459Y32787D01*
X-370Y32805D01*
X-56Y33015D01*
X154Y33329D01*
X228Y33700D01*
X154Y34071D01*
X-56Y34385D01*
X-370Y34595D01*
X-741Y34669D01*
D02*
G37*
G36*
X19570Y33650D02*
X18850D01*
Y32930D01*
X18990Y32958D01*
X19321Y33179D01*
X19542Y33510D01*
X19570Y33650D01*
D02*
G37*
G36*
X18350D02*
X17630D01*
X17658Y33510D01*
X17879Y33179D01*
X18210Y32958D01*
X18350Y32930D01*
Y33650D01*
D02*
G37*
G36*
X6000Y32415D02*
X5688Y32353D01*
X5423Y32176D01*
X5002D01*
X4737Y32353D01*
X4425Y32415D01*
X4113Y32353D01*
X3876Y32195D01*
X3399D01*
X2978Y32020D01*
X1149Y30191D01*
X111D01*
Y28409D01*
X2089D01*
Y29447D01*
X2883Y30241D01*
X2988Y30247D01*
X3411Y29887D01*
X3411Y28391D01*
X5389D01*
Y30146D01*
X6033Y30790D01*
X6312Y30846D01*
X6577Y31022D01*
X6754Y31287D01*
X6816Y31599D01*
X6754Y31911D01*
X6577Y32176D01*
X6312Y32353D01*
X6000Y32415D01*
D02*
G37*
G36*
X-21922Y33150D02*
X-23050D01*
Y32022D01*
X-22754Y32081D01*
X-22291Y32391D01*
X-21981Y32854D01*
X-21922Y33150D01*
D02*
G37*
G36*
X-23550D02*
X-24678D01*
X-24619Y32854D01*
X-24309Y32391D01*
X-23846Y32081D01*
X-23550Y32022D01*
Y33150D01*
D02*
G37*
G36*
X-2869Y30372D02*
X-3749D01*
Y29492D01*
X-2869D01*
Y30372D01*
D02*
G37*
G36*
X-4249D02*
X-5129D01*
Y29492D01*
X-4249D01*
Y30372D01*
D02*
G37*
G36*
X9400Y29419D02*
Y28700D01*
X10119D01*
X10092Y28840D01*
X9871Y29171D01*
X9540Y29392D01*
X9400Y29419D01*
D02*
G37*
G36*
X8900D02*
X8759Y29392D01*
X8429Y29171D01*
X8208Y28840D01*
X8180Y28700D01*
X8900D01*
Y29419D01*
D02*
G37*
G36*
X10119Y28200D02*
X9400D01*
Y27480D01*
X9540Y27508D01*
X9871Y27729D01*
X10092Y28059D01*
X10119Y28200D01*
D02*
G37*
G36*
X8900D02*
X8180D01*
X8208Y28059D01*
X8429Y27729D01*
X8759Y27508D01*
X8900Y27480D01*
Y28200D01*
D02*
G37*
G36*
X-4250Y26551D02*
Y25831D01*
X-3530D01*
X-3558Y25971D01*
X-3779Y26302D01*
X-4110Y26523D01*
X-4250Y26551D01*
D02*
G37*
G36*
X37650Y26278D02*
X37354Y26219D01*
X36891Y25909D01*
X36581Y25446D01*
X36522Y25150D01*
X37650D01*
Y26278D01*
D02*
G37*
G36*
Y24650D02*
X36522D01*
X36581Y24354D01*
X36891Y23891D01*
X37354Y23581D01*
X37650Y23522D01*
Y24650D01*
D02*
G37*
G36*
X-39250Y23270D02*
Y22550D01*
X-38530D01*
X-38558Y22690D01*
X-38779Y23021D01*
X-39110Y23242D01*
X-39250Y23270D01*
D02*
G37*
G36*
X9650Y23070D02*
Y22350D01*
X10370D01*
X10342Y22490D01*
X10121Y22821D01*
X9790Y23042D01*
X9650Y23070D01*
D02*
G37*
G36*
X9150D02*
X9010Y23042D01*
X8679Y22821D01*
X8458Y22490D01*
X8430Y22350D01*
X9150D01*
Y23070D01*
D02*
G37*
G36*
X22150Y22270D02*
Y21550D01*
X22870D01*
X22842Y21690D01*
X22621Y22021D01*
X22290Y22242D01*
X22150Y22270D01*
D02*
G37*
G36*
X-38530Y22050D02*
X-39250D01*
Y21330D01*
X-39110Y21358D01*
X-38779Y21579D01*
X-38558Y21910D01*
X-38530Y22050D01*
D02*
G37*
G36*
X10370Y21850D02*
X9650D01*
Y21130D01*
X9790Y21158D01*
X10121Y21379D01*
X10342Y21710D01*
X10370Y21850D01*
D02*
G37*
G36*
X9150D02*
X8430D01*
X8458Y21710D01*
X8679Y21379D01*
X9010Y21158D01*
X9150Y21130D01*
Y21850D01*
D02*
G37*
G36*
X19450Y21770D02*
X19310Y21742D01*
X18979Y21521D01*
X18758Y21190D01*
X18730Y21050D01*
X19450D01*
Y21770D01*
D02*
G37*
G36*
X40050Y21978D02*
X39754Y21919D01*
X39291Y21609D01*
X38981Y21146D01*
X38922Y20850D01*
X40050D01*
Y21978D01*
D02*
G37*
G36*
X31884Y30916D02*
X29233Y28265D01*
X32441Y25057D01*
X33047Y25663D01*
X33484Y25393D01*
Y21700D01*
X33484Y21700D01*
X33484Y21700D01*
Y18992D01*
X32740D01*
Y18327D01*
X31360D01*
Y18992D01*
X28240D01*
Y16070D01*
X28240Y16030D01*
X28143Y15570D01*
X28040D01*
Y14139D01*
X29800D01*
X31560D01*
Y15570D01*
X31457D01*
X31360Y16030D01*
X31360Y16070D01*
Y16695D01*
X32740D01*
Y16070D01*
X32740Y16030D01*
X32643Y15570D01*
X32540D01*
Y14139D01*
X34300D01*
X36060D01*
Y15570D01*
X35957D01*
X35860Y16030D01*
X35860Y16070D01*
Y18992D01*
X35116D01*
Y20480D01*
X35616Y20747D01*
X35732Y20670D01*
X36200Y20576D01*
X36668Y20670D01*
X37065Y20935D01*
X37330Y21332D01*
X37424Y21800D01*
X37330Y22268D01*
X37065Y22665D01*
X36668Y22930D01*
X36200Y23023D01*
X35732Y22930D01*
X35616Y22853D01*
X35116Y23120D01*
Y25849D01*
X35053Y26161D01*
X34877Y26426D01*
X34877Y26426D01*
X34343Y26959D01*
X35092Y27708D01*
X31884Y30916D01*
D02*
G37*
G36*
X40050Y20350D02*
X38922D01*
X38981Y20054D01*
X39291Y19591D01*
X39754Y19281D01*
X40050Y19222D01*
Y20350D01*
D02*
G37*
G36*
X19570Y18050D02*
X18850D01*
Y17330D01*
X18990Y17358D01*
X19321Y17579D01*
X19542Y17910D01*
X19570Y18050D01*
D02*
G37*
G36*
X18350D02*
X17630D01*
X17658Y17910D01*
X17879Y17579D01*
X18210Y17358D01*
X18350Y17330D01*
Y18050D01*
D02*
G37*
G36*
X42050Y18178D02*
X41754Y18119D01*
X41291Y17809D01*
X40981Y17346D01*
X40922Y17050D01*
X42050D01*
Y18178D01*
D02*
G37*
G36*
X24250Y17470D02*
Y16750D01*
X24970D01*
X24942Y16890D01*
X24721Y17221D01*
X24390Y17442D01*
X24250Y17470D01*
D02*
G37*
G36*
X23750D02*
X23610Y17442D01*
X23279Y17221D01*
X23058Y16890D01*
X23030Y16750D01*
X23750D01*
Y17470D01*
D02*
G37*
G36*
X24970Y16250D02*
X24250D01*
Y15530D01*
X24390Y15558D01*
X24721Y15779D01*
X24942Y16110D01*
X24970Y16250D01*
D02*
G37*
G36*
X23750D02*
X23030D01*
X23058Y16110D01*
X23279Y15779D01*
X23610Y15558D01*
X23750Y15530D01*
Y16250D01*
D02*
G37*
G36*
X42050Y16550D02*
X40922D01*
X40981Y16254D01*
X41291Y15791D01*
X41754Y15481D01*
X42050Y15422D01*
Y16550D01*
D02*
G37*
G36*
X14050Y16166D02*
X13738Y16104D01*
X13473Y15927D01*
X13296Y15662D01*
X13234Y15350D01*
X13296Y15038D01*
X13473Y14773D01*
X13738Y14596D01*
X14050Y14534D01*
X14362Y14596D01*
X14627Y14773D01*
X14804Y15038D01*
X14866Y15350D01*
X14804Y15662D01*
X14627Y15927D01*
X14362Y16104D01*
X14050Y16166D01*
D02*
G37*
G36*
X-41922Y14750D02*
X-43050D01*
Y13622D01*
X-42754Y13681D01*
X-42291Y13991D01*
X-41981Y14454D01*
X-41922Y14750D01*
D02*
G37*
G36*
X4989Y13869D02*
X4050D01*
Y13028D01*
X4989D01*
Y13869D01*
D02*
G37*
G36*
X-2066Y14816D02*
X-4084D01*
Y14181D01*
X-4969D01*
X-5428Y13991D01*
X-6669Y12749D01*
X-8032D01*
X-8056Y12785D01*
X-8370Y12995D01*
X-8741Y13069D01*
X-9112Y12995D01*
X-9426Y12785D01*
X-9636Y12471D01*
X-9710Y12100D01*
X-9636Y11729D01*
X-9426Y11415D01*
X-9112Y11205D01*
X-8741Y11131D01*
X-8370Y11205D01*
X-8056Y11415D01*
X-8032Y11451D01*
X-6400D01*
X-6089Y11580D01*
X-5654Y11399D01*
X-5557Y11317D01*
X-5524Y11151D01*
X-5270Y10771D01*
X-4890Y10517D01*
X-4691Y10477D01*
Y11600D01*
X-4441D01*
Y11850D01*
X-3223D01*
X-2935Y12247D01*
X-2066D01*
Y14816D01*
D02*
G37*
G36*
X36060Y13639D02*
X34550D01*
Y12208D01*
X36060D01*
Y13639D01*
D02*
G37*
G36*
X34050D02*
X32540D01*
Y12208D01*
X34050D01*
Y13639D01*
D02*
G37*
G36*
X31560D02*
X30050D01*
Y12208D01*
X31560D01*
Y13639D01*
D02*
G37*
G36*
X29550D02*
X28040D01*
Y12208D01*
X29550D01*
Y13639D01*
D02*
G37*
G36*
X11250Y12770D02*
Y12050D01*
X11970D01*
X11942Y12190D01*
X11721Y12521D01*
X11390Y12742D01*
X11250Y12770D01*
D02*
G37*
G36*
X10750D02*
X10610Y12742D01*
X10279Y12521D01*
X10058Y12190D01*
X10030Y12050D01*
X10750D01*
Y12770D01*
D02*
G37*
G36*
X43550Y12878D02*
X43254Y12819D01*
X42791Y12509D01*
X42481Y12046D01*
X42422Y11750D01*
X43550D01*
Y12878D01*
D02*
G37*
G36*
X13950Y12170D02*
Y11450D01*
X14670D01*
X14642Y11590D01*
X14421Y11921D01*
X14090Y12142D01*
X13950Y12170D01*
D02*
G37*
G36*
X13450D02*
X13310Y12142D01*
X12979Y11921D01*
X12758Y11590D01*
X12730Y11450D01*
X13450D01*
Y12170D01*
D02*
G37*
G36*
X7950Y12070D02*
Y11350D01*
X8670D01*
X8642Y11490D01*
X8421Y11821D01*
X8090Y12042D01*
X7950Y12070D01*
D02*
G37*
G36*
X7450D02*
X7310Y12042D01*
X6979Y11821D01*
X6758Y11490D01*
X6730Y11350D01*
X7450D01*
Y12070D01*
D02*
G37*
G36*
X11970Y11550D02*
X11250D01*
Y10830D01*
X11390Y10858D01*
X11721Y11079D01*
X11942Y11410D01*
X11970Y11550D01*
D02*
G37*
G36*
X10750D02*
X10030D01*
X10058Y11410D01*
X10279Y11079D01*
X10610Y10858D01*
X10750Y10830D01*
Y11550D01*
D02*
G37*
G36*
X-3318Y11350D02*
X-4191D01*
Y10477D01*
X-3992Y10517D01*
X-3612Y10771D01*
X-3358Y11151D01*
X-3318Y11350D01*
D02*
G37*
G36*
X14670Y10950D02*
X13950D01*
Y10230D01*
X14090Y10258D01*
X14421Y10479D01*
X14642Y10810D01*
X14670Y10950D01*
D02*
G37*
G36*
X13450D02*
X12730D01*
X12758Y10810D01*
X12979Y10479D01*
X13310Y10258D01*
X13450Y10230D01*
Y10950D01*
D02*
G37*
G36*
X8670Y10850D02*
X7950D01*
Y10130D01*
X8090Y10158D01*
X8421Y10379D01*
X8642Y10710D01*
X8670Y10850D01*
D02*
G37*
G36*
X7450D02*
X6730D01*
X6758Y10710D01*
X6979Y10379D01*
X7310Y10158D01*
X7450Y10130D01*
Y10850D01*
D02*
G37*
G36*
X32550Y11178D02*
X32254Y11119D01*
X31791Y10809D01*
X31481Y10346D01*
X31422Y10050D01*
X32550D01*
Y11178D01*
D02*
G37*
G36*
X-14171Y10968D02*
X-16193D01*
Y8750D01*
X-14171D01*
Y10968D01*
D02*
G37*
G36*
X32550Y9550D02*
X31422D01*
X31481Y9254D01*
X31791Y8791D01*
X32254Y8481D01*
X32550Y8422D01*
Y9550D01*
D02*
G37*
G36*
X29750Y7778D02*
Y6650D01*
X30878D01*
X30819Y6946D01*
X30509Y7409D01*
X30046Y7719D01*
X29750Y7778D01*
D02*
G37*
G36*
X29250D02*
X28954Y7719D01*
X28491Y7409D01*
X28181Y6946D01*
X28122Y6650D01*
X29250D01*
Y7778D01*
D02*
G37*
G36*
X-14171Y8250D02*
X-16193D01*
Y6032D01*
X-14171D01*
Y8250D01*
D02*
G37*
G36*
X32550Y6478D02*
X32254Y6419D01*
X31791Y6109D01*
X31481Y5646D01*
X31422Y5350D01*
X32550D01*
Y6478D01*
D02*
G37*
G36*
X30878Y6150D02*
X29750D01*
Y5022D01*
X30046Y5081D01*
X30509Y5391D01*
X30819Y5854D01*
X30878Y6150D01*
D02*
G37*
G36*
X29250D02*
X28122D01*
X28181Y5854D01*
X28491Y5391D01*
X28954Y5081D01*
X29250Y5022D01*
Y6150D01*
D02*
G37*
G36*
X13650Y5478D02*
Y4350D01*
X14778D01*
X14719Y4646D01*
X14409Y5109D01*
X13946Y5419D01*
X13650Y5478D01*
D02*
G37*
G36*
X13150D02*
X12854Y5419D01*
X12391Y5109D01*
X12081Y4646D01*
X12022Y4350D01*
X13150D01*
Y5478D01*
D02*
G37*
G36*
X24509Y4823D02*
Y3950D01*
X25382D01*
X25342Y4149D01*
X25088Y4529D01*
X24708Y4783D01*
X24509Y4823D01*
D02*
G37*
G36*
X24009D02*
X23810Y4783D01*
X23430Y4529D01*
X23176Y4149D01*
X23136Y3950D01*
X24009D01*
Y4823D01*
D02*
G37*
G36*
X-15108Y5360D02*
X-16539D01*
Y3850D01*
X-15108D01*
Y5360D01*
D02*
G37*
G36*
X32550Y4850D02*
X31422D01*
X31481Y4554D01*
X31791Y4091D01*
X32254Y3781D01*
X32550Y3722D01*
Y4850D01*
D02*
G37*
G36*
X-23391Y4350D02*
X-24264D01*
X-24224Y4151D01*
X-23970Y3771D01*
X-23590Y3517D01*
X-23391Y3477D01*
Y4350D01*
D02*
G37*
G36*
X25382Y3450D02*
X24509D01*
Y2577D01*
X24708Y2617D01*
X25088Y2871D01*
X25342Y3251D01*
X25382Y3450D01*
D02*
G37*
G36*
X24009D02*
X23136D01*
X23176Y3251D01*
X23430Y2871D01*
X23810Y2617D01*
X24009Y2577D01*
Y3450D01*
D02*
G37*
G36*
X-15108Y3350D02*
X-16539D01*
Y1840D01*
X-15108D01*
Y3350D01*
D02*
G37*
G36*
X14778Y3850D02*
X12022D01*
X12081Y3554D01*
X12391Y3091D01*
X12526Y3000D01*
X12375Y2500D01*
X10000D01*
Y250D01*
X15000D01*
Y2500D01*
X14425D01*
X14274Y3000D01*
X14409Y3091D01*
X14719Y3554D01*
X14778Y3850D01*
D02*
G37*
G36*
X32550Y-322D02*
X32254Y-381D01*
X31791Y-691D01*
X31481Y-1154D01*
X31422Y-1450D01*
X32550D01*
Y-322D01*
D02*
G37*
G36*
X12250Y-250D02*
X10000D01*
Y-2500D01*
X12250D01*
Y-250D01*
D02*
G37*
G36*
X32550Y-1950D02*
X31422D01*
X31481Y-2246D01*
X31791Y-2709D01*
X32254Y-3019D01*
X32550Y-3078D01*
Y-1950D01*
D02*
G37*
G36*
X15000Y-250D02*
X12750D01*
Y-2500D01*
X13028D01*
X13123Y-3000D01*
X12845Y-3186D01*
X12591Y-3566D01*
X12551Y-3765D01*
X14797D01*
X14757Y-3566D01*
X14503Y-3186D01*
X14225Y-3000D01*
X14320Y-2500D01*
X15000D01*
Y-250D01*
D02*
G37*
G36*
X14797Y-4265D02*
X13924D01*
Y-5138D01*
X14123Y-5098D01*
X14503Y-4844D01*
X14757Y-4464D01*
X14797Y-4265D01*
D02*
G37*
G36*
X13424D02*
X12551D01*
X12591Y-4464D01*
X12845Y-4844D01*
X13225Y-5098D01*
X13424Y-5138D01*
Y-4265D01*
D02*
G37*
G36*
X32550Y-6122D02*
X32254Y-6181D01*
X31791Y-6491D01*
X31481Y-6954D01*
X31422Y-7250D01*
X32550D01*
Y-6122D01*
D02*
G37*
G36*
X-37091Y-7677D02*
Y-8550D01*
X-36218D01*
X-36258Y-8351D01*
X-36512Y-7971D01*
X-36892Y-7717D01*
X-37091Y-7677D01*
D02*
G37*
G36*
X-37591D02*
X-37790Y-7717D01*
X-38170Y-7971D01*
X-38424Y-8351D01*
X-38464Y-8550D01*
X-37591D01*
Y-7677D01*
D02*
G37*
G36*
X32550Y-7750D02*
X31422D01*
X31481Y-8046D01*
X31791Y-8509D01*
X32254Y-8819D01*
X32550Y-8878D01*
Y-7750D01*
D02*
G37*
G36*
X-36218Y-9050D02*
X-37091D01*
Y-9923D01*
X-36892Y-9883D01*
X-36512Y-9629D01*
X-36258Y-9249D01*
X-36218Y-9050D01*
D02*
G37*
G36*
X-37591D02*
X-38464D01*
X-38424Y-9249D01*
X-38170Y-9629D01*
X-37790Y-9883D01*
X-37591Y-9923D01*
Y-9050D01*
D02*
G37*
G36*
X3700Y9527D02*
X3562Y9500D01*
X-4500Y9500D01*
X-9500Y4500D01*
X-9500Y-4781D01*
X-2636Y-9500D01*
X2150Y-9500D01*
X2417Y-10000D01*
X2381Y-10054D01*
X2322Y-10350D01*
X5078D01*
X5019Y-10054D01*
X4709Y-9591D01*
X4654Y-9554D01*
X4590Y-8910D01*
X9500Y-4000D01*
X9500Y4500D01*
X4500Y9500D01*
X3838D01*
X3700Y9527D01*
D02*
G37*
G36*
X43550Y-10350D02*
X42422D01*
X42481Y-10646D01*
X42791Y-11109D01*
X43254Y-11419D01*
X43550Y-11478D01*
Y-10350D01*
D02*
G37*
G36*
X5078Y-10850D02*
X3950D01*
Y-11978D01*
X4246Y-11919D01*
X4709Y-11609D01*
X5019Y-11146D01*
X5078Y-10850D01*
D02*
G37*
G36*
X3450D02*
X2322D01*
X2381Y-11146D01*
X2691Y-11609D01*
X3154Y-11919D01*
X3450Y-11978D01*
Y-10850D01*
D02*
G37*
G36*
X38478Y-10450D02*
X35722D01*
X35781Y-10746D01*
X36065Y-11171D01*
X36020Y-11364D01*
X35881Y-11671D01*
X33632D01*
Y-13692D01*
X38568D01*
Y-11671D01*
X38319D01*
X38179Y-11364D01*
X38135Y-11171D01*
X38419Y-10746D01*
X38478Y-10450D01*
D02*
G37*
G36*
X38568Y-14193D02*
X36350D01*
Y-16214D01*
X38568D01*
Y-14193D01*
D02*
G37*
G36*
X35850D02*
X33632D01*
Y-16214D01*
X35850D01*
Y-14193D01*
D02*
G37*
G36*
X41250Y-15622D02*
X40954Y-15681D01*
X40491Y-15991D01*
X40181Y-16454D01*
X40122Y-16750D01*
X41250D01*
Y-15622D01*
D02*
G37*
G36*
X-40700Y-12560D02*
X-41519Y-12723D01*
X-42213Y-13186D01*
X-42677Y-13881D01*
X-42840Y-14700D01*
X-42677Y-15519D01*
X-42213Y-16214D01*
X-41519Y-16677D01*
X-40700Y-16840D01*
X-39881Y-16677D01*
X-39186Y-16214D01*
X-38723Y-15519D01*
X-38560Y-14700D01*
X-38723Y-13881D01*
X-39186Y-13186D01*
X-39881Y-12723D01*
X-40700Y-12560D01*
D02*
G37*
G36*
X-19600Y-8731D02*
X-19971Y-8805D01*
X-20285Y-9015D01*
X-20495Y-9329D01*
X-20569Y-9700D01*
X-20495Y-10071D01*
X-20416Y-10189D01*
Y-12408D01*
X-20760D01*
Y-15370D01*
X-20760D01*
X-20857Y-15830D01*
X-20960D01*
Y-17261D01*
X-19200D01*
Y-17511D01*
X-18950D01*
Y-19192D01*
X-17440D01*
Y-17590D01*
X-16946Y-17319D01*
X-16650Y-17378D01*
Y-16000D01*
X-16150D01*
Y-17490D01*
X-15760Y-17810D01*
Y-19292D01*
X-13808D01*
X-13759Y-19789D01*
X-14022Y-19844D01*
X-14090Y-19858D01*
X-14100Y-19865D01*
X-14421Y-20079D01*
X-14642Y-20410D01*
X-14670Y-20550D01*
X-12730D01*
X-12758Y-20410D01*
X-12979Y-20079D01*
X-13299Y-19865D01*
X-13310Y-19858D01*
X-13375Y-19844D01*
X-13641Y-19789D01*
X-13592Y-19292D01*
X-12240D01*
Y-17861D01*
X-14000D01*
Y-17361D01*
X-12240D01*
Y-15930D01*
X-12343D01*
X-12440Y-15470D01*
X-12440D01*
Y-14172D01*
X-10760D01*
Y-15430D01*
X-10760Y-15470D01*
X-10857Y-15930D01*
X-10960D01*
Y-17361D01*
X-9200D01*
X-7440D01*
Y-15930D01*
X-7543D01*
X-7640Y-15470D01*
X-7640Y-15430D01*
Y-12508D01*
X-8243D01*
X-8299Y-12008D01*
X-8235Y-11965D01*
X-7970Y-11568D01*
X-7876Y-11100D01*
X-7970Y-10632D01*
X-8235Y-10235D01*
X-8632Y-9970D01*
X-9100Y-9877D01*
X-9568Y-9970D01*
X-9965Y-10235D01*
X-10230Y-10632D01*
X-10323Y-11100D01*
X-10230Y-11568D01*
X-10016Y-11889D01*
Y-12508D01*
X-10760D01*
Y-12540D01*
X-12440D01*
Y-12508D01*
X-15560D01*
Y-12540D01*
X-16167D01*
X-16285Y-12461D01*
X-16656Y-12387D01*
X-17027Y-12461D01*
X-17140Y-12537D01*
X-17640Y-12408D01*
Y-12408D01*
X-18784D01*
Y-10189D01*
X-18705Y-10071D01*
X-18631Y-9700D01*
X-18705Y-9329D01*
X-18915Y-9015D01*
X-19229Y-8805D01*
X-19600Y-8731D01*
D02*
G37*
G36*
X38368Y-17186D02*
X33832D01*
Y-18284D01*
X33298D01*
X33265Y-18235D01*
X32868Y-17970D01*
X32400Y-17876D01*
X31932Y-17970D01*
X31535Y-18235D01*
X31270Y-18632D01*
X31176Y-19100D01*
X31270Y-19568D01*
X31535Y-19965D01*
X31932Y-20230D01*
X32400Y-20324D01*
X32868Y-20230D01*
X33232Y-19987D01*
X33503Y-20034D01*
X33639Y-20565D01*
X30794Y-23410D01*
X29378Y-21994D01*
X26170Y-25203D01*
X28822Y-27854D01*
X32030Y-24646D01*
X31947Y-24564D01*
X35182Y-21329D01*
X38368D01*
Y-17186D01*
D02*
G37*
G36*
X41250Y-17250D02*
X40122D01*
X40181Y-17546D01*
X40491Y-18009D01*
X40954Y-18319D01*
X41250Y-18378D01*
Y-17250D01*
D02*
G37*
G36*
X-19450Y-17761D02*
X-20960D01*
Y-19192D01*
X-19450D01*
Y-17761D01*
D02*
G37*
G36*
X-7440Y-17861D02*
X-8950D01*
Y-19292D01*
X-7440D01*
Y-17861D01*
D02*
G37*
G36*
X-9450D02*
X-10960D01*
Y-19292D01*
X-9450D01*
Y-17861D01*
D02*
G37*
G36*
X8250Y-19930D02*
Y-20650D01*
X8970D01*
X8942Y-20510D01*
X8721Y-20179D01*
X8390Y-19958D01*
X8250Y-19930D01*
D02*
G37*
G36*
X7750D02*
X7610Y-19958D01*
X7279Y-20179D01*
X7058Y-20510D01*
X7030Y-20650D01*
X7750D01*
Y-19930D01*
D02*
G37*
G36*
X25550Y-21030D02*
Y-21750D01*
X26270D01*
X26242Y-21610D01*
X26021Y-21279D01*
X25690Y-21058D01*
X25550Y-21030D01*
D02*
G37*
G36*
X25050D02*
X24910Y-21058D01*
X24579Y-21279D01*
X24358Y-21610D01*
X24330Y-21750D01*
X25050D01*
Y-21030D01*
D02*
G37*
G36*
X-12730Y-21050D02*
X-13450D01*
Y-21770D01*
X-13310Y-21742D01*
X-12979Y-21521D01*
X-12758Y-21190D01*
X-12730Y-21050D01*
D02*
G37*
G36*
X-13950D02*
X-14670D01*
X-14642Y-21190D01*
X-14421Y-21521D01*
X-14090Y-21742D01*
X-13950Y-21770D01*
Y-21050D01*
D02*
G37*
G36*
X8970Y-21150D02*
X8250D01*
Y-21870D01*
X8390Y-21842D01*
X8721Y-21621D01*
X8942Y-21290D01*
X8970Y-21150D01*
D02*
G37*
G36*
X7750D02*
X7030D01*
X7058Y-21290D01*
X7279Y-21621D01*
X7610Y-21842D01*
X7750Y-21870D01*
Y-21150D01*
D02*
G37*
G36*
X26270Y-22250D02*
X25550D01*
Y-22970D01*
X25690Y-22942D01*
X26021Y-22721D01*
X26242Y-22390D01*
X26270Y-22250D01*
D02*
G37*
G36*
X25050D02*
X24330D01*
X24358Y-22390D01*
X24579Y-22721D01*
X24910Y-22942D01*
X25050Y-22970D01*
Y-22250D01*
D02*
G37*
G36*
X9843Y-25109D02*
X9122Y-25204D01*
X8450Y-25482D01*
X7874Y-25925D01*
X7431Y-26502D01*
X7153Y-27173D01*
X7058Y-27894D01*
Y-28878D01*
X7153Y-29599D01*
X7431Y-30270D01*
X7874Y-30847D01*
X8450Y-31289D01*
X9122Y-31567D01*
X9843Y-31662D01*
X10563Y-31567D01*
X11235Y-31289D01*
X11811Y-30847D01*
X12254Y-30270D01*
X12532Y-29599D01*
X12627Y-28878D01*
Y-27894D01*
X12532Y-27173D01*
X12254Y-26502D01*
X11811Y-25925D01*
X11235Y-25482D01*
X10563Y-25204D01*
X9843Y-25109D01*
D02*
G37*
G36*
X-37350Y-24122D02*
Y-25250D01*
X-36222D01*
X-36281Y-24954D01*
X-36591Y-24491D01*
X-37054Y-24181D01*
X-37350Y-24122D01*
D02*
G37*
G36*
X-19150Y-32530D02*
Y-33250D01*
X-18430D01*
X-18458Y-33110D01*
X-18679Y-32779D01*
X-19010Y-32558D01*
X-19150Y-32530D01*
D02*
G37*
G36*
X-19650D02*
X-19790Y-32558D01*
X-20121Y-32779D01*
X-20342Y-33110D01*
X-20370Y-33250D01*
X-19650D01*
Y-32530D01*
D02*
G37*
G36*
X-18430Y-33750D02*
X-19150D01*
Y-34470D01*
X-19010Y-34442D01*
X-18679Y-34221D01*
X-18458Y-33890D01*
X-18430Y-33750D01*
D02*
G37*
G36*
X-19650D02*
X-20370D01*
X-20342Y-33890D01*
X-20121Y-34221D01*
X-19790Y-34442D01*
X-19650Y-34470D01*
Y-33750D01*
D02*
G37*
G36*
X-22250Y-37522D02*
Y-38650D01*
X-21122D01*
X-21181Y-38354D01*
X-21491Y-37891D01*
X-21954Y-37581D01*
X-22250Y-37522D01*
D02*
G37*
G36*
X-22750D02*
X-23046Y-37581D01*
X-23509Y-37891D01*
X-23819Y-38354D01*
X-23878Y-38650D01*
X-22750D01*
Y-37522D01*
D02*
G37*
G36*
X20050Y-39222D02*
Y-40350D01*
X21178D01*
X21119Y-40054D01*
X20809Y-39591D01*
X20346Y-39281D01*
X20050Y-39222D01*
D02*
G37*
G36*
X19550D02*
X19254Y-39281D01*
X18791Y-39591D01*
X18481Y-40054D01*
X18422Y-40350D01*
X19550D01*
Y-39222D01*
D02*
G37*
G36*
X250Y-43822D02*
Y-44950D01*
X1378D01*
X1319Y-44654D01*
X1009Y-44191D01*
X546Y-43881D01*
X250Y-43822D01*
D02*
G37*
G36*
X-250D02*
X-546Y-43881D01*
X-1009Y-44191D01*
X-1319Y-44654D01*
X-1378Y-44950D01*
X-250D01*
Y-43822D01*
D02*
G37*
%LPD*%
D12*
X-3999Y32827D02*
D03*
Y30622D02*
D03*
D13*
X-21502Y12400D02*
D03*
X-19298D02*
D03*
X-21505Y15300D02*
D03*
X-19300D02*
D03*
D14*
X34300Y17511D02*
D03*
Y13889D02*
D03*
X-19200Y-13889D02*
D03*
Y-17511D02*
D03*
X-14000Y-13989D02*
D03*
Y-17611D02*
D03*
X-9200Y-13989D02*
D03*
Y-17611D02*
D03*
X29800Y17511D02*
D03*
Y13889D02*
D03*
D15*
X-20411Y3600D02*
D03*
X-16789D02*
D03*
D16*
X-11719Y13100D02*
D03*
X-14081D02*
D03*
D17*
X4400Y26919D02*
D03*
Y29281D02*
D03*
X1100Y26938D02*
D03*
Y29300D02*
D03*
X-6400Y19719D02*
D03*
Y22081D02*
D03*
X3800Y16481D02*
D03*
Y14119D02*
D03*
D43*
X-4500Y25581D02*
X-3999Y26082D01*
Y30622D01*
X-6759Y23259D02*
X-6400Y22900D01*
X-9358Y23259D02*
X-6759D01*
Y26100D01*
X-19600Y-13489D02*
Y-9700D01*
X-9200Y-13989D02*
Y-11200D01*
X-9100Y-11100D01*
X-16656Y-13356D02*
X-9833D01*
X-18025Y-1875D02*
Y1214D01*
X-20411Y3600D02*
X-18025Y1214D01*
X-20411Y3600D02*
Y5611D01*
X-21757Y6957D02*
X-20411Y5611D01*
X-21757Y6957D02*
Y8500D01*
Y10543D01*
X-21500Y10800D01*
X-24572Y8500D02*
X-21757D01*
X-27272Y5800D02*
X-24572Y8500D01*
X-21505Y15300D02*
Y23495D01*
X-21500Y10800D02*
Y15295D01*
X1100Y26938D02*
X4381D01*
X-34553Y12253D02*
Y13579D01*
Y12253D02*
X-33800Y11500D01*
Y200D02*
X-33100Y-500D01*
X-34500Y-15709D02*
Y-11800D01*
Y-25649D02*
Y-15709D01*
Y-25649D02*
X-32162Y-27987D01*
X-34500Y-11800D02*
X-30900Y-8200D01*
Y-500D01*
X-33100D02*
X-30900D01*
X-33800Y200D02*
Y11500D01*
X29800Y17511D02*
X34300D01*
X29800Y13889D02*
X34300D01*
X32162Y27987D02*
X34300Y25849D01*
X-3999Y32827D02*
X-1573D01*
X-700Y33700D01*
X-13700Y-20800D02*
Y-17911D01*
X29100Y-24924D02*
X30433D01*
X3800Y12400D02*
Y14119D01*
Y12400D02*
X5100Y11100D01*
X7700D01*
Y8443D02*
Y11100D01*
X6690Y7433D02*
X7700Y8443D01*
X29800Y6700D02*
Y13889D01*
X34400Y21800D02*
X36200D01*
X34300Y21700D02*
X34400Y21800D01*
X34300Y17511D02*
Y21700D01*
Y25849D01*
X32400Y-19100D02*
X35943D01*
X30433Y-24924D02*
X36100Y-19257D01*
X-36500Y-19600D02*
Y-17709D01*
X-37100Y-19600D02*
X-36500D01*
X-39600Y-22100D02*
X-37100Y-19600D01*
X-29600Y33776D02*
Y34250D01*
Y33776D02*
X-27987Y32162D01*
X29500Y6400D02*
X29800Y6700D01*
D44*
X-11700Y13119D02*
Y15800D01*
X-13700Y17800D02*
X-11700Y15800D01*
X-13700Y17800D02*
Y20100D01*
X-14300Y20700D02*
X-13700Y20100D01*
X-16642Y20700D02*
X-14300D01*
X-28700Y0D02*
Y131D01*
X-30069Y1500D02*
X-28700Y131D01*
X-31800Y2100D02*
X-31200Y1500D01*
X-30069D01*
X-30800Y3400D02*
Y11200D01*
X-32700Y1700D02*
Y12300D01*
X-33500Y13100D02*
X-32700Y12300D01*
X-33500Y13100D02*
Y14494D01*
X-34553Y15547D02*
X-33500Y14494D01*
X-31800Y2100D02*
Y14763D01*
X-32584Y15547D02*
X-31800Y14763D01*
X-29800Y4700D02*
Y12763D01*
X-30616Y13579D02*
X-29800Y12763D01*
D46*
X-16642Y23259D02*
X-14359D01*
X-11800Y20700D01*
Y18600D02*
Y20700D01*
Y18600D02*
X-11341Y18141D01*
X-9358D01*
Y20700D02*
X-8300D01*
X-7319Y19719D01*
X-6400D01*
Y18000D02*
Y19719D01*
X-32162Y25812D02*
Y27986D01*
X-34553Y23421D02*
X-32162Y25812D01*
X-31081Y24924D02*
X-29100D01*
X-34553Y21453D02*
X-31081Y24924D01*
X3399Y31599D02*
X4425D01*
X1100Y29300D02*
X3399Y31599D01*
X4400Y29999D02*
X6000Y31599D01*
X4400Y29281D02*
Y29999D01*
X-18600Y-3600D02*
X-13500D01*
X-19600Y-2600D02*
X-18600Y-3600D01*
X-19600Y-2600D02*
Y-300D01*
X28924Y24924D02*
X29100D01*
X22162Y32162D02*
X27986D01*
X20400Y30400D02*
X22162Y32162D01*
X75Y13532D02*
X1869D01*
X-1500Y17469D02*
X432D01*
X1419Y16481D02*
X3800D01*
X432Y17469D02*
X1419Y16481D01*
X-3500Y21000D02*
X-2000Y19500D01*
X23500D01*
X28924Y24924D01*
X-3500Y23800D02*
X-2000Y25300D01*
X-3500Y22400D02*
X-3150Y22750D01*
X-3065D01*
X-2450Y23365D01*
Y23450D01*
X-1676Y24224D01*
X20400Y25800D02*
Y30400D01*
X-2000Y25300D02*
X19900D01*
X20400Y25800D01*
X24924Y25724D02*
Y29100D01*
X23424Y24224D02*
X24924Y25724D01*
X-1676Y24224D02*
X23424D01*
D47*
X-40600Y17200D02*
X-31100D01*
X-11700Y36600D01*
X4860D01*
X9315Y41055D01*
D48*
X-16642Y16258D02*
Y18141D01*
X-17600Y15300D02*
X-16642Y16258D01*
X-19300Y15300D02*
X-17600D01*
X-19300D02*
X-19298Y15298D01*
X-16700Y13500D02*
X-14481D01*
X-14081Y13100D01*
X-19098Y13500D02*
X-16700D01*
X-19298Y12400D02*
Y15298D01*
X-19500Y15500D02*
Y17600D01*
X-16789Y3600D02*
X-16700Y3689D01*
X-16789Y3600D02*
X-16293Y3104D01*
X-16700Y3689D02*
Y13500D01*
X-16293Y3104D02*
X-9506D01*
X-4441Y9197D02*
Y11600D01*
X12500Y-2841D02*
Y0D01*
Y-2841D02*
X13674Y-4015D01*
X-19200Y-17511D02*
X-9300D01*
X18600Y33900D02*
Y37523D01*
D49*
X4600Y39400D02*
Y41100D01*
X-24924Y25376D02*
Y29100D01*
X-29800Y20500D02*
X-24924Y25376D01*
X-33537Y20500D02*
X-29800D01*
X-34553Y19484D02*
X-33537Y20500D01*
X-29100Y-24924D02*
Y-16700D01*
X-29700Y-16100D02*
X-29100Y-16700D01*
X-24924Y-29100D02*
Y-25776D01*
X-26400Y-24300D02*
X-24924Y-25776D01*
X-27986Y-32162D02*
X-26449Y-33700D01*
X-25700D01*
X-21600Y-29600D01*
Y-27500D01*
X-25500Y-23600D02*
X-21600Y-27500D01*
X-28700Y-10200D02*
X-26400Y-12500D01*
Y-24300D02*
Y-12500D01*
X16700Y-33000D02*
X17600Y-33900D01*
X16364Y-33936D02*
X17227Y-34800D01*
X16177Y-35023D02*
X16854Y-35700D01*
X-13677Y-35023D02*
X16177D01*
X-20700Y-28000D02*
X-13677Y-35023D01*
X-13491Y-33936D02*
X16364D01*
X-19800Y-27627D02*
X-13491Y-33936D01*
X-13154Y-33000D02*
X16700D01*
X-13727Y-32427D02*
X-13154Y-33000D01*
X-20700Y-28000D02*
Y-27127D01*
X-24600Y-23227D02*
X-20700Y-27127D01*
X-19800Y-27627D02*
Y-26754D01*
X-23700Y-22854D02*
X-19800Y-26754D01*
X-13727Y-32427D02*
Y-31554D01*
X-22800Y-22482D02*
X-13727Y-31554D01*
X-25000Y-9227D02*
Y-200D01*
X-23700Y-8854D02*
Y1200D01*
X17600Y-33900D02*
X21700D01*
X22600Y-33000D02*
Y-31424D01*
X21700Y-33900D02*
X22600Y-33000D01*
Y-31424D02*
X24924Y-29100D01*
X17227Y-34800D02*
X23000D01*
X25638Y-32162D01*
X27987D01*
X16854Y-35700D02*
X29400D01*
X32162Y-32938D01*
Y-27986D01*
X-25500Y-23600D02*
Y-11773D01*
X-29700Y-16100D02*
Y0D01*
X-30300Y600D02*
X-29700Y0D01*
X-31600Y600D02*
X-30300D01*
X-28700Y-10200D02*
Y0D01*
X-27586Y-9686D02*
X-25500Y-11773D01*
X-27600Y-9700D02*
X-27586Y-9686D01*
X-27600Y-9700D02*
Y-200D01*
X-24600Y-23227D02*
Y-12146D01*
X-24476Y-12021D01*
X-23700Y-22854D02*
Y-12518D01*
X-23576Y-12394D01*
X-22800Y-22482D02*
Y-12891D01*
X-22676Y-12767D01*
Y-9879D01*
X-23576Y-12394D02*
Y-10251D01*
X-24476Y-12021D02*
Y-11524D01*
X-26300Y-9700D02*
X-24476Y-11524D01*
X-24600Y-9227D02*
X-23576Y-10251D01*
X-23700Y-8854D02*
X-22676Y-9879D01*
X-26300Y-9700D02*
Y-200D01*
X-32700Y1700D02*
X-31600Y600D01*
X-4969Y13532D02*
X-3075D01*
X-6400Y12100D02*
X-4969Y13532D01*
X-8700Y12100D02*
X-6400D01*
X4617Y41117D02*
Y42765D01*
X4600Y41100D02*
X4617Y41117D01*
D51*
X-40700Y-14700D02*
D03*
X24100Y36300D02*
D03*
X37200Y-24200D02*
D03*
D52*
X9843Y-28386D02*
D03*
X-9843Y-28583D02*
D03*
D53*
X14173Y-39998D02*
D03*
X-14173Y-40000D02*
D03*
D54*
X-34553Y19484D02*
D03*
Y21453D02*
D03*
Y23421D02*
D03*
X-19600Y-300D02*
D03*
X-18025Y-1875D02*
D03*
X-13500Y-3600D02*
D03*
X4425Y31599D02*
D03*
X6000D02*
D03*
X-36521Y13579D02*
D03*
X-34553D02*
D03*
X-27600Y-200D02*
D03*
X-26300D02*
D03*
X-25000D02*
D03*
X-23700Y1200D02*
D03*
X-30800Y3400D02*
D03*
X-29800Y4700D02*
D03*
X-34553Y15547D02*
D03*
X-32584D02*
D03*
X-30800Y11200D02*
D03*
X-30616Y13579D02*
D03*
X-28647D02*
D03*
X-26679D02*
D03*
X-3500Y21000D02*
D03*
Y22400D02*
D03*
Y23800D02*
D03*
X-22900Y18700D02*
D03*
X-23000Y22100D02*
D03*
X-22900Y20000D02*
D03*
X1900Y13500D02*
D03*
X-31600Y18500D02*
D03*
X-13700Y-20800D02*
D03*
X-19400Y-33500D02*
D03*
X8000Y-20900D02*
D03*
X-4500Y25581D02*
D03*
X14050Y15350D02*
D03*
X18600Y18300D02*
D03*
X-40600Y17200D02*
D03*
X-39500Y22300D02*
D03*
X9315Y41055D02*
D03*
X14014Y39345D02*
D03*
X4600Y39400D02*
D03*
X14275Y26875D02*
D03*
X25300Y-22000D02*
D03*
X-29600Y34250D02*
D03*
X7700Y11100D02*
D03*
X13700Y11200D02*
D03*
X18600Y33900D02*
D03*
X24000Y16500D02*
D03*
X-18900Y6000D02*
D03*
X1276Y20576D02*
D03*
X9400Y22100D02*
D03*
X9150Y28450D02*
D03*
X2800Y26938D02*
D03*
X19700Y20800D02*
D03*
X21900Y21300D02*
D03*
X11000Y11800D02*
D03*
D55*
X-6800Y26100D02*
D03*
X-6400Y18000D02*
D03*
X-11700Y15800D02*
D03*
X-19600Y-9700D02*
D03*
X-16656Y-13356D02*
D03*
X-741Y33700D02*
D03*
X1378Y16481D02*
D03*
X-8741Y12100D02*
D03*
X-4441Y11600D02*
D03*
X24259Y3700D02*
D03*
X13674Y-4015D02*
D03*
X-23141Y4600D02*
D03*
X-37341Y-8800D02*
D03*
D56*
X-16700Y13500D02*
D03*
X-19500Y17600D02*
D03*
X-27956Y-13356D02*
D03*
X-9100Y-11100D02*
D03*
X-21505Y23495D02*
D03*
X43800Y-10100D02*
D03*
X37100Y-10200D02*
D03*
X32800Y-7500D02*
D03*
Y-1700D02*
D03*
Y5100D02*
D03*
Y9800D02*
D03*
X43800Y11500D02*
D03*
X29500Y6400D02*
D03*
X41500Y-17000D02*
D03*
X19800Y-40600D02*
D03*
X0Y-45200D02*
D03*
X-22500Y-38900D02*
D03*
X-37600Y-25500D02*
D03*
X-43300Y15000D02*
D03*
X-7200Y44100D02*
D03*
X12700Y43300D02*
D03*
X37900Y24900D02*
D03*
X40300Y20600D02*
D03*
X42300Y16800D02*
D03*
X36200Y21800D02*
D03*
X32400Y-19100D02*
D03*
X-39600Y-22100D02*
D03*
X-23300Y33400D02*
D03*
X-19100Y35500D02*
D03*
X-16400Y-16000D02*
D03*
X3700Y-10600D02*
D03*
X6000Y-3000D02*
D03*
X3700Y8100D02*
D03*
X13400Y4100D02*
D03*
D57*
X0Y-2500D02*
D03*
D58*
X-9506Y3104D02*
G03*
X10000Y0I9506J-3104D01*
G01*
X5388Y8424D02*
G03*
X-9506Y3104I-5388J-8424D01*
G01*
X10000Y0D02*
G03*
X6690Y7433I-10000J0D01*
G01*
D02*
G03*
X5388Y8424I-6690J-7433D01*
G01*
D59*
X-21757Y8500D02*
D03*
X-16443D02*
D03*
D60*
X29100Y24924D02*
D03*
X24924Y29100D02*
D03*
X27986Y32162D02*
D03*
X32162Y27987D02*
D03*
X-29100Y-24924D02*
D03*
X-24924Y-29100D02*
D03*
X-27986Y-32162D02*
D03*
X-32162Y-27987D02*
D03*
D61*
X-24924Y29100D02*
D03*
X-29100Y24924D02*
D03*
X-32162Y27986D02*
D03*
X-27987Y32162D02*
D03*
X32162Y-27986D02*
D03*
X27987Y-32162D02*
D03*
X24924Y-29100D02*
D03*
X29100Y-24924D02*
D03*
D62*
X36100Y-19257D02*
D03*
Y-13942D02*
D03*
D63*
X12500Y0D02*
D03*
D64*
X0D02*
D03*
D65*
X-36328Y5800D02*
D03*
X-27272D02*
D03*
D66*
X-9358Y18141D02*
D03*
Y20700D02*
D03*
Y23259D02*
D03*
X-16642D02*
D03*
Y20700D02*
D03*
Y18141D02*
D03*
D67*
X-34500Y-4291D02*
D03*
Y-15709D02*
D03*
D68*
X-1500Y17469D02*
D03*
D69*
X-3075Y13532D02*
D03*
X75D02*
D03*
D70*
X18712Y37635D02*
D03*
X14014Y39345D02*
D03*
X9315Y41055D02*
D03*
X4617Y42765D02*
D03*
D71*
X-36521Y5994D02*
Y13579D01*
X-36328Y128D02*
Y5800D01*
Y128D02*
X-34500Y-1700D01*
Y-4291D02*
Y-1700D01*
M02*
