G04 Layer_Physical_Order=2*
G04 Layer_Color=36540*
%FSLAX25Y25*%
%MOIN*%
G70*
G01*
G75*
%ADD43C,0.01000*%
%ADD44C,0.00400*%
%ADD45C,0.00300*%
%ADD46C,0.00500*%
%ADD54C,0.01000*%
%ADD55C,0.01300*%
%ADD56C,0.01800*%
G36*
X4074Y46564D02*
X8117Y46032D01*
X12098Y45149D01*
X12159Y45130D01*
X12154Y44677D01*
X12142Y44611D01*
X11691Y44309D01*
X11381Y43846D01*
X11322Y43550D01*
X14078D01*
X14019Y43846D01*
X13872Y44065D01*
X14191Y44489D01*
X15987Y43923D01*
X19754Y42362D01*
X23371Y40479D01*
X26810Y38289D01*
X30045Y35806D01*
X33051Y33051D01*
X35806Y30045D01*
X38289Y26810D01*
X38325Y26753D01*
X38150Y26497D01*
Y24900D01*
Y23522D01*
X38446Y23581D01*
X38909Y23891D01*
X39219Y24354D01*
X39229Y24404D01*
X39758Y24503D01*
X40479Y23371D01*
X40999Y22372D01*
X40652Y21958D01*
X40550Y21978D01*
Y20600D01*
Y19222D01*
X40846Y19281D01*
X41309Y19591D01*
X41619Y20054D01*
X41625Y20087D01*
X42150Y20162D01*
X42301Y19873D01*
X42813Y18635D01*
X42550Y18315D01*
Y16800D01*
Y15422D01*
X42846Y15481D01*
X43309Y15791D01*
X43396Y15921D01*
X43960Y15865D01*
X43963Y15859D01*
X44835Y13093D01*
X44411Y12776D01*
X44346Y12819D01*
X44050Y12878D01*
Y11500D01*
X43800D01*
Y11250D01*
X42422D01*
X42472Y11000D01*
X42452Y10870D01*
X42254Y10500D01*
X34016Y10500D01*
X33809Y10809D01*
X33346Y11119D01*
X33050Y11178D01*
Y9800D01*
Y8422D01*
X33289Y8470D01*
X33450Y8428D01*
X33789Y8247D01*
Y6653D01*
X33450Y6472D01*
X33289Y6430D01*
X33050Y6478D01*
Y5100D01*
Y3722D01*
X33289Y3770D01*
X33450Y3728D01*
X33789Y3547D01*
Y-147D01*
X33450Y-328D01*
X33289Y-370D01*
X33050Y-322D01*
Y-1700D01*
Y-3078D01*
X33289Y-3030D01*
X33450Y-3072D01*
X33789Y-3253D01*
Y-5947D01*
X33450Y-6128D01*
X33289Y-6170D01*
X33050Y-6122D01*
Y-7500D01*
Y-8878D01*
X33289Y-8830D01*
X33450Y-8872D01*
X33789Y-9053D01*
Y-9185D01*
X35493D01*
X35774Y-9643D01*
X35775Y-9685D01*
X35722Y-9950D01*
X38478D01*
X38425Y-9685D01*
X38425Y-9643D01*
X38707Y-9185D01*
X42172Y-9185D01*
X42455Y-9685D01*
X42422Y-9850D01*
X43800D01*
Y-10100D01*
X44050D01*
Y-11478D01*
X44346Y-11419D01*
X44809Y-11109D01*
X44879Y-11005D01*
X45347Y-11205D01*
X45149Y-12098D01*
X43923Y-15987D01*
X43376Y-17306D01*
X42896Y-17160D01*
X42927Y-17000D01*
X42819Y-16454D01*
X42509Y-15991D01*
X42046Y-15681D01*
X41750Y-15622D01*
Y-17000D01*
Y-18378D01*
X42046Y-18319D01*
X42509Y-18009D01*
X42600Y-17874D01*
X43043Y-18111D01*
X42362Y-19754D01*
X40479Y-23371D01*
X39804Y-24431D01*
X39332Y-24241D01*
X39340Y-24200D01*
X39177Y-23381D01*
X38713Y-22686D01*
X38019Y-22223D01*
X37200Y-22060D01*
X36381Y-22223D01*
X35686Y-22686D01*
X35223Y-23381D01*
X35060Y-24200D01*
X35223Y-25019D01*
X35686Y-25714D01*
X36381Y-26177D01*
X37200Y-26340D01*
X38019Y-26177D01*
X38158Y-26085D01*
X38523Y-26442D01*
X38289Y-26810D01*
X35806Y-30045D01*
X33051Y-33051D01*
X30045Y-35806D01*
X26810Y-38289D01*
X23371Y-40479D01*
X21523Y-41442D01*
X21279Y-41263D01*
X21132Y-41082D01*
X21178Y-40850D01*
X18422D01*
X18481Y-41146D01*
X18791Y-41609D01*
X19254Y-41919D01*
X19433Y-41954D01*
X19484Y-42474D01*
X16158Y-43852D01*
X15905Y-43415D01*
X16107Y-43261D01*
X16542Y-42694D01*
X16815Y-42035D01*
X16908Y-41327D01*
Y-38669D01*
X16815Y-37962D01*
X16542Y-37302D01*
X16107Y-36735D01*
X15541Y-36301D01*
X14881Y-36028D01*
X14173Y-35934D01*
X13465Y-36028D01*
X12806Y-36301D01*
X12239Y-36735D01*
X11805Y-37302D01*
X11532Y-37962D01*
X11438Y-38669D01*
Y-41327D01*
X11532Y-42035D01*
X11805Y-42694D01*
X12239Y-43261D01*
X12806Y-43695D01*
X13465Y-43968D01*
X13969Y-44035D01*
X14014Y-44545D01*
X12098Y-45149D01*
X8117Y-46032D01*
X4074Y-46564D01*
X1190Y-46690D01*
X1033Y-46271D01*
X1018Y-46197D01*
X1319Y-45746D01*
X1378Y-45450D01*
X-1378D01*
X-1319Y-45746D01*
X-1018Y-46197D01*
X-1033Y-46271D01*
X-1190Y-46690D01*
X-4074Y-46564D01*
X-8117Y-46032D01*
X-12098Y-45149D01*
X-14009Y-44546D01*
X-13965Y-44036D01*
X-13465Y-43970D01*
X-12806Y-43697D01*
X-12239Y-43262D01*
X-11805Y-42696D01*
X-11532Y-42037D01*
X-11438Y-41329D01*
Y-38671D01*
X-11532Y-37963D01*
X-11805Y-37304D01*
X-12239Y-36737D01*
X-12806Y-36303D01*
X-13465Y-36030D01*
X-14173Y-35936D01*
X-14881Y-36030D01*
X-15541Y-36303D01*
X-16107Y-36737D01*
X-16542Y-37304D01*
X-16815Y-37963D01*
X-16908Y-38671D01*
Y-41329D01*
X-16815Y-42037D01*
X-16542Y-42696D01*
X-16107Y-43262D01*
X-15911Y-43413D01*
X-16163Y-43850D01*
X-19754Y-42362D01*
X-22797Y-40778D01*
X-22630Y-40302D01*
X-22500Y-40327D01*
X-21954Y-40219D01*
X-21491Y-39909D01*
X-21181Y-39446D01*
X-21122Y-39150D01*
X-23878D01*
X-23819Y-39446D01*
X-23638Y-39716D01*
X-23996Y-40082D01*
X-26810Y-38289D01*
X-30045Y-35806D01*
X-33051Y-33051D01*
X-35806Y-30045D01*
X-37845Y-27389D01*
X-37600Y-26927D01*
X-37054Y-26819D01*
X-36591Y-26509D01*
X-36281Y-26046D01*
X-36222Y-25750D01*
X-37600D01*
Y-25500D01*
X-37850D01*
Y-24122D01*
X-38146Y-24181D01*
X-38609Y-24491D01*
X-38898Y-24923D01*
X-39087Y-24970D01*
X-39439Y-25005D01*
X-40479Y-23371D01*
X-42362Y-19754D01*
X-43923Y-15987D01*
X-45149Y-12098D01*
X-46032Y-8117D01*
X-46455Y-4900D01*
X-45987Y-4628D01*
X-45906Y-4662D01*
X-41181D01*
X-40951Y-4567D01*
X-40856Y-4337D01*
Y3537D01*
X-40951Y3767D01*
X-41181Y3862D01*
X-45906D01*
X-46076Y3791D01*
X-46568Y3987D01*
X-46564Y4074D01*
X-46032Y8117D01*
X-45149Y12098D01*
X-44652Y13673D01*
X-44077Y13835D01*
X-43846Y13681D01*
X-43550Y13622D01*
Y15000D01*
X-43300D01*
Y15250D01*
X-41922D01*
X-41981Y15546D01*
X-42291Y16009D01*
X-42754Y16319D01*
X-43207Y16409D01*
X-43567Y16845D01*
X-42362Y19754D01*
X-41003Y22365D01*
X-40699Y22324D01*
X-40507Y22236D01*
X-40442Y21910D01*
X-40221Y21579D01*
X-39890Y21358D01*
X-39750Y21330D01*
Y22300D01*
Y23270D01*
X-39890Y23242D01*
X-40027Y23151D01*
X-40392Y23508D01*
X-38289Y26810D01*
X-35806Y30045D01*
X-33051Y33051D01*
X-30045Y35806D01*
X-26810Y38289D01*
X-23371Y40479D01*
X-19754Y42362D01*
X-15987Y43923D01*
X-12098Y45149D01*
X-8117Y46032D01*
X-4074Y46564D01*
X0Y46742D01*
X4074Y46564D01*
D02*
G37*
%LPC*%
G36*
X-6950Y45478D02*
Y44350D01*
X-5822D01*
X-5881Y44646D01*
X-6191Y45109D01*
X-6654Y45419D01*
X-6950Y45478D01*
D02*
G37*
G36*
X-7450D02*
X-7746Y45419D01*
X-8209Y45109D01*
X-8519Y44646D01*
X-8578Y44350D01*
X-7450D01*
Y45478D01*
D02*
G37*
G36*
X-5822Y43850D02*
X-6950D01*
Y42722D01*
X-6654Y42781D01*
X-6191Y43091D01*
X-5881Y43554D01*
X-5822Y43850D01*
D02*
G37*
G36*
X-7450D02*
X-8578D01*
X-8519Y43554D01*
X-8209Y43091D01*
X-7746Y42781D01*
X-7450Y42722D01*
Y43850D01*
D02*
G37*
G36*
X14078Y43050D02*
X12950D01*
Y41922D01*
X13246Y41981D01*
X13709Y42291D01*
X14019Y42754D01*
X14078Y43050D01*
D02*
G37*
G36*
X12450D02*
X11322D01*
X11381Y42754D01*
X11691Y42291D01*
X12154Y41981D01*
X12450Y41922D01*
Y43050D01*
D02*
G37*
G36*
X9315Y41871D02*
X9003Y41809D01*
X8738Y41632D01*
X8562Y41367D01*
X8499Y41055D01*
X8562Y40743D01*
X8738Y40478D01*
X9003Y40301D01*
X9315Y40239D01*
X9627Y40301D01*
X9892Y40478D01*
X10069Y40743D01*
X10131Y41055D01*
X10069Y41367D01*
X9892Y41632D01*
X9627Y41809D01*
X9315Y41871D01*
D02*
G37*
G36*
X4600Y40216D02*
X4288Y40154D01*
X4023Y39977D01*
X3846Y39712D01*
X3784Y39400D01*
X3846Y39088D01*
X4023Y38823D01*
X4288Y38646D01*
X4600Y38584D01*
X4912Y38646D01*
X5177Y38823D01*
X5354Y39088D01*
X5416Y39400D01*
X5354Y39712D01*
X5177Y39977D01*
X4912Y40154D01*
X4600Y40216D01*
D02*
G37*
G36*
X14014Y40161D02*
X13701Y40099D01*
X13437Y39922D01*
X13260Y39657D01*
X13198Y39345D01*
X13260Y39033D01*
X13437Y38768D01*
X13701Y38591D01*
X14014Y38529D01*
X14326Y38591D01*
X14590Y38768D01*
X14767Y39033D01*
X14829Y39345D01*
X14767Y39657D01*
X14590Y39922D01*
X14326Y40099D01*
X14014Y40161D01*
D02*
G37*
G36*
X-18850Y36878D02*
Y35750D01*
X-17722D01*
X-17781Y36046D01*
X-18091Y36509D01*
X-18554Y36819D01*
X-18850Y36878D01*
D02*
G37*
G36*
X-19350D02*
X-19646Y36819D01*
X-20109Y36509D01*
X-20419Y36046D01*
X-20478Y35750D01*
X-19350D01*
Y36878D01*
D02*
G37*
G36*
X24100Y38440D02*
X23281Y38277D01*
X22587Y37813D01*
X22123Y37119D01*
X21960Y36300D01*
X22123Y35481D01*
X22587Y34786D01*
X23281Y34323D01*
X24100Y34160D01*
X24919Y34323D01*
X25613Y34786D01*
X26077Y35481D01*
X26240Y36300D01*
X26077Y37119D01*
X25613Y37813D01*
X24919Y38277D01*
X24100Y38440D01*
D02*
G37*
G36*
X18850Y34870D02*
Y34150D01*
X19570D01*
X19542Y34290D01*
X19321Y34621D01*
X18990Y34842D01*
X18850Y34870D01*
D02*
G37*
G36*
X18350D02*
X18210Y34842D01*
X17879Y34621D01*
X17658Y34290D01*
X17630Y34150D01*
X18350D01*
Y34870D01*
D02*
G37*
G36*
X-17722Y35250D02*
X-18850D01*
Y34122D01*
X-18554Y34181D01*
X-18091Y34491D01*
X-17781Y34954D01*
X-17722Y35250D01*
D02*
G37*
G36*
X-19350D02*
X-20478D01*
X-20419Y34954D01*
X-20109Y34491D01*
X-19646Y34181D01*
X-19350Y34122D01*
Y35250D01*
D02*
G37*
G36*
X-23050Y34778D02*
Y33650D01*
X-21922D01*
X-21981Y33946D01*
X-22291Y34409D01*
X-22754Y34719D01*
X-23050Y34778D01*
D02*
G37*
G36*
X-23550D02*
X-23846Y34719D01*
X-24309Y34409D01*
X-24619Y33946D01*
X-24678Y33650D01*
X-23550D01*
Y34778D01*
D02*
G37*
G36*
X19570Y33650D02*
X18850D01*
Y32930D01*
X18990Y32958D01*
X19321Y33179D01*
X19542Y33510D01*
X19570Y33650D01*
D02*
G37*
G36*
X18350D02*
X17630D01*
X17658Y33510D01*
X17879Y33179D01*
X18210Y32958D01*
X18350Y32930D01*
Y33650D01*
D02*
G37*
G36*
X-741Y34669D02*
X-1112Y34595D01*
X-1426Y34385D01*
X-1636Y34071D01*
X-1710Y33700D01*
X-1636Y33329D01*
X-1426Y33015D01*
X-1112Y32805D01*
X-741Y32731D01*
X-370Y32805D01*
X-56Y33015D01*
X154Y33329D01*
X228Y33700D01*
X154Y34071D01*
X-56Y34385D01*
X-370Y34595D01*
X-741Y34669D01*
D02*
G37*
G36*
X7600Y33695D02*
X5200D01*
X4779Y33521D01*
X4004Y32746D01*
X3868Y32417D01*
X3699Y32325D01*
X3566Y32281D01*
X3330Y32241D01*
X3162Y32353D01*
X2850Y32415D01*
X2538Y32353D01*
X2274Y32176D01*
X1852D01*
X1588Y32353D01*
X1276Y32415D01*
X963Y32353D01*
X699Y32176D01*
X675Y32140D01*
X-1900D01*
X-1923Y32176D01*
X-2188Y32353D01*
X-2500Y32415D01*
X-2812Y32353D01*
X-3077Y32176D01*
X-3254Y31911D01*
X-3316Y31599D01*
X-3254Y31287D01*
X-3142Y31120D01*
X-3256Y30770D01*
X-3363Y30620D01*
X-18627D01*
X-18864Y30778D01*
X-19176Y30840D01*
X-19488Y30778D01*
X-19752Y30601D01*
X-19929Y30336D01*
X-19991Y30024D01*
X-19929Y29712D01*
X-19752Y29448D01*
X-19488Y29271D01*
X-19176Y29209D01*
X-18864Y29271D01*
X-18627Y29429D01*
X-953D01*
X-704Y29049D01*
X-692Y29017D01*
X-757Y28813D01*
X-841Y28609D01*
X-841Y28609D01*
Y12624D01*
X-1683Y11783D01*
X-1841Y11400D01*
X-1841Y11400D01*
Y1977D01*
X-1937Y1902D01*
X-2341Y1756D01*
X-2488Y1854D01*
X-2800Y1916D01*
X-3112Y1854D01*
X-3377Y1677D01*
X-3554Y1412D01*
X-3609Y1133D01*
X-10447Y-5705D01*
X-13500D01*
X-13921Y-5879D01*
X-14068Y-6026D01*
X-14423Y-5677D01*
X-14423Y-5677D01*
X-14246Y-5412D01*
X-14184Y-5100D01*
Y-4706D01*
X-14065Y-4594D01*
X-13684Y-4379D01*
X-13500Y-4416D01*
X-13188Y-4354D01*
X-12923Y-4177D01*
X-12746Y-3912D01*
X-12684Y-3600D01*
X-12746Y-3288D01*
X-12923Y-3023D01*
X-13005Y-2969D01*
Y9705D01*
X-12386D01*
X-12326Y9615D01*
X-12012Y9405D01*
X-11641Y9331D01*
X-11270Y9405D01*
X-10956Y9615D01*
X-10746Y9929D01*
X-10672Y10300D01*
X-10746Y10671D01*
X-10956Y10985D01*
X-11270Y11195D01*
X-11641Y11269D01*
X-12012Y11195D01*
X-12326Y10985D01*
X-12386Y10895D01*
X-13600D01*
X-14021Y10721D01*
X-14195Y10300D01*
Y9258D01*
X-14230Y9218D01*
X-14768Y9359D01*
X-14770Y9368D01*
X-15035Y9765D01*
X-15432Y10030D01*
X-15900Y10124D01*
X-16368Y10030D01*
X-16765Y9765D01*
X-17030Y9368D01*
X-17123Y8900D01*
X-17030Y8432D01*
X-16765Y8035D01*
X-16716Y8002D01*
Y6000D01*
X-16716Y6000D01*
X-16654Y5688D01*
X-16477Y5423D01*
X-15816Y4762D01*
Y3989D01*
X-15894Y3896D01*
X-16316Y3638D01*
X-16450Y3665D01*
X-16762Y3603D01*
X-17027Y3426D01*
X-17048Y3395D01*
X-19951D01*
X-20188Y3554D01*
X-20500Y3616D01*
X-20812Y3554D01*
X-21077Y3377D01*
X-21254Y3112D01*
X-21316Y2800D01*
X-21254Y2488D01*
X-21077Y2223D01*
X-20812Y2046D01*
X-20500Y1984D01*
X-20188Y2046D01*
X-19951Y2205D01*
X-17347D01*
X-17316Y2171D01*
X-17125Y1705D01*
X-17204Y1587D01*
X-17266Y1275D01*
X-17204Y963D01*
X-17289Y748D01*
X-17713Y454D01*
X-18025Y516D01*
X-18337Y454D01*
X-18602Y277D01*
X-19023D01*
X-19288Y454D01*
X-19600Y516D01*
X-19912Y454D01*
X-20177Y277D01*
X-20598D01*
X-20863Y454D01*
X-21142Y509D01*
X-23373Y2740D01*
X-23794Y2914D01*
X-23970D01*
X-24207Y3073D01*
X-24519Y3135D01*
X-24831Y3073D01*
X-25096Y2896D01*
X-25574Y2743D01*
X-25718Y2796D01*
X-26004Y2914D01*
X-29832D01*
X-30069Y3073D01*
X-30381Y3135D01*
X-30693Y3073D01*
X-30958Y2896D01*
X-31135Y2631D01*
X-31197Y2319D01*
X-31135Y2007D01*
X-30958Y1742D01*
X-30693Y1565D01*
X-30381Y1503D01*
X-30069Y1565D01*
X-29832Y1724D01*
X-26250D01*
X-23915Y-612D01*
X-23906Y-739D01*
X-24024Y-1210D01*
X-24145Y-1292D01*
X-24322Y-1556D01*
X-24384Y-1868D01*
X-24322Y-2180D01*
X-24164Y-2417D01*
Y-14187D01*
X-24253Y-14246D01*
X-24463Y-14561D01*
X-24537Y-14931D01*
X-24463Y-15302D01*
X-24254Y-15615D01*
X-24253Y-15616D01*
X-24253Y-16215D01*
X-24254Y-16217D01*
X-24463Y-16529D01*
X-24537Y-16900D01*
X-24463Y-17271D01*
X-24384Y-17389D01*
Y-18132D01*
X-24384Y-18132D01*
X-24322Y-18444D01*
X-24145Y-18708D01*
X-23377Y-19477D01*
X-23377Y-19477D01*
X-23112Y-19654D01*
X-22800Y-19716D01*
X-14734D01*
X-14672Y-19788D01*
X-14534Y-20057D01*
X-14505Y-20206D01*
X-14642Y-20410D01*
X-14670Y-20550D01*
X-12730D01*
X-12758Y-20410D01*
X-12979Y-20079D01*
X-13310Y-19858D01*
X-13633Y-19794D01*
X-13763Y-19571D01*
X-13846Y-19300D01*
X-13112Y-18566D01*
X-13112Y-18566D01*
X-12935Y-18301D01*
X-12873Y-17989D01*
Y-17778D01*
X-12794Y-17660D01*
X-12720Y-17289D01*
X-12794Y-16918D01*
X-13004Y-16604D01*
X-13318Y-16394D01*
X-13689Y-16320D01*
X-14060Y-16394D01*
X-14374Y-16604D01*
X-14584Y-16918D01*
X-14658Y-17289D01*
X-14584Y-17660D01*
X-14556Y-17702D01*
X-14938Y-18084D01*
X-20763D01*
X-20915Y-17585D01*
X-20705Y-17271D01*
X-20631Y-16900D01*
X-20705Y-16529D01*
X-20915Y-16215D01*
X-21005Y-16155D01*
Y-10071D01*
X-20505Y-10021D01*
X-20495Y-10071D01*
X-20285Y-10385D01*
X-19971Y-10595D01*
X-19600Y-10669D01*
X-19412Y-11141D01*
X-19412Y-11146D01*
X-19677Y-11323D01*
X-19854Y-11588D01*
X-19916Y-11900D01*
X-19854Y-12212D01*
X-19677Y-12477D01*
X-19412Y-12654D01*
X-19100Y-12716D01*
X-18960Y-12688D01*
X-18714Y-13149D01*
X-19693Y-14128D01*
X-19943Y-14178D01*
X-20208Y-14355D01*
X-20385Y-14619D01*
X-20447Y-14931D01*
X-20385Y-15244D01*
X-20208Y-15508D01*
X-19943Y-15685D01*
X-19631Y-15747D01*
X-19319Y-15685D01*
X-19055Y-15508D01*
X-18878Y-15244D01*
X-18816Y-14931D01*
X-18841Y-14806D01*
X-12276Y-8241D01*
X-7900D01*
X-7900Y-8241D01*
X-7517Y-8083D01*
X-2192Y-2757D01*
X-1649Y-2922D01*
X-1601Y-3163D01*
X-1226Y-3726D01*
X-663Y-4101D01*
X0Y-4233D01*
X663Y-4101D01*
X1226Y-3726D01*
X1601Y-3163D01*
X1733Y-2500D01*
X1601Y-1837D01*
X1226Y-1274D01*
X663Y-899D01*
X0Y-767D01*
X-259Y-818D01*
X-759Y-408D01*
Y114D01*
X-259Y378D01*
X-212Y346D01*
X100Y284D01*
X412Y346D01*
X677Y523D01*
X854Y788D01*
X916Y1100D01*
X854Y1412D01*
X695Y1649D01*
Y9364D01*
X909Y9493D01*
X1195Y9575D01*
X1388Y9446D01*
X1700Y9384D01*
X2012Y9446D01*
X2277Y9623D01*
X2454Y9888D01*
X2509Y10167D01*
X8021Y15679D01*
X8195Y16100D01*
Y21203D01*
X8597Y21349D01*
X8695Y21368D01*
X9010Y21158D01*
X9150Y21130D01*
Y22100D01*
Y23070D01*
X9010Y23042D01*
X8695Y22832D01*
X8597Y22851D01*
X8195Y22997D01*
Y27283D01*
X8695Y27550D01*
X8759Y27508D01*
X8900Y27480D01*
Y28450D01*
Y29419D01*
X8759Y29392D01*
X8695Y29349D01*
X8195Y29616D01*
Y33100D01*
X8021Y33521D01*
X7600Y33695D01*
D02*
G37*
G36*
X-21922Y33150D02*
X-23050D01*
Y32022D01*
X-22754Y32081D01*
X-22291Y32391D01*
X-21981Y32854D01*
X-21922Y33150D01*
D02*
G37*
G36*
X-23550D02*
X-24678D01*
X-24619Y32854D01*
X-24309Y32391D01*
X-23846Y32081D01*
X-23550Y32022D01*
Y33150D01*
D02*
G37*
G36*
X26050Y32678D02*
Y31550D01*
X27178D01*
X27119Y31846D01*
X26809Y32309D01*
X26346Y32619D01*
X26050Y32678D01*
D02*
G37*
G36*
X25550D02*
X25254Y32619D01*
X24791Y32309D01*
X24481Y31846D01*
X24422Y31550D01*
X25550D01*
Y32678D01*
D02*
G37*
G36*
X27178Y31050D02*
X26050D01*
Y29922D01*
X26346Y29981D01*
X26809Y30291D01*
X27119Y30754D01*
X27178Y31050D01*
D02*
G37*
G36*
X25550D02*
X24422D01*
X24481Y30754D01*
X24791Y30291D01*
X25254Y29981D01*
X25550Y29922D01*
Y31050D01*
D02*
G37*
G36*
X9400Y29419D02*
Y28700D01*
X10119D01*
X10092Y28840D01*
X9871Y29171D01*
X9540Y29392D01*
X9400Y29419D01*
D02*
G37*
G36*
X29950Y29278D02*
Y28150D01*
X31078D01*
X31019Y28446D01*
X30709Y28909D01*
X30246Y29219D01*
X29950Y29278D01*
D02*
G37*
G36*
X29450D02*
X29154Y29219D01*
X28691Y28909D01*
X28381Y28446D01*
X28322Y28150D01*
X29450D01*
Y29278D01*
D02*
G37*
G36*
X-23550Y28270D02*
Y27550D01*
X-22830D01*
X-22858Y27690D01*
X-23079Y28021D01*
X-23410Y28242D01*
X-23550Y28270D01*
D02*
G37*
G36*
X-24050D02*
X-24190Y28242D01*
X-24521Y28021D01*
X-24742Y27690D01*
X-24770Y27550D01*
X-24050D01*
Y28270D01*
D02*
G37*
G36*
X10119Y28200D02*
X9400D01*
Y27480D01*
X9540Y27508D01*
X9871Y27729D01*
X10092Y28059D01*
X10119Y28200D01*
D02*
G37*
G36*
X31078Y27650D02*
X29950D01*
Y26522D01*
X30246Y26581D01*
X30709Y26891D01*
X31019Y27354D01*
X31078Y27650D01*
D02*
G37*
G36*
X29450D02*
X28322D01*
X28381Y27354D01*
X28691Y26891D01*
X29154Y26581D01*
X29450Y26522D01*
Y27650D01*
D02*
G37*
G36*
X-22830Y27050D02*
X-23550D01*
Y26330D01*
X-23410Y26358D01*
X-23079Y26579D01*
X-22858Y26910D01*
X-22830Y27050D01*
D02*
G37*
G36*
X-24050D02*
X-24770D01*
X-24742Y26910D01*
X-24521Y26579D01*
X-24190Y26358D01*
X-24050Y26330D01*
Y27050D01*
D02*
G37*
G36*
X14275Y27691D02*
X13963Y27628D01*
X13698Y27452D01*
X13521Y27187D01*
X13459Y26875D01*
X13521Y26563D01*
X13698Y26298D01*
X13963Y26121D01*
X14275Y26059D01*
X14587Y26121D01*
X14852Y26298D01*
X15028Y26563D01*
X15090Y26875D01*
X15028Y27187D01*
X14852Y27452D01*
X14587Y27628D01*
X14275Y27691D01*
D02*
G37*
G36*
X-4250Y26551D02*
Y25831D01*
X-3530D01*
X-3558Y25971D01*
X-3779Y26302D01*
X-4110Y26523D01*
X-4250Y26551D01*
D02*
G37*
G36*
X37650Y26278D02*
X37354Y26219D01*
X36891Y25909D01*
X36581Y25446D01*
X36522Y25150D01*
X37650D01*
Y26278D01*
D02*
G37*
G36*
X-3530Y25331D02*
X-4250D01*
Y24611D01*
X-4110Y24639D01*
X-3779Y24860D01*
X-3558Y25191D01*
X-3530Y25331D01*
D02*
G37*
G36*
X-6800Y27069D02*
X-7171Y26995D01*
X-7485Y26785D01*
X-7695Y26471D01*
X-7769Y26100D01*
X-7695Y25729D01*
X-7485Y25415D01*
X-7171Y25205D01*
X-6800Y25131D01*
X-6429Y25205D01*
X-6115Y25415D01*
X-5994Y25597D01*
X-5940Y25595D01*
X-5493Y25446D01*
X-5442Y25191D01*
X-5221Y24860D01*
X-4890Y24639D01*
X-4750Y24611D01*
Y25581D01*
Y26551D01*
X-4890Y26523D01*
X-5221Y26302D01*
X-5359Y26095D01*
X-5377Y26095D01*
X-5859Y26241D01*
X-5905Y26471D01*
X-6115Y26785D01*
X-6429Y26995D01*
X-6800Y27069D01*
D02*
G37*
G36*
X-36771Y24391D02*
X-36911Y24363D01*
X-37242Y24142D01*
X-37463Y23811D01*
X-37491Y23671D01*
X-36771D01*
Y24391D01*
D02*
G37*
G36*
X37650Y24650D02*
X36522D01*
X36581Y24354D01*
X36891Y23891D01*
X37354Y23581D01*
X37650Y23522D01*
Y24650D01*
D02*
G37*
G36*
X-39250Y23270D02*
Y22550D01*
X-38530D01*
X-38558Y22690D01*
X-38779Y23021D01*
X-39110Y23242D01*
X-39250Y23270D01*
D02*
G37*
G36*
X-36771Y23171D02*
X-37491D01*
X-37463Y23031D01*
X-37242Y22700D01*
X-36911Y22479D01*
X-36771Y22451D01*
Y23171D01*
D02*
G37*
G36*
X9650Y23070D02*
Y22350D01*
X10370D01*
X10342Y22490D01*
X10121Y22821D01*
X9790Y23042D01*
X9650Y23070D01*
D02*
G37*
G36*
X-17300Y27823D02*
X-17768Y27730D01*
X-18165Y27465D01*
X-18430Y27068D01*
X-18523Y26600D01*
X-18430Y26132D01*
X-18165Y25735D01*
X-18116Y25702D01*
Y22698D01*
X-18165Y22665D01*
X-18430Y22268D01*
X-18523Y21800D01*
X-18430Y21332D01*
X-18704Y20841D01*
X-19776D01*
X-20317Y21383D01*
X-20700Y21541D01*
X-20700Y21541D01*
X-21470D01*
X-21840Y22041D01*
X-21763Y22293D01*
X-21717Y22314D01*
X-21505Y22272D01*
X-21036Y22365D01*
X-20640Y22630D01*
X-20374Y23027D01*
X-20281Y23495D01*
X-20374Y23964D01*
X-20640Y24360D01*
X-21036Y24626D01*
X-21505Y24719D01*
X-21973Y24626D01*
X-22370Y24360D01*
X-22635Y23964D01*
X-22728Y23495D01*
X-22703Y23366D01*
X-22993Y22926D01*
X-23103Y22895D01*
X-23312Y22854D01*
X-23577Y22677D01*
X-23754Y22412D01*
X-23816Y22100D01*
X-23804Y22041D01*
X-24144Y21541D01*
X-27132D01*
X-27514Y21383D01*
X-27514Y21383D01*
X-28605Y20292D01*
X-28647Y20300D01*
X-28959Y20238D01*
X-29224Y20061D01*
X-29401Y19796D01*
X-29463Y19484D01*
X-29614Y19038D01*
X-29820Y18909D01*
X-29976Y18844D01*
X-30312Y18509D01*
X-30825Y18703D01*
X-30846Y18812D01*
X-31023Y19077D01*
X-31088Y19120D01*
X-31207Y19708D01*
X-28309Y22606D01*
X-26679D01*
X-26367Y22668D01*
X-26102Y22844D01*
X-25925Y23109D01*
X-25863Y23421D01*
X-25925Y23733D01*
X-26102Y23998D01*
X-26367Y24175D01*
X-26679Y24237D01*
X-28647D01*
X-28959Y24175D01*
X-29224Y23998D01*
X-29224Y23998D01*
X-33161Y20061D01*
X-33301Y19852D01*
X-33569Y19822D01*
X-33836Y19852D01*
X-33976Y20061D01*
X-34185Y20200D01*
X-34215Y20469D01*
X-34185Y20737D01*
X-33976Y20876D01*
X-33799Y21141D01*
X-33737Y21453D01*
X-33799Y21765D01*
X-33976Y22029D01*
X-34185Y22169D01*
X-34215Y22437D01*
X-34185Y22705D01*
X-33976Y22844D01*
X-33799Y23109D01*
X-33737Y23421D01*
X-33799Y23733D01*
X-33976Y23998D01*
X-34241Y24175D01*
X-34553Y24237D01*
X-34865Y24175D01*
X-35129Y23998D01*
X-35139Y23984D01*
X-35149Y23980D01*
X-35717Y24018D01*
X-35800Y24142D01*
X-36131Y24363D01*
X-36271Y24391D01*
Y23421D01*
Y22451D01*
X-36131Y22479D01*
X-35800Y22700D01*
X-35717Y22824D01*
X-35149Y22862D01*
X-35139Y22859D01*
X-35129Y22844D01*
X-34921Y22705D01*
X-34891Y22437D01*
X-34921Y22169D01*
X-35129Y22029D01*
X-35306Y21765D01*
X-35368Y21453D01*
X-35306Y21141D01*
X-35129Y20876D01*
X-34921Y20737D01*
X-34891Y20469D01*
X-34921Y20200D01*
X-35129Y20061D01*
X-35306Y19796D01*
X-35368Y19484D01*
X-35306Y19172D01*
X-35129Y18907D01*
X-34865Y18731D01*
X-34553Y18669D01*
X-34241Y18731D01*
X-33976Y18907D01*
X-33836Y19116D01*
X-33569Y19146D01*
X-33301Y19116D01*
X-33161Y18907D01*
X-32896Y18731D01*
X-32584Y18669D01*
X-32357Y18204D01*
X-32354Y18188D01*
X-32177Y17923D01*
X-31912Y17746D01*
X-31600Y17684D01*
X-31431Y17516D01*
X-31369Y17204D01*
X-31192Y16939D01*
X-30984Y16800D01*
X-30954Y16532D01*
X-30984Y16263D01*
X-31192Y16124D01*
X-31332Y15915D01*
X-31600Y15885D01*
X-31868Y15915D01*
X-32008Y16124D01*
X-32272Y16301D01*
X-32584Y16363D01*
X-32896Y16301D01*
X-33161Y16124D01*
X-33301Y15915D01*
X-33569Y15885D01*
X-33836Y15915D01*
X-33976Y16124D01*
X-34241Y16301D01*
X-34553Y16363D01*
X-34865Y16301D01*
X-35129Y16124D01*
X-35306Y15859D01*
X-35368Y15547D01*
X-35306Y15235D01*
X-35129Y14970D01*
X-34921Y14831D01*
X-34891Y14563D01*
X-34921Y14295D01*
X-35129Y14155D01*
X-35269Y13947D01*
X-35537Y13917D01*
X-35805Y13947D01*
X-35945Y14155D01*
X-36209Y14332D01*
X-36521Y14394D01*
X-36833Y14332D01*
X-37098Y14155D01*
X-37275Y13891D01*
X-37337Y13579D01*
X-37275Y13267D01*
X-37098Y13002D01*
X-36833Y12825D01*
X-36521Y12763D01*
X-36209Y12825D01*
X-35945Y13002D01*
X-35805Y13211D01*
X-35537Y13241D01*
X-35269Y13211D01*
X-35129Y13002D01*
X-34865Y12825D01*
X-34553Y12763D01*
X-34241Y12825D01*
X-33976Y13002D01*
X-33836Y13211D01*
X-33569Y13241D01*
X-33301Y13211D01*
X-33161Y13002D01*
X-33122Y12976D01*
X-32967Y12602D01*
X-31607Y11242D01*
X-31616Y11200D01*
X-31554Y10888D01*
X-31377Y10623D01*
X-31112Y10446D01*
X-30800Y10384D01*
X-30488Y10446D01*
X-30223Y10623D01*
X-30046Y10888D01*
X-29984Y11200D01*
X-30046Y11512D01*
X-30223Y11777D01*
X-30488Y11954D01*
X-30800Y12016D01*
X-30842Y12007D01*
X-31321Y12487D01*
X-31003Y12875D01*
X-30928Y12825D01*
X-30616Y12763D01*
X-30304Y12825D01*
X-30039Y13002D01*
X-29899Y13211D01*
X-29632Y13241D01*
X-29364Y13211D01*
X-29224Y13002D01*
X-28959Y12825D01*
X-28647Y12763D01*
X-28335Y12825D01*
X-28071Y13002D01*
X-27931Y13211D01*
X-27663Y13241D01*
X-27395Y13211D01*
X-27255Y13002D01*
X-26991Y12825D01*
X-26679Y12763D01*
X-26367Y12825D01*
X-26102Y13002D01*
X-25925Y13267D01*
X-25863Y13579D01*
X-25879Y13659D01*
X-25579Y14113D01*
X-25508Y14159D01*
X-18499D01*
X-18169Y13750D01*
X-16700D01*
Y13500D01*
X-16450D01*
Y12122D01*
X-16154Y12181D01*
X-15691Y12491D01*
X-15381Y12954D01*
X-15288Y13422D01*
X-15220Y13459D01*
X-9900D01*
X-9877Y13423D01*
X-9612Y13246D01*
X-9548Y13088D01*
X-9476Y12710D01*
X-9636Y12471D01*
X-9710Y12100D01*
X-9636Y11729D01*
X-9426Y11415D01*
X-9112Y11205D01*
X-8741Y11131D01*
X-8370Y11205D01*
X-8056Y11415D01*
X-7846Y11729D01*
X-7772Y12100D01*
X-7846Y12471D01*
X-8056Y12785D01*
X-8370Y12995D01*
X-8444Y13010D01*
X-8523Y13126D01*
X-8634Y13557D01*
X-8546Y13688D01*
X-8532Y13760D01*
X-8000Y13935D01*
X-7783Y13717D01*
X-7783Y13717D01*
X-7401Y13559D01*
X-7377Y13523D01*
X-7112Y13346D01*
X-6800Y13284D01*
X-6488Y13346D01*
X-6223Y13523D01*
X-6046Y13788D01*
X-5984Y14100D01*
X-6046Y14412D01*
X-6223Y14677D01*
X-6488Y14854D01*
X-6800Y14916D01*
X-7112Y14854D01*
X-7278Y14743D01*
X-10417Y17883D01*
X-10601Y17959D01*
X-10502Y18459D01*
X-7900D01*
X-7900Y18459D01*
X-7750Y18521D01*
X-7339Y18150D01*
X-7369Y18000D01*
X-7295Y17629D01*
X-7085Y17315D01*
X-6771Y17105D01*
X-6400Y17031D01*
X-6029Y17105D01*
X-5715Y17315D01*
X-5505Y17629D01*
X-5431Y18000D01*
X-5505Y18371D01*
X-5715Y18685D01*
X-6029Y18895D01*
X-6400Y18969D01*
X-6411Y19442D01*
X-6388Y19446D01*
X-6123Y19623D01*
X-5946Y19888D01*
X-5884Y20200D01*
X-5946Y20512D01*
X-6123Y20777D01*
Y21323D01*
X-5946Y21588D01*
X-5884Y21900D01*
X-5946Y22212D01*
X-6123Y22477D01*
X-6388Y22654D01*
X-6700Y22716D01*
X-7012Y22654D01*
X-7277Y22477D01*
X-7454Y22212D01*
X-7516Y21900D01*
X-7507Y21858D01*
X-8524Y20841D01*
X-15896D01*
X-16170Y21332D01*
X-16077Y21800D01*
X-16170Y22268D01*
X-16435Y22665D01*
X-16484Y22698D01*
Y25702D01*
X-16435Y25735D01*
X-16170Y26132D01*
X-16077Y26600D01*
X-16170Y27068D01*
X-16435Y27465D01*
X-16832Y27730D01*
X-17300Y27823D01*
D02*
G37*
G36*
X22150Y22270D02*
Y21550D01*
X22870D01*
X22842Y21690D01*
X22621Y22021D01*
X22290Y22242D01*
X22150Y22270D01*
D02*
G37*
G36*
X21650D02*
X21510Y22242D01*
X21179Y22021D01*
X20958Y21690D01*
X20947Y21634D01*
X20421Y21521D01*
X20090Y21742D01*
X19950Y21770D01*
Y20800D01*
Y19830D01*
X20090Y19858D01*
X20421Y20079D01*
X20642Y20410D01*
X20653Y20466D01*
X21179Y20579D01*
X21510Y20358D01*
X21650Y20330D01*
Y21300D01*
Y22270D01*
D02*
G37*
G36*
X-38530Y22050D02*
X-39250D01*
Y21330D01*
X-39110Y21358D01*
X-38779Y21579D01*
X-38558Y21910D01*
X-38530Y22050D01*
D02*
G37*
G36*
X10370Y21850D02*
X9650D01*
Y21130D01*
X9790Y21158D01*
X10121Y21379D01*
X10342Y21710D01*
X10370Y21850D01*
D02*
G37*
G36*
X19450Y21770D02*
X19310Y21742D01*
X18979Y21521D01*
X18758Y21190D01*
X18730Y21050D01*
X19450D01*
Y21770D01*
D02*
G37*
G36*
X40050Y21978D02*
X39754Y21919D01*
X39291Y21609D01*
X38981Y21146D01*
X38922Y20850D01*
X40050D01*
Y21978D01*
D02*
G37*
G36*
X22870Y21050D02*
X22150D01*
Y20330D01*
X22290Y20358D01*
X22621Y20579D01*
X22842Y20910D01*
X22870Y21050D01*
D02*
G37*
G36*
X19450Y20550D02*
X18730D01*
X18758Y20410D01*
X18979Y20079D01*
X19310Y19858D01*
X19450Y19830D01*
Y20550D01*
D02*
G37*
G36*
X40050Y20350D02*
X38922D01*
X38981Y20054D01*
X39291Y19591D01*
X39754Y19281D01*
X40050Y19222D01*
Y20350D01*
D02*
G37*
G36*
X18850Y19270D02*
Y18550D01*
X19570D01*
X19542Y18690D01*
X19321Y19021D01*
X18990Y19242D01*
X18850Y19270D01*
D02*
G37*
G36*
X18350D02*
X18210Y19242D01*
X17879Y19021D01*
X17658Y18690D01*
X17630Y18550D01*
X18350D01*
Y19270D01*
D02*
G37*
G36*
X19570Y18050D02*
X18850D01*
Y17330D01*
X18990Y17358D01*
X19321Y17579D01*
X19542Y17910D01*
X19570Y18050D01*
D02*
G37*
G36*
X18350D02*
X17630D01*
X17658Y17910D01*
X17879Y17579D01*
X18210Y17358D01*
X18350Y17330D01*
Y18050D01*
D02*
G37*
G36*
X42050Y18178D02*
X41754Y18119D01*
X41291Y17809D01*
X40981Y17346D01*
X40922Y17050D01*
X42050D01*
Y18178D01*
D02*
G37*
G36*
X24250Y17470D02*
Y16750D01*
X24970D01*
X24942Y16890D01*
X24721Y17221D01*
X24390Y17442D01*
X24250Y17470D01*
D02*
G37*
G36*
X23750D02*
X23610Y17442D01*
X23279Y17221D01*
X23058Y16890D01*
X23030Y16750D01*
X23750D01*
Y17470D01*
D02*
G37*
G36*
X-40600Y18016D02*
X-40912Y17954D01*
X-41177Y17777D01*
X-41354Y17512D01*
X-41416Y17200D01*
X-41354Y16888D01*
X-41177Y16623D01*
X-40912Y16446D01*
X-40600Y16384D01*
X-40288Y16446D01*
X-40023Y16623D01*
X-39846Y16888D01*
X-39784Y17200D01*
X-39846Y17512D01*
X-40023Y17777D01*
X-40288Y17954D01*
X-40600Y18016D01*
D02*
G37*
G36*
X24970Y16250D02*
X24250D01*
Y15530D01*
X24390Y15558D01*
X24721Y15779D01*
X24942Y16110D01*
X24970Y16250D01*
D02*
G37*
G36*
X23750D02*
X23030D01*
X23058Y16110D01*
X23279Y15779D01*
X23610Y15558D01*
X23750Y15530D01*
Y16250D01*
D02*
G37*
G36*
X42050Y16550D02*
X40922D01*
X40981Y16254D01*
X41291Y15791D01*
X41754Y15481D01*
X42050Y15422D01*
Y16550D01*
D02*
G37*
G36*
X14050Y16166D02*
X13738Y16104D01*
X13473Y15927D01*
X13296Y15662D01*
X13234Y15350D01*
X13296Y15038D01*
X13473Y14773D01*
X13738Y14596D01*
X14050Y14534D01*
X14362Y14596D01*
X14627Y14773D01*
X14804Y15038D01*
X14866Y15350D01*
X14804Y15662D01*
X14627Y15927D01*
X14362Y16104D01*
X14050Y16166D01*
D02*
G37*
G36*
X-41922Y14750D02*
X-43050D01*
Y13622D01*
X-42754Y13681D01*
X-42291Y13991D01*
X-41981Y14454D01*
X-41922Y14750D01*
D02*
G37*
G36*
X-16950Y13250D02*
X-18078D01*
X-18019Y12954D01*
X-17709Y12491D01*
X-17246Y12181D01*
X-16950Y12122D01*
Y13250D01*
D02*
G37*
G36*
X11250Y12770D02*
Y12050D01*
X11970D01*
X11942Y12190D01*
X11721Y12521D01*
X11390Y12742D01*
X11250Y12770D01*
D02*
G37*
G36*
X10750D02*
X10610Y12742D01*
X10279Y12521D01*
X10058Y12190D01*
X10030Y12050D01*
X10750D01*
Y12770D01*
D02*
G37*
G36*
X-4191Y12723D02*
Y11850D01*
X-3318D01*
X-3358Y12049D01*
X-3612Y12429D01*
X-3992Y12683D01*
X-4191Y12723D01*
D02*
G37*
G36*
X-4691D02*
X-4890Y12683D01*
X-5270Y12429D01*
X-5524Y12049D01*
X-5564Y11850D01*
X-4691D01*
Y12723D01*
D02*
G37*
G36*
X43550Y12878D02*
X43254Y12819D01*
X42791Y12509D01*
X42481Y12046D01*
X42422Y11750D01*
X43550D01*
Y12878D01*
D02*
G37*
G36*
X13950Y12170D02*
Y11450D01*
X14670D01*
X14642Y11590D01*
X14421Y11921D01*
X14090Y12142D01*
X13950Y12170D01*
D02*
G37*
G36*
X13450D02*
X13310Y12142D01*
X12979Y11921D01*
X12758Y11590D01*
X12730Y11450D01*
X13450D01*
Y12170D01*
D02*
G37*
G36*
X7950Y12070D02*
Y11350D01*
X8670D01*
X8642Y11490D01*
X8421Y11821D01*
X8090Y12042D01*
X7950Y12070D01*
D02*
G37*
G36*
X7450D02*
X7310Y12042D01*
X6979Y11821D01*
X6758Y11490D01*
X6730Y11350D01*
X7450D01*
Y12070D01*
D02*
G37*
G36*
X11970Y11550D02*
X11250D01*
Y10830D01*
X11390Y10858D01*
X11721Y11079D01*
X11942Y11410D01*
X11970Y11550D01*
D02*
G37*
G36*
X10750D02*
X10030D01*
X10058Y11410D01*
X10279Y11079D01*
X10610Y10858D01*
X10750Y10830D01*
Y11550D01*
D02*
G37*
G36*
X-3318Y11350D02*
X-4191D01*
Y10477D01*
X-3992Y10517D01*
X-3612Y10771D01*
X-3358Y11151D01*
X-3318Y11350D01*
D02*
G37*
G36*
X-4691D02*
X-5564D01*
X-5524Y11151D01*
X-5270Y10771D01*
X-4890Y10517D01*
X-4691Y10477D01*
Y11350D01*
D02*
G37*
G36*
X14670Y10950D02*
X13950D01*
Y10230D01*
X14090Y10258D01*
X14421Y10479D01*
X14642Y10810D01*
X14670Y10950D01*
D02*
G37*
G36*
X13450D02*
X12730D01*
X12758Y10810D01*
X12979Y10479D01*
X13310Y10258D01*
X13450Y10230D01*
Y10950D01*
D02*
G37*
G36*
X8670Y10850D02*
X7950D01*
Y10130D01*
X8090Y10158D01*
X8421Y10379D01*
X8642Y10710D01*
X8670Y10850D01*
D02*
G37*
G36*
X7450D02*
X6730D01*
X6758Y10710D01*
X6979Y10379D01*
X7310Y10158D01*
X7450Y10130D01*
Y10850D01*
D02*
G37*
G36*
X32550Y11178D02*
X32254Y11119D01*
X31791Y10809D01*
X31481Y10346D01*
X31422Y10050D01*
X32550D01*
Y11178D01*
D02*
G37*
G36*
X-36050Y10478D02*
Y9350D01*
X-34922D01*
X-34981Y9646D01*
X-35291Y10109D01*
X-35754Y10419D01*
X-36050Y10478D01*
D02*
G37*
G36*
X-36550D02*
X-36846Y10419D01*
X-37309Y10109D01*
X-37619Y9646D01*
X-37678Y9350D01*
X-36550D01*
Y10478D01*
D02*
G37*
G36*
X32550Y9550D02*
X31422D01*
X31481Y9254D01*
X31791Y8791D01*
X32254Y8481D01*
X32550Y8422D01*
Y9550D01*
D02*
G37*
G36*
X3950Y9478D02*
Y8350D01*
X5078D01*
X5019Y8646D01*
X4709Y9109D01*
X4246Y9419D01*
X3950Y9478D01*
D02*
G37*
G36*
X3450D02*
X3154Y9419D01*
X2691Y9109D01*
X2381Y8646D01*
X2322Y8350D01*
X3450D01*
Y9478D01*
D02*
G37*
G36*
X-34922Y8850D02*
X-36050D01*
Y7722D01*
X-35754Y7781D01*
X-35291Y8091D01*
X-34981Y8554D01*
X-34922Y8850D01*
D02*
G37*
G36*
X-36550D02*
X-37678D01*
X-37619Y8554D01*
X-37309Y8091D01*
X-36846Y7781D01*
X-36550Y7722D01*
Y8850D01*
D02*
G37*
G36*
X5078Y7850D02*
X3950D01*
Y6722D01*
X4246Y6781D01*
X4709Y7091D01*
X5019Y7554D01*
X5078Y7850D01*
D02*
G37*
G36*
X3450D02*
X2322D01*
X2381Y7554D01*
X2691Y7091D01*
X3154Y6781D01*
X3450Y6722D01*
Y7850D01*
D02*
G37*
G36*
X29750Y7778D02*
Y6650D01*
X30878D01*
X30819Y6946D01*
X30509Y7409D01*
X30046Y7719D01*
X29750Y7778D01*
D02*
G37*
G36*
X29250D02*
X28954Y7719D01*
X28491Y7409D01*
X28181Y6946D01*
X28122Y6650D01*
X29250D01*
Y7778D01*
D02*
G37*
G36*
X32550Y6478D02*
X32254Y6419D01*
X31791Y6109D01*
X31481Y5646D01*
X31422Y5350D01*
X32550D01*
Y6478D01*
D02*
G37*
G36*
X-18900Y6816D02*
X-19212Y6754D01*
X-19477Y6577D01*
X-19654Y6312D01*
X-19716Y6000D01*
X-19654Y5688D01*
X-19477Y5423D01*
X-19212Y5246D01*
X-18900Y5184D01*
X-18588Y5246D01*
X-18323Y5423D01*
X-18146Y5688D01*
X-18084Y6000D01*
X-18146Y6312D01*
X-18323Y6577D01*
X-18588Y6754D01*
X-18900Y6816D01*
D02*
G37*
G36*
X30878Y6150D02*
X29750D01*
Y5022D01*
X30046Y5081D01*
X30509Y5391D01*
X30819Y5854D01*
X30878Y6150D01*
D02*
G37*
G36*
X29250D02*
X28122D01*
X28181Y5854D01*
X28491Y5391D01*
X28954Y5081D01*
X29250Y5022D01*
Y6150D01*
D02*
G37*
G36*
X-22891Y5723D02*
Y4850D01*
X-22018D01*
X-22058Y5049D01*
X-22312Y5429D01*
X-22692Y5683D01*
X-22891Y5723D01*
D02*
G37*
G36*
X-23391D02*
X-23590Y5683D01*
X-23970Y5429D01*
X-24224Y5049D01*
X-24264Y4850D01*
X-23391D01*
Y5723D01*
D02*
G37*
G36*
X13650Y5478D02*
Y4350D01*
X14778D01*
X14719Y4646D01*
X14409Y5109D01*
X13946Y5419D01*
X13650Y5478D01*
D02*
G37*
G36*
X13150D02*
X12854Y5419D01*
X12391Y5109D01*
X12081Y4646D01*
X12022Y4350D01*
X13150D01*
Y5478D01*
D02*
G37*
G36*
X24509Y4823D02*
Y3950D01*
X25382D01*
X25342Y4149D01*
X25088Y4529D01*
X24708Y4783D01*
X24509Y4823D01*
D02*
G37*
G36*
X24009D02*
X23810Y4783D01*
X23430Y4529D01*
X23176Y4149D01*
X23136Y3950D01*
X24009D01*
Y4823D01*
D02*
G37*
G36*
X32550Y4850D02*
X31422D01*
X31481Y4554D01*
X31791Y4091D01*
X32254Y3781D01*
X32550Y3722D01*
Y4850D01*
D02*
G37*
G36*
X-22018Y4350D02*
X-22891D01*
Y3477D01*
X-22692Y3517D01*
X-22312Y3771D01*
X-22058Y4151D01*
X-22018Y4350D01*
D02*
G37*
G36*
X-23391D02*
X-24264D01*
X-24224Y4151D01*
X-23970Y3771D01*
X-23590Y3517D01*
X-23391Y3477D01*
Y4350D01*
D02*
G37*
G36*
X14778Y3850D02*
X13650D01*
Y2722D01*
X13946Y2781D01*
X14409Y3091D01*
X14719Y3554D01*
X14778Y3850D01*
D02*
G37*
G36*
X13150D02*
X12022D01*
X12081Y3554D01*
X12391Y3091D01*
X12854Y2781D01*
X13150Y2722D01*
Y3850D01*
D02*
G37*
G36*
X25382Y3450D02*
X24509D01*
Y2577D01*
X24708Y2617D01*
X25088Y2871D01*
X25342Y3251D01*
X25382Y3450D01*
D02*
G37*
G36*
X24009D02*
X23136D01*
X23176Y3251D01*
X23430Y2871D01*
X23810Y2617D01*
X24009Y2577D01*
Y3450D01*
D02*
G37*
G36*
X13800Y1969D02*
X13429Y1895D01*
X13311Y1816D01*
X6789D01*
X6671Y1895D01*
X6300Y1969D01*
X5929Y1895D01*
X5615Y1685D01*
X5405Y1371D01*
X5331Y1000D01*
X5405Y629D01*
X5615Y315D01*
X5929Y105D01*
X6300Y31D01*
X6671Y105D01*
X6789Y184D01*
X13311D01*
X13429Y105D01*
X13800Y31D01*
X14171Y105D01*
X14485Y315D01*
X14695Y629D01*
X14769Y1000D01*
X14695Y1371D01*
X14485Y1685D01*
X14171Y1895D01*
X13800Y1969D01*
D02*
G37*
G36*
X-9850Y2389D02*
Y1669D01*
X-9130D01*
X-9158Y1809D01*
X-9379Y2140D01*
X-9710Y2361D01*
X-9850Y2389D01*
D02*
G37*
G36*
X-10350D02*
X-10490Y2361D01*
X-10821Y2140D01*
X-11042Y1809D01*
X-11070Y1669D01*
X-10350D01*
Y2389D01*
D02*
G37*
G36*
X-9130Y1169D02*
X-9850D01*
Y449D01*
X-9710Y477D01*
X-9379Y698D01*
X-9158Y1029D01*
X-9130Y1169D01*
D02*
G37*
G36*
X-10350D02*
X-11070D01*
X-11042Y1029D01*
X-10821Y698D01*
X-10490Y477D01*
X-10350Y449D01*
Y1169D01*
D02*
G37*
G36*
X32550Y-322D02*
X32254Y-381D01*
X31791Y-691D01*
X31481Y-1154D01*
X31422Y-1450D01*
X32550D01*
Y-322D01*
D02*
G37*
G36*
X6250Y-1622D02*
Y-2750D01*
X7378D01*
X7319Y-2454D01*
X7009Y-1991D01*
X6546Y-1681D01*
X6250Y-1622D01*
D02*
G37*
G36*
X5750D02*
X5454Y-1681D01*
X4991Y-1991D01*
X4681Y-2454D01*
X4622Y-2750D01*
X5750D01*
Y-1622D01*
D02*
G37*
G36*
X32550Y-1950D02*
X31422D01*
X31481Y-2246D01*
X31791Y-2709D01*
X32254Y-3019D01*
X32550Y-3078D01*
Y-1950D01*
D02*
G37*
G36*
X13924Y-2892D02*
Y-3765D01*
X14797D01*
X14757Y-3566D01*
X14503Y-3186D01*
X14123Y-2932D01*
X13924Y-2892D01*
D02*
G37*
G36*
X13424D02*
X13225Y-2932D01*
X12845Y-3186D01*
X12591Y-3566D01*
X12551Y-3765D01*
X13424D01*
Y-2892D01*
D02*
G37*
G36*
X7378Y-3250D02*
X6250D01*
Y-4378D01*
X6546Y-4319D01*
X7009Y-4009D01*
X7319Y-3546D01*
X7378Y-3250D01*
D02*
G37*
G36*
X5750D02*
X4622D01*
X4681Y-3546D01*
X4991Y-4009D01*
X5454Y-4319D01*
X5750Y-4378D01*
Y-3250D01*
D02*
G37*
G36*
X14797Y-4265D02*
X13924D01*
Y-5138D01*
X14123Y-5098D01*
X14503Y-4844D01*
X14757Y-4464D01*
X14797Y-4265D01*
D02*
G37*
G36*
X13424D02*
X12551D01*
X12591Y-4464D01*
X12845Y-4844D01*
X13225Y-5098D01*
X13424Y-5138D01*
Y-4265D01*
D02*
G37*
G36*
X32550Y-6122D02*
X32254Y-6181D01*
X31791Y-6491D01*
X31481Y-6954D01*
X31422Y-7250D01*
X32550D01*
Y-6122D01*
D02*
G37*
G36*
X-37091Y-7677D02*
Y-8550D01*
X-36218D01*
X-36258Y-8351D01*
X-36512Y-7971D01*
X-36892Y-7717D01*
X-37091Y-7677D01*
D02*
G37*
G36*
X-37591D02*
X-37790Y-7717D01*
X-38170Y-7971D01*
X-38424Y-8351D01*
X-38464Y-8550D01*
X-37591D01*
Y-7677D01*
D02*
G37*
G36*
X32550Y-7750D02*
X31422D01*
X31481Y-8046D01*
X31791Y-8509D01*
X32254Y-8819D01*
X32550Y-8878D01*
Y-7750D01*
D02*
G37*
G36*
X-36218Y-9050D02*
X-37091D01*
Y-9923D01*
X-36892Y-9883D01*
X-36512Y-9629D01*
X-36258Y-9249D01*
X-36218Y-9050D01*
D02*
G37*
G36*
X-37591D02*
X-38464D01*
X-38424Y-9249D01*
X-38170Y-9629D01*
X-37790Y-9883D01*
X-37591Y-9923D01*
Y-9050D01*
D02*
G37*
G36*
X3950Y-9222D02*
Y-10350D01*
X5078D01*
X5019Y-10054D01*
X4709Y-9591D01*
X4246Y-9281D01*
X3950Y-9222D01*
D02*
G37*
G36*
X3450D02*
X3154Y-9281D01*
X2691Y-9591D01*
X2381Y-10054D01*
X2322Y-10350D01*
X3450D01*
Y-9222D01*
D02*
G37*
G36*
X43550Y-10350D02*
X42422D01*
X42481Y-10646D01*
X42791Y-11109D01*
X43254Y-11419D01*
X43550Y-11478D01*
Y-10350D01*
D02*
G37*
G36*
X38478Y-10450D02*
X37350D01*
Y-11578D01*
X37646Y-11519D01*
X38109Y-11209D01*
X38419Y-10746D01*
X38478Y-10450D01*
D02*
G37*
G36*
X36850D02*
X35722D01*
X35781Y-10746D01*
X36091Y-11209D01*
X36554Y-11519D01*
X36850Y-11578D01*
Y-10450D01*
D02*
G37*
G36*
X5078Y-10850D02*
X3950D01*
Y-11978D01*
X4246Y-11919D01*
X4709Y-11609D01*
X5019Y-11146D01*
X5078Y-10850D01*
D02*
G37*
G36*
X3450D02*
X2322D01*
X2381Y-11146D01*
X2691Y-11609D01*
X3154Y-11919D01*
X3450Y-11978D01*
Y-10850D01*
D02*
G37*
G36*
X-9100Y-9877D02*
X-9568Y-9970D01*
X-9965Y-10235D01*
X-10230Y-10632D01*
X-10323Y-11100D01*
X-10230Y-11568D01*
X-9965Y-11965D01*
X-9568Y-12230D01*
X-9100Y-12324D01*
X-8632Y-12230D01*
X-8235Y-11965D01*
X-7970Y-11568D01*
X-7876Y-11100D01*
X-7970Y-10632D01*
X-8235Y-10235D01*
X-8632Y-9970D01*
X-9100Y-9877D01*
D02*
G37*
G36*
X-27956Y-12132D02*
X-28424Y-12225D01*
X-28821Y-12491D01*
X-29086Y-12888D01*
X-29179Y-13356D01*
X-29086Y-13824D01*
X-28821Y-14221D01*
X-28424Y-14486D01*
X-27956Y-14579D01*
X-27488Y-14486D01*
X-27091Y-14221D01*
X-26825Y-13824D01*
X-26732Y-13356D01*
X-26825Y-12888D01*
X-27091Y-12491D01*
X-27488Y-12225D01*
X-27956Y-12132D01*
D02*
G37*
G36*
X-16150Y-14622D02*
Y-15750D01*
X-15022D01*
X-15081Y-15454D01*
X-15391Y-14991D01*
X-15854Y-14681D01*
X-16150Y-14622D01*
D02*
G37*
G36*
X-16650D02*
X-16946Y-14681D01*
X-17409Y-14991D01*
X-17719Y-15454D01*
X-17778Y-15750D01*
X-16650D01*
Y-14622D01*
D02*
G37*
G36*
X-30650Y-15422D02*
Y-16550D01*
X-29522D01*
X-29581Y-16254D01*
X-29891Y-15791D01*
X-30354Y-15481D01*
X-30650Y-15422D01*
D02*
G37*
G36*
X-31150D02*
X-31446Y-15481D01*
X-31909Y-15791D01*
X-32219Y-16254D01*
X-32278Y-16550D01*
X-31150D01*
Y-15422D01*
D02*
G37*
G36*
X41250Y-15622D02*
X40954Y-15681D01*
X40491Y-15991D01*
X40181Y-16454D01*
X40122Y-16750D01*
X41250D01*
Y-15622D01*
D02*
G37*
G36*
X-40700Y-12560D02*
X-41519Y-12723D01*
X-42213Y-13186D01*
X-42677Y-13881D01*
X-42840Y-14700D01*
X-42677Y-15519D01*
X-42213Y-16214D01*
X-41519Y-16677D01*
X-40700Y-16840D01*
X-39881Y-16677D01*
X-39186Y-16214D01*
X-38723Y-15519D01*
X-38560Y-14700D01*
X-38723Y-13881D01*
X-39186Y-13186D01*
X-39881Y-12723D01*
X-40700Y-12560D01*
D02*
G37*
G36*
X-15022Y-16250D02*
X-16150D01*
Y-17378D01*
X-15854Y-17319D01*
X-15391Y-17009D01*
X-15081Y-16546D01*
X-15022Y-16250D01*
D02*
G37*
G36*
X-16650D02*
X-17778D01*
X-17719Y-16546D01*
X-17409Y-17009D01*
X-16946Y-17319D01*
X-16650Y-17378D01*
Y-16250D01*
D02*
G37*
G36*
X-29522Y-17050D02*
X-30650D01*
Y-18178D01*
X-30354Y-18119D01*
X-29891Y-17809D01*
X-29581Y-17346D01*
X-29522Y-17050D01*
D02*
G37*
G36*
X-31150D02*
X-32278D01*
X-32219Y-17346D01*
X-31909Y-17809D01*
X-31446Y-18119D01*
X-31150Y-18178D01*
Y-17050D01*
D02*
G37*
G36*
X41250Y-17250D02*
X40122D01*
X40181Y-17546D01*
X40491Y-18009D01*
X40954Y-18319D01*
X41250Y-18378D01*
Y-17250D01*
D02*
G37*
G36*
X8250Y-19930D02*
Y-20650D01*
X8970D01*
X8942Y-20510D01*
X8721Y-20179D01*
X8390Y-19958D01*
X8250Y-19930D01*
D02*
G37*
G36*
X7750D02*
X7610Y-19958D01*
X7279Y-20179D01*
X7058Y-20510D01*
X7030Y-20650D01*
X7750D01*
Y-19930D01*
D02*
G37*
G36*
X25550Y-21030D02*
Y-21750D01*
X26270D01*
X26242Y-21610D01*
X26021Y-21279D01*
X25690Y-21058D01*
X25550Y-21030D01*
D02*
G37*
G36*
X25050D02*
X24910Y-21058D01*
X24579Y-21279D01*
X24358Y-21610D01*
X24330Y-21750D01*
X25050D01*
Y-21030D01*
D02*
G37*
G36*
X-12730Y-21050D02*
X-13450D01*
Y-21770D01*
X-13310Y-21742D01*
X-12979Y-21521D01*
X-12758Y-21190D01*
X-12730Y-21050D01*
D02*
G37*
G36*
X-13950D02*
X-14670D01*
X-14642Y-21190D01*
X-14421Y-21521D01*
X-14090Y-21742D01*
X-13950Y-21770D01*
Y-21050D01*
D02*
G37*
G36*
X8970Y-21150D02*
X8250D01*
Y-21870D01*
X8390Y-21842D01*
X8721Y-21621D01*
X8942Y-21290D01*
X8970Y-21150D01*
D02*
G37*
G36*
X7750D02*
X7030D01*
X7058Y-21290D01*
X7279Y-21621D01*
X7610Y-21842D01*
X7750Y-21870D01*
Y-21150D01*
D02*
G37*
G36*
X26270Y-22250D02*
X25550D01*
Y-22970D01*
X25690Y-22942D01*
X26021Y-22721D01*
X26242Y-22390D01*
X26270Y-22250D01*
D02*
G37*
G36*
X25050D02*
X24330D01*
X24358Y-22390D01*
X24579Y-22721D01*
X24910Y-22942D01*
X25050Y-22970D01*
Y-22250D01*
D02*
G37*
G36*
X-37350Y-24122D02*
Y-25250D01*
X-36222D01*
X-36281Y-24954D01*
X-36591Y-24491D01*
X-37054Y-24181D01*
X-37350Y-24122D01*
D02*
G37*
G36*
X9843Y-25109D02*
X9122Y-25204D01*
X8450Y-25482D01*
X7874Y-25925D01*
X7431Y-26502D01*
X7153Y-27173D01*
X7058Y-27894D01*
Y-28878D01*
X7153Y-29599D01*
X7431Y-30270D01*
X7874Y-30847D01*
X8450Y-31289D01*
X9122Y-31567D01*
X9843Y-31662D01*
X10563Y-31567D01*
X11235Y-31289D01*
X11811Y-30847D01*
X12254Y-30270D01*
X12532Y-29599D01*
X12627Y-28878D01*
Y-27894D01*
X12532Y-27173D01*
X12254Y-26502D01*
X11811Y-25925D01*
X11235Y-25482D01*
X10563Y-25204D01*
X9843Y-25109D01*
D02*
G37*
G36*
X-9843Y-25306D02*
X-10563Y-25401D01*
X-11235Y-25679D01*
X-11811Y-26122D01*
X-12254Y-26698D01*
X-12532Y-27370D01*
X-12627Y-28091D01*
Y-29075D01*
X-12532Y-29796D01*
X-12254Y-30467D01*
X-11811Y-31044D01*
X-11235Y-31486D01*
X-10563Y-31764D01*
X-9843Y-31859D01*
X-9122Y-31764D01*
X-8450Y-31486D01*
X-7874Y-31044D01*
X-7431Y-30467D01*
X-7153Y-29796D01*
X-7058Y-29075D01*
Y-28091D01*
X-7153Y-27370D01*
X-7431Y-26698D01*
X-7874Y-26122D01*
X-8450Y-25679D01*
X-9122Y-25401D01*
X-9843Y-25306D01*
D02*
G37*
G36*
X-19150Y-32530D02*
Y-33250D01*
X-18430D01*
X-18458Y-33110D01*
X-18679Y-32779D01*
X-19010Y-32558D01*
X-19150Y-32530D01*
D02*
G37*
G36*
X-19650D02*
X-19790Y-32558D01*
X-20121Y-32779D01*
X-20342Y-33110D01*
X-20370Y-33250D01*
X-19650D01*
Y-32530D01*
D02*
G37*
G36*
X-18430Y-33750D02*
X-19150D01*
Y-34470D01*
X-19010Y-34442D01*
X-18679Y-34221D01*
X-18458Y-33890D01*
X-18430Y-33750D01*
D02*
G37*
G36*
X-19650D02*
X-20370D01*
X-20342Y-33890D01*
X-20121Y-34221D01*
X-19790Y-34442D01*
X-19650Y-34470D01*
Y-33750D01*
D02*
G37*
G36*
X-22250Y-37522D02*
Y-38650D01*
X-21122D01*
X-21181Y-38354D01*
X-21491Y-37891D01*
X-21954Y-37581D01*
X-22250Y-37522D01*
D02*
G37*
G36*
X-22750D02*
X-23046Y-37581D01*
X-23509Y-37891D01*
X-23819Y-38354D01*
X-23878Y-38650D01*
X-22750D01*
Y-37522D01*
D02*
G37*
G36*
X20050Y-39222D02*
Y-40350D01*
X21178D01*
X21119Y-40054D01*
X20809Y-39591D01*
X20346Y-39281D01*
X20050Y-39222D01*
D02*
G37*
G36*
X19550D02*
X19254Y-39281D01*
X18791Y-39591D01*
X18481Y-40054D01*
X18422Y-40350D01*
X19550D01*
Y-39222D01*
D02*
G37*
G36*
X250Y-43822D02*
Y-44950D01*
X1378D01*
X1319Y-44654D01*
X1009Y-44191D01*
X546Y-43881D01*
X250Y-43822D01*
D02*
G37*
G36*
X-250D02*
X-546Y-43881D01*
X-1009Y-44191D01*
X-1319Y-44654D01*
X-1378Y-44950D01*
X-250D01*
Y-43822D01*
D02*
G37*
%LPD*%
D43*
X6300Y1000D02*
X13800D01*
X-13689Y-17989D02*
Y-17289D01*
X-14600Y-18900D02*
X-13689Y-17989D01*
X-22800Y-18900D02*
X-14600D01*
X-23568Y-18132D02*
X-22800Y-18900D01*
X-23568Y-18132D02*
Y-16900D01*
X-28647Y23421D02*
X-26679D01*
X-32584Y19484D02*
X-28647Y23421D01*
X-17300Y21800D02*
Y26600D01*
X-15900Y6000D02*
Y8900D01*
Y6000D02*
X-15000Y5100D01*
Y-5100D02*
Y5100D01*
X-19600Y-9700D02*
X-15000Y-5100D01*
X-38379Y23421D02*
X-36521D01*
X-39500Y22300D02*
X-38379Y23421D01*
D44*
X-32584Y12984D02*
X-30800Y11200D01*
X-32584Y12984D02*
Y13579D01*
X-1300Y-1100D02*
Y11400D01*
X-7900Y-7700D02*
X-1300Y-1100D01*
X-12500Y-7700D02*
X-7900D01*
X-19631Y-14831D02*
X-12500Y-7700D01*
X-19631Y-14931D02*
Y-14831D01*
X-7400Y14100D02*
X-6800D01*
X-10800Y17500D02*
X-7400Y14100D01*
X-17620Y17500D02*
X-10800D01*
X-18920Y16200D02*
X-17620Y17500D01*
X-27332Y16200D02*
X-18920D01*
X-28647Y17516D02*
X-27332Y16200D01*
X-15220Y14000D02*
X-9300D01*
X-16120Y14900D02*
X-15220Y14000D01*
X-17280Y14900D02*
X-16120D01*
X-17480Y14700D02*
X-17280Y14900D01*
X-29768Y14700D02*
X-17480D01*
X-30616Y15547D02*
X-29768Y14700D01*
X-26700Y17500D02*
X-21900D01*
X-20400Y19000D01*
X-7900D01*
X-6700Y20200D01*
X-8300Y20300D02*
X-6700Y21900D01*
X-20000Y20300D02*
X-8300D01*
X-20700Y21000D02*
X-20000Y20300D01*
X-27132Y21000D02*
X-20700D01*
X-28647Y19484D02*
X-27132Y21000D01*
X-2500Y31599D02*
X1276D01*
X-1300Y11400D02*
X-300Y12400D01*
X701Y29610D02*
Y30439D01*
X408Y30731D02*
X701Y30439D01*
X408Y30731D02*
Y30731D01*
X1276Y31599D01*
X-300Y12400D02*
Y28609D01*
X701Y29610D01*
D45*
X-27700Y18500D02*
X-26700Y17500D01*
X-29632Y18500D02*
X-27700D01*
X-30616Y17516D02*
X-29632Y18500D01*
D46*
X-24519Y2319D02*
X-23794D01*
X-21175Y-300D01*
X-21810Y-1875D02*
X-21175D01*
X-30381Y2319D02*
X-26004D01*
X-21810Y-1875D01*
X-21600Y-16900D02*
Y-8900D01*
X-16500Y-3800D01*
X-23568Y-14931D02*
Y-1868D01*
X-20500Y2800D02*
X-16500D01*
X6000Y16000D02*
Y31599D01*
X1600Y11600D02*
X6000Y16000D01*
X4425Y31599D02*
Y32325D01*
X5200Y33100D01*
X7600D01*
Y16100D02*
Y33100D01*
X1700Y10200D02*
X7600Y16100D01*
X-16500Y-3800D02*
Y1275D01*
X2850Y14450D02*
Y31599D01*
X100Y11700D02*
X2850Y14450D01*
X100Y1100D02*
Y11700D01*
X-10200Y-6300D02*
X-2800Y1100D01*
X-13500Y-6300D02*
X-10200D01*
X-19100Y-11900D02*
X-13500Y-6300D01*
X-19176Y30024D02*
X-299D01*
X-18025Y-390D02*
Y-300D01*
X-19075Y-1440D02*
X-18025Y-390D01*
X-19075Y-4175D02*
Y-1440D01*
X-13600Y10300D02*
X-11641D01*
X-13600Y-3500D02*
Y10300D01*
D54*
X-21175Y-300D02*
D03*
Y-1875D02*
D03*
X-30381Y2319D02*
D03*
X-24519D02*
D03*
X-13500Y-3600D02*
D03*
X-26679Y23421D02*
D03*
X4425Y31599D02*
D03*
X6000D02*
D03*
X-16450Y1275D02*
D03*
X-23568Y-1868D02*
D03*
X-20500Y2800D02*
D03*
X-16450Y2850D02*
D03*
X-32584Y19484D02*
D03*
X-30800Y11200D02*
D03*
X-32584Y13579D02*
D03*
X1600Y11600D02*
D03*
X1700Y10200D02*
D03*
X1276Y31599D02*
D03*
X2850D02*
D03*
X-19631Y-14931D02*
D03*
X100Y1100D02*
D03*
X-2800D02*
D03*
X-19100Y-11900D02*
D03*
X-30616Y17516D02*
D03*
X-28647Y19484D02*
D03*
Y17516D02*
D03*
X-30616Y15547D02*
D03*
X-6800Y14100D02*
D03*
X-9300Y14000D02*
D03*
X-6700Y20200D02*
D03*
Y21900D02*
D03*
X-299Y30024D02*
D03*
X-19176D02*
D03*
X-18025Y-300D02*
D03*
X-19075Y-4175D02*
D03*
X-2500Y31599D02*
D03*
X-13700Y-20800D02*
D03*
X-19400Y-33500D02*
D03*
X8000Y-20900D02*
D03*
X-4500Y25581D02*
D03*
X18600Y18300D02*
D03*
X-36521Y23421D02*
D03*
X-39500Y22300D02*
D03*
X25300Y-22000D02*
D03*
X7700Y11100D02*
D03*
X13700Y11200D02*
D03*
X18600Y33900D02*
D03*
X24000Y16500D02*
D03*
X9400Y22100D02*
D03*
X9150Y28450D02*
D03*
X-10100Y1419D02*
D03*
X-23800Y27300D02*
D03*
X19700Y20800D02*
D03*
X21900Y21300D02*
D03*
X11000Y11800D02*
D03*
D55*
X6300Y1000D02*
D03*
X13800D02*
D03*
X-19600Y-9700D02*
D03*
X-13689Y-17289D02*
D03*
X-23568Y-16900D02*
D03*
Y-14931D02*
D03*
X-21600Y-16900D02*
D03*
X-11641Y10300D02*
D03*
X-4441Y11600D02*
D03*
X24259Y3700D02*
D03*
X13674Y-4015D02*
D03*
X-23141Y4600D02*
D03*
X-37341Y-8800D02*
D03*
D56*
X-16700Y13500D02*
D03*
X-17300Y26600D02*
D03*
Y21800D02*
D03*
X-15900Y8900D02*
D03*
X43800Y-10100D02*
D03*
X37100Y-10200D02*
D03*
X32800Y-7500D02*
D03*
Y-1700D02*
D03*
Y5100D02*
D03*
Y9800D02*
D03*
X43800Y11500D02*
D03*
X29500Y6400D02*
D03*
X41500Y-17000D02*
D03*
X19800Y-40600D02*
D03*
X0Y-45200D02*
D03*
X-22500Y-38900D02*
D03*
X-37600Y-25500D02*
D03*
X-43300Y15000D02*
D03*
X-7200Y44100D02*
D03*
X12700Y43300D02*
D03*
X37900Y24900D02*
D03*
X40300Y20600D02*
D03*
X42300Y16800D02*
D03*
X-23300Y33400D02*
D03*
X-19100Y35500D02*
D03*
X25800Y31300D02*
D03*
X29700Y27900D02*
D03*
X-36300Y9100D02*
D03*
X-30900Y-16800D02*
D03*
X-16400Y-16000D02*
D03*
X3700Y-10600D02*
D03*
X6000Y-3000D02*
D03*
X3700Y8100D02*
D03*
X13400Y4100D02*
D03*
M02*
