G04 Layer_Physical_Order=1*
G04 Layer_Color=255*
%FSLAX25Y25*%
%MOIN*%
G70*
G01*
G75*
G04:AMPARAMS|DCode=10|XSize=19.69mil|YSize=43.31mil|CornerRadius=0mil|HoleSize=0mil|Usage=FLASHONLY|Rotation=125.000|XOffset=0mil|YOffset=0mil|HoleType=Round|Shape=Rectangle|*
%AMROTATEDRECTD10*
4,1,4,0.02338,0.00436,-0.01209,-0.02048,-0.02338,-0.00436,0.01209,0.02048,0.02338,0.00436,0.0*
%
%ADD10ROTATEDRECTD10*%

G04:AMPARAMS|DCode=11|XSize=47.24mil|YSize=66.93mil|CornerRadius=0mil|HoleSize=0mil|Usage=FLASHONLY|Rotation=125.000|XOffset=0mil|YOffset=0mil|HoleType=Round|Shape=Rectangle|*
%AMROTATEDRECTD11*
4,1,4,0.04096,-0.00016,-0.01386,-0.03855,-0.04096,0.00016,0.01386,0.03855,0.04096,-0.00016,0.0*
%
%ADD11ROTATEDRECTD11*%

%ADD12R,0.01260X0.01260*%
%ADD13R,0.01260X0.01260*%
%ADD14R,0.02520X0.02362*%
%ADD15R,0.02362X0.02520*%
%ADD16R,0.01181X0.01378*%
%ADD17R,0.01378X0.01181*%
%ADD18R,0.03150X0.03150*%
%ADD19R,0.02756X0.05906*%
%ADD20R,0.02756X0.15748*%
%ADD21R,0.02756X0.03543*%
%ADD22C,0.00866*%
G04:AMPARAMS|DCode=23|XSize=9mil|YSize=9mil|CornerRadius=4.5mil|HoleSize=0mil|Usage=FLASHONLY|Rotation=0.000|XOffset=0mil|YOffset=0mil|HoleType=Round|Shape=RoundedRectangle|*
%AMROUNDEDRECTD23*
21,1,0.00900,0.00000,0,0,0.0*
21,1,0.00000,0.00900,0,0,0.0*
1,1,0.00900,0.00000,0.00000*
1,1,0.00900,0.00000,0.00000*
1,1,0.00900,0.00000,0.00000*
1,1,0.00900,0.00000,0.00000*
%
%ADD23ROUNDEDRECTD23*%
%ADD24C,0.01083*%
%ADD25C,0.01043*%
G04:AMPARAMS|DCode=26|XSize=19.69mil|YSize=43.31mil|CornerRadius=0mil|HoleSize=0mil|Usage=FLASHONLY|Rotation=10.000|XOffset=0mil|YOffset=0mil|HoleType=Round|Shape=Rectangle|*
%AMROTATEDRECTD26*
4,1,4,-0.00593,-0.02303,-0.01345,0.01962,0.00593,0.02303,0.01345,-0.01962,-0.00593,-0.02303,0.0*
%
%ADD26ROTATEDRECTD26*%

G04:AMPARAMS|DCode=27|XSize=47.24mil|YSize=66.93mil|CornerRadius=0mil|HoleSize=0mil|Usage=FLASHONLY|Rotation=10.000|XOffset=0mil|YOffset=0mil|HoleType=Round|Shape=Rectangle|*
%AMROTATEDRECTD27*
4,1,4,-0.01745,-0.03706,-0.02907,0.02885,0.01745,0.03706,0.02907,-0.02885,-0.01745,-0.03706,0.0*
%
%ADD27ROTATEDRECTD27*%

%ADD28C,0.00709*%
%ADD29R,0.02795X0.03622*%
%ADD30R,0.02835X0.01181*%
%ADD31R,0.01181X0.02835*%
%ADD32R,0.08268X0.08268*%
%ADD33R,0.02165X0.02362*%
%ADD34R,0.01102X0.02953*%
%ADD35R,0.01102X0.03347*%
%ADD36R,0.07087X0.02362*%
%ADD37R,0.07087X0.02953*%
%ADD38R,0.03543X0.05118*%
%ADD39R,0.04724X0.07480*%
%ADD40R,0.01575X0.05315*%
%ADD41R,0.06299X0.07480*%
%ADD42R,0.02953X0.02559*%
%ADD43C,0.01000*%
%ADD44C,0.00400*%
%ADD45C,0.00300*%
%ADD46C,0.00500*%
%ADD47C,0.00800*%
%ADD48C,0.00700*%
%ADD49C,0.00600*%
%ADD50C,0.01100*%
%ADD51C,0.03598*%
%ADD52O,0.04921X0.05906*%
%ADD53O,0.04823X0.07480*%
%ADD54C,0.01000*%
%ADD55C,0.01300*%
%ADD56C,0.01800*%
%ADD57C,0.02800*%
G36*
X-8377Y33477D02*
X-9996Y31858D01*
X-10172Y31593D01*
X-10235Y31281D01*
X-10235Y31281D01*
Y30289D01*
X-10309D01*
Y28311D01*
X-10048D01*
X-9799Y27811D01*
X-9936Y27630D01*
X-10772Y27630D01*
X-10963Y27811D01*
X-10891Y28311D01*
X-10891D01*
Y30289D01*
X-12672D01*
Y28311D01*
X-12376D01*
Y27630D01*
X-12632D01*
Y25770D01*
X-12376D01*
Y25083D01*
X-12817Y24940D01*
X-13051Y24940D01*
X-14520D01*
Y23995D01*
X-18281D01*
X-18702Y23821D01*
X-19451Y23072D01*
X-19971D01*
X-20289Y23458D01*
X-20281Y23495D01*
X-20374Y23964D01*
X-20640Y24360D01*
X-21036Y24626D01*
X-21505Y24719D01*
X-21973Y24626D01*
X-22370Y24360D01*
X-22452Y24237D01*
X-26241D01*
X-26319Y24289D01*
X-26679Y24361D01*
X-27038Y24289D01*
X-27343Y24086D01*
X-27763Y24358D01*
X-27772Y24367D01*
X-27847Y24556D01*
X-27705Y24900D01*
Y25365D01*
X-27370D01*
Y27225D01*
X-27170Y27370D01*
X-27170D01*
Y28250D01*
X-28300D01*
Y28750D01*
X-27170D01*
Y29429D01*
X-19725D01*
X-19488Y29271D01*
X-19176Y29209D01*
X-18864Y29271D01*
X-18616Y29436D01*
X-18514Y29417D01*
X-18116Y29271D01*
Y27498D01*
X-18165Y27465D01*
X-18430Y27068D01*
X-18523Y26600D01*
X-18430Y26132D01*
X-18165Y25735D01*
X-17768Y25470D01*
X-17300Y25376D01*
X-16832Y25470D01*
X-16435Y25735D01*
X-16170Y26132D01*
X-16077Y26600D01*
X-16170Y27068D01*
X-16435Y27465D01*
X-16484Y27498D01*
Y31062D01*
X-13570Y33977D01*
X-8584D01*
X-8377Y33477D01*
D02*
G37*
G36*
X-34353Y28352D02*
X-34353Y27511D01*
X-34332Y27020D01*
Y26550D01*
X-33202D01*
Y26300D01*
X-32952D01*
Y25170D01*
X-32345D01*
X-32072Y25170D01*
X-31593Y25120D01*
Y24598D01*
X-31588Y24586D01*
X-31992Y24254D01*
X-32186Y24384D01*
X-32334Y24413D01*
Y23421D01*
X-32834D01*
Y24413D01*
X-32983Y24384D01*
X-33321Y24158D01*
X-33328Y24147D01*
X-33888Y24086D01*
X-34193Y24289D01*
X-34553Y24361D01*
X-34912Y24289D01*
X-35217Y24086D01*
X-35778Y24147D01*
X-35785Y24158D01*
X-36123Y24384D01*
X-36271Y24413D01*
Y23421D01*
X-36771D01*
Y24569D01*
X-37105Y24816D01*
Y26253D01*
X-34815Y28543D01*
X-34353Y28352D01*
D02*
G37*
G36*
X-20489Y22129D02*
Y21291D01*
X-20689Y20909D01*
X-20689D01*
Y20069D01*
X-19500D01*
Y19569D01*
X-20689D01*
Y18728D01*
X-20689Y18728D01*
X-20689D01*
X-20748Y18253D01*
X-20819Y18146D01*
X-20878Y17850D01*
X-19500D01*
Y17600D01*
X-19250D01*
Y16222D01*
X-18954Y16281D01*
X-18491Y16591D01*
X-18471Y16620D01*
X-17877Y16623D01*
X-16660Y15406D01*
X-16667Y15326D01*
X-16857Y14896D01*
X-17246Y14819D01*
X-17709Y14509D01*
X-18019Y14046D01*
X-18078Y13750D01*
X-16700D01*
Y13500D01*
X-16450D01*
Y12122D01*
X-16154Y12181D01*
X-15691Y12491D01*
X-15381Y12954D01*
X-14836Y13135D01*
X-14716Y13057D01*
Y10119D01*
X-15129Y9828D01*
X-15432Y10030D01*
X-15900Y10124D01*
X-16368Y10030D01*
X-16765Y9765D01*
X-17030Y9368D01*
X-17123Y8900D01*
X-17030Y8432D01*
X-16765Y8035D01*
X-16368Y7770D01*
X-15900Y7677D01*
X-15741Y7708D01*
X-15495Y7247D01*
X-16871Y5871D01*
X-17046Y5450D01*
Y3652D01*
X-17470Y3452D01*
X-17601Y3468D01*
X-17733Y3556D01*
X-18025Y3614D01*
X-18318Y3556D01*
X-18566Y3390D01*
X-19059D01*
X-19307Y3556D01*
X-19600Y3614D01*
X-19893Y3556D01*
X-20141Y3390D01*
X-20598Y3607D01*
X-20804Y3745D01*
X-20925Y3768D01*
Y2850D01*
X-21425D01*
Y3768D01*
X-21545Y3745D01*
X-21695Y3645D01*
X-21793Y3673D01*
X-22058Y4151D01*
X-22018Y4350D01*
X-24264D01*
X-24224Y4151D01*
X-23970Y3771D01*
X-23932Y3745D01*
X-23838Y3108D01*
X-23972Y2942D01*
X-24002Y2936D01*
X-24207Y3073D01*
X-24519Y3135D01*
X-24831Y3073D01*
X-25193Y3428D01*
X-25237Y3537D01*
X-25211Y3591D01*
X-25211Y3627D01*
Y4431D01*
X-26400D01*
Y4681D01*
X-26650D01*
Y5772D01*
X-27589D01*
X-28089Y5772D01*
X-28550D01*
Y4681D01*
X-28800D01*
Y4431D01*
X-29989D01*
Y3627D01*
X-29989Y3591D01*
X-29983Y3577D01*
X-30154Y3239D01*
X-30319Y3122D01*
X-30381Y3135D01*
X-30693Y3073D01*
X-30958Y2896D01*
X-31135Y2631D01*
X-31197Y2319D01*
X-31135Y2007D01*
X-30958Y1742D01*
X-30693Y1565D01*
X-30381Y1503D01*
X-30289Y1522D01*
X-29789Y1428D01*
D01*
X-29416Y1122D01*
X-29372Y989D01*
X-29372Y928D01*
Y-989D01*
X-29297D01*
Y-2210D01*
X-29389D01*
Y-3991D01*
X-27411D01*
Y-3991D01*
X-26945Y-4073D01*
X-26830Y-4188D01*
Y-4453D01*
X-26922Y-4546D01*
X-27411Y-4572D01*
Y-4572D01*
X-29389D01*
Y-6353D01*
X-27411D01*
Y-6278D01*
X-26830D01*
Y-6313D01*
X-26716D01*
Y-6862D01*
X-27542Y-7689D01*
X-29653D01*
Y-11911D01*
X-28772D01*
Y-12458D01*
X-28821Y-12491D01*
X-29086Y-12888D01*
X-29179Y-13356D01*
X-29086Y-13824D01*
X-28821Y-14221D01*
X-28424Y-14486D01*
X-27956Y-14579D01*
X-27488Y-14486D01*
X-27091Y-14221D01*
X-26825Y-13824D01*
X-26732Y-13356D01*
X-26825Y-12888D01*
X-27091Y-12491D01*
X-27140Y-12458D01*
Y-11911D01*
X-26258D01*
Y-8712D01*
X-25323Y-7777D01*
X-25323Y-7777D01*
X-25146Y-7512D01*
X-25084Y-7200D01*
Y-6313D01*
X-24970D01*
X-24970Y-4281D01*
X-24970Y-3805D01*
X-24807Y-3773D01*
X-24542Y-3596D01*
X-24186Y-3240D01*
X-23816Y-3406D01*
X-23713Y-3474D01*
X-23644Y-3820D01*
X-23435Y-4135D01*
X-23120Y-4344D01*
X-23000Y-4369D01*
Y-3450D01*
X-22500D01*
Y-4369D01*
X-22490Y-4367D01*
X-22202Y-4525D01*
X-22144Y-4784D01*
X-22167Y-5114D01*
X-23021Y-5967D01*
X-23198Y-6232D01*
X-23260Y-6544D01*
X-23260Y-6544D01*
Y-7689D01*
X-24142D01*
Y-11911D01*
X-20746D01*
Y-10594D01*
X-20440Y-10455D01*
X-20246Y-10411D01*
X-19971Y-10595D01*
X-19616Y-10665D01*
X-19587Y-10685D01*
X-19406Y-10918D01*
X-19406Y-10924D01*
X-19427Y-11057D01*
X-19484Y-11195D01*
X-19677Y-11323D01*
X-19854Y-11588D01*
X-19909Y-11867D01*
X-22021Y-13979D01*
X-22079Y-14119D01*
X-22278Y-14252D01*
X-22279Y-14253D01*
X-22880Y-14252D01*
X-22884Y-14246D01*
X-23198Y-14037D01*
X-23568Y-13963D01*
X-23939Y-14037D01*
X-24253Y-14246D01*
X-24463Y-14561D01*
X-24537Y-14931D01*
X-24463Y-15302D01*
X-24254Y-15615D01*
X-24253Y-15616D01*
X-24253Y-16215D01*
X-24254Y-16217D01*
X-24463Y-16529D01*
X-24537Y-16900D01*
X-24463Y-17271D01*
X-24253Y-17585D01*
X-24523Y-18005D01*
X-24735Y-18219D01*
X-27458D01*
X-27720Y-17844D01*
X-31759Y-20672D01*
X-30286Y-22776D01*
X-26247Y-19948D01*
Y-19948D01*
X-26023Y-19518D01*
X-24267D01*
X-24247Y-19547D01*
X-23936Y-19755D01*
X-23568Y-19828D01*
X-23201Y-19755D01*
X-22890Y-19547D01*
X-22353Y-19619D01*
X-22341Y-19626D01*
X-22006Y-19849D01*
X-21850Y-19880D01*
Y-18868D01*
X-21350D01*
Y-19880D01*
X-21194Y-19849D01*
X-20859Y-19626D01*
X-20848Y-19619D01*
X-20727Y-19603D01*
X-20227Y-20033D01*
Y-22285D01*
X-20237Y-22295D01*
X-24604D01*
X-25914Y-20424D01*
X-29953Y-23252D01*
X-28480Y-25356D01*
X-25808Y-23485D01*
X-19990D01*
X-19569Y-23311D01*
X-19210Y-22952D01*
X-19036Y-22531D01*
Y-20038D01*
X-18949Y-19974D01*
X-18449Y-20226D01*
Y-24908D01*
X-19360D01*
Y-27830D01*
X-19360Y-27870D01*
X-19457Y-28330D01*
X-19560D01*
Y-29761D01*
X-16040D01*
Y-28330D01*
X-16143D01*
X-16240Y-27870D01*
X-16240Y-27830D01*
Y-24908D01*
X-17151D01*
Y-18400D01*
X-17341Y-17941D01*
X-18744Y-16538D01*
X-18745Y-16533D01*
X-18953Y-16221D01*
X-18960Y-16216D01*
Y-15615D01*
X-18953Y-15610D01*
X-18745Y-15299D01*
X-18672Y-14931D01*
X-18745Y-14564D01*
X-18953Y-14253D01*
X-19264Y-14045D01*
X-19631Y-13972D01*
X-19867Y-13509D01*
X-19067Y-12709D01*
X-18788Y-12654D01*
X-18523Y-12477D01*
X-18346Y-12212D01*
X-18314Y-12047D01*
X-17906Y-11861D01*
X-17803Y-11850D01*
X-17277Y-12377D01*
X-17277Y-12377D01*
X-17012Y-12554D01*
X-16700Y-12616D01*
X-16700Y-12616D01*
X-14316D01*
Y-14000D01*
X-14316Y-14000D01*
X-14254Y-14312D01*
X-14077Y-14577D01*
X-14044Y-14599D01*
X-12816Y-15826D01*
X-12992Y-16357D01*
X-13284Y-16417D01*
X-13318Y-16394D01*
X-13689Y-16320D01*
X-14060Y-16394D01*
X-14374Y-16604D01*
X-14584Y-16918D01*
X-14658Y-17289D01*
X-14584Y-17660D01*
X-14374Y-17974D01*
X-14060Y-18184D01*
X-13689Y-18258D01*
X-13318Y-18184D01*
X-13200Y-18105D01*
X-11760D01*
Y-18730D01*
X-11760Y-18770D01*
X-11857Y-19230D01*
X-11960D01*
Y-20661D01*
X-10200D01*
Y-20911D01*
X-9950D01*
Y-22592D01*
X-8760D01*
X-8440Y-22592D01*
X-7940Y-22592D01*
X-6750D01*
Y-20911D01*
X-6250D01*
Y-22592D01*
X-5153D01*
X-4946Y-23092D01*
X-5695Y-23841D01*
X-5872Y-24106D01*
X-5934Y-24418D01*
X-5934Y-24418D01*
Y-26017D01*
X-6205D01*
Y-31932D01*
X-4146D01*
X-4031Y-31932D01*
X-3773Y-31932D01*
X-3273Y-32325D01*
Y-33841D01*
X-3218Y-34114D01*
X-3064Y-34346D01*
X-1949Y-35460D01*
X-2157Y-35960D01*
X-7583D01*
Y-44040D01*
X-1510D01*
X-1243Y-44540D01*
X-1319Y-44654D01*
X-1378Y-44950D01*
X-250D01*
Y-43758D01*
X-684Y-43418D01*
Y-36014D01*
X684D01*
Y-43418D01*
X250Y-43758D01*
Y-44950D01*
X1378D01*
X1319Y-44654D01*
X1243Y-44540D01*
X1510Y-44040D01*
X7583D01*
Y-36014D01*
X9149D01*
Y-44040D01*
X14010D01*
X14014Y-44545D01*
X12098Y-45149D01*
X8117Y-46032D01*
X4074Y-46564D01*
X1190Y-46690D01*
X1033Y-46271D01*
X1018Y-46197D01*
X1319Y-45746D01*
X1378Y-45450D01*
X-1378D01*
X-1319Y-45746D01*
X-1018Y-46197D01*
X-1033Y-46271D01*
X-1190Y-46690D01*
X-4074Y-46564D01*
X-8117Y-46032D01*
X-12098Y-45149D01*
X-14009Y-44546D01*
X-13996Y-44040D01*
X-9149D01*
Y-35960D01*
X-13973D01*
X-13995Y-35960D01*
X-14173Y-35936D01*
X-14473Y-35960D01*
Y-35976D01*
X-14881Y-36030D01*
X-15541Y-36303D01*
X-16107Y-36737D01*
X-16542Y-37304D01*
X-16815Y-37963D01*
X-16908Y-38671D01*
Y-41329D01*
X-16815Y-42037D01*
X-16542Y-42696D01*
X-16107Y-43262D01*
X-15911Y-43413D01*
X-16163Y-43850D01*
X-19754Y-42362D01*
X-22797Y-40778D01*
X-22630Y-40302D01*
X-22500Y-40327D01*
X-21954Y-40219D01*
X-21491Y-39909D01*
X-21181Y-39446D01*
X-21122Y-39150D01*
X-23878D01*
X-23819Y-39446D01*
X-23638Y-39716D01*
X-23996Y-40082D01*
X-26810Y-38289D01*
X-30045Y-35806D01*
X-33051Y-33051D01*
X-35806Y-30045D01*
X-37845Y-27389D01*
X-37600Y-26927D01*
X-37054Y-26819D01*
X-36591Y-26509D01*
X-36281Y-26046D01*
X-36222Y-25750D01*
X-37600D01*
Y-25500D01*
X-37850D01*
Y-24122D01*
X-38146Y-24181D01*
X-38609Y-24491D01*
X-38898Y-24923D01*
X-39087Y-24970D01*
X-39439Y-25005D01*
X-40479Y-23371D01*
X-42362Y-19754D01*
X-43923Y-15987D01*
X-45149Y-12098D01*
X-45407Y-10932D01*
X-45094Y-10543D01*
X-42062D01*
Y-5162D01*
X-42062Y-4824D01*
X-41630Y-4662D01*
X-41181D01*
X-41000Y-4587D01*
X-40500Y-4769D01*
Y-4973D01*
X-36707D01*
Y-3246D01*
X-40356D01*
X-40500Y-3246D01*
X-40856Y-2900D01*
Y522D01*
X-40356Y788D01*
X-40300Y750D01*
Y-281D01*
X-40349Y-400D01*
X-40300Y-519D01*
Y-1881D01*
X-32613D01*
Y1081D01*
X-39105D01*
Y1400D01*
X-39279Y1821D01*
X-39443Y1984D01*
X-39251Y2446D01*
X-36707D01*
Y4423D01*
Y6399D01*
X-39670D01*
X-39818Y6634D01*
X-39926Y6899D01*
X-39886Y7100D01*
Y16828D01*
X-39846Y16888D01*
X-39784Y17200D01*
X-39846Y17512D01*
X-40023Y17777D01*
X-40288Y17954D01*
X-40600Y18016D01*
X-40912Y17954D01*
X-41177Y17777D01*
X-41354Y17512D01*
X-41416Y17200D01*
X-41354Y16888D01*
X-41314Y16828D01*
Y7100D01*
X-41259Y6827D01*
X-41195Y6731D01*
Y4088D01*
X-41604Y3923D01*
X-42062Y4174D01*
Y9742D01*
X-45272D01*
X-45585Y10132D01*
X-45149Y12098D01*
X-44652Y13673D01*
X-44077Y13835D01*
X-43846Y13681D01*
X-43550Y13622D01*
Y15000D01*
X-43300D01*
Y15250D01*
X-41922D01*
X-41981Y15546D01*
X-42291Y16009D01*
X-42754Y16319D01*
X-43207Y16409D01*
X-43567Y16845D01*
X-42362Y19754D01*
X-41003Y22365D01*
X-40699Y22324D01*
X-40507Y22236D01*
X-40442Y21910D01*
X-40221Y21579D01*
X-39890Y21358D01*
X-39750Y21330D01*
Y22300D01*
X-39250D01*
Y21330D01*
X-39110Y21358D01*
X-38795Y21568D01*
X-38697Y21549D01*
X-38295Y21403D01*
Y20600D01*
X-38121Y20179D01*
X-37455Y19513D01*
X-37461Y19484D01*
X-37389Y19125D01*
X-37186Y18820D01*
X-37247Y18259D01*
X-37258Y18252D01*
X-37484Y17914D01*
X-37513Y17766D01*
X-36521D01*
Y17266D01*
X-37513D01*
X-37484Y17117D01*
X-37258Y16779D01*
Y16284D01*
X-37484Y15946D01*
X-37513Y15797D01*
X-36521D01*
Y15297D01*
X-37513D01*
X-37484Y15149D01*
X-37258Y14811D01*
X-37247Y14804D01*
X-37186Y14243D01*
X-37389Y13938D01*
X-37461Y13579D01*
X-37389Y13219D01*
X-37186Y12914D01*
X-36881Y12711D01*
X-36521Y12639D01*
X-36162Y12711D01*
X-35857Y12914D01*
X-35837Y12944D01*
X-35237D01*
X-35217Y12914D01*
X-34912Y12711D01*
X-34553Y12639D01*
X-34193Y12711D01*
X-33888Y12914D01*
X-33869Y12944D01*
X-33268D01*
X-33249Y12914D01*
X-32944Y12711D01*
X-32584Y12639D01*
X-32225Y12711D01*
X-31920Y12914D01*
X-31900Y12944D01*
X-31300D01*
X-31280Y12914D01*
X-30975Y12711D01*
X-30616Y12639D01*
X-30256Y12711D01*
X-29951Y12914D01*
X-29932Y12944D01*
X-29331D01*
X-29312Y12914D01*
X-29007Y12711D01*
X-28647Y12639D01*
X-28288Y12711D01*
X-27983Y12914D01*
X-27963Y12944D01*
X-27363D01*
X-27343Y12914D01*
X-27038Y12711D01*
X-26679Y12639D01*
X-26319Y12711D01*
X-26014Y12914D01*
X-25811Y13219D01*
X-25739Y13579D01*
X-25601Y13745D01*
X-24944Y13774D01*
X-24089Y12919D01*
Y11728D01*
X-22111D01*
Y13473D01*
X-21911Y13891D01*
X-21911Y13891D01*
X-21911Y13891D01*
Y14731D01*
X-23100D01*
Y14981D01*
X-23350D01*
Y16072D01*
X-24289D01*
Y15150D01*
X-24789Y14937D01*
X-25031Y15037D01*
X-25235D01*
X-25445Y15297D01*
X-26679D01*
Y15797D01*
X-25687D01*
X-25716Y15946D01*
X-25942Y16284D01*
X-25708Y16713D01*
X-25525Y16920D01*
X-24784D01*
X-24363Y17095D01*
X-23392Y18066D01*
X-23212Y17946D01*
X-22900Y17884D01*
X-22588Y17946D01*
X-22323Y18123D01*
X-22146Y18388D01*
X-22084Y18700D01*
X-22146Y19012D01*
X-22292Y19350D01*
X-22146Y19688D01*
X-22084Y20000D01*
X-22146Y20312D01*
X-22323Y20577D01*
X-22588Y20754D01*
X-22900Y20816D01*
X-22944Y21295D01*
X-22688Y21346D01*
X-22423Y21523D01*
X-22246Y21788D01*
X-22216Y21942D01*
X-22104Y22137D01*
X-21717Y22314D01*
X-21505Y22272D01*
X-21036Y22365D01*
X-20989Y22397D01*
X-20489Y22129D01*
D02*
G37*
G36*
X1529Y46675D02*
X1686Y46240D01*
D01*
X1686Y46240D01*
X1686D01*
X1691Y46167D01*
X1670Y46164D01*
X-3121Y45319D01*
X-1854Y38137D01*
X3343Y39053D01*
X3343Y39053D01*
X3381Y39060D01*
X3406Y39062D01*
X3863Y39064D01*
X4023Y38823D01*
X4288Y38646D01*
X4600Y38584D01*
X4912Y38646D01*
X5177Y38823D01*
X5354Y39088D01*
X5416Y39400D01*
X5354Y39712D01*
X5177Y39977D01*
X4912Y40154D01*
X4600Y40216D01*
X4288Y40154D01*
X4023Y39977D01*
X3846Y39712D01*
X3817Y39563D01*
X3812Y39541D01*
X3324Y39546D01*
D01*
X3324D01*
D01*
X3304Y39546D01*
X3303Y39551D01*
X2151Y46085D01*
X2151Y46085D01*
X2187Y46231D01*
Y46231D01*
X2420Y46636D01*
X4074Y46564D01*
X8117Y46032D01*
X12098Y45149D01*
X12159Y45130D01*
X12154Y44677D01*
X12142Y44611D01*
X11691Y44309D01*
X11381Y43846D01*
X11322Y43550D01*
X14078D01*
X14019Y43846D01*
X13872Y44065D01*
X14191Y44489D01*
X15987Y43923D01*
X19754Y42362D01*
X23371Y40479D01*
X26810Y38289D01*
X30045Y35806D01*
X33051Y33051D01*
X35806Y30045D01*
X38289Y26810D01*
X38325Y26753D01*
X38150Y26497D01*
Y24900D01*
Y23522D01*
X38446Y23581D01*
X38909Y23891D01*
X39219Y24354D01*
X39229Y24404D01*
X39758Y24503D01*
X40479Y23371D01*
X40999Y22372D01*
X40652Y21958D01*
X40550Y21978D01*
Y20600D01*
Y19222D01*
X40846Y19281D01*
X41309Y19591D01*
X41619Y20054D01*
X41625Y20087D01*
X42150Y20162D01*
X42362Y19754D01*
X42827Y18632D01*
X42550Y18295D01*
Y16800D01*
Y15422D01*
X42846Y15481D01*
X43309Y15791D01*
X43404Y15933D01*
X43658Y15959D01*
X43961Y15866D01*
X44835Y13093D01*
X44411Y12776D01*
X44346Y12819D01*
X44050Y12878D01*
Y11500D01*
X43800D01*
Y11250D01*
X42261D01*
X41951Y11000D01*
X41528Y10800D01*
X40767D01*
Y11747D01*
X40889D01*
Y13528D01*
X38911D01*
Y13486D01*
X36932D01*
Y13549D01*
X35659D01*
X35519Y13819D01*
X35659Y14089D01*
X36932D01*
Y14152D01*
X38911D01*
Y14109D01*
X40889D01*
Y15504D01*
X41036Y15609D01*
X41389Y15725D01*
X41754Y15481D01*
X42050Y15422D01*
Y16550D01*
X40922D01*
X40960Y16361D01*
X40745Y16015D01*
X40623Y15890D01*
X38911D01*
Y15886D01*
X36932D01*
Y15949D01*
X36869D01*
Y19998D01*
X36803Y20329D01*
X36615Y20610D01*
X32913Y24313D01*
X32632Y24501D01*
X32300Y24567D01*
X20423D01*
Y24645D01*
X20009D01*
X19817Y25107D01*
X21178Y26468D01*
X22430D01*
Y28055D01*
X22630Y28472D01*
X22630Y28745D01*
Y29352D01*
X21500D01*
X20370D01*
Y28472D01*
X20570Y28055D01*
Y27544D01*
X17672Y24645D01*
X17466Y24645D01*
X16389Y25721D01*
X16277Y25768D01*
X16376Y26268D01*
X17730D01*
Y27855D01*
X17930Y28272D01*
X17930Y28545D01*
Y29152D01*
X16800D01*
X15670D01*
Y28272D01*
X15490Y27847D01*
X14598D01*
X14168Y27669D01*
X13963Y27628D01*
X13807Y27524D01*
X13087D01*
Y32682D01*
X12949D01*
Y37362D01*
X14142Y38555D01*
X14326Y38591D01*
X14590Y38768D01*
X14767Y39033D01*
X14829Y39345D01*
X14767Y39657D01*
X14590Y39922D01*
X14326Y40099D01*
X14014Y40161D01*
X13701Y40099D01*
X13437Y39922D01*
X13260Y39657D01*
X13223Y39473D01*
X11938Y38188D01*
X11483Y38313D01*
X11438Y38341D01*
Y39646D01*
X11384Y39919D01*
X11229Y40150D01*
X10083Y41297D01*
X10069Y41367D01*
X9892Y41632D01*
X9627Y41809D01*
X9315Y41871D01*
X9003Y41809D01*
X8738Y41632D01*
X8562Y41367D01*
X8499Y41055D01*
X8562Y40743D01*
X8738Y40478D01*
X9003Y40301D01*
X9073Y40288D01*
X10011Y39350D01*
Y32682D01*
X277D01*
X277Y32682D01*
X55Y33182D01*
X154Y33329D01*
X228Y33700D01*
X154Y34071D01*
X-56Y34385D01*
X-370Y34595D01*
X-741Y34669D01*
X-1112Y34595D01*
X-1426Y34385D01*
X-1636Y34071D01*
X-1710Y33700D01*
X-1636Y33329D01*
X-1426Y33015D01*
X-1390Y32991D01*
Y32278D01*
X-1890Y32127D01*
X-1923Y32176D01*
X-2188Y32353D01*
X-2500Y32415D01*
X-2812Y32353D01*
X-2951Y32405D01*
X-3196Y32939D01*
X-3133Y33251D01*
Y33514D01*
X-2256Y33669D01*
X-3112Y38524D01*
X-5642Y38078D01*
X-4918Y33974D01*
X-4989Y33911D01*
X-5531Y34102D01*
X-6214Y37977D01*
X-8744Y37531D01*
X-8472Y35991D01*
X-8794Y35608D01*
X-13317D01*
X-13361Y36108D01*
X-9793Y36737D01*
X-11060Y43919D01*
X-16303Y42995D01*
X-15037Y35813D01*
X-14607Y35888D01*
X-14417Y35414D01*
X-14484Y35369D01*
X-14484Y35369D01*
X-17877Y31977D01*
X-18054Y31712D01*
X-18116Y31400D01*
X-18116Y31400D01*
Y30778D01*
X-18514Y30632D01*
X-18616Y30612D01*
X-18864Y30778D01*
X-19176Y30840D01*
X-19488Y30778D01*
X-19725Y30620D01*
X-34176D01*
X-34597Y30445D01*
X-35767Y29275D01*
X-36143Y29606D01*
X-35806Y30045D01*
X-33051Y33051D01*
X-30045Y35806D01*
X-26810Y38289D01*
X-23371Y40479D01*
X-19754Y42362D01*
X-15987Y43923D01*
X-12098Y45149D01*
X-8117Y46032D01*
X-4074Y46564D01*
X0Y46742D01*
X1529Y46675D01*
D02*
G37*
G36*
X35136Y19639D02*
Y16563D01*
X34928Y16149D01*
X34655Y16149D01*
X34048D01*
Y15019D01*
X33798D01*
Y14769D01*
X32668D01*
Y14249D01*
X32668Y13889D01*
X32668Y13389D01*
Y12869D01*
X33798D01*
Y12369D01*
X32668D01*
Y11711D01*
X32668Y11489D01*
X32322Y11132D01*
X32254Y11119D01*
X31791Y10809D01*
X31481Y10346D01*
X31422Y10050D01*
X32800D01*
Y9800D01*
X33050D01*
Y8422D01*
X33289Y8470D01*
X33450Y8428D01*
X33789Y8247D01*
Y6653D01*
X33450Y6472D01*
X33289Y6430D01*
X33050Y6478D01*
Y5100D01*
Y3722D01*
X33289Y3770D01*
X33450Y3728D01*
X33789Y3547D01*
Y-147D01*
X33450Y-328D01*
X33289Y-370D01*
X33050Y-322D01*
Y-1700D01*
Y-3078D01*
X33289Y-3030D01*
X33450Y-3072D01*
X33789Y-3253D01*
Y-5947D01*
X33450Y-6128D01*
X33289Y-6170D01*
X33050Y-6122D01*
Y-7500D01*
X32800D01*
Y-7750D01*
X31409D01*
X31406Y-7768D01*
X31033Y-8207D01*
X29802D01*
Y-8030D01*
X26448D01*
Y-7252D01*
X29802D01*
Y-5471D01*
X29199D01*
Y-3311D01*
X30886Y-1623D01*
X31055Y-1650D01*
X31396Y-1820D01*
X31481Y-2246D01*
X31791Y-2709D01*
X32254Y-3019D01*
X32550Y-3078D01*
Y-1700D01*
Y-322D01*
X32308Y-371D01*
X32092Y66D01*
Y3160D01*
X29170D01*
X29130Y3160D01*
X28670Y3257D01*
Y3360D01*
X27239D01*
Y1600D01*
Y-160D01*
X28670D01*
Y-57D01*
X29130Y40D01*
X29170Y40D01*
X29897D01*
Y-593D01*
X28189Y-2301D01*
X25629D01*
Y-1298D01*
X23848D01*
Y-4732D01*
X25629D01*
Y-3729D01*
X27771D01*
Y-5471D01*
X26368D01*
Y-5471D01*
X25999Y-5592D01*
X25534Y-5566D01*
Y-5566D01*
X25534Y-5566D01*
X21150D01*
Y-10200D01*
X20650D01*
Y-5566D01*
X16266D01*
Y-9471D01*
X15834Y-9712D01*
X15432Y-9479D01*
Y-8030D01*
X11998D01*
Y-9640D01*
X11458D01*
X11049Y-9231D01*
Y6300D01*
X10859Y6759D01*
X7990Y9628D01*
X8078Y10095D01*
X8136Y10189D01*
X8157Y10203D01*
X8715Y10131D01*
X8789Y10069D01*
X11781Y7077D01*
X12202Y6902D01*
X12770D01*
Y6568D01*
X14630D01*
Y6568D01*
X15130Y6728D01*
X15701Y6157D01*
Y4893D01*
X19254D01*
Y8052D01*
X15701D01*
X15701Y8052D01*
Y8052D01*
X15216Y8087D01*
X15202Y8093D01*
X14879D01*
X14830Y8572D01*
X14830Y8845D01*
Y9452D01*
X13700D01*
X12570D01*
X12570Y8679D01*
X12141Y8401D01*
X10007Y10535D01*
X10033Y10642D01*
X10604Y10862D01*
X10610Y10858D01*
X10750Y10830D01*
Y11800D01*
X11000D01*
Y12050D01*
X11970D01*
X11942Y12190D01*
X11866Y12305D01*
X12128Y12805D01*
X20653D01*
X21010Y12449D01*
X20819Y11989D01*
X20819D01*
Y8830D01*
X24372D01*
Y9033D01*
X24514Y9092D01*
X25068Y8805D01*
X25184Y8456D01*
X25170Y8428D01*
X25170Y8155D01*
Y7548D01*
X27430D01*
Y8428D01*
X27230Y8845D01*
Y10432D01*
X25370D01*
X25370Y10432D01*
Y10432D01*
X25011Y10731D01*
X24912Y10830D01*
X24491Y11005D01*
X24372D01*
Y11989D01*
X23073D01*
X23017Y12125D01*
X21321Y13821D01*
X20900Y13995D01*
X12047D01*
X11320Y14722D01*
Y18016D01*
X12165D01*
X13401Y16781D01*
Y15818D01*
X13296Y15662D01*
X13234Y15350D01*
X13296Y15038D01*
X13473Y14773D01*
X13738Y14596D01*
X14050Y14534D01*
X14362Y14596D01*
X14627Y14773D01*
X14804Y15038D01*
X14870Y15173D01*
X15370Y15165D01*
Y15165D01*
X17230D01*
Y16753D01*
X17430Y17170D01*
Y17351D01*
X17697Y17487D01*
X17930Y17545D01*
X18210Y17358D01*
X18350Y17330D01*
Y18300D01*
Y19270D01*
X18210Y19242D01*
X17930Y19055D01*
X17697Y19113D01*
X17430Y19249D01*
Y19430D01*
X16550D01*
Y18300D01*
X16300D01*
Y18050D01*
X15170D01*
Y17890D01*
X14695Y17495D01*
X14509Y17509D01*
X13087Y18932D01*
Y20216D01*
X13104Y20242D01*
X13170Y20576D01*
X13104Y20909D01*
X13087Y20935D01*
Y21488D01*
X14714D01*
Y21220D01*
X18254Y21220D01*
X18680Y20800D01*
X18758Y20410D01*
X18979Y20079D01*
X19310Y19858D01*
X19450Y19830D01*
Y20800D01*
X19950D01*
Y19830D01*
X20090Y19858D01*
X20421Y20079D01*
X20642Y20410D01*
X20653Y20466D01*
X21179Y20579D01*
X21510Y20358D01*
X21650Y20330D01*
Y21300D01*
Y22270D01*
X21510Y22242D01*
X21179Y22021D01*
X21172Y22011D01*
X20541Y21964D01*
X20472Y22041D01*
X20488Y22125D01*
X20447Y22333D01*
X20725Y22833D01*
X31941D01*
X35136Y19639D01*
D02*
G37*
G36*
X3751Y10800D02*
X3941Y10341D01*
X4428Y9854D01*
X4423Y9842D01*
X4133Y9441D01*
X3950Y9478D01*
Y8350D01*
X5078D01*
X5041Y8533D01*
X5442Y8823D01*
X5454Y8828D01*
X7650Y6631D01*
Y1520D01*
X7414Y1443D01*
X7151Y1437D01*
X6985Y1685D01*
X6671Y1895D01*
X6300Y1969D01*
X5929Y1895D01*
X5811Y1816D01*
X4368D01*
Y2725D01*
X5428D01*
Y6475D01*
X4688D01*
X4536Y6975D01*
X4709Y7091D01*
X5019Y7554D01*
X5078Y7850D01*
X2322D01*
X2381Y7554D01*
X2691Y7091D01*
X2864Y6975D01*
X2712Y6475D01*
X1678D01*
Y2725D01*
X2737D01*
Y1000D01*
Y-6109D01*
X1053Y-7794D01*
X553Y-7587D01*
X553Y-7538D01*
X553D01*
X553Y-7514D01*
Y-5911D01*
X258D01*
Y-4182D01*
X663Y-4101D01*
X1226Y-3726D01*
X1601Y-3163D01*
X1733Y-2500D01*
X1601Y-1837D01*
X1226Y-1274D01*
X663Y-899D01*
X0Y-767D01*
X-663Y-899D01*
X-1226Y-1274D01*
X-1601Y-1837D01*
X-1733Y-2500D01*
X-1601Y-3163D01*
X-1226Y-3726D01*
X-933Y-3921D01*
Y-5911D01*
X-1228D01*
Y-7889D01*
X178Y-7889D01*
X202D01*
X202D01*
X250Y-7889D01*
X458Y-8389D01*
X-807Y-9653D01*
X-984Y-9918D01*
X-1046Y-10230D01*
X-1341Y-10619D01*
X-1613D01*
Y-13581D01*
X-1046D01*
Y-14840D01*
X-1792D01*
Y-17960D01*
X-1046D01*
Y-19040D01*
X-1792D01*
Y-22160D01*
X1130D01*
X1170Y-22160D01*
X1630Y-22257D01*
Y-22360D01*
X3061D01*
Y-20600D01*
Y-18840D01*
X1630D01*
Y-18943D01*
X1170Y-19040D01*
X1130Y-19040D01*
X586D01*
Y-17960D01*
X1130D01*
X1170Y-17960D01*
X1630Y-18057D01*
Y-18160D01*
X3061D01*
Y-16400D01*
Y-14640D01*
X1630D01*
Y-14743D01*
X1170Y-14840D01*
X1130Y-14840D01*
X586D01*
Y-13581D01*
X1153D01*
Y-10619D01*
X1153D01*
X1035Y-10119D01*
X4129Y-7024D01*
X4129Y-7024D01*
X4306Y-6759D01*
X4368Y-6447D01*
X4368Y-6447D01*
Y-3978D01*
X4868Y-3826D01*
X4991Y-4009D01*
X5454Y-4319D01*
X5750Y-4378D01*
Y-3000D01*
X6250D01*
Y-4378D01*
X6546Y-4319D01*
X7009Y-4009D01*
X7151Y-3798D01*
X7650Y-3950D01*
Y-9808D01*
X6740D01*
Y-12730D01*
X6740Y-12770D01*
X6643Y-13230D01*
X6540D01*
Y-14661D01*
X8300D01*
X10060D01*
Y-13230D01*
X9957D01*
X9860Y-12770D01*
X9860Y-12730D01*
Y-12129D01*
X11998D01*
Y-12370D01*
X15083D01*
Y-13148D01*
X11998D01*
Y-14929D01*
X15083D01*
Y-21132D01*
X15273Y-21591D01*
X16241Y-22559D01*
X16700Y-22749D01*
X17808D01*
Y-23660D01*
X20730D01*
X20770Y-23660D01*
X21230Y-23757D01*
Y-23860D01*
X22661D01*
Y-22100D01*
Y-20340D01*
X21230D01*
Y-20443D01*
X20770Y-20540D01*
X20770D01*
X20270Y-20444D01*
Y-19102D01*
X20511D01*
Y-15748D01*
X21089D01*
Y-17135D01*
X22179D01*
X23270D01*
Y-15748D01*
X23848D01*
Y-19102D01*
X25629D01*
Y-15672D01*
X25828Y-15539D01*
X26239Y-15128D01*
X26372Y-14929D01*
X29802D01*
Y-13148D01*
X26448D01*
Y-12370D01*
X29802D01*
Y-12370D01*
X30290Y-12399D01*
X30386Y-12496D01*
Y-27204D01*
X28304Y-29286D01*
X26828D01*
Y-28125D01*
X23078D01*
Y-31875D01*
X26828D01*
Y-30714D01*
X28600D01*
X28873Y-30659D01*
X29105Y-30505D01*
X31605Y-28005D01*
X31759Y-27773D01*
X31786Y-27638D01*
X32286Y-27687D01*
Y-30004D01*
X27704Y-34586D01*
X26928D01*
Y-33425D01*
X23178D01*
Y-37175D01*
X26928D01*
Y-36014D01*
X28000D01*
X28273Y-35959D01*
X28505Y-35805D01*
X33505Y-30805D01*
X33659Y-30573D01*
X33714Y-30300D01*
Y-10600D01*
X33659Y-10327D01*
X33505Y-10095D01*
X32810Y-9400D01*
X32978Y-8954D01*
X33354Y-8897D01*
X33789Y-9185D01*
Y-9185D01*
X35493D01*
X35774Y-9643D01*
X35775Y-9685D01*
X35722Y-9950D01*
X38478D01*
X38425Y-9685D01*
X38425Y-9643D01*
X38707Y-9185D01*
X41951Y-9185D01*
Y-9685D01*
X42061D01*
X42197Y-9850D01*
X43800D01*
Y-10100D01*
X44050D01*
Y-11478D01*
X44346Y-11419D01*
X44809Y-11109D01*
X44879Y-11005D01*
X45347Y-11205D01*
X45149Y-12098D01*
X43923Y-15987D01*
X43376Y-17306D01*
X42896Y-17160D01*
X42927Y-17000D01*
X42819Y-16454D01*
X42509Y-15991D01*
X42046Y-15681D01*
X41750Y-15622D01*
Y-17000D01*
Y-18378D01*
X42046Y-18319D01*
X42509Y-18009D01*
X42600Y-17874D01*
X43043Y-18111D01*
X42362Y-19754D01*
X40479Y-23371D01*
X39804Y-24431D01*
X39332Y-24241D01*
X39340Y-24200D01*
X39177Y-23381D01*
X38713Y-22686D01*
X38019Y-22223D01*
X37200Y-22060D01*
X36381Y-22223D01*
X35686Y-22686D01*
X35223Y-23381D01*
X35060Y-24200D01*
X35223Y-25019D01*
X35686Y-25714D01*
X36381Y-26177D01*
X37200Y-26340D01*
X38019Y-26177D01*
X38158Y-26085D01*
X38523Y-26442D01*
X38289Y-26810D01*
X35806Y-30045D01*
X33051Y-33051D01*
X30045Y-35806D01*
X26810Y-38289D01*
X23371Y-40479D01*
X21523Y-41442D01*
X21279Y-41263D01*
X21132Y-41082D01*
X21178Y-40850D01*
X18422D01*
X18481Y-41146D01*
X18791Y-41609D01*
X19254Y-41919D01*
X19433Y-41954D01*
X19484Y-42474D01*
X16158Y-43852D01*
X15905Y-43415D01*
X16107Y-43261D01*
X16542Y-42694D01*
X16815Y-42035D01*
X16908Y-41327D01*
Y-38669D01*
X16815Y-37962D01*
X16542Y-37302D01*
X16107Y-36735D01*
X15818Y-36514D01*
X15988Y-36014D01*
X17272D01*
Y-37175D01*
X21022D01*
Y-33425D01*
X17338D01*
X17032Y-33025D01*
X18182Y-31875D01*
X20922D01*
Y-28125D01*
X17172D01*
Y-30865D01*
X14852Y-33186D01*
X796D01*
X714Y-33104D01*
Y-32285D01*
X1067Y-31932D01*
X1472D01*
X1587Y-31932D01*
X3414D01*
X3831Y-32132D01*
X4064Y-32132D01*
X4868D01*
Y-28974D01*
Y-25817D01*
X3831D01*
X3414Y-26017D01*
X1587D01*
X1472Y-26017D01*
X1087D01*
X972Y-26017D01*
X-1087D01*
Y-26017D01*
X-1472D01*
Y-26017D01*
X-3531D01*
X-3647Y-26017D01*
X-3949Y-26017D01*
X-4302Y-25663D01*
Y-24756D01*
X-3393Y-23847D01*
X-3216Y-23582D01*
X-3154Y-23270D01*
X-3154Y-23270D01*
Y-13581D01*
X-2587D01*
Y-10619D01*
X-5184D01*
X-5353Y-10619D01*
X-5684Y-10256D01*
Y-8538D01*
X-4862Y-7716D01*
X-3591D01*
Y-7889D01*
X-1809D01*
Y-5911D01*
X-3591D01*
Y-6084D01*
X-5200D01*
X-5200Y-6084D01*
X-5512Y-6146D01*
X-5777Y-6323D01*
X-7077Y-7623D01*
X-7254Y-7888D01*
X-7316Y-8200D01*
X-7316Y-8200D01*
Y-15808D01*
X-8060D01*
Y-16473D01*
X-8640D01*
Y-15808D01*
X-10527D01*
X-12684Y-13651D01*
Y-11900D01*
X-12746Y-11588D01*
X-12923Y-11323D01*
X-12923Y-11323D01*
X-13023Y-11223D01*
X-13288Y-11046D01*
X-13600Y-10984D01*
X-13600Y-10984D01*
X-16362D01*
X-17210Y-10137D01*
Y-4506D01*
X-16811Y-4236D01*
X-16710Y-4214D01*
X-16450Y-4265D01*
X-15525D01*
X-15525Y-4265D01*
X-15213Y-4203D01*
X-14948Y-4026D01*
X-14775Y-3853D01*
X-14559Y-3878D01*
X-14203Y-3988D01*
X-14077Y-4177D01*
X-13812Y-4354D01*
X-13500Y-4416D01*
X-13188Y-4354D01*
X-12951Y-4195D01*
X-12372D01*
Y-4489D01*
X-10591D01*
Y-2954D01*
X-10300Y-2787D01*
X-10009Y-2954D01*
Y-4489D01*
X-9916D01*
Y-10202D01*
X-9965Y-10235D01*
X-10230Y-10632D01*
X-10323Y-11100D01*
X-10230Y-11568D01*
X-9965Y-11965D01*
X-9568Y-12230D01*
X-9100Y-12324D01*
X-8632Y-12230D01*
X-8235Y-11965D01*
X-7970Y-11568D01*
X-7876Y-11100D01*
X-7970Y-10632D01*
X-8235Y-10235D01*
X-8284Y-10202D01*
Y-4489D01*
X-8228D01*
X-8228Y-2511D01*
X-7809Y-2316D01*
X-6700D01*
X-6700Y-2316D01*
X-6388Y-2254D01*
X-6123Y-2077D01*
X-4644Y-598D01*
X-4644Y-598D01*
X-4467Y-333D01*
X-4405Y-21D01*
Y2299D01*
X-4228Y2725D01*
X-478D01*
Y6475D01*
X-4228D01*
Y5416D01*
X-6640D01*
Y6192D01*
X-9760D01*
Y3230D01*
X-9760D01*
X-9852Y2793D01*
X-9904Y2770D01*
X-9960D01*
Y2770D01*
X-10458Y2773D01*
X-10611Y2937D01*
Y4672D01*
X-12589D01*
Y4431D01*
X-13419D01*
X-13592Y4359D01*
X-13875Y4783D01*
X-11353Y7305D01*
X-600D01*
X-179Y7479D01*
X1733Y9391D01*
X2012Y9446D01*
X2277Y9623D01*
X2454Y9888D01*
X2516Y10200D01*
X2454Y10512D01*
X2277Y10777D01*
X2177Y10844D01*
Y11023D01*
X2354Y11288D01*
X2416Y11600D01*
X2354Y11912D01*
X2177Y12177D01*
X1912Y12354D01*
X1600Y12416D01*
X1288Y12354D01*
X1023Y12177D01*
X846Y11912D01*
X791Y11633D01*
X295Y11137D01*
X-205Y11344D01*
Y16387D01*
X-63Y16473D01*
X464Y16208D01*
X483Y16110D01*
X693Y15796D01*
X1007Y15586D01*
X1378Y15513D01*
X1749Y15586D01*
X2063Y15796D01*
X2273Y16110D01*
X2347Y16481D01*
X2273Y16852D01*
X2063Y17166D01*
X2300Y17609D01*
X2708Y18016D01*
X3751D01*
Y10800D01*
D02*
G37*
%LPC*%
G36*
X-23550Y28270D02*
Y27550D01*
X-22830D01*
X-22858Y27690D01*
X-23079Y28021D01*
X-23410Y28242D01*
X-23550Y28270D01*
D02*
G37*
G36*
X-24050D02*
X-24190Y28242D01*
X-24521Y28021D01*
X-24742Y27690D01*
X-24770Y27550D01*
X-24050D01*
Y28270D01*
D02*
G37*
G36*
X-22830Y27050D02*
X-23550D01*
Y26330D01*
X-23410Y26358D01*
X-23079Y26579D01*
X-22858Y26910D01*
X-22830Y27050D01*
D02*
G37*
G36*
X-24050D02*
X-24770D01*
X-24742Y26910D01*
X-24521Y26579D01*
X-24190Y26358D01*
X-24050Y26330D01*
Y27050D01*
D02*
G37*
G36*
X-33452Y26050D02*
X-34332D01*
Y25170D01*
X-33452D01*
Y26050D01*
D02*
G37*
G36*
X-19750Y17350D02*
X-20878D01*
X-20819Y17054D01*
X-20509Y16591D01*
X-20046Y16281D01*
X-19750Y16222D01*
Y17350D01*
D02*
G37*
G36*
X-21911Y16072D02*
X-22850D01*
Y15231D01*
X-21911D01*
Y16072D01*
D02*
G37*
G36*
X-41922Y14750D02*
X-43050D01*
Y13622D01*
X-42754Y13681D01*
X-42291Y13991D01*
X-41981Y14454D01*
X-41922Y14750D01*
D02*
G37*
G36*
X-16950Y13250D02*
X-18078D01*
X-18019Y12954D01*
X-17709Y12491D01*
X-17246Y12181D01*
X-16950Y12122D01*
Y13250D01*
D02*
G37*
G36*
X-30800Y12016D02*
X-31112Y11954D01*
X-31377Y11777D01*
X-31554Y11512D01*
X-31616Y11200D01*
X-31554Y10888D01*
X-31377Y10623D01*
X-31112Y10446D01*
X-30800Y10384D01*
X-30488Y10446D01*
X-30223Y10623D01*
X-30046Y10888D01*
X-29984Y11200D01*
X-30046Y11512D01*
X-30223Y11777D01*
X-30488Y11954D01*
X-30800Y12016D01*
D02*
G37*
G36*
X-23152Y10730D02*
X-24032D01*
Y9850D01*
X-23152D01*
Y10730D01*
D02*
G37*
G36*
X-36050Y10478D02*
Y9350D01*
X-34922D01*
X-34981Y9646D01*
X-35291Y10109D01*
X-35754Y10419D01*
X-36050Y10478D01*
D02*
G37*
G36*
X-36550D02*
X-36846Y10419D01*
X-37309Y10109D01*
X-37619Y9646D01*
X-37678Y9350D01*
X-36550D01*
Y10478D01*
D02*
G37*
G36*
X-23152Y9350D02*
X-24032D01*
Y8470D01*
X-23152D01*
Y9350D01*
D02*
G37*
G36*
X-34922Y8850D02*
X-36050D01*
Y7722D01*
X-35754Y7781D01*
X-35291Y8091D01*
X-34981Y8554D01*
X-34922Y8850D01*
D02*
G37*
G36*
X-36550D02*
X-37678D01*
X-37619Y8554D01*
X-37309Y8091D01*
X-36846Y7781D01*
X-36550Y7722D01*
Y8850D01*
D02*
G37*
G36*
X-21772Y10730D02*
X-22045Y10730D01*
X-22652D01*
Y9600D01*
Y8470D01*
X-21772D01*
X-21355Y8670D01*
X-19768D01*
X-19549Y8260D01*
Y6468D01*
X-19654Y6312D01*
X-19716Y6000D01*
X-19654Y5688D01*
X-19477Y5423D01*
X-19212Y5246D01*
X-18900Y5184D01*
X-18588Y5246D01*
X-18323Y5423D01*
X-18146Y5688D01*
X-18084Y6000D01*
X-18146Y6312D01*
X-18251Y6468D01*
Y9300D01*
X-18441Y9759D01*
X-18741Y10059D01*
X-19200Y10249D01*
X-19768D01*
Y10530D01*
X-21355D01*
X-21772Y10730D01*
D02*
G37*
G36*
X-26150Y5772D02*
Y4931D01*
X-25211D01*
Y5772D01*
X-26150D01*
D02*
G37*
G36*
X-29050D02*
X-29989D01*
Y4931D01*
X-29050D01*
Y5772D01*
D02*
G37*
G36*
X-22891Y5723D02*
Y4850D01*
X-22018D01*
X-22058Y5049D01*
X-22312Y5429D01*
X-22692Y5683D01*
X-22891Y5723D01*
D02*
G37*
G36*
X-23391D02*
X-23590Y5683D01*
X-23970Y5429D01*
X-24224Y5049D01*
X-24264Y4850D01*
X-23391D01*
Y5723D01*
D02*
G37*
G36*
X-32413Y6399D02*
X-36207D01*
Y4673D01*
X-32413D01*
Y6399D01*
D02*
G37*
G36*
Y4173D02*
X-36207D01*
Y2446D01*
X-32413D01*
Y4173D01*
D02*
G37*
G36*
X-36207Y-3246D02*
Y-4973D01*
X-32413D01*
Y-3246D01*
X-36207D01*
D02*
G37*
G36*
X-32413Y-5473D02*
X-36207D01*
Y-7199D01*
X-32413D01*
Y-5473D01*
D02*
G37*
G36*
X-36707D02*
X-40500D01*
Y-7199D01*
X-37751D01*
X-37702Y-7699D01*
X-37790Y-7717D01*
X-38170Y-7971D01*
X-38424Y-8351D01*
X-38464Y-8550D01*
X-36218D01*
X-36258Y-8351D01*
X-36512Y-7971D01*
X-36892Y-7717D01*
X-36980Y-7699D01*
X-36931Y-7199D01*
X-36707D01*
Y-5473D01*
D02*
G37*
G36*
X-36218Y-9050D02*
X-37091D01*
Y-9923D01*
X-36892Y-9883D01*
X-36512Y-9629D01*
X-36258Y-9249D01*
X-36218Y-9050D01*
D02*
G37*
G36*
X-37591D02*
X-38464D01*
X-38424Y-9249D01*
X-38170Y-9629D01*
X-37790Y-9883D01*
X-37591Y-9923D01*
Y-9050D01*
D02*
G37*
G36*
X-16150Y-14622D02*
Y-15750D01*
X-15022D01*
X-15081Y-15454D01*
X-15391Y-14991D01*
X-15854Y-14681D01*
X-16150Y-14622D01*
D02*
G37*
G36*
X-16650D02*
X-16946Y-14681D01*
X-17409Y-14991D01*
X-17719Y-15454D01*
X-17778Y-15750D01*
X-16650D01*
Y-14622D01*
D02*
G37*
G36*
X-30650Y-15422D02*
Y-16550D01*
X-29522D01*
X-29581Y-16254D01*
X-29891Y-15791D01*
X-30354Y-15481D01*
X-30650Y-15422D01*
D02*
G37*
G36*
X-31150D02*
X-31446Y-15481D01*
X-31909Y-15791D01*
X-32219Y-16254D01*
X-32278Y-16550D01*
X-31150D01*
Y-15422D01*
D02*
G37*
G36*
X-40700Y-12560D02*
X-41519Y-12723D01*
X-42213Y-13186D01*
X-42677Y-13881D01*
X-42840Y-14700D01*
X-42677Y-15519D01*
X-42213Y-16214D01*
X-41519Y-16677D01*
X-40700Y-16840D01*
X-39881Y-16677D01*
X-39186Y-16214D01*
X-38723Y-15519D01*
X-38560Y-14700D01*
X-38723Y-13881D01*
X-39186Y-13186D01*
X-39881Y-12723D01*
X-40700Y-12560D01*
D02*
G37*
G36*
X-15022Y-16250D02*
X-16150D01*
Y-17378D01*
X-15854Y-17319D01*
X-15391Y-17009D01*
X-15081Y-16546D01*
X-15022Y-16250D01*
D02*
G37*
G36*
X-16650D02*
X-17778D01*
X-17719Y-16546D01*
X-17409Y-17009D01*
X-16946Y-17319D01*
X-16650Y-17378D01*
Y-16250D01*
D02*
G37*
G36*
X-29522Y-17050D02*
X-30650D01*
Y-18178D01*
X-30354Y-18119D01*
X-29891Y-17809D01*
X-29581Y-17346D01*
X-29522Y-17050D01*
D02*
G37*
G36*
X-31150D02*
X-32278D01*
X-32219Y-17346D01*
X-31909Y-17809D01*
X-31446Y-18119D01*
X-31150Y-18178D01*
Y-17050D01*
D02*
G37*
G36*
X-13450Y-19830D02*
Y-20550D01*
X-12730D01*
X-12758Y-20410D01*
X-12979Y-20079D01*
X-13310Y-19858D01*
X-13450Y-19830D01*
D02*
G37*
G36*
X-13950D02*
X-14090Y-19858D01*
X-14421Y-20079D01*
X-14642Y-20410D01*
X-14670Y-20550D01*
X-13950D01*
Y-19830D01*
D02*
G37*
G36*
X-12730Y-21050D02*
X-13450D01*
Y-21770D01*
X-13310Y-21742D01*
X-12979Y-21521D01*
X-12758Y-21190D01*
X-12730Y-21050D01*
D02*
G37*
G36*
X-13950D02*
X-14670D01*
X-14642Y-21190D01*
X-14421Y-21521D01*
X-14090Y-21742D01*
X-13950Y-21770D01*
Y-21050D01*
D02*
G37*
G36*
X-10450Y-21161D02*
X-11960D01*
Y-22592D01*
X-10450D01*
Y-21161D01*
D02*
G37*
G36*
X-34994Y-15007D02*
X-40968Y-19190D01*
X-37914Y-23551D01*
X-31940Y-19368D01*
X-34994Y-15007D01*
D02*
G37*
G36*
X-37350Y-24122D02*
Y-25250D01*
X-36222D01*
X-36281Y-24954D01*
X-36591Y-24491D01*
X-37054Y-24181D01*
X-37350Y-24122D01*
D02*
G37*
G36*
X-16040Y-30261D02*
X-17550D01*
Y-31692D01*
X-16040D01*
Y-30261D01*
D02*
G37*
G36*
X-18050D02*
X-19560D01*
Y-31692D01*
X-18050D01*
Y-30261D01*
D02*
G37*
G36*
X-9843Y-25306D02*
X-10563Y-25401D01*
X-11235Y-25679D01*
X-11811Y-26122D01*
X-12254Y-26698D01*
X-12532Y-27370D01*
X-12627Y-28091D01*
Y-29075D01*
X-12532Y-29796D01*
X-12254Y-30467D01*
X-11811Y-31044D01*
X-11235Y-31486D01*
X-10563Y-31764D01*
X-9843Y-31859D01*
X-9122Y-31764D01*
X-8450Y-31486D01*
X-7874Y-31044D01*
X-7431Y-30467D01*
X-7153Y-29796D01*
X-7058Y-29075D01*
Y-28091D01*
X-7153Y-27370D01*
X-7431Y-26698D01*
X-7874Y-26122D01*
X-8450Y-25679D01*
X-9122Y-25401D01*
X-9843Y-25306D01*
D02*
G37*
G36*
X-19150Y-32530D02*
Y-33250D01*
X-18430D01*
X-18458Y-33110D01*
X-18679Y-32779D01*
X-19010Y-32558D01*
X-19150Y-32530D01*
D02*
G37*
G36*
X-19650D02*
X-19790Y-32558D01*
X-20121Y-32779D01*
X-20342Y-33110D01*
X-20370Y-33250D01*
X-19650D01*
Y-32530D01*
D02*
G37*
G36*
X-18430Y-33750D02*
X-19150D01*
Y-34470D01*
X-19010Y-34442D01*
X-18679Y-34221D01*
X-18458Y-33890D01*
X-18430Y-33750D01*
D02*
G37*
G36*
X-19650D02*
X-20370D01*
X-20342Y-33890D01*
X-20121Y-34221D01*
X-19790Y-34442D01*
X-19650Y-34470D01*
Y-33750D01*
D02*
G37*
G36*
X-27316Y-25972D02*
X-33290Y-30155D01*
X-30236Y-34516D01*
X-24262Y-30333D01*
X-27316Y-25972D01*
D02*
G37*
G36*
X-22250Y-37522D02*
Y-38650D01*
X-21122D01*
X-21181Y-38354D01*
X-21491Y-37891D01*
X-21954Y-37581D01*
X-22250Y-37522D01*
D02*
G37*
G36*
X-22750D02*
X-23046Y-37581D01*
X-23509Y-37891D01*
X-23819Y-38354D01*
X-23878Y-38650D01*
X-22750D01*
Y-37522D01*
D02*
G37*
G36*
X-6950Y45478D02*
Y44350D01*
X-5822D01*
X-5881Y44646D01*
X-6191Y45109D01*
X-6654Y45419D01*
X-6950Y45478D01*
D02*
G37*
G36*
X-7450D02*
X-7746Y45419D01*
X-8209Y45109D01*
X-8519Y44646D01*
X-8578Y44350D01*
X-7450D01*
Y45478D01*
D02*
G37*
G36*
X-5822Y43850D02*
X-6950D01*
Y42722D01*
X-6654Y42781D01*
X-6191Y43091D01*
X-5881Y43554D01*
X-5822Y43850D01*
D02*
G37*
G36*
X-7450D02*
X-8578D01*
X-8519Y43554D01*
X-8209Y43091D01*
X-7746Y42781D01*
X-7450Y42722D01*
Y43850D01*
D02*
G37*
G36*
X14078Y43050D02*
X12950D01*
Y41922D01*
X13246Y41981D01*
X13709Y42291D01*
X14019Y42754D01*
X14078Y43050D01*
D02*
G37*
G36*
X12450D02*
X11322D01*
X11381Y42754D01*
X11691Y42291D01*
X12154Y41981D01*
X12450Y41922D01*
Y43050D01*
D02*
G37*
G36*
X-18850Y36878D02*
Y35750D01*
X-17722D01*
X-17781Y36046D01*
X-18091Y36509D01*
X-18554Y36819D01*
X-18850Y36878D01*
D02*
G37*
G36*
X-19350D02*
X-19646Y36819D01*
X-20109Y36509D01*
X-20419Y36046D01*
X-20478Y35750D01*
X-19350D01*
Y36878D01*
D02*
G37*
G36*
X24100Y38440D02*
X23281Y38277D01*
X22587Y37813D01*
X22123Y37119D01*
X21960Y36300D01*
X22123Y35481D01*
X22587Y34786D01*
X23281Y34323D01*
X24100Y34160D01*
X24919Y34323D01*
X25613Y34786D01*
X26077Y35481D01*
X26240Y36300D01*
X26077Y37119D01*
X25613Y37813D01*
X24919Y38277D01*
X24100Y38440D01*
D02*
G37*
G36*
X18850Y34870D02*
Y34150D01*
X19570D01*
X19542Y34290D01*
X19321Y34621D01*
X18990Y34842D01*
X18850Y34870D01*
D02*
G37*
G36*
X18350D02*
X18210Y34842D01*
X17879Y34621D01*
X17658Y34290D01*
X17630Y34150D01*
X18350D01*
Y34870D01*
D02*
G37*
G36*
X-17722Y35250D02*
X-18850D01*
Y34122D01*
X-18554Y34181D01*
X-18091Y34491D01*
X-17781Y34954D01*
X-17722Y35250D01*
D02*
G37*
G36*
X-19350D02*
X-20478D01*
X-20419Y34954D01*
X-20109Y34491D01*
X-19646Y34181D01*
X-19350Y34122D01*
Y35250D01*
D02*
G37*
G36*
X-23050Y34778D02*
Y33650D01*
X-21922D01*
X-21981Y33946D01*
X-22291Y34409D01*
X-22754Y34719D01*
X-23050Y34778D01*
D02*
G37*
G36*
X-23550D02*
X-23846Y34719D01*
X-24309Y34409D01*
X-24619Y33946D01*
X-24678Y33650D01*
X-23550D01*
Y34778D01*
D02*
G37*
G36*
X19570Y33650D02*
X18850D01*
Y32930D01*
X18990Y32958D01*
X19321Y33179D01*
X19542Y33510D01*
X19570Y33650D01*
D02*
G37*
G36*
X18350D02*
X17630D01*
X17658Y33510D01*
X17879Y33179D01*
X18210Y32958D01*
X18350Y32930D01*
Y33650D01*
D02*
G37*
G36*
X-21922Y33150D02*
X-23050D01*
Y32022D01*
X-22754Y32081D01*
X-22291Y32391D01*
X-21981Y32854D01*
X-21922Y33150D01*
D02*
G37*
G36*
X-23550D02*
X-24678D01*
X-24619Y32854D01*
X-24309Y32391D01*
X-23846Y32081D01*
X-23550Y32022D01*
Y33150D01*
D02*
G37*
G36*
X26050Y32678D02*
Y31550D01*
X27178D01*
X27119Y31846D01*
X26809Y32309D01*
X26346Y32619D01*
X26050Y32678D01*
D02*
G37*
G36*
X25550D02*
X25254Y32619D01*
X24791Y32309D01*
X24481Y31846D01*
X24422Y31550D01*
X25550D01*
Y32678D01*
D02*
G37*
G36*
X27178Y31050D02*
X26050D01*
Y29922D01*
X26346Y29981D01*
X26809Y30291D01*
X27119Y30754D01*
X27178Y31050D01*
D02*
G37*
G36*
X25550D02*
X24422D01*
X24481Y30754D01*
X24791Y30291D01*
X25254Y29981D01*
X25550Y29922D01*
Y31050D01*
D02*
G37*
G36*
X22630Y30732D02*
X21750D01*
Y29852D01*
X22630D01*
Y30732D01*
D02*
G37*
G36*
X21250D02*
X20370D01*
Y29852D01*
X21250D01*
Y30732D01*
D02*
G37*
G36*
X17930Y30532D02*
X17050D01*
Y29652D01*
X17930D01*
Y30532D01*
D02*
G37*
G36*
X16550D02*
X15670D01*
Y29652D01*
X16550D01*
Y30532D01*
D02*
G37*
G36*
X29950Y29278D02*
Y28150D01*
X31078D01*
X31019Y28446D01*
X30709Y28909D01*
X30246Y29219D01*
X29950Y29278D01*
D02*
G37*
G36*
X29450D02*
X29154Y29219D01*
X28691Y28909D01*
X28381Y28446D01*
X28322Y28150D01*
X29450D01*
Y29278D01*
D02*
G37*
G36*
X31078Y27650D02*
X29950D01*
Y26522D01*
X30246Y26581D01*
X30709Y26891D01*
X31019Y27354D01*
X31078Y27650D01*
D02*
G37*
G36*
X29450D02*
X28322D01*
X28381Y27354D01*
X28691Y26891D01*
X29154Y26581D01*
X29450Y26522D01*
Y27650D01*
D02*
G37*
G36*
X37650Y26278D02*
X37354Y26219D01*
X36891Y25909D01*
X36581Y25446D01*
X36522Y25150D01*
X37650D01*
Y26278D01*
D02*
G37*
G36*
Y24650D02*
X36522D01*
X36581Y24354D01*
X36891Y23891D01*
X37354Y23581D01*
X37650Y23522D01*
Y24650D01*
D02*
G37*
G36*
X40050Y21978D02*
X39754Y21919D01*
X39291Y21609D01*
X38981Y21146D01*
X38922Y20850D01*
X40050D01*
Y21978D01*
D02*
G37*
G36*
Y20350D02*
X38922D01*
X38981Y20054D01*
X39291Y19591D01*
X39754Y19281D01*
X40050Y19222D01*
Y20350D01*
D02*
G37*
G36*
X42050Y18178D02*
X41754Y18119D01*
X41291Y17809D01*
X40981Y17346D01*
X40922Y17050D01*
X42050D01*
Y18178D01*
D02*
G37*
G36*
X43550Y12878D02*
X43254Y12819D01*
X42791Y12509D01*
X42481Y12046D01*
X42422Y11750D01*
X43550D01*
Y12878D01*
D02*
G37*
G36*
X22150Y22270D02*
Y21550D01*
X22870D01*
X22842Y21690D01*
X22621Y22021D01*
X22290Y22242D01*
X22150Y22270D01*
D02*
G37*
G36*
X22870Y21050D02*
X22150D01*
Y20330D01*
X22290Y20358D01*
X22621Y20579D01*
X22842Y20910D01*
X22870Y21050D01*
D02*
G37*
G36*
X18850Y19270D02*
Y18550D01*
X19570D01*
X19542Y18690D01*
X19321Y19021D01*
X18990Y19242D01*
X18850Y19270D01*
D02*
G37*
G36*
X16050Y19430D02*
X15170D01*
Y18550D01*
X16050D01*
Y19430D01*
D02*
G37*
G36*
X19570Y18050D02*
X18850D01*
Y17330D01*
X18990Y17358D01*
X19321Y17579D01*
X19542Y17910D01*
X19570Y18050D01*
D02*
G37*
G36*
X24250Y17470D02*
Y16750D01*
X24970D01*
X24942Y16890D01*
X24721Y17221D01*
X24390Y17442D01*
X24250Y17470D01*
D02*
G37*
G36*
X23750D02*
X23610Y17442D01*
X23279Y17221D01*
X23058Y16890D01*
X23030Y16750D01*
X23750D01*
Y17470D01*
D02*
G37*
G36*
X24970Y16250D02*
X24250D01*
Y15530D01*
X24390Y15558D01*
X24721Y15779D01*
X24942Y16110D01*
X24970Y16250D01*
D02*
G37*
G36*
X23750D02*
X23030D01*
X23058Y16110D01*
X23279Y15779D01*
X23610Y15558D01*
X23750Y15530D01*
Y16250D01*
D02*
G37*
G36*
X33548Y16149D02*
X32668D01*
Y15269D01*
X33548D01*
Y16149D01*
D02*
G37*
G36*
X13950Y12170D02*
Y11200D01*
X13450D01*
Y12170D01*
X13310Y12142D01*
X12979Y11921D01*
X12817Y11678D01*
X12758Y11590D01*
X12679Y11218D01*
X12570Y10832D01*
X12570D01*
X12570Y10368D01*
Y9952D01*
X13700D01*
X14830D01*
Y10368D01*
X14830Y10832D01*
X14830D01*
X14721Y11218D01*
X14642Y11590D01*
X14583Y11678D01*
X14421Y11921D01*
X14090Y12142D01*
X13950Y12170D01*
D02*
G37*
G36*
X11970Y11550D02*
X11250D01*
Y10830D01*
X11390Y10858D01*
X11721Y11079D01*
X11942Y11410D01*
X11970Y11550D01*
D02*
G37*
G36*
X19454Y12189D02*
X17728D01*
Y10659D01*
X19454D01*
Y12189D01*
D02*
G37*
G36*
X17228D02*
X15501D01*
Y10659D01*
X17228D01*
Y12189D01*
D02*
G37*
G36*
X19454Y10159D02*
X17728D01*
Y8630D01*
X19454D01*
Y10159D01*
D02*
G37*
G36*
X17228D02*
X15501D01*
Y8630D01*
X17228D01*
Y10159D01*
D02*
G37*
G36*
X32550Y9550D02*
X31422D01*
X31481Y9254D01*
X31791Y8791D01*
X32254Y8481D01*
X32550Y8422D01*
Y9550D01*
D02*
G37*
G36*
X24572Y8252D02*
X22846D01*
Y6722D01*
X24572D01*
Y8252D01*
D02*
G37*
G36*
X22346D02*
X20619D01*
Y6722D01*
X22346D01*
Y8252D01*
D02*
G37*
G36*
X29750Y7778D02*
Y6650D01*
X30878D01*
X30819Y6946D01*
X30509Y7409D01*
X30046Y7719D01*
X29750Y7778D01*
D02*
G37*
G36*
X29250D02*
X28954Y7719D01*
X28491Y7409D01*
X28181Y6946D01*
X28122Y6650D01*
X29250D01*
Y7778D01*
D02*
G37*
G36*
X27430Y7048D02*
X26550D01*
Y6168D01*
X27430D01*
Y7048D01*
D02*
G37*
G36*
X26050D02*
X25170D01*
Y6168D01*
X26050D01*
Y7048D01*
D02*
G37*
G36*
X32550Y6478D02*
X32254Y6419D01*
X31791Y6109D01*
X31481Y5646D01*
X31422Y5350D01*
X32550D01*
Y6478D01*
D02*
G37*
G36*
X30878Y6150D02*
X29750D01*
Y5022D01*
X30046Y5081D01*
X30509Y5391D01*
X30819Y5854D01*
X30878Y6150D01*
D02*
G37*
G36*
X29250D02*
X28122D01*
X28181Y5854D01*
X28491Y5391D01*
X28954Y5081D01*
X29250Y5022D01*
Y6150D01*
D02*
G37*
G36*
X22346Y6222D02*
X20619D01*
Y4693D01*
X22346D01*
Y6222D01*
D02*
G37*
G36*
X13650Y5478D02*
Y4350D01*
X14778D01*
X14719Y4646D01*
X14409Y5109D01*
X13946Y5419D01*
X13650Y5478D01*
D02*
G37*
G36*
X13150D02*
X12854Y5419D01*
X12391Y5109D01*
X12081Y4646D01*
X12022Y4350D01*
X13150D01*
Y5478D01*
D02*
G37*
G36*
X32550Y4850D02*
X31422D01*
X31481Y4554D01*
X31791Y4091D01*
X32254Y3781D01*
X32550Y3722D01*
Y4850D01*
D02*
G37*
G36*
X14778Y3850D02*
X13650D01*
Y2722D01*
X13946Y2781D01*
X14409Y3091D01*
X14719Y3554D01*
X14778Y3850D01*
D02*
G37*
G36*
X13150D02*
X12022D01*
X12081Y3554D01*
X12391Y3091D01*
X12854Y2781D01*
X13150Y2722D01*
Y3850D01*
D02*
G37*
G36*
X24572Y6222D02*
X22846D01*
Y4693D01*
X22938D01*
X23205Y4193D01*
X23176Y4149D01*
X23116Y3850D01*
X23087Y3700D01*
X22644Y3360D01*
X21661D01*
Y1850D01*
X23092D01*
Y2541D01*
X23099Y2548D01*
X23592Y2763D01*
X23810Y2617D01*
X24009Y2577D01*
Y3700D01*
X24259D01*
Y3950D01*
X25382D01*
X25342Y4149D01*
X25088Y4529D01*
X24708Y4783D01*
X24572Y4810D01*
Y6222D01*
D02*
G37*
G36*
X25637Y3450D02*
Y3450D01*
X24509D01*
Y2577D01*
X24708Y2617D01*
X24808Y2684D01*
X25308Y2416D01*
Y1850D01*
X26739D01*
Y3360D01*
X25711D01*
X25637Y3450D01*
D02*
G37*
G36*
X21161Y3360D02*
X19730D01*
Y3257D01*
X19270Y3160D01*
Y3160D01*
X16308D01*
Y1816D01*
X14289D01*
X14171Y1895D01*
X13800Y1969D01*
X13429Y1895D01*
X13115Y1685D01*
X12905Y1371D01*
X12831Y1000D01*
X12905Y629D01*
X13115Y315D01*
X13429Y105D01*
X13800Y31D01*
X14171Y105D01*
X14289Y184D01*
X16308D01*
Y40D01*
X17007D01*
X17036Y-101D01*
X17212Y-366D01*
X17644Y-798D01*
X17437Y-1298D01*
X16171D01*
Y-4732D01*
X17952D01*
Y-1991D01*
X18413Y-1702D01*
X18730Y-1898D01*
Y-4732D01*
X20511D01*
Y-2644D01*
X20960Y-2450D01*
X21289Y-2719D01*
Y-4732D01*
X23070D01*
Y-1298D01*
X22196D01*
X21558Y-660D01*
X21765Y-160D01*
X23092D01*
Y1350D01*
X21411D01*
Y1600D01*
X21161D01*
Y3360D01*
D02*
G37*
G36*
X26739Y1350D02*
X25308D01*
Y-160D01*
X26739D01*
Y1350D01*
D02*
G37*
G36*
X13924Y-2892D02*
Y-3765D01*
X14797D01*
X14757Y-3566D01*
X14503Y-3186D01*
X14123Y-2932D01*
X13924Y-2892D01*
D02*
G37*
G36*
X13424D02*
X13225Y-2932D01*
X12845Y-3186D01*
X12591Y-3566D01*
X12551Y-3765D01*
X13424D01*
Y-2892D01*
D02*
G37*
G36*
X14797Y-4265D02*
X12551D01*
X12591Y-4464D01*
X12796Y-4771D01*
X12713Y-5060D01*
X12584Y-5271D01*
X11798D01*
Y-6111D01*
X13715D01*
X15632D01*
Y-5271D01*
X14764D01*
X14635Y-5060D01*
X14552Y-4771D01*
X14757Y-4464D01*
X14797Y-4265D01*
D02*
G37*
G36*
X32550Y-6122D02*
X32254Y-6181D01*
X31791Y-6491D01*
X31481Y-6954D01*
X31422Y-7250D01*
X32550D01*
Y-6122D01*
D02*
G37*
G36*
X15632Y-6611D02*
X13965D01*
Y-7452D01*
X15632D01*
Y-6611D01*
D02*
G37*
G36*
X13465D02*
X11798D01*
Y-7452D01*
X13465D01*
Y-6611D01*
D02*
G37*
G36*
X3450Y9478D02*
X3154Y9419D01*
X2691Y9109D01*
X2381Y8646D01*
X2322Y8350D01*
X3450D01*
Y9478D01*
D02*
G37*
G36*
X100Y1916D02*
X-212Y1854D01*
X-449Y1695D01*
X-2251D01*
X-2488Y1854D01*
X-2800Y1916D01*
X-3112Y1854D01*
X-3377Y1677D01*
X-3554Y1412D01*
X-3616Y1100D01*
X-3554Y788D01*
X-3377Y523D01*
X-3112Y346D01*
X-2800Y284D01*
X-2488Y346D01*
X-2251Y505D01*
X-449D01*
X-212Y346D01*
X100Y284D01*
X412Y346D01*
X677Y523D01*
X854Y788D01*
X916Y1100D01*
X854Y1412D01*
X677Y1677D01*
X412Y1854D01*
X100Y1916D01*
D02*
G37*
G36*
X3950Y-9222D02*
Y-10350D01*
X5078D01*
X5019Y-10054D01*
X4709Y-9591D01*
X4246Y-9281D01*
X3950Y-9222D01*
D02*
G37*
G36*
X3450D02*
X3154Y-9281D01*
X2691Y-9591D01*
X2381Y-10054D01*
X2322Y-10350D01*
X3450D01*
Y-9222D01*
D02*
G37*
G36*
X43550Y-10350D02*
X42422D01*
X42481Y-10646D01*
X42791Y-11109D01*
X43254Y-11419D01*
X43550Y-11478D01*
Y-10350D01*
D02*
G37*
G36*
X38478Y-10450D02*
X37350D01*
Y-11578D01*
X37646Y-11519D01*
X38109Y-11209D01*
X38419Y-10746D01*
X38478Y-10450D01*
D02*
G37*
G36*
X36850D02*
X35722D01*
X35781Y-10746D01*
X36091Y-11209D01*
X36554Y-11519D01*
X36850Y-11578D01*
Y-10450D01*
D02*
G37*
G36*
X5078Y-10850D02*
X3950D01*
Y-11978D01*
X4246Y-11919D01*
X4709Y-11609D01*
X5019Y-11146D01*
X5078Y-10850D01*
D02*
G37*
G36*
X3450D02*
X2322D01*
X2381Y-11146D01*
X2691Y-11609D01*
X3154Y-11919D01*
X3450Y-11978D01*
Y-10850D01*
D02*
G37*
G36*
X4992Y-14640D02*
X3561D01*
Y-16150D01*
X4992D01*
Y-14640D01*
D02*
G37*
G36*
X10060Y-15161D02*
X8550D01*
Y-16592D01*
X10060D01*
Y-15161D01*
D02*
G37*
G36*
X8050D02*
X6540D01*
Y-16592D01*
X8050D01*
Y-15161D01*
D02*
G37*
G36*
X41250Y-15622D02*
X40954Y-15681D01*
X40491Y-15991D01*
X40181Y-16454D01*
X40122Y-16750D01*
X41250D01*
Y-15622D01*
D02*
G37*
G36*
X4992Y-16650D02*
X3561D01*
Y-18160D01*
X4992D01*
Y-16650D01*
D02*
G37*
G36*
X41250Y-17250D02*
X40122D01*
X40181Y-17546D01*
X40491Y-18009D01*
X40954Y-18319D01*
X41250Y-18378D01*
Y-17250D01*
D02*
G37*
G36*
X23270Y-17635D02*
X22430D01*
Y-19302D01*
X23270D01*
Y-17635D01*
D02*
G37*
G36*
X21929D02*
X21089D01*
Y-19302D01*
X21929D01*
Y-17635D01*
D02*
G37*
G36*
X4992Y-18840D02*
X3561D01*
Y-20350D01*
X4992D01*
Y-18840D01*
D02*
G37*
G36*
X8250Y-19930D02*
Y-20650D01*
X8970D01*
X8942Y-20510D01*
X8721Y-20179D01*
X8390Y-19958D01*
X8250Y-19930D01*
D02*
G37*
G36*
X7750D02*
X7610Y-19958D01*
X7279Y-20179D01*
X7058Y-20510D01*
X7030Y-20650D01*
X7750D01*
Y-19930D01*
D02*
G37*
G36*
X25550Y-21030D02*
Y-21750D01*
X26270D01*
X26242Y-21610D01*
X26021Y-21279D01*
X25690Y-21058D01*
X25550Y-21030D01*
D02*
G37*
G36*
X8970Y-21150D02*
X8250D01*
Y-21870D01*
X8390Y-21842D01*
X8721Y-21621D01*
X8942Y-21290D01*
X8970Y-21150D01*
D02*
G37*
G36*
X7750D02*
X7030D01*
X7058Y-21290D01*
X7279Y-21621D01*
X7610Y-21842D01*
X7750Y-21870D01*
Y-21150D01*
D02*
G37*
G36*
X4992Y-20850D02*
X3561D01*
Y-22360D01*
X4992D01*
Y-20850D01*
D02*
G37*
G36*
X26270Y-22250D02*
X25550D01*
Y-22970D01*
X25690Y-22942D01*
X26021Y-22721D01*
X26242Y-22390D01*
X26270Y-22250D01*
D02*
G37*
G36*
X24592Y-20340D02*
X23161D01*
Y-22100D01*
Y-23860D01*
X24592D01*
Y-23285D01*
X25050Y-23004D01*
Y-22000D01*
Y-20996D01*
X24592Y-20715D01*
Y-20340D01*
D02*
G37*
G36*
X5368Y-25817D02*
Y-28724D01*
X6406D01*
Y-25817D01*
X5368D01*
D02*
G37*
G36*
X9843Y-25109D02*
X9122Y-25204D01*
X8450Y-25482D01*
X7874Y-25925D01*
X7431Y-26502D01*
X7153Y-27173D01*
X7058Y-27894D01*
Y-28878D01*
X7153Y-29599D01*
X7431Y-30270D01*
X7874Y-30847D01*
X8450Y-31289D01*
X9122Y-31567D01*
X9843Y-31662D01*
X10563Y-31567D01*
X11235Y-31289D01*
X11811Y-30847D01*
X12254Y-30270D01*
X12532Y-29599D01*
X12627Y-28878D01*
Y-27894D01*
X12532Y-27173D01*
X12254Y-26502D01*
X11811Y-25925D01*
X11235Y-25482D01*
X10563Y-25204D01*
X9843Y-25109D01*
D02*
G37*
G36*
X6406Y-29224D02*
X5368D01*
Y-32132D01*
X6406D01*
Y-29224D01*
D02*
G37*
G36*
X20050Y-39222D02*
Y-40350D01*
X21178D01*
X21119Y-40054D01*
X20809Y-39591D01*
X20346Y-39281D01*
X20050Y-39222D01*
D02*
G37*
G36*
X19550D02*
X19254Y-39281D01*
X18791Y-39591D01*
X18481Y-40054D01*
X18422Y-40350D01*
X19550D01*
Y-39222D01*
D02*
G37*
%LPD*%
D10*
X-27197Y-22890D02*
D03*
X-29003Y-20310D02*
D03*
D11*
X-36454Y-19279D02*
D03*
X-28776Y-30244D02*
D03*
D12*
X26300Y9502D02*
D03*
Y7298D02*
D03*
X13700Y7498D02*
D03*
Y9702D02*
D03*
X-2600Y15502D02*
D03*
Y13298D02*
D03*
X16300Y16095D02*
D03*
Y18300D02*
D03*
X16800Y27198D02*
D03*
Y29402D02*
D03*
X21500Y27398D02*
D03*
Y29602D02*
D03*
X-28300Y26295D02*
D03*
Y28500D02*
D03*
X-25900Y-5384D02*
D03*
Y-3179D02*
D03*
X7600Y15802D02*
D03*
Y13598D02*
D03*
D13*
X36002Y15019D02*
D03*
X33798D02*
D03*
X36002Y12619D02*
D03*
X33798D02*
D03*
X-20698Y9600D02*
D03*
X-22902D02*
D03*
X-33202Y26300D02*
D03*
X-30998D02*
D03*
X-11702Y26700D02*
D03*
X-9498D02*
D03*
D14*
X-10200Y-17289D02*
D03*
Y-20911D02*
D03*
X-6500Y-17289D02*
D03*
Y-20911D02*
D03*
X-17800Y-26389D02*
D03*
Y-30011D02*
D03*
X-8200Y4711D02*
D03*
Y1089D02*
D03*
X8300Y-14911D02*
D03*
Y-11289D02*
D03*
D15*
X-311Y-16400D02*
D03*
X3311D02*
D03*
X30611Y1600D02*
D03*
X26989D02*
D03*
X17789Y1600D02*
D03*
X21411D02*
D03*
X-311Y-20600D02*
D03*
X3311D02*
D03*
X19289Y-22100D02*
D03*
X22911D02*
D03*
D16*
X-2700Y-6900D02*
D03*
X-338D02*
D03*
X-30900Y28700D02*
D03*
X-33262D02*
D03*
X-9419Y29300D02*
D03*
X-11781D02*
D03*
X-28481Y0D02*
D03*
X-26119D02*
D03*
X-9119Y-3500D02*
D03*
X-11481D02*
D03*
D17*
X-4500Y29981D02*
D03*
Y27619D02*
D03*
X-23100Y12619D02*
D03*
Y14981D02*
D03*
X-11600Y3781D02*
D03*
Y1419D02*
D03*
X-28800Y2319D02*
D03*
Y4681D02*
D03*
X-28400Y-5462D02*
D03*
Y-3100D02*
D03*
X-19500Y22181D02*
D03*
Y19819D02*
D03*
X-26400Y4681D02*
D03*
Y2319D02*
D03*
X39900Y12638D02*
D03*
Y15000D02*
D03*
D18*
X19047Y-30000D02*
D03*
X24953D02*
D03*
X-2353Y4600D02*
D03*
X3553D02*
D03*
X19147Y-35300D02*
D03*
X25053D02*
D03*
D19*
X39892Y7547D02*
D03*
D20*
X43829Y-1311D02*
D03*
D21*
Y8728D02*
D03*
D22*
X15600Y22125D02*
D03*
X19537D02*
D03*
X15600Y23700D02*
D03*
X17569D02*
D03*
X19537D02*
D03*
D23*
X-22750Y1275D02*
D03*
Y2850D02*
D03*
X-21175D02*
D03*
Y1275D02*
D03*
X-19600D02*
D03*
X-22750Y-300D02*
D03*
X-19600D02*
D03*
X-22750Y-1875D02*
D03*
Y-3450D02*
D03*
X-21175Y-300D02*
D03*
Y-1875D02*
D03*
X-19600D02*
D03*
X-21175Y-3450D02*
D03*
X-19600D02*
D03*
X-18025Y2850D02*
D03*
X-19600D02*
D03*
X-18025Y-300D02*
D03*
Y1275D02*
D03*
X-16450Y2850D02*
D03*
Y-300D02*
D03*
Y1275D02*
D03*
X-18025Y-1875D02*
D03*
Y-3450D02*
D03*
X-16450Y-1875D02*
D03*
Y-3450D02*
D03*
D24*
X-21600Y-18868D02*
D03*
X-19631D02*
D03*
Y-16900D02*
D03*
X-21600D02*
D03*
X-19631Y-14931D02*
D03*
X-21600D02*
D03*
X-23568Y-18868D02*
D03*
Y-16900D02*
D03*
Y-14931D02*
D03*
D25*
X-26679Y23421D02*
D03*
Y21453D02*
D03*
Y19484D02*
D03*
Y17516D02*
D03*
Y15547D02*
D03*
Y13579D02*
D03*
X-28647Y23421D02*
D03*
Y21453D02*
D03*
Y19484D02*
D03*
Y17516D02*
D03*
Y15547D02*
D03*
Y13579D02*
D03*
X-30616Y23421D02*
D03*
Y21453D02*
D03*
Y19484D02*
D03*
Y17516D02*
D03*
Y15547D02*
D03*
Y13579D02*
D03*
X-32584Y23421D02*
D03*
Y21453D02*
D03*
Y19484D02*
D03*
Y17516D02*
D03*
Y15547D02*
D03*
Y13579D02*
D03*
X-34553Y23421D02*
D03*
Y21453D02*
D03*
Y19484D02*
D03*
Y17516D02*
D03*
Y15547D02*
D03*
Y13579D02*
D03*
X-36521Y23421D02*
D03*
Y21453D02*
D03*
Y19484D02*
D03*
Y17516D02*
D03*
Y15547D02*
D03*
Y13579D02*
D03*
D26*
X-7051Y35326D02*
D03*
X-3949Y35873D02*
D03*
D27*
X134Y42190D02*
D03*
X-13048Y39866D02*
D03*
D28*
X10724Y31599D02*
D03*
Y30024D02*
D03*
X9150Y31599D02*
D03*
X12299Y30024D02*
D03*
X10724Y28450D02*
D03*
X7575Y31599D02*
D03*
X9150Y30024D02*
D03*
X6000Y31599D02*
D03*
X7575Y30024D02*
D03*
X6000D02*
D03*
X12299Y28450D02*
D03*
Y26875D02*
D03*
X10724D02*
D03*
X12299Y25300D02*
D03*
X10724D02*
D03*
X7575Y28450D02*
D03*
X9150D02*
D03*
X6000D02*
D03*
X9150Y25300D02*
D03*
Y26875D02*
D03*
X4425Y30024D02*
D03*
Y31599D02*
D03*
X1276D02*
D03*
X2850D02*
D03*
X-299Y30024D02*
D03*
X2850D02*
D03*
X1276D02*
D03*
X2850Y28450D02*
D03*
X4425D02*
D03*
X2850Y26875D02*
D03*
X1276Y25300D02*
D03*
X-299Y28450D02*
D03*
X1276D02*
D03*
X-299Y26875D02*
D03*
X1276D02*
D03*
X-299Y25300D02*
D03*
X12299Y22150D02*
D03*
Y23725D02*
D03*
X6000Y22150D02*
D03*
X4425D02*
D03*
X12299Y20576D02*
D03*
X6000D02*
D03*
X12299Y19001D02*
D03*
X10724D02*
D03*
X7575D02*
D03*
X9150D02*
D03*
X7575Y20576D02*
D03*
X6000Y19001D02*
D03*
X4425D02*
D03*
X2850Y25300D02*
D03*
Y23725D02*
D03*
X1276Y22150D02*
D03*
X2850D02*
D03*
X-299Y23725D02*
D03*
X1276D02*
D03*
X2850Y20576D02*
D03*
X4425D02*
D03*
X-299Y22150D02*
D03*
X1276Y20576D02*
D03*
X-299D02*
D03*
X2850Y19001D02*
D03*
X1276D02*
D03*
D29*
X-22444Y-9800D02*
D03*
X-27956D02*
D03*
D30*
X13715Y-14039D02*
D03*
Y-11479D02*
D03*
Y-8920D02*
D03*
Y-6361D02*
D03*
X28085D02*
D03*
Y-8920D02*
D03*
Y-11479D02*
D03*
Y-14039D02*
D03*
D31*
X17061Y-3015D02*
D03*
X19621D02*
D03*
X22179D02*
D03*
X24739D02*
D03*
Y-17385D02*
D03*
X22179D02*
D03*
X19621D02*
D03*
X17061D02*
D03*
D32*
X20900Y-10200D02*
D03*
D33*
X-230Y-12100D02*
D03*
X-3970D02*
D03*
D34*
X-9732Y23164D02*
D03*
X-11700D02*
D03*
X-13669D02*
D03*
X-9732Y18636D02*
D03*
X-11700D02*
D03*
D35*
X-13669Y18833D02*
D03*
D36*
X-36457Y-400D02*
D03*
D37*
Y4423D02*
D03*
Y-5223D02*
D03*
D38*
X-44134Y6883D02*
D03*
Y-7683D02*
D03*
D39*
X11811Y-40000D02*
D03*
X-11811Y-40000D02*
D03*
D40*
X-5118Y-28974D02*
D03*
X-2559Y-28974D02*
D03*
X0D02*
D03*
X2559D02*
D03*
X5118D02*
D03*
D41*
X4134Y-40000D02*
D03*
X-4134D02*
D03*
D42*
X22596Y10409D02*
D03*
X17478D02*
D03*
X22596Y6472D02*
D03*
X17478D02*
D03*
D43*
X-7051Y33649D02*
Y34792D01*
X-13908D02*
X-7585D01*
X-9419Y31281D02*
X-7051Y33649D01*
X-9419Y29300D02*
Y31281D01*
X-3949Y33251D02*
Y35873D01*
X-6779Y30421D02*
X-3949Y33251D01*
X-6779Y29419D02*
Y30421D01*
X-4500Y27400D02*
X-3450Y28450D01*
X-299D01*
X-32584Y23421D02*
Y24884D01*
X-33202Y25502D02*
X-32584Y24884D01*
X-33202Y25502D02*
Y26300D01*
Y28640D01*
X-36521Y17516D02*
X-34553D01*
X-36521Y15547D02*
Y17516D01*
X-5118Y-28974D02*
Y-24418D01*
X-3970Y-23270D01*
Y-12100D01*
X-230D02*
Y-10230D01*
X3553Y-6447D01*
X-230Y-20519D02*
Y-12100D01*
X3553Y1000D02*
X6300D01*
X3553Y-6447D02*
Y1000D01*
Y4600D01*
X13800Y1000D02*
X17189D01*
X17789Y211D02*
Y1600D01*
Y211D02*
X18798Y-798D01*
X20542D01*
X22179Y-2435D01*
X-5221Y-21D02*
Y4600D01*
X-6700Y-1500D02*
X-5221Y-21D01*
X-13576Y-1500D02*
X-6700D01*
X-15525Y-3450D02*
X-13576Y-1500D01*
X-16450Y-3450D02*
X-15525D01*
X-8089Y4600D02*
X-5221D01*
X-2353D01*
X-9498Y26700D02*
X-6779Y29419D01*
X-9498Y23398D02*
Y26700D01*
X-6779Y26121D02*
Y29419D01*
X-21175Y-5275D02*
Y-3450D01*
X-22444Y-6544D02*
X-21175Y-5275D01*
X-22444Y-9800D02*
Y-6544D01*
X-27956Y-9800D02*
Y-9256D01*
X-25900Y-7200D01*
Y-5384D01*
X-25979Y-5462D02*
X-25900Y-5384D01*
X-28400Y-5462D02*
X-25979D01*
X-28481Y-3019D02*
Y0D01*
X-25119Y-3019D02*
X-23975Y-1875D01*
X-22750D01*
X-28481Y-3019D02*
X-25119D01*
X-18025Y-10475D02*
X-16700Y-11800D01*
X-18025Y-10475D02*
Y-3450D01*
Y-1875D01*
X-10200Y-17289D02*
X-6500D01*
X-13600Y-11800D02*
X-13500Y-11900D01*
X-16700Y-11800D02*
X-13600D01*
X-13500Y-14000D02*
Y-11900D01*
Y-14000D02*
X-13495Y-13995D01*
X-10200Y-17289D01*
X-13689D02*
X-10200D01*
Y-20911D02*
X-6500D01*
X-27956Y-13356D02*
Y-9800D01*
X-9100Y-11100D02*
Y-3450D01*
X-26679Y23421D02*
X-21579D01*
X-6500Y-17289D02*
Y-8200D01*
X-5200Y-6900D01*
X-2700D01*
X-17300Y31400D02*
X-13908Y34792D01*
X-17300Y26600D02*
Y31400D01*
Y17200D02*
Y21800D01*
Y17200D02*
X-13900Y13800D01*
Y9700D02*
Y13800D01*
X-14700Y8900D02*
X-13900Y9700D01*
X-15900Y8900D02*
X-14700D01*
X-19600Y-9700D02*
Y-3450D01*
Y-1875D01*
X-13589Y-20911D02*
X-10200D01*
X-13700Y-20800D02*
X-13589Y-20911D01*
X-17800Y-31900D02*
Y-30011D01*
X-19400Y-33500D02*
X-17800Y-31900D01*
X-4500Y25581D02*
Y27400D01*
X12299Y20576D02*
X14024D01*
X16300Y18300D01*
X18600D01*
X-39500Y20494D02*
X-36521Y17516D01*
X-39500Y20494D02*
Y22300D01*
X23011Y-22000D02*
X25300D01*
X7600Y11200D02*
Y13598D01*
X7575Y20576D02*
X9400D01*
X12299D01*
X-36521Y23421D02*
Y25579D01*
X-35800Y26300D01*
X-33202D01*
X19537Y20963D02*
Y22125D01*
X33798Y12198D02*
Y12619D01*
X32800Y11200D02*
X33798Y12198D01*
X32800Y9800D02*
Y11200D01*
X33798Y12619D02*
Y15019D01*
D44*
X-4400Y30081D02*
Y31000D01*
X-3801Y31599D01*
X-11700Y15800D02*
Y18636D01*
X-3801Y31599D02*
X-2500D01*
X-6800Y14100D02*
X-5500D01*
X-4200Y15400D01*
Y18250D01*
X-299Y22150D01*
X-7800Y15500D02*
X-6100D01*
X-5100Y16500D01*
Y18924D01*
X-299Y23725D01*
X-9300Y14000D02*
X-7800Y15500D01*
X-1600Y25300D02*
X-299D01*
X-6700Y20200D02*
X-1600Y25300D01*
X-1725Y26875D02*
X-299D01*
X-6700Y21900D02*
X-1725Y26875D01*
D45*
X-30900Y28700D02*
X-29600Y27400D01*
Y25300D02*
Y27400D01*
X-29650Y22468D02*
X-29600Y25300D01*
X-25031Y14550D02*
X-23100Y12619D01*
X-27650Y14550D02*
X-25031D01*
X-28647Y15547D02*
X-27650Y14550D01*
X-29650Y22419D02*
Y22468D01*
X-30616Y21453D02*
X-29650Y22419D01*
D46*
X-28300Y24900D02*
Y26295D01*
X-28647Y24553D02*
X-28300Y24900D01*
X-28647Y23421D02*
Y24553D01*
X-30998Y24598D02*
Y26300D01*
Y24598D02*
X-30616Y24216D01*
Y23421D02*
Y24216D01*
X-11781Y23245D02*
Y29300D01*
X-13905Y23400D02*
X-13669Y23164D01*
X-18281Y23400D02*
X-13905D01*
X-19500Y22181D02*
X-18281Y23400D01*
X-9732Y18636D02*
X-7036D01*
X-6400Y18000D01*
X-26400Y2319D02*
X-24519D01*
X-30381D02*
X-28800D01*
X-19631Y-22531D02*
Y-18868D01*
X-19990Y-22890D02*
X-19631Y-22531D01*
X-27197Y-22890D02*
X-19990D01*
X-13500Y-3600D02*
X-11581D01*
X-338Y-6900D02*
Y-2838D01*
X0Y-2500D01*
X7600Y15802D02*
Y18976D01*
X13700Y7498D02*
X15202D01*
X16228Y6472D01*
X22596Y10409D02*
X24491D01*
X25398Y9502D01*
X26300D01*
X12202Y7498D02*
X13700D01*
X9150Y10550D02*
X12202Y7498D01*
X9150Y10550D02*
Y19001D01*
X22596Y10409D02*
Y11704D01*
X20900Y13400D02*
X22596Y11704D01*
X11800Y13400D02*
X20900D01*
X10724Y14476D02*
X11800Y13400D01*
X10724Y14476D02*
Y19001D01*
X-23600Y18700D02*
X-22900D01*
X-24784Y17516D02*
X-23600Y18700D01*
X-26679Y17516D02*
X-24784D01*
X-23800Y20000D02*
X-22900D01*
X-24316Y19484D02*
X-23800Y20000D01*
X-26679Y19484D02*
X-24316D01*
X-26032Y22100D02*
X-23000D01*
X-26679Y21453D02*
X-26032Y22100D01*
X-16450Y2850D02*
Y5450D01*
X-15000Y2725D02*
Y4500D01*
X-16450Y1275D02*
X-15000Y2725D01*
X-2800Y1100D02*
X100D01*
X-21600Y-14400D02*
X-19100Y-11900D01*
X-34176Y30024D02*
X-19176D01*
X-37700Y26500D02*
X-34176Y30024D01*
X-37700Y20600D02*
Y26500D01*
Y20600D02*
X-36584Y19484D01*
X-36521D01*
X-15000Y4500D02*
X-11600Y7900D01*
X-600D01*
X1700Y10200D01*
X-16450Y5450D02*
X-12900Y9000D01*
X-1000D01*
X1600Y11600D01*
X-1400Y10300D02*
X-800Y10900D01*
X-11600Y10300D02*
X-1400D01*
X-800Y10900D02*
Y16925D01*
X1276Y19001D01*
X1378Y17528D02*
X2850Y19001D01*
X1378Y16481D02*
Y17528D01*
X-40600Y2300D02*
X-39700Y1400D01*
X-40600Y2300D02*
Y7100D01*
X-39700Y-400D02*
Y1400D01*
X12299Y25300D02*
X15969D01*
X17569Y23700D01*
X21266Y27398D01*
D47*
X15147Y-33900D02*
X19047Y-30000D01*
X500Y-33900D02*
X15147D01*
X0Y-33400D02*
X500Y-33900D01*
X0Y-33400D02*
Y-28974D01*
X-1100Y-35300D02*
X19147D01*
X-2559Y-33841D02*
X-1100Y-35300D01*
X-2559Y-33841D02*
Y-28974D01*
X24953Y-30000D02*
X28600D01*
X31100Y-27500D01*
Y-12200D01*
X30380Y-11479D02*
X31100Y-12200D01*
X28085Y-11479D02*
X30380D01*
X25053Y-35300D02*
X28000D01*
X33000Y-30300D01*
Y-10600D01*
X31321Y-8920D02*
X33000Y-10600D01*
X28085Y-8920D02*
X31321D01*
X24739Y-3015D02*
X28485D01*
X30611Y-889D01*
Y1600D01*
X28485Y-5961D02*
Y-3015D01*
X17061Y-17385D02*
Y-15439D01*
X17466Y-15034D01*
X25324D01*
X25734Y-14624D01*
Y-6766D01*
X26139Y-6361D01*
X28085D01*
X-40600Y7100D02*
Y17200D01*
X10724Y31599D02*
Y39646D01*
X9315Y41055D02*
X10724Y39646D01*
D48*
X3311Y-20600D02*
Y-17000D01*
X3611Y-16700D01*
X22179Y-21369D02*
Y-17385D01*
X13715Y-6361D02*
X15961D01*
X19800Y-10200D01*
X20900D01*
X-11600Y1419D02*
X-8530D01*
X-21175Y1275D02*
Y2850D01*
X-22750Y1275D02*
X-21175D01*
X-22750Y-300D02*
Y1275D01*
X-19500Y17600D02*
Y19819D01*
X-23100Y16900D02*
X-22400Y17600D01*
X-19500D01*
X1276Y22150D02*
X2850Y23725D01*
X4425Y25300D01*
X7575Y28450D02*
X9150D01*
Y30024D01*
X4425Y25300D02*
Y28450D01*
X13700Y9702D02*
X16770D01*
X22596Y6472D02*
X24072D01*
X24898Y7298D02*
X26300D01*
X-26679Y15547D02*
X-23666D01*
X-23100Y14981D02*
Y16900D01*
X-3002Y13298D02*
X-2600D01*
X-4400Y11900D02*
X-3002Y13298D01*
X-4400Y11600D02*
Y11900D01*
X24300Y1600D02*
Y6245D01*
X24072Y6472D02*
X24898Y7298D01*
X21411Y1600D02*
X24300D01*
X26989D01*
X13715Y-6361D02*
Y-4015D01*
X-26658Y4423D02*
X-26481Y4600D01*
X-36457Y4423D02*
X-26658D01*
X-22902Y4798D02*
Y9600D01*
X-23141Y4600D02*
X-23100D01*
X-21175Y2850D02*
Y3070D01*
X-22902Y4798D02*
X-21175Y3070D01*
X-26481Y4600D02*
X-23141D01*
X-36457Y-7957D02*
Y-5223D01*
X-37300Y-8800D02*
X-36457Y-7957D01*
X3311Y-22211D02*
X5000Y-23900D01*
Y-28856D02*
Y-23900D01*
X3611Y-20900D02*
X8000D01*
X3311Y-22211D02*
Y-20900D01*
X8000D02*
Y-15211D01*
X8300Y-14911D01*
X22179Y-21369D02*
X22911Y-22100D01*
X13700Y9702D02*
Y11200D01*
X17478Y10409D02*
X21415Y6472D01*
X12299Y23725D02*
X15575D01*
X12299Y22150D02*
X15575D01*
X18600Y29402D02*
Y33900D01*
X16800Y29402D02*
X18600D01*
X21300D01*
X26300Y7298D02*
X28602D01*
X4425Y25275D02*
Y25300D01*
X43829Y-10071D02*
Y-1311D01*
X43800Y-10100D02*
X43829Y-10071D01*
X43800Y8757D02*
Y11500D01*
X4425Y25275D02*
X7700Y22000D01*
X9400Y20576D02*
Y22000D01*
Y22100D01*
X7700Y22000D02*
X9400D01*
X-25819Y-300D02*
X-22750D01*
X28602Y7298D02*
X29500Y6400D01*
D49*
X8300Y-11289D02*
Y6900D01*
X4400Y10800D02*
X8300Y6900D01*
X11189Y-10289D02*
X15381D01*
X10400Y-9500D02*
X11189Y-10289D01*
X15732Y-21132D02*
X16700Y-22100D01*
X19289D01*
X15732Y-21132D02*
Y-10640D01*
X15381Y-10289D02*
X15732Y-10640D01*
X19621Y-21769D02*
Y-17385D01*
X8491Y-11479D02*
X13715D01*
X4400Y10800D02*
Y18976D01*
X6000Y14700D02*
Y19001D01*
X-13419Y3781D02*
X-11600D01*
X-14000Y3200D02*
X-13419Y3781D01*
X-14000Y576D02*
Y3200D01*
X-16450Y-1875D02*
X-14000Y576D01*
X-27562Y-18868D02*
X-23568D01*
X-29003Y-20310D02*
X-27562Y-18868D01*
X-19631Y-16900D02*
X-19300D01*
X-17800Y-18400D01*
Y-26389D02*
Y-18400D01*
X-741Y32041D02*
X1276Y30024D01*
X-741Y32041D02*
Y33700D01*
X5885Y10815D02*
Y14585D01*
Y10815D02*
X10400Y6300D01*
Y-9500D02*
Y6300D01*
X-6002Y12100D02*
X-2600Y15502D01*
X-8741Y12100D02*
X-6002D01*
X-31600Y18500D02*
X-30616Y19484D01*
X-28647Y21453D01*
X12299Y18801D02*
Y19001D01*
X15005Y16095D02*
X16300D01*
X14050Y15350D02*
Y17050D01*
X12299Y18801D02*
X14050Y17050D01*
X15005Y16095D01*
X-39700Y-400D02*
X-36457D01*
X10724Y30024D02*
X12300Y31600D01*
Y37631D01*
X14014Y39345D01*
X12299Y26875D02*
X14275D01*
X14598Y27198D01*
X16800D01*
X-20698Y9600D02*
X-19200D01*
X-18900Y9300D01*
Y6000D02*
Y9300D01*
D50*
X19537Y23700D02*
X32300D01*
X36002Y19998D01*
Y15019D02*
Y19998D01*
Y15019D02*
X39881D01*
X36002Y12619D02*
X39881D01*
X39900Y12638D01*
Y7556D02*
Y12638D01*
D51*
X-40700Y-14700D02*
D03*
X24100Y36300D02*
D03*
X37200Y-24200D02*
D03*
D52*
X9843Y-28386D02*
D03*
X-9843Y-28583D02*
D03*
D53*
X14173Y-39998D02*
D03*
X-14173Y-40000D02*
D03*
D54*
X-34553Y19484D02*
D03*
Y21453D02*
D03*
Y23421D02*
D03*
X-21175Y-300D02*
D03*
Y-1875D02*
D03*
X-30381Y2319D02*
D03*
X-24519D02*
D03*
X-19600Y-300D02*
D03*
X-18025Y-1875D02*
D03*
X-13500Y-3600D02*
D03*
X-26679Y23421D02*
D03*
X4425Y31599D02*
D03*
X6000D02*
D03*
X-36521Y13579D02*
D03*
X-34553D02*
D03*
X-16450Y1275D02*
D03*
Y2850D02*
D03*
X-32584Y19484D02*
D03*
X-34553Y15547D02*
D03*
X-32584D02*
D03*
X-30800Y11200D02*
D03*
X-32584Y13579D02*
D03*
X-30616D02*
D03*
X-28647D02*
D03*
X-26679D02*
D03*
X-22900Y18700D02*
D03*
X-23000Y22100D02*
D03*
X-22900Y20000D02*
D03*
X1600Y11600D02*
D03*
X1700Y10200D02*
D03*
X1276Y31599D02*
D03*
X2850D02*
D03*
X-19631Y-14931D02*
D03*
X100Y1100D02*
D03*
X-2800D02*
D03*
X-19100Y-11900D02*
D03*
X-30616Y17516D02*
D03*
X-28647Y19484D02*
D03*
Y17516D02*
D03*
X-30616Y15547D02*
D03*
X-6800Y14100D02*
D03*
X-9300Y14000D02*
D03*
X-6700Y20200D02*
D03*
Y21900D02*
D03*
X-299Y30024D02*
D03*
X-19176D02*
D03*
X-18025Y-300D02*
D03*
X-2500Y31599D02*
D03*
X-31600Y18500D02*
D03*
X-13700Y-20800D02*
D03*
X-19400Y-33500D02*
D03*
X8000Y-20900D02*
D03*
X-4500Y25581D02*
D03*
X14050Y15350D02*
D03*
X18600Y18300D02*
D03*
X-40600Y17200D02*
D03*
X-36521Y23421D02*
D03*
X-39500Y22300D02*
D03*
X9315Y41055D02*
D03*
X14014Y39345D02*
D03*
X4600Y39400D02*
D03*
X14275Y26875D02*
D03*
X25300Y-22000D02*
D03*
X7700Y11100D02*
D03*
X13700Y11200D02*
D03*
X18600Y33900D02*
D03*
X24000Y16500D02*
D03*
X-18900Y6000D02*
D03*
X1276Y20576D02*
D03*
X9400Y22100D02*
D03*
X9150Y28450D02*
D03*
X-10100Y1419D02*
D03*
X-23800Y27300D02*
D03*
X19700Y20800D02*
D03*
X21900Y21300D02*
D03*
X11000Y11800D02*
D03*
D55*
X6300Y1000D02*
D03*
X13800D02*
D03*
X-6800Y26100D02*
D03*
X-6400Y18000D02*
D03*
X-11700Y15800D02*
D03*
X-19600Y-9700D02*
D03*
X-13689Y-17289D02*
D03*
X-23568Y-16900D02*
D03*
Y-14931D02*
D03*
X-21600Y-16900D02*
D03*
X-741Y33700D02*
D03*
X-11641Y10300D02*
D03*
X1378Y16481D02*
D03*
X-8741Y12100D02*
D03*
X-4441Y11600D02*
D03*
X24259Y3700D02*
D03*
X13674Y-4015D02*
D03*
X-23141Y4600D02*
D03*
X-37341Y-8800D02*
D03*
D56*
X-16700Y13500D02*
D03*
X-19500Y17600D02*
D03*
X-27956Y-13356D02*
D03*
X-9100Y-11100D02*
D03*
X-21505Y23495D02*
D03*
X-17300Y26600D02*
D03*
Y21800D02*
D03*
X-15900Y8900D02*
D03*
X43800Y-10100D02*
D03*
X37100Y-10200D02*
D03*
X32800Y-7500D02*
D03*
Y-1700D02*
D03*
Y5100D02*
D03*
Y9800D02*
D03*
X43800Y11500D02*
D03*
X29500Y6400D02*
D03*
X41500Y-17000D02*
D03*
X19800Y-40600D02*
D03*
X0Y-45200D02*
D03*
X-22500Y-38900D02*
D03*
X-37600Y-25500D02*
D03*
X-43300Y15000D02*
D03*
X-7200Y44100D02*
D03*
X12700Y43300D02*
D03*
X37900Y24900D02*
D03*
X40300Y20600D02*
D03*
X42300Y16800D02*
D03*
X-23300Y33400D02*
D03*
X-19100Y35500D02*
D03*
X25800Y31300D02*
D03*
X29700Y27900D02*
D03*
X-36300Y9100D02*
D03*
X-30900Y-16800D02*
D03*
X-16400Y-16000D02*
D03*
X3700Y-10600D02*
D03*
X6000Y-3000D02*
D03*
X3700Y8100D02*
D03*
X13400Y4100D02*
D03*
D57*
X0Y-2500D02*
D03*
M02*
