M48
;Layer_Color=9474304
;FILE_FORMAT=2:5
INCH,LZ
;TYPE=PLATED
T1F00S00C0.00394
T3F00S00C0.00700
;TYPE=NON_PLATED
%
T01
X-00309Y-00168
X-0023568Y-00169
X-00216
X-0023568Y-0014931
X-0019631
X-00191Y-00119
X-0013689Y-0017289
X-001645Y0001275
Y000285
X-0018025Y-00003
X-0021175
Y-0001875
X-0024519Y0002319
X-0030381
X-00363Y00091
X-0032584Y0013579
X-0030616Y0015547
Y0017516
X-0028647
Y0019484
X-0032584
X-0036521Y0023421
X-0026679
X-00238Y00273
X-00173Y00266
Y00218
X-0019176Y0030024
X-00025Y0031599
X-0000299Y0030024
X0001276Y0031599
X000285
X-00067Y00219
Y00202
X-00068Y00141
X-00093Y0014
X-0011641Y00103
X-00159Y00089
X-00101Y0001419
X-00028Y00011
X00001
X00063Y0001
X00017Y00102
X00016Y00116
X00258Y00313
X00297Y00279
T03
X00138Y0001
M30
