M48
;Layer_Color=9474304
;FILE_FORMAT=2:5
INCH,LZ
;TYPE=PLATED
T1F00S00C0.00600
T2F00S00C0.00700
T3F00S00C0.00800
T4F00S00C0.01600
;TYPE=NON_PLATED
T7F00S00C0.03598
%
T01
X-0036521Y0013579
X-00317Y00185
X-0034553Y0021453
X-0019Y00071
X-0002424Y0021276
X-000085Y0019701
Y0024425
X-0002424Y0030724
X-0003999Y002915
X0000725Y0032299
X00023
T02
X-00393Y-00191
X-0037Y-00089
X-00256Y-00077
X-0018025Y-000345
X-00128Y00017
X-00124Y00096
X-00084Y00184
X-0004202Y0016102
X-00068Y0026
X-00079Y00276
X-00102Y00383
X-0012168Y0040268
X00079Y00379
X00123Y0036
X00199Y00335
X00198Y00318
X00199Y00302
X00156Y00278
X00152Y0016
X00137Y-00039
X-00084Y-00212
X-0018981Y-0023081
X-0020532Y-00247
Y-0019068
X-00165Y-00315
X-00174Y-00329
X-00184Y-00351
X-00206Y002
Y00232
X-00239Y00235
X-00266Y00267
X-00361Y00269
X-00396Y00084
X00183Y00412
T03
X-00296Y-00131
X-00433Y00123
X00226Y00145
X00298Y00103
X00432Y-00122
T04
X0Y-00025
T07
X-00407Y-00147
X00372Y-00242
X00241Y00363
M30
