M48
;Layer_Color=9474304
;FILE_FORMAT=2:5
INCH,LZ
;TYPE=PLATED
T1F00S00C0.00600
T2F00S00C0.00700
T3F00S00C0.00800
;TYPE=NON_PLATED
%
T01
X-00302Y00013
X-00248Y00022
X-0021175Y-00003
X-00196
X-0018025
X-0021175Y-0001875
X-002275Y-000515
X-00148Y-00019
X-00102Y-00003
X00041Y00015
X00051Y00027
X00075Y00003
X00064Y-00008
X00037Y00095
X-000085Y00157
Y0021276
X00023
X-00072Y00216
X-00096Y00288
X-00132Y00301
X-00151
X-00124Y00333
X-0003999Y0030724
X-0020704Y0018396
Y0017096
X-00207Y00157
X-0019Y00096
X-0027196Y0008596
X-0028398Y0009798
X-0029604Y0010996
X-0025504Y0012396
X-0028647Y0015547
X-0030616
X-0032584
Y0013579
X-0034553Y0015547
Y0019484
X-0036521
X-0032584
X-0030616Y0017516
X-0028647
Y0019484
X-0026679Y0023421
T02
X-00402Y-00082
X-00395Y00014
X-00349Y00298
X-00223Y00336
X-0012168Y0036331
X-00003Y00407
X0000725Y0026
X00152Y0019
X-0007798Y00124
X-00048Y-0007
X-0011919Y-0008581
T03
X-0040684Y0017516
X-0024Y00049
X-00095Y0005119
X00242Y00016
X0026Y-00217
X00081Y-00189
X00393Y00218
M30
