G04 Layer_Color=8388736*
%FSLAX25Y25*%
%MOIN*%
G70*
G01*
G75*
%ADD76R,0.01181X0.00984*%
%ADD87R,0.01817X0.02369*%
%ADD88R,0.01975X0.02369*%
%ADD89R,0.01654X0.01654*%
%ADD90R,0.02369X0.04731*%
%ADD91R,0.05124X0.07093*%
%ADD92R,0.05400X0.15400*%
%ADD93R,0.15400X0.05400*%
%ADD94R,0.03943X0.04337*%
%ADD95C,0.01437*%
%ADD96R,0.01772X0.01575*%
%ADD97R,0.01654X0.01654*%
%ADD98R,0.03195X0.04022*%
%ADD99R,0.01575X0.01772*%
%ADD100R,0.02762X0.02920*%
%ADD101C,0.01260*%
%ADD102R,0.04731X0.02369*%
%ADD103R,0.07093X0.05124*%
%ADD104R,0.03353X0.02959*%
%ADD105R,0.02920X0.02762*%
%ADD106R,0.07880X0.05124*%
%ADD107R,0.05715X0.01975*%
%ADD108R,0.07880X0.06699*%
%ADD109R,0.01581X0.03235*%
%ADD110R,0.03235X0.01581*%
%ADD111R,0.08668X0.08668*%
%ADD112C,0.01476*%
%ADD113R,0.03740X0.01496*%
%ADD114R,0.03347X0.01496*%
%ADD115R,0.11227X0.05912*%
%ADD116R,0.03550X0.03550*%
%ADD117R,0.02565X0.02762*%
G04:AMPARAMS|DCode=118|XSize=12.94mil|YSize=12.94mil|CornerRadius=6.47mil|HoleSize=0mil|Usage=FLASHONLY|Rotation=0.000|XOffset=0mil|YOffset=0mil|HoleType=Round|Shape=RoundedRectangle|*
%AMROUNDEDRECTD118*
21,1,0.01294,0.00000,0,0,0.0*
21,1,0.00000,0.01294,0,0,0.0*
1,1,0.01294,0.00000,0.00000*
1,1,0.01294,0.00000,0.00000*
1,1,0.01294,0.00000,0.00000*
1,1,0.01294,0.00000,0.00000*
%
%ADD118ROUNDEDRECTD118*%
%ADD119R,0.09455X0.03747*%
%ADD120R,0.05124X0.05321*%
%ADD121R,0.04337X0.03943*%
%ADD122R,0.01975X0.02998*%
%ADD123O,0.02959X0.01187*%
%ADD124O,0.01187X0.02959*%
%ADD125R,0.18904X0.18904*%
%ADD126R,0.03550X0.04337*%
%ADD127R,0.04416X0.09022*%
%ADD128O,0.06306X0.05321*%
%ADD129O,0.07880X0.05223*%
%ADD130C,0.00598*%
D76*
X8782Y115307D02*
D03*
Y116685D02*
D03*
X6419D02*
D03*
Y115307D02*
D03*
D87*
X104625Y82231D02*
D03*
X107775D02*
D03*
D88*
X106200Y86168D02*
D03*
D89*
X128402Y142300D02*
D03*
X126198D02*
D03*
X117676Y135784D02*
D03*
X119881D02*
D03*
X154802Y69323D02*
D03*
X152598D02*
D03*
X65898Y112800D02*
D03*
X68102D02*
D03*
X83802Y92900D02*
D03*
X81598D02*
D03*
X209902Y42573D02*
D03*
X207698D02*
D03*
X117676Y138484D02*
D03*
X119881D02*
D03*
D90*
X58525Y182100D02*
D03*
X61675D02*
D03*
D91*
X66793Y187612D02*
D03*
X53407D02*
D03*
D92*
X92400Y31150D02*
D03*
Y13650D02*
D03*
X82400Y31150D02*
D03*
Y13650D02*
D03*
X72400Y31150D02*
D03*
Y13650D02*
D03*
X62400Y31150D02*
D03*
Y13650D02*
D03*
X52400Y31150D02*
D03*
Y13650D02*
D03*
X159400Y31150D02*
D03*
Y13650D02*
D03*
X149400Y31150D02*
D03*
Y13650D02*
D03*
X139400Y31150D02*
D03*
Y13650D02*
D03*
X129400Y31150D02*
D03*
Y13650D02*
D03*
X119400Y31150D02*
D03*
Y13650D02*
D03*
X89000Y170250D02*
D03*
Y187750D02*
D03*
X99000Y170250D02*
D03*
Y187750D02*
D03*
X109000Y170250D02*
D03*
Y187750D02*
D03*
X119000Y170250D02*
D03*
Y187750D02*
D03*
X129000Y170250D02*
D03*
Y187750D02*
D03*
D93*
X31150Y149500D02*
D03*
X13650D02*
D03*
X31150Y159500D02*
D03*
X13650D02*
D03*
X31150Y169500D02*
D03*
X13650D02*
D03*
X31150Y179500D02*
D03*
X13650D02*
D03*
X31150Y189500D02*
D03*
X13650D02*
D03*
D94*
X116121Y143284D02*
D03*
X121436D02*
D03*
D95*
X134100Y125963D02*
D03*
X132132D02*
D03*
X130163D02*
D03*
X128194D02*
D03*
X126226D02*
D03*
X124258D02*
D03*
X134100Y127931D02*
D03*
X132132D02*
D03*
X130163D02*
D03*
X128194D02*
D03*
X126226D02*
D03*
X124258D02*
D03*
X134100Y129900D02*
D03*
X132132D02*
D03*
X130163D02*
D03*
X128194D02*
D03*
X126226D02*
D03*
X124258D02*
D03*
X134100Y131869D02*
D03*
X132132D02*
D03*
X130163D02*
D03*
X128194D02*
D03*
X126226D02*
D03*
X124258D02*
D03*
X134100Y133837D02*
D03*
X132132D02*
D03*
X130163D02*
D03*
X128194D02*
D03*
X126226D02*
D03*
X124258D02*
D03*
X134100Y135805D02*
D03*
X132132D02*
D03*
X130163D02*
D03*
X128194D02*
D03*
X126226D02*
D03*
X124258D02*
D03*
D96*
X132200Y139619D02*
D03*
Y141981D02*
D03*
X111179Y129803D02*
D03*
Y132165D02*
D03*
X153200Y73761D02*
D03*
Y76123D02*
D03*
X147900Y76204D02*
D03*
Y73842D02*
D03*
X168900Y75323D02*
D03*
Y77685D02*
D03*
X155000Y56042D02*
D03*
Y58404D02*
D03*
X190800Y47435D02*
D03*
Y45073D02*
D03*
X204300Y51935D02*
D03*
Y49573D02*
D03*
X154100Y83742D02*
D03*
Y86104D02*
D03*
X59500Y152419D02*
D03*
Y154781D02*
D03*
X178500Y56719D02*
D03*
Y59081D02*
D03*
X111200Y83119D02*
D03*
Y85481D02*
D03*
X87200Y129819D02*
D03*
Y132181D02*
D03*
X89700Y129819D02*
D03*
Y132181D02*
D03*
D97*
X115779Y129982D02*
D03*
Y132187D02*
D03*
X76700Y85002D02*
D03*
Y82798D02*
D03*
X91900Y82098D02*
D03*
Y84302D02*
D03*
X72000Y97698D02*
D03*
Y99902D02*
D03*
X103700Y97298D02*
D03*
Y99502D02*
D03*
X60700Y102298D02*
D03*
Y104502D02*
D03*
X120479Y132087D02*
D03*
Y129882D02*
D03*
X102500Y122402D02*
D03*
Y120198D02*
D03*
X9600Y105695D02*
D03*
Y107900D02*
D03*
X17000Y105795D02*
D03*
Y108000D02*
D03*
D98*
X152544Y65423D02*
D03*
X158056D02*
D03*
D99*
X198981Y39073D02*
D03*
X196619D02*
D03*
X207619Y45573D02*
D03*
X209981D02*
D03*
X154881Y61423D02*
D03*
X152519D02*
D03*
X14381Y107998D02*
D03*
X12019D02*
D03*
D100*
X183389Y118873D02*
D03*
X187011D02*
D03*
X202011Y96873D02*
D03*
X198389D02*
D03*
D101*
X69068Y109487D02*
D03*
X65131D02*
D03*
X69068Y107913D02*
D03*
X67100D02*
D03*
X65131D02*
D03*
D102*
X216800Y45648D02*
D03*
Y42498D02*
D03*
D103*
X222312Y37380D02*
D03*
Y50766D02*
D03*
D104*
X82141Y81932D02*
D03*
X87259D02*
D03*
X82141Y85869D02*
D03*
X87259D02*
D03*
D105*
X171200Y104062D02*
D03*
Y107684D02*
D03*
X197700Y112684D02*
D03*
Y109062D02*
D03*
X202700Y112684D02*
D03*
Y109062D02*
D03*
X140400Y62912D02*
D03*
Y66534D02*
D03*
X144700Y62912D02*
D03*
Y66534D02*
D03*
X188800Y67912D02*
D03*
Y71534D02*
D03*
X169100Y67812D02*
D03*
Y71434D02*
D03*
X165500Y55962D02*
D03*
Y59584D02*
D03*
X172100Y55962D02*
D03*
Y59584D02*
D03*
X165700Y122889D02*
D03*
Y126511D02*
D03*
X161200Y122889D02*
D03*
Y126511D02*
D03*
X72000Y153389D02*
D03*
Y157011D02*
D03*
X79300Y153289D02*
D03*
Y156911D02*
D03*
X53500Y151889D02*
D03*
Y155511D02*
D03*
D106*
X224200Y102684D02*
D03*
X224200Y79062D02*
D03*
D107*
X213174Y85755D02*
D03*
X213174Y88314D02*
D03*
Y90873D02*
D03*
Y93432D02*
D03*
Y95991D02*
D03*
D108*
X224200Y95007D02*
D03*
Y86739D02*
D03*
D109*
X180361Y113058D02*
D03*
X182921D02*
D03*
X185479D02*
D03*
X188039D02*
D03*
Y98688D02*
D03*
X185479D02*
D03*
X182921D02*
D03*
X180361D02*
D03*
D110*
X191385Y109712D02*
D03*
Y107153D02*
D03*
Y104594D02*
D03*
Y102035D02*
D03*
X177015D02*
D03*
Y104594D02*
D03*
Y107153D02*
D03*
Y109712D02*
D03*
D111*
X184200Y105873D02*
D03*
D112*
X64900Y162268D02*
D03*
X62931D02*
D03*
Y160300D02*
D03*
X64900D02*
D03*
X62931Y158332D02*
D03*
X64900D02*
D03*
X66868Y162268D02*
D03*
Y160300D02*
D03*
Y158332D02*
D03*
D113*
X195997Y47010D02*
D03*
D114*
X195800Y45042D02*
D03*
Y43073D02*
D03*
X200327Y47010D02*
D03*
Y45042D02*
D03*
Y43073D02*
D03*
D115*
X200787Y10726D02*
D03*
Y26474D02*
D03*
X174213Y10726D02*
D03*
Y26474D02*
D03*
X191913Y188474D02*
D03*
Y172726D02*
D03*
X218487Y188474D02*
D03*
Y172726D02*
D03*
D116*
X197247Y88373D02*
D03*
X203153D02*
D03*
X197247Y82873D02*
D03*
X203153D02*
D03*
X183753Y71523D02*
D03*
X177847D02*
D03*
D117*
X212570Y108873D02*
D03*
X208830D02*
D03*
D118*
X157676Y82698D02*
D03*
Y84272D02*
D03*
X159250D02*
D03*
Y82698D02*
D03*
X160825D02*
D03*
X157676Y81123D02*
D03*
X160825D02*
D03*
X157676Y79548D02*
D03*
Y77973D02*
D03*
X159250Y81123D02*
D03*
Y79548D02*
D03*
X160825D02*
D03*
X159250Y77973D02*
D03*
X160825D02*
D03*
X162400Y84272D02*
D03*
X160825D02*
D03*
X162400Y81123D02*
D03*
Y82698D02*
D03*
X163975Y84272D02*
D03*
Y81123D02*
D03*
Y82698D02*
D03*
X162400Y79548D02*
D03*
Y77973D02*
D03*
X163975Y79548D02*
D03*
Y77973D02*
D03*
D119*
X136779Y106557D02*
D03*
Y115612D02*
D03*
D120*
X146979Y127893D02*
D03*
Y116476D02*
D03*
D121*
X155400Y122043D02*
D03*
Y127357D02*
D03*
D122*
X194241Y52431D02*
D03*
X196800D02*
D03*
X199359D02*
D03*
Y59715D02*
D03*
X196800D02*
D03*
X194241D02*
D03*
D123*
X99110Y101739D02*
D03*
Y103313D02*
D03*
Y104888D02*
D03*
Y106463D02*
D03*
Y108038D02*
D03*
Y109613D02*
D03*
Y111187D02*
D03*
Y112762D02*
D03*
Y114337D02*
D03*
Y115912D02*
D03*
Y117487D02*
D03*
Y119061D02*
D03*
X75291D02*
D03*
Y117487D02*
D03*
Y115912D02*
D03*
Y114337D02*
D03*
Y112762D02*
D03*
Y111187D02*
D03*
Y109613D02*
D03*
Y108038D02*
D03*
Y106463D02*
D03*
Y104888D02*
D03*
Y103313D02*
D03*
Y101739D02*
D03*
D124*
X95861Y122309D02*
D03*
X94287D02*
D03*
X92712D02*
D03*
X91137D02*
D03*
X89562D02*
D03*
X87987D02*
D03*
X86413D02*
D03*
X84838D02*
D03*
X83263D02*
D03*
X81688D02*
D03*
X80113D02*
D03*
X78539D02*
D03*
Y98491D02*
D03*
X80113D02*
D03*
X81688D02*
D03*
X83263D02*
D03*
X84838D02*
D03*
X86413D02*
D03*
X87987D02*
D03*
X89562D02*
D03*
X91137D02*
D03*
X92712D02*
D03*
X94287D02*
D03*
X95861D02*
D03*
D125*
X87200Y110400D02*
D03*
D126*
X198665Y133253D02*
D03*
X198665Y127347D02*
D03*
X194335Y127347D02*
D03*
X194335Y133253D02*
D03*
X219165Y133253D02*
D03*
X219165Y127347D02*
D03*
X214835Y127347D02*
D03*
X214835Y133253D02*
D03*
X198665Y156253D02*
D03*
X198665Y150347D02*
D03*
X194335Y150347D02*
D03*
X194335Y156253D02*
D03*
X218665Y156353D02*
D03*
X218665Y150447D02*
D03*
X214335Y150447D02*
D03*
X214335Y156353D02*
D03*
D127*
X167200Y172832D02*
D03*
Y184368D02*
D03*
X157200D02*
D03*
Y172832D02*
D03*
X147200Y184368D02*
D03*
Y172832D02*
D03*
X177200D02*
D03*
Y184368D02*
D03*
D128*
X212586Y100716D02*
D03*
X212783Y81031D02*
D03*
D129*
X224198Y105046D02*
D03*
X224200Y76700D02*
D03*
D130*
X94287Y103313D02*
D03*
X89562D02*
D03*
X84838D02*
D03*
X80113D02*
D03*
X94287Y108038D02*
D03*
X89562D02*
D03*
X84838D02*
D03*
X80113D02*
D03*
X94287Y112762D02*
D03*
X89562D02*
D03*
X84838D02*
D03*
X80113D02*
D03*
X94287Y117487D02*
D03*
X89562D02*
D03*
X84838D02*
D03*
X80113D02*
D03*
M02*
