G04 Layer_Color=8421504*
%FSLAX25Y25*%
%MOIN*%
G70*
G01*
G75*
%ADD10R,0.01417X0.01969*%
%ADD11R,0.01575X0.01969*%
%ADD12R,0.01260X0.01260*%
%ADD13R,0.01969X0.04331*%
%ADD14R,0.04724X0.06693*%
%ADD15R,0.05000X0.15000*%
%ADD19R,0.15000X0.05000*%
%ADD20R,0.03543X0.03937*%
%ADD22R,0.01378X0.01181*%
%ADD23R,0.01260X0.01260*%
%ADD24R,0.02795X0.03622*%
%ADD25R,0.01181X0.01378*%
%ADD26R,0.02362X0.02520*%
%ADD27C,0.00866*%
%ADD28R,0.04331X0.01969*%
%ADD29R,0.06693X0.04724*%
%ADD30R,0.02953X0.02559*%
%ADD31R,0.02520X0.02362*%
%ADD32R,0.07480X0.04724*%
%ADD33R,0.05315X0.01575*%
%ADD34R,0.07480X0.06299*%
%ADD35R,0.01181X0.02835*%
%ADD36R,0.02835X0.01181*%
%ADD38C,0.01083*%
%ADD39R,0.03347X0.01102*%
%ADD40R,0.02953X0.01102*%
%ADD41R,0.10827X0.05512*%
%ADD42R,0.03150X0.03150*%
%ADD43R,0.02165X0.02362*%
G04:AMPARAMS|DCode=44|XSize=9mil|YSize=9mil|CornerRadius=4.5mil|HoleSize=0mil|Usage=FLASHONLY|Rotation=0.000|XOffset=0mil|YOffset=0mil|HoleType=Round|Shape=RoundedRectangle|*
%AMROUNDEDRECTD44*
21,1,0.00900,0.00000,0,0,0.0*
21,1,0.00000,0.00900,0,0,0.0*
1,1,0.00900,0.00000,0.00000*
1,1,0.00900,0.00000,0.00000*
1,1,0.00900,0.00000,0.00000*
1,1,0.00900,0.00000,0.00000*
%
%ADD44ROUNDEDRECTD44*%
%ADD45R,0.09055X0.03347*%
%ADD46R,0.04724X0.04921*%
%ADD47R,0.03937X0.03543*%
%ADD48R,0.01575X0.02598*%
%ADD49O,0.02559X0.00787*%
%ADD50O,0.00787X0.02559*%
%ADD51R,0.18504X0.18504*%
%ADD52R,0.03150X0.03937*%
%ADD53R,0.04016X0.08622*%
%ADD75C,0.00197*%
%ADD76R,0.01181X0.00984*%
%ADD77R,0.00591X0.00197*%
%ADD78R,0.00197X0.00591*%
%ADD79R,0.00591X0.00591*%
%ADD80R,0.00591X0.00197*%
%ADD81R,0.00197X0.00591*%
%ADD82R,0.00197X0.00591*%
%ADD83R,0.00591X0.00591*%
%ADD84R,0.00197X0.00591*%
%ADD85R,0.07480X0.07480*%
%ADD86C,0.00000*%
D10*
X104625Y82231D02*
D03*
X107775D02*
D03*
D11*
X106200Y86168D02*
D03*
D12*
X128402Y142300D02*
D03*
X126198D02*
D03*
X117676Y135784D02*
D03*
X119881D02*
D03*
X154802Y69323D02*
D03*
X152598D02*
D03*
X65898Y112800D02*
D03*
X68102D02*
D03*
X83802Y92900D02*
D03*
X81598D02*
D03*
X209902Y42573D02*
D03*
X207698D02*
D03*
X117676Y138484D02*
D03*
X119881D02*
D03*
D13*
X58525Y182100D02*
D03*
X61675D02*
D03*
D14*
X66793Y187612D02*
D03*
X53407D02*
D03*
D15*
X92400Y31150D02*
D03*
Y13650D02*
D03*
X82400Y31150D02*
D03*
Y13650D02*
D03*
X72400Y31150D02*
D03*
Y13650D02*
D03*
X62400Y31150D02*
D03*
Y13650D02*
D03*
X52400Y31150D02*
D03*
Y13650D02*
D03*
X159400Y31150D02*
D03*
Y13650D02*
D03*
X149400Y31150D02*
D03*
Y13650D02*
D03*
X139400Y31150D02*
D03*
Y13650D02*
D03*
X129400Y31150D02*
D03*
Y13650D02*
D03*
X119400Y31150D02*
D03*
Y13650D02*
D03*
X89000Y170250D02*
D03*
Y187750D02*
D03*
X99000Y170250D02*
D03*
Y187750D02*
D03*
X109000Y170250D02*
D03*
Y187750D02*
D03*
X119000Y170250D02*
D03*
Y187750D02*
D03*
X129000Y170250D02*
D03*
Y187750D02*
D03*
D19*
X31150Y149500D02*
D03*
X13650D02*
D03*
X31150Y159500D02*
D03*
X13650D02*
D03*
X31150Y169500D02*
D03*
X13650D02*
D03*
X31150Y179500D02*
D03*
X13650D02*
D03*
X31150Y189500D02*
D03*
X13650D02*
D03*
D20*
X116121Y143284D02*
D03*
X121436D02*
D03*
D22*
X132200Y139619D02*
D03*
Y141981D02*
D03*
X111179Y129803D02*
D03*
Y132165D02*
D03*
X153200Y73761D02*
D03*
Y76123D02*
D03*
X147900Y76204D02*
D03*
Y73842D02*
D03*
X168900Y75323D02*
D03*
Y77685D02*
D03*
X155000Y56042D02*
D03*
Y58404D02*
D03*
X190800Y47435D02*
D03*
Y45073D02*
D03*
X204300Y51935D02*
D03*
Y49573D02*
D03*
X154100Y83742D02*
D03*
Y86104D02*
D03*
X59500Y152419D02*
D03*
Y154781D02*
D03*
X178500Y56719D02*
D03*
Y59081D02*
D03*
X111200Y83119D02*
D03*
Y85481D02*
D03*
X87200Y129819D02*
D03*
Y132181D02*
D03*
X89700Y129819D02*
D03*
Y132181D02*
D03*
D23*
X115779Y129982D02*
D03*
Y132187D02*
D03*
X76700Y85002D02*
D03*
Y82798D02*
D03*
X91900Y82098D02*
D03*
Y84302D02*
D03*
X72000Y97698D02*
D03*
Y99902D02*
D03*
X103700Y97298D02*
D03*
Y99502D02*
D03*
X60700Y102298D02*
D03*
Y104502D02*
D03*
X120479Y132087D02*
D03*
Y129882D02*
D03*
X102500Y122402D02*
D03*
Y120198D02*
D03*
X9600Y105695D02*
D03*
Y107900D02*
D03*
X17000Y105795D02*
D03*
Y108000D02*
D03*
D24*
X152544Y65423D02*
D03*
X158056D02*
D03*
D25*
X198981Y39073D02*
D03*
X196619D02*
D03*
X207619Y45573D02*
D03*
X209981D02*
D03*
X154881Y61423D02*
D03*
X152519D02*
D03*
X14381Y107998D02*
D03*
X12019D02*
D03*
D26*
X183389Y118873D02*
D03*
X187011D02*
D03*
X202011Y96873D02*
D03*
X198389D02*
D03*
D27*
X69068Y109487D02*
D03*
X65131D02*
D03*
X69068Y107913D02*
D03*
X67100D02*
D03*
X65131D02*
D03*
D28*
X216800Y45648D02*
D03*
Y42498D02*
D03*
D29*
X222312Y37380D02*
D03*
Y50766D02*
D03*
D30*
X82141Y81932D02*
D03*
X87259D02*
D03*
X82141Y85869D02*
D03*
X87259D02*
D03*
D31*
X171200Y104062D02*
D03*
Y107684D02*
D03*
X197700Y112684D02*
D03*
Y109062D02*
D03*
X202700Y112684D02*
D03*
Y109062D02*
D03*
X140400Y62912D02*
D03*
Y66534D02*
D03*
X144700Y62912D02*
D03*
Y66534D02*
D03*
X188800Y67912D02*
D03*
Y71534D02*
D03*
X169100Y67812D02*
D03*
Y71434D02*
D03*
X165500Y55962D02*
D03*
Y59584D02*
D03*
X172100Y55962D02*
D03*
Y59584D02*
D03*
X165700Y122889D02*
D03*
Y126511D02*
D03*
X161200Y122889D02*
D03*
Y126511D02*
D03*
X72000Y153389D02*
D03*
Y157011D02*
D03*
X79300Y153289D02*
D03*
Y156911D02*
D03*
X53500Y151889D02*
D03*
Y155511D02*
D03*
D32*
X224200Y102684D02*
D03*
X224200Y79062D02*
D03*
D33*
X213174Y85755D02*
D03*
X213174Y88314D02*
D03*
Y90873D02*
D03*
Y93432D02*
D03*
Y95991D02*
D03*
D34*
X224200Y95007D02*
D03*
Y86739D02*
D03*
D35*
X180361Y113058D02*
D03*
X182921D02*
D03*
X185479D02*
D03*
X188039D02*
D03*
Y98688D02*
D03*
X185479D02*
D03*
X182921D02*
D03*
X180361D02*
D03*
D36*
X191385Y109712D02*
D03*
Y107153D02*
D03*
Y104594D02*
D03*
Y102035D02*
D03*
X177015D02*
D03*
Y104594D02*
D03*
Y107153D02*
D03*
Y109712D02*
D03*
D38*
X64900Y162268D02*
D03*
X62931D02*
D03*
Y160300D02*
D03*
X64900D02*
D03*
X62931Y158332D02*
D03*
X64900D02*
D03*
X66868Y162268D02*
D03*
Y160300D02*
D03*
Y158332D02*
D03*
D39*
X195997Y47010D02*
D03*
D40*
X195800Y45042D02*
D03*
Y43073D02*
D03*
X200327Y47010D02*
D03*
Y45042D02*
D03*
Y43073D02*
D03*
D41*
X200787Y10726D02*
D03*
Y26474D02*
D03*
X174213Y10726D02*
D03*
Y26474D02*
D03*
X191913Y188474D02*
D03*
Y172726D02*
D03*
X218487Y188474D02*
D03*
Y172726D02*
D03*
D42*
X197247Y88373D02*
D03*
X203153D02*
D03*
X197247Y82873D02*
D03*
X203153D02*
D03*
X183753Y71523D02*
D03*
X177847D02*
D03*
D43*
X212570Y108873D02*
D03*
X208830D02*
D03*
D44*
X157676Y82698D02*
D03*
Y84272D02*
D03*
X159250D02*
D03*
Y82698D02*
D03*
X160825D02*
D03*
X157676Y81123D02*
D03*
X160825D02*
D03*
X157676Y79548D02*
D03*
Y77973D02*
D03*
X159250Y81123D02*
D03*
Y79548D02*
D03*
X160825D02*
D03*
X159250Y77973D02*
D03*
X160825D02*
D03*
X162400Y84272D02*
D03*
X160825D02*
D03*
X162400Y81123D02*
D03*
Y82698D02*
D03*
X163975Y84272D02*
D03*
Y81123D02*
D03*
Y82698D02*
D03*
X162400Y79548D02*
D03*
Y77973D02*
D03*
X163975Y79548D02*
D03*
Y77973D02*
D03*
D45*
X136779Y106557D02*
D03*
Y115612D02*
D03*
D46*
X146979Y127893D02*
D03*
Y116476D02*
D03*
D47*
X155400Y122043D02*
D03*
Y127357D02*
D03*
D48*
X194241Y52431D02*
D03*
X196800D02*
D03*
X199359D02*
D03*
Y59715D02*
D03*
X196800D02*
D03*
X194241D02*
D03*
D49*
X99110Y101739D02*
D03*
Y103313D02*
D03*
Y104888D02*
D03*
Y106463D02*
D03*
Y108038D02*
D03*
Y109613D02*
D03*
Y111187D02*
D03*
Y112762D02*
D03*
Y114337D02*
D03*
Y115912D02*
D03*
Y117487D02*
D03*
Y119061D02*
D03*
X75291D02*
D03*
Y117487D02*
D03*
Y115912D02*
D03*
Y114337D02*
D03*
Y112762D02*
D03*
Y111187D02*
D03*
Y109613D02*
D03*
Y108038D02*
D03*
Y106463D02*
D03*
Y104888D02*
D03*
Y103313D02*
D03*
Y101739D02*
D03*
D50*
X95861Y122309D02*
D03*
X94287D02*
D03*
X92712D02*
D03*
X91137D02*
D03*
X89562D02*
D03*
X87987D02*
D03*
X86413D02*
D03*
X84838D02*
D03*
X83263D02*
D03*
X81688D02*
D03*
X80113D02*
D03*
X78539D02*
D03*
Y98491D02*
D03*
X80113D02*
D03*
X81688D02*
D03*
X83263D02*
D03*
X84838D02*
D03*
X86413D02*
D03*
X87987D02*
D03*
X89562D02*
D03*
X91137D02*
D03*
X92712D02*
D03*
X94287D02*
D03*
X95861D02*
D03*
D51*
X87200Y110400D02*
D03*
D52*
X198665Y133253D02*
D03*
X198665Y127347D02*
D03*
X194335Y127347D02*
D03*
X194335Y133253D02*
D03*
X219165Y133253D02*
D03*
X219165Y127347D02*
D03*
X214835Y127347D02*
D03*
X214835Y133253D02*
D03*
X198665Y156253D02*
D03*
X198665Y150347D02*
D03*
X194335Y150347D02*
D03*
X194335Y156253D02*
D03*
X218665Y156353D02*
D03*
X218665Y150447D02*
D03*
X214335Y150447D02*
D03*
X214335Y156353D02*
D03*
D53*
X167200Y172832D02*
D03*
Y184368D02*
D03*
X157200D02*
D03*
Y172832D02*
D03*
X147200Y184368D02*
D03*
Y172832D02*
D03*
X177200D02*
D03*
Y184368D02*
D03*
D75*
X133903Y126258D02*
G03*
X133903Y126258I-98J0D01*
G01*
X134494Y125668D02*
G03*
X134494Y125668I-98J0D01*
G01*
Y126258D02*
G03*
X134494Y126258I-98J0D01*
G01*
X133903Y125668D02*
G03*
X133903Y125668I-98J0D01*
G01*
X131935Y126258D02*
G03*
X131935Y126258I-98J0D01*
G01*
X132525Y125668D02*
G03*
X132525Y125668I-98J0D01*
G01*
Y126258D02*
G03*
X132525Y126258I-98J0D01*
G01*
X131935Y125668D02*
G03*
X131935Y125668I-98J0D01*
G01*
X129966Y126258D02*
G03*
X129966Y126258I-98J0D01*
G01*
X130557Y125668D02*
G03*
X130557Y125668I-98J0D01*
G01*
Y126258D02*
G03*
X130557Y126258I-98J0D01*
G01*
X129966Y125668D02*
G03*
X129966Y125668I-98J0D01*
G01*
X127998Y126258D02*
G03*
X127998Y126258I-98J0D01*
G01*
X128588Y125668D02*
G03*
X128588Y125668I-98J0D01*
G01*
Y126258D02*
G03*
X128588Y126258I-98J0D01*
G01*
X127998Y125668D02*
G03*
X127998Y125668I-98J0D01*
G01*
X126029Y126258D02*
G03*
X126029Y126258I-98J0D01*
G01*
X126620Y125668D02*
G03*
X126620Y125668I-98J0D01*
G01*
Y126258D02*
G03*
X126620Y126258I-98J0D01*
G01*
X126029Y125668D02*
G03*
X126029Y125668I-98J0D01*
G01*
X124061Y126258D02*
G03*
X124061Y126258I-98J0D01*
G01*
X124651Y125668D02*
G03*
X124651Y125668I-98J0D01*
G01*
Y126258D02*
G03*
X124651Y126258I-98J0D01*
G01*
X124061Y125668D02*
G03*
X124061Y125668I-98J0D01*
G01*
X133903Y128227D02*
G03*
X133903Y128227I-98J0D01*
G01*
X134494Y127636D02*
G03*
X134494Y127636I-98J0D01*
G01*
Y128227D02*
G03*
X134494Y128227I-98J0D01*
G01*
X133903Y127636D02*
G03*
X133903Y127636I-98J0D01*
G01*
X131935Y128227D02*
G03*
X131935Y128227I-98J0D01*
G01*
X132525Y127636D02*
G03*
X132525Y127636I-98J0D01*
G01*
Y128227D02*
G03*
X132525Y128227I-98J0D01*
G01*
X131935Y127636D02*
G03*
X131935Y127636I-98J0D01*
G01*
X129966Y128227D02*
G03*
X129966Y128227I-98J0D01*
G01*
X130557Y127636D02*
G03*
X130557Y127636I-98J0D01*
G01*
Y128227D02*
G03*
X130557Y128227I-98J0D01*
G01*
X129966Y127636D02*
G03*
X129966Y127636I-98J0D01*
G01*
X127998Y128227D02*
G03*
X127998Y128227I-98J0D01*
G01*
X128588Y127636D02*
G03*
X128588Y127636I-98J0D01*
G01*
Y128227D02*
G03*
X128588Y128227I-98J0D01*
G01*
X127998Y127636D02*
G03*
X127998Y127636I-98J0D01*
G01*
X126029Y128227D02*
G03*
X126029Y128227I-98J0D01*
G01*
X126620Y127636D02*
G03*
X126620Y127636I-98J0D01*
G01*
Y128227D02*
G03*
X126620Y128227I-98J0D01*
G01*
X126029Y127636D02*
G03*
X126029Y127636I-98J0D01*
G01*
X124061Y128227D02*
G03*
X124061Y128227I-98J0D01*
G01*
X124651Y127636D02*
G03*
X124651Y127636I-98J0D01*
G01*
Y128227D02*
G03*
X124651Y128227I-98J0D01*
G01*
X124061Y127636D02*
G03*
X124061Y127636I-98J0D01*
G01*
X133903Y130195D02*
G03*
X133903Y130195I-98J0D01*
G01*
X134494Y129605D02*
G03*
X134494Y129605I-98J0D01*
G01*
Y130195D02*
G03*
X134494Y130195I-98J0D01*
G01*
X133903Y129605D02*
G03*
X133903Y129605I-98J0D01*
G01*
X131935Y130195D02*
G03*
X131935Y130195I-98J0D01*
G01*
X132525Y129605D02*
G03*
X132525Y129605I-98J0D01*
G01*
Y130195D02*
G03*
X132525Y130195I-98J0D01*
G01*
X131935Y129605D02*
G03*
X131935Y129605I-98J0D01*
G01*
X129966Y130195D02*
G03*
X129966Y130195I-98J0D01*
G01*
X130557Y129605D02*
G03*
X130557Y129605I-98J0D01*
G01*
Y130195D02*
G03*
X130557Y130195I-98J0D01*
G01*
X129966Y129605D02*
G03*
X129966Y129605I-98J0D01*
G01*
X127998Y130195D02*
G03*
X127998Y130195I-98J0D01*
G01*
X128588Y129605D02*
G03*
X128588Y129605I-98J0D01*
G01*
Y130195D02*
G03*
X128588Y130195I-98J0D01*
G01*
X127998Y129605D02*
G03*
X127998Y129605I-98J0D01*
G01*
X126029Y130195D02*
G03*
X126029Y130195I-98J0D01*
G01*
X126620Y129605D02*
G03*
X126620Y129605I-98J0D01*
G01*
Y130195D02*
G03*
X126620Y130195I-98J0D01*
G01*
X126029Y129605D02*
G03*
X126029Y129605I-98J0D01*
G01*
X124061Y130195D02*
G03*
X124061Y130195I-98J0D01*
G01*
X124651Y129605D02*
G03*
X124651Y129605I-98J0D01*
G01*
Y130195D02*
G03*
X124651Y130195I-98J0D01*
G01*
X124061Y129605D02*
G03*
X124061Y129605I-98J0D01*
G01*
X133903Y132164D02*
G03*
X133903Y132164I-98J0D01*
G01*
X134494Y131573D02*
G03*
X134494Y131573I-98J0D01*
G01*
Y132164D02*
G03*
X134494Y132164I-98J0D01*
G01*
X133903Y131573D02*
G03*
X133903Y131573I-98J0D01*
G01*
X131935Y132164D02*
G03*
X131935Y132164I-98J0D01*
G01*
X132525Y131573D02*
G03*
X132525Y131573I-98J0D01*
G01*
Y132164D02*
G03*
X132525Y132164I-98J0D01*
G01*
X131935Y131573D02*
G03*
X131935Y131573I-98J0D01*
G01*
X129966Y132164D02*
G03*
X129966Y132164I-98J0D01*
G01*
X130557Y131573D02*
G03*
X130557Y131573I-98J0D01*
G01*
Y132164D02*
G03*
X130557Y132164I-98J0D01*
G01*
X129966Y131573D02*
G03*
X129966Y131573I-98J0D01*
G01*
X127998Y132164D02*
G03*
X127998Y132164I-98J0D01*
G01*
X128588Y131573D02*
G03*
X128588Y131573I-98J0D01*
G01*
Y132164D02*
G03*
X128588Y132164I-98J0D01*
G01*
X127998Y131573D02*
G03*
X127998Y131573I-98J0D01*
G01*
X126029Y132164D02*
G03*
X126029Y132164I-98J0D01*
G01*
X126620Y131573D02*
G03*
X126620Y131573I-98J0D01*
G01*
Y132164D02*
G03*
X126620Y132164I-98J0D01*
G01*
X126029Y131573D02*
G03*
X126029Y131573I-98J0D01*
G01*
X124061Y132164D02*
G03*
X124061Y132164I-98J0D01*
G01*
X124651Y131573D02*
G03*
X124651Y131573I-98J0D01*
G01*
Y132164D02*
G03*
X124651Y132164I-98J0D01*
G01*
X124061Y131573D02*
G03*
X124061Y131573I-98J0D01*
G01*
X133903Y134132D02*
G03*
X133903Y134132I-98J0D01*
G01*
X134494Y133542D02*
G03*
X134494Y133542I-98J0D01*
G01*
Y134132D02*
G03*
X134494Y134132I-98J0D01*
G01*
X133903Y133542D02*
G03*
X133903Y133542I-98J0D01*
G01*
X131935Y134132D02*
G03*
X131935Y134132I-98J0D01*
G01*
X132525Y133542D02*
G03*
X132525Y133542I-98J0D01*
G01*
Y134132D02*
G03*
X132525Y134132I-98J0D01*
G01*
X131935Y133542D02*
G03*
X131935Y133542I-98J0D01*
G01*
X129966Y134132D02*
G03*
X129966Y134132I-98J0D01*
G01*
X130557Y133542D02*
G03*
X130557Y133542I-98J0D01*
G01*
Y134132D02*
G03*
X130557Y134132I-98J0D01*
G01*
X129966Y133542D02*
G03*
X129966Y133542I-98J0D01*
G01*
X127998Y134132D02*
G03*
X127998Y134132I-98J0D01*
G01*
X128588Y133542D02*
G03*
X128588Y133542I-98J0D01*
G01*
Y134132D02*
G03*
X128588Y134132I-98J0D01*
G01*
X127998Y133542D02*
G03*
X127998Y133542I-98J0D01*
G01*
X126029Y134132D02*
G03*
X126029Y134132I-98J0D01*
G01*
X126620Y133542D02*
G03*
X126620Y133542I-98J0D01*
G01*
Y134132D02*
G03*
X126620Y134132I-98J0D01*
G01*
X126029Y133542D02*
G03*
X126029Y133542I-98J0D01*
G01*
X124061Y134132D02*
G03*
X124061Y134132I-98J0D01*
G01*
X124651Y133542D02*
G03*
X124651Y133542I-98J0D01*
G01*
Y134132D02*
G03*
X124651Y134132I-98J0D01*
G01*
X124061Y133542D02*
G03*
X124061Y133542I-98J0D01*
G01*
X133903Y136101D02*
G03*
X133903Y136101I-98J0D01*
G01*
X134494Y135510D02*
G03*
X134494Y135510I-98J0D01*
G01*
Y136101D02*
G03*
X134494Y136101I-98J0D01*
G01*
X133903Y135510D02*
G03*
X133903Y135510I-98J0D01*
G01*
X131935Y136101D02*
G03*
X131935Y136101I-98J0D01*
G01*
X132525Y135510D02*
G03*
X132525Y135510I-98J0D01*
G01*
Y136101D02*
G03*
X132525Y136101I-98J0D01*
G01*
X131935Y135510D02*
G03*
X131935Y135510I-98J0D01*
G01*
X129966Y136101D02*
G03*
X129966Y136101I-98J0D01*
G01*
X130557Y135510D02*
G03*
X130557Y135510I-98J0D01*
G01*
Y136101D02*
G03*
X130557Y136101I-98J0D01*
G01*
X129966Y135510D02*
G03*
X129966Y135510I-98J0D01*
G01*
X127998Y136101D02*
G03*
X127998Y136101I-98J0D01*
G01*
X128588Y135510D02*
G03*
X128588Y135510I-98J0D01*
G01*
Y136101D02*
G03*
X128588Y136101I-98J0D01*
G01*
X127998Y135510D02*
G03*
X127998Y135510I-98J0D01*
G01*
X126029Y136101D02*
G03*
X126029Y136101I-98J0D01*
G01*
X126620Y135510D02*
G03*
X126620Y135510I-98J0D01*
G01*
Y136101D02*
G03*
X126620Y136101I-98J0D01*
G01*
X126029Y135510D02*
G03*
X126029Y135510I-98J0D01*
G01*
X124061Y136101D02*
G03*
X124061Y136101I-98J0D01*
G01*
X124651Y135510D02*
G03*
X124651Y135510I-98J0D01*
G01*
Y136101D02*
G03*
X124651Y136101I-98J0D01*
G01*
X124061Y135510D02*
G03*
X124061Y135510I-98J0D01*
G01*
D76*
X6419Y116685D02*
D03*
Y115307D02*
D03*
X8782D02*
D03*
Y116685D02*
D03*
D77*
X134100Y125569D02*
D03*
X134100Y126357D02*
D03*
X124257Y125569D02*
D03*
X124258Y126357D02*
D03*
X134100Y127538D02*
D03*
Y128325D02*
D03*
X124258Y127538D02*
D03*
Y128325D02*
D03*
X134100Y129506D02*
D03*
Y130294D02*
D03*
X124258Y129506D02*
D03*
Y130294D02*
D03*
X134100Y131475D02*
D03*
Y132262D02*
D03*
X124257Y131475D02*
D03*
Y132262D02*
D03*
X134100Y133443D02*
D03*
Y134231D02*
D03*
X124257Y133443D02*
D03*
Y134231D02*
D03*
X134100Y135412D02*
D03*
X134100Y136199D02*
D03*
X124257Y135412D02*
D03*
X124258Y136199D02*
D03*
D78*
X134494Y125963D02*
D03*
X133706Y125963D02*
D03*
X132525D02*
D03*
X131738D02*
D03*
X130557D02*
D03*
X129769D02*
D03*
X128588D02*
D03*
X126620D02*
D03*
X124651D02*
D03*
X134494Y127932D02*
D03*
X133706Y127931D02*
D03*
X132525D02*
D03*
X131738D02*
D03*
X130557D02*
D03*
X129769D02*
D03*
X128588D02*
D03*
X126620D02*
D03*
X124651D02*
D03*
X134494Y129900D02*
D03*
X133706Y129900D02*
D03*
X132525D02*
D03*
X131738D02*
D03*
X130557D02*
D03*
X129769D02*
D03*
X128588D02*
D03*
X126620D02*
D03*
X124651D02*
D03*
X134494Y131868D02*
D03*
X132525Y131869D02*
D03*
X130557D02*
D03*
X128588D02*
D03*
X126620D02*
D03*
X124651D02*
D03*
X134494Y133837D02*
D03*
X132525Y133837D02*
D03*
X130557D02*
D03*
X128588D02*
D03*
X126620D02*
D03*
X124651D02*
D03*
D79*
X134100Y125963D02*
D03*
X132131Y125963D02*
D03*
X130163D02*
D03*
X128195Y125963D02*
D03*
X126226D02*
D03*
X124258Y125963D02*
D03*
X134100Y135806D02*
D03*
X132131Y135805D02*
D03*
X130163D02*
D03*
X128195Y135805D02*
D03*
X126226D02*
D03*
X124258Y135806D02*
D03*
D80*
X132131Y125569D02*
D03*
Y126357D02*
D03*
X130163Y125569D02*
D03*
Y126357D02*
D03*
X128194Y125569D02*
D03*
Y126357D02*
D03*
X126226Y125569D02*
D03*
Y126357D02*
D03*
X132131Y127538D02*
D03*
Y128325D02*
D03*
X130163Y127538D02*
D03*
Y128325D02*
D03*
X128194Y127538D02*
D03*
Y128325D02*
D03*
X126226Y127538D02*
D03*
Y128325D02*
D03*
X132131Y129506D02*
D03*
Y130294D02*
D03*
X130163Y129506D02*
D03*
Y130294D02*
D03*
X128194Y129506D02*
D03*
Y130294D02*
D03*
X126226Y129506D02*
D03*
Y130294D02*
D03*
X132131Y131475D02*
D03*
Y132262D02*
D03*
X130163Y131475D02*
D03*
Y132262D02*
D03*
X128194Y131475D02*
D03*
Y132262D02*
D03*
X126226Y131475D02*
D03*
Y132262D02*
D03*
X132131Y133443D02*
D03*
Y134231D02*
D03*
X130163Y133443D02*
D03*
Y134231D02*
D03*
X128194Y133443D02*
D03*
Y134231D02*
D03*
X126226Y133443D02*
D03*
Y134231D02*
D03*
X132131Y135412D02*
D03*
Y136199D02*
D03*
X130163Y135412D02*
D03*
Y136199D02*
D03*
X128194Y135412D02*
D03*
Y136199D02*
D03*
X126226Y135412D02*
D03*
Y136199D02*
D03*
D81*
X127801Y125963D02*
D03*
X125832D02*
D03*
X127801Y127931D02*
D03*
X125832D02*
D03*
X127801Y129900D02*
D03*
X125832D02*
D03*
X123864Y131869D02*
D03*
Y133837D02*
D03*
D82*
X123864Y125963D02*
D03*
Y127931D02*
D03*
Y129900D02*
D03*
X127801Y131869D02*
D03*
X125832D02*
D03*
X127801Y133837D02*
D03*
X125832D02*
D03*
D83*
X134100Y127932D02*
D03*
X132131Y127931D02*
D03*
X130163D02*
D03*
X128194D02*
D03*
X126226D02*
D03*
X124258Y127932D02*
D03*
X134100Y129900D02*
D03*
X132131Y129900D02*
D03*
X130163D02*
D03*
X128194D02*
D03*
X126226D02*
D03*
X124258Y129900D02*
D03*
X134100Y131868D02*
D03*
X132131Y131869D02*
D03*
X130163D02*
D03*
X128194D02*
D03*
X126226D02*
D03*
X124257Y131868D02*
D03*
X134100Y133837D02*
D03*
X132131Y133837D02*
D03*
X130163D02*
D03*
X128194D02*
D03*
X126226D02*
D03*
X124257Y133837D02*
D03*
D84*
X133706Y131869D02*
D03*
X131738D02*
D03*
X129769D02*
D03*
X133706Y133837D02*
D03*
X131738D02*
D03*
X129769D02*
D03*
X134492Y135806D02*
D03*
X133706Y135805D02*
D03*
X132525D02*
D03*
X131738D02*
D03*
X130557D02*
D03*
X129769D02*
D03*
X128588Y135805D02*
D03*
X127801D02*
D03*
X126620D02*
D03*
X125832D02*
D03*
X124651D02*
D03*
X123864Y135805D02*
D03*
D85*
X184200Y105873D02*
D03*
D86*
X134100Y125963D02*
D03*
X132132D02*
D03*
X130163D02*
D03*
X128194D02*
D03*
X126226D02*
D03*
X124258D02*
D03*
X134100Y127931D02*
D03*
X132132D02*
D03*
X130163D02*
D03*
X128194D02*
D03*
X126226D02*
D03*
X124258D02*
D03*
X134100Y129900D02*
D03*
X132132D02*
D03*
X130163D02*
D03*
X128194D02*
D03*
X126226D02*
D03*
X124258D02*
D03*
X134100Y131869D02*
D03*
X132132D02*
D03*
X130163D02*
D03*
X128194D02*
D03*
X126226D02*
D03*
X124258D02*
D03*
X134100Y133837D02*
D03*
X132132D02*
D03*
X130163D02*
D03*
X128194D02*
D03*
X126226D02*
D03*
X124258D02*
D03*
X134100Y135805D02*
D03*
X132132D02*
D03*
X130163D02*
D03*
X128194D02*
D03*
X126226D02*
D03*
X124258D02*
D03*
M02*
