M48
;Layer_Color=9474304
;FILE_FORMAT=2:5
INCH,LZ
;TYPE=PLATED
T1F00S00C0.00600
T3F00S00C0.00800
T4F00S00C0.01000
%
T01
X0222241Y0064141
X0229841Y0064641
X0228841Y0081141
X0224341Y0080641
X0143832Y0152931
Y01549
X01458
X0143832Y0158837
X0137926
X0135958Y0160805
X01379Y01649
X01439Y01691
X01462Y0167
X01469Y01803
Y0181875
X01266Y01734
X0139894Y01549
X01185Y0141
Y01377
X0093388Y0150288
X0091813Y0152487
X0090239Y0152539
X00886Y0150288
X0078568Y0183332
X00766
X0074631
X01994Y01608
X02014Y01588
Y01551
X01994Y0155
X01979Y01549
X02217Y01584
X02216Y01511
T03
X00186Y02098
X00491Y02129
X00563Y02041
X006Y01992
X0135958Y0148442
X0143832Y0148932
T04
X0015719Y012927
X0015617Y0134726
X0018616Y0134669
X0021607Y0134429
X0024607
X0027606
X0030606
X0033606
X0036606
X0039606
X0039715Y0129485
X0036715
X0033715
X0030715
X0027715
X0024715
X0021715
X0042715
X0045715
X0048715
X0051715
X0054715
X0057715
X0060715
X0063715
X0066715
X0069715
X0072715
X0075673Y0128984
X0072606Y0134429
X0069607
X0066606
X0063607
X0060606
X0057607
X0054606
X0051607
X0048607
X0045606
X0042606
M30
