M48
;Layer_Color=9474304
;FILE_FORMAT=2:5
INCH,LZ
;TYPE=PLATED
T1F00S00C0.00600
T2F00S00C0.00700
T3F00S00C0.00800
T4F00S00C0.01000
T5F00S00C0.01299
%
T01
X00982Y01165
X00997Y01214
X0099687Y0152
X0101262Y01505
X0125232Y0156869
X0137926
Y0152931
X0135958
X0139894
X0141863Y0156869
X0143832
X0141863Y0158837
X0139894
X0137926Y0160805
X01398Y01638
X01419Y0165
X01422Y01721
X01406Y01773
X01239Y01733
X01298Y0139337
X01338Y01362
X01419Y01331
X0143887Y0134613
X01405Y01294
X0083538Y0137762
X00766Y01853
X0201947Y0181253
X0202253Y0175347
X02024Y01721
X02202Y01678
X0226035Y0169335
X0230365Y0171735
T02
X00514Y01797
X00554
X008Y01816
X00766Y01901
X00854Y01644
X00839Y01627
X01037Y01644
X0108Y01627
X01266Y01605
X0163Y01247
X01616Y01232
X02173Y01333
X02292Y0143
T03
X01968Y0003
X0199
X02012
X02038
X02065Y00031
X02087
X02109
X02131
X02153
X02175
X02197
X02223
X02249Y00032
X02271
X02293
X02315
X02337
X02359
X02381
X02407
X02434
X02456
X02478
X025
X02522
X02544
X02566
X02592
X02618Y00033
X0264
X02662
X02684
X02706
X02728
X0275
X02768Y00073
Y00095
Y00117
Y00143
Y0017
Y00192
Y00214
Y00236
Y00258
Y0028
Y00302
Y00328
X02767Y00354
Y00376
Y00398
Y0042
Y00442
Y00464
Y00486
X0218726Y0028674
X0207774
X02075Y00653
X0214641Y0069341
X02166Y01021
X02101Y01045
X0198137Y0111737
X02018Y00933
X0193413Y0090013
X01898Y0081
X0193489Y0075911
X01881Y00695
X0177188Y0074712
X01795Y00908
X01758Y00974
X01765Y01005
X01403Y01085
X01334Y01127
X0123432Y0112853
X01238Y0105
X0119475Y0104725
X01014Y01045
X0090402Y0110002
X00741Y00674
X01069Y00568
X01108Y00098
Y00028
X01082
X0106
X01038
X01016
X00994
X00972
X0095
X00921
X00895
X00873
X00851
X00829
X00807
X00785
X00763
X00737Y00027
X00711
X00689
X00667
X00645
X00623
X00601
X00579
X00552
X00526
X00504
X00482
X0046
X00438
X00416
X00573Y00137
X00691Y00139
X00789Y00138
X00589Y00298
X01135Y00029
X01157
X01179
X01201
X01223
X01245
X01267
X01293
X01319Y0003
X01341
X01363
X01385
X01407
X01429
X01451
X01477
X01504
X01526
X01548
X0157
X01592
X01614
X01636
X01662
X01688Y00031
X0171
X01732
X01754
X01776
X01798
X0182
X01846
X0188Y0003
X01902
X01924
X01946
X01781Y00139
X01749Y00438
X00024Y00449
Y00471
Y00493
Y00515
Y00537
Y00559
Y00581
X00023Y00607
Y00633
Y00655
Y00677
Y00699
Y00721
Y00743
Y00765
X00022Y00792
Y00818
Y0084
Y00862
Y00884
Y00906
Y00928
Y0095
X00023Y00976
Y01002
Y01024
Y01046
Y01068
Y0109
Y01112
X00024Y00423
Y00396
Y00374
Y00352
Y0033
Y00308
Y00286
Y00264
Y00238
X00025Y00212
Y0019
Y00168
Y00146
Y00124
Y00102
Y0008
Y00054
Y00025
X00047
X00069
X00091
X00113
X00135
X00157
X00183
X0021Y00026
X00232
X00254
X00276
X00298
X0032
X00342
X00368
X00394Y00027
X0018Y01272
X00106
X00023Y01271
Y01249
Y01227
Y01205
Y01183
Y01157
Y01134
Y01293
Y01315
X0005135Y013414
X0003835Y013914
Y014174
Y014394
Y014614
Y014834
Y015054
Y015274
Y015494
X0006666Y0157809
X0010635Y015674
X0012935
X0015435
X0017835Y015394
Y015134
Y014874
Y014654
Y014394
Y014174
Y013954
Y013694
X00175Y01672
X00023
Y0165
Y01628
Y01602
Y01694
Y01716
Y01738
Y0176
X00022Y01789
Y01815
Y01837
Y01859
Y01881
Y01903
Y01925
Y01947
Y01975
Y02001
Y02023
Y02045
Y02067
Y02089
Y02111
Y02133
Y02161
Y02187
Y02209
Y02231
X00066Y02232
X00088
X0011
X00132
X00154
X00176
X00198
X00224Y02233
X0025
X00272
X00294
X00316
X00338
X0036
X00382
X00409
X00435
X00457
X00479
X00943Y02161
X01016Y02224
X01038
X0106
X01082
X01104
X01126
X01148
X01174Y02225
X012
X01222
X01244
X01266
X01288
X0131
X01332
X01359
X01385
X01407
X01429
X0146Y02224
X01482
X01504
X01526
X01548
X0157
X01592
X01618Y02225
X01644
X01666
X01688
X0171
X01732
X01754
X01776
X01803
X01829
X01851
X01873
X019
X01922
X01944
X01883Y01884
X01897Y01491
X01671Y01422
X01389Y01315
X0132Y01491
X01286Y0147
X01117Y01486
X0109Y01536
X01138Y01545
X010015Y015915
X00956Y01819
X01037Y01836
X00875Y01784
X00685Y01757
X00498Y01694
X0052712Y0150288
X00543Y01441
X00563Y0142487
X00581Y0140912
X00599Y0139337
X00736Y01374
X00747Y01462
X00835
X0084363Y0130037
X00789Y0129
X0080698Y0124902
X00955Y01159
X01109Y01234
X0117702Y0124502
X01206Y0168284
X01324Y01756
X0137898Y0172502
X0140102Y0169398
X01506Y01673
X01583Y02015
X0203613Y0192213
X0214353Y0181253
X0234653Y0181353
X0230187Y0192513
X02291Y02226
X02269
X02243
X02216
X02194
X02172
X0215
X02128
X02106
X02084
X02058
X02032Y02225
X0201
X01988
X01966
X02313Y02226
X0234Y02227
X02362
X02384
X02406
X02428
X0245
X02472
X02498Y02228
X02524
X02546
X02568
X0259
X02612
X02634
X02656
X02683
X02709
X02731
X02753
X02767Y02102
Y0208
Y02058
Y02036
Y02014
Y01992
Y0197
X02768Y01944
Y01918
Y01896
Y01874
Y01852
Y0183
Y01808
Y01786
Y01759
Y01733
Y01711
Y01689
X0234753Y0158253
X0214447
X02144Y01155
X0202081Y0117881
X0246389Y0124311
X0251611Y0123889
X0257791Y0119391
T04
X0223466Y0096334
X0219489Y0108989
X01483Y01007
T05
X0198137Y01013
X01942
Y0105237
Y0097363
X0190263Y01013
X0105987Y0128313
X0101262
Y0133038
X0105987
Y0137762
X0101262
X0096538
Y0133038
Y0128313
X0091813
Y0133038
Y0137762
Y0142487
X0096538
X0101262
X0105987
M30
