G04 Layer_Color=8388736*
%FSLAX25Y25*%
%MOIN*%
G70*
G01*
G75*
%ADD76R,0.01181X0.00984*%
%ADD90R,0.06699X0.07880*%
%ADD91R,0.01975X0.05715*%
%ADD92R,0.05124X0.07880*%
%ADD93R,0.01772X0.01575*%
%ADD94R,0.02762X0.02920*%
%ADD95R,0.03550X0.03550*%
G04:AMPARAMS|DCode=96|XSize=12.94mil|YSize=12.94mil|CornerRadius=6.47mil|HoleSize=0mil|Usage=FLASHONLY|Rotation=0.000|XOffset=0mil|YOffset=0mil|HoleType=Round|Shape=RoundedRectangle|*
%AMROUNDEDRECTD96*
21,1,0.01294,0.00000,0,0,0.0*
21,1,0.00000,0.01294,0,0,0.0*
1,1,0.01294,0.00000,0.00000*
1,1,0.01294,0.00000,0.00000*
1,1,0.01294,0.00000,0.00000*
1,1,0.01294,0.00000,0.00000*
%
%ADD96ROUNDEDRECTD96*%
%ADD97R,0.02920X0.02762*%
%ADD98R,0.08668X0.08668*%
%ADD99R,0.01581X0.03235*%
%ADD100R,0.03235X0.01581*%
%ADD101R,0.02762X0.02565*%
%ADD102R,0.01654X0.01654*%
%ADD103R,0.01654X0.01654*%
%ADD104C,0.01260*%
%ADD105C,0.04337*%
%ADD106C,0.01181*%
%ADD107R,0.03943X0.05518*%
%ADD108R,0.07487X0.03353*%
%ADD109R,0.07487X0.02762*%
%ADD110C,0.07093*%
%ADD111R,0.01575X0.01772*%
%ADD112R,0.03740X0.01496*%
%ADD113R,0.03347X0.01496*%
%ADD114C,0.01437*%
%ADD115C,0.01476*%
%ADD116R,0.03195X0.04022*%
%ADD117R,0.03353X0.02959*%
%ADD118O,0.05321X0.06306*%
%ADD119O,0.05223X0.07880*%
%ADD120C,0.03998*%
%ADD121C,0.03600*%
D76*
X43040Y7452D02*
D03*
Y6074D02*
D03*
X40678D02*
D03*
Y7452D02*
D03*
D90*
X-4134Y-40000D02*
D03*
X4134D02*
D03*
D91*
X5118Y-28974D02*
D03*
X2559D02*
D03*
X0D02*
D03*
X-2559D02*
D03*
X-5118Y-28974D02*
D03*
D92*
X-11811Y-40000D02*
D03*
X11811Y-40000D02*
D03*
D93*
X-26400Y2319D02*
D03*
Y4681D02*
D03*
X32500Y18881D02*
D03*
Y16519D02*
D03*
X-23100Y14981D02*
D03*
Y12619D02*
D03*
X-28800Y4681D02*
D03*
Y2319D02*
D03*
X-28400Y-3100D02*
D03*
Y-5462D02*
D03*
X-26600Y-20719D02*
D03*
Y-23081D02*
D03*
X-8200Y29919D02*
D03*
Y32281D02*
D03*
X-12800Y-2981D02*
D03*
Y-619D02*
D03*
D94*
X-12489Y-19200D02*
D03*
X-16111D02*
D03*
X21411Y1600D02*
D03*
X17789D02*
D03*
X26989Y1600D02*
D03*
X30611D02*
D03*
X3011Y-14900D02*
D03*
X-611D02*
D03*
X3011Y-19100D02*
D03*
X-611D02*
D03*
X-189Y38300D02*
D03*
X-3811D02*
D03*
X22911Y-22100D02*
D03*
X19289D02*
D03*
D95*
X-10147Y-14800D02*
D03*
X-16053D02*
D03*
X24953Y-30000D02*
D03*
X19047D02*
D03*
X25053Y-35300D02*
D03*
X19147D02*
D03*
D96*
X-16450Y-3450D02*
D03*
Y-1875D02*
D03*
X-18025Y-3450D02*
D03*
Y-1875D02*
D03*
X-16450Y1275D02*
D03*
Y-300D02*
D03*
Y2850D02*
D03*
X-18025Y1275D02*
D03*
Y-300D02*
D03*
X-19600Y2850D02*
D03*
X-18025D02*
D03*
X-19600Y-3450D02*
D03*
X-21175D02*
D03*
X-19600Y-1875D02*
D03*
X-21175D02*
D03*
Y-300D02*
D03*
X-22750Y-3450D02*
D03*
Y-1875D02*
D03*
X-19600Y-300D02*
D03*
X-22750D02*
D03*
X-19600Y1275D02*
D03*
X-21175D02*
D03*
Y2850D02*
D03*
X-22750D02*
D03*
Y1275D02*
D03*
D97*
X8300Y-11289D02*
D03*
Y-14911D02*
D03*
X-16200Y36189D02*
D03*
Y39811D02*
D03*
X-19900Y36189D02*
D03*
Y39811D02*
D03*
D98*
X20900Y-10200D02*
D03*
D99*
X17061Y-17385D02*
D03*
X19621D02*
D03*
X22179D02*
D03*
X24739D02*
D03*
Y-3015D02*
D03*
X22179D02*
D03*
X19621D02*
D03*
X17061D02*
D03*
D100*
X28085Y-14039D02*
D03*
Y-11479D02*
D03*
Y-8920D02*
D03*
Y-6361D02*
D03*
X13715D02*
D03*
Y-8920D02*
D03*
Y-11479D02*
D03*
Y-14039D02*
D03*
D101*
X-5200Y-18670D02*
D03*
Y-14930D02*
D03*
D102*
X26398Y18900D02*
D03*
X28602D02*
D03*
X26398Y16500D02*
D03*
X28602D02*
D03*
X-24398Y-17100D02*
D03*
X-26602D02*
D03*
X-22902Y9600D02*
D03*
X-20698D02*
D03*
X-30998Y26300D02*
D03*
X-33202D02*
D03*
D103*
X17800Y30302D02*
D03*
Y28098D02*
D03*
X12600Y19000D02*
D03*
Y16795D02*
D03*
X-6300Y13998D02*
D03*
Y16202D02*
D03*
X3900Y14298D02*
D03*
Y16502D02*
D03*
X-26000Y35000D02*
D03*
Y37205D02*
D03*
X-28300Y28500D02*
D03*
Y26295D02*
D03*
X-25900Y-3179D02*
D03*
Y-5384D02*
D03*
X-23400Y35900D02*
D03*
Y38105D02*
D03*
X13700Y9702D02*
D03*
Y7498D02*
D03*
X13100Y30102D02*
D03*
Y27898D02*
D03*
X26300Y7298D02*
D03*
Y9502D02*
D03*
D104*
X20137Y24425D02*
D03*
X18169D02*
D03*
X16200D02*
D03*
X20137Y22850D02*
D03*
X16200D02*
D03*
D105*
X-1300Y9400D02*
D03*
X7900Y9500D02*
D03*
D106*
X-2424Y19701D02*
D03*
X-850D02*
D03*
X-3999Y21276D02*
D03*
X-2424D02*
D03*
X-3999Y22850D02*
D03*
X725Y21276D02*
D03*
X-850D02*
D03*
X-2424Y24425D02*
D03*
X-3999D02*
D03*
X-850Y22850D02*
D03*
X-2424D02*
D03*
X-850Y24425D02*
D03*
Y26000D02*
D03*
X725Y19701D02*
D03*
X2300D02*
D03*
X3875Y21276D02*
D03*
X5450Y19701D02*
D03*
X3875D02*
D03*
X7024D02*
D03*
X8599D02*
D03*
X2300Y21276D02*
D03*
X8599D02*
D03*
X725Y22850D02*
D03*
X2300D02*
D03*
X8599Y24425D02*
D03*
Y22850D02*
D03*
X-3999Y26000D02*
D03*
X-2424Y27575D02*
D03*
X-3999D02*
D03*
X-2424Y29150D02*
D03*
X-3999D02*
D03*
X-2424Y26000D02*
D03*
X-850Y27575D02*
D03*
X725Y29150D02*
D03*
X-850D02*
D03*
X-2424Y30724D02*
D03*
X-850D02*
D03*
X-3999D02*
D03*
X-850Y32299D02*
D03*
X-2424D02*
D03*
X725D02*
D03*
Y30724D02*
D03*
X5450Y27575D02*
D03*
Y26000D02*
D03*
X2300Y29150D02*
D03*
X5450D02*
D03*
X3875D02*
D03*
X7024Y26000D02*
D03*
X8599D02*
D03*
X7024Y27575D02*
D03*
X8599D02*
D03*
Y29150D02*
D03*
X2300Y30724D02*
D03*
X3875D02*
D03*
X2300Y32299D02*
D03*
X5450Y30724D02*
D03*
X3875Y32299D02*
D03*
X7024Y29150D02*
D03*
X8599Y30724D02*
D03*
X5450Y32299D02*
D03*
X7024Y30724D02*
D03*
Y32299D02*
D03*
D107*
X-44134Y-7683D02*
D03*
Y6883D02*
D03*
D108*
X-36457Y-5223D02*
D03*
Y4423D02*
D03*
D109*
Y-400D02*
D03*
D110*
X-31200Y-25500D02*
D03*
X-23600Y-32300D02*
D03*
X-5500Y2300D02*
D03*
X-19900Y28100D02*
D03*
X-11800Y22900D02*
D03*
D111*
X-338Y-6900D02*
D03*
X-2700D02*
D03*
X-11919Y-6800D02*
D03*
X-14281D02*
D03*
X-33262Y28700D02*
D03*
X-30900D02*
D03*
X-34281Y-12000D02*
D03*
X-31919D02*
D03*
X-26119Y0D02*
D03*
X-28481D02*
D03*
D112*
X-35667Y-15131D02*
D03*
D113*
X-35864Y-17100D02*
D03*
Y-19068D02*
D03*
X-31336Y-15131D02*
D03*
Y-17100D02*
D03*
Y-19068D02*
D03*
D114*
X-36521Y13579D02*
D03*
Y15547D02*
D03*
Y17516D02*
D03*
Y19484D02*
D03*
Y21453D02*
D03*
Y23421D02*
D03*
X-34553Y13579D02*
D03*
Y15547D02*
D03*
Y17516D02*
D03*
Y19484D02*
D03*
Y21453D02*
D03*
Y23421D02*
D03*
X-32584Y13579D02*
D03*
Y15547D02*
D03*
Y17516D02*
D03*
Y19484D02*
D03*
Y21453D02*
D03*
Y23421D02*
D03*
X-30616Y13579D02*
D03*
Y15547D02*
D03*
Y17516D02*
D03*
Y19484D02*
D03*
Y21453D02*
D03*
Y23421D02*
D03*
X-28647Y13579D02*
D03*
Y15547D02*
D03*
Y17516D02*
D03*
Y19484D02*
D03*
Y21453D02*
D03*
Y23421D02*
D03*
X-26679Y13579D02*
D03*
Y15547D02*
D03*
Y17516D02*
D03*
Y19484D02*
D03*
Y21453D02*
D03*
Y23421D02*
D03*
D115*
X-12168Y40268D02*
D03*
Y38300D02*
D03*
Y36331D02*
D03*
X-10200Y40268D02*
D03*
X-8231D02*
D03*
X-10200Y38300D02*
D03*
X-8231D02*
D03*
Y36331D02*
D03*
X-10200D02*
D03*
D116*
X-27956Y-9800D02*
D03*
X-22444D02*
D03*
D117*
X17478Y6472D02*
D03*
X22596D02*
D03*
X17478Y10409D02*
D03*
X22596D02*
D03*
D118*
X-9843Y-28583D02*
D03*
X9843Y-28386D02*
D03*
D119*
X-14173Y-40000D02*
D03*
X14173Y-39998D02*
D03*
D120*
X37200Y-24200D02*
D03*
X24100Y36300D02*
D03*
X-40700Y-14700D02*
D03*
D121*
X0Y-2500D02*
D03*
M02*
