G04 Layer_Color=8421504*
%FSLAX25Y25*%
%MOIN*%
G70*
G01*
G75*
%ADD10R,0.06299X0.07480*%
%ADD11R,0.01575X0.05315*%
%ADD12R,0.04724X0.07480*%
%ADD13R,0.01378X0.01181*%
%ADD14R,0.02362X0.02520*%
%ADD15R,0.03150X0.03150*%
G04:AMPARAMS|DCode=16|XSize=9mil|YSize=9mil|CornerRadius=4.5mil|HoleSize=0mil|Usage=FLASHONLY|Rotation=0.000|XOffset=0mil|YOffset=0mil|HoleType=Round|Shape=RoundedRectangle|*
%AMROUNDEDRECTD16*
21,1,0.00900,0.00000,0,0,0.0*
21,1,0.00000,0.00900,0,0,0.0*
1,1,0.00900,0.00000,0.00000*
1,1,0.00900,0.00000,0.00000*
1,1,0.00900,0.00000,0.00000*
1,1,0.00900,0.00000,0.00000*
%
%ADD16ROUNDEDRECTD16*%
%ADD17R,0.02520X0.02362*%
%ADD19R,0.01181X0.02835*%
%ADD20R,0.02835X0.01181*%
%ADD21R,0.02362X0.02165*%
%ADD22R,0.01260X0.01260*%
%ADD23R,0.01260X0.01260*%
%ADD24C,0.00866*%
%ADD26C,0.00709*%
%ADD27R,0.03543X0.05118*%
%ADD28R,0.07087X0.02953*%
%ADD29R,0.07087X0.02362*%
%ADD34R,0.01181X0.01378*%
%ADD35R,0.03347X0.01102*%
%ADD36R,0.02953X0.01102*%
%ADD38C,0.01083*%
%ADD39R,0.02795X0.03622*%
%ADD40R,0.02953X0.02559*%
%ADD74C,0.00197*%
%ADD75R,0.07480X0.07480*%
%ADD76R,0.01181X0.00984*%
%ADD77R,0.00197X0.00591*%
%ADD78R,0.00591X0.00197*%
%ADD79R,0.00591X0.00197*%
%ADD80R,0.00591X0.00591*%
%ADD81R,0.00591X0.00591*%
%ADD82R,0.00197X0.00591*%
%ADD83R,0.00591X0.00591*%
%ADD84R,0.00591X0.00591*%
%ADD85R,0.00197X0.00591*%
%ADD86R,0.00197X0.00591*%
%ADD87R,0.00591X0.00197*%
%ADD88R,0.00591X0.00197*%
%ADD89C,0.00000*%
D10*
X-4134Y-40000D02*
D03*
X4134D02*
D03*
D11*
X5118Y-28974D02*
D03*
X2559D02*
D03*
X0D02*
D03*
X-2559D02*
D03*
X-5118Y-28974D02*
D03*
D12*
X-11811Y-40000D02*
D03*
X11811Y-40000D02*
D03*
D13*
X-26400Y2319D02*
D03*
Y4681D02*
D03*
X32500Y18881D02*
D03*
Y16519D02*
D03*
X-23100Y14981D02*
D03*
Y12619D02*
D03*
X-28800Y4681D02*
D03*
Y2319D02*
D03*
X-28400Y-3100D02*
D03*
Y-5462D02*
D03*
X-26600Y-20719D02*
D03*
Y-23081D02*
D03*
X-8200Y29919D02*
D03*
Y32281D02*
D03*
X-12800Y-2981D02*
D03*
Y-619D02*
D03*
D14*
X-12489Y-19200D02*
D03*
X-16111D02*
D03*
X21411Y1600D02*
D03*
X17789D02*
D03*
X26989Y1600D02*
D03*
X30611D02*
D03*
X3011Y-14900D02*
D03*
X-611D02*
D03*
X3011Y-19100D02*
D03*
X-611D02*
D03*
X-189Y38300D02*
D03*
X-3811D02*
D03*
X22911Y-22100D02*
D03*
X19289D02*
D03*
D15*
X-10147Y-14800D02*
D03*
X-16053D02*
D03*
X24953Y-30000D02*
D03*
X19047D02*
D03*
X25053Y-35300D02*
D03*
X19147D02*
D03*
D16*
X-16450Y-3450D02*
D03*
Y-1875D02*
D03*
X-18025Y-3450D02*
D03*
Y-1875D02*
D03*
X-16450Y1275D02*
D03*
Y-300D02*
D03*
Y2850D02*
D03*
X-18025Y1275D02*
D03*
Y-300D02*
D03*
X-19600Y2850D02*
D03*
X-18025D02*
D03*
X-19600Y-3450D02*
D03*
X-21175D02*
D03*
X-19600Y-1875D02*
D03*
X-21175D02*
D03*
Y-300D02*
D03*
X-22750Y-3450D02*
D03*
Y-1875D02*
D03*
X-19600Y-300D02*
D03*
X-22750D02*
D03*
X-19600Y1275D02*
D03*
X-21175D02*
D03*
Y2850D02*
D03*
X-22750D02*
D03*
Y1275D02*
D03*
D17*
X8300Y-11289D02*
D03*
Y-14911D02*
D03*
X-16200Y36189D02*
D03*
Y39811D02*
D03*
X-19900Y36189D02*
D03*
Y39811D02*
D03*
D19*
X17061Y-17385D02*
D03*
X19621D02*
D03*
X22179D02*
D03*
X24739D02*
D03*
Y-3015D02*
D03*
X22179D02*
D03*
X19621D02*
D03*
X17061D02*
D03*
D20*
X28085Y-14039D02*
D03*
Y-11479D02*
D03*
Y-8920D02*
D03*
Y-6361D02*
D03*
X13715D02*
D03*
Y-8920D02*
D03*
Y-11479D02*
D03*
Y-14039D02*
D03*
D21*
X-5200Y-18670D02*
D03*
Y-14930D02*
D03*
D22*
X26398Y18900D02*
D03*
X28602D02*
D03*
X26398Y16500D02*
D03*
X28602D02*
D03*
X-24398Y-17100D02*
D03*
X-26602D02*
D03*
X-22902Y9600D02*
D03*
X-20698D02*
D03*
X-30998Y26300D02*
D03*
X-33202D02*
D03*
D23*
X17800Y30302D02*
D03*
Y28098D02*
D03*
X12600Y19000D02*
D03*
Y16795D02*
D03*
X-6300Y13998D02*
D03*
Y16202D02*
D03*
X3900Y14298D02*
D03*
Y16502D02*
D03*
X-26000Y35000D02*
D03*
Y37205D02*
D03*
X-28300Y28500D02*
D03*
Y26295D02*
D03*
X-25900Y-3179D02*
D03*
Y-5384D02*
D03*
X-23400Y35900D02*
D03*
Y38105D02*
D03*
X13700Y9702D02*
D03*
Y7498D02*
D03*
X13100Y30102D02*
D03*
Y27898D02*
D03*
X26300Y7298D02*
D03*
Y9502D02*
D03*
D24*
X20137Y24425D02*
D03*
X18169D02*
D03*
X16200D02*
D03*
X20137Y22850D02*
D03*
X16200D02*
D03*
D26*
X-2424Y19701D02*
D03*
X-850D02*
D03*
X-3999Y21276D02*
D03*
X-2424D02*
D03*
X-3999Y22850D02*
D03*
X725Y21276D02*
D03*
X-850D02*
D03*
X-2424Y24425D02*
D03*
X-3999D02*
D03*
X-850Y22850D02*
D03*
X-2424D02*
D03*
X-850Y24425D02*
D03*
Y26000D02*
D03*
X725Y19701D02*
D03*
X2300D02*
D03*
X3875Y21276D02*
D03*
X5450Y19701D02*
D03*
X3875D02*
D03*
X7024D02*
D03*
X8599D02*
D03*
X2300Y21276D02*
D03*
X8599D02*
D03*
X725Y22850D02*
D03*
X2300D02*
D03*
X8599Y24425D02*
D03*
Y22850D02*
D03*
X-3999Y26000D02*
D03*
X-2424Y27575D02*
D03*
X-3999D02*
D03*
X-2424Y29150D02*
D03*
X-3999D02*
D03*
X-2424Y26000D02*
D03*
X-850Y27575D02*
D03*
X725Y29150D02*
D03*
X-850D02*
D03*
X-2424Y30724D02*
D03*
X-850D02*
D03*
X-3999D02*
D03*
X-850Y32299D02*
D03*
X-2424D02*
D03*
X725D02*
D03*
Y30724D02*
D03*
X5450Y27575D02*
D03*
Y26000D02*
D03*
X2300Y29150D02*
D03*
X5450D02*
D03*
X3875D02*
D03*
X7024Y26000D02*
D03*
X8599D02*
D03*
X7024Y27575D02*
D03*
X8599D02*
D03*
Y29150D02*
D03*
X2300Y30724D02*
D03*
X3875D02*
D03*
X2300Y32299D02*
D03*
X5450Y30724D02*
D03*
X3875Y32299D02*
D03*
X7024Y29150D02*
D03*
X8599Y30724D02*
D03*
X5450Y32299D02*
D03*
X7024Y30724D02*
D03*
Y32299D02*
D03*
D27*
X-44134Y-7683D02*
D03*
Y6883D02*
D03*
D28*
X-36457Y-5223D02*
D03*
Y4423D02*
D03*
D29*
Y-400D02*
D03*
D34*
X-338Y-6900D02*
D03*
X-2700D02*
D03*
X-11919Y-6800D02*
D03*
X-14281D02*
D03*
X-33262Y28700D02*
D03*
X-30900D02*
D03*
X-34281Y-12000D02*
D03*
X-31919D02*
D03*
X-26119Y0D02*
D03*
X-28481D02*
D03*
D35*
X-35667Y-15131D02*
D03*
D36*
X-35864Y-17100D02*
D03*
Y-19068D02*
D03*
X-31336Y-15131D02*
D03*
Y-17100D02*
D03*
Y-19068D02*
D03*
D38*
X-12168Y40268D02*
D03*
Y38300D02*
D03*
Y36331D02*
D03*
X-10200Y40268D02*
D03*
X-8231D02*
D03*
X-10200Y38300D02*
D03*
X-8231D02*
D03*
Y36331D02*
D03*
X-10200D02*
D03*
D39*
X-27956Y-9800D02*
D03*
X-22444D02*
D03*
D40*
X17478Y6472D02*
D03*
X22596D02*
D03*
X17478Y10409D02*
D03*
X22596D02*
D03*
D74*
X-36128Y13874D02*
G03*
X-36128Y13874I-98J0D01*
G01*
X-36718Y13284D02*
G03*
X-36718Y13284I-98J0D01*
G01*
X-36128D02*
G03*
X-36128Y13284I-98J0D01*
G01*
X-36718Y13874D02*
G03*
X-36718Y13874I-98J0D01*
G01*
X-36128Y15843D02*
G03*
X-36128Y15843I-98J0D01*
G01*
X-36718Y15252D02*
G03*
X-36718Y15252I-98J0D01*
G01*
X-36128D02*
G03*
X-36128Y15252I-98J0D01*
G01*
X-36718Y15843D02*
G03*
X-36718Y15843I-98J0D01*
G01*
X-36128Y17811D02*
G03*
X-36128Y17811I-98J0D01*
G01*
X-36718Y17221D02*
G03*
X-36718Y17221I-98J0D01*
G01*
X-36128D02*
G03*
X-36128Y17221I-98J0D01*
G01*
X-36718Y17811D02*
G03*
X-36718Y17811I-98J0D01*
G01*
X-36128Y19780D02*
G03*
X-36128Y19780I-98J0D01*
G01*
X-36718Y19189D02*
G03*
X-36718Y19189I-98J0D01*
G01*
X-36128D02*
G03*
X-36128Y19189I-98J0D01*
G01*
X-36718Y19780D02*
G03*
X-36718Y19780I-98J0D01*
G01*
X-36128Y21748D02*
G03*
X-36128Y21748I-98J0D01*
G01*
X-36718Y21158D02*
G03*
X-36718Y21158I-98J0D01*
G01*
X-36128D02*
G03*
X-36128Y21158I-98J0D01*
G01*
X-36718Y21748D02*
G03*
X-36718Y21748I-98J0D01*
G01*
X-36128Y23717D02*
G03*
X-36128Y23717I-98J0D01*
G01*
X-36718Y23126D02*
G03*
X-36718Y23126I-98J0D01*
G01*
X-36128D02*
G03*
X-36128Y23126I-98J0D01*
G01*
X-36718Y23717D02*
G03*
X-36718Y23717I-98J0D01*
G01*
X-34159Y13874D02*
G03*
X-34159Y13874I-98J0D01*
G01*
X-34750Y13284D02*
G03*
X-34750Y13284I-98J0D01*
G01*
X-34159D02*
G03*
X-34159Y13284I-98J0D01*
G01*
X-34750Y13874D02*
G03*
X-34750Y13874I-98J0D01*
G01*
X-34159Y15843D02*
G03*
X-34159Y15843I-98J0D01*
G01*
X-34750Y15252D02*
G03*
X-34750Y15252I-98J0D01*
G01*
X-34159D02*
G03*
X-34159Y15252I-98J0D01*
G01*
X-34750Y15843D02*
G03*
X-34750Y15843I-98J0D01*
G01*
X-34159Y17811D02*
G03*
X-34159Y17811I-98J0D01*
G01*
X-34750Y17221D02*
G03*
X-34750Y17221I-98J0D01*
G01*
X-34159D02*
G03*
X-34159Y17221I-98J0D01*
G01*
X-34750Y17811D02*
G03*
X-34750Y17811I-98J0D01*
G01*
X-34159Y19780D02*
G03*
X-34159Y19780I-98J0D01*
G01*
X-34750Y19189D02*
G03*
X-34750Y19189I-98J0D01*
G01*
X-34159D02*
G03*
X-34159Y19189I-98J0D01*
G01*
X-34750Y19780D02*
G03*
X-34750Y19780I-98J0D01*
G01*
X-34159Y21748D02*
G03*
X-34159Y21748I-98J0D01*
G01*
X-34750Y21158D02*
G03*
X-34750Y21158I-98J0D01*
G01*
X-34159D02*
G03*
X-34159Y21158I-98J0D01*
G01*
X-34750Y21748D02*
G03*
X-34750Y21748I-98J0D01*
G01*
X-34159Y23717D02*
G03*
X-34159Y23717I-98J0D01*
G01*
X-34750Y23126D02*
G03*
X-34750Y23126I-98J0D01*
G01*
X-34159D02*
G03*
X-34159Y23126I-98J0D01*
G01*
X-34750Y23717D02*
G03*
X-34750Y23717I-98J0D01*
G01*
X-32191Y13874D02*
G03*
X-32191Y13874I-98J0D01*
G01*
X-32781Y13284D02*
G03*
X-32781Y13284I-98J0D01*
G01*
X-32191D02*
G03*
X-32191Y13284I-98J0D01*
G01*
X-32781Y13874D02*
G03*
X-32781Y13874I-98J0D01*
G01*
X-32191Y15843D02*
G03*
X-32191Y15843I-98J0D01*
G01*
X-32781Y15252D02*
G03*
X-32781Y15252I-98J0D01*
G01*
X-32191D02*
G03*
X-32191Y15252I-98J0D01*
G01*
X-32781Y15843D02*
G03*
X-32781Y15843I-98J0D01*
G01*
X-32191Y17811D02*
G03*
X-32191Y17811I-98J0D01*
G01*
X-32781Y17221D02*
G03*
X-32781Y17221I-98J0D01*
G01*
X-32191D02*
G03*
X-32191Y17221I-98J0D01*
G01*
X-32781Y17811D02*
G03*
X-32781Y17811I-98J0D01*
G01*
X-32191Y19780D02*
G03*
X-32191Y19780I-98J0D01*
G01*
X-32781Y19189D02*
G03*
X-32781Y19189I-98J0D01*
G01*
X-32191D02*
G03*
X-32191Y19189I-98J0D01*
G01*
X-32781Y19780D02*
G03*
X-32781Y19780I-98J0D01*
G01*
X-32191Y21748D02*
G03*
X-32191Y21748I-98J0D01*
G01*
X-32781Y21158D02*
G03*
X-32781Y21158I-98J0D01*
G01*
X-32191D02*
G03*
X-32191Y21158I-98J0D01*
G01*
X-32781Y21748D02*
G03*
X-32781Y21748I-98J0D01*
G01*
X-32191Y23717D02*
G03*
X-32191Y23717I-98J0D01*
G01*
X-32781Y23126D02*
G03*
X-32781Y23126I-98J0D01*
G01*
X-32191D02*
G03*
X-32191Y23126I-98J0D01*
G01*
X-32781Y23717D02*
G03*
X-32781Y23717I-98J0D01*
G01*
X-30222Y13874D02*
G03*
X-30222Y13874I-98J0D01*
G01*
X-30813Y13284D02*
G03*
X-30813Y13284I-98J0D01*
G01*
X-30222D02*
G03*
X-30222Y13284I-98J0D01*
G01*
X-30813Y13874D02*
G03*
X-30813Y13874I-98J0D01*
G01*
X-30222Y15843D02*
G03*
X-30222Y15843I-98J0D01*
G01*
X-30813Y15252D02*
G03*
X-30813Y15252I-98J0D01*
G01*
X-30222D02*
G03*
X-30222Y15252I-98J0D01*
G01*
X-30813Y15843D02*
G03*
X-30813Y15843I-98J0D01*
G01*
X-30222Y17811D02*
G03*
X-30222Y17811I-98J0D01*
G01*
X-30813Y17221D02*
G03*
X-30813Y17221I-98J0D01*
G01*
X-30222D02*
G03*
X-30222Y17221I-98J0D01*
G01*
X-30813Y17811D02*
G03*
X-30813Y17811I-98J0D01*
G01*
X-30222Y19780D02*
G03*
X-30222Y19780I-98J0D01*
G01*
X-30813Y19189D02*
G03*
X-30813Y19189I-98J0D01*
G01*
X-30222D02*
G03*
X-30222Y19189I-98J0D01*
G01*
X-30813Y19780D02*
G03*
X-30813Y19780I-98J0D01*
G01*
X-30222Y21748D02*
G03*
X-30222Y21748I-98J0D01*
G01*
X-30813Y21158D02*
G03*
X-30813Y21158I-98J0D01*
G01*
X-30222D02*
G03*
X-30222Y21158I-98J0D01*
G01*
X-30813Y21748D02*
G03*
X-30813Y21748I-98J0D01*
G01*
X-30222Y23717D02*
G03*
X-30222Y23717I-98J0D01*
G01*
X-30813Y23126D02*
G03*
X-30813Y23126I-98J0D01*
G01*
X-30222D02*
G03*
X-30222Y23126I-98J0D01*
G01*
X-30813Y23717D02*
G03*
X-30813Y23717I-98J0D01*
G01*
X-28253Y13874D02*
G03*
X-28253Y13874I-98J0D01*
G01*
X-28844Y13284D02*
G03*
X-28844Y13284I-98J0D01*
G01*
X-28253D02*
G03*
X-28253Y13284I-98J0D01*
G01*
X-28844Y13874D02*
G03*
X-28844Y13874I-98J0D01*
G01*
X-28253Y15843D02*
G03*
X-28253Y15843I-98J0D01*
G01*
X-28844Y15252D02*
G03*
X-28844Y15252I-98J0D01*
G01*
X-28253D02*
G03*
X-28253Y15252I-98J0D01*
G01*
X-28844Y15843D02*
G03*
X-28844Y15843I-98J0D01*
G01*
X-28253Y17811D02*
G03*
X-28253Y17811I-98J0D01*
G01*
X-28844Y17221D02*
G03*
X-28844Y17221I-98J0D01*
G01*
X-28253D02*
G03*
X-28253Y17221I-98J0D01*
G01*
X-28844Y17811D02*
G03*
X-28844Y17811I-98J0D01*
G01*
X-28253Y19780D02*
G03*
X-28253Y19780I-98J0D01*
G01*
X-28844Y19189D02*
G03*
X-28844Y19189I-98J0D01*
G01*
X-28253D02*
G03*
X-28253Y19189I-98J0D01*
G01*
X-28844Y19780D02*
G03*
X-28844Y19780I-98J0D01*
G01*
X-28253Y21748D02*
G03*
X-28253Y21748I-98J0D01*
G01*
X-28844Y21158D02*
G03*
X-28844Y21158I-98J0D01*
G01*
X-28253D02*
G03*
X-28253Y21158I-98J0D01*
G01*
X-28844Y21748D02*
G03*
X-28844Y21748I-98J0D01*
G01*
X-28253Y23717D02*
G03*
X-28253Y23717I-98J0D01*
G01*
X-28844Y23126D02*
G03*
X-28844Y23126I-98J0D01*
G01*
X-28253D02*
G03*
X-28253Y23126I-98J0D01*
G01*
X-28844Y23717D02*
G03*
X-28844Y23717I-98J0D01*
G01*
X-26285Y13874D02*
G03*
X-26285Y13874I-98J0D01*
G01*
X-26876Y13284D02*
G03*
X-26876Y13284I-98J0D01*
G01*
X-26285D02*
G03*
X-26285Y13284I-98J0D01*
G01*
X-26876Y13874D02*
G03*
X-26876Y13874I-98J0D01*
G01*
X-26285Y15843D02*
G03*
X-26285Y15843I-98J0D01*
G01*
X-26876Y15252D02*
G03*
X-26876Y15252I-98J0D01*
G01*
X-26285D02*
G03*
X-26285Y15252I-98J0D01*
G01*
X-26876Y15843D02*
G03*
X-26876Y15843I-98J0D01*
G01*
X-26285Y17811D02*
G03*
X-26285Y17811I-98J0D01*
G01*
X-26876Y17221D02*
G03*
X-26876Y17221I-98J0D01*
G01*
X-26285D02*
G03*
X-26285Y17221I-98J0D01*
G01*
X-26876Y17811D02*
G03*
X-26876Y17811I-98J0D01*
G01*
X-26285Y19780D02*
G03*
X-26285Y19780I-98J0D01*
G01*
X-26876Y19189D02*
G03*
X-26876Y19189I-98J0D01*
G01*
X-26285D02*
G03*
X-26285Y19189I-98J0D01*
G01*
X-26876Y19780D02*
G03*
X-26876Y19780I-98J0D01*
G01*
X-26285Y21748D02*
G03*
X-26285Y21748I-98J0D01*
G01*
X-26876Y21158D02*
G03*
X-26876Y21158I-98J0D01*
G01*
X-26285D02*
G03*
X-26285Y21158I-98J0D01*
G01*
X-26876Y21748D02*
G03*
X-26876Y21748I-98J0D01*
G01*
X-26285Y23717D02*
G03*
X-26285Y23717I-98J0D01*
G01*
X-26876Y23126D02*
G03*
X-26876Y23126I-98J0D01*
G01*
X-26285D02*
G03*
X-26285Y23126I-98J0D01*
G01*
X-26876Y23717D02*
G03*
X-26876Y23717I-98J0D01*
G01*
D75*
X20900Y-10200D02*
D03*
D76*
X40678Y6074D02*
D03*
Y7452D02*
D03*
X43040D02*
D03*
Y6074D02*
D03*
D77*
X-36915Y13579D02*
D03*
X-36127Y13579D02*
D03*
X-36915Y15547D02*
D03*
X-36127D02*
D03*
X-36915Y17516D02*
D03*
X-36127D02*
D03*
X-36127Y19484D02*
D03*
Y21453D02*
D03*
X-36915Y23421D02*
D03*
X-36127Y23421D02*
D03*
X-34946Y13579D02*
D03*
X-34159D02*
D03*
X-34159Y15547D02*
D03*
Y17516D02*
D03*
X-34946Y19484D02*
D03*
X-34159D02*
D03*
X-34946Y21453D02*
D03*
X-34159D02*
D03*
X-34946Y23421D02*
D03*
X-34159D02*
D03*
X-32978Y13579D02*
D03*
X-32190D02*
D03*
X-32190Y15547D02*
D03*
Y17516D02*
D03*
X-32978Y19484D02*
D03*
X-32190D02*
D03*
X-32978Y21453D02*
D03*
X-32190D02*
D03*
X-32978Y23421D02*
D03*
X-32190D02*
D03*
X-31010Y13579D02*
D03*
X-30222D02*
D03*
Y15547D02*
D03*
Y17516D02*
D03*
X-30222Y19484D02*
D03*
Y21453D02*
D03*
X-31010Y23421D02*
D03*
X-30222D02*
D03*
X-29041Y13579D02*
D03*
X-28254D02*
D03*
Y15547D02*
D03*
Y17516D02*
D03*
X-28254Y19484D02*
D03*
Y21453D02*
D03*
X-29041Y23421D02*
D03*
X-28254D02*
D03*
X-27073Y13579D02*
D03*
X-26285Y13579D02*
D03*
X-26285Y15547D02*
D03*
Y17516D02*
D03*
Y19484D02*
D03*
Y21453D02*
D03*
X-27073Y23421D02*
D03*
X-26285Y23421D02*
D03*
D78*
X-36521Y13185D02*
D03*
X-34553D02*
D03*
X-32584D02*
D03*
X-30616Y13185D02*
D03*
X-28647D02*
D03*
D79*
X-36521Y13972D02*
D03*
Y15154D02*
D03*
Y15941D02*
D03*
Y17122D02*
D03*
Y17910D02*
D03*
X-36521Y19091D02*
D03*
Y19878D02*
D03*
Y21059D02*
D03*
Y21846D02*
D03*
Y23028D02*
D03*
Y23815D02*
D03*
X-34553Y13972D02*
D03*
Y15154D02*
D03*
Y15941D02*
D03*
Y17122D02*
D03*
Y17910D02*
D03*
X-34553Y19091D02*
D03*
Y19878D02*
D03*
Y21059D02*
D03*
Y21846D02*
D03*
Y23028D02*
D03*
Y23815D02*
D03*
X-32584Y13972D02*
D03*
Y15154D02*
D03*
Y15941D02*
D03*
Y17122D02*
D03*
Y17910D02*
D03*
X-32584Y19091D02*
D03*
Y19878D02*
D03*
Y21059D02*
D03*
Y21846D02*
D03*
Y23028D02*
D03*
Y23815D02*
D03*
X-30616Y13972D02*
D03*
Y15154D02*
D03*
Y15941D02*
D03*
Y17122D02*
D03*
Y17910D02*
D03*
X-30616Y19091D02*
D03*
Y19878D02*
D03*
Y21059D02*
D03*
Y21846D02*
D03*
Y23028D02*
D03*
Y23815D02*
D03*
X-28647Y13972D02*
D03*
Y15154D02*
D03*
Y15941D02*
D03*
Y17122D02*
D03*
Y17910D02*
D03*
X-28647Y19091D02*
D03*
Y19878D02*
D03*
Y21059D02*
D03*
Y21846D02*
D03*
Y23028D02*
D03*
Y23815D02*
D03*
D80*
X-36521Y13579D02*
D03*
Y23421D02*
D03*
X-26678Y13579D02*
D03*
Y23421D02*
D03*
D81*
X-36521Y15547D02*
D03*
Y17516D02*
D03*
X-36521Y19484D02*
D03*
Y21453D02*
D03*
X-26679Y15547D02*
D03*
Y17516D02*
D03*
X-26679Y19484D02*
D03*
Y21453D02*
D03*
D82*
X-36915Y19484D02*
D03*
Y21453D02*
D03*
X-34946Y15547D02*
D03*
Y17516D02*
D03*
X-32978Y15547D02*
D03*
Y17516D02*
D03*
D83*
X-34553Y13579D02*
D03*
Y23421D02*
D03*
X-32584Y13579D02*
D03*
Y23421D02*
D03*
X-30616Y13579D02*
D03*
Y23421D02*
D03*
X-28647Y13579D02*
D03*
Y23421D02*
D03*
D84*
X-34553Y15547D02*
D03*
Y17516D02*
D03*
X-34553Y19484D02*
D03*
Y21453D02*
D03*
X-32584Y15547D02*
D03*
Y17516D02*
D03*
X-32584Y19484D02*
D03*
Y21453D02*
D03*
X-30616Y15547D02*
D03*
Y17516D02*
D03*
X-30616Y19484D02*
D03*
Y21453D02*
D03*
X-28647Y15547D02*
D03*
Y17516D02*
D03*
X-28647Y19484D02*
D03*
Y21453D02*
D03*
D85*
X-31010Y15547D02*
D03*
Y17516D02*
D03*
X-29041Y15547D02*
D03*
Y17516D02*
D03*
X-27073Y15547D02*
D03*
Y17516D02*
D03*
D86*
X-31010Y19484D02*
D03*
Y21453D02*
D03*
X-29041Y19484D02*
D03*
Y21453D02*
D03*
X-27073Y19484D02*
D03*
Y21453D02*
D03*
D87*
X-26682Y13186D02*
D03*
D88*
X-26679Y13972D02*
D03*
Y15154D02*
D03*
Y15941D02*
D03*
Y17122D02*
D03*
Y17910D02*
D03*
X-26679Y19091D02*
D03*
Y19878D02*
D03*
Y21059D02*
D03*
Y21846D02*
D03*
Y23028D02*
D03*
X-26679Y23815D02*
D03*
D89*
X-1300Y9400D02*
D03*
X7900Y9500D02*
D03*
X-36521Y13579D02*
D03*
Y15547D02*
D03*
Y17516D02*
D03*
Y19484D02*
D03*
Y21453D02*
D03*
Y23421D02*
D03*
X-34553Y13579D02*
D03*
Y15547D02*
D03*
Y17516D02*
D03*
Y19484D02*
D03*
Y21453D02*
D03*
Y23421D02*
D03*
X-32584Y13579D02*
D03*
Y15547D02*
D03*
Y17516D02*
D03*
Y19484D02*
D03*
Y21453D02*
D03*
Y23421D02*
D03*
X-30616Y13579D02*
D03*
Y15547D02*
D03*
Y17516D02*
D03*
Y19484D02*
D03*
Y21453D02*
D03*
Y23421D02*
D03*
X-28647Y13579D02*
D03*
Y15547D02*
D03*
Y17516D02*
D03*
Y19484D02*
D03*
Y21453D02*
D03*
Y23421D02*
D03*
X-26679Y13579D02*
D03*
Y15547D02*
D03*
Y17516D02*
D03*
Y19484D02*
D03*
Y21453D02*
D03*
Y23421D02*
D03*
M02*
