G04 Layer_Physical_Order=3*
G04 Layer_Color=16440176*
%FSLAX25Y25*%
%MOIN*%
G70*
G01*
G75*
%ADD42C,0.00500*%
%ADD44C,0.00600*%
%ADD52C,0.01800*%
%ADD53C,0.01300*%
%ADD54C,0.01000*%
G36*
X-12853Y39584D02*
X-12539Y39374D01*
X-12168Y39300D01*
X-11798Y39374D01*
X-11484Y39584D01*
X-11322Y39584D01*
X-11013Y39570D01*
X-10949Y39544D01*
X-10888Y39384D01*
X-10846Y39064D01*
X-10855Y39005D01*
X-10885Y38985D01*
X-11095Y38671D01*
X-11169Y38300D01*
X-11095Y37929D01*
X-10885Y37615D01*
X-10571Y37405D01*
X-10200Y37331D01*
X-9829Y37405D01*
X-9515Y37615D01*
X-9305Y37929D01*
X-9231Y38300D01*
X-9305Y38671D01*
X-9515Y38985D01*
X-9349Y39475D01*
X-4434D01*
X-4430Y39470D01*
X-4200Y39375D01*
X2934D01*
X3201Y38875D01*
X3117Y38749D01*
X3077Y38550D01*
X5323D01*
X5283Y38749D01*
X5199Y38875D01*
X5466Y39375D01*
X19965D01*
X21838Y37503D01*
X22078Y37180D01*
X22087Y36980D01*
X22085Y36931D01*
X21960Y36300D01*
X22123Y35481D01*
X22587Y34786D01*
X23281Y34323D01*
X24100Y34160D01*
X24731Y34285D01*
X24780Y34287D01*
X24980Y34278D01*
X25303Y34038D01*
X34656Y24685D01*
X34770Y24637D01*
X34794Y24627D01*
X34798Y24623D01*
X34806Y24622D01*
X34884Y24590D01*
X34941Y24589D01*
X34991Y24610D01*
X35046Y24607D01*
X35081Y24619D01*
X35891Y23809D01*
X35978Y23603D01*
X36070Y23308D01*
X36029Y23206D01*
X35977Y23110D01*
X35982Y23094D01*
X35975Y23078D01*
X35975Y10853D01*
X35581Y10500D01*
X33789D01*
Y-9185D01*
X34858D01*
X34858Y-9185D01*
X34950Y-9341D01*
X35048Y-9685D01*
X20545Y-35138D01*
X15711D01*
X13975Y-34778D01*
X13941Y-34785D01*
X13909Y-34771D01*
X-15966Y-34780D01*
X-15998Y-34793D01*
X-16032Y-34786D01*
X-16114Y-34803D01*
X-16331Y-34738D01*
X-16841Y-34229D01*
X-16844Y-33671D01*
X-16715Y-33585D01*
X-16556Y-33346D01*
X-16505Y-33271D01*
X-16431Y-32900D01*
X-16431Y-32900D01*
D01*
Y-32900D01*
X-16348Y-32622D01*
X-16129Y-32395D01*
Y-32395D01*
X-16129D01*
X-16129Y-32395D01*
X-15815Y-32185D01*
X-15765Y-32109D01*
X-15605Y-31871D01*
X-15531Y-31500D01*
X-15605Y-31129D01*
X-15815Y-30815D01*
X-16129Y-30605D01*
X-16500Y-30531D01*
X-16871Y-30605D01*
X-17185Y-30815D01*
X-17344Y-31054D01*
X-17395Y-31129D01*
X-17469Y-31500D01*
X-17469Y-31500D01*
D01*
Y-31500D01*
X-17552Y-31778D01*
X-17771Y-32005D01*
Y-32005D01*
X-17771D01*
X-17771Y-32005D01*
X-18085Y-32215D01*
X-18135Y-32291D01*
X-18295Y-32529D01*
X-18369Y-32900D01*
X-18295Y-33271D01*
X-18085Y-33585D01*
X-18013Y-33633D01*
X-18165Y-34133D01*
X-18393D01*
X-18400Y-34131D01*
X-18407Y-34133D01*
X-19149D01*
X-19188Y-34024D01*
X-19206Y-34005D01*
X-19208Y-33979D01*
X-19287Y-33915D01*
X-19354Y-33840D01*
X-19381Y-33838D01*
X-19401Y-33822D01*
X-26414Y-31727D01*
X-34370Y-23770D01*
X-35074Y-23067D01*
X-35135Y-23042D01*
X-35184Y-22995D01*
X-35246Y-22996D01*
X-35303Y-22972D01*
X-35365Y-22998D01*
X-35432Y-22999D01*
X-35550Y-23050D01*
X-36750Y-21850D01*
X-36699Y-21732D01*
X-36698Y-21665D01*
X-36672Y-21603D01*
X-36696Y-21546D01*
X-36695Y-21484D01*
X-36742Y-21436D01*
X-36767Y-21374D01*
X-38505Y-19635D01*
X-38508Y-19625D01*
X-38405Y-19471D01*
X-38331Y-19100D01*
X-38405Y-18729D01*
X-38615Y-18415D01*
X-38929Y-18205D01*
X-39300Y-18131D01*
X-39612Y-17855D01*
X-39562Y-17213D01*
X-39569Y-17191D01*
X-39561Y-17169D01*
X-39607Y-17076D01*
X-39614Y-17054D01*
X-39639Y-16977D01*
X-39634Y-16834D01*
X-39503Y-16425D01*
X-39186Y-16214D01*
X-38999Y-15933D01*
X-38499Y-16085D01*
Y-17150D01*
X-38309Y-17609D01*
X-36159Y-19759D01*
X-35700Y-19949D01*
X-31368D01*
X-31212Y-20054D01*
X-30900Y-20116D01*
X-30588Y-20054D01*
X-30323Y-19877D01*
X-30146Y-19612D01*
X-30084Y-19300D01*
X-30146Y-18988D01*
X-29802Y-18641D01*
X-29512Y-18554D01*
X-29200Y-18616D01*
X-28888Y-18554D01*
X-28623Y-18377D01*
X-28446Y-18112D01*
X-28384Y-17800D01*
X-28432Y-17559D01*
X-28260Y-17288D01*
X-28100Y-17116D01*
X-27788Y-17054D01*
X-27523Y-16877D01*
X-27346Y-16612D01*
X-27284Y-16300D01*
X-27346Y-15988D01*
X-27523Y-15723D01*
X-27788Y-15546D01*
X-28100Y-15484D01*
X-28412Y-15546D01*
X-28568Y-15651D01*
X-33631D01*
X-34212Y-15070D01*
X-34391Y-14609D01*
X-34335Y-14475D01*
X-34201Y-14150D01*
Y-8009D01*
X-34335Y-7685D01*
X-34391Y-7550D01*
X-34451Y-7490D01*
Y3331D01*
X-31141Y6641D01*
X-30951Y7100D01*
Y9232D01*
X-30846Y9388D01*
X-30784Y9700D01*
X-30846Y10012D01*
X-31023Y10277D01*
X-31288Y10454D01*
X-31600Y10516D01*
X-31912Y10454D01*
X-31931Y10441D01*
X-32300Y10318D01*
X-32669Y10441D01*
X-32688Y10454D01*
X-33000Y10516D01*
X-33312Y10454D01*
X-33577Y10277D01*
X-33773D01*
X-34038Y10454D01*
X-34350Y10516D01*
X-34662Y10454D01*
X-34927Y10277D01*
X-35104Y10012D01*
X-35166Y9700D01*
X-35104Y9388D01*
X-34999Y9232D01*
Y7369D01*
X-37772Y4596D01*
X-38246Y4757D01*
X-38566Y7219D01*
X-38580Y7244D01*
X-38578Y7273D01*
X-38620Y7324D01*
X-38646Y7359D01*
X-38690Y7435D01*
X-38730Y7613D01*
X-38713Y8018D01*
X-38705Y8029D01*
X-38631Y8400D01*
X-38705Y8771D01*
X-38915Y9085D01*
X-38975Y9541D01*
X-38973Y9607D01*
X-38973Y9607D01*
X-38956Y9668D01*
X-38942Y9720D01*
X-38906Y9831D01*
X-38910Y9839D01*
X-38908Y9847D01*
X-39648Y15531D01*
X-39460Y16084D01*
X-36470Y19074D01*
Y24871D01*
X-36267Y25074D01*
X-36103Y25238D01*
X-36086Y25277D01*
X-36053Y25303D01*
X-36032Y25378D01*
X-36007Y25468D01*
D01*
Y25468D01*
X-35792Y25906D01*
X-35729Y26005D01*
X-35415Y26215D01*
X-35205Y26529D01*
X-34760Y26820D01*
X-34749Y26818D01*
X-34707Y26824D01*
X-34668Y26807D01*
X-34588Y26840D01*
X-34503Y26853D01*
X-34477Y26886D01*
X-34438Y26903D01*
X-32770Y28570D01*
X-30519Y30821D01*
X-30492Y30888D01*
X-30443Y30942D01*
X-30446Y30999D01*
X-30424Y31051D01*
X-30452Y31118D01*
X-30456Y31190D01*
X-30505Y31295D01*
X-29995Y31805D01*
X-29890Y31756D01*
X-29818Y31752D01*
X-29751Y31724D01*
X-29699Y31746D01*
X-29642Y31743D01*
X-29588Y31792D01*
X-29521Y31819D01*
X-21866Y39475D01*
X-13553D01*
X-13544Y39479D01*
X-13534Y39476D01*
X-13431Y39526D01*
X-13324Y39570D01*
X-13014Y39584D01*
X-12853Y39584D01*
D02*
G37*
G36*
X4074Y46564D02*
X8117Y46032D01*
X12098Y45149D01*
X15987Y43923D01*
X19754Y42362D01*
X23371Y40479D01*
X26810Y38289D01*
X30045Y35806D01*
X33051Y33051D01*
X35806Y30045D01*
X38289Y26810D01*
X40479Y23371D01*
X42362Y19754D01*
X43923Y15987D01*
X45149Y12098D01*
X45417Y10890D01*
X45104Y10500D01*
X36654Y10500D01*
X36300Y10853D01*
X36300Y23078D01*
X36550Y23283D01*
Y24800D01*
Y26178D01*
X36254Y26119D01*
X35791Y25809D01*
X35481Y25346D01*
X35428Y25079D01*
X34942Y24914D01*
X34885Y24915D01*
X25532Y34268D01*
X25581Y34765D01*
X25613Y34786D01*
X26077Y35481D01*
X26240Y36300D01*
X26077Y37119D01*
X25613Y37813D01*
X24919Y38277D01*
X24100Y38440D01*
X23281Y38277D01*
X22587Y37813D01*
X22565Y37781D01*
X22068Y37732D01*
X20100Y39700D01*
X-4200D01*
X-4300Y39800D01*
X-10783D01*
X-11200Y40268D01*
X-11274Y40639D01*
X-11484Y40953D01*
X-11798Y41163D01*
X-12168Y41237D01*
X-12539Y41163D01*
X-12853Y40953D01*
X-13063Y40639D01*
X-13137Y40268D01*
X-13553Y39800D01*
X-22000D01*
X-29751Y32049D01*
X-29915Y32127D01*
X-30163Y32344D01*
X-30122Y32550D01*
X-31250D01*
Y31422D01*
X-31044Y31463D01*
X-30827Y31214D01*
X-30749Y31051D01*
X-33000Y28800D01*
X-34668Y27132D01*
X-35201Y27270D01*
X-35218Y27289D01*
X-35415Y27585D01*
X-35729Y27795D01*
X-36100Y27869D01*
X-36471Y27795D01*
X-36785Y27585D01*
X-36995Y27271D01*
X-37069Y26900D01*
X-36995Y26529D01*
X-36785Y26215D01*
X-36489Y26018D01*
X-36470Y26001D01*
X-36332Y25468D01*
X-36753Y25047D01*
X-39980Y15564D01*
X-39230Y9805D01*
X-39600Y9369D01*
X-39971Y9295D01*
X-40285Y9085D01*
X-40495Y8771D01*
X-40569Y8400D01*
X-40495Y8029D01*
X-40285Y7715D01*
X-39971Y7505D01*
X-39600Y7431D01*
X-39430Y7465D01*
X-38888Y7177D01*
X-38441Y3741D01*
X-38499Y3600D01*
Y612D01*
X-39514Y-12412D01*
X-40037Y-12691D01*
X-40700Y-12560D01*
X-41519Y-12723D01*
X-42213Y-13186D01*
X-42677Y-13881D01*
X-42840Y-14700D01*
X-42677Y-15519D01*
X-42213Y-16214D01*
X-41519Y-16677D01*
X-40700Y-16840D01*
X-40355Y-16772D01*
X-39886Y-17188D01*
X-39981Y-18412D01*
X-39985Y-18415D01*
X-40195Y-18729D01*
X-40269Y-19100D01*
X-40195Y-19471D01*
X-39985Y-19785D01*
X-39671Y-19995D01*
X-39300Y-20069D01*
X-38929Y-19995D01*
X-38735Y-19865D01*
X-36997Y-21603D01*
X-37152Y-21961D01*
X-37229Y-22078D01*
X-37746Y-22181D01*
X-38209Y-22491D01*
X-38519Y-22954D01*
X-38578Y-23250D01*
X-37200D01*
Y-23500D01*
X-36950D01*
Y-24878D01*
X-36654Y-24819D01*
X-36191Y-24509D01*
X-35881Y-24046D01*
X-35778Y-23529D01*
X-35661Y-23452D01*
X-35303Y-23297D01*
X-34600Y-24000D01*
X-26585Y-32015D01*
X-19494Y-34133D01*
X-19286Y-34717D01*
X-19295Y-34729D01*
X-19369Y-35100D01*
X-19295Y-35471D01*
X-19085Y-35785D01*
X-18771Y-35995D01*
X-18400Y-36069D01*
X-18029Y-35995D01*
X-17715Y-35785D01*
X-17505Y-35471D01*
X-17463Y-35261D01*
X-17085Y-34943D01*
X-16964Y-34888D01*
X-16128Y-35138D01*
X-15966Y-35104D01*
X13909Y-35096D01*
X20200Y-36400D01*
X35356Y-9800D01*
X45259Y-9800D01*
X45572Y-10190D01*
X45149Y-12098D01*
X43923Y-15987D01*
X43108Y-17954D01*
X42891Y-17998D01*
X42561Y-17967D01*
X42309Y-17591D01*
X41846Y-17281D01*
X41550Y-17222D01*
Y-18600D01*
Y-19978D01*
X41697Y-19948D01*
X42025Y-20290D01*
X42053Y-20349D01*
X40479Y-23371D01*
X39804Y-24431D01*
X39332Y-24241D01*
X39340Y-24200D01*
X39177Y-23381D01*
X38713Y-22686D01*
X38019Y-22223D01*
X37200Y-22060D01*
X36381Y-22223D01*
X35686Y-22686D01*
X35223Y-23381D01*
X35060Y-24200D01*
X35223Y-25019D01*
X35686Y-25714D01*
X36381Y-26177D01*
X37200Y-26340D01*
X38019Y-26177D01*
X38158Y-26085D01*
X38523Y-26442D01*
X38289Y-26810D01*
X35806Y-30045D01*
X33051Y-33051D01*
X30045Y-35806D01*
X26810Y-38289D01*
X23371Y-40479D01*
X19754Y-42362D01*
X16158Y-43852D01*
X15905Y-43415D01*
X16107Y-43261D01*
X16542Y-42694D01*
X16815Y-42035D01*
X16908Y-41327D01*
Y-38669D01*
X16815Y-37962D01*
X16542Y-37302D01*
X16107Y-36735D01*
X15541Y-36301D01*
X14881Y-36028D01*
X14173Y-35934D01*
X13465Y-36028D01*
X12806Y-36301D01*
X12239Y-36735D01*
X11805Y-37302D01*
X11532Y-37962D01*
X11438Y-38669D01*
Y-41327D01*
X11532Y-42035D01*
X11805Y-42694D01*
X12239Y-43261D01*
X12806Y-43695D01*
X13465Y-43968D01*
X13969Y-44035D01*
X14014Y-44545D01*
X12098Y-45149D01*
X8117Y-46032D01*
X4074Y-46564D01*
X955Y-46700D01*
X-955D01*
X-4074Y-46564D01*
X-8117Y-46032D01*
X-12098Y-45149D01*
X-14009Y-44546D01*
X-13965Y-44036D01*
X-13465Y-43970D01*
X-12806Y-43697D01*
X-12239Y-43262D01*
X-11805Y-42696D01*
X-11532Y-42037D01*
X-11438Y-41329D01*
Y-38671D01*
X-11532Y-37963D01*
X-11805Y-37304D01*
X-12239Y-36737D01*
X-12806Y-36303D01*
X-13465Y-36030D01*
X-14173Y-35936D01*
X-14881Y-36030D01*
X-15541Y-36303D01*
X-16107Y-36737D01*
X-16542Y-37304D01*
X-16815Y-37963D01*
X-16908Y-38671D01*
Y-41329D01*
X-16815Y-42037D01*
X-16542Y-42696D01*
X-16107Y-43262D01*
X-15911Y-43413D01*
X-16163Y-43850D01*
X-19754Y-42362D01*
X-23371Y-40479D01*
X-26810Y-38289D01*
X-30045Y-35806D01*
X-33051Y-33051D01*
X-35806Y-30045D01*
X-38289Y-26810D01*
X-40479Y-23371D01*
X-42362Y-19754D01*
X-43923Y-15987D01*
X-45149Y-12098D01*
X-45678Y-9713D01*
Y-4662D01*
X-41181D01*
X-40951Y-4567D01*
X-40856Y-4337D01*
Y3537D01*
X-40951Y3767D01*
X-41181Y3862D01*
X-45678D01*
Y7778D01*
X-45840Y7940D01*
X-45655Y9814D01*
X-45174Y11984D01*
X-44671Y11978D01*
X-44663Y11976D01*
X-44619Y11754D01*
X-44309Y11291D01*
X-43846Y10981D01*
X-43550Y10922D01*
Y12300D01*
Y13678D01*
X-43846Y13619D01*
X-44225Y13366D01*
X-44554Y13526D01*
X-44667Y13626D01*
X-44109Y15398D01*
X-43000Y18074D01*
X-42077Y20301D01*
X-40775Y22804D01*
X-37983Y26982D01*
X-33788Y32093D01*
X-33375Y32487D01*
X-32831Y32314D01*
X-32819Y32254D01*
X-32509Y31791D01*
X-32046Y31481D01*
X-31750Y31422D01*
Y32800D01*
X-31500D01*
Y33050D01*
X-30122D01*
X-30181Y33346D01*
X-30491Y33809D01*
X-30943Y34112D01*
X-30954Y34119D01*
X-31096Y34657D01*
X-29237Y36426D01*
X-26810Y38289D01*
X-23371Y40479D01*
X-19754Y42362D01*
X-15987Y43923D01*
X-12098Y45149D01*
X-8117Y46032D01*
X-4074Y46564D01*
X0Y46742D01*
X4074Y46564D01*
D02*
G37*
%LPC*%
G36*
X5323Y38050D02*
X4450D01*
Y37177D01*
X4649Y37217D01*
X5029Y37471D01*
X5283Y37851D01*
X5323Y38050D01*
D02*
G37*
G36*
X3950D02*
X3077D01*
X3117Y37851D01*
X3371Y37471D01*
X3751Y37217D01*
X3950Y37177D01*
Y38050D01*
D02*
G37*
G36*
X7900Y38869D02*
X7529Y38795D01*
X7215Y38585D01*
X7005Y38271D01*
X6931Y37900D01*
X7005Y37529D01*
X7215Y37215D01*
X7529Y37005D01*
X7900Y36931D01*
X8271Y37005D01*
X8585Y37215D01*
X8795Y37529D01*
X8869Y37900D01*
X8795Y38271D01*
X8585Y38585D01*
X8271Y38795D01*
X7900Y38869D01*
D02*
G37*
G36*
X12300Y36969D02*
X11929Y36895D01*
X11615Y36685D01*
X11405Y36371D01*
X11331Y36000D01*
X11405Y35629D01*
X11615Y35315D01*
X11929Y35105D01*
X12300Y35031D01*
X12671Y35105D01*
X12985Y35315D01*
X13195Y35629D01*
X13269Y36000D01*
X13195Y36371D01*
X12985Y36685D01*
X12671Y36895D01*
X12300Y36969D01*
D02*
G37*
G36*
X2300Y33115D02*
X1988Y33053D01*
X1723Y32876D01*
X1302D01*
X1037Y33053D01*
X725Y33115D01*
X413Y33053D01*
X148Y32876D01*
X-28Y32611D01*
X-91Y32299D01*
X-28Y31987D01*
X148Y31722D01*
X413Y31546D01*
X725Y31484D01*
X1037Y31546D01*
X1302Y31722D01*
X1723D01*
X1988Y31546D01*
X2300Y31484D01*
X2612Y31546D01*
X2877Y31722D01*
X3054Y31987D01*
X3116Y32299D01*
X3054Y32611D01*
X2877Y32876D01*
X2612Y33053D01*
X2300Y33115D01*
D02*
G37*
G36*
X-2174Y31694D02*
Y30974D01*
X-1455D01*
X-1482Y31115D01*
X-1704Y31445D01*
X-2034Y31666D01*
X-2174Y31694D01*
D02*
G37*
G36*
X-2674D02*
X-2815Y31666D01*
X-3145Y31445D01*
X-3366Y31115D01*
X-3394Y30974D01*
X-2674D01*
Y31694D01*
D02*
G37*
G36*
Y30474D02*
X-3394D01*
X-3366Y30334D01*
X-3313Y30255D01*
X-3674Y29894D01*
X-3687Y29903D01*
X-3999Y29965D01*
X-4311Y29903D01*
X-4576Y29726D01*
X-4753Y29462D01*
X-4815Y29150D01*
X-4753Y28837D01*
X-4576Y28573D01*
X-4311Y28396D01*
X-3999Y28334D01*
X-3687Y28396D01*
X-3422Y28573D01*
X-3246Y28837D01*
X-3184Y29150D01*
X-3246Y29462D01*
X-3255Y29475D01*
X-2894Y29836D01*
X-2815Y29782D01*
X-2674Y29754D01*
Y30474D01*
D02*
G37*
G36*
X-1455D02*
X-2174D01*
Y29754D01*
X-2034Y29782D01*
X-1704Y30003D01*
X-1482Y30334D01*
X-1455Y30474D01*
D02*
G37*
G36*
X19900Y34469D02*
X19529Y34395D01*
X19215Y34185D01*
X19005Y33871D01*
X18931Y33500D01*
X19005Y33129D01*
X19093Y32998D01*
X19115Y32485D01*
X18905Y32171D01*
X18831Y31800D01*
X18905Y31429D01*
X18974Y31326D01*
X19108Y31080D01*
X19013Y30582D01*
X19005Y30571D01*
X18931Y30200D01*
X19005Y29829D01*
X19215Y29515D01*
X19529Y29305D01*
X19900Y29231D01*
X20271Y29305D01*
X20585Y29515D01*
X20795Y29829D01*
X20869Y30200D01*
X20795Y30571D01*
X20726Y30674D01*
X20592Y30920D01*
X20687Y31418D01*
X20695Y31429D01*
X20769Y31800D01*
X20695Y32171D01*
X20607Y32302D01*
X20585Y32815D01*
X20795Y33129D01*
X20869Y33500D01*
X20795Y33871D01*
X20585Y34185D01*
X20271Y34395D01*
X19900Y34469D01*
D02*
G37*
G36*
X15850Y28923D02*
Y28050D01*
X16723D01*
X16683Y28249D01*
X16429Y28629D01*
X16049Y28883D01*
X15850Y28923D01*
D02*
G37*
G36*
X15350D02*
X15151Y28883D01*
X14771Y28629D01*
X14517Y28249D01*
X14477Y28050D01*
X15350D01*
Y28923D01*
D02*
G37*
G36*
X16723Y27550D02*
X15850D01*
Y26677D01*
X16049Y26717D01*
X16429Y26971D01*
X16683Y27351D01*
X16723Y27550D01*
D02*
G37*
G36*
X15350D02*
X14477D01*
X14517Y27351D01*
X14771Y26971D01*
X15151Y26717D01*
X15350Y26677D01*
Y27550D01*
D02*
G37*
G36*
X-26600Y27669D02*
X-26971Y27595D01*
X-27285Y27385D01*
X-27495Y27071D01*
X-27569Y26700D01*
X-27495Y26329D01*
X-27285Y26015D01*
X-26971Y25805D01*
X-26600Y25731D01*
X-26229Y25805D01*
X-25915Y26015D01*
X-25705Y26329D01*
X-25631Y26700D01*
X-25705Y27071D01*
X-25915Y27385D01*
X-26229Y27595D01*
X-26600Y27669D01*
D02*
G37*
G36*
X-7900Y28569D02*
X-8271Y28495D01*
X-8585Y28285D01*
X-8795Y27971D01*
X-8869Y27600D01*
X-8795Y27229D01*
X-8585Y26915D01*
X-8271Y26705D01*
X-8096Y26670D01*
X-7851Y26487D01*
X-7738Y26154D01*
X-7769Y26000D01*
X-7695Y25629D01*
X-7485Y25315D01*
X-7171Y25105D01*
X-6800Y25031D01*
X-6429Y25105D01*
X-6115Y25315D01*
X-5905Y25629D01*
X-5831Y26000D01*
X-5905Y26371D01*
X-6115Y26685D01*
X-6429Y26895D01*
X-6604Y26930D01*
X-6849Y27112D01*
X-6962Y27446D01*
X-6931Y27600D01*
X-7005Y27971D01*
X-7215Y28285D01*
X-7529Y28495D01*
X-7900Y28569D01*
D02*
G37*
G36*
X-850Y25241D02*
X-1162Y25179D01*
X-1426Y25002D01*
X-1603Y24737D01*
X-1665Y24425D01*
X-1603Y24113D01*
X-1426Y23848D01*
X-1162Y23672D01*
X-850Y23609D01*
X-538Y23672D01*
X-273Y23848D01*
X-96Y24113D01*
X-34Y24425D01*
X-96Y24737D01*
X-273Y25002D01*
X-538Y25179D01*
X-850Y25241D01*
D02*
G37*
G36*
X-23900Y24469D02*
X-24271Y24395D01*
X-24585Y24185D01*
X-24795Y23871D01*
X-24869Y23500D01*
X-24795Y23129D01*
X-24585Y22815D01*
X-24391Y22685D01*
X-24588Y22254D01*
X-24900Y22316D01*
X-25212Y22254D01*
X-25477Y22077D01*
X-25654Y21812D01*
X-25716Y21500D01*
X-25654Y21188D01*
X-25477Y20923D01*
X-25212Y20746D01*
X-24900Y20684D01*
X-24588Y20746D01*
X-24351Y20905D01*
X-21739D01*
X-21472Y20405D01*
X-21495Y20371D01*
X-21569Y20000D01*
X-21495Y19629D01*
X-21285Y19315D01*
X-20971Y19105D01*
X-20600Y19031D01*
X-20229Y19105D01*
X-19915Y19315D01*
X-19705Y19629D01*
X-19631Y20000D01*
X-19705Y20371D01*
X-19744Y20428D01*
X-19874Y20800D01*
X-19744Y21172D01*
X-19705Y21229D01*
X-19631Y21600D01*
X-19705Y21971D01*
X-19744Y22028D01*
X-19874Y22400D01*
X-19744Y22772D01*
X-19705Y22829D01*
X-19631Y23200D01*
X-19705Y23571D01*
X-19915Y23885D01*
X-20229Y24095D01*
X-20600Y24169D01*
X-20971Y24095D01*
X-21285Y23885D01*
X-21495Y23571D01*
X-21569Y23200D01*
X-21495Y22829D01*
X-21456Y22772D01*
X-21366Y22517D01*
X-21640Y22095D01*
X-23529D01*
X-23579Y22595D01*
X-23529Y22605D01*
X-23215Y22815D01*
X-23005Y23129D01*
X-22931Y23500D01*
X-23005Y23871D01*
X-23215Y24185D01*
X-23529Y24395D01*
X-23900Y24469D01*
D02*
G37*
G36*
X-2174Y22245D02*
Y21526D01*
X-1455D01*
X-1482Y21666D01*
X-1704Y21997D01*
X-2034Y22218D01*
X-2174Y22245D01*
D02*
G37*
G36*
X-2674D02*
X-2815Y22218D01*
X-3145Y21997D01*
X-3366Y21666D01*
X-3394Y21526D01*
X-2674D01*
Y22245D01*
D02*
G37*
G36*
X-34553Y22268D02*
X-34865Y22206D01*
X-35129Y22029D01*
X-35306Y21765D01*
X-35368Y21453D01*
X-35306Y21141D01*
X-35129Y20876D01*
X-34865Y20699D01*
X-34553Y20637D01*
X-34241Y20699D01*
X-33976Y20876D01*
X-33799Y21141D01*
X-33737Y21453D01*
X-33799Y21765D01*
X-33976Y22029D01*
X-34241Y22206D01*
X-34553Y22268D01*
D02*
G37*
G36*
X-2674Y21026D02*
X-3394D01*
X-3366Y20885D01*
X-3145Y20555D01*
X-2815Y20334D01*
X-2674Y20306D01*
Y21026D01*
D02*
G37*
G36*
X-1455D02*
X-2174D01*
Y20306D01*
X-2034Y20334D01*
X-1955Y20387D01*
X-1594Y20026D01*
X-1603Y20013D01*
X-1665Y19701D01*
X-1603Y19389D01*
X-1426Y19124D01*
X-1162Y18947D01*
X-850Y18885D01*
X-538Y18947D01*
X-273Y19124D01*
X-96Y19389D01*
X-34Y19701D01*
X-96Y20013D01*
X-273Y20278D01*
X-538Y20454D01*
X-850Y20516D01*
X-1162Y20454D01*
X-1175Y20446D01*
X-1536Y20806D01*
X-1482Y20885D01*
X-1455Y21026D01*
D02*
G37*
G36*
X-31450Y19470D02*
Y18750D01*
X-30730D01*
X-30758Y18890D01*
X-30979Y19221D01*
X-31310Y19442D01*
X-31450Y19470D01*
D02*
G37*
G36*
X-31950D02*
X-32090Y19442D01*
X-32421Y19221D01*
X-32642Y18890D01*
X-32670Y18750D01*
X-31950D01*
Y19470D01*
D02*
G37*
G36*
X-30730Y18250D02*
X-31450D01*
Y17530D01*
X-31310Y17558D01*
X-30979Y17779D01*
X-30758Y18110D01*
X-30730Y18250D01*
D02*
G37*
G36*
X-31950D02*
X-32670D01*
X-32642Y18110D01*
X-32421Y17779D01*
X-32090Y17558D01*
X-31950Y17530D01*
Y18250D01*
D02*
G37*
G36*
X-8400Y19369D02*
X-8771Y19295D01*
X-9085Y19085D01*
X-9295Y18771D01*
X-9369Y18400D01*
X-9295Y18029D01*
X-9085Y17715D01*
X-8771Y17505D01*
X-8400Y17431D01*
X-8029Y17505D01*
X-7715Y17715D01*
X-7505Y18029D01*
X-7431Y18400D01*
X-7505Y18771D01*
X-7715Y19085D01*
X-8029Y19295D01*
X-8400Y19369D01*
D02*
G37*
G36*
X-3952Y17225D02*
Y16352D01*
X-3080D01*
X-3119Y16551D01*
X-3373Y16931D01*
X-3754Y17186D01*
X-3952Y17225D01*
D02*
G37*
G36*
X-4452D02*
X-4651Y17186D01*
X-5032Y16931D01*
X-5286Y16551D01*
X-5325Y16352D01*
X-4452D01*
Y17225D01*
D02*
G37*
G36*
X15450Y17123D02*
Y16250D01*
X16323D01*
X16283Y16449D01*
X16029Y16829D01*
X15649Y17083D01*
X15450Y17123D01*
D02*
G37*
G36*
X14950D02*
X14751Y17083D01*
X14371Y16829D01*
X14117Y16449D01*
X14077Y16250D01*
X14950D01*
Y17123D01*
D02*
G37*
G36*
X-3080Y15852D02*
X-3952D01*
Y14980D01*
X-3754Y15019D01*
X-3373Y15273D01*
X-3119Y15654D01*
X-3080Y15852D01*
D02*
G37*
G36*
X-4452D02*
X-5325D01*
X-5286Y15654D01*
X-5032Y15273D01*
X-4651Y15019D01*
X-4452Y14980D01*
Y15852D01*
D02*
G37*
G36*
X16323Y15750D02*
X15450D01*
Y14877D01*
X15649Y14917D01*
X16029Y15171D01*
X16283Y15551D01*
X16323Y15750D01*
D02*
G37*
G36*
X14950D02*
X14077D01*
X14117Y15551D01*
X14371Y15171D01*
X14751Y14917D01*
X14950Y14877D01*
Y15750D01*
D02*
G37*
G36*
X22600Y15723D02*
X22132Y15630D01*
X21735Y15365D01*
X21470Y14968D01*
X21376Y14500D01*
X21470Y14032D01*
X21735Y13635D01*
X22132Y13370D01*
X22600Y13276D01*
X23068Y13370D01*
X23465Y13635D01*
X23730Y14032D01*
X23823Y14500D01*
X23730Y14968D01*
X23465Y15365D01*
X23068Y15630D01*
X22600Y15723D01*
D02*
G37*
G36*
X-36521Y14394D02*
X-36833Y14332D01*
X-37098Y14155D01*
X-37275Y13891D01*
X-37337Y13579D01*
X-37275Y13267D01*
X-37098Y13002D01*
X-36833Y12825D01*
X-36521Y12763D01*
X-36209Y12825D01*
X-35945Y13002D01*
X-35768Y13267D01*
X-35706Y13579D01*
X-35768Y13891D01*
X-35945Y14155D01*
X-36209Y14332D01*
X-36521Y14394D01*
D02*
G37*
G36*
X-26500Y16469D02*
X-26871Y16395D01*
X-27185Y16185D01*
X-27395Y15871D01*
X-27469Y15500D01*
X-27395Y15129D01*
X-27185Y14815D01*
X-26871Y14605D01*
X-26500Y14531D01*
X-26129Y14605D01*
X-25815Y14815D01*
X-25791Y14851D01*
X-24269D01*
X-22659Y13241D01*
X-22525Y13185D01*
X-22200Y13051D01*
X-19809D01*
X-19785Y13015D01*
X-19471Y12805D01*
X-19100Y12731D01*
X-18729Y12805D01*
X-18415Y13015D01*
X-18205Y13329D01*
X-18131Y13700D01*
X-18205Y14071D01*
X-18415Y14385D01*
X-18729Y14595D01*
X-19100Y14669D01*
X-19471Y14595D01*
X-19785Y14385D01*
X-19809Y14349D01*
X-21931D01*
X-23541Y15959D01*
X-24000Y16149D01*
X-25791D01*
X-25815Y16185D01*
X-26129Y16395D01*
X-26500Y16469D01*
D02*
G37*
G36*
X-12150Y10723D02*
Y9850D01*
X-11277D01*
X-11317Y10049D01*
X-11571Y10429D01*
X-11951Y10683D01*
X-12150Y10723D01*
D02*
G37*
G36*
X-12650D02*
X-12849Y10683D01*
X-13229Y10429D01*
X-13483Y10049D01*
X-13523Y9850D01*
X-12650D01*
Y10723D01*
D02*
G37*
G36*
X29800Y11523D02*
X29332Y11430D01*
X28935Y11165D01*
X28669Y10768D01*
X28576Y10300D01*
X28669Y9832D01*
X28935Y9435D01*
X29332Y9169D01*
X29800Y9076D01*
X30268Y9169D01*
X30665Y9435D01*
X30930Y9832D01*
X31023Y10300D01*
X30930Y10768D01*
X30665Y11165D01*
X30268Y11430D01*
X29800Y11523D01*
D02*
G37*
G36*
X-11277Y9350D02*
X-12150D01*
Y8477D01*
X-11951Y8517D01*
X-11571Y8771D01*
X-11317Y9151D01*
X-11277Y9350D01*
D02*
G37*
G36*
X-12650D02*
X-13523D01*
X-13483Y9151D01*
X-13229Y8771D01*
X-12849Y8517D01*
X-12650Y8477D01*
Y9350D01*
D02*
G37*
G36*
X-19000Y7916D02*
X-19312Y7854D01*
X-19577Y7677D01*
X-19754Y7412D01*
X-19816Y7100D01*
X-19754Y6788D01*
X-19577Y6523D01*
X-19312Y6346D01*
X-19000Y6284D01*
X-18688Y6346D01*
X-18423Y6523D01*
X-18246Y6788D01*
X-18184Y7100D01*
X-18246Y7412D01*
X-18423Y7677D01*
X-18688Y7854D01*
X-19000Y7916D01*
D02*
G37*
G36*
X3700Y12869D02*
X3329Y12795D01*
X3015Y12585D01*
X2805Y12271D01*
X2731Y11900D01*
X2805Y11529D01*
X3015Y11215D01*
X3105Y11155D01*
Y7445D01*
X3015Y7385D01*
X2805Y7071D01*
X2731Y6700D01*
X2805Y6329D01*
X3015Y6015D01*
X3329Y5805D01*
X3700Y5731D01*
X4071Y5805D01*
X4385Y6015D01*
X4595Y6329D01*
X4669Y6700D01*
X4595Y7071D01*
X4385Y7385D01*
X4295Y7445D01*
Y11155D01*
X4385Y11215D01*
X4595Y11529D01*
X4669Y11900D01*
X4595Y12271D01*
X4385Y12585D01*
X4071Y12795D01*
X3700Y12869D01*
D02*
G37*
G36*
X-28100Y3716D02*
X-28412Y3654D01*
X-28639Y3502D01*
X-28677Y3477D01*
X-28677Y3477D01*
X-29223D01*
X-29223Y3477D01*
X-29261Y3502D01*
X-29488Y3654D01*
X-29800Y3716D01*
X-30112Y3654D01*
X-30339Y3502D01*
X-30377Y3477D01*
X-30377Y3477D01*
X-30923D01*
X-30923Y3477D01*
X-30961Y3502D01*
X-31188Y3654D01*
X-31500Y3716D01*
X-31812Y3654D01*
X-32077Y3477D01*
X-32254Y3212D01*
X-32316Y2900D01*
X-32254Y2588D01*
X-32149Y2432D01*
Y-7332D01*
X-32254Y-7488D01*
X-32316Y-7800D01*
X-32254Y-8112D01*
X-32077Y-8377D01*
X-31812Y-8554D01*
X-31500Y-8616D01*
X-31188Y-8554D01*
X-30961Y-8402D01*
X-30923Y-8377D01*
X-30923Y-8377D01*
X-30377D01*
X-30377Y-8377D01*
X-30339Y-8402D01*
X-30112Y-8554D01*
X-29800Y-8616D01*
X-29488Y-8554D01*
X-29261Y-8402D01*
X-29223Y-8377D01*
X-29223Y-8377D01*
X-28677D01*
X-28677Y-8377D01*
X-28639Y-8402D01*
X-28412Y-8554D01*
X-28100Y-8616D01*
X-27788Y-8554D01*
X-27523Y-8377D01*
X-27346Y-8112D01*
X-27284Y-7800D01*
X-27346Y-7488D01*
X-27451Y-7332D01*
Y2432D01*
X-27346Y2588D01*
X-27284Y2900D01*
X-27346Y3212D01*
X-27523Y3477D01*
X-27788Y3654D01*
X-28100Y3716D01*
D02*
G37*
G36*
X-12550Y2823D02*
Y1950D01*
X-11677D01*
X-11717Y2149D01*
X-11971Y2529D01*
X-12351Y2783D01*
X-12550Y2823D01*
D02*
G37*
G36*
X-13050D02*
X-13249Y2783D01*
X-13629Y2529D01*
X-13883Y2149D01*
X-13923Y1950D01*
X-13050D01*
Y2823D01*
D02*
G37*
G36*
X-11677Y1450D02*
X-12550D01*
Y577D01*
X-12351Y617D01*
X-11971Y871D01*
X-11717Y1251D01*
X-11677Y1450D01*
D02*
G37*
G36*
X-13050D02*
X-13923D01*
X-13883Y1251D01*
X-13629Y871D01*
X-13249Y617D01*
X-13050Y577D01*
Y1450D01*
D02*
G37*
G36*
X0Y-767D02*
X-663Y-899D01*
X-1226Y-1274D01*
X-1601Y-1837D01*
X-1733Y-2500D01*
X-1601Y-3163D01*
X-1226Y-3726D01*
X-663Y-4101D01*
X0Y-4233D01*
X663Y-4101D01*
X1226Y-3726D01*
X1601Y-3163D01*
X1733Y-2500D01*
X1601Y-1837D01*
X1226Y-1274D01*
X663Y-899D01*
X0Y-767D01*
D02*
G37*
G36*
X-18025Y-2481D02*
X-18396Y-2555D01*
X-18710Y-2765D01*
X-18920Y-3079D01*
X-18994Y-3450D01*
X-18920Y-3820D01*
X-18710Y-4135D01*
X-18396Y-4344D01*
X-18025Y-4418D01*
X-17654Y-4344D01*
X-17340Y-4135D01*
X-17130Y-3820D01*
X-17057Y-3450D01*
X-17130Y-3079D01*
X-17340Y-2765D01*
X-17654Y-2555D01*
X-18025Y-2481D01*
D02*
G37*
G36*
X13700Y-2931D02*
X13329Y-3005D01*
X13015Y-3215D01*
X12805Y-3529D01*
X12731Y-3900D01*
X12805Y-4271D01*
X13015Y-4585D01*
X13329Y-4795D01*
X13700Y-4869D01*
X14071Y-4795D01*
X14385Y-4585D01*
X14595Y-4271D01*
X14669Y-3900D01*
X14595Y-3529D01*
X14385Y-3215D01*
X14071Y-3005D01*
X13700Y-2931D01*
D02*
G37*
G36*
X-25600Y-6731D02*
X-25971Y-6805D01*
X-26285Y-7015D01*
X-26495Y-7329D01*
X-26569Y-7700D01*
X-26495Y-8071D01*
X-26285Y-8385D01*
X-25971Y-8595D01*
X-25600Y-8669D01*
X-25229Y-8595D01*
X-24915Y-8385D01*
X-24705Y-8071D01*
X-24631Y-7700D01*
X-24705Y-7329D01*
X-24915Y-7015D01*
X-25229Y-6805D01*
X-25600Y-6731D01*
D02*
G37*
G36*
X-13050Y-10022D02*
Y-11150D01*
X-11922D01*
X-11981Y-10854D01*
X-12291Y-10391D01*
X-12754Y-10081D01*
X-13050Y-10022D01*
D02*
G37*
G36*
X-13550D02*
X-13846Y-10081D01*
X-14309Y-10391D01*
X-14619Y-10854D01*
X-14678Y-11150D01*
X-13550D01*
Y-10022D01*
D02*
G37*
G36*
X-11922Y-11650D02*
X-13050D01*
Y-12778D01*
X-12754Y-12719D01*
X-12291Y-12409D01*
X-11981Y-11946D01*
X-11922Y-11650D01*
D02*
G37*
G36*
X-13550D02*
X-14678D01*
X-14619Y-11946D01*
X-14309Y-12409D01*
X-13846Y-12719D01*
X-13550Y-12778D01*
Y-11650D01*
D02*
G37*
G36*
X-29350Y-11722D02*
Y-12850D01*
X-28222D01*
X-28281Y-12554D01*
X-28591Y-12091D01*
X-29054Y-11781D01*
X-29350Y-11722D01*
D02*
G37*
G36*
X-29850D02*
X-30146Y-11781D01*
X-30609Y-12091D01*
X-30919Y-12554D01*
X-30978Y-12850D01*
X-29850D01*
Y-11722D01*
D02*
G37*
G36*
X-28222Y-13350D02*
X-29350D01*
Y-14478D01*
X-29054Y-14419D01*
X-28591Y-14109D01*
X-28281Y-13646D01*
X-28222Y-13350D01*
D02*
G37*
G36*
X-29850D02*
X-30978D01*
X-30919Y-13646D01*
X-30609Y-14109D01*
X-30146Y-14419D01*
X-29850Y-14478D01*
Y-13350D01*
D02*
G37*
G36*
X-20532Y-18100D02*
X-20902Y-18173D01*
X-21216Y-18383D01*
X-21427Y-18698D01*
X-21500Y-19068D01*
X-21427Y-19439D01*
X-21216Y-19753D01*
X-20902Y-19963D01*
X-20532Y-20037D01*
X-20161Y-19963D01*
X-19847Y-19753D01*
X-19637Y-19439D01*
X-19563Y-19068D01*
X-19637Y-18698D01*
X-19847Y-18383D01*
X-20161Y-18173D01*
X-20532Y-18100D01*
D02*
G37*
G36*
X-8400Y-20231D02*
X-8771Y-20305D01*
X-9085Y-20515D01*
X-9295Y-20829D01*
X-9369Y-21200D01*
X-9295Y-21571D01*
X-9085Y-21885D01*
X-8771Y-22095D01*
X-8400Y-22169D01*
X-8029Y-22095D01*
X-7715Y-21885D01*
X-7505Y-21571D01*
X-7431Y-21200D01*
X-7505Y-20829D01*
X-7715Y-20515D01*
X-8029Y-20305D01*
X-8400Y-20231D01*
D02*
G37*
G36*
X-18981Y-22113D02*
X-19352Y-22186D01*
X-19666Y-22396D01*
X-19876Y-22710D01*
X-19950Y-23081D01*
X-19889Y-23388D01*
X-20005Y-23566D01*
X-20254Y-23787D01*
X-20532Y-23731D01*
X-20902Y-23805D01*
X-21216Y-24015D01*
X-21427Y-24329D01*
X-21500Y-24700D01*
X-21427Y-25071D01*
X-21216Y-25385D01*
X-20902Y-25595D01*
X-20532Y-25669D01*
X-20161Y-25595D01*
X-19847Y-25385D01*
X-19637Y-25071D01*
X-19563Y-24700D01*
X-19624Y-24393D01*
X-19508Y-24215D01*
X-19259Y-23994D01*
X-18981Y-24050D01*
X-18610Y-23976D01*
X-18296Y-23766D01*
X-18086Y-23452D01*
X-18012Y-23081D01*
X-18086Y-22710D01*
X-18296Y-22396D01*
X-18610Y-22186D01*
X-18981Y-22113D01*
D02*
G37*
G36*
X9843Y-25109D02*
X9122Y-25204D01*
X8450Y-25482D01*
X7874Y-25925D01*
X7431Y-26502D01*
X7153Y-27173D01*
X7058Y-27894D01*
Y-28878D01*
X7153Y-29599D01*
X7431Y-30270D01*
X7874Y-30847D01*
X8450Y-31289D01*
X9122Y-31567D01*
X9843Y-31662D01*
X10563Y-31567D01*
X11235Y-31289D01*
X11811Y-30847D01*
X12254Y-30270D01*
X12532Y-29599D01*
X12627Y-28878D01*
Y-27894D01*
X12532Y-27173D01*
X12254Y-26502D01*
X11811Y-25925D01*
X11235Y-25482D01*
X10563Y-25204D01*
X9843Y-25109D01*
D02*
G37*
G36*
X-9843Y-25306D02*
X-10563Y-25401D01*
X-11235Y-25679D01*
X-11811Y-26122D01*
X-12254Y-26698D01*
X-12532Y-27370D01*
X-12627Y-28091D01*
Y-29075D01*
X-12532Y-29796D01*
X-12254Y-30467D01*
X-11811Y-31044D01*
X-11235Y-31486D01*
X-10563Y-31764D01*
X-9843Y-31859D01*
X-9122Y-31764D01*
X-8450Y-31486D01*
X-7874Y-31044D01*
X-7431Y-30467D01*
X-7153Y-29796D01*
X-7058Y-29075D01*
Y-28091D01*
X-7153Y-27370D01*
X-7431Y-26698D01*
X-7874Y-26122D01*
X-8450Y-25679D01*
X-9122Y-25401D01*
X-9843Y-25306D01*
D02*
G37*
G36*
X18300Y42169D02*
X17929Y42095D01*
X17615Y41885D01*
X17405Y41571D01*
X17331Y41200D01*
X17405Y40829D01*
X17615Y40515D01*
X17929Y40305D01*
X18300Y40231D01*
X18671Y40305D01*
X18985Y40515D01*
X19195Y40829D01*
X19269Y41200D01*
X19195Y41571D01*
X18985Y41885D01*
X18671Y42095D01*
X18300Y42169D01*
D02*
G37*
G36*
X37050Y26178D02*
Y25050D01*
X38178D01*
X38119Y25346D01*
X37809Y25809D01*
X37346Y26119D01*
X37050Y26178D01*
D02*
G37*
G36*
X38178Y24550D02*
X37050D01*
Y23422D01*
X37346Y23481D01*
X37809Y23791D01*
X38119Y24254D01*
X38178Y24550D01*
D02*
G37*
G36*
X-43050Y13678D02*
Y12550D01*
X-41922D01*
X-41981Y12846D01*
X-42291Y13309D01*
X-42754Y13619D01*
X-43050Y13678D01*
D02*
G37*
G36*
X-41922Y12050D02*
X-43050D01*
Y10922D01*
X-42754Y10981D01*
X-42291Y11291D01*
X-41981Y11754D01*
X-41922Y12050D01*
D02*
G37*
G36*
X43200Y-10977D02*
X42732Y-11070D01*
X42335Y-11335D01*
X42070Y-11732D01*
X41976Y-12200D01*
X42070Y-12668D01*
X42335Y-13065D01*
X42732Y-13330D01*
X43200Y-13423D01*
X43668Y-13330D01*
X44065Y-13065D01*
X44330Y-12668D01*
X44423Y-12200D01*
X44330Y-11732D01*
X44065Y-11335D01*
X43668Y-11070D01*
X43200Y-10977D01*
D02*
G37*
G36*
X41050Y-17222D02*
X40754Y-17281D01*
X40291Y-17591D01*
X39981Y-18054D01*
X39922Y-18350D01*
X41050D01*
Y-17222D01*
D02*
G37*
G36*
Y-18850D02*
X39922D01*
X39981Y-19146D01*
X40291Y-19609D01*
X40754Y-19919D01*
X41050Y-19978D01*
Y-18850D01*
D02*
G37*
G36*
X-37450Y-23750D02*
X-38578D01*
X-38519Y-24046D01*
X-38209Y-24509D01*
X-37746Y-24819D01*
X-37450Y-24878D01*
Y-23750D01*
D02*
G37*
%LPD*%
D42*
X-24900Y21500D02*
X-20700D01*
X3700Y6700D02*
Y11900D01*
D44*
X-22200Y13700D02*
X-19100D01*
X-24000Y15500D02*
X-22200Y13700D01*
X-26500Y15500D02*
X-24000D01*
X-35750Y-9418D02*
Y-8382D01*
X-36500Y-7632D02*
Y3600D01*
Y-15600D02*
Y-10168D01*
X-35750Y-9418D01*
X-36500Y-7632D02*
X-35750Y-8382D01*
X-38250D02*
X-37850Y-7982D01*
Y3600D01*
X-38250Y-13950D02*
X-37850Y-14350D01*
X-38250Y-13950D02*
Y-8382D01*
X-35100Y-7759D02*
X-34850Y-8009D01*
X-35100Y-7759D02*
Y3600D01*
Y-14400D02*
X-34850Y-14150D01*
Y-8009D01*
X-35100Y3600D02*
X-31600Y7100D01*
Y9700D01*
X-36500Y3600D02*
X-33000Y7100D01*
Y9700D01*
X-35100Y-15100D02*
Y-14400D01*
X-33900Y-16300D02*
X-28100D01*
X-35100Y-15100D02*
X-33900Y-16300D01*
X-34300Y-17800D02*
X-29200D01*
X-36500Y-15600D02*
X-34300Y-17800D01*
X-37850Y-17150D02*
X-35700Y-19300D01*
X-30900D01*
X-37850Y-17150D02*
Y-14350D01*
Y3600D02*
X-34350Y7100D01*
Y9700D01*
X-31500Y-7800D02*
Y2900D01*
X-29800Y-7800D02*
Y2900D01*
X-28100Y-7800D02*
Y2900D01*
D52*
X-13300Y-11400D02*
D03*
X-43300Y12300D02*
D03*
X-29600Y-13100D02*
D03*
X36800Y24800D02*
D03*
X-31500Y32800D02*
D03*
X41300Y-18600D02*
D03*
X-37200Y-23500D02*
D03*
D53*
X15200Y16000D02*
D03*
X-4202Y16102D02*
D03*
X15600Y27800D02*
D03*
X4200Y38300D02*
D03*
X-12800Y1700D02*
D03*
X-19100Y13700D02*
D03*
X-26500Y15500D02*
D03*
X-20600Y21600D02*
D03*
X-12400Y9600D02*
D03*
X3700Y11900D02*
D03*
Y6700D02*
D03*
D54*
X-2424Y30724D02*
D03*
Y21276D02*
D03*
X-28100Y-16300D02*
D03*
X-29200Y-17800D02*
D03*
X-30900Y-19300D02*
D03*
X-34350Y9700D02*
D03*
X-33000D02*
D03*
X-31600D02*
D03*
X-31500Y-7800D02*
D03*
Y2900D02*
D03*
X-29800Y-7800D02*
D03*
Y2900D02*
D03*
X-28100Y-7800D02*
D03*
Y2900D02*
D03*
X-24900Y21500D02*
D03*
X-31700Y18500D02*
D03*
M02*
