G04 Layer_Physical_Order=4*
G04 Layer_Color=16711680*
%FSLAX25Y25*%
%MOIN*%
G70*
G01*
G75*
%ADD13R,0.01378X0.01181*%
%ADD14R,0.02362X0.02520*%
%ADD17R,0.02520X0.02362*%
%ADD23R,0.01260X0.01260*%
%ADD25C,0.03937*%
%ADD34R,0.01181X0.01378*%
%ADD41C,0.01000*%
%ADD42C,0.00500*%
%ADD43C,0.00700*%
%ADD44C,0.00600*%
%ADD45C,0.00800*%
%ADD49O,0.04921X0.05906*%
%ADD50O,0.04823X0.07480*%
%ADD51C,0.03598*%
%ADD52C,0.01800*%
%ADD53C,0.01300*%
%ADD54C,0.01000*%
%ADD55C,0.02800*%
%ADD56C,0.02600*%
%ADD57C,0.08700*%
%ADD58R,0.04000X0.04000*%
G04:AMPARAMS|DCode=59|XSize=39.37mil|YSize=31.5mil|CornerRadius=0mil|HoleSize=0mil|Usage=FLASHONLY|Rotation=315.000|XOffset=0mil|YOffset=0mil|HoleType=Round|Shape=Rectangle|*
%AMROTATEDRECTD59*
4,1,4,-0.02506,0.00278,-0.00278,0.02506,0.02506,-0.00278,0.00278,-0.02506,-0.02506,0.00278,0.0*
%
%ADD59ROTATEDRECTD59*%

G04:AMPARAMS|DCode=60|XSize=39.37mil|YSize=31.5mil|CornerRadius=0mil|HoleSize=0mil|Usage=FLASHONLY|Rotation=45.000|XOffset=0mil|YOffset=0mil|HoleType=Round|Shape=Rectangle|*
%AMROTATEDRECTD60*
4,1,4,-0.00278,-0.02506,-0.02506,-0.00278,0.00278,0.02506,0.02506,0.00278,-0.00278,-0.02506,0.0*
%
%ADD60ROTATEDRECTD60*%

%ADD61R,0.01575X0.02598*%
%ADD62R,0.04724X0.04921*%
%ADD63R,0.03347X0.09055*%
%ADD64R,0.03937X0.03543*%
%ADD65R,0.03543X0.03937*%
%ADD66R,0.01417X0.01969*%
%ADD67R,0.01575X0.01969*%
%ADD68C,0.01500*%
%ADD69C,0.02000*%
G36*
X4074Y46564D02*
X8117Y46032D01*
X12098Y45149D01*
X15987Y43923D01*
X18270Y42977D01*
X18652Y42705D01*
X18550Y42371D01*
Y41450D01*
X19423D01*
X19383Y41649D01*
X19129Y42029D01*
X18975Y42132D01*
X18975Y42132D01*
X18929Y42163D01*
X18929Y42163D01*
X18929Y42164D01*
X18931Y42168D01*
X18932Y42169D01*
X19116Y42513D01*
X19578Y42435D01*
X19754Y42362D01*
X23371Y40479D01*
X26810Y38289D01*
X30045Y35806D01*
X33051Y33051D01*
X35806Y30045D01*
X38289Y26810D01*
X40479Y23371D01*
X42362Y19754D01*
X43923Y15987D01*
X45149Y12098D01*
X45417Y10890D01*
X45104Y10500D01*
X33789Y10500D01*
Y-9185D01*
X45283Y-9185D01*
X45692Y-9647D01*
X45177Y-11972D01*
X45098Y-12005D01*
X44536Y-11738D01*
X44519Y-11654D01*
X44209Y-11191D01*
X43746Y-10881D01*
X43450Y-10822D01*
Y-12200D01*
Y-13578D01*
X43746Y-13519D01*
X44209Y-13209D01*
X44332Y-13025D01*
X44788Y-13244D01*
X43923Y-15987D01*
X42971Y-18285D01*
X42451Y-18234D01*
X42430Y-18132D01*
X42165Y-17735D01*
X41768Y-17470D01*
X41300Y-17377D01*
X40832Y-17470D01*
X40468Y-17712D01*
X40052Y-17620D01*
X39968Y-17595D01*
Y-16386D01*
X35432D01*
Y-17669D01*
X35255Y-17704D01*
X34990Y-17881D01*
X30127Y-22743D01*
X29378Y-21994D01*
X26170Y-25203D01*
X28822Y-27854D01*
X32030Y-24646D01*
X31281Y-23897D01*
X34970Y-20208D01*
X35432Y-20400D01*
Y-20529D01*
X39968D01*
Y-19605D01*
X40052Y-19580D01*
X40468Y-19488D01*
X40832Y-19730D01*
X41300Y-19824D01*
X41768Y-19730D01*
X41834Y-19687D01*
X42218Y-20031D01*
X40479Y-23371D01*
X39804Y-24431D01*
X39332Y-24241D01*
X39340Y-24200D01*
X39177Y-23381D01*
X38713Y-22686D01*
X38019Y-22223D01*
X37200Y-22060D01*
X36381Y-22223D01*
X35686Y-22686D01*
X35223Y-23381D01*
X35060Y-24200D01*
X35223Y-25019D01*
X35686Y-25714D01*
X36381Y-26177D01*
X37200Y-26340D01*
X38019Y-26177D01*
X38158Y-26085D01*
X38523Y-26442D01*
X38289Y-26810D01*
X35806Y-30045D01*
X33312Y-32767D01*
X32812Y-32573D01*
Y-29988D01*
X35092Y-27708D01*
X32441Y-25057D01*
X29233Y-28265D01*
X31513Y-30545D01*
Y-32969D01*
X29631Y-34851D01*
X28603D01*
X28412Y-34389D01*
X30916Y-31884D01*
X28265Y-29232D01*
X25057Y-32441D01*
X25199Y-32583D01*
X24144Y-33638D01*
X23759Y-33359D01*
X23949Y-32900D01*
Y-31987D01*
X24411Y-31795D01*
X24646Y-32030D01*
X27854Y-28822D01*
X25203Y-26170D01*
X21994Y-29379D01*
X22861Y-30245D01*
X22841Y-30265D01*
X22651Y-30724D01*
Y-32631D01*
X22431Y-32851D01*
X15969D01*
X15173Y-32055D01*
X14714Y-31865D01*
X11152D01*
X11053Y-31365D01*
X11235Y-31289D01*
X11811Y-30847D01*
X12254Y-30270D01*
X12532Y-29599D01*
X12627Y-28878D01*
Y-27894D01*
X12532Y-27173D01*
X12254Y-26502D01*
X11811Y-25925D01*
X11235Y-25482D01*
X10563Y-25204D01*
X9843Y-25109D01*
X9122Y-25204D01*
X8450Y-25482D01*
X7874Y-25925D01*
X7431Y-26502D01*
X7153Y-27173D01*
X7058Y-27894D01*
Y-28878D01*
X7153Y-29599D01*
X7431Y-30270D01*
X7874Y-30847D01*
X8450Y-31289D01*
X8632Y-31365D01*
X8533Y-31865D01*
X-8122D01*
X-8292Y-31365D01*
X-7874Y-31044D01*
X-7431Y-30467D01*
X-7153Y-29796D01*
X-7058Y-29075D01*
Y-28091D01*
X-7153Y-27370D01*
X-7431Y-26698D01*
X-7874Y-26122D01*
X-8450Y-25679D01*
X-9094Y-25413D01*
X-9094Y-25412D01*
X-9193Y-25019D01*
X-9208Y-24939D01*
X-9208Y-24885D01*
Y-23450D01*
X-10889D01*
Y-23200D01*
X-11139D01*
Y-21440D01*
X-12570D01*
Y-21543D01*
X-13030Y-21640D01*
X-13070Y-21640D01*
X-15992D01*
Y-22385D01*
X-18314D01*
X-18610Y-22186D01*
X-18981Y-22113D01*
X-19352Y-22186D01*
X-19436Y-22243D01*
X-19936Y-21975D01*
Y-19813D01*
X-19847Y-19753D01*
X-19637Y-19439D01*
X-19563Y-19068D01*
X-19637Y-18698D01*
X-19847Y-18383D01*
X-19936Y-18324D01*
Y-17689D01*
X-19628D01*
Y-15711D01*
X-19846D01*
Y-14341D01*
X-19354D01*
Y-11142D01*
X-21413D01*
X-21528Y-11142D01*
X-21721D01*
X-21913D01*
X-22028Y-11142D01*
X-23393D01*
X-23601Y-10643D01*
X-20020Y-7062D01*
X-20018Y-7057D01*
X-19354D01*
Y-4331D01*
X-19354Y-4316D01*
X-19354Y-4316D01*
X-19354Y-4030D01*
Y-4009D01*
X-19315Y-4002D01*
X-19250Y-3991D01*
X-19189Y-3980D01*
X-18885Y-3925D01*
X-18854Y-3920D01*
X-18804Y-3993D01*
X-18767Y-4049D01*
X-18767Y-4049D01*
X-18710Y-4135D01*
X-18396Y-4344D01*
X-18025Y-4418D01*
X-17654Y-4344D01*
X-17340Y-4135D01*
X-17130Y-3820D01*
X-17057Y-3450D01*
X-17130Y-3079D01*
X-17184Y-2998D01*
Y1189D01*
X-17214Y1340D01*
X-17039Y1636D01*
Y3600D01*
Y5360D01*
X-18470D01*
Y5257D01*
X-18930Y5160D01*
Y5160D01*
X-20457D01*
X-20687Y5390D01*
Y6231D01*
X-19686D01*
X-19686Y6231D01*
X-19402Y6166D01*
X-19390Y6158D01*
X-19250Y6130D01*
Y7100D01*
X-18750D01*
Y6038D01*
X-18714Y6032D01*
X-18714Y6032D01*
X-16692D01*
Y8250D01*
X-18841D01*
X-19000Y8120D01*
X-19186Y8083D01*
X-19686Y8400D01*
Y10768D01*
X-22512D01*
X-22729Y10986D01*
Y23500D01*
X-22811Y23910D01*
X-23043Y24257D01*
X-23390Y24489D01*
X-23800Y24571D01*
X-24210Y24489D01*
X-24557Y24257D01*
X-24789Y23910D01*
X-24871Y23500D01*
Y10800D01*
X-25299Y10628D01*
X-25299Y10628D01*
Y10628D01*
X-25299Y10628D01*
X-29246D01*
Y972D01*
X-25299D01*
Y5899D01*
X-24329Y6869D01*
X-23829Y6662D01*
Y6231D01*
X-22828D01*
Y4947D01*
X-22747Y4537D01*
X-22514Y4189D01*
X-21892Y3567D01*
Y2040D01*
X-20005D01*
X-18816Y851D01*
Y-2923D01*
X-18920Y-3079D01*
X-18994Y-3450D01*
X-18967Y-3586D01*
X-18970Y-3588D01*
X-18997Y-3604D01*
Y-3604D01*
X-19016Y-3616D01*
X-19263Y-3763D01*
X-19345Y-3813D01*
X-19365Y-3825D01*
X-19395Y-3843D01*
X-19406Y-3849D01*
X-19422Y-3859D01*
X-19470D01*
X-19540Y-3859D01*
X-19792Y-3859D01*
X-19794D01*
X-19794D01*
X-21413D01*
X-21528Y-3859D01*
X-21528Y-3859D01*
X-21913D01*
Y-3859D01*
X-21913Y-3859D01*
X-22424D01*
Y-2589D01*
X-22128D01*
Y-611D01*
X-23790D01*
X-23873Y-611D01*
X-24291Y-411D01*
X-24292D01*
X-24327Y-411D01*
X-25131D01*
Y-1600D01*
Y-2789D01*
X-24327D01*
X-24292Y-2789D01*
X-24291D01*
X-24114Y-2704D01*
X-23637Y-2979D01*
X-23614Y-3016D01*
Y-3484D01*
X-23995Y-3791D01*
X-24272Y-3659D01*
X-24272Y-3659D01*
X-24764Y-3659D01*
X-25309D01*
Y-5458D01*
X-25559D01*
Y-5708D01*
X-26847D01*
Y-7258D01*
X-26847D01*
X-26847Y-7258D01*
X-26814Y-7450D01*
X-25600D01*
Y-7950D01*
X-26863D01*
X-27135Y-8305D01*
X-36255D01*
X-36315Y-8215D01*
X-36629Y-8005D01*
X-37000Y-7931D01*
X-37371Y-8005D01*
X-37685Y-8215D01*
X-37895Y-8529D01*
X-37969Y-8900D01*
X-37928Y-9105D01*
X-38176Y-9519D01*
X-38273Y-9605D01*
X-42900D01*
X-43110Y-9692D01*
X-43321Y-9779D01*
X-44021Y-10479D01*
X-44195Y-10900D01*
Y-13479D01*
X-44690Y-13555D01*
X-45149Y-12098D01*
X-46032Y-8117D01*
X-46455Y-4900D01*
X-45987Y-4628D01*
X-45906Y-4662D01*
X-41181D01*
X-40951Y-4567D01*
X-40856Y-4337D01*
Y3537D01*
X-40951Y3767D01*
X-41181Y3862D01*
X-45906D01*
X-46076Y3791D01*
X-46568Y3987D01*
X-46568Y3987D01*
X-46564Y4074D01*
X-46032Y8117D01*
X-45149Y12098D01*
X-45044Y12432D01*
X-44994Y12590D01*
X-44790Y12689D01*
X-44524Y12300D01*
Y12300D01*
Y12300D01*
X-44524D01*
D01*
X-44430Y11832D01*
X-44165Y11435D01*
X-43768Y11170D01*
X-43300Y11077D01*
X-42832Y11170D01*
X-42435Y11435D01*
X-42170Y11832D01*
X-42077Y12300D01*
X-42170Y12768D01*
X-42435Y13165D01*
X-42832Y13430D01*
X-43300Y13523D01*
X-43768Y13430D01*
X-44165Y13165D01*
X-44172Y13155D01*
X-44519Y13117D01*
X-44754Y13184D01*
X-44773Y13218D01*
Y13218D01*
X-44787Y13246D01*
X-43923Y15987D01*
X-42362Y19754D01*
X-40479Y23371D01*
X-38289Y26810D01*
X-35806Y30045D01*
X-33210Y32878D01*
X-33019Y32847D01*
X-32702Y32693D01*
X-32630Y32332D01*
X-32365Y31935D01*
X-31968Y31670D01*
X-31500Y31576D01*
X-31442Y31588D01*
X-31439Y31586D01*
X-31174Y31409D01*
X-30862Y31347D01*
X-30862Y31347D01*
X-30379D01*
X-28265Y29233D01*
X-25057Y32441D01*
X-27708Y35092D01*
X-29822Y32978D01*
X-30312D01*
X-30370Y33268D01*
X-30635Y33665D01*
X-31032Y33930D01*
X-31295Y33983D01*
X-31470Y34501D01*
X-30045Y35806D01*
X-26810Y38289D01*
X-23371Y40479D01*
X-19754Y42362D01*
X-15987Y43923D01*
X-12098Y45149D01*
X-8117Y46032D01*
X-4074Y46564D01*
X0Y46742D01*
X4074Y46564D01*
D02*
G37*
%LPC*%
G36*
X18050Y42323D02*
X17851Y42283D01*
X17471Y42029D01*
X17217Y41649D01*
X17177Y41450D01*
X18050D01*
Y42323D01*
D02*
G37*
G36*
X19791Y39868D02*
X19032Y37784D01*
X21116Y37026D01*
X21226Y37745D01*
X20993Y38699D01*
X20412Y39491D01*
X19791Y39868D01*
D02*
G37*
G36*
X18861Y37314D02*
X18103Y35231D01*
X18822Y35120D01*
X19776Y35354D01*
X20568Y35934D01*
X20945Y36556D01*
X18861Y37314D01*
D02*
G37*
G36*
X24100Y38440D02*
X23281Y38277D01*
X22587Y37813D01*
X22123Y37119D01*
X21960Y36300D01*
X22123Y35481D01*
X22587Y34786D01*
X23281Y34323D01*
X24100Y34160D01*
X24919Y34323D01*
X25613Y34786D01*
X26077Y35481D01*
X26240Y36300D01*
X26077Y37119D01*
X25613Y37813D01*
X24919Y38277D01*
X24100Y38440D01*
D02*
G37*
G36*
X27708Y35092D02*
X26029Y33413D01*
X26021Y33421D01*
X25600Y33595D01*
X21947D01*
X21621Y33921D01*
X21200Y34095D01*
X20645D01*
X20585Y34185D01*
X20271Y34395D01*
X19900Y34469D01*
X19529Y34395D01*
X19215Y34185D01*
X19005Y33871D01*
X18931Y33500D01*
X19005Y33129D01*
X19093Y32998D01*
X19115Y32485D01*
X18905Y32171D01*
X18831Y31800D01*
X18905Y31429D01*
X18974Y31326D01*
X19108Y31080D01*
X19013Y30582D01*
X19005Y30571D01*
X18931Y30200D01*
X19005Y29829D01*
X19215Y29515D01*
X19529Y29305D01*
X19900Y29231D01*
X20271Y29305D01*
X20500Y29458D01*
X25455Y24503D01*
X25665Y24416D01*
X25876Y24329D01*
X27044D01*
X29379Y21994D01*
X32030Y24646D01*
X28822Y27854D01*
X26487Y25519D01*
X26122D01*
X25587Y26055D01*
Y26555D01*
X27854Y28822D01*
X25126Y31550D01*
X25233Y32034D01*
X25284Y32099D01*
X25378Y32120D01*
X28265Y29233D01*
X30916Y31884D01*
X27708Y35092D01*
D02*
G37*
G36*
X4516Y45076D02*
X3639Y44861D01*
X2911Y44328D01*
X2443Y43556D01*
X2306Y42664D01*
X2520Y41788D01*
X3054Y41060D01*
X3825Y40592D01*
X3954Y40572D01*
Y39220D01*
X3829Y39195D01*
X3515Y38985D01*
X3305Y38671D01*
X3231Y38300D01*
X3305Y37929D01*
X3515Y37615D01*
X3829Y37405D01*
X4200Y37331D01*
X4571Y37405D01*
X4885Y37615D01*
X5095Y37929D01*
X5169Y38300D01*
X5158Y38356D01*
X5229Y38463D01*
X5279Y38717D01*
Y40592D01*
X5594Y40669D01*
X6322Y41203D01*
X6610Y41677D01*
X7089Y41502D01*
X7004Y40954D01*
X7219Y40078D01*
X7752Y39350D01*
X7753Y39349D01*
X7660Y38821D01*
X7529Y38795D01*
X7215Y38585D01*
X7005Y38271D01*
X6931Y37900D01*
X6940Y37858D01*
X5441Y36359D01*
X5251Y35900D01*
Y30172D01*
X4351D01*
X2895Y31628D01*
Y31750D01*
X3054Y31987D01*
X3116Y32299D01*
X3054Y32611D01*
X2895Y32848D01*
Y34300D01*
X2772Y34598D01*
X2721Y34721D01*
X2021Y35421D01*
X1600Y35595D01*
X147D01*
X-1527Y37269D01*
X-1363Y37515D01*
X-1187Y38400D01*
X-1363Y39285D01*
X-1864Y40036D01*
X-2615Y40537D01*
X-3500Y40713D01*
X-4385Y40537D01*
X-5050Y40092D01*
X-5648Y40690D01*
X-6069Y40864D01*
X-11424D01*
X-11484Y40953D01*
X-11798Y41163D01*
X-12168Y41237D01*
X-12539Y41163D01*
X-12853Y40953D01*
X-13063Y40639D01*
X-13137Y40268D01*
X-13063Y39898D01*
X-12853Y39584D01*
X-12672Y39463D01*
X-12538Y39332D01*
X-12520Y38860D01*
X-12837Y38385D01*
X-13013Y37500D01*
X-12837Y36615D01*
X-12336Y35864D01*
X-11585Y35363D01*
X-10700Y35187D01*
X-9815Y35363D01*
X-9065Y35864D01*
X-8563Y36615D01*
X-8506Y36905D01*
X-7747D01*
X-5049Y34207D01*
X-4929Y33757D01*
Y33741D01*
Y33674D01*
X-4929Y33506D01*
Y33483D01*
Y32169D01*
X-4929Y32169D01*
X-5129Y31752D01*
X-5129Y31752D01*
Y31752D01*
X-5129Y31277D01*
Y30872D01*
X-3999D01*
Y30372D01*
X-5129D01*
Y29956D01*
X-5129Y29492D01*
X-5129Y29492D01*
X-5102Y29400D01*
X-2896D01*
X-2869Y29492D01*
X-2869Y29492D01*
X-2531Y29811D01*
X-2510Y29831D01*
X-2424Y29909D01*
X-2112Y29971D01*
X-1848Y30148D01*
X-1671Y30412D01*
X-1609Y30724D01*
X-1671Y31036D01*
X-1762Y31172D01*
Y31924D01*
X-1812Y32178D01*
X-1956Y32393D01*
X-2831Y33269D01*
X-2885Y33305D01*
X-2738Y33790D01*
X-2589Y33805D01*
X-1622D01*
X-84Y32267D01*
X-28Y31987D01*
X130Y31750D01*
Y30191D01*
X111D01*
Y28409D01*
X2089D01*
Y30043D01*
X2547Y30292D01*
X3411Y29428D01*
Y28391D01*
X5251D01*
Y27809D01*
X3411D01*
Y27652D01*
X2089D01*
Y27828D01*
X111D01*
Y26047D01*
X505D01*
Y25427D01*
X325Y25269D01*
X-129Y25146D01*
X-459Y25367D01*
X-600Y25395D01*
Y24425D01*
X-850D01*
Y24175D01*
X-1819D01*
X-1792Y24035D01*
X-1571Y23704D01*
X-1555Y23694D01*
X-1482Y23060D01*
X-2457Y22085D01*
X-2737Y22029D01*
X-3001Y21852D01*
X-3178Y21588D01*
X-3240Y21276D01*
X-3178Y20964D01*
X-3001Y20699D01*
X-2966Y20097D01*
X-9913Y13149D01*
X-11237D01*
X-11286Y13649D01*
X-10715Y13763D01*
X-9965Y14265D01*
X-9463Y15015D01*
X-9287Y15900D01*
X-9415Y16543D01*
X-8506Y17452D01*
X-8400Y17431D01*
X-8029Y17505D01*
X-7715Y17715D01*
X-7505Y18029D01*
X-7431Y18400D01*
X-7505Y18771D01*
X-7715Y19085D01*
X-8029Y19295D01*
X-8400Y19369D01*
X-8771Y19295D01*
X-9085Y19085D01*
X-9295Y18771D01*
X-9369Y18400D01*
X-9348Y18294D01*
X-10050Y17592D01*
X-10715Y18037D01*
X-11600Y18213D01*
X-12485Y18037D01*
X-13236Y17536D01*
X-13653Y17494D01*
X-16579Y20421D01*
X-17000Y20595D01*
X-18979D01*
X-19254Y21095D01*
X-19248Y21105D01*
X-13563D01*
X-13336Y20764D01*
X-12585Y20263D01*
X-11700Y20087D01*
X-10815Y20263D01*
X-10064Y20764D01*
X-9563Y21515D01*
X-9387Y22400D01*
X-9563Y23285D01*
X-9727Y23531D01*
X-7989Y25269D01*
X-7485Y25315D01*
X-7171Y25105D01*
X-6800Y25031D01*
X-6429Y25105D01*
X-6115Y25315D01*
X-5905Y25629D01*
X-5831Y26000D01*
X-5905Y26371D01*
X-6115Y26685D01*
X-6429Y26895D01*
X-6604Y26930D01*
X-6849Y27112D01*
X-6962Y27446D01*
X-6931Y27600D01*
X-7005Y27971D01*
X-7215Y28285D01*
X-7529Y28495D01*
X-7900Y28569D01*
X-8271Y28495D01*
X-8585Y28285D01*
X-8588Y28280D01*
X-9105Y28247D01*
X-9515Y28657D01*
X-9387Y29300D01*
X-9563Y30185D01*
X-10064Y30935D01*
X-10815Y31437D01*
X-11700Y31613D01*
X-12585Y31437D01*
X-13336Y30935D01*
X-13837Y30185D01*
X-14013Y29300D01*
X-13837Y28415D01*
X-13673Y28169D01*
X-18047Y23795D01*
X-19855D01*
X-19915Y23885D01*
X-20229Y24095D01*
X-20600Y24169D01*
X-20971Y24095D01*
X-21285Y23885D01*
X-21495Y23571D01*
X-21569Y23200D01*
X-21495Y22829D01*
X-21456Y22772D01*
X-21326Y22400D01*
X-21456Y22028D01*
X-21495Y21971D01*
X-21569Y21600D01*
X-21495Y21229D01*
X-21456Y21172D01*
X-21326Y20800D01*
X-21456Y20428D01*
X-21495Y20371D01*
X-21569Y20000D01*
X-21495Y19629D01*
X-21285Y19315D01*
X-20971Y19105D01*
X-20600Y19031D01*
X-20229Y19105D01*
X-19915Y19315D01*
X-19855Y19405D01*
X-17247D01*
X-13885Y16043D01*
X-13913Y15900D01*
X-13737Y15015D01*
X-13236Y14265D01*
X-12485Y13763D01*
X-11914Y13649D01*
X-11963Y13149D01*
X-13331D01*
X-14341Y14159D01*
X-14800Y14349D01*
X-18391D01*
X-18415Y14385D01*
X-18729Y14595D01*
X-19100Y14669D01*
X-19471Y14595D01*
X-19785Y14385D01*
X-19995Y14071D01*
X-20069Y13700D01*
X-19995Y13329D01*
X-19785Y13015D01*
X-19471Y12805D01*
X-19100Y12731D01*
X-18729Y12805D01*
X-18415Y13015D01*
X-18391Y13051D01*
X-15069D01*
X-14059Y12041D01*
X-13600Y11851D01*
X-9644D01*
X-9185Y12041D01*
X-5556Y15670D01*
X-4973Y15546D01*
X-4887Y15417D01*
X-4865Y15403D01*
Y14902D01*
X-4815Y14649D01*
X-4671Y14434D01*
X-4084Y13846D01*
Y12247D01*
X-2066D01*
Y14816D01*
X-3179D01*
X-3335Y14972D01*
X-3517Y15417D01*
X-3308Y15732D01*
X-3234Y16102D01*
X-3308Y16473D01*
X-3517Y16787D01*
X-3646Y16873D01*
X-3770Y17456D01*
X-3049Y18177D01*
X-2587Y17985D01*
Y16184D01*
X-413D01*
Y16873D01*
X285D01*
X1098Y16060D01*
X1221Y16009D01*
X1519Y15886D01*
X2384D01*
X2421Y15863D01*
X2696Y15386D01*
X2611Y15210D01*
Y15208D01*
X2611Y15173D01*
Y14369D01*
X4989D01*
Y15173D01*
X4989Y15208D01*
Y15210D01*
X4789Y15627D01*
X4789Y15710D01*
Y17372D01*
X2811D01*
Y17076D01*
X1766D01*
X952Y17889D01*
X532Y18064D01*
X-218D01*
X-254Y18119D01*
Y19152D01*
X-96Y19389D01*
X-34Y19701D01*
X-96Y20013D01*
X-172Y20126D01*
X26Y20601D01*
X50Y20626D01*
X5176D01*
X5635Y20816D01*
X6359Y21541D01*
X6549Y22000D01*
Y35631D01*
X7858Y36940D01*
X7900Y36931D01*
X8271Y37005D01*
X8585Y37215D01*
X8795Y37529D01*
X8869Y37900D01*
X8860Y37942D01*
X9559Y38641D01*
X9623Y38795D01*
X10293Y38959D01*
X11020Y39492D01*
X11308Y39967D01*
X11787Y39792D01*
X11703Y39244D01*
X11917Y38368D01*
X12451Y37640D01*
X12460Y37634D01*
X12485Y37420D01*
X12300Y36969D01*
X11929Y36895D01*
X11615Y36685D01*
X11405Y36371D01*
X11331Y36000D01*
X11405Y35629D01*
X11615Y35315D01*
X11929Y35105D01*
X12300Y35031D01*
X12671Y35105D01*
X12985Y35315D01*
X13195Y35629D01*
X13269Y36000D01*
X13260Y36042D01*
X14297Y37079D01*
X14991Y37249D01*
X15719Y37782D01*
X15735Y37810D01*
X16215Y37635D01*
X16197Y37525D01*
X16431Y36571D01*
X17012Y35779D01*
X17633Y35402D01*
X18477Y37720D01*
X19377Y40193D01*
X19252Y40555D01*
X19383Y40751D01*
X19423Y40950D01*
X17177D01*
X17217Y40751D01*
X17471Y40371D01*
X17480Y40365D01*
X17494Y40326D01*
X17459Y39777D01*
X16856Y39335D01*
X16798Y39240D01*
X16319Y39414D01*
X16324Y39446D01*
X16110Y40322D01*
X15576Y41050D01*
X14805Y41518D01*
X13913Y41656D01*
X13036Y41441D01*
X12308Y40907D01*
X12021Y40433D01*
X11541Y40608D01*
X11626Y41156D01*
X11411Y42033D01*
X10878Y42760D01*
X10106Y43229D01*
X9214Y43366D01*
X8338Y43151D01*
X7610Y42618D01*
X7322Y42143D01*
X6843Y42318D01*
X6927Y42866D01*
X6713Y43743D01*
X6179Y44470D01*
X5408Y44939D01*
X4516Y45076D01*
D02*
G37*
G36*
X-3027Y28900D02*
X-3749D01*
Y28180D01*
X-3609Y28208D01*
X-3278Y28429D01*
X-3114Y28675D01*
X-3057Y28759D01*
X-3027Y28900D01*
D02*
G37*
G36*
X-4249D02*
X-4971D01*
X-4941Y28759D01*
X-4885Y28675D01*
X-4720Y28429D01*
X-4389Y28208D01*
X-4249Y28180D01*
Y28900D01*
D02*
G37*
G36*
X-24646Y32030D02*
X-27854Y28822D01*
X-27077Y28045D01*
X-27189Y27449D01*
X-27285Y27385D01*
X-27429Y27169D01*
X-27832Y27052D01*
X-28010Y27043D01*
X-28822Y27854D01*
X-30998Y25677D01*
X-31109Y25681D01*
X-31310Y26188D01*
X-29233Y28265D01*
X-31884Y30916D01*
X-34218Y28582D01*
X-35013D01*
X-35311Y28458D01*
X-35434Y28407D01*
X-35994Y27848D01*
X-36100Y27869D01*
X-36471Y27795D01*
X-36785Y27585D01*
X-36995Y27271D01*
X-37069Y26900D01*
X-36995Y26529D01*
X-36785Y26215D01*
X-36471Y26005D01*
X-36100Y25931D01*
X-35729Y26005D01*
X-35415Y26215D01*
X-35205Y26529D01*
X-35131Y26900D01*
X-35152Y27006D01*
X-34771Y27387D01*
X-32469Y25085D01*
X-32441Y25057D01*
X-32185Y24663D01*
X-34585Y22262D01*
X-34865Y22206D01*
X-35129Y22029D01*
X-35306Y21765D01*
X-35368Y21453D01*
X-35306Y21141D01*
X-35129Y20876D01*
X-34865Y20699D01*
X-34553Y20637D01*
X-34241Y20699D01*
X-33976Y20876D01*
X-33799Y21141D01*
X-33744Y21420D01*
X-31274Y23890D01*
X-29378Y21994D01*
X-26170Y25203D01*
X-26257Y25290D01*
X-26248Y25468D01*
X-26131Y25871D01*
X-25915Y26015D01*
X-25851Y26111D01*
X-25255Y26223D01*
X-25203Y26170D01*
X-21994Y29379D01*
X-24646Y32030D01*
D02*
G37*
G36*
X15600Y28769D02*
X15229Y28695D01*
X14915Y28485D01*
X14705Y28171D01*
X14631Y27800D01*
X14705Y27429D01*
X14915Y27115D01*
X15229Y26905D01*
X15600Y26831D01*
X15971Y26905D01*
X16285Y27115D01*
X16495Y27429D01*
X16569Y27800D01*
X16495Y28171D01*
X16285Y28485D01*
X15971Y28695D01*
X15600Y28769D01*
D02*
G37*
G36*
X-1100Y25395D02*
X-1240Y25367D01*
X-1571Y25146D01*
X-1792Y24815D01*
X-1819Y24675D01*
X-1100D01*
Y25395D01*
D02*
G37*
G36*
X31884Y30916D02*
X29233Y28265D01*
X32441Y25057D01*
X33047Y25663D01*
X33484Y25393D01*
Y18992D01*
X32740D01*
Y18327D01*
X31360D01*
Y18992D01*
X28240D01*
Y16070D01*
X28240Y16030D01*
X28143Y15570D01*
X28040D01*
Y14139D01*
X31560D01*
Y15570D01*
X31457D01*
Y15570D01*
X31360Y16030D01*
X31360Y16070D01*
Y16695D01*
X32386D01*
X32740Y16342D01*
Y16070D01*
X32740Y16030D01*
X32643Y15570D01*
X32540D01*
Y14139D01*
X36060D01*
Y15570D01*
X35957D01*
Y15570D01*
X35860Y16030D01*
X35860Y16070D01*
Y18992D01*
X35116D01*
Y23984D01*
X35902D01*
X35935Y23935D01*
X36332Y23670D01*
X36800Y23576D01*
X37268Y23670D01*
X37665Y23935D01*
X37930Y24332D01*
X38023Y24800D01*
X37930Y25268D01*
X37665Y25665D01*
X37268Y25930D01*
X36800Y26024D01*
X36332Y25930D01*
X35935Y25665D01*
X35902Y25616D01*
X35116D01*
Y25849D01*
X35053Y26161D01*
X34877Y26426D01*
X34877Y26426D01*
X34343Y26959D01*
X35092Y27708D01*
X31884Y30916D01*
D02*
G37*
G36*
X-31700Y19316D02*
X-32012Y19254D01*
X-32277Y19077D01*
X-32454Y18812D01*
X-32516Y18500D01*
X-32454Y18188D01*
X-32277Y17923D01*
X-32012Y17746D01*
X-31700Y17684D01*
X-31388Y17746D01*
X-31123Y17923D01*
X-30946Y18188D01*
X-30884Y18500D01*
X-30946Y18812D01*
X-31123Y19077D01*
X-31388Y19254D01*
X-31700Y19316D01*
D02*
G37*
G36*
X15200Y16969D02*
X14829Y16895D01*
X14515Y16685D01*
X14305Y16371D01*
X14231Y16000D01*
X14305Y15629D01*
X14515Y15315D01*
X14829Y15105D01*
X15200Y15031D01*
X15571Y15105D01*
X15885Y15315D01*
X16095Y15629D01*
X16169Y16000D01*
X16095Y16371D01*
X15885Y16685D01*
X15571Y16895D01*
X15200Y16969D01*
D02*
G37*
G36*
X22850Y15878D02*
Y14750D01*
X23978D01*
X23919Y15046D01*
X23609Y15509D01*
X23146Y15819D01*
X22850Y15878D01*
D02*
G37*
G36*
X22350D02*
X22054Y15819D01*
X21591Y15509D01*
X21281Y15046D01*
X21222Y14750D01*
X22350D01*
Y15878D01*
D02*
G37*
G36*
X-26500Y16469D02*
X-26871Y16395D01*
X-27185Y16185D01*
X-27209Y16149D01*
X-38300D01*
X-38759Y15959D01*
X-39959Y14759D01*
X-40149Y14300D01*
Y9175D01*
X-40285Y9085D01*
X-40495Y8771D01*
X-40569Y8400D01*
X-40495Y8029D01*
X-40285Y7715D01*
X-39971Y7505D01*
X-39600Y7431D01*
X-39229Y7505D01*
X-38915Y7715D01*
X-38801Y7886D01*
X-38301Y7734D01*
Y972D01*
X-37398D01*
Y928D01*
X-37317Y518D01*
X-37085Y171D01*
X-35883Y-1031D01*
X-36090Y-1531D01*
X-37162D01*
Y-7052D01*
X-31838D01*
Y-1531D01*
X-33430D01*
Y-900D01*
X-33511Y-490D01*
X-33743Y-143D01*
X-34396Y510D01*
X-34354Y972D01*
X-34354D01*
X-34354Y972D01*
Y10628D01*
X-35807D01*
Y13207D01*
X-35768Y13267D01*
X-35706Y13579D01*
X-35768Y13891D01*
X-35881Y14060D01*
X-35945Y14155D01*
X-35945Y14156D01*
X-36209Y14332D01*
X-36261Y14343D01*
X-36270Y14663D01*
X-35848Y14851D01*
X-27209D01*
X-27185Y14815D01*
X-26871Y14605D01*
X-26500Y14531D01*
X-26129Y14605D01*
X-25815Y14815D01*
X-25605Y15129D01*
X-25531Y15500D01*
X-25605Y15871D01*
X-25815Y16185D01*
X-26129Y16395D01*
X-26500Y16469D01*
D02*
G37*
G36*
X23978Y14250D02*
X22850D01*
Y13122D01*
X23146Y13181D01*
X23609Y13491D01*
X23919Y13954D01*
X23978Y14250D01*
D02*
G37*
G36*
X22350D02*
X21222D01*
X21281Y13954D01*
X21591Y13491D01*
X22054Y13181D01*
X22350Y13122D01*
Y14250D01*
D02*
G37*
G36*
X36060Y13639D02*
X34550D01*
Y12208D01*
X36060D01*
Y13639D01*
D02*
G37*
G36*
X34050D02*
X32540D01*
Y12208D01*
X34050D01*
Y13639D01*
D02*
G37*
G36*
X31560D02*
X30050D01*
Y12208D01*
X31560D01*
Y13639D01*
D02*
G37*
G36*
X29550D02*
X28040D01*
Y12208D01*
X29550D01*
Y13639D01*
D02*
G37*
G36*
X29922Y11958D02*
X29678D01*
X29680Y11932D01*
X29919D01*
X29922Y11958D01*
D02*
G37*
G36*
X1084Y14816D02*
X-934D01*
Y12247D01*
X912D01*
X1681Y11479D01*
X1891Y11392D01*
X2101Y11305D01*
X2955D01*
X3015Y11215D01*
X3329Y11005D01*
X3700Y10931D01*
X4071Y11005D01*
X4385Y11215D01*
X4595Y11529D01*
X4669Y11900D01*
X4595Y12271D01*
X4423Y12528D01*
X4487Y12777D01*
X4621Y13028D01*
X4989D01*
Y13869D01*
X2611D01*
Y13028D01*
X2611Y13028D01*
X2586Y12811D01*
X2112Y12731D01*
X1084Y13760D01*
Y14816D01*
D02*
G37*
G36*
X30050Y11677D02*
Y10550D01*
X31177D01*
X31119Y10846D01*
X30809Y11309D01*
X30346Y11619D01*
X30169Y11654D01*
X30169D01*
X30050Y11677D01*
D02*
G37*
G36*
X29550D02*
X29431Y11654D01*
X29431D01*
X29254Y11619D01*
X28791Y11309D01*
X28481Y10846D01*
X28422Y10550D01*
X29550D01*
Y11677D01*
D02*
G37*
G36*
X31177Y10050D02*
X30050D01*
Y8922D01*
X30346Y8981D01*
X30809Y9290D01*
X31119Y9754D01*
X31177Y10050D01*
D02*
G37*
G36*
X29550D02*
X28422D01*
X28481Y9754D01*
X28791Y9290D01*
X29254Y8981D01*
X29550Y8922D01*
Y10050D01*
D02*
G37*
G36*
X-14171Y10968D02*
X-16193D01*
Y8750D01*
X-14171D01*
Y10968D01*
D02*
G37*
G36*
X-16692D02*
X-18714D01*
Y8750D01*
X-16692D01*
Y10968D01*
D02*
G37*
G36*
X-12400Y10569D02*
X-12771Y10495D01*
X-13085Y10285D01*
X-13295Y9971D01*
X-13369Y9600D01*
X-13295Y9229D01*
X-13085Y8915D01*
X-12771Y8705D01*
X-12400Y8631D01*
X-12029Y8705D01*
X-11715Y8915D01*
X-11505Y9229D01*
X-11431Y9600D01*
X-11505Y9971D01*
X-11715Y10285D01*
X-12029Y10495D01*
X-12400Y10569D01*
D02*
G37*
G36*
X-14171Y8250D02*
X-16193D01*
Y6032D01*
X-14171D01*
Y8250D01*
D02*
G37*
G36*
X-15108Y5360D02*
X-16539D01*
Y3850D01*
X-15108D01*
Y5360D01*
D02*
G37*
G36*
Y3350D02*
X-16539D01*
Y1840D01*
X-15108D01*
Y3350D01*
D02*
G37*
G36*
X-12800Y2669D02*
X-13171Y2595D01*
X-13485Y2385D01*
X-13695Y2071D01*
X-13769Y1700D01*
X-13695Y1329D01*
X-13485Y1015D01*
X-13171Y805D01*
X-12800Y731D01*
X-12429Y805D01*
X-12115Y1015D01*
X-11905Y1329D01*
X-11831Y1700D01*
X-11905Y2071D01*
X-12115Y2385D01*
X-12429Y2595D01*
X-12800Y2669D01*
D02*
G37*
G36*
X15000Y2500D02*
X12750D01*
Y250D01*
X15000D01*
Y2500D01*
D02*
G37*
G36*
X12250D02*
X10000D01*
Y250D01*
X12250D01*
Y2500D01*
D02*
G37*
G36*
X-25631Y-411D02*
X-26472D01*
Y-1350D01*
X-25631D01*
Y-411D01*
D02*
G37*
G36*
X12250Y-250D02*
X10000D01*
Y-2500D01*
X12250D01*
Y-250D01*
D02*
G37*
G36*
X-25631Y-1850D02*
X-26472D01*
Y-2789D01*
X-25631D01*
Y-1850D01*
D02*
G37*
G36*
X15000Y-250D02*
X12750D01*
Y-2500D01*
X12825D01*
X12977Y-3000D01*
X12871Y-3071D01*
X12617Y-3451D01*
X12577Y-3650D01*
X14823D01*
X14783Y-3451D01*
X14529Y-3071D01*
X14423Y-3000D01*
X14575Y-2500D01*
X15000D01*
Y-250D01*
D02*
G37*
G36*
X14823Y-4150D02*
X13950D01*
Y-5023D01*
X14149Y-4983D01*
X14529Y-4729D01*
X14783Y-4349D01*
X14823Y-4150D01*
D02*
G37*
G36*
X13450D02*
X12577D01*
X12617Y-4349D01*
X12871Y-4729D01*
X13251Y-4983D01*
X13450Y-5023D01*
Y-4150D01*
D02*
G37*
G36*
X-25809Y-3659D02*
X-26847D01*
Y-5208D01*
X-25809D01*
Y-3659D01*
D02*
G37*
G36*
X4500Y9500D02*
X-4500Y9500D01*
X-9500Y4500D01*
X-9500Y-4781D01*
X-2636Y-9500D01*
X4000Y-9500D01*
X9500Y-4000D01*
X9500Y4500D01*
X4500Y9500D01*
D02*
G37*
G36*
X42950Y-10822D02*
X42654Y-10881D01*
X42191Y-11191D01*
X41881Y-11654D01*
X41822Y-11950D01*
X42950D01*
Y-10822D01*
D02*
G37*
G36*
X-13300Y-10176D02*
X-13768Y-10270D01*
X-14165Y-10535D01*
X-14430Y-10932D01*
X-14524Y-11400D01*
X-14476Y-11639D01*
X-15569Y-12731D01*
X-15712Y-12946D01*
X-15763Y-13200D01*
Y-13708D01*
X-16660D01*
Y-16630D01*
X-16660Y-16670D01*
X-16757Y-17130D01*
X-16860D01*
Y-18561D01*
X-13340D01*
Y-17130D01*
X-13443D01*
Y-17130D01*
X-13540Y-16670D01*
X-13540Y-16630D01*
Y-15852D01*
X-12214D01*
X-11860Y-16205D01*
Y-16630D01*
X-11860Y-16670D01*
X-11957Y-17130D01*
X-12060D01*
Y-18561D01*
X-8540D01*
Y-17130D01*
X-8643D01*
Y-17130D01*
X-8740Y-16670D01*
X-8740Y-16630D01*
Y-13708D01*
X-11860D01*
Y-14526D01*
X-13540D01*
Y-13708D01*
X-13964D01*
X-14171Y-13208D01*
X-13539Y-12576D01*
X-13300Y-12623D01*
X-12832Y-12530D01*
X-12435Y-12265D01*
X-12170Y-11868D01*
X-12077Y-11400D01*
X-12170Y-10932D01*
X-12435Y-10535D01*
X-12832Y-10270D01*
X-13300Y-10176D01*
D02*
G37*
G36*
X40168Y-10871D02*
X37950D01*
Y-12892D01*
X40168D01*
Y-10871D01*
D02*
G37*
G36*
X37450D02*
X35232D01*
Y-12892D01*
X37450D01*
Y-10871D01*
D02*
G37*
G36*
X42950Y-12450D02*
X41822D01*
X41881Y-12746D01*
X42191Y-13209D01*
X42654Y-13519D01*
X42950Y-13578D01*
Y-12450D01*
D02*
G37*
G36*
X40168Y-13393D02*
X37950D01*
Y-15414D01*
X40168D01*
Y-13393D01*
D02*
G37*
G36*
X37450D02*
X35232D01*
Y-15414D01*
X37450D01*
Y-13393D01*
D02*
G37*
G36*
X-10550Y-19061D02*
X-12060D01*
Y-20492D01*
X-10550D01*
Y-19061D01*
D02*
G37*
G36*
X-13340D02*
X-14850D01*
Y-20492D01*
X-13340D01*
Y-19061D01*
D02*
G37*
G36*
X-15350D02*
X-16860D01*
Y-20492D01*
X-15350D01*
Y-19061D01*
D02*
G37*
G36*
X-7277Y-21450D02*
X-8150D01*
Y-22323D01*
X-7951Y-22283D01*
X-7571Y-22029D01*
X-7317Y-21649D01*
X-7277Y-21450D01*
D02*
G37*
G36*
X-8540Y-19061D02*
X-10050D01*
Y-20492D01*
X-9866D01*
X-9531Y-20992D01*
X-9572Y-21200D01*
X-9770Y-21440D01*
X-10639D01*
Y-22950D01*
X-9208D01*
Y-22599D01*
X-8708Y-22311D01*
X-8650Y-22323D01*
Y-21200D01*
X-8400D01*
Y-20950D01*
X-7277D01*
X-7317Y-20751D01*
X-7571Y-20371D01*
X-7951Y-20117D01*
X-8400Y-20028D01*
X-8540Y-19912D01*
Y-19061D01*
D02*
G37*
%LPD*%
D13*
X1100Y29300D02*
D03*
Y26938D02*
D03*
X4400Y29281D02*
D03*
Y26919D02*
D03*
X3800Y14119D02*
D03*
Y16481D02*
D03*
D14*
X-10889Y-23200D02*
D03*
X-14511D02*
D03*
X-16789Y3600D02*
D03*
X-20411D02*
D03*
D17*
X29800Y13889D02*
D03*
Y17511D02*
D03*
X34300Y13889D02*
D03*
Y17511D02*
D03*
X-10300Y-18811D02*
D03*
Y-15189D02*
D03*
X-15100Y-18811D02*
D03*
Y-15189D02*
D03*
D23*
X-3999Y30622D02*
D03*
Y32827D02*
D03*
D25*
X-11600Y15900D02*
D03*
X-10700Y37500D02*
D03*
X-11700Y22400D02*
D03*
Y29300D02*
D03*
X-3500Y38400D02*
D03*
X4617Y42765D02*
D03*
X9315Y41055D02*
D03*
X14014Y39345D02*
D03*
X18712Y37635D02*
D03*
D34*
X-25381Y-1600D02*
D03*
X-23019D02*
D03*
X-20519Y-16700D02*
D03*
X-22881D02*
D03*
D41*
X34300Y17511D02*
Y25849D01*
X34400Y24800D02*
X36800D01*
X42257Y-13142D02*
X43200Y-12200D01*
X37700Y-13142D02*
X42257D01*
X18300Y41200D02*
X18712Y40788D01*
Y37635D02*
Y40788D01*
X35567Y-18458D02*
X37700D01*
X29100Y-24924D02*
X35567Y-18458D01*
X12500Y0D02*
X13300Y800D01*
X29800Y10300D02*
Y13889D01*
X34300D01*
X32162Y27987D02*
X34300Y25849D01*
X29800Y17511D02*
X34300D01*
X-16789Y3600D02*
Y8154D01*
X-25381Y-5280D02*
Y-1600D01*
X-18862Y-23200D02*
X-14511D01*
X-15100Y-18811D02*
X-10300D01*
X-10889Y-23200D02*
X-10300Y-22611D01*
X-9811Y-21200D02*
X-8400D01*
X-10300Y-22611D02*
Y-18811D01*
X-20411Y3600D02*
X-18000Y1189D01*
Y-3424D02*
Y1189D01*
X-34500Y-25649D02*
X-32162Y-27987D01*
X-30862Y32162D02*
X-27987D01*
X-31500Y32800D02*
X-30862Y32162D01*
X37843Y-18600D02*
X41300D01*
X-37200Y-23500D02*
X-34500D01*
Y-25649D02*
Y-23500D01*
Y-15709D01*
X-19000Y7100D02*
X-17842D01*
X-16789Y8154D01*
X-16443Y8500D01*
X-25600Y-7700D02*
Y-5499D01*
X-25559Y-5458D01*
X13700Y-3900D02*
Y-1200D01*
X12500Y0D02*
X13700Y-1200D01*
X3800Y14119D02*
X5719Y12200D01*
Y8756D02*
Y12200D01*
X5388Y8424D02*
X5719Y8756D01*
D42*
X-20441Y-16622D02*
Y-12742D01*
X-11700Y29300D02*
X-11000D01*
X-9300Y27600D01*
X-8100Y26000D02*
X-6800D01*
X-11600Y15900D02*
X-10900D01*
X-8400Y18400D01*
X-2424Y21276D02*
X1100Y24800D01*
Y26938D01*
X-12168Y40268D02*
X-6069D01*
X2300Y31381D02*
Y32299D01*
Y34300D01*
Y31381D02*
X4400Y29281D01*
X-4200Y38400D02*
X-3500D01*
X-6069Y40268D02*
X-4200Y38400D01*
X1600Y35000D02*
X2300Y34300D01*
X-3500Y38400D02*
X-100Y35000D01*
X1600D01*
X725Y29675D02*
Y32299D01*
X-1376Y34400D02*
X725Y32299D01*
X-4400Y34400D02*
X-1376D01*
X-7500Y37500D02*
X-4400Y34400D01*
X-10700Y37500D02*
X-7500D01*
X-25559Y-12742D02*
Y-11759D01*
X-20441Y-6641D01*
X-27200Y-14800D02*
X-22881D01*
Y-16700D02*
Y-14800D01*
X-27200D02*
Y-10200D01*
X-22881Y-14800D02*
Y-12861D01*
X-23000Y-7100D02*
Y-5458D01*
X-25200Y-9300D02*
X-23000Y-7100D01*
X-23019Y-5439D02*
Y-1600D01*
X-25600Y-8900D02*
X-25200Y-9300D01*
X-37000Y-8900D02*
X-25600D01*
X-42900Y-10200D02*
X-27200D01*
X-43600Y-10900D02*
X-42900Y-10200D01*
X-43600Y-15900D02*
Y-10900D01*
Y-15900D02*
X-40400Y-19100D01*
X-39300D01*
X-20532Y-24700D02*
Y-19068D01*
Y-16713D01*
X-35013Y27986D02*
X-32162D01*
X-36100Y26900D02*
X-35013Y27986D01*
X-34553Y21453D02*
X-31081Y24924D01*
X-29100D01*
X20600Y30200D02*
X25876Y24924D01*
X29100D01*
X19900Y30200D02*
X20600D01*
X22362Y31662D02*
X24924Y29100D01*
X19938Y31662D02*
X22362D01*
X25600Y33000D02*
X26438Y32162D01*
X19900Y33500D02*
X21200D01*
X21700Y33000D02*
X25600D01*
X21200Y33500D02*
X21700Y33000D01*
X-17800Y23200D02*
X-11700Y29300D01*
X-12900Y15900D02*
X-11600D01*
X-17000Y20000D02*
X-12900Y15900D01*
X-20600Y23200D02*
X-17800D01*
X-11700Y22400D02*
X-8100Y26000D01*
X-12400Y21700D02*
X-11700Y22400D01*
X-20600Y20000D02*
X-17000D01*
X-20600Y21700D02*
X-12400D01*
X-3999Y27575D02*
Y30724D01*
Y27575D02*
X-850Y24425D01*
X-9300Y27600D02*
X-7900D01*
X-850Y18119D02*
Y19701D01*
X-1500Y17469D02*
X-850Y18119D01*
X1519Y16481D02*
X3800D01*
X532Y17469D02*
X1519Y16481D01*
X-1500Y17469D02*
X532D01*
X75Y13532D02*
X470D01*
X2101Y11900D01*
X3700D01*
Y3700D02*
Y6700D01*
X0Y0D02*
X3700Y3700D01*
D43*
X-2424Y30724D02*
Y31924D01*
X-3300Y32800D02*
X-2424Y31924D01*
X-3972Y32800D02*
X-3300D01*
X-3999Y32827D02*
X-3972Y32800D01*
X-15100Y-13200D02*
X-13300Y-11400D01*
X-15100Y-15189D02*
Y-13200D01*
Y-15189D02*
X-10300D01*
X4200Y38300D02*
X4617Y38717D01*
Y42765D01*
X-3075Y13532D02*
Y13775D01*
X-4202Y14902D02*
X-3075Y13775D01*
X-4202Y14902D02*
Y16102D01*
D44*
X5900Y35900D02*
X7900Y37900D01*
X5900Y22000D02*
Y35900D01*
X-14800Y13700D02*
X-13600Y12500D01*
X-19100Y13700D02*
X-14800D01*
X-38300Y15500D02*
X-26500D01*
X-39500Y14300D02*
X-38300Y15500D01*
X-39500Y8500D02*
Y14300D01*
X14014Y37714D02*
Y39345D01*
X12300Y36000D02*
X14014Y37714D01*
X9100Y40840D02*
X9315Y41055D01*
X9100Y39100D02*
Y40840D01*
X7900Y37900D02*
X9100Y39100D01*
X-24924Y28376D02*
Y29100D01*
X-26600Y26700D02*
X-24924Y28376D01*
X-24924Y-29100D02*
Y-28424D01*
X-23400Y-26900D01*
X-28100Y-21000D02*
Y-16300D01*
X-23400Y-26900D02*
Y-25700D01*
X-28100Y-21000D02*
X-23400Y-25700D01*
X-30000Y-30149D02*
X-27986Y-32162D01*
X-30000Y-30149D02*
X-25300Y-25449D01*
X-29200Y-21349D02*
Y-17800D01*
Y-21549D02*
X-25300Y-25449D01*
X-29100Y-24924D02*
Y-24600D01*
X-30900Y-23124D02*
X-29100Y-24924D01*
X-30900Y-23124D02*
Y-19300D01*
X-18400Y-35100D02*
X-17614Y-34314D01*
X14872Y-35500D02*
X29900D01*
X13686Y-34314D02*
X14872Y-35500D01*
X29900D02*
X32162Y-33238D01*
X-17614Y-34314D02*
X13686D01*
X32162Y-33238D02*
Y-27986D01*
X14200Y-33414D02*
X15286Y-34500D01*
X-17400Y-32900D02*
X-16886Y-33414D01*
X15286Y-34500D02*
X24200D01*
X26538Y-32162D01*
X-16886Y-33414D02*
X14200D01*
X26538Y-32162D02*
X27987D01*
X14714Y-32514D02*
X15700Y-33500D01*
X-15486Y-32514D02*
X14714D01*
X15700Y-33500D02*
X22700D01*
X23300Y-32900D01*
Y-30724D01*
X-16500Y-31500D02*
X-15486Y-32514D01*
X23300Y-30724D02*
X24924Y-29100D01*
X26438Y32162D02*
X27986D01*
X-1024Y21276D02*
X5176D01*
X5900Y22000D01*
X-1324Y20820D02*
Y20976D01*
X-1024Y21276D01*
X-13600Y12500D02*
X-9644D01*
X-1324Y20820D01*
D45*
X-36521Y5994D02*
X-36328Y5800D01*
X-36521Y5994D02*
Y13579D01*
X1100Y26938D02*
X4381D01*
D49*
X-9843Y-28583D02*
D03*
X9843Y-28386D02*
D03*
D50*
X-14173Y-40000D02*
D03*
X14173Y-39998D02*
D03*
D51*
X37200Y-24200D02*
D03*
X24100Y36300D02*
D03*
X-40700Y-14700D02*
D03*
D52*
X-13300Y-11400D02*
D03*
X-43300Y12300D02*
D03*
X-29600Y-13100D02*
D03*
X36800Y24800D02*
D03*
X22600Y14500D02*
D03*
X43200Y-12200D02*
D03*
X-31500Y32800D02*
D03*
X41300Y-18600D02*
D03*
X-37200Y-23500D02*
D03*
X29800Y10300D02*
D03*
D53*
X15200Y16000D02*
D03*
X13700Y-3900D02*
D03*
X-4202Y16102D02*
D03*
X15600Y27800D02*
D03*
X18300Y41200D02*
D03*
X4200Y38300D02*
D03*
X-12800Y1700D02*
D03*
X-19100Y13700D02*
D03*
X-26500Y15500D02*
D03*
X-23900Y23500D02*
D03*
X-6800Y26000D02*
D03*
X-8400Y18400D02*
D03*
X12300Y36000D02*
D03*
X7900Y37900D02*
D03*
X-12168Y40268D02*
D03*
X-10200Y38300D02*
D03*
X-20532Y-19068D02*
D03*
X-37000Y-8900D02*
D03*
X-39300Y-19100D02*
D03*
X-18981Y-23081D02*
D03*
X-8400Y-21200D02*
D03*
X-20532Y-24700D02*
D03*
X-36100Y26900D02*
D03*
X-26600Y26700D02*
D03*
X-18400Y-35100D02*
D03*
X-17400Y-32900D02*
D03*
X-16500Y-31500D02*
D03*
X19900Y30200D02*
D03*
X19800Y31800D02*
D03*
X19900Y33500D02*
D03*
X-20600Y23200D02*
D03*
Y21600D02*
D03*
Y20000D02*
D03*
X-39600Y8400D02*
D03*
X-12400Y9600D02*
D03*
X-7900Y27600D02*
D03*
X-18025Y-3450D02*
D03*
X-25600Y-7700D02*
D03*
X3700Y11900D02*
D03*
Y6700D02*
D03*
D54*
X-2424Y30724D02*
D03*
X-36521Y13579D02*
D03*
X-2424Y21276D02*
D03*
X2300Y32299D02*
D03*
X725D02*
D03*
X-34553Y21453D02*
D03*
X-28100Y-16300D02*
D03*
X-29200Y-17800D02*
D03*
X-30900Y-19300D02*
D03*
X-31700Y18500D02*
D03*
X-3999Y29150D02*
D03*
X-850Y24425D02*
D03*
X-19000Y7100D02*
D03*
X-850Y19701D02*
D03*
D55*
X0Y-2500D02*
D03*
D56*
X10000Y0D02*
G03*
X5388Y8424I-10000J0D01*
G01*
D02*
G03*
X10000Y0I-5388J-8424D01*
G01*
D57*
X0D02*
D03*
D58*
X12500D02*
D03*
D59*
X32162Y27987D02*
D03*
X27986Y32162D02*
D03*
X24924Y29100D02*
D03*
X29100Y24924D02*
D03*
X-32162Y-27987D02*
D03*
X-27986Y-32162D02*
D03*
X-24924Y-29100D02*
D03*
X-29100Y-24924D02*
D03*
D60*
X-27987Y32162D02*
D03*
X-32162Y27986D02*
D03*
X-29100Y24924D02*
D03*
X-24924Y29100D02*
D03*
X29100Y-24924D02*
D03*
X24924Y-29100D02*
D03*
X27987Y-32162D02*
D03*
X32162Y-27986D02*
D03*
D61*
X-25559Y-5458D02*
D03*
X-23000D02*
D03*
X-20441D02*
D03*
Y-12742D02*
D03*
X-23000D02*
D03*
X-25559D02*
D03*
D62*
X-34500Y-15709D02*
D03*
Y-4291D02*
D03*
D63*
X-27272Y5800D02*
D03*
X-36328D02*
D03*
D64*
X37700Y-13142D02*
D03*
Y-18458D02*
D03*
D65*
X-16443Y8500D02*
D03*
X-21757D02*
D03*
D66*
X75Y13532D02*
D03*
X-3075D02*
D03*
D67*
X-1500Y17469D02*
D03*
D68*
X-23800Y10543D02*
Y23500D01*
Y9642D02*
Y10543D01*
X-21757Y8500D01*
Y4947D02*
X-20411Y3600D01*
X-21757Y4947D02*
Y8500D01*
X-36328Y928D02*
Y5800D01*
Y928D02*
X-34500Y-900D01*
Y-4291D02*
Y-900D01*
D69*
X-24572Y8500D02*
X-21757D01*
X-27272Y5800D02*
X-24572Y8500D01*
M02*
