G04 Layer_Physical_Order=1*
G04 Layer_Color=255*
%FSLAX25Y25*%
%MOIN*%
G70*
G01*
G75*
%ADD10R,0.06299X0.07480*%
%ADD11R,0.01575X0.05315*%
%ADD12R,0.04724X0.07480*%
%ADD13R,0.01378X0.01181*%
%ADD14R,0.02362X0.02520*%
%ADD15R,0.03150X0.03150*%
G04:AMPARAMS|DCode=16|XSize=9mil|YSize=9mil|CornerRadius=4.5mil|HoleSize=0mil|Usage=FLASHONLY|Rotation=0.000|XOffset=0mil|YOffset=0mil|HoleType=Round|Shape=RoundedRectangle|*
%AMROUNDEDRECTD16*
21,1,0.00900,0.00000,0,0,0.0*
21,1,0.00000,0.00900,0,0,0.0*
1,1,0.00900,0.00000,0.00000*
1,1,0.00900,0.00000,0.00000*
1,1,0.00900,0.00000,0.00000*
1,1,0.00900,0.00000,0.00000*
%
%ADD16ROUNDEDRECTD16*%
%ADD17R,0.02520X0.02362*%
%ADD18R,0.08268X0.08268*%
%ADD19R,0.01181X0.02835*%
%ADD20R,0.02835X0.01181*%
%ADD21R,0.02362X0.02165*%
%ADD22R,0.01260X0.01260*%
%ADD23R,0.01260X0.01260*%
%ADD24C,0.00866*%
%ADD25C,0.03937*%
%ADD26C,0.00709*%
%ADD27R,0.03543X0.05118*%
%ADD28R,0.07087X0.02953*%
%ADD29R,0.07087X0.02362*%
%ADD30R,0.02756X0.03543*%
%ADD31R,0.02756X0.15748*%
%ADD32R,0.02756X0.05906*%
%ADD33C,0.06693*%
%ADD34R,0.01181X0.01378*%
%ADD35R,0.03347X0.01102*%
%ADD36R,0.02953X0.01102*%
%ADD37C,0.01043*%
%ADD38C,0.01083*%
%ADD39R,0.02795X0.03622*%
%ADD40R,0.02953X0.02559*%
%ADD41C,0.01000*%
%ADD42C,0.00500*%
%ADD43C,0.00700*%
%ADD44C,0.00600*%
%ADD45C,0.00800*%
%ADD46C,0.00400*%
%ADD47C,0.00300*%
%ADD48C,0.01100*%
%ADD49O,0.04921X0.05906*%
%ADD50O,0.04823X0.07480*%
%ADD51C,0.03598*%
%ADD52C,0.01800*%
%ADD53C,0.01300*%
%ADD54C,0.01000*%
%ADD55C,0.02800*%
G36*
X4074Y46564D02*
X8117Y46032D01*
X12098Y45149D01*
X15987Y43923D01*
X18270Y42977D01*
X18652Y42705D01*
X18550Y42371D01*
Y41450D01*
X19423D01*
X19383Y41649D01*
X19129Y42029D01*
X18975Y42132D01*
X18975Y42132D01*
X18929Y42163D01*
X18929Y42163D01*
X18929Y42164D01*
X18931Y42168D01*
X18932Y42169D01*
X19116Y42513D01*
X19578Y42435D01*
X19754Y42362D01*
X23371Y40479D01*
X26810Y38289D01*
X30045Y35806D01*
X33051Y33051D01*
X35806Y30045D01*
X38289Y26810D01*
X40479Y23371D01*
X40538Y23258D01*
X40154Y22913D01*
X39846Y23119D01*
X39550Y23178D01*
Y21800D01*
Y20422D01*
X39846Y20481D01*
X40309Y20791D01*
X40619Y21254D01*
X40727Y21800D01*
X40724Y21819D01*
X41200Y21987D01*
X42362Y19754D01*
X43923Y15987D01*
X45149Y12098D01*
X45306Y11390D01*
X44993Y11000D01*
X41987D01*
X41951Y11000D01*
X41951Y11000D01*
X41951Y11000D01*
X41951D01*
X41886Y10966D01*
X41570Y10800D01*
X41570D01*
X41089Y10800D01*
X40962D01*
Y14608D01*
X40881Y15018D01*
X40649Y15365D01*
X38757Y17257D01*
X38410Y17489D01*
X38000Y17571D01*
X33682D01*
X33489Y17990D01*
X33489Y18071D01*
Y18585D01*
X33552Y18900D01*
X33489Y19215D01*
Y19772D01*
X33066D01*
X32891Y19889D01*
X32481Y19971D01*
X29673D01*
Y20698D01*
X29673Y20698D01*
X29591Y21107D01*
X29359Y21455D01*
X29359Y21455D01*
X25632Y25182D01*
X25284Y25414D01*
X24875Y25496D01*
X20137D01*
X19727Y25414D01*
X19661Y25370D01*
X18764D01*
Y25532D01*
X18677Y25742D01*
X18589Y25952D01*
X18395Y26147D01*
Y27168D01*
X18730D01*
Y28672D01*
Y28755D01*
X18930Y29172D01*
X19430Y29372D01*
X19529Y29305D01*
X19900Y29231D01*
X20271Y29305D01*
X20585Y29515D01*
X20795Y29829D01*
X20869Y30200D01*
X20795Y30571D01*
X20726Y30674D01*
X20592Y30920D01*
X20687Y31418D01*
X20695Y31429D01*
X20769Y31800D01*
X20695Y32171D01*
X20607Y32302D01*
X20585Y32815D01*
X20795Y33129D01*
X20869Y33500D01*
X20795Y33871D01*
X20585Y34185D01*
X20271Y34395D01*
X19900Y34469D01*
X19529Y34395D01*
X19215Y34185D01*
X19005Y33871D01*
X18931Y33500D01*
X19005Y33129D01*
X19093Y32998D01*
X19115Y32485D01*
X18990Y32297D01*
X18905Y32171D01*
X18843Y31856D01*
X18843D01*
Y31856D01*
X18551Y31458D01*
X18530Y31432D01*
X18451D01*
X18050D01*
Y30302D01*
X17800D01*
Y30052D01*
X16670D01*
Y29445D01*
X16670Y29262D01*
Y29172D01*
X16760Y28984D01*
X16685Y28773D01*
X16618Y28725D01*
X16097Y28610D01*
X15971Y28695D01*
X15600Y28769D01*
X15229Y28695D01*
X14915Y28485D01*
X14865Y28410D01*
X14455Y28344D01*
X14304Y28364D01*
X14117Y28738D01*
X14230Y28972D01*
Y29062D01*
X14230Y29245D01*
Y29852D01*
X11970D01*
Y29245D01*
X11970Y29062D01*
Y28972D01*
X12083Y28738D01*
X11875Y28322D01*
X11767Y28238D01*
X9387D01*
Y32168D01*
X12258Y35040D01*
X12300Y35031D01*
X12671Y35105D01*
X12985Y35315D01*
X13195Y35629D01*
X13269Y36000D01*
X13195Y36371D01*
X12985Y36685D01*
X12671Y36895D01*
X12300Y36969D01*
X11929Y36895D01*
X11615Y36685D01*
X11405Y36371D01*
X11331Y36000D01*
X11340Y35958D01*
X8962Y33580D01*
X8744Y33614D01*
X8727Y33626D01*
X8615Y33770D01*
X8471Y34163D01*
X8549Y34351D01*
Y37191D01*
X8585Y37215D01*
X8795Y37529D01*
X8869Y37900D01*
X8795Y38271D01*
X8585Y38585D01*
X8271Y38795D01*
X7900Y38869D01*
X7529Y38795D01*
X7215Y38585D01*
X7005Y38271D01*
X6931Y37900D01*
X7005Y37529D01*
X7215Y37215D01*
X7251Y37191D01*
Y34620D01*
X6565Y33935D01*
X6375Y33476D01*
Y33382D01*
X956D01*
X857Y33882D01*
X971Y33929D01*
X2921Y35879D01*
X3008Y36090D01*
X3095Y36300D01*
Y39700D01*
X2921Y40121D01*
X721Y42321D01*
X300Y42495D01*
X-8568D01*
X-8989Y42321D01*
X-10102Y41209D01*
X-10200Y41228D01*
X-10567Y41155D01*
X-10878Y40947D01*
X-10879Y40947D01*
Y40947D01*
X-11480Y40948D01*
X-11484Y40953D01*
X-11798Y41163D01*
X-12168Y41237D01*
X-12539Y41163D01*
X-12853Y40953D01*
X-13063Y40639D01*
X-13132Y40293D01*
X-13234Y40225D01*
X-13605Y40059D01*
X-13934Y40388D01*
X-14199Y40565D01*
X-14511Y40627D01*
X-14640Y41096D01*
Y41292D01*
X-17760D01*
Y40627D01*
X-18340D01*
Y41292D01*
X-20727D01*
X-20850Y41792D01*
X-19754Y42362D01*
X-15987Y43923D01*
X-12098Y45149D01*
X-8117Y46032D01*
X-4074Y46564D01*
X0Y46742D01*
X4074Y46564D01*
D02*
G37*
G36*
X-13577Y37723D02*
X-13312Y37546D01*
X-13041Y37492D01*
X-12952Y37332D01*
X-12949Y37321D01*
X-12875Y36984D01*
X-13063Y36702D01*
X-13137Y36331D01*
X-13063Y35961D01*
X-12853Y35647D01*
X-12539Y35437D01*
X-12168Y35363D01*
X-11798Y35437D01*
X-11484Y35647D01*
X-10956Y35581D01*
X-10934Y35569D01*
X-10606Y35351D01*
X-10450Y35320D01*
Y36331D01*
X-9950D01*
Y35320D01*
X-9794Y35351D01*
X-9459Y35574D01*
X-9448Y35581D01*
X-9327Y35597D01*
X-8827Y35167D01*
Y34295D01*
X-10500D01*
X-10711Y34208D01*
X-10921Y34121D01*
X-11218Y33824D01*
X-11823Y33877D01*
X-12088Y34054D01*
X-12400Y34116D01*
X-12712Y34054D01*
X-12949Y33895D01*
X-14800D01*
X-15010Y33808D01*
X-15221Y33721D01*
X-17832Y31110D01*
X-18061Y31285D01*
X-18948Y31653D01*
X-19900Y31778D01*
X-20852Y31653D01*
X-21739Y31285D01*
X-22501Y30701D01*
X-23085Y29939D01*
X-23453Y29052D01*
X-23578Y28100D01*
X-23453Y27148D01*
X-23287Y26747D01*
X-23710Y26464D01*
X-24084Y26838D01*
Y31200D01*
X-24146Y31512D01*
X-24323Y31777D01*
X-24323Y31777D01*
X-25955Y33408D01*
X-25763Y33870D01*
X-24870D01*
Y34411D01*
X-24530Y34770D01*
X-23457D01*
X-23445Y34758D01*
X-23235Y34270D01*
X-23383Y34049D01*
X-23423Y33850D01*
X-21177D01*
X-21209Y34008D01*
X-21202Y34072D01*
X-20922Y34508D01*
X-20150D01*
Y36189D01*
X-19650D01*
Y34508D01*
X-18460D01*
X-18140Y34508D01*
X-18050D01*
X-17960D01*
X-17640Y34508D01*
X-16450D01*
Y36189D01*
X-16200D01*
Y36439D01*
X-14440D01*
Y37870D01*
X-14413Y37904D01*
X-13986Y38133D01*
X-13577Y37723D01*
D02*
G37*
G36*
X-34650Y28471D02*
X-34353Y28227D01*
Y27922D01*
X-34353Y27511D01*
X-34353Y27511D01*
X-34353D01*
X-34332Y27430D01*
Y27430D01*
X-34332Y26931D01*
Y26550D01*
X-33202D01*
Y26050D01*
X-34332D01*
Y25828D01*
X-34794Y25636D01*
X-35398Y26240D01*
X-35205Y26529D01*
X-35131Y26900D01*
X-35205Y27271D01*
X-35415Y27585D01*
X-35729Y27795D01*
X-36100Y27869D01*
X-36471Y27795D01*
X-36785Y27585D01*
X-36995Y27271D01*
X-37069Y26900D01*
X-36995Y26529D01*
X-36785Y26215D01*
X-36695Y26155D01*
Y26100D01*
X-36521Y25679D01*
X-35457Y24615D01*
X-35476Y24528D01*
X-35961Y24275D01*
X-36123Y24384D01*
X-36271Y24413D01*
Y23421D01*
X-36521D01*
Y23171D01*
X-37513D01*
X-37484Y23023D01*
X-37258Y22685D01*
X-37247Y22678D01*
X-37186Y22117D01*
X-37389Y21812D01*
X-37461Y21453D01*
X-37389Y21093D01*
X-37186Y20788D01*
X-37156Y20769D01*
Y20168D01*
X-37186Y20149D01*
X-37389Y19844D01*
X-37461Y19484D01*
X-37389Y19125D01*
X-37186Y18820D01*
X-37247Y18259D01*
X-37258Y18252D01*
X-37484Y17914D01*
X-37513Y17766D01*
X-36521D01*
Y17266D01*
X-37513D01*
X-37484Y17117D01*
X-37258Y16779D01*
Y16284D01*
X-37484Y15946D01*
X-37513Y15797D01*
X-36521D01*
Y15297D01*
X-37513D01*
X-37484Y15149D01*
X-37258Y14811D01*
X-37247Y14804D01*
X-37186Y14243D01*
X-37389Y13938D01*
X-37461Y13579D01*
X-37389Y13219D01*
X-37186Y12914D01*
X-36881Y12711D01*
X-36521Y12639D01*
X-36162Y12711D01*
X-35868Y12907D01*
X-35795Y12893D01*
X-35368Y12745D01*
Y11663D01*
X-39509D01*
X-40723Y12877D01*
X-40988Y13054D01*
X-41300Y13116D01*
X-41300Y13116D01*
X-42402D01*
X-42435Y13165D01*
X-42832Y13430D01*
X-43300Y13523D01*
X-43768Y13430D01*
X-44165Y13165D01*
X-44172Y13155D01*
X-44754Y13184D01*
X-44787Y13246D01*
X-43923Y15987D01*
X-42362Y19754D01*
X-40479Y23371D01*
X-38289Y26810D01*
X-36430Y29232D01*
X-35855Y29160D01*
X-35729Y28971D01*
X-35349Y28717D01*
X-35150Y28677D01*
Y29800D01*
X-34650D01*
Y28471D01*
D02*
G37*
G36*
X-29322Y36178D02*
X-29016Y35966D01*
Y34500D01*
X-29016Y34500D01*
X-28954Y34188D01*
X-28777Y33923D01*
X-25716Y30862D01*
Y27853D01*
X-26216Y27586D01*
X-26229Y27595D01*
X-26600Y27669D01*
X-26670Y27655D01*
X-27170Y28017D01*
Y28250D01*
X-28300D01*
Y28500D01*
X-28550D01*
Y29630D01*
X-29430D01*
Y29087D01*
X-29930Y28820D01*
X-30009Y28873D01*
Y29689D01*
X-31791D01*
X-31791Y29689D01*
Y29689D01*
X-31791Y29689D01*
X-32172Y29889D01*
X-32172Y29889D01*
X-32208Y29889D01*
X-33012D01*
Y28700D01*
X-33512D01*
Y29889D01*
X-33745D01*
X-33817Y30249D01*
X-34071Y30629D01*
X-34395Y30845D01*
X-34470Y30979D01*
X-34552Y31413D01*
X-33051Y33051D01*
X-30045Y35806D01*
X-29501Y36224D01*
X-29322Y36178D01*
D02*
G37*
G36*
X-22501Y25499D02*
X-21739Y24915D01*
X-20984Y24602D01*
X-20973Y24177D01*
X-20985Y24085D01*
X-21285Y23885D01*
X-21495Y23571D01*
X-21569Y23200D01*
X-21495Y22829D01*
X-21285Y22515D01*
X-20971Y22305D01*
X-20600Y22231D01*
X-20229Y22305D01*
X-19915Y22515D01*
X-19705Y22829D01*
X-19631Y23200D01*
X-19705Y23571D01*
X-19915Y23885D01*
X-19980Y23928D01*
X-19927Y24258D01*
X-19832Y24431D01*
X-18948Y24547D01*
X-18241Y24840D01*
X-17816Y24620D01*
X-17741Y24530D01*
Y9935D01*
X-18241Y9886D01*
X-18246Y9912D01*
X-18423Y10177D01*
X-18688Y10354D01*
X-19000Y10416D01*
X-19268Y10362D01*
X-19302Y10367D01*
X-19768Y10530D01*
X-19768Y10530D01*
D01*
X-19768D01*
X-20230Y10530D01*
X-21272D01*
X-21355D01*
X-21772Y10730D01*
X-21862D01*
X-22045Y10730D01*
X-22652D01*
Y9600D01*
Y8470D01*
X-22045D01*
X-21862Y8470D01*
X-21772D01*
X-21355Y8670D01*
X-21272D01*
X-20230D01*
X-19768Y8670D01*
X-19768D01*
X-19768D01*
X-19768Y8670D01*
X-19302Y8833D01*
X-19268Y8838D01*
X-19000Y8784D01*
X-18688Y8846D01*
X-18423Y9023D01*
X-18246Y9288D01*
X-18241Y9314D01*
X-17741Y9265D01*
Y7916D01*
X-18241Y7764D01*
X-18279Y7821D01*
X-18610Y8042D01*
X-18750Y8070D01*
Y7100D01*
Y6130D01*
X-18610Y6158D01*
X-18279Y6379D01*
X-18241Y6436D01*
X-17741Y6284D01*
Y4110D01*
X-17741Y4110D01*
X-17722Y4064D01*
X-18001Y3650D01*
X-18073Y3605D01*
X-18318Y3556D01*
X-18491Y3440D01*
X-18566Y3390D01*
X-18566Y3390D01*
X-19059D01*
X-19059Y3390D01*
X-19134Y3440D01*
X-19307Y3556D01*
X-19600Y3614D01*
X-19893Y3556D01*
X-19931Y3530D01*
X-20141Y3390D01*
X-20598Y3607D01*
X-20804Y3745D01*
X-20925Y3768D01*
Y2850D01*
X-21425D01*
Y3768D01*
X-21545Y3745D01*
X-21752Y3607D01*
X-22209Y3390D01*
X-22418Y3530D01*
X-22457Y3556D01*
X-22613Y3587D01*
X-22817Y3952D01*
X-22848Y4105D01*
X-22681Y4354D01*
X-22622Y4650D01*
X-24000D01*
Y4900D01*
X-24250D01*
Y6278D01*
X-24546Y6219D01*
X-25009Y5909D01*
X-25011Y5907D01*
X-25211Y5772D01*
Y5772D01*
X-26150D01*
Y4681D01*
X-26650D01*
Y5772D01*
X-27111D01*
X-27589Y5772D01*
X-27600D01*
X-27611D01*
X-28089Y5772D01*
X-28550D01*
Y4681D01*
X-28800D01*
Y4431D01*
X-29989D01*
Y3627D01*
X-29989Y3593D01*
Y3591D01*
X-29789Y3173D01*
X-29789Y3091D01*
Y2536D01*
X-30200Y2116D01*
X-30512Y2054D01*
X-30777Y1877D01*
X-30954Y1612D01*
X-31016Y1300D01*
X-30954Y988D01*
X-30777Y723D01*
X-30512Y546D01*
X-30200Y484D01*
X-29888Y546D01*
X-29872Y557D01*
X-29564Y446D01*
X-29425Y341D01*
X-29381Y284D01*
X-29372Y262D01*
Y-989D01*
X-29076D01*
Y-2210D01*
X-29389D01*
Y-3991D01*
X-27411D01*
Y-3991D01*
X-26956Y-4029D01*
X-26952Y-4535D01*
X-27411Y-4572D01*
Y-4572D01*
X-29389D01*
Y-6353D01*
X-29063D01*
Y-7689D01*
X-29653D01*
Y-11887D01*
X-30068Y-11970D01*
X-30465Y-12235D01*
X-30528Y-12329D01*
X-31028Y-12178D01*
Y-11011D01*
X-32691D01*
X-32773Y-11011D01*
X-33191Y-10811D01*
X-33193D01*
X-33227Y-10811D01*
X-34031D01*
Y-12000D01*
Y-13189D01*
X-33227D01*
X-33193Y-13189D01*
X-33191D01*
X-33014Y-13104D01*
X-32537Y-13379D01*
X-32514Y-13416D01*
Y-14280D01*
X-33113D01*
Y-15749D01*
X-33113Y-15983D01*
Y-16005D01*
X-33184Y-16137D01*
X-33640Y-16037D01*
X-33693Y-15989D01*
X-33694Y-15983D01*
X-33694D01*
Y-14280D01*
X-37359D01*
Y-13724D01*
X-36617Y-12983D01*
X-36617Y-12983D01*
X-36459Y-12600D01*
Y-9681D01*
X-36315Y-9585D01*
X-36105Y-9271D01*
X-36031Y-8900D01*
X-36105Y-8529D01*
X-36315Y-8215D01*
X-36629Y-8005D01*
X-37000Y-7931D01*
X-37371Y-8005D01*
X-37685Y-8215D01*
X-37895Y-8529D01*
X-37969Y-8900D01*
X-37895Y-9271D01*
X-37685Y-9585D01*
X-37541Y-9681D01*
Y-12376D01*
X-38283Y-13117D01*
X-38416Y-13440D01*
X-38653Y-13523D01*
X-38941Y-13554D01*
X-39186Y-13186D01*
X-39881Y-12723D01*
X-40700Y-12560D01*
X-41519Y-12723D01*
X-42213Y-13186D01*
X-42677Y-13881D01*
X-42840Y-14700D01*
X-42677Y-15519D01*
X-42213Y-16214D01*
X-41519Y-16677D01*
X-40700Y-16840D01*
X-39881Y-16677D01*
X-39186Y-16214D01*
X-38941Y-15846D01*
X-38441Y-15998D01*
Y-17200D01*
X-38283Y-17583D01*
X-38063Y-17674D01*
X-37870Y-18118D01*
X-37861Y-18241D01*
X-38019Y-18463D01*
X-38034Y-18473D01*
X-38576D01*
X-38615Y-18415D01*
X-38929Y-18205D01*
X-39300Y-18131D01*
X-39671Y-18205D01*
X-39985Y-18415D01*
X-40195Y-18729D01*
X-40269Y-19100D01*
X-40195Y-19471D01*
X-39985Y-19785D01*
X-39671Y-19995D01*
X-39300Y-20069D01*
X-38929Y-19995D01*
X-38615Y-19785D01*
X-38534Y-19664D01*
X-37640D01*
Y-19920D01*
X-34195D01*
Y-20700D01*
X-34021Y-21121D01*
X-33600Y-21295D01*
X-27589D01*
Y-21610D01*
X-25611D01*
Y-19828D01*
X-25179Y-19664D01*
X-21276D01*
X-21216Y-19753D01*
X-20902Y-19963D01*
X-20532Y-20037D01*
X-20216Y-19974D01*
X-20107Y-20000D01*
X-19716Y-20267D01*
Y-22265D01*
X-25611D01*
Y-22190D01*
X-27589D01*
Y-22265D01*
X-28781D01*
X-28781Y-22265D01*
X-29093Y-22328D01*
X-29199Y-22398D01*
X-29228Y-22417D01*
X-29361Y-22315D01*
X-30248Y-21947D01*
X-31200Y-21822D01*
X-32152Y-21947D01*
X-33039Y-22315D01*
X-33801Y-22899D01*
X-34385Y-23661D01*
X-34753Y-24548D01*
X-34878Y-25500D01*
X-34753Y-26452D01*
X-34385Y-27339D01*
X-33801Y-28101D01*
X-33039Y-28685D01*
X-32152Y-29053D01*
X-31200Y-29178D01*
X-30248Y-29053D01*
X-29361Y-28685D01*
X-28599Y-28101D01*
X-28015Y-27339D01*
X-27647Y-26452D01*
X-27522Y-25500D01*
X-27647Y-24548D01*
X-27698Y-24427D01*
X-27345Y-23972D01*
X-25611D01*
Y-23897D01*
X-21739D01*
X-21501Y-24225D01*
X-21440Y-24397D01*
X-21500Y-24700D01*
X-21427Y-25071D01*
X-21216Y-25385D01*
X-21127Y-25445D01*
Y-27485D01*
X-22465Y-28823D01*
X-22648Y-28747D01*
X-23600Y-28622D01*
X-24552Y-28747D01*
X-25439Y-29115D01*
X-26201Y-29699D01*
X-26785Y-30461D01*
X-27153Y-31348D01*
X-27278Y-32300D01*
X-27153Y-33252D01*
X-26785Y-34139D01*
X-26201Y-34901D01*
X-25439Y-35485D01*
X-24552Y-35853D01*
X-23600Y-35978D01*
X-22648Y-35853D01*
X-21761Y-35485D01*
X-20999Y-34901D01*
X-20415Y-34139D01*
X-20047Y-33252D01*
X-19922Y-32300D01*
X-20047Y-31348D01*
X-20415Y-30461D01*
X-20999Y-29699D01*
X-21071Y-29644D01*
X-21104Y-29146D01*
X-20111Y-28152D01*
X-20060Y-28029D01*
X-19936Y-27732D01*
Y-25445D01*
X-19847Y-25385D01*
X-19637Y-25071D01*
X-19563Y-24700D01*
X-19623Y-24397D01*
X-19620Y-24387D01*
X-19508Y-24215D01*
X-19259Y-23994D01*
X-18981Y-24050D01*
X-18610Y-23976D01*
X-18296Y-23766D01*
X-18086Y-23452D01*
X-18012Y-23081D01*
X-18084Y-22720D01*
Y-20778D01*
X-17592Y-20760D01*
X-17592Y-20760D01*
X-17592Y-20760D01*
X-14670D01*
X-14630Y-20760D01*
X-14170Y-20857D01*
Y-20960D01*
X-12739D01*
Y-19200D01*
Y-17440D01*
X-14170D01*
Y-17543D01*
X-14170D01*
X-14630Y-17640D01*
X-14670Y-17640D01*
X-15457D01*
Y-16675D01*
X-14178D01*
Y-12925D01*
X-15855D01*
Y-4019D01*
X-15660Y-3895D01*
X-15298Y-3869D01*
X-14876Y-4291D01*
Y-5811D01*
X-15172D01*
Y-7789D01*
X-13510D01*
X-13427Y-7789D01*
X-13010Y-7989D01*
X-13052Y-8331D01*
X-10786D01*
X-10828Y-7989D01*
X-10828Y-7989D01*
X-10828Y-7989D01*
Y-7050D01*
X-11919D01*
Y-6800D01*
X-12169D01*
Y-5611D01*
X-12973D01*
X-13008Y-5611D01*
X-13010D01*
X-13186Y-5696D01*
X-13663Y-5421D01*
X-13686Y-5384D01*
Y-4044D01*
X-13571Y-3872D01*
X-11811D01*
Y-2090D01*
X-13390D01*
X-13451Y-2010D01*
X-13205Y-1521D01*
X-13185Y-1510D01*
X-11811D01*
Y272D01*
X-12137D01*
Y1000D01*
X-12115Y1015D01*
X-11905Y1329D01*
X-11831Y1700D01*
X-11905Y2071D01*
X-12115Y2385D01*
X-12429Y2595D01*
X-12800Y2669D01*
X-13171Y2595D01*
X-13485Y2385D01*
X-13605Y2206D01*
X-14105Y2357D01*
Y4153D01*
X-8353Y9905D01*
X-6400D01*
X-5979Y10079D01*
X-2004Y14055D01*
X-1916Y14265D01*
X-1445Y14096D01*
Y11684D01*
X-2185Y11537D01*
X-2936Y11035D01*
X-3437Y10285D01*
X-3613Y9400D01*
X-3437Y8515D01*
X-2936Y7764D01*
X-2185Y7263D01*
X-1300Y7087D01*
X-415Y7263D01*
X119Y7620D01*
X619Y7357D01*
Y4332D01*
X809Y3872D01*
X3310Y1372D01*
X3346Y1188D01*
X3523Y923D01*
X3788Y746D01*
X3851Y677D01*
X4001Y194D01*
X3946Y112D01*
X3884Y-200D01*
X3884Y-200D01*
Y-6662D01*
X-1188Y-11734D01*
X-1364Y-11999D01*
X-1427Y-12311D01*
X-1427Y-12311D01*
Y-13340D01*
X-2092D01*
Y-14084D01*
X-3719D01*
Y-13547D01*
X-6681D01*
Y-14084D01*
X-8272D01*
Y-12925D01*
X-12022D01*
Y-16675D01*
X-8272D01*
Y-15716D01*
X-6681D01*
Y-16313D01*
X-3719D01*
Y-15716D01*
X-2092D01*
Y-16460D01*
X-1427D01*
Y-17540D01*
X-2092D01*
Y-20660D01*
X830D01*
X870Y-20660D01*
X1330Y-20757D01*
Y-20860D01*
X2761D01*
Y-19100D01*
Y-17340D01*
X1330D01*
Y-17443D01*
X1330D01*
X870Y-17540D01*
X830Y-17540D01*
X205D01*
Y-16813D01*
X558Y-16460D01*
X830D01*
X870Y-16460D01*
X1330Y-16557D01*
Y-16660D01*
X2761D01*
Y-14900D01*
Y-13140D01*
X1330D01*
Y-13243D01*
X1330D01*
X870Y-13340D01*
X830Y-13340D01*
X205D01*
Y-12649D01*
X5277Y-7577D01*
X5277Y-7577D01*
X5383Y-7418D01*
X5454Y-7312D01*
X5516Y-7000D01*
Y-1748D01*
X6016Y-1505D01*
X6088Y-1554D01*
X6272Y-1590D01*
X6441Y-1759D01*
X6900Y-1949D01*
X9551D01*
Y-9808D01*
X6740D01*
Y-12730D01*
X6740Y-12770D01*
X6643Y-13230D01*
X6540D01*
Y-14661D01*
X10060D01*
Y-13230D01*
X9957D01*
Y-13230D01*
X9860Y-12770D01*
X10018Y-12295D01*
X11998D01*
Y-12370D01*
X15221D01*
Y-13148D01*
X11998D01*
Y-14929D01*
X14545D01*
X14752Y-15429D01*
X14541Y-15641D01*
X14351Y-16100D01*
Y-20500D01*
X14541Y-20959D01*
X16141Y-22559D01*
X16275Y-22615D01*
X16600Y-22749D01*
X17808D01*
Y-23660D01*
X20730D01*
X20770Y-23660D01*
X21230Y-23757D01*
Y-23860D01*
X22661D01*
Y-22100D01*
Y-20340D01*
X21230D01*
Y-20443D01*
X21230D01*
X20770Y-20540D01*
X20730Y-20540D01*
X20532D01*
X20203Y-20040D01*
X20270Y-19880D01*
Y-19102D01*
X20511D01*
Y-15814D01*
X21089D01*
Y-17135D01*
X23270D01*
Y-15814D01*
X23848D01*
Y-19102D01*
X25629D01*
Y-15722D01*
X25805Y-15605D01*
X26405Y-15005D01*
X26455Y-14929D01*
X29802D01*
X29851Y-15409D01*
Y-20231D01*
X27827Y-22255D01*
X27366Y-22008D01*
X27378Y-21950D01*
X26250D01*
Y-23078D01*
X26308Y-23066D01*
X26555Y-23527D01*
X24494Y-25588D01*
X24303Y-26047D01*
Y-28125D01*
X23078D01*
Y-31875D01*
X26828D01*
Y-28125D01*
X25602D01*
Y-26316D01*
X30751Y-21168D01*
X31251Y-21375D01*
Y-29531D01*
X27407Y-33375D01*
X26928Y-33425D01*
Y-33425D01*
X26928Y-33425D01*
X23178D01*
Y-37175D01*
X26928D01*
Y-35691D01*
X32359Y-30259D01*
X32415Y-30125D01*
X32549Y-29800D01*
Y-9900D01*
X32415Y-9575D01*
X32359Y-9441D01*
X31380Y-8461D01*
X30920Y-8271D01*
X29802D01*
Y-8030D01*
X26614D01*
Y-7252D01*
X29802D01*
Y-5529D01*
X31116Y-4216D01*
X31270Y-3984D01*
X31325Y-3711D01*
Y40D01*
X32092D01*
Y3160D01*
X29130D01*
Y3160D01*
X28670Y3257D01*
Y3360D01*
X27239D01*
Y1600D01*
Y-160D01*
X28670D01*
Y-57D01*
X29130Y40D01*
Y40D01*
X29897D01*
Y-2301D01*
X25629D01*
Y-1298D01*
X23848D01*
Y-4732D01*
X25629D01*
Y-3729D01*
X28931D01*
X29122Y-4191D01*
X27842Y-5471D01*
X26368D01*
Y-5471D01*
X25992Y-5627D01*
X25534Y-5566D01*
Y-5566D01*
X25534Y-5566D01*
X21150D01*
Y-10200D01*
X20650D01*
Y-5566D01*
X16266D01*
Y-9172D01*
X15822Y-9430D01*
X15432Y-9240D01*
Y-8030D01*
X12531D01*
X12274Y-7530D01*
X12330Y-7452D01*
X13465D01*
Y-6361D01*
X13715D01*
Y-6111D01*
X15632D01*
Y-5271D01*
X14618D01*
X14467Y-4771D01*
X14529Y-4729D01*
X14783Y-4349D01*
X14823Y-4150D01*
X13700D01*
Y-3900D01*
X13450D01*
Y-2777D01*
X13251Y-2817D01*
X12924Y-3035D01*
X12684Y-2974D01*
X12424Y-2839D01*
Y-675D01*
X12234Y-216D01*
X11545Y473D01*
X11752Y973D01*
X16308D01*
Y40D01*
X16973D01*
Y-489D01*
X16973Y-489D01*
X17036Y-801D01*
X16766Y-1298D01*
X16171D01*
Y-4732D01*
X17952D01*
Y-1416D01*
X17955Y-1416D01*
X18730D01*
Y-4732D01*
X20511D01*
Y-1416D01*
X21289D01*
Y-4732D01*
X23070D01*
Y-1298D01*
X22995D01*
Y-679D01*
X22991Y-660D01*
X22994Y-647D01*
X23092Y-160D01*
D01*
X23393Y216D01*
X23592Y322D01*
X23654Y281D01*
X23950Y222D01*
Y1600D01*
Y2978D01*
X23654Y2919D01*
X23592Y2878D01*
X23092Y3145D01*
Y3360D01*
X21661D01*
Y1600D01*
X21161D01*
Y3360D01*
X19730D01*
Y3257D01*
X19270Y3160D01*
X19270Y3160D01*
X19270Y3160D01*
X16308D01*
Y2605D01*
X6689D01*
X6689Y2605D01*
X6377Y2543D01*
X6268Y2580D01*
X5892Y2820D01*
X5854Y3012D01*
X5677Y3277D01*
X5412Y3454D01*
X5228Y3490D01*
X2949Y5769D01*
Y8438D01*
X3311Y8692D01*
X3449Y8734D01*
X3700Y8684D01*
X4012Y8746D01*
X4249Y8905D01*
X5706D01*
X5763Y8615D01*
X6265Y7864D01*
X7015Y7363D01*
X7900Y7187D01*
X8785Y7363D01*
X9535Y7864D01*
X10037Y8615D01*
X10213Y9500D01*
X10037Y10385D01*
X9535Y11135D01*
X8785Y11637D01*
X7900Y11813D01*
X7015Y11637D01*
X6265Y11135D01*
X5763Y10385D01*
X5706Y10095D01*
X4249D01*
X4012Y10254D01*
X3700Y10316D01*
X3449Y10266D01*
X3311Y10308D01*
X2949Y10562D01*
Y13168D01*
X3650D01*
Y14298D01*
X3900D01*
Y14548D01*
X5030D01*
Y15428D01*
X5030D01*
X4830Y15573D01*
Y17021D01*
X5330Y17228D01*
X11205Y11353D01*
Y9398D01*
X11379Y8977D01*
X12770Y7586D01*
Y6568D01*
X14630D01*
Y6902D01*
X15701D01*
Y4893D01*
X19254D01*
Y8052D01*
X16551D01*
X16452Y8093D01*
X14879D01*
X14830Y8572D01*
X14830Y8573D01*
X14830Y8573D01*
Y9452D01*
X13700D01*
Y9702D01*
X13450D01*
Y10832D01*
X12570D01*
X12395Y11260D01*
Y11600D01*
X12221Y12021D01*
X11637Y12605D01*
X11844Y13105D01*
X19059D01*
X19489Y12675D01*
X19427Y12539D01*
X19427Y12539D01*
X19320Y12306D01*
X19296Y12252D01*
X19277Y12212D01*
X19267Y12189D01*
X19229D01*
X19199D01*
X19031Y12189D01*
X18996D01*
X18996D01*
X17728D01*
Y10659D01*
X19454D01*
Y11732D01*
Y11732D01*
X19454Y11766D01*
X19454Y11935D01*
Y11965D01*
Y12002D01*
X19477Y12013D01*
X19517Y12031D01*
X19570Y12055D01*
X19804Y12162D01*
X19804Y12162D01*
X19940Y12224D01*
X20819Y11344D01*
Y8830D01*
X24372D01*
X24372Y8830D01*
X24636Y8898D01*
X25153Y8592D01*
X25170Y8428D01*
Y8427D01*
Y8338D01*
X25170Y8155D01*
Y7548D01*
X27430D01*
Y8155D01*
X27430Y8338D01*
Y8428D01*
X27230Y8845D01*
Y8928D01*
Y10432D01*
X25370D01*
X25370Y10432D01*
Y10432D01*
X24882Y10460D01*
X24511Y10830D01*
X24372Y10888D01*
Y11989D01*
X21858D01*
X19726Y14121D01*
X19305Y14295D01*
X11647D01*
X7725Y18216D01*
X7875Y18717D01*
X8646D01*
X11036Y16327D01*
X11251Y16183D01*
X11505Y16133D01*
X11670D01*
Y15865D01*
X13530D01*
Y15865D01*
X13750Y15949D01*
X14297Y15672D01*
X14305Y15629D01*
X14515Y15315D01*
X14829Y15105D01*
X15200Y15031D01*
X15571Y15105D01*
X15885Y15315D01*
X16095Y15629D01*
X16169Y16000D01*
X16095Y16371D01*
X15885Y16685D01*
X15571Y16895D01*
X15200Y16969D01*
X15174Y16963D01*
X14873Y17264D01*
X14658Y17408D01*
X14405Y17458D01*
X14136D01*
X13831Y17912D01*
X13865Y18028D01*
X14199Y18122D01*
X14419Y18139D01*
X14751Y17917D01*
X14950Y17877D01*
Y19000D01*
Y20123D01*
X14751Y20083D01*
X14371Y19829D01*
X14230Y19618D01*
X13730Y19770D01*
Y20130D01*
X12850D01*
Y19000D01*
X12600D01*
Y18750D01*
X11470D01*
Y18474D01*
X10970Y18267D01*
X9387Y19851D01*
Y20916D01*
X9404Y20942D01*
X9470Y21276D01*
X9404Y21609D01*
X9387Y21635D01*
Y22162D01*
X15314D01*
Y21945D01*
X19907Y21945D01*
X20137Y21899D01*
X20367Y21945D01*
X21023D01*
Y22521D01*
X21088Y22850D01*
X21088Y22855D01*
X21462Y23355D01*
X24431D01*
X27256Y20530D01*
X27049Y20030D01*
X27032D01*
X26648D01*
Y18900D01*
X26398D01*
Y18650D01*
X25268D01*
Y18130D01*
X25268Y17770D01*
Y17700D01*
Y17630D01*
X25268Y17270D01*
Y16750D01*
X26398D01*
Y16500D01*
X26648D01*
Y15370D01*
X27255D01*
X27438Y15370D01*
X27528D01*
X27945Y15570D01*
X28028D01*
X28104D01*
X28193Y15511D01*
X28602Y15429D01*
X37556D01*
X38821Y14165D01*
Y10800D01*
X38214D01*
Y10500D01*
X33789D01*
Y-9185D01*
X41597Y-9185D01*
X41951Y-9539D01*
Y-9685D01*
X45285D01*
X45597Y-10075D01*
X45177Y-11972D01*
X45098Y-12005D01*
X44536Y-11738D01*
X44519Y-11654D01*
X44209Y-11191D01*
X43746Y-10881D01*
X43450Y-10822D01*
Y-12200D01*
Y-13578D01*
X43746Y-13519D01*
X44209Y-13209D01*
X44332Y-13025D01*
X44788Y-13244D01*
X43923Y-15987D01*
X42362Y-19754D01*
X40479Y-23371D01*
X39804Y-24431D01*
X39332Y-24241D01*
X39340Y-24200D01*
X39177Y-23381D01*
X38713Y-22686D01*
X38019Y-22223D01*
X37200Y-22060D01*
X36381Y-22223D01*
X35686Y-22686D01*
X35223Y-23381D01*
X35060Y-24200D01*
X35223Y-25019D01*
X35686Y-25714D01*
X36381Y-26177D01*
X37200Y-26340D01*
X38019Y-26177D01*
X38158Y-26085D01*
X38523Y-26442D01*
X38289Y-26810D01*
X35806Y-30045D01*
X33051Y-33051D01*
X30045Y-35806D01*
X26810Y-38289D01*
X23371Y-40479D01*
X19754Y-42362D01*
X16158Y-43852D01*
X15905Y-43415D01*
X16107Y-43261D01*
X16542Y-42694D01*
X16815Y-42035D01*
X16908Y-41327D01*
Y-38669D01*
X16815Y-37962D01*
X16542Y-37302D01*
X16107Y-36735D01*
X15818Y-36514D01*
X15988Y-36014D01*
X17272D01*
Y-37175D01*
X21022D01*
Y-33425D01*
X17272D01*
Y-34586D01*
X1296D01*
X823Y-34114D01*
X1030Y-33614D01*
X12400D01*
X12673Y-33559D01*
X12905Y-33405D01*
X15596Y-30714D01*
X17172D01*
Y-31875D01*
X20922D01*
Y-28125D01*
X17172D01*
Y-29286D01*
X15300D01*
X15027Y-29341D01*
X14795Y-29495D01*
X12104Y-32186D01*
X6883D01*
X6406Y-32132D01*
X6406Y-31686D01*
Y-29224D01*
X5118D01*
Y-28974D01*
X4868D01*
Y-25817D01*
X4064D01*
X3892Y-25817D01*
X3831D01*
X3414Y-26017D01*
X3331D01*
X1587D01*
X1472Y-26017D01*
X1280D01*
X1087D01*
X972Y-26017D01*
X-1087D01*
X-1087Y-26017D01*
X-1087Y-26017D01*
X-1472D01*
Y-26017D01*
X-1472Y-26017D01*
X-3531D01*
X-3647Y-26017D01*
X-3802Y-26017D01*
X-3848Y-26009D01*
X-4240Y-25682D01*
X-4302Y-25581D01*
Y-20053D01*
X-3719D01*
Y-17287D01*
X-6681D01*
Y-20053D01*
X-5934D01*
Y-26017D01*
X-6205D01*
Y-31932D01*
X-4146D01*
X-4031Y-31932D01*
X-3839Y-31932D01*
X-3647D01*
X-3531Y-31932D01*
X-3235D01*
X-3218Y-32014D01*
X-3064Y-32246D01*
X162Y-35472D01*
X495Y-35805D01*
Y-35805D01*
X684Y-36234D01*
Y-44040D01*
X7583D01*
Y-36014D01*
X9149D01*
Y-44040D01*
X14010D01*
X14014Y-44545D01*
X12098Y-45149D01*
X8117Y-46032D01*
X4074Y-46564D01*
X0Y-46742D01*
X-4074Y-46564D01*
X-8117Y-46032D01*
X-12098Y-45149D01*
X-14009Y-44546D01*
X-13996Y-44040D01*
X-9149D01*
Y-35960D01*
X-13973D01*
D01*
X-13995Y-35960D01*
X-13995D01*
X-13995D01*
X-14012Y-35958D01*
X-14173Y-35936D01*
X-14473Y-35960D01*
Y-35975D01*
Y-35976D01*
Y-35976D01*
X-14881Y-36030D01*
X-15541Y-36303D01*
X-16107Y-36737D01*
X-16542Y-37304D01*
X-16815Y-37963D01*
X-16908Y-38671D01*
Y-41329D01*
X-16815Y-42037D01*
X-16542Y-42696D01*
X-16107Y-43262D01*
X-15911Y-43413D01*
X-16163Y-43850D01*
X-19754Y-42362D01*
X-23371Y-40479D01*
X-26810Y-38289D01*
X-30045Y-35806D01*
X-33051Y-33051D01*
X-35806Y-30045D01*
X-38289Y-26810D01*
X-40479Y-23371D01*
X-42362Y-19754D01*
X-43923Y-15987D01*
X-45149Y-12098D01*
X-45407Y-10932D01*
X-45094Y-10543D01*
X-42062D01*
Y-5162D01*
X-42062Y-4824D01*
X-41630Y-4662D01*
X-41630Y-4662D01*
X-41181D01*
X-41000Y-4587D01*
X-40500Y-4768D01*
X-40500Y-4768D01*
Y-4973D01*
X-36707D01*
Y-3246D01*
X-40356D01*
X-40500Y-3246D01*
X-40856Y-2900D01*
Y359D01*
X-40553Y543D01*
X-40300Y404D01*
Y-1881D01*
X-32613D01*
Y1081D01*
X-38270D01*
X-38531Y1400D01*
X-38605Y1771D01*
X-38723Y1946D01*
X-38544Y2396D01*
X-38501Y2446D01*
X-36707D01*
Y4173D01*
X-40500D01*
Y3968D01*
X-40500Y3968D01*
X-41000Y3787D01*
X-41181Y3862D01*
X-41630D01*
X-42062Y4024D01*
X-42062Y4362D01*
Y9742D01*
X-45272D01*
X-45585Y10132D01*
X-45149Y12098D01*
X-44945Y12746D01*
X-44460Y12622D01*
X-44524Y12300D01*
X-44430Y11832D01*
X-44165Y11435D01*
X-43768Y11170D01*
X-43300Y11077D01*
X-42832Y11170D01*
X-42435Y11435D01*
X-42402Y11484D01*
X-41638D01*
X-40424Y10271D01*
X-40424Y10271D01*
X-40265Y10165D01*
X-40159Y10094D01*
X-39847Y10032D01*
X-34553D01*
X-34241Y10094D01*
X-33976Y10271D01*
X-33799Y10535D01*
X-33737Y10847D01*
Y12745D01*
X-33311Y12893D01*
X-33237Y12907D01*
X-32944Y12711D01*
X-32584Y12639D01*
X-32225Y12711D01*
X-31920Y12914D01*
X-31479Y12694D01*
X-31249Y12465D01*
Y11992D01*
X-31059Y11532D01*
X-30394Y10868D01*
X-30358Y10684D01*
X-30181Y10419D01*
X-29916Y10242D01*
X-29604Y10180D01*
X-29214Y9798D01*
X-29151Y9486D01*
X-28975Y9221D01*
X-28710Y9044D01*
X-28398Y8982D01*
X-28012Y8596D01*
X-27949Y8284D01*
X-27773Y8019D01*
X-27508Y7842D01*
X-27196Y7780D01*
X-26884Y7842D01*
X-26619Y8019D01*
X-26442Y8284D01*
X-26380Y8596D01*
X-26442Y8908D01*
X-26546Y9064D01*
Y11135D01*
X-26219Y11462D01*
X-26192Y11528D01*
X-25816Y11642D01*
X-25504Y11580D01*
X-25192Y11642D01*
X-24955Y11801D01*
X-24089D01*
Y11728D01*
X-22111D01*
Y13509D01*
X-22111Y13509D01*
X-22111D01*
X-22111Y13510D01*
X-21911Y13891D01*
X-21911Y13891D01*
X-21911Y13927D01*
Y15005D01*
X-21761Y15105D01*
X-21249D01*
X-21012Y14946D01*
X-20700Y14884D01*
X-20388Y14946D01*
X-20123Y15123D01*
X-19946Y15388D01*
X-19884Y15700D01*
X-19946Y16012D01*
X-19959Y16030D01*
X-20084Y16394D01*
X-20049Y16500D01*
X-19960Y16769D01*
X-19960Y16769D01*
X-19951Y16784D01*
X-19932Y16879D01*
X-19919Y16943D01*
X-19911Y16984D01*
X-19888Y17096D01*
X-19951Y17408D01*
X-19951Y17408D01*
D01*
X-19957Y17440D01*
X-20023Y17746D01*
X-19957Y18052D01*
X-19951Y18084D01*
Y18084D01*
X-19951Y18084D01*
X-19888Y18396D01*
X-19912Y18512D01*
X-19919Y18548D01*
X-19931Y18610D01*
X-19951Y18708D01*
X-20124Y18967D01*
X-20127Y18973D01*
X-19861Y19396D01*
X-19705Y19629D01*
X-19631Y20000D01*
X-19705Y20371D01*
X-19915Y20685D01*
X-20229Y20895D01*
X-20600Y20969D01*
X-20971Y20895D01*
X-21285Y20685D01*
X-21465Y20415D01*
X-21549Y20360D01*
X-22025Y20267D01*
X-23632Y21874D01*
X-24053Y22048D01*
X-25646D01*
X-25849Y22535D01*
X-25837Y22567D01*
X-25580Y22826D01*
X-24592D01*
X-24585Y22815D01*
X-24271Y22605D01*
X-23900Y22531D01*
X-23529Y22605D01*
X-23215Y22815D01*
X-23005Y23129D01*
X-22931Y23500D01*
X-23005Y23871D01*
X-23084Y23989D01*
Y25439D01*
X-22954Y25535D01*
X-22600Y25629D01*
X-22501Y25499D01*
D02*
G37*
G36*
X-15353Y21948D02*
X-14985Y21061D01*
X-14401Y20299D01*
X-13639Y19715D01*
X-12752Y19347D01*
X-11800Y19222D01*
X-10848Y19347D01*
X-9961Y19715D01*
X-9199Y20299D01*
X-8615Y21061D01*
X-8482Y21382D01*
X-7962Y21330D01*
X-7954Y21288D01*
X-7777Y21023D01*
X-7536Y20863D01*
X-7510Y20837D01*
X-7381Y20311D01*
X-8336Y19356D01*
X-8400Y19369D01*
X-8771Y19295D01*
X-9085Y19085D01*
X-9295Y18771D01*
X-9369Y18400D01*
X-9295Y18029D01*
X-9085Y17715D01*
X-8771Y17505D01*
X-8400Y17431D01*
X-8029Y17505D01*
X-7715Y17715D01*
X-7505Y18029D01*
X-7431Y18400D01*
X-7461Y18547D01*
X-5445Y20562D01*
X-4984Y20371D01*
Y19558D01*
X-6721Y17821D01*
X-6895Y17400D01*
Y17132D01*
X-7230D01*
Y15628D01*
Y15545D01*
X-7430Y15128D01*
Y15038D01*
X-7430Y14855D01*
Y14248D01*
X-6300D01*
Y13748D01*
X-7584D01*
X-7798Y13573D01*
X-8246Y13483D01*
X-8627Y13229D01*
X-8881Y12849D01*
X-8920Y12650D01*
X-7798D01*
Y12150D01*
X-8920D01*
X-8881Y11951D01*
X-8627Y11571D01*
X-8622Y11492D01*
X-8733Y11040D01*
X-8898Y10972D01*
X-9021Y10921D01*
X-11201Y8741D01*
X-11606Y9043D01*
X-11525Y9193D01*
X-11505Y9229D01*
X-11505Y9230D01*
X-11502Y9244D01*
X-11500Y9256D01*
X-11431Y9600D01*
X-11505Y9971D01*
X-11715Y10285D01*
X-12029Y10495D01*
X-12400Y10569D01*
X-12771Y10495D01*
X-13085Y10285D01*
X-13295Y9971D01*
X-13369Y9600D01*
X-13295Y9229D01*
X-13085Y8915D01*
X-12771Y8705D01*
X-12400Y8631D01*
X-12056Y8700D01*
X-12044Y8702D01*
X-12030Y8705D01*
X-12029Y8705D01*
X-11989Y8727D01*
X-11843Y8806D01*
X-11541Y8401D01*
X-15121Y4821D01*
X-15138Y4779D01*
X-15679Y4632D01*
X-15959Y4856D01*
Y22722D01*
X-15459Y22755D01*
X-15353Y21948D01*
D02*
G37*
G36*
X-25350Y-8823D02*
X-25151Y-8783D01*
X-24771Y-8529D01*
X-24642Y-8336D01*
X-24142Y-8488D01*
Y-11911D01*
X-20746D01*
X-20416Y-12274D01*
Y-15250D01*
X-20416Y-15250D01*
X-20354Y-15562D01*
X-20177Y-15826D01*
X-19716Y-16287D01*
Y-17870D01*
X-20107Y-18137D01*
X-20216Y-18163D01*
X-20532Y-18100D01*
X-20902Y-18173D01*
X-21216Y-18383D01*
X-21276Y-18473D01*
X-23331D01*
X-23468Y-18030D01*
X-23468D01*
Y-16170D01*
X-25172D01*
X-25328Y-16170D01*
X-25328Y-16170D01*
X-25673D01*
Y-16170D01*
X-25673Y-16170D01*
X-27532D01*
Y-16505D01*
X-29069D01*
X-29378Y-16343D01*
X-29560Y-16005D01*
Y-15983D01*
X-29560Y-15749D01*
Y-14700D01*
Y-14672D01*
X-29322Y-14268D01*
X-29253Y-14254D01*
X-29132Y-14230D01*
X-28902Y-14077D01*
X-28735Y-13965D01*
X-28600Y-13763D01*
X-28200D01*
X-27946Y-13712D01*
X-27731Y-13569D01*
X-27487Y-13325D01*
X-27344Y-13110D01*
X-27293Y-12856D01*
Y-11911D01*
X-26258D01*
Y-9199D01*
X-25850Y-8907D01*
Y-7700D01*
X-25350D01*
Y-8823D01*
D02*
G37*
%LPC*%
G36*
X18050Y42323D02*
X17851Y42283D01*
X17471Y42029D01*
X17217Y41649D01*
X17177Y41450D01*
X18050D01*
Y42323D01*
D02*
G37*
G36*
X19423Y40950D02*
X18550D01*
Y40077D01*
X18749Y40117D01*
X19129Y40371D01*
X19383Y40751D01*
X19423Y40950D01*
D02*
G37*
G36*
X18050D02*
X17177D01*
X17217Y40751D01*
X17471Y40371D01*
X17851Y40117D01*
X18050Y40077D01*
Y40950D01*
D02*
G37*
G36*
X24100Y38440D02*
X23281Y38277D01*
X22587Y37813D01*
X22123Y37119D01*
X21960Y36300D01*
X22123Y35481D01*
X22587Y34786D01*
X23281Y34323D01*
X24100Y34160D01*
X24919Y34323D01*
X25613Y34786D01*
X26077Y35481D01*
X26240Y36300D01*
X26077Y37119D01*
X25613Y37813D01*
X24919Y38277D01*
X24100Y38440D01*
D02*
G37*
G36*
X17550Y31432D02*
X16670D01*
Y30552D01*
X17550D01*
Y31432D01*
D02*
G37*
G36*
X14230Y31232D02*
X13350D01*
Y30352D01*
X14230D01*
Y31232D01*
D02*
G37*
G36*
X12850D02*
X11970D01*
Y30352D01*
X12850D01*
Y31232D01*
D02*
G37*
G36*
X39050Y23178D02*
X38754Y23119D01*
X38291Y22809D01*
X37981Y22346D01*
X37922Y22050D01*
X39050D01*
Y23178D01*
D02*
G37*
G36*
Y21550D02*
X37922D01*
X37981Y21254D01*
X38291Y20791D01*
X38754Y20481D01*
X39050Y20422D01*
Y21550D01*
D02*
G37*
G36*
X-14440Y35939D02*
X-15950D01*
Y34508D01*
X-14440D01*
Y35939D01*
D02*
G37*
G36*
X-21177Y33350D02*
X-22050D01*
Y32477D01*
X-21851Y32517D01*
X-21471Y32771D01*
X-21217Y33151D01*
X-21177Y33350D01*
D02*
G37*
G36*
X-22550D02*
X-23423D01*
X-23383Y33151D01*
X-23129Y32771D01*
X-22749Y32517D01*
X-22550Y32477D01*
Y33350D01*
D02*
G37*
G36*
X-36771Y24413D02*
X-36920Y24384D01*
X-37258Y24158D01*
X-37484Y23820D01*
X-37513Y23671D01*
X-36771D01*
Y24413D01*
D02*
G37*
G36*
X-40434Y18893D02*
Y17766D01*
X-39307D01*
X-39366Y18062D01*
X-39675Y18525D01*
X-40138Y18835D01*
X-40434Y18893D01*
D02*
G37*
G36*
X-40934D02*
X-41230Y18835D01*
X-41694Y18525D01*
X-42003Y18062D01*
X-42062Y17766D01*
X-40934D01*
Y18893D01*
D02*
G37*
G36*
X-39307Y17266D02*
X-40434D01*
Y16138D01*
X-40138Y16197D01*
X-39675Y16506D01*
X-39366Y16970D01*
X-39307Y17266D01*
D02*
G37*
G36*
X-40934D02*
X-42062D01*
X-42003Y16970D01*
X-41694Y16506D01*
X-41230Y16197D01*
X-40934Y16138D01*
Y17266D01*
D02*
G37*
G36*
X-27170Y29630D02*
X-28050D01*
Y28750D01*
X-27170D01*
Y29630D01*
D02*
G37*
G36*
X15450Y20123D02*
Y19250D01*
X16323D01*
X16283Y19449D01*
X16029Y19829D01*
X15649Y20083D01*
X15450Y20123D01*
D02*
G37*
G36*
X12350Y20130D02*
X11470D01*
Y19250D01*
X12350D01*
Y20130D01*
D02*
G37*
G36*
X26148Y20030D02*
X25268D01*
Y19150D01*
X26148D01*
Y20030D01*
D02*
G37*
G36*
X16323Y18750D02*
X15450D01*
Y17877D01*
X15649Y17917D01*
X16029Y18171D01*
X16283Y18551D01*
X16323Y18750D01*
D02*
G37*
G36*
X26148Y16250D02*
X25268D01*
Y15370D01*
X26148D01*
Y16250D01*
D02*
G37*
G36*
X22850Y15878D02*
Y14750D01*
X23978D01*
X23919Y15046D01*
X23609Y15509D01*
X23146Y15819D01*
X22850Y15878D01*
D02*
G37*
G36*
X22350D02*
X22054Y15819D01*
X21591Y15509D01*
X21281Y15046D01*
X21222Y14750D01*
X22350D01*
Y15878D01*
D02*
G37*
G36*
X5030Y14048D02*
X4150D01*
Y13168D01*
X5030D01*
Y14048D01*
D02*
G37*
G36*
X23978Y14250D02*
X22850D01*
Y13122D01*
X23146Y13181D01*
X23609Y13491D01*
X23919Y13954D01*
X23978Y14250D01*
D02*
G37*
G36*
X22350D02*
X21222D01*
X21281Y13954D01*
X21591Y13491D01*
X22054Y13181D01*
X22350Y13122D01*
Y14250D01*
D02*
G37*
G36*
X17228Y12189D02*
X15501D01*
Y10659D01*
X17228D01*
Y12189D01*
D02*
G37*
G36*
X30050Y11677D02*
Y10550D01*
X31177D01*
X31119Y10846D01*
X30809Y11309D01*
X30346Y11619D01*
X30050Y11677D01*
D02*
G37*
G36*
X29550D02*
X29254Y11619D01*
X28791Y11309D01*
X28481Y10846D01*
X28422Y10550D01*
X29550D01*
Y11677D01*
D02*
G37*
G36*
X13950Y10832D02*
Y9952D01*
X14830D01*
Y10832D01*
X13950D01*
D02*
G37*
G36*
X-23152Y10730D02*
X-24032D01*
Y9850D01*
X-23152D01*
Y10730D01*
D02*
G37*
G36*
X31177Y10050D02*
X30050D01*
Y8922D01*
X30346Y8981D01*
X30809Y9290D01*
X31119Y9754D01*
X31177Y10050D01*
D02*
G37*
G36*
X29550D02*
X28422D01*
X28481Y9754D01*
X28791Y9290D01*
X29254Y8981D01*
X29550Y8922D01*
Y10050D01*
D02*
G37*
G36*
X19454Y10159D02*
X17728D01*
Y8630D01*
X19454D01*
Y10159D01*
D02*
G37*
G36*
X17228D02*
X15501D01*
Y8630D01*
X17228D01*
Y10159D01*
D02*
G37*
G36*
X-23152Y9350D02*
X-24032D01*
Y8470D01*
X-23152D01*
Y9350D01*
D02*
G37*
G36*
X-39600Y9369D02*
X-39971Y9295D01*
X-40285Y9085D01*
X-40495Y8771D01*
X-40569Y8400D01*
X-40495Y8029D01*
X-40285Y7715D01*
X-39971Y7505D01*
X-39600Y7431D01*
X-39229Y7505D01*
X-38915Y7715D01*
X-38705Y8029D01*
X-38631Y8400D01*
X-38705Y8771D01*
X-38915Y9085D01*
X-39229Y9295D01*
X-39600Y9369D01*
D02*
G37*
G36*
X-19250Y8070D02*
X-19390Y8042D01*
X-19721Y7821D01*
X-19942Y7490D01*
X-19970Y7350D01*
X-19250D01*
Y8070D01*
D02*
G37*
G36*
X24572Y8252D02*
X22846D01*
Y6722D01*
X24572D01*
Y8252D01*
D02*
G37*
G36*
X22346D02*
X20619D01*
Y6722D01*
X22346D01*
Y8252D01*
D02*
G37*
G36*
X27430Y7048D02*
X26550D01*
Y6168D01*
X27430D01*
Y7048D01*
D02*
G37*
G36*
X26050D02*
X25170D01*
Y6168D01*
X26050D01*
Y7048D01*
D02*
G37*
G36*
X-19250Y6850D02*
X-19970D01*
X-19942Y6710D01*
X-19721Y6379D01*
X-19390Y6158D01*
X-19250Y6130D01*
Y6850D01*
D02*
G37*
G36*
X-9750Y6497D02*
X-10046Y6438D01*
X-10509Y6128D01*
X-10819Y5665D01*
X-10878Y5369D01*
X-9750D01*
Y6497D01*
D02*
G37*
G36*
X-23750Y6278D02*
Y5150D01*
X-22622D01*
X-22681Y5446D01*
X-22991Y5909D01*
X-23454Y6219D01*
X-23750Y6278D01*
D02*
G37*
G36*
X-29050Y5772D02*
X-29989D01*
Y4931D01*
X-29050D01*
Y5772D01*
D02*
G37*
G36*
X24572Y6222D02*
X22846D01*
Y4693D01*
X24572D01*
Y6222D01*
D02*
G37*
G36*
X22346D02*
X20619D01*
Y4693D01*
X22346D01*
Y6222D01*
D02*
G37*
G36*
X-32413Y6399D02*
X-36207D01*
Y4673D01*
X-32413D01*
Y6399D01*
D02*
G37*
G36*
X-36707D02*
X-40500D01*
Y4673D01*
X-36707D01*
Y6399D01*
D02*
G37*
G36*
X26739Y3360D02*
X25308D01*
Y3145D01*
X24808Y2878D01*
X24746Y2919D01*
X24450Y2978D01*
Y1600D01*
Y222D01*
X24746Y281D01*
X24808Y322D01*
X25308Y55D01*
Y-160D01*
X26739D01*
Y1600D01*
Y3360D01*
D02*
G37*
G36*
X-5250Y6147D02*
Y2550D01*
X-1653D01*
X-1753Y3304D01*
X-2140Y4240D01*
X-2757Y5043D01*
X-3560Y5660D01*
X-4496Y6047D01*
X-5250Y6147D01*
D02*
G37*
G36*
X-9250Y6497D02*
Y5119D01*
X-9500D01*
Y4869D01*
X-10878D01*
X-10819Y4573D01*
X-10509Y4110D01*
X-10046Y3800D01*
X-9618Y3715D01*
X-9364Y3434D01*
X-9257Y3230D01*
X-9347Y2550D01*
X-5750D01*
Y6147D01*
X-6504Y6047D01*
X-7440Y5660D01*
X-7706Y5455D01*
X-8094Y5601D01*
X-8206Y5702D01*
X-8491Y6128D01*
X-8954Y6438D01*
X-9250Y6497D01*
D02*
G37*
G36*
X-32413Y4173D02*
X-36207D01*
Y2446D01*
X-32413D01*
Y4173D01*
D02*
G37*
G36*
X-1653Y2050D02*
X-9347D01*
X-9247Y1296D01*
X-8860Y360D01*
X-8243Y-443D01*
X-7440Y-1060D01*
X-6504Y-1447D01*
X-6069Y-1505D01*
X-6102Y-2005D01*
X-7653D01*
X-9391Y-267D01*
X-9446Y12D01*
X-9623Y277D01*
X-9888Y454D01*
X-10200Y516D01*
X-10512Y454D01*
X-10777Y277D01*
X-10954Y12D01*
X-11016Y-300D01*
X-10954Y-612D01*
X-10777Y-877D01*
X-10512Y-1054D01*
X-10233Y-1109D01*
X-8321Y-3021D01*
X-8198Y-3072D01*
X-7900Y-3195D01*
X-1580D01*
X-1226Y-3726D01*
X-933Y-3921D01*
Y-5911D01*
X-1228D01*
Y-7889D01*
X553D01*
Y-5911D01*
X258D01*
Y-4182D01*
X663Y-4101D01*
X1226Y-3726D01*
X1601Y-3163D01*
X1733Y-2500D01*
X1601Y-1837D01*
X1226Y-1274D01*
X663Y-899D01*
X0Y-767D01*
X-663Y-899D01*
X-1226Y-1274D01*
X-1601Y-1837D01*
X-1635Y-2005D01*
X-4898D01*
X-4931Y-1505D01*
X-4496Y-1447D01*
X-3560Y-1060D01*
X-2757Y-443D01*
X-2140Y360D01*
X-1753Y1296D01*
X-1653Y2050D01*
D02*
G37*
G36*
X13950Y-2777D02*
Y-3650D01*
X14823D01*
X14783Y-3451D01*
X14529Y-3071D01*
X14149Y-2817D01*
X13950Y-2777D01*
D02*
G37*
G36*
X-36207Y-3246D02*
Y-4973D01*
X-32413D01*
Y-3246D01*
X-36207D01*
D02*
G37*
G36*
X-1809Y-5911D02*
X-3591D01*
Y-6186D01*
X-4308D01*
X-4429Y-6105D01*
X-4800Y-6031D01*
X-5171Y-6105D01*
X-5485Y-6315D01*
X-5695Y-6629D01*
X-5769Y-7000D01*
X-5695Y-7371D01*
X-5485Y-7685D01*
X-5171Y-7895D01*
X-4800Y-7969D01*
X-4429Y-7895D01*
X-4115Y-7685D01*
X-4067Y-7614D01*
X-3591D01*
Y-7889D01*
X-1809D01*
Y-5911D01*
D02*
G37*
G36*
X-11669Y-5611D02*
Y-6550D01*
X-10828D01*
Y-5611D01*
X-11669D01*
D02*
G37*
G36*
X-32413Y-5473D02*
X-36207D01*
Y-7199D01*
X-32413D01*
Y-5473D01*
D02*
G37*
G36*
X15632Y-6611D02*
X13965D01*
Y-7452D01*
X15632D01*
Y-6611D01*
D02*
G37*
G36*
X-36707Y-5473D02*
X-40500D01*
Y-7087D01*
X-40649Y-7117D01*
X-41029Y-7371D01*
X-41283Y-7751D01*
X-41323Y-7950D01*
X-39077D01*
X-39117Y-7751D01*
X-39151Y-7699D01*
X-38884Y-7199D01*
X-36707D01*
Y-5473D01*
D02*
G37*
G36*
X-39077Y-8450D02*
X-39950D01*
Y-9323D01*
X-39751Y-9283D01*
X-39371Y-9029D01*
X-39117Y-8649D01*
X-39077Y-8450D01*
D02*
G37*
G36*
X-40450D02*
X-41323D01*
X-41283Y-8649D01*
X-41029Y-9029D01*
X-40649Y-9283D01*
X-40450Y-9323D01*
Y-8450D01*
D02*
G37*
G36*
X-10796Y-8831D02*
X-11669D01*
Y-9704D01*
X-11470Y-9664D01*
X-11090Y-9410D01*
X-10836Y-9030D01*
X-10796Y-8831D01*
D02*
G37*
G36*
X-12169D02*
X-13042D01*
X-13002Y-9030D01*
X-12748Y-9410D01*
X-12368Y-9664D01*
X-12169Y-9704D01*
Y-8831D01*
D02*
G37*
G36*
X-34531Y-10811D02*
X-35372D01*
Y-11750D01*
X-34531D01*
Y-10811D01*
D02*
G37*
G36*
X42950Y-10822D02*
X42654Y-10881D01*
X42191Y-11191D01*
X41881Y-11654D01*
X41822Y-11950D01*
X42950D01*
Y-10822D01*
D02*
G37*
G36*
X-34531Y-12250D02*
X-35372D01*
Y-13189D01*
X-34531D01*
Y-12250D01*
D02*
G37*
G36*
X42950Y-12450D02*
X41822D01*
X41881Y-12746D01*
X42191Y-13209D01*
X42654Y-13519D01*
X42950Y-13578D01*
Y-12450D01*
D02*
G37*
G36*
X4692Y-13140D02*
X3261D01*
Y-14650D01*
X4692D01*
Y-13140D01*
D02*
G37*
G36*
X10060Y-15161D02*
X8550D01*
Y-16592D01*
X10060D01*
Y-15161D01*
D02*
G37*
G36*
X8050D02*
X6540D01*
Y-16592D01*
X8050D01*
Y-15161D01*
D02*
G37*
G36*
X4692Y-15150D02*
X3261D01*
Y-16660D01*
X4692D01*
Y-15150D01*
D02*
G37*
G36*
X8350Y-17522D02*
Y-18650D01*
X9478D01*
X9419Y-18354D01*
X9109Y-17891D01*
X8646Y-17581D01*
X8350Y-17522D01*
D02*
G37*
G36*
X7850D02*
X7554Y-17581D01*
X7091Y-17891D01*
X6781Y-18354D01*
X6722Y-18650D01*
X7850D01*
Y-17522D01*
D02*
G37*
G36*
X4692Y-17340D02*
X3261D01*
Y-18850D01*
X4692D01*
Y-17340D01*
D02*
G37*
G36*
X-10808Y-17440D02*
X-12239D01*
Y-18950D01*
X-10808D01*
Y-17440D01*
D02*
G37*
G36*
X23270Y-17635D02*
X22430D01*
Y-19302D01*
X23270D01*
Y-17635D01*
D02*
G37*
G36*
X21929D02*
X21089D01*
Y-19302D01*
X21929D01*
Y-17635D01*
D02*
G37*
G36*
X9478Y-19150D02*
X8350D01*
Y-20278D01*
X8646Y-20219D01*
X9109Y-19909D01*
X9419Y-19446D01*
X9478Y-19150D01*
D02*
G37*
G36*
X7850D02*
X6722D01*
X6781Y-19446D01*
X7091Y-19909D01*
X7554Y-20219D01*
X7850Y-20278D01*
Y-19150D01*
D02*
G37*
G36*
X25750Y-20322D02*
X25454Y-20381D01*
X25092Y-20623D01*
X24731Y-20502D01*
X24592Y-20401D01*
Y-20340D01*
X23161D01*
Y-22100D01*
Y-23860D01*
X24592D01*
Y-22999D01*
X24731Y-22898D01*
X25092Y-22777D01*
X25454Y-23019D01*
X25750Y-23078D01*
Y-21700D01*
Y-20322D01*
D02*
G37*
G36*
X4692Y-19350D02*
X3261D01*
Y-20860D01*
X4692D01*
Y-19350D01*
D02*
G37*
G36*
X-8150Y-20077D02*
Y-20950D01*
X-7277D01*
X-7317Y-20751D01*
X-7571Y-20371D01*
X-7951Y-20117D01*
X-8150Y-20077D01*
D02*
G37*
G36*
X-8650D02*
X-8849Y-20117D01*
X-9229Y-20371D01*
X-9483Y-20751D01*
X-9523Y-20950D01*
X-8650D01*
Y-20077D01*
D02*
G37*
G36*
X-10808Y-19450D02*
X-12239D01*
Y-20960D01*
X-10808D01*
Y-19450D01*
D02*
G37*
G36*
X26250Y-20322D02*
Y-21450D01*
X27378D01*
X27319Y-21154D01*
X27009Y-20691D01*
X26546Y-20381D01*
X26250Y-20322D01*
D02*
G37*
G36*
X-7277Y-21450D02*
X-8150D01*
Y-22323D01*
X-7951Y-22283D01*
X-7571Y-22029D01*
X-7317Y-21649D01*
X-7277Y-21450D01*
D02*
G37*
G36*
X-8650D02*
X-9523D01*
X-9483Y-21649D01*
X-9229Y-22029D01*
X-8849Y-22283D01*
X-8650Y-22323D01*
Y-21450D01*
D02*
G37*
G36*
X5368Y-25817D02*
Y-28724D01*
X6406D01*
Y-25817D01*
X5368D01*
D02*
G37*
G36*
X9843Y-25109D02*
X9122Y-25204D01*
X8450Y-25482D01*
X7874Y-25925D01*
X7431Y-26502D01*
X7153Y-27173D01*
X7058Y-27894D01*
Y-28878D01*
X7153Y-29599D01*
X7431Y-30270D01*
X7874Y-30847D01*
X8450Y-31289D01*
X9122Y-31567D01*
X9843Y-31662D01*
X10563Y-31567D01*
X11235Y-31289D01*
X11811Y-30847D01*
X12254Y-30270D01*
X12532Y-29599D01*
X12627Y-28878D01*
Y-27894D01*
X12532Y-27173D01*
X12254Y-26502D01*
X11811Y-25925D01*
X11235Y-25482D01*
X10563Y-25204D01*
X9843Y-25109D01*
D02*
G37*
G36*
X-9843Y-25306D02*
X-10563Y-25401D01*
X-11235Y-25679D01*
X-11811Y-26122D01*
X-12254Y-26698D01*
X-12532Y-27370D01*
X-12627Y-28091D01*
Y-29075D01*
X-12532Y-29796D01*
X-12254Y-30467D01*
X-11811Y-31044D01*
X-11235Y-31486D01*
X-10563Y-31764D01*
X-9843Y-31859D01*
X-9122Y-31764D01*
X-8450Y-31486D01*
X-7874Y-31044D01*
X-7431Y-30467D01*
X-7153Y-29796D01*
X-7058Y-29075D01*
Y-28091D01*
X-7153Y-27370D01*
X-7431Y-26698D01*
X-7874Y-26122D01*
X-8450Y-25679D01*
X-9122Y-25401D01*
X-9843Y-25306D01*
D02*
G37*
G36*
X-16500Y-30531D02*
X-16871Y-30605D01*
X-17185Y-30815D01*
X-17344Y-31054D01*
X-17395Y-31129D01*
X-17469Y-31500D01*
X-17469Y-31500D01*
D01*
Y-31500D01*
X-17552Y-31778D01*
X-17771Y-32005D01*
Y-32005D01*
X-17771D01*
X-17771Y-32005D01*
X-18085Y-32215D01*
X-18135Y-32291D01*
X-18295Y-32529D01*
X-18369Y-32900D01*
X-18295Y-33271D01*
X-18142Y-33499D01*
X-18101Y-33561D01*
Y-33561D01*
X-18104Y-33556D01*
X-18100Y-33562D01*
X-18088Y-33590D01*
X-18393Y-34130D01*
X-18400Y-34131D01*
X-18461Y-34143D01*
X-18466Y-34144D01*
X-18593Y-34170D01*
X-18771Y-34205D01*
X-18905Y-34295D01*
X-19085Y-34415D01*
X-19295Y-34729D01*
X-19369Y-35100D01*
X-19295Y-35471D01*
X-19085Y-35785D01*
X-18771Y-35995D01*
X-18400Y-36069D01*
X-18029Y-35995D01*
X-17715Y-35785D01*
X-17505Y-35471D01*
X-17431Y-35100D01*
X-17505Y-34729D01*
X-17658Y-34501D01*
X-17699Y-34439D01*
Y-34439D01*
X-17696Y-34444D01*
X-17700Y-34438D01*
X-17713Y-34411D01*
X-17407Y-33870D01*
X-17400Y-33869D01*
X-17352Y-33859D01*
X-17334Y-33856D01*
X-17207Y-33830D01*
X-17029Y-33795D01*
X-16895Y-33705D01*
X-16715Y-33585D01*
X-16556Y-33346D01*
X-16505Y-33271D01*
X-16431Y-32900D01*
X-16431Y-32900D01*
D01*
Y-32900D01*
X-16348Y-32622D01*
X-16129Y-32395D01*
Y-32395D01*
X-16129D01*
X-16129Y-32395D01*
X-15815Y-32185D01*
X-15765Y-32109D01*
X-15605Y-31871D01*
X-15531Y-31500D01*
X-15605Y-31129D01*
X-15815Y-30815D01*
X-16129Y-30605D01*
X-16500Y-30531D01*
D02*
G37*
G36*
X-684Y-35960D02*
X-7583D01*
Y-44040D01*
X-684D01*
Y-35960D01*
D02*
G37*
%LPD*%
D10*
X-4134Y-40000D02*
D03*
X4134D02*
D03*
D11*
X5118Y-28974D02*
D03*
X2559D02*
D03*
X0D02*
D03*
X-2559D02*
D03*
X-5118Y-28974D02*
D03*
D12*
X-11811Y-40000D02*
D03*
X11811Y-40000D02*
D03*
D13*
X-26400Y2319D02*
D03*
Y4681D02*
D03*
X32500Y18881D02*
D03*
Y16519D02*
D03*
X-23100Y14981D02*
D03*
Y12619D02*
D03*
X-28800Y4681D02*
D03*
Y2319D02*
D03*
X-28400Y-3100D02*
D03*
Y-5462D02*
D03*
X-26600Y-20719D02*
D03*
Y-23081D02*
D03*
X-8200Y29919D02*
D03*
Y32281D02*
D03*
X-12800Y-2981D02*
D03*
Y-619D02*
D03*
D14*
X-12489Y-19200D02*
D03*
X-16111D02*
D03*
X21411Y1600D02*
D03*
X17789D02*
D03*
X26989Y1600D02*
D03*
X30611D02*
D03*
X3011Y-14900D02*
D03*
X-611D02*
D03*
X3011Y-19100D02*
D03*
X-611D02*
D03*
X-189Y38300D02*
D03*
X-3811D02*
D03*
X22911Y-22100D02*
D03*
X19289D02*
D03*
D15*
X-10147Y-14800D02*
D03*
X-16053D02*
D03*
X24953Y-30000D02*
D03*
X19047D02*
D03*
X25053Y-35300D02*
D03*
X19147D02*
D03*
D16*
X-16450Y-3450D02*
D03*
Y-1875D02*
D03*
X-18025Y-3450D02*
D03*
Y-1875D02*
D03*
X-16450Y1275D02*
D03*
Y-300D02*
D03*
Y2850D02*
D03*
X-18025Y1275D02*
D03*
Y-300D02*
D03*
X-19600Y2850D02*
D03*
X-18025D02*
D03*
X-19600Y-3450D02*
D03*
X-21175D02*
D03*
X-19600Y-1875D02*
D03*
X-21175D02*
D03*
Y-300D02*
D03*
X-22750Y-3450D02*
D03*
Y-1875D02*
D03*
X-19600Y-300D02*
D03*
X-22750D02*
D03*
X-19600Y1275D02*
D03*
X-21175D02*
D03*
Y2850D02*
D03*
X-22750D02*
D03*
Y1275D02*
D03*
D17*
X8300Y-11289D02*
D03*
Y-14911D02*
D03*
X-16200Y36189D02*
D03*
Y39811D02*
D03*
X-19900Y36189D02*
D03*
Y39811D02*
D03*
D18*
X20900Y-10200D02*
D03*
D19*
X17061Y-17385D02*
D03*
X19621D02*
D03*
X22179D02*
D03*
X24739D02*
D03*
Y-3015D02*
D03*
X22179D02*
D03*
X19621D02*
D03*
X17061D02*
D03*
D20*
X28085Y-14039D02*
D03*
Y-11479D02*
D03*
Y-8920D02*
D03*
Y-6361D02*
D03*
X13715D02*
D03*
Y-8920D02*
D03*
Y-11479D02*
D03*
Y-14039D02*
D03*
D21*
X-5200Y-18670D02*
D03*
Y-14930D02*
D03*
D22*
X26398Y18900D02*
D03*
X28602D02*
D03*
X26398Y16500D02*
D03*
X28602D02*
D03*
X-24398Y-17100D02*
D03*
X-26602D02*
D03*
X-22902Y9600D02*
D03*
X-20698D02*
D03*
X-30998Y26300D02*
D03*
X-33202D02*
D03*
D23*
X17800Y30302D02*
D03*
Y28098D02*
D03*
X12600Y19000D02*
D03*
Y16795D02*
D03*
X-6300Y13998D02*
D03*
Y16202D02*
D03*
X3900Y14298D02*
D03*
Y16502D02*
D03*
X-26000Y35000D02*
D03*
Y37205D02*
D03*
X-28300Y28500D02*
D03*
Y26295D02*
D03*
X-25900Y-3179D02*
D03*
Y-5384D02*
D03*
X-23400Y35900D02*
D03*
Y38105D02*
D03*
X13700Y9702D02*
D03*
Y7498D02*
D03*
X13100Y30102D02*
D03*
Y27898D02*
D03*
X26300Y7298D02*
D03*
Y9502D02*
D03*
D24*
X20137Y24425D02*
D03*
X18169D02*
D03*
X16200D02*
D03*
X20137Y22850D02*
D03*
X16200D02*
D03*
D25*
X-1300Y9400D02*
D03*
X7900Y9500D02*
D03*
D26*
X-2424Y19701D02*
D03*
X-850D02*
D03*
X-3999Y21276D02*
D03*
X-2424D02*
D03*
X-3999Y22850D02*
D03*
X725Y21276D02*
D03*
X-850D02*
D03*
X-2424Y24425D02*
D03*
X-3999D02*
D03*
X-850Y22850D02*
D03*
X-2424D02*
D03*
X-850Y24425D02*
D03*
Y26000D02*
D03*
X725Y19701D02*
D03*
X2300D02*
D03*
X3875Y21276D02*
D03*
X5450Y19701D02*
D03*
X3875D02*
D03*
X7024D02*
D03*
X8599D02*
D03*
X2300Y21276D02*
D03*
X8599D02*
D03*
X725Y22850D02*
D03*
X2300D02*
D03*
X8599Y24425D02*
D03*
Y22850D02*
D03*
X-3999Y26000D02*
D03*
X-2424Y27575D02*
D03*
X-3999D02*
D03*
X-2424Y29150D02*
D03*
X-3999D02*
D03*
X-2424Y26000D02*
D03*
X-850Y27575D02*
D03*
X725Y29150D02*
D03*
X-850D02*
D03*
X-2424Y30724D02*
D03*
X-850D02*
D03*
X-3999D02*
D03*
X-850Y32299D02*
D03*
X-2424D02*
D03*
X725D02*
D03*
Y30724D02*
D03*
X5450Y27575D02*
D03*
Y26000D02*
D03*
X2300Y29150D02*
D03*
X5450D02*
D03*
X3875D02*
D03*
X7024Y26000D02*
D03*
X8599D02*
D03*
X7024Y27575D02*
D03*
X8599D02*
D03*
Y29150D02*
D03*
X2300Y30724D02*
D03*
X3875D02*
D03*
X2300Y32299D02*
D03*
X5450Y30724D02*
D03*
X3875Y32299D02*
D03*
X7024Y29150D02*
D03*
X8599Y30724D02*
D03*
X5450Y32299D02*
D03*
X7024Y30724D02*
D03*
Y32299D02*
D03*
D27*
X-44134Y-7683D02*
D03*
Y6883D02*
D03*
D28*
X-36457Y-5223D02*
D03*
Y4423D02*
D03*
D29*
Y-400D02*
D03*
D30*
X43829Y8728D02*
D03*
D31*
Y-1311D02*
D03*
D32*
X39892Y7547D02*
D03*
D33*
X-31200Y-25500D02*
D03*
X-23600Y-32300D02*
D03*
X-5500Y2300D02*
D03*
X-19900Y28100D02*
D03*
X-11800Y22900D02*
D03*
D34*
X-338Y-6900D02*
D03*
X-2700D02*
D03*
X-11919Y-6800D02*
D03*
X-14281D02*
D03*
X-33262Y28700D02*
D03*
X-30900D02*
D03*
X-34281Y-12000D02*
D03*
X-31919D02*
D03*
X-26119Y0D02*
D03*
X-28481D02*
D03*
D35*
X-35667Y-15131D02*
D03*
D36*
X-35864Y-17100D02*
D03*
Y-19068D02*
D03*
X-31336Y-15131D02*
D03*
Y-17100D02*
D03*
Y-19068D02*
D03*
D37*
X-36521Y13579D02*
D03*
Y15547D02*
D03*
Y17516D02*
D03*
Y19484D02*
D03*
Y21453D02*
D03*
Y23421D02*
D03*
X-34553Y13579D02*
D03*
Y15547D02*
D03*
Y17516D02*
D03*
Y19484D02*
D03*
Y21453D02*
D03*
Y23421D02*
D03*
X-32584Y13579D02*
D03*
Y15547D02*
D03*
Y17516D02*
D03*
Y19484D02*
D03*
Y21453D02*
D03*
Y23421D02*
D03*
X-30616Y13579D02*
D03*
Y15547D02*
D03*
Y17516D02*
D03*
Y19484D02*
D03*
Y21453D02*
D03*
Y23421D02*
D03*
X-28647Y13579D02*
D03*
Y15547D02*
D03*
Y17516D02*
D03*
Y19484D02*
D03*
Y21453D02*
D03*
Y23421D02*
D03*
X-26679Y13579D02*
D03*
Y15547D02*
D03*
Y17516D02*
D03*
Y19484D02*
D03*
Y21453D02*
D03*
Y23421D02*
D03*
D38*
X-12168Y40268D02*
D03*
Y38300D02*
D03*
Y36331D02*
D03*
X-10200Y40268D02*
D03*
X-8231D02*
D03*
X-10200Y38300D02*
D03*
X-8231D02*
D03*
Y36331D02*
D03*
X-10200D02*
D03*
D39*
X-27956Y-9800D02*
D03*
X-22444D02*
D03*
D40*
X17478Y6472D02*
D03*
X22596D02*
D03*
X17478Y10409D02*
D03*
X22596D02*
D03*
D41*
X13100Y30102D02*
X17600D01*
X-26400Y4681D02*
X-24219D01*
X3011Y-19100D02*
X7900D01*
X8300Y-18700D02*
Y-14911D01*
X39300Y19900D02*
Y21800D01*
Y19900D02*
X43200Y16000D01*
Y12800D02*
Y16000D01*
Y12800D02*
X43829Y12171D01*
Y8728D02*
Y12171D01*
X22600Y14500D02*
X24600Y16500D01*
X26398D01*
X43829Y-11571D02*
Y-1311D01*
X-300Y38411D02*
Y40700D01*
X13700Y-6346D02*
Y-3900D01*
X17800Y30302D02*
Y40700D01*
X-10047Y-14900D02*
X-611D01*
X4700Y-200D02*
X6689Y1789D01*
X4700Y-7000D02*
Y-200D01*
X-611Y-12311D02*
X4700Y-7000D01*
X-611Y-14900D02*
Y-12311D01*
X22179Y-19780D02*
X22911Y-20511D01*
X22179Y-19780D02*
Y-17385D01*
X19800Y-10200D02*
X20900D01*
X15961Y-6361D02*
X19800Y-10200D01*
X13715Y-6361D02*
X15961D01*
X-5118Y-28974D02*
Y-18752D01*
X5118Y-28974D02*
Y-24218D01*
X3011Y-22111D02*
X5118Y-24218D01*
X3011Y-22111D02*
Y-19100D01*
X-611D02*
Y-14900D01*
X8289D02*
X8300Y-14911D01*
X3011Y-14900D02*
X8289D01*
X-11919Y-8581D02*
Y-6800D01*
X-16200Y39811D02*
X-14511D01*
X-13000Y38300D01*
X-12168D01*
X-22400Y33600D02*
X-22300D01*
X-23400Y34600D02*
X-22400Y33600D01*
X-23400Y34600D02*
Y35900D01*
X-24400D02*
X-23400D01*
X-25300Y35000D02*
X-24400Y35900D01*
X-26000Y35000D02*
X-25300D01*
X-19900Y39811D02*
X-16200D01*
X-20889D02*
X-19900D01*
X-23400Y38105D02*
X-22595D01*
X-24395D02*
X-23400D01*
X-22595D02*
X-20889Y39811D01*
X-25295Y37205D02*
X-24395Y38105D01*
X-26000Y37205D02*
X-25295D01*
X-28862Y30562D02*
X-28300Y30000D01*
X-33262Y30562D02*
X-28862D01*
X-27095Y37205D02*
X-26000D01*
X-28200Y36100D02*
X-27095Y37205D01*
X-28200Y34500D02*
Y36100D01*
Y34500D02*
X-24900Y31200D01*
Y26500D02*
Y31200D01*
Y26500D02*
X-23900Y25500D01*
Y23500D02*
Y25500D01*
X-43300Y12300D02*
X-41300D01*
X-39847Y10847D01*
X-34553D01*
Y13579D01*
X8300Y-11289D02*
X8491Y-11479D01*
X10200D01*
X13715D01*
X-19600Y-3450D02*
Y-1875D01*
X-28800Y4681D02*
X-26400D01*
X-36198D02*
X-28800D01*
X-34281Y-12000D02*
Y-7398D01*
X-36457Y-5223D02*
X-34281Y-7398D01*
X-19600Y-15250D02*
Y-3450D01*
Y-15250D02*
X-18900Y-15950D01*
Y-23000D02*
Y-15950D01*
X-26600Y-23081D02*
X-18981D01*
X-12489Y-19200D02*
X-10400D01*
X-8400Y-21200D01*
X-31200Y-25500D02*
X-28781Y-23081D01*
X-26600D01*
X-32584Y23421D02*
Y23784D01*
X-33202Y24402D02*
X-32584Y23784D01*
X-33202Y24402D02*
Y26300D01*
X-33262Y26360D02*
X-33202Y26300D01*
X-33262Y26360D02*
Y28700D01*
X-28300Y28500D02*
Y30000D01*
X-26679Y15547D02*
X-25647D01*
X-25081Y14981D01*
X-23100D01*
X-33262Y28700D02*
Y29700D01*
Y30562D01*
X-36521Y15547D02*
Y17516D01*
X-34553D01*
X-38684D02*
X-36521D01*
X-38684D02*
Y21384D01*
X-36647Y23421D01*
X-40684Y17516D02*
X-38684D01*
X23311Y-21700D02*
X26000D01*
X22911Y-22100D02*
Y-20511D01*
X-23400Y35900D02*
X-16489D01*
X-37223Y-5223D02*
X-36457D01*
X-40200Y-8200D02*
X-37223Y-5223D01*
X-9500Y5119D02*
X-8319D01*
X-5500Y2300D01*
X-22750Y-5150D02*
Y-3450D01*
X17789Y-489D02*
Y1600D01*
Y-489D02*
X17900Y-600D01*
X22100D01*
X22179Y-679D01*
Y-3015D02*
Y-679D01*
X6689Y1789D02*
X17600D01*
D42*
X8599Y26000D02*
X17700D01*
X17800Y26100D01*
Y28098D01*
X-21781Y4681D02*
X-21175Y4075D01*
Y2850D02*
Y4075D01*
X-7798Y12400D02*
X-6300Y13898D01*
Y13600D02*
Y13898D01*
Y16102D02*
X-4202D01*
X26398Y16500D02*
Y18900D01*
X-16111Y-19200D02*
X-16053Y-19142D01*
Y-14800D01*
X-2424Y14476D02*
Y19701D01*
X-6400Y10500D02*
X-2424Y14476D01*
X-8600Y10500D02*
X-6400D01*
X-14700Y4400D02*
X-8600Y10500D01*
X-14700Y-1800D02*
Y4400D01*
X-26679Y23421D02*
X-23979D01*
X-16450Y-1875D02*
X-14281Y-4044D01*
Y-6800D02*
Y-4044D01*
X-16450Y-14402D02*
Y-3450D01*
X-8231Y33869D02*
Y36331D01*
X-8400Y33700D02*
X-8231Y33869D01*
X-10500Y33700D02*
X-8400D01*
X-11800Y32400D02*
X-10500Y33700D01*
X-11800Y22900D02*
Y32400D01*
X-850Y32299D02*
Y34350D01*
X550D01*
X2500Y36300D01*
Y39700D01*
X300Y41900D02*
X2500Y39700D01*
X-8568Y41900D02*
X300D01*
X-10200Y40268D02*
X-8568Y41900D01*
X-7875Y27575D02*
X-3999D01*
X-6800Y26000D02*
X-3999D01*
X-8400Y18450D02*
X-3999Y22850D01*
X-6300Y17400D02*
X-2424Y21276D01*
X-6300Y16102D02*
Y17400D01*
X-8200Y29919D02*
X-5919D01*
X-5150Y29150D01*
X-3999D01*
X-850Y9850D02*
Y15700D01*
X-21175Y1275D02*
Y2850D01*
X-13719Y-2981D02*
X-12800D01*
X-22750Y-300D02*
Y1275D01*
X-21175D01*
X-25819Y-300D02*
X-22750D01*
X-22975Y-1875D02*
X-22750D01*
X-24279Y-3179D02*
X-22975Y-1875D01*
X-28481Y-3019D02*
Y0D01*
X-28800Y319D02*
X-28481Y0D01*
X-28321Y-3179D02*
X-25900D01*
X-24279D01*
X-28481Y-3019D02*
X-28400Y-3100D01*
X-28321Y-3179D01*
X-21175Y-8531D02*
Y-3450D01*
X-22444Y-9800D02*
X-21175Y-8531D01*
X-30200Y1300D02*
X-29819D01*
X-28800Y2319D01*
X-26281Y2200D02*
X-24800D01*
X-26400Y2319D02*
X-26281Y2200D01*
X-31336Y-17100D02*
X-26602D01*
X-31336Y-19068D02*
X-26366D01*
X-24398Y-17100D01*
X-33600Y-17100D02*
X-31336D01*
X-33600D02*
X-33600Y-17100D01*
Y-20700D02*
Y-17100D01*
Y-20700D02*
X-26619D01*
X-26366Y-19068D02*
X-20532D01*
X-39268D02*
X-35864D01*
X-31919Y-14549D02*
Y-12000D01*
X-338Y-6900D02*
Y-2838D01*
X-7900Y-2600D02*
X-100D01*
X-23600Y-32300D02*
Y-30800D01*
X-20532Y-27732D01*
Y-24700D01*
X-30616Y23421D02*
Y24616D01*
X-30998Y24998D02*
X-30616Y24616D01*
X-30998Y24998D02*
Y26300D01*
X-28647Y23421D02*
Y24547D01*
X-28300Y24894D01*
Y26295D01*
X-36100Y26100D02*
Y26900D01*
Y26100D02*
X-34553Y24553D01*
Y23421D02*
Y24553D01*
X-25504Y12396D02*
X-23323D01*
X-20996Y18396D02*
X-20704D01*
X-24053Y21453D02*
X-20996Y18396D01*
X-26679Y21453D02*
X-24053D01*
X-21996Y17096D02*
X-20704D01*
X-24384Y19484D02*
X-21996Y17096D01*
X-26679Y19484D02*
X-24384D01*
X-21762Y15700D02*
X-20700D01*
X-22183Y16122D02*
X-21762Y15700D01*
X-23122Y16122D02*
X-22183D01*
X-24600Y17600D02*
X-23122Y16122D01*
X-26594Y17600D02*
X-24600D01*
X-7200Y21600D02*
X-6824D01*
X-3999Y24425D01*
X-34900Y29800D02*
X-33362D01*
X-33262Y29700D01*
X-14800Y33300D02*
X-12400D01*
X-19900Y28200D02*
X-14800Y33300D01*
X-24219Y4681D02*
X-21781D01*
X-8481Y29919D02*
X-8200D01*
X-9600Y28800D02*
X-8481Y29919D01*
X-10200Y-300D02*
X-7900Y-2600D01*
X-14800Y-1900D02*
X-14700Y-1800D01*
X-14800Y-1900D02*
X-13719Y-2981D01*
X3700Y9500D02*
X7900D01*
X7024Y18076D02*
Y19701D01*
Y18076D02*
X11400Y13700D01*
X19305D01*
X22596Y10409D01*
X5450Y17950D02*
Y19701D01*
Y17950D02*
X11800Y11600D01*
Y9398D02*
Y11600D01*
Y9398D02*
X13700Y7498D01*
X16452D01*
X17478Y6472D01*
X22596Y10409D02*
X24091D01*
X24998Y9502D01*
X26300D01*
X3875Y16528D02*
Y19701D01*
X17700Y26000D02*
X18169Y25532D01*
Y24425D02*
Y25532D01*
D43*
X-29600Y-13100D02*
X-28200D01*
X-27956Y-12856D01*
Y-9800D01*
X8599Y27575D02*
X15375D01*
X-12800Y-619D02*
Y1700D01*
X8599Y21276D02*
X11576D01*
X3875D02*
X8599D01*
X-2424Y22850D02*
X-850Y24425D01*
X725Y26000D01*
X3875Y29150D02*
X5450D01*
Y30724D01*
X3875Y27675D02*
Y29150D01*
X3100Y26900D02*
X3875Y27675D01*
X725Y26900D02*
X3100D01*
X725Y26000D02*
Y26900D01*
Y29150D01*
X3875Y21276D02*
Y27675D01*
X-28400Y-9356D02*
Y-5462D01*
X-25979D01*
X-18981Y-23081D02*
X-18900Y-23000D01*
X-30616Y19484D02*
X-28647Y21453D01*
X-30716Y19484D02*
X-30616D01*
X-31700Y18500D02*
X-30716Y19484D01*
X-20698Y9600D02*
X-19000D01*
X11576Y21276D02*
X12600Y20251D01*
Y19000D02*
Y20251D01*
Y19000D02*
X15200D01*
X18300D01*
X20137Y20837D01*
Y22850D01*
X14405Y16795D02*
X15200Y16000D01*
X8599Y19701D02*
X11505Y16795D01*
X12600D01*
X14405D01*
X17478Y10409D02*
X18659D01*
X22596Y6472D01*
X25475D01*
X26300Y7298D01*
X13700Y9702D02*
X16770D01*
X17478Y10409D01*
X26300Y7298D02*
X29098D01*
X29800Y8000D01*
Y10300D01*
X21411Y1600D02*
X26989D01*
X8599Y24425D02*
X16200D01*
X8599Y22850D02*
X16200D01*
D44*
X28085Y-8920D02*
X30920D01*
X31900Y-9900D01*
Y-29800D02*
Y-9900D01*
X26400Y-35300D02*
X31900Y-29800D01*
X25053Y-35300D02*
X26400D01*
X28085Y-11479D02*
X30079D01*
X30500Y-11900D01*
Y-20500D02*
Y-11900D01*
X24953Y-26047D02*
X30500Y-20500D01*
X24953Y-30000D02*
Y-26047D01*
X10800Y300D02*
X11775Y-675D01*
X7500Y300D02*
X10800D01*
X6900Y-1300D02*
X10173D01*
X6400Y-800D02*
X6900Y-1300D01*
X1268Y4332D02*
X4100Y1500D01*
X2300Y5500D02*
X5100Y2700D01*
X1268Y4332D02*
Y16082D01*
X19621Y-19880D02*
Y-17385D01*
X19400Y-20100D02*
X19621Y-19880D01*
X19400Y-21989D02*
Y-20100D01*
X19289Y-22100D02*
X19400Y-21989D01*
X16600Y-22100D02*
X19289D01*
X15000Y-20500D02*
X16600Y-22100D01*
X15000Y-20500D02*
Y-16100D01*
X15871Y-15229D01*
Y-10471D01*
X15500Y-10100D02*
X15871Y-10471D01*
X15392Y-10100D02*
X15500D01*
X15381Y-10111D02*
X15392Y-10100D01*
X11511Y-10111D02*
X15381D01*
X11200Y-9800D02*
X11511Y-10111D01*
X11200Y-9800D02*
Y-5400D01*
X11775Y-4825D01*
X-39500Y-300D02*
Y1400D01*
Y-300D02*
X-39400Y-400D01*
X-36457D01*
X-8231Y38300D02*
X-3811D01*
X7024Y30724D02*
X12300Y36000D01*
X7024Y32299D02*
Y33476D01*
X7900Y34351D01*
Y37900D01*
X725Y16625D02*
X1268Y16082D01*
X10200Y-11479D02*
Y-1327D01*
X11775Y-4825D02*
Y-675D01*
X725Y16625D02*
Y19701D01*
X2300Y5500D02*
Y19701D01*
X-30600Y11992D02*
X-29604Y10996D01*
X-30600Y11992D02*
Y13563D01*
X-28398Y9798D02*
Y13329D01*
X-27196Y8596D02*
Y11404D01*
X-26679Y11921D01*
Y13579D01*
D45*
X1000Y-35300D02*
X19147D01*
X-2559Y-31741D02*
X1000Y-35300D01*
X-2559Y-31741D02*
Y-28974D01*
X15300Y-30000D02*
X19047D01*
X12400Y-32900D02*
X15300Y-30000D01*
X600Y-32900D02*
X12400D01*
X0Y-32300D02*
X600Y-32900D01*
X0Y-32300D02*
Y-28974D01*
X25900Y-6800D02*
X26339Y-6361D01*
X25900Y-14500D02*
Y-6800D01*
X25300Y-15100D02*
X25900Y-14500D01*
X17323Y-15100D02*
X25300D01*
X17061Y-15361D02*
X17323Y-15100D01*
X17061Y-17385D02*
Y-15361D01*
X-4700Y-6900D02*
X-2700D01*
X-10200Y34700D02*
Y36331D01*
X-14800Y34700D02*
X-10200D01*
X-16200Y36100D02*
X-14800Y34700D01*
X-23100Y14981D02*
X-22481D01*
X-21300Y13800D01*
Y11247D02*
Y13800D01*
X-22902Y9645D02*
X-21300Y11247D01*
X-24000Y4900D02*
Y5400D01*
X-22902Y6498D01*
Y9600D01*
X-18025Y-3450D02*
Y-1875D01*
X30611Y-3711D02*
Y1600D01*
X28085Y-6237D02*
X30611Y-3711D01*
X26339Y-6361D02*
X28085D01*
X24739Y-3015D02*
X29915D01*
X30611Y-3711D01*
D46*
X-8200Y32281D02*
X-2442D01*
X-2400Y32324D02*
Y35700D01*
X-2100Y36000D01*
Y40300D01*
X-2131Y40268D02*
X-2100Y40300D01*
X-8231Y40268D02*
X-2131D01*
X-2442Y32281D02*
X-2424Y32299D01*
X-2400Y32324D01*
X-16500Y4400D02*
Y24500D01*
Y4400D02*
X-15500Y3400D01*
X-17200Y4110D02*
X-16450Y3360D01*
Y2850D02*
Y3360D01*
X-17200Y4110D02*
Y25000D01*
X-15100Y27100D01*
Y30100D01*
X-16500Y24500D02*
X-13200Y27800D01*
Y30100D01*
X-15500Y2256D02*
Y3400D01*
X-16450Y1307D02*
X-15500Y2256D01*
X-16450Y1275D02*
Y1307D01*
X-37900Y-17200D02*
X-35964D01*
X-37900D02*
Y-13500D01*
X-37000Y-12600D01*
Y-8900D01*
D47*
X-30616Y21453D02*
X-29650Y22419D01*
Y27450D01*
X-30900Y28700D02*
X-29650Y27450D01*
D48*
X20137Y24425D02*
X24875D01*
X28602Y20698D01*
Y18900D02*
Y20698D01*
Y18900D02*
X32481D01*
X38000Y16500D02*
X39892Y14608D01*
Y7547D02*
Y14608D01*
X28602Y16500D02*
X38000D01*
D49*
X-9843Y-28583D02*
D03*
X9843Y-28386D02*
D03*
D50*
X-14173Y-40000D02*
D03*
X14173Y-39998D02*
D03*
D51*
X37200Y-24200D02*
D03*
X24100Y36300D02*
D03*
X-40700Y-14700D02*
D03*
D52*
X-43300Y12300D02*
D03*
X-29600Y-13100D02*
D03*
X8100Y-18900D02*
D03*
X39300Y21800D02*
D03*
X22600Y14500D02*
D03*
X43200Y-12200D02*
D03*
X-40684Y17516D02*
D03*
X26000Y-21700D02*
D03*
X-24000Y4900D02*
D03*
X-9500Y5119D02*
D03*
X29800Y10300D02*
D03*
X24200Y1600D02*
D03*
D53*
X15200Y16000D02*
D03*
X-300Y40700D02*
D03*
X13700Y-3900D02*
D03*
X-7798Y12400D02*
D03*
X-4202Y16102D02*
D03*
X15600Y27800D02*
D03*
X18300Y41200D02*
D03*
X-11919Y-8581D02*
D03*
X-12800Y1700D02*
D03*
X-22300Y33600D02*
D03*
X-23900Y23500D02*
D03*
X-39500Y1400D02*
D03*
X-6800Y26000D02*
D03*
X-8400Y18400D02*
D03*
X12300Y36000D02*
D03*
X7900Y37900D02*
D03*
X-12168Y40268D02*
D03*
X-10200Y38300D02*
D03*
X-20532Y-19068D02*
D03*
X-37000Y-8900D02*
D03*
X-39300Y-19100D02*
D03*
X-18981Y-23081D02*
D03*
X-8400Y-21200D02*
D03*
X-4800Y-7000D02*
D03*
X-20532Y-24700D02*
D03*
X-36100Y26900D02*
D03*
X-26600Y26700D02*
D03*
X-18400Y-35100D02*
D03*
X-17400Y-32900D02*
D03*
X-16500Y-31500D02*
D03*
X19900Y30200D02*
D03*
X19800Y31800D02*
D03*
X19900Y33500D02*
D03*
X-20600Y23200D02*
D03*
Y20000D02*
D03*
X-34900Y29800D02*
D03*
X-39600Y8400D02*
D03*
X-12168Y36331D02*
D03*
X-40200Y-8200D02*
D03*
X-12400Y9600D02*
D03*
X725Y26000D02*
D03*
X-7900Y27600D02*
D03*
X-18025Y-3450D02*
D03*
X-25600Y-7700D02*
D03*
X15200Y19000D02*
D03*
D54*
X-2424Y30724D02*
D03*
X7500Y300D02*
D03*
X6400Y-800D02*
D03*
X5100Y2700D02*
D03*
X4100Y1500D02*
D03*
X-36521Y13579D02*
D03*
X-2424Y21276D02*
D03*
X2300D02*
D03*
X3700Y9500D02*
D03*
X-19600Y-300D02*
D03*
X-18025D02*
D03*
X-15100Y30100D02*
D03*
X2300Y32299D02*
D03*
X-13200Y30100D02*
D03*
X725Y32299D02*
D03*
X-30200Y1300D02*
D03*
X-24800Y2200D02*
D03*
X-32584Y19484D02*
D03*
X-26679Y23421D02*
D03*
X-34553Y21453D02*
D03*
Y19484D02*
D03*
X-3999Y30724D02*
D03*
X-36521Y19484D02*
D03*
X-34553Y15547D02*
D03*
X-32584D02*
D03*
Y13579D02*
D03*
X-29604Y10996D02*
D03*
X-28398Y9798D02*
D03*
X-27196Y8596D02*
D03*
X-30616Y15547D02*
D03*
X-28647D02*
D03*
Y17516D02*
D03*
X-30616D02*
D03*
X-28647Y19484D02*
D03*
X-25504Y12396D02*
D03*
X-20704Y18396D02*
D03*
Y17096D02*
D03*
X-20700Y15700D02*
D03*
X-31700Y18500D02*
D03*
X-7200Y21600D02*
D03*
X-12400Y33300D02*
D03*
X-19000Y9600D02*
D03*
X-9600Y28800D02*
D03*
X-3999Y29150D02*
D03*
X-850Y24425D02*
D03*
X-19000Y7100D02*
D03*
X-21175Y-300D02*
D03*
X-10200D02*
D03*
X-21175Y-1875D02*
D03*
X-22750Y-5150D02*
D03*
X-14800Y-1900D02*
D03*
X-850Y19701D02*
D03*
Y15700D02*
D03*
Y21276D02*
D03*
D55*
X0Y-2500D02*
D03*
M02*
