G04 Layer_Color=128*
%FSLAX25Y25*%
%MOIN*%
G70*
G01*
G75*
%ADD13R,0.01378X0.01181*%
%ADD14R,0.02362X0.02520*%
%ADD17R,0.02520X0.02362*%
%ADD23R,0.01260X0.01260*%
%ADD34R,0.01181X0.01378*%
G04:AMPARAMS|DCode=59|XSize=39.37mil|YSize=31.5mil|CornerRadius=0mil|HoleSize=0mil|Usage=FLASHONLY|Rotation=315.000|XOffset=0mil|YOffset=0mil|HoleType=Round|Shape=Rectangle|*
%AMROTATEDRECTD59*
4,1,4,-0.02506,0.00278,-0.00278,0.02506,0.02506,-0.00278,0.00278,-0.02506,-0.02506,0.00278,0.0*
%
%ADD59ROTATEDRECTD59*%

G04:AMPARAMS|DCode=60|XSize=39.37mil|YSize=31.5mil|CornerRadius=0mil|HoleSize=0mil|Usage=FLASHONLY|Rotation=45.000|XOffset=0mil|YOffset=0mil|HoleType=Round|Shape=Rectangle|*
%AMROTATEDRECTD60*
4,1,4,-0.00278,-0.02506,-0.02506,-0.00278,0.00278,0.02506,0.02506,0.00278,-0.00278,-0.02506,0.0*
%
%ADD60ROTATEDRECTD60*%

%ADD61R,0.01575X0.02598*%
%ADD62R,0.04724X0.04921*%
%ADD63R,0.03347X0.09055*%
%ADD64R,0.03937X0.03543*%
%ADD65R,0.03543X0.03937*%
%ADD66R,0.01417X0.01969*%
%ADD67R,0.01575X0.01969*%
%ADD89C,0.00000*%
D13*
X1100Y29300D02*
D03*
Y26938D02*
D03*
X4400Y29281D02*
D03*
Y26919D02*
D03*
X3800Y14119D02*
D03*
Y16481D02*
D03*
D14*
X-10889Y-23200D02*
D03*
X-14511D02*
D03*
X-16789Y3600D02*
D03*
X-20411D02*
D03*
D17*
X29800Y13889D02*
D03*
Y17511D02*
D03*
X34300Y13889D02*
D03*
Y17511D02*
D03*
X-10300Y-18811D02*
D03*
Y-15189D02*
D03*
X-15100Y-18811D02*
D03*
Y-15189D02*
D03*
D23*
X-3999Y30622D02*
D03*
Y32827D02*
D03*
D34*
X-25381Y-1600D02*
D03*
X-23019D02*
D03*
X-20519Y-16700D02*
D03*
X-22881D02*
D03*
D59*
X32162Y27987D02*
D03*
X27986Y32162D02*
D03*
X24924Y29100D02*
D03*
X29100Y24924D02*
D03*
X-32162Y-27987D02*
D03*
X-27986Y-32162D02*
D03*
X-24924Y-29100D02*
D03*
X-29100Y-24924D02*
D03*
D60*
X-27987Y32162D02*
D03*
X-32162Y27986D02*
D03*
X-29100Y24924D02*
D03*
X-24924Y29100D02*
D03*
X29100Y-24924D02*
D03*
X24924Y-29100D02*
D03*
X27987Y-32162D02*
D03*
X32162Y-27986D02*
D03*
D61*
X-25559Y-5458D02*
D03*
X-23000D02*
D03*
X-20441D02*
D03*
Y-12742D02*
D03*
X-23000D02*
D03*
X-25559D02*
D03*
D62*
X-34500Y-15709D02*
D03*
Y-4291D02*
D03*
D63*
X-27272Y5800D02*
D03*
X-36328D02*
D03*
D64*
X37700Y-13142D02*
D03*
Y-18458D02*
D03*
D65*
X-16443Y8500D02*
D03*
X-21757D02*
D03*
D66*
X75Y13532D02*
D03*
X-3075D02*
D03*
D67*
X-1500Y17469D02*
D03*
D89*
X-11600Y15900D02*
D03*
X-10700Y37500D02*
D03*
X-11700Y22400D02*
D03*
Y29300D02*
D03*
X-3500Y38400D02*
D03*
M02*
