G04 Layer_Color=32896*
%FSLAX25Y25*%
%MOIN*%
G70*
G01*
G75*
%ADD42C,0.00500*%
%ADD46C,0.00400*%
%ADD73C,0.00787*%
%ADD134C,0.00100*%
D42*
X-8844Y15900D02*
G03*
X-8844Y15900I-2756J0D01*
G01*
X-7944Y37500D02*
G03*
X-7944Y37500I-2756J0D01*
G01*
X-8944Y22400D02*
G03*
X-8944Y22400I-2756J0D01*
G01*
Y29300D02*
G03*
X-8944Y29300I-2756J0D01*
G01*
X-744Y38400D02*
G03*
X-744Y38400I-2756J0D01*
G01*
X3545Y46291D02*
G03*
X3545Y46291I-557J0D01*
G01*
X36732Y26873D02*
G03*
X36732Y26873I-394J0D01*
G01*
X-26479Y36338D02*
G03*
X-26479Y36338I-394J0D01*
G01*
X-35945Y-26873D02*
G03*
X-35945Y-26873I-394J0D01*
G01*
X30607Y-20748D02*
G03*
X30607Y-20748I-394J0D01*
G01*
X-27921Y-4868D02*
G03*
X-27921Y-4868I-591J0D01*
G01*
X28543Y35225D02*
X35225Y28543D01*
X21862Y28543D02*
X28543Y21862D01*
X-35225Y28543D02*
X-28543Y35225D01*
X-28543Y21862D02*
X-21862Y28543D01*
X-35225Y-28543D02*
X-28543Y-35225D01*
X-28543Y-21862D02*
X-21862Y-28543D01*
X21862Y-28543D02*
X28543Y-21862D01*
X28543Y-35225D02*
X35225Y-28543D01*
X-37650Y-20630D02*
X-31350D01*
X-30760Y-15709D02*
Y-4390D01*
X-38240Y-15709D02*
Y-4390D01*
X-34500Y-20630D02*
X-31350Y-19055D01*
X-37650D02*
X-34500Y-20630D01*
X-33768Y10131D02*
X-29831D01*
X-33768Y1469D02*
X-29831D01*
X1059Y15303D02*
Y17272D01*
X620D02*
X1059D01*
X-4059Y15303D02*
Y17272D01*
X-3620D01*
D46*
X-6949Y33225D02*
X-7199Y33475D01*
Y33974D01*
X-6949Y34224D01*
X-5949D01*
X-5699Y33974D01*
Y33475D01*
X-5949Y33225D01*
X-5699Y32725D02*
Y32225D01*
Y32475D01*
X-7199D01*
X-6949Y32725D01*
X-5699Y31475D02*
Y30975D01*
Y31225D01*
X-7199D01*
X-6949Y31475D01*
X-5699Y30226D02*
Y29726D01*
Y29976D01*
X-7199D01*
X-6949Y30226D01*
X27250Y13700D02*
X27499Y13450D01*
Y12950D01*
X27250Y12700D01*
X26250D01*
X26000Y12950D01*
Y13450D01*
X26250Y13700D01*
X26000Y15199D02*
Y14199D01*
X27000Y15199D01*
X27250D01*
X27499Y14949D01*
Y14449D01*
X27250Y14199D01*
Y15699D02*
X27499Y15949D01*
Y16449D01*
X27250Y16699D01*
X26250D01*
X26000Y16449D01*
Y15949D01*
X26250Y15699D01*
X27250D01*
Y17199D02*
X27499Y17448D01*
Y17948D01*
X27250Y18198D01*
X26250D01*
X26000Y17948D01*
Y17448D01*
X26250Y17199D01*
X27250D01*
X37850Y14200D02*
X38100Y13950D01*
Y13450D01*
X37850Y13200D01*
X36850D01*
X36600Y13450D01*
Y13950D01*
X36850Y14200D01*
X36600Y15699D02*
Y14699D01*
X37600Y15699D01*
X37850D01*
X38100Y15449D01*
Y14949D01*
X37850Y14699D01*
Y16199D02*
X38100Y16449D01*
Y16949D01*
X37850Y17199D01*
X36850D01*
X36600Y16949D01*
Y16449D01*
X36850Y16199D01*
X37850D01*
X36600Y17699D02*
Y18198D01*
Y17948D01*
X38100D01*
X37850Y17699D01*
X41850Y-18000D02*
X42099Y-18250D01*
Y-18750D01*
X41850Y-19000D01*
X40850D01*
X40600Y-18750D01*
Y-18250D01*
X40850Y-18000D01*
X40600Y-16501D02*
Y-17501D01*
X41600Y-16501D01*
X41850D01*
X42099Y-16751D01*
Y-17251D01*
X41850Y-17501D01*
Y-16001D02*
X42099Y-15751D01*
Y-15251D01*
X41850Y-15001D01*
X40850D01*
X40600Y-15251D01*
Y-15751D01*
X40850Y-16001D01*
X41850D01*
X40600Y-13752D02*
X42099D01*
X41350Y-14501D01*
Y-13502D01*
X-15100Y13350D02*
X-14850Y13600D01*
X-14350D01*
X-14100Y13350D01*
Y12350D01*
X-14350Y12100D01*
X-14850D01*
X-15100Y12350D01*
X-16599Y12100D02*
X-15599D01*
X-16599Y13100D01*
Y13350D01*
X-16349Y13600D01*
X-15849D01*
X-15599Y13350D01*
X-17099D02*
X-17349Y13600D01*
X-17849D01*
X-18099Y13350D01*
Y12350D01*
X-17849Y12100D01*
X-17349D01*
X-17099Y12350D01*
Y13350D01*
X-19598Y13600D02*
X-18599D01*
Y12850D01*
X-19098Y13100D01*
X-19348D01*
X-19598Y12850D01*
Y12350D01*
X-19348Y12100D01*
X-18848D01*
X-18599Y12350D01*
X-4200Y-22650D02*
X-3950Y-22400D01*
X-3450D01*
X-3200Y-22650D01*
Y-23650D01*
X-3450Y-23900D01*
X-3950D01*
X-4200Y-23650D01*
X-4699Y-22650D02*
X-4949Y-22400D01*
X-5449D01*
X-5699Y-22650D01*
Y-22900D01*
X-5449Y-23150D01*
X-5199D01*
X-5449D01*
X-5699Y-23400D01*
Y-23650D01*
X-5449Y-23900D01*
X-4949D01*
X-4699Y-23650D01*
X-6199Y-22650D02*
X-6449Y-22400D01*
X-6949D01*
X-7199Y-22650D01*
Y-23650D01*
X-6949Y-23900D01*
X-6449D01*
X-6199Y-23650D01*
Y-22650D01*
X-7699D02*
X-7948Y-22400D01*
X-8448D01*
X-8698Y-22650D01*
Y-23650D01*
X-8448Y-23900D01*
X-7948D01*
X-7699Y-23650D01*
Y-22650D01*
X-16700Y1550D02*
X-16450Y1799D01*
X-15950D01*
X-15700Y1550D01*
Y550D01*
X-15950Y300D01*
X-16450D01*
X-16700Y550D01*
X-17199Y1550D02*
X-17449Y1799D01*
X-17949D01*
X-18199Y1550D01*
Y1300D01*
X-17949Y1050D01*
X-17699D01*
X-17949D01*
X-18199Y800D01*
Y550D01*
X-17949Y300D01*
X-17449D01*
X-17199Y550D01*
X-18699Y1550D02*
X-18949Y1799D01*
X-19449D01*
X-19699Y1550D01*
Y550D01*
X-19449Y300D01*
X-18949D01*
X-18699Y550D01*
Y1550D01*
X-21198Y300D02*
X-20198D01*
X-21198Y1300D01*
Y1550D01*
X-20948Y1799D01*
X-20448D01*
X-20198Y1550D01*
X-17650Y-18600D02*
X-17401Y-18850D01*
Y-19350D01*
X-17650Y-19600D01*
X-18650D01*
X-18900Y-19350D01*
Y-18850D01*
X-18650Y-18600D01*
X-17650Y-18101D02*
X-17401Y-17851D01*
Y-17351D01*
X-17650Y-17101D01*
X-17900D01*
X-18150Y-17351D01*
Y-17601D01*
Y-17351D01*
X-18400Y-17101D01*
X-18650D01*
X-18900Y-17351D01*
Y-17851D01*
X-18650Y-18101D01*
X-17650Y-16601D02*
X-17401Y-16351D01*
Y-15851D01*
X-17650Y-15601D01*
X-18650D01*
X-18900Y-15851D01*
Y-16351D01*
X-18650Y-16601D01*
X-17650D01*
X-18900Y-14352D02*
X-17401D01*
X-18150Y-15101D01*
Y-14102D01*
X-10000Y-11550D02*
X-9750Y-11300D01*
X-9250D01*
X-9000Y-11550D01*
Y-12550D01*
X-9250Y-12800D01*
X-9750D01*
X-10000Y-12550D01*
X-10499Y-11550D02*
X-10749Y-11300D01*
X-11249D01*
X-11499Y-11550D01*
Y-11800D01*
X-11249Y-12050D01*
X-10999D01*
X-11249D01*
X-11499Y-12300D01*
Y-12550D01*
X-11249Y-12800D01*
X-10749D01*
X-10499Y-12550D01*
X-11999Y-11550D02*
X-12249Y-11300D01*
X-12749D01*
X-12999Y-11550D01*
Y-12550D01*
X-12749Y-12800D01*
X-12249D01*
X-11999Y-12550D01*
Y-11550D01*
X-14498Y-11300D02*
X-13499D01*
Y-12050D01*
X-13998Y-11800D01*
X-14248D01*
X-14498Y-12050D01*
Y-12550D01*
X-14248Y-12800D01*
X-13748D01*
X-13499Y-12550D01*
X25555Y-34738D02*
Y-36237D01*
X24805D01*
X24555Y-35987D01*
Y-34988D01*
X24805Y-34738D01*
X25555D01*
X23056Y-36237D02*
X24055D01*
X23056Y-35237D01*
Y-34988D01*
X23306Y-34738D01*
X23806D01*
X24055Y-34988D01*
X22556D02*
X22306Y-34738D01*
X21806D01*
X21556Y-34988D01*
Y-35987D01*
X21806Y-36237D01*
X22306D01*
X22556Y-35987D01*
Y-34988D01*
X21056D02*
X20807Y-34738D01*
X20307D01*
X20057Y-34988D01*
Y-35987D01*
X20307Y-36237D01*
X20807D01*
X21056Y-35987D01*
Y-34988D01*
X37049Y22831D02*
Y21332D01*
X36300D01*
X36050Y21582D01*
Y22581D01*
X36300Y22831D01*
X37049D01*
X34550Y21332D02*
X35550D01*
X34550Y22331D01*
Y22581D01*
X34800Y22831D01*
X35300D01*
X35550Y22581D01*
X34051D02*
X33801Y22831D01*
X33301D01*
X33051Y22581D01*
Y21582D01*
X33301Y21332D01*
X33801D01*
X34051Y21582D01*
Y22581D01*
X32551Y21332D02*
X32051D01*
X32301D01*
Y22831D01*
X32551Y22581D01*
X-20349Y-35332D02*
Y-36832D01*
X-21099D01*
X-21349Y-36582D01*
Y-35582D01*
X-21099Y-35332D01*
X-20349D01*
X-22849Y-36832D02*
X-21849D01*
X-22849Y-35832D01*
Y-35582D01*
X-22599Y-35332D01*
X-22099D01*
X-21849Y-35582D01*
X-23349D02*
X-23598Y-35332D01*
X-24098D01*
X-24348Y-35582D01*
Y-36582D01*
X-24098Y-36832D01*
X-23598D01*
X-23349Y-36582D01*
Y-35582D01*
X-25848Y-36832D02*
X-24848D01*
X-25848Y-35832D01*
Y-35582D01*
X-25598Y-35332D01*
X-25098D01*
X-24848Y-35582D01*
X-32800Y23099D02*
Y21600D01*
X-33550D01*
X-33800Y21850D01*
Y22850D01*
X-33550Y23099D01*
X-32800D01*
X-35299Y21600D02*
X-34299D01*
X-35299Y22600D01*
Y22850D01*
X-35049Y23099D01*
X-34549D01*
X-34299Y22850D01*
X-35799D02*
X-36049Y23099D01*
X-36549D01*
X-36799Y22850D01*
Y21850D01*
X-36549Y21600D01*
X-36049D01*
X-35799Y21850D01*
Y22850D01*
X-37299D02*
X-37549Y23099D01*
X-38048D01*
X-38298Y22850D01*
Y22600D01*
X-38048Y22350D01*
X-37798D01*
X-38048D01*
X-38298Y22100D01*
Y21850D01*
X-38048Y21600D01*
X-37549D01*
X-37299Y21850D01*
X-39400Y-6301D02*
Y-7800D01*
X-40150D01*
X-40400Y-7550D01*
Y-6550D01*
X-40150Y-6301D01*
X-39400D01*
X-41899Y-7800D02*
X-40900D01*
X-41899Y-6800D01*
Y-6550D01*
X-41649Y-6301D01*
X-41149D01*
X-40900Y-6550D01*
X-42399D02*
X-42649Y-6301D01*
X-43149D01*
X-43399Y-6550D01*
Y-7550D01*
X-43149Y-7800D01*
X-42649D01*
X-42399Y-7550D01*
Y-6550D01*
X-44648Y-7800D02*
Y-6301D01*
X-43899Y-7050D01*
X-44898D01*
X5500Y39099D02*
X6000D01*
X5750D01*
Y37850D01*
X6000Y37600D01*
X6250D01*
X6500Y37850D01*
X5001Y37600D02*
X4501D01*
X4751D01*
Y39099D01*
X5001Y38850D01*
X3751D02*
X3501Y39099D01*
X3001D01*
X2751Y38850D01*
Y37850D01*
X3001Y37600D01*
X3501D01*
X3751Y37850D01*
Y38850D01*
X2251D02*
X2001Y39099D01*
X1502D01*
X1252Y38850D01*
Y37850D01*
X1502Y37600D01*
X2001D01*
X2251Y37850D01*
Y38850D01*
X-39301Y3200D02*
X-40800D01*
Y4200D01*
Y5699D02*
Y4699D01*
X-39800Y5699D01*
X-39550D01*
X-39301Y5449D01*
Y4949D01*
X-39550Y4699D01*
Y6199D02*
X-39301Y6449D01*
Y6949D01*
X-39550Y7199D01*
X-40550D01*
X-40800Y6949D01*
Y6449D01*
X-40550Y6199D01*
X-39550D01*
Y7699D02*
X-39301Y7948D01*
Y8448D01*
X-39550Y8698D01*
X-40550D01*
X-40800Y8448D01*
Y7948D01*
X-40550Y7699D01*
X-39550D01*
X-13000Y-5450D02*
Y-4450D01*
X-12750Y-4200D01*
X-12250D01*
X-12000Y-4450D01*
Y-5450D01*
X-12250Y-5700D01*
X-12750D01*
X-12500Y-5200D02*
X-13000Y-5700D01*
X-12750D02*
X-13000Y-5450D01*
X-13499Y-4450D02*
X-13749Y-4200D01*
X-14249D01*
X-14499Y-4450D01*
Y-4700D01*
X-14249Y-4950D01*
X-13999D01*
X-14249D01*
X-14499Y-5200D01*
Y-5450D01*
X-14249Y-5700D01*
X-13749D01*
X-13499Y-5450D01*
X-14999Y-4450D02*
X-15249Y-4200D01*
X-15749D01*
X-15999Y-4450D01*
Y-5450D01*
X-15749Y-5700D01*
X-15249D01*
X-14999Y-5450D01*
Y-4450D01*
X-16499D02*
X-16748Y-4200D01*
X-17248D01*
X-17498Y-4450D01*
Y-5450D01*
X-17248Y-5700D01*
X-16748D01*
X-16499Y-5450D01*
Y-4450D01*
X5880Y25782D02*
X7380D01*
Y26532D01*
X7130Y26782D01*
X6630D01*
X6380Y26532D01*
Y25782D01*
Y26282D02*
X5880Y26782D01*
Y27281D02*
Y27781D01*
Y27531D01*
X7380D01*
X7130Y27281D01*
Y28531D02*
X7380Y28781D01*
Y29281D01*
X7130Y29531D01*
X6130D01*
X5880Y29281D01*
Y28781D01*
X6130Y28531D01*
X7130D01*
X5880Y30031D02*
Y30530D01*
Y30281D01*
X7380D01*
X7130Y30031D01*
X-2119Y25800D02*
X-619D01*
Y26550D01*
X-869Y26800D01*
X-1369D01*
X-1619Y26550D01*
Y25800D01*
Y26300D02*
X-2119Y26800D01*
Y27299D02*
Y27799D01*
Y27549D01*
X-619D01*
X-869Y27299D01*
Y28549D02*
X-619Y28799D01*
Y29299D01*
X-869Y29549D01*
X-1869D01*
X-2119Y29299D01*
Y28799D01*
X-1869Y28549D01*
X-869D01*
X-2119Y31048D02*
Y30049D01*
X-1119Y31048D01*
X-869D01*
X-619Y30798D01*
Y30299D01*
X-869Y30049D01*
X-16800Y-2400D02*
Y-900D01*
X-17550D01*
X-17800Y-1150D01*
Y-1650D01*
X-17550Y-1900D01*
X-16800D01*
X-17300D02*
X-17800Y-2400D01*
X-18300Y-1150D02*
X-18549Y-900D01*
X-19049D01*
X-19299Y-1150D01*
Y-1400D01*
X-19049Y-1650D01*
X-18799D01*
X-19049D01*
X-19299Y-1900D01*
Y-2150D01*
X-19049Y-2400D01*
X-18549D01*
X-18300Y-2150D01*
X-19799Y-2400D02*
X-20299D01*
X-20049D01*
Y-900D01*
X-19799Y-1150D01*
X-21049Y-2400D02*
X-21549D01*
X-21299D01*
Y-900D01*
X-21049Y-1150D01*
X-19900Y-19900D02*
Y-18401D01*
X-20650D01*
X-20900Y-18650D01*
Y-19150D01*
X-20650Y-19400D01*
X-19900D01*
X-20400D02*
X-20900Y-19900D01*
X-21399Y-18650D02*
X-21649Y-18401D01*
X-22149D01*
X-22399Y-18650D01*
Y-18900D01*
X-22149Y-19150D01*
X-21899D01*
X-22149D01*
X-22399Y-19400D01*
Y-19650D01*
X-22149Y-19900D01*
X-21649D01*
X-21399Y-19650D01*
X-22899Y-19900D02*
X-23399D01*
X-23149D01*
Y-18401D01*
X-22899Y-18650D01*
X-25148Y-19900D02*
X-24149D01*
X-25148Y-18900D01*
Y-18650D01*
X-24898Y-18401D01*
X-24399D01*
X-24149Y-18650D01*
X17500Y-4050D02*
X17750Y-3801D01*
X18250D01*
X18500Y-4050D01*
Y-4300D01*
X18250Y-4550D01*
X17750D01*
X17500Y-4800D01*
Y-5050D01*
X17750Y-5300D01*
X18250D01*
X18500Y-5050D01*
X17000Y-3801D02*
Y-5300D01*
X16501Y-4800D01*
X16001Y-5300D01*
Y-3801D01*
X15501Y-5300D02*
X15001D01*
X15251D01*
Y-3801D01*
X15501Y-4050D01*
X14251D02*
X14001Y-3801D01*
X13502D01*
X13252Y-4050D01*
Y-5050D01*
X13502Y-5300D01*
X14001D01*
X14251Y-5050D01*
Y-4050D01*
X12752D02*
X12502Y-3801D01*
X12002D01*
X11752Y-4050D01*
Y-5050D01*
X12002Y-5300D01*
X12502D01*
X12752Y-5050D01*
Y-4050D01*
X-13200Y34100D02*
X-14200D01*
X-13700D01*
Y32600D01*
X-14699D02*
Y34100D01*
X-15449D01*
X-15699Y33850D01*
Y33350D01*
X-15449Y33100D01*
X-14699D01*
X-16199Y32350D02*
X-17199D01*
X-18698Y33850D02*
X-18448Y34100D01*
X-17948D01*
X-17699Y33850D01*
Y33600D01*
X-17948Y33350D01*
X-18448D01*
X-18698Y33100D01*
Y32850D01*
X-18448Y32600D01*
X-17948D01*
X-17699Y32850D01*
X-20198Y33850D02*
X-19948Y34100D01*
X-19448D01*
X-19198Y33850D01*
Y32850D01*
X-19448Y32600D01*
X-19948D01*
X-20198Y32850D01*
X-20698Y34100D02*
Y32600D01*
X-21697D01*
X-22197D02*
Y34100D01*
Y33100D02*
X-22947Y33600D01*
X-22197Y33100D02*
X-22947Y32600D01*
X300Y43999D02*
X-700D01*
X-200D01*
Y42500D01*
X-1199D02*
Y43999D01*
X-1949D01*
X-2199Y43750D01*
Y43250D01*
X-1949Y43000D01*
X-1199D01*
X-2699Y42250D02*
X-3699D01*
X-5198Y43750D02*
X-4948Y43999D01*
X-4448D01*
X-4199Y43750D01*
Y43500D01*
X-4448Y43250D01*
X-4948D01*
X-5198Y43000D01*
Y42750D01*
X-4948Y42500D01*
X-4448D01*
X-4199Y42750D01*
X-6698Y43750D02*
X-6448Y43999D01*
X-5948D01*
X-5698Y43750D01*
Y42750D01*
X-5948Y42500D01*
X-6448D01*
X-6698Y42750D01*
X-7198Y43999D02*
Y42500D01*
X-8197D01*
X-14100Y38500D02*
X-15100D01*
X-14600D01*
Y37000D01*
X-15599D02*
Y38500D01*
X-16349D01*
X-16599Y38250D01*
Y37750D01*
X-16349Y37500D01*
X-15599D01*
X-17099Y36750D02*
X-18099D01*
X-19598Y38250D02*
X-19348Y38500D01*
X-18848D01*
X-18599Y38250D01*
Y38000D01*
X-18848Y37750D01*
X-19348D01*
X-19598Y37500D01*
Y37250D01*
X-19348Y37000D01*
X-18848D01*
X-18599Y37250D01*
X-20098Y38500D02*
Y37000D01*
X-20848D01*
X-21098Y37250D01*
Y38250D01*
X-20848Y38500D01*
X-20098D01*
X-21598Y37000D02*
Y38000D01*
X-22097Y38500D01*
X-22597Y38000D01*
Y37000D01*
Y37750D01*
X-21598D01*
X-15200Y16800D02*
X-16200D01*
X-15700D01*
Y15300D01*
X-16700D02*
Y16800D01*
X-17449D01*
X-17699Y16550D01*
Y16050D01*
X-17449Y15800D01*
X-16700D01*
X-18199Y15050D02*
X-19199D01*
X-20698Y16550D02*
X-20448Y16800D01*
X-19949D01*
X-19699Y16550D01*
Y16300D01*
X-19949Y16050D01*
X-20448D01*
X-20698Y15800D01*
Y15550D01*
X-20448Y15300D01*
X-19949D01*
X-19699Y15550D01*
X-21198Y16800D02*
Y15300D01*
X-21948D01*
X-22198Y15550D01*
Y16550D01*
X-21948Y16800D01*
X-21198D01*
X-22698D02*
X-23197D01*
X-22948D01*
Y15300D01*
X-22698D01*
X-23197D01*
X-15200Y23099D02*
X-16200D01*
X-15700D01*
Y21600D01*
X-16700D02*
Y23099D01*
X-17449D01*
X-17699Y22850D01*
Y22350D01*
X-17449Y22100D01*
X-16700D01*
X-18199Y21350D02*
X-19199D01*
X-20698Y22850D02*
X-20448Y23099D01*
X-19949D01*
X-19699Y22850D01*
Y22600D01*
X-19949Y22350D01*
X-20448D01*
X-20698Y22100D01*
Y21850D01*
X-20448Y21600D01*
X-19949D01*
X-19699Y21850D01*
X-21198Y23099D02*
Y21600D01*
X-21948D01*
X-22198Y21850D01*
Y22850D01*
X-21948Y23099D01*
X-21198D01*
X-23447D02*
X-22948D01*
X-22698Y22850D01*
Y21850D01*
X-22948Y21600D01*
X-23447D01*
X-23697Y21850D01*
Y22850D01*
X-23447Y23099D01*
X82Y19334D02*
Y20334D01*
X332Y20584D01*
X832D01*
X1082Y20334D01*
Y19334D01*
X832Y19084D01*
X332D01*
X582Y19584D02*
X82Y19084D01*
X332D02*
X82Y19334D01*
X-418Y19084D02*
X-918D01*
X-668D01*
Y20584D01*
X-418Y20334D01*
X-1667D02*
X-1917Y20584D01*
X-2417D01*
X-2667Y20334D01*
Y19334D01*
X-2417Y19084D01*
X-1917D01*
X-1667Y19334D01*
Y20334D01*
X-3167D02*
X-3417Y20584D01*
X-3917D01*
X-4167Y20334D01*
Y19334D01*
X-3917Y19084D01*
X-3417D01*
X-3167Y19334D01*
Y20334D01*
X5800Y12800D02*
X7299D01*
Y13550D01*
X7050Y13800D01*
X6550D01*
X6300Y13550D01*
Y12800D01*
Y13300D02*
X5800Y13800D01*
Y14299D02*
Y14799D01*
Y14549D01*
X7299D01*
X7050Y14299D01*
Y15549D02*
X7299Y15799D01*
Y16299D01*
X7050Y16549D01*
X6050D01*
X5800Y16299D01*
Y15799D01*
X6050Y15549D01*
X7050D01*
X7299Y18048D02*
Y17049D01*
X6550D01*
X6800Y17549D01*
Y17798D01*
X6550Y18048D01*
X6050D01*
X5800Y17798D01*
Y17299D01*
X6050Y17049D01*
X30500Y-8200D02*
X30000Y-9200D01*
X29500Y-8200D01*
X29000Y-7950D02*
X28751Y-7700D01*
X28251D01*
X28001Y-7950D01*
Y-8200D01*
X28251Y-8450D01*
X28501D01*
X28251D01*
X28001Y-8700D01*
Y-8950D01*
X28251Y-9200D01*
X28751D01*
X29000Y-8950D01*
X27501Y-9200D02*
Y-8950D01*
X27251D01*
Y-9200D01*
X27501D01*
X25252Y-7700D02*
X26251D01*
Y-8450D01*
X25752Y-8200D01*
X25502D01*
X25252Y-8450D01*
Y-8950D01*
X25502Y-9200D01*
X26001D01*
X26251Y-8950D01*
D73*
X-27331Y-10281D02*
Y-7919D01*
X-18669Y-10281D02*
Y-7919D01*
X-27331D02*
X-18669D01*
X-27331Y-10281D02*
X-18669D01*
D134*
X26700Y-19000D02*
X27100D01*
X29200D02*
X29600D01*
X26400Y-18900D02*
X27500D01*
X28900D02*
X30000D01*
X26200Y-18800D02*
X27600D01*
X28700D02*
X30200D01*
X26100Y-18700D02*
X27800D01*
X28600D02*
X30300D01*
X26000Y-18600D02*
X27900D01*
X28500D02*
X30400D01*
X25900Y-18500D02*
X28000D01*
X28400D02*
X30500D01*
X25800Y-18400D02*
X28100D01*
X28300D02*
X30600D01*
X25800Y-18300D02*
X28100D01*
X28300D02*
X30600D01*
X25700Y-18200D02*
X30700D01*
X25700Y-18100D02*
X30700D01*
X25600Y-18000D02*
X30700D01*
X25600Y-17900D02*
X30700D01*
X25600Y-17800D02*
X30800D01*
X25600Y-17700D02*
X30800D01*
X25600Y-17600D02*
X30800D01*
X25600Y-17500D02*
X30800D01*
X25600Y-17400D02*
X30700D01*
X25700Y-17300D02*
X30700D01*
X25700Y-17200D02*
X30700D01*
X24600Y-17100D02*
X25600D01*
X25700D02*
X30600D01*
X30800D02*
X31700D01*
X24400Y-17000D02*
X31900D01*
X24300Y-16900D02*
X32100D01*
X8300Y-16800D02*
X8800D01*
X16600D02*
X17100D01*
X20200D02*
X20800D01*
X24200D02*
X32200D01*
X-6100Y-16700D02*
X-4900D01*
X-3900D02*
X-3100D01*
X-800D02*
X400D01*
X3000D02*
X4000D01*
X4800D02*
X5200D01*
X5800D02*
X6300D01*
X7800D02*
X9200D01*
X11500D02*
X11900D01*
X13500D02*
X13900D01*
X16100D02*
X17500D01*
X19900D02*
X21100D01*
X24100D02*
X32300D01*
X-6300Y-16600D02*
X-4700D01*
X-4100D02*
X-2800D01*
X-1000D02*
X700D01*
X2800D02*
X4200D01*
X4700D02*
X5300D01*
X5800D02*
X6400D01*
X7600D02*
X9400D01*
X11500D02*
X12000D01*
X13500D02*
X14000D01*
X15900D02*
X17700D01*
X19700D02*
X21300D01*
X24000D02*
X32400D01*
X-6500Y-16500D02*
X-4500D01*
X-4200D02*
X-2700D01*
X-1200D02*
X800D01*
X2600D02*
X4400D01*
X4600D02*
X5400D01*
X5700D02*
X6500D01*
X7400D02*
X9500D01*
X11400D02*
X12100D01*
X13400D02*
X14100D01*
X15800D02*
X17900D01*
X19500D02*
X21500D01*
X23900D02*
X32400D01*
X-6600Y-16400D02*
X-4400D01*
X-4200D02*
X-2600D01*
X-1300D02*
X1000D01*
X2500D02*
X4500D01*
X4600D02*
X5400D01*
X5700D02*
X6500D01*
X7300D02*
X9700D01*
X11400D02*
X12100D01*
X13400D02*
X14100D01*
X15600D02*
X18000D01*
X19400D02*
X21600D01*
X23900D02*
X32500D01*
X-6700Y-16300D02*
X-4300D01*
X-4200D02*
X-2600D01*
X-1400D02*
X1100D01*
X2400D02*
X4500D01*
X4600D02*
X5300D01*
X5800D02*
X6500D01*
X7200D02*
X9800D01*
X11300D02*
X12100D01*
X13400D02*
X14200D01*
X15500D02*
X18100D01*
X19400D02*
X21700D01*
X23900D02*
X32500D01*
X-6700Y-16200D02*
X-5800D01*
X-5200D02*
X-4300D01*
X-4100D02*
X-2500D01*
X-1500D02*
X-500D01*
X100D02*
X1200D01*
X2300D02*
X5200D01*
X5900D02*
X6500D01*
X7100D02*
X8100D01*
X8900D02*
X9900D01*
X11300D02*
X12200D01*
X13300D02*
X14200D01*
X15500D02*
X16500D01*
X17200D02*
X18200D01*
X19300D02*
X20100D01*
X20900D02*
X21800D01*
X23800D02*
X32500D01*
X-6800Y-16100D02*
X-6000D01*
X-4900D02*
X-4400D01*
X-3200D02*
X-2500D01*
X-1600D02*
X-700D01*
X400D02*
X1300D01*
X2200D02*
X3100D01*
X3900D02*
X5200D01*
X5900D02*
X6500D01*
X7100D02*
X7900D01*
X9100D02*
X9900D01*
X11300D02*
X12200D01*
X13300D02*
X14200D01*
X15500D02*
X16200D01*
X17400D02*
X18300D01*
X19200D02*
X20000D01*
X21000D02*
X21800D01*
X23800D02*
X32600D01*
X-6800Y-16000D02*
X-6100D01*
X-4800D02*
X-4500D01*
X-3100D02*
X-2400D01*
X-1700D02*
X-900D01*
X500D02*
X1400D01*
X2200D02*
X3000D01*
X4100D02*
X5200D01*
X5900D02*
X6500D01*
X7100D02*
X7700D01*
X9200D02*
X10000D01*
X11200D02*
X12200D01*
X13300D02*
X14300D01*
X15500D02*
X16100D01*
X17600D02*
X18300D01*
X19200D02*
X19900D01*
X21200D02*
X21900D01*
X23800D02*
X32600D01*
X-6800Y-15900D02*
X-6100D01*
X-3100D02*
X-2400D01*
X-1700D02*
X-1000D01*
X700D02*
X1400D01*
X2100D02*
X2900D01*
X4200D02*
X5200D01*
X5900D02*
X6500D01*
X7200D02*
X7600D01*
X9300D02*
X10100D01*
X11200D02*
X12200D01*
X13200D02*
X14300D01*
X15500D02*
X15900D01*
X17700D02*
X18400D01*
X19100D02*
X19800D01*
X21300D02*
X21900D01*
X23800D02*
X32600D01*
X-6800Y-15800D02*
X-6200D01*
X-3000D02*
X-2400D01*
X-1800D02*
X-1100D01*
X800D02*
X1500D01*
X2100D02*
X2800D01*
X4300D02*
X5200D01*
X5900D02*
X6500D01*
X9400D02*
X10100D01*
X11200D02*
X12300D01*
X13200D02*
X13700D01*
X13800D02*
X14300D01*
X17700D02*
X18400D01*
X19100D02*
X19800D01*
X21300D02*
X21800D01*
X23800D02*
X32600D01*
X-6800Y-15700D02*
X-6100D01*
X-3000D02*
X-2400D01*
X-1800D02*
X-1100D01*
X800D02*
X1500D01*
X2000D02*
X2700D01*
X4400D02*
X5200D01*
X5900D02*
X6500D01*
X9500D02*
X10100D01*
X11100D02*
X12300D01*
X13200D02*
X13700D01*
X13800D02*
X14400D01*
X17800D02*
X18500D01*
X19100D02*
X19700D01*
X21400D02*
X21700D01*
X23800D02*
X32600D01*
X-6800Y-15600D02*
X-6100D01*
X-3000D02*
X-2400D01*
X-1900D02*
X-1200D01*
X900D02*
X1600D01*
X2000D02*
X2700D01*
X4400D02*
X5200D01*
X5900D02*
X6500D01*
X9500D02*
X10200D01*
X11100D02*
X11700D01*
X11800D02*
X12300D01*
X13100D02*
X13700D01*
X13800D02*
X14400D01*
X17900D02*
X18500D01*
X19100D02*
X19700D01*
X23800D02*
X32600D01*
X-6700Y-15500D02*
X-5900D01*
X-3000D02*
X-2400D01*
X-1900D02*
X-1300D01*
X1000D02*
X1600D01*
X2000D02*
X2600D01*
X4500D02*
X5200D01*
X5900D02*
X6500D01*
X9600D02*
X10200D01*
X11100D02*
X11700D01*
X11800D02*
X12400D01*
X13100D02*
X13700D01*
X13800D02*
X14400D01*
X17900D02*
X18500D01*
X19100D02*
X19700D01*
X23800D02*
X32500D01*
X-6600Y-15400D02*
X-5700D01*
X-3000D02*
X-2400D01*
X-1900D02*
X-1300D01*
X1000D02*
X1600D01*
X1900D02*
X2600D01*
X4500D02*
X5200D01*
X5900D02*
X6500D01*
X9600D02*
X10200D01*
X11000D02*
X11600D01*
X11800D02*
X12400D01*
X13100D02*
X13700D01*
X13900D02*
X14500D01*
X17900D02*
X18600D01*
X19000D02*
X19700D01*
X23900D02*
X32500D01*
X-6600Y-15300D02*
X-5500D01*
X-3000D02*
X-2400D01*
X-2000D02*
X-1300D01*
X1000D02*
X1700D01*
X1900D02*
X2600D01*
X4500D02*
X5200D01*
X5900D02*
X6500D01*
X9600D02*
X10200D01*
X11000D02*
X11600D01*
X11900D02*
X12400D01*
X13000D02*
X13600D01*
X13900D02*
X14500D01*
X18000D02*
X18600D01*
X19000D02*
X19700D01*
X23900D02*
X32500D01*
X-6500Y-15200D02*
X-5300D01*
X-3000D02*
X-2400D01*
X-2000D02*
X-1300D01*
X1000D02*
X1700D01*
X1900D02*
X2500D01*
X4600D02*
X5200D01*
X5900D02*
X6500D01*
X7000D02*
X10300D01*
X10900D02*
X11600D01*
X11900D02*
X12500D01*
X13000D02*
X13600D01*
X13900D02*
X14600D01*
X15300D02*
X18600D01*
X19000D02*
X19700D01*
X24000D02*
X32400D01*
X-6400Y-15100D02*
X-5000D01*
X-3000D02*
X-2400D01*
X-2000D02*
X-1400D01*
X1100D02*
X1700D01*
X1900D02*
X2500D01*
X4600D02*
X5200D01*
X5900D02*
X6500D01*
X6900D02*
X10300D01*
X10900D02*
X11500D01*
X11900D02*
X12500D01*
X13000D02*
X13600D01*
X14000D02*
X14600D01*
X15200D02*
X18600D01*
X19000D02*
X19700D01*
X24000D02*
X32400D01*
X-6200Y-15000D02*
X-4900D01*
X-3000D02*
X-2400D01*
X-2000D02*
X-1400D01*
X1100D02*
X1700D01*
X1900D02*
X2500D01*
X4600D02*
X5200D01*
X5900D02*
X6500D01*
X6900D02*
X10300D01*
X10900D02*
X11500D01*
X12000D02*
X12500D01*
X12900D02*
X13500D01*
X14000D02*
X14600D01*
X15200D02*
X18600D01*
X19000D02*
X19700D01*
X24100D02*
X32300D01*
X-6000Y-14900D02*
X-4700D01*
X-3000D02*
X-2400D01*
X-2000D02*
X-1400D01*
X1100D02*
X1700D01*
X1900D02*
X2500D01*
X4600D02*
X5200D01*
X5900D02*
X6500D01*
X6900D02*
X10300D01*
X10800D02*
X11500D01*
X12000D02*
X12600D01*
X12900D02*
X13500D01*
X14000D02*
X14700D01*
X15200D02*
X18600D01*
X19000D02*
X19700D01*
X24200D02*
X32200D01*
X-5800Y-14800D02*
X-4600D01*
X-3000D02*
X-2400D01*
X-2000D02*
X-1300D01*
X1100D02*
X1700D01*
X1900D02*
X2500D01*
X4600D02*
X5200D01*
X5900D02*
X6500D01*
X6900D02*
X10300D01*
X10800D02*
X11400D01*
X12000D02*
X12600D01*
X12900D02*
X13500D01*
X14100D02*
X14700D01*
X15200D02*
X18600D01*
X19000D02*
X19700D01*
X24300D02*
X32100D01*
X-5600Y-14700D02*
X-4500D01*
X-3000D02*
X-2400D01*
X-2000D02*
X-1300D01*
X1000D02*
X1700D01*
X1900D02*
X2500D01*
X4600D02*
X5200D01*
X5900D02*
X6500D01*
X6900D02*
X7500D01*
X9600D02*
X10200D01*
X10800D02*
X11400D01*
X12000D02*
X12600D01*
X12800D02*
X13400D01*
X14100D02*
X14700D01*
X15300D02*
X15900D01*
X18000D02*
X18600D01*
X19000D02*
X19700D01*
X24400D02*
X31900D01*
X-5300Y-14600D02*
X-4400D01*
X-3000D02*
X-2400D01*
X-1900D02*
X-1300D01*
X1000D02*
X1600D01*
X1900D02*
X2600D01*
X4500D02*
X5200D01*
X5900D02*
X6500D01*
X6900D02*
X7600D01*
X9600D02*
X10200D01*
X10700D02*
X11400D01*
X12100D02*
X12700D01*
X12800D02*
X13400D01*
X14200D02*
X14800D01*
X15300D02*
X15900D01*
X17900D02*
X18600D01*
X19000D02*
X19700D01*
X24700D02*
X31700D01*
X-5100Y-14500D02*
X-4400D01*
X-3000D02*
X-2400D01*
X-1900D02*
X-1300D01*
X1000D02*
X1600D01*
X1900D02*
X2600D01*
X4500D02*
X5200D01*
X5900D02*
X6500D01*
X7000D02*
X7600D01*
X9600D02*
X10200D01*
X10700D02*
X11300D01*
X12100D02*
X12700D01*
X12800D02*
X13400D01*
X14200D02*
X14800D01*
X15300D02*
X15900D01*
X17900D02*
X18500D01*
X19000D02*
X19700D01*
X24400D02*
X31900D01*
X-5000Y-14400D02*
X-4300D01*
X-3000D02*
X-2400D01*
X-1900D02*
X-1200D01*
X900D02*
X1600D01*
X2000D02*
X2600D01*
X4500D02*
X5200D01*
X5900D02*
X6500D01*
X7000D02*
X7600D01*
X9500D02*
X10200D01*
X10700D02*
X11300D01*
X12100D02*
X12700D01*
X12800D02*
X13400D01*
X14200D02*
X14800D01*
X15300D02*
X16000D01*
X17900D02*
X18500D01*
X19000D02*
X19700D01*
X24300D02*
X32100D01*
X-4900Y-14300D02*
X-4300D01*
X-3000D02*
X-2400D01*
X-1800D02*
X-1200D01*
X900D02*
X1500D01*
X2000D02*
X2700D01*
X4400D02*
X5200D01*
X5900D02*
X6500D01*
X7000D02*
X7700D01*
X9500D02*
X10100D01*
X10600D02*
X11300D01*
X12200D02*
X13300D01*
X14300D02*
X14900D01*
X15400D02*
X16000D01*
X17800D02*
X18500D01*
X19000D02*
X19700D01*
X24200D02*
X32200D01*
X-4900Y-14200D02*
X-4300D01*
X-3000D02*
X-2400D01*
X-1800D02*
X-1100D01*
X800D02*
X1500D01*
X2000D02*
X2700D01*
X4300D02*
X5200D01*
X5900D02*
X6500D01*
X7100D02*
X7800D01*
X9400D02*
X10100D01*
X10600D02*
X11200D01*
X12200D02*
X13300D01*
X14300D02*
X14900D01*
X15400D02*
X16100D01*
X17700D02*
X18400D01*
X19000D02*
X19700D01*
X24100D02*
X32300D01*
X-4900Y-14100D02*
X-4300D01*
X-3000D02*
X-2400D01*
X-1700D02*
X-1000D01*
X700D02*
X1400D01*
X2100D02*
X2800D01*
X4300D02*
X5200D01*
X5900D02*
X6500D01*
X7100D02*
X7900D01*
X9300D02*
X10000D01*
X10500D02*
X11200D01*
X12200D02*
X13300D01*
X14300D02*
X15000D01*
X15500D02*
X16200D01*
X17600D02*
X18400D01*
X19000D02*
X19700D01*
X24000D02*
X32400D01*
X-6500Y-14000D02*
X-6200D01*
X-5000D02*
X-4300D01*
X-3000D02*
X-2400D01*
X-1700D02*
X-900D01*
X600D02*
X1400D01*
X2100D02*
X2900D01*
X4200D02*
X5200D01*
X5900D02*
X6500D01*
X7200D02*
X8000D01*
X9200D02*
X10000D01*
X10500D02*
X11100D01*
X12300D02*
X13200D01*
X14400D02*
X15000D01*
X15500D02*
X16300D01*
X17500D02*
X18300D01*
X19000D02*
X19700D01*
X24000D02*
X32400D01*
X-6600Y-13900D02*
X-6100D01*
X-5100D02*
X-4300D01*
X-3000D02*
X-2400D01*
X-1600D02*
X-700D01*
X400D02*
X1300D01*
X2200D02*
X3100D01*
X4000D02*
X5200D01*
X5900D02*
X6500D01*
X7200D02*
X8100D01*
X9000D02*
X9900D01*
X10500D02*
X11100D01*
X12300D02*
X13200D01*
X14400D02*
X15000D01*
X15600D02*
X16400D01*
X17400D02*
X18200D01*
X19000D02*
X19700D01*
X23900D02*
X32500D01*
X-6600Y-13800D02*
X-5900D01*
X-5300D02*
X-4400D01*
X-3000D02*
X-2400D01*
X-1500D02*
X-500D01*
X200D02*
X1200D01*
X2300D02*
X3300D01*
X3700D02*
X5200D01*
X5900D02*
X6500D01*
X7300D02*
X8400D01*
X8700D02*
X9800D01*
X10400D02*
X11100D01*
X12300D02*
X13200D01*
X14400D02*
X15100D01*
X15700D02*
X16700D01*
X17100D02*
X18200D01*
X19000D02*
X19700D01*
X23900D02*
X32500D01*
X-6600Y-13700D02*
X-4400D01*
X-3900D02*
X-2100D01*
X-1400D02*
X1100D01*
X2400D02*
X5200D01*
X5900D02*
X6500D01*
X7400D02*
X9700D01*
X10200D02*
X11000D01*
X12400D02*
X13100D01*
X14500D02*
X15200D01*
X15800D02*
X18100D01*
X19000D02*
X19700D01*
X23800D02*
X32500D01*
X-6600Y-13600D02*
X-4500D01*
X-3900D02*
X-2000D01*
X-1300D02*
X1000D01*
X2500D02*
X4500D01*
X4600D02*
X5200D01*
X5900D02*
X6500D01*
X7500D02*
X9600D01*
X10200D02*
X11000D01*
X12400D02*
X13100D01*
X14500D02*
X15300D01*
X15900D02*
X17900D01*
X19000D02*
X19700D01*
X23800D02*
X32600D01*
X-6500Y-13500D02*
X-4600D01*
X-3900D02*
X-2000D01*
X-1200D02*
X900D01*
X2600D02*
X4400D01*
X4600D02*
X5200D01*
X5900D02*
X6500D01*
X7600D02*
X9500D01*
X10200D02*
X11000D01*
X12400D02*
X13100D01*
X14500D02*
X15300D01*
X16000D02*
X17800D01*
X19000D02*
X19700D01*
X23800D02*
X32600D01*
X-6400Y-13400D02*
X-4800D01*
X-3900D02*
X-2000D01*
X-1000D02*
X700D01*
X2800D02*
X4200D01*
X4600D02*
X5200D01*
X5900D02*
X6500D01*
X7800D02*
X9300D01*
X10200D02*
X10900D01*
X12500D02*
X13000D01*
X14600D02*
X15300D01*
X16100D02*
X17600D01*
X19000D02*
X19700D01*
X23800D02*
X32600D01*
X-6200Y-13300D02*
X-5000D01*
X-3900D02*
X-2100D01*
X-800D02*
X500D01*
X3000D02*
X4000D01*
X4600D02*
X5200D01*
X5900D02*
X6500D01*
X8000D02*
X9100D01*
X10300D02*
X10700D01*
X12500D02*
X12900D01*
X14700D02*
X15100D01*
X16400D02*
X17400D01*
X19000D02*
X19700D01*
X23800D02*
X32600D01*
X-5800Y-13200D02*
X-5400D01*
X-3000D02*
X-2400D01*
X-400D02*
X0D01*
X4600D02*
X5200D01*
X5900D02*
X6500D01*
X19000D02*
X19700D01*
X23800D02*
X32600D01*
X-3000Y-13100D02*
X-2400D01*
X4600D02*
X5200D01*
X5900D02*
X6500D01*
X19000D02*
X19700D01*
X23800D02*
X32600D01*
X-3000Y-13000D02*
X-2400D01*
X4600D02*
X5200D01*
X5900D02*
X6500D01*
X19000D02*
X19700D01*
X23800D02*
X32500D01*
X-3000Y-12900D02*
X-2400D01*
X4600D02*
X5200D01*
X5900D02*
X6500D01*
X19000D02*
X19300D01*
X19400D02*
X19600D01*
X23900D02*
X32500D01*
X-3000Y-12800D02*
X-2400D01*
X4600D02*
X5200D01*
X5900D02*
X6500D01*
X19000D02*
X19200D01*
X23900D02*
X32500D01*
X-3000Y-12700D02*
X-2300D01*
X4600D02*
X5200D01*
X5900D02*
X6500D01*
X23900D02*
X32400D01*
X-3000Y-12600D02*
X-2200D01*
X4600D02*
X5200D01*
X5900D02*
X6500D01*
X19300D02*
X19500D01*
X24000D02*
X32400D01*
X-2900Y-12500D02*
X-2200D01*
X4600D02*
X5200D01*
X5900D02*
X6500D01*
X19200D02*
X19600D01*
X24100D02*
X32300D01*
X-2900Y-12400D02*
X-2200D01*
X4600D02*
X5200D01*
X5900D02*
X6500D01*
X19100D02*
X19700D01*
X24200D02*
X32200D01*
X-2800Y-12300D02*
X-2400D01*
X4600D02*
X5300D01*
X5800D02*
X6500D01*
X19000D02*
X19800D01*
X24300D02*
X32100D01*
X4600Y-12200D02*
X5400D01*
X5700D02*
X6500D01*
X18900D02*
X19900D01*
X24400D02*
X31900D01*
X4600Y-12100D02*
X5400D01*
X5700D02*
X6500D01*
X18800D02*
X20000D01*
X24600D02*
X25600D01*
X25700D02*
X30600D01*
X30800D02*
X31700D01*
X4700Y-12000D02*
X5300D01*
X5800D02*
X6400D01*
X18700D02*
X20100D01*
X25700D02*
X30700D01*
X4800Y-11900D02*
X5200D01*
X5800D02*
X6300D01*
X18600D02*
X20200D01*
X25700D02*
X30700D01*
X18600Y-11800D02*
X20200D01*
X25600D02*
X30700D01*
X18600Y-11700D02*
X20200D01*
X25600D02*
X30800D01*
X18600Y-11600D02*
X20200D01*
X25600D02*
X30800D01*
X18700Y-11500D02*
X20100D01*
X25600D02*
X30800D01*
X18700Y-11400D02*
X19300D01*
X19400D02*
X20000D01*
X25600D02*
X30800D01*
X25600Y-11300D02*
X30700D01*
X25600Y-11200D02*
X30700D01*
X25700Y-11100D02*
X30700D01*
X25700Y-11000D02*
X30700D01*
X25800Y-10900D02*
X28100D01*
X28300D02*
X30600D01*
X25800Y-10800D02*
X28100D01*
X28300D02*
X30600D01*
X25900Y-10700D02*
X28000D01*
X28400D02*
X30500D01*
X26000Y-10600D02*
X27900D01*
X28500D02*
X30400D01*
X26100Y-10500D02*
X27800D01*
X28600D02*
X30300D01*
X26200Y-10400D02*
X27600D01*
X28700D02*
X30200D01*
X26400Y-10300D02*
X27500D01*
X28900D02*
X30000D01*
X26700Y-10200D02*
X27100D01*
X29200D02*
X29600D01*
M02*
