G04 Layer_Physical_Order=2*
G04 Layer_Color=36540*
%FSLAX25Y25*%
%MOIN*%
G70*
G01*
G75*
%ADD42C,0.00500*%
%ADD43C,0.00700*%
%ADD44C,0.00600*%
%ADD45C,0.00800*%
%ADD47C,0.00300*%
%ADD52C,0.01800*%
%ADD53C,0.01300*%
%ADD54C,0.01000*%
G36*
X4074Y46564D02*
X8117Y46032D01*
X12098Y45149D01*
X15987Y43923D01*
X18270Y42977D01*
X18652Y42705D01*
X18550Y42371D01*
Y41450D01*
X19423D01*
X19383Y41649D01*
X19129Y42029D01*
X18975Y42132D01*
X18975Y42132D01*
X18929Y42163D01*
X18929Y42163D01*
X18929Y42164D01*
X18931Y42168D01*
X18932Y42169D01*
X19116Y42513D01*
X19578Y42435D01*
X19754Y42362D01*
X23371Y40479D01*
X26810Y38289D01*
X30045Y35806D01*
X33051Y33051D01*
X35806Y30045D01*
X38289Y26810D01*
X40479Y23371D01*
X40538Y23258D01*
X40154Y22913D01*
X39846Y23119D01*
X39550Y23178D01*
Y21800D01*
Y20422D01*
X39846Y20481D01*
X40309Y20791D01*
X40619Y21254D01*
X40727Y21800D01*
X40724Y21819D01*
X41200Y21987D01*
X42301Y19873D01*
X43963Y15859D01*
X45149Y12098D01*
X45417Y10890D01*
X45104Y10500D01*
X33789Y10500D01*
Y-9185D01*
X45283Y-9185D01*
X45692Y-9647D01*
X45177Y-11972D01*
X45098Y-12005D01*
X44536Y-11738D01*
X44519Y-11654D01*
X44209Y-11191D01*
X43746Y-10881D01*
X43450Y-10822D01*
Y-12200D01*
Y-13578D01*
X43746Y-13519D01*
X44209Y-13209D01*
X44332Y-13025D01*
X44788Y-13244D01*
X43923Y-15987D01*
X42362Y-19754D01*
X40479Y-23371D01*
X39804Y-24431D01*
X39332Y-24241D01*
X39340Y-24200D01*
X39177Y-23381D01*
X38713Y-22686D01*
X38019Y-22223D01*
X37200Y-22060D01*
X36381Y-22223D01*
X35686Y-22686D01*
X35223Y-23381D01*
X35060Y-24200D01*
X35223Y-25019D01*
X35686Y-25714D01*
X36381Y-26177D01*
X37200Y-26340D01*
X38019Y-26177D01*
X38158Y-26085D01*
X38523Y-26442D01*
X38289Y-26810D01*
X35806Y-30045D01*
X33051Y-33051D01*
X30045Y-35806D01*
X26810Y-38289D01*
X23371Y-40479D01*
X19754Y-42362D01*
X16158Y-43852D01*
X15905Y-43415D01*
X16107Y-43261D01*
X16542Y-42694D01*
X16815Y-42035D01*
X16908Y-41327D01*
Y-38669D01*
X16815Y-37962D01*
X16542Y-37302D01*
X16107Y-36735D01*
X15541Y-36301D01*
X14881Y-36028D01*
X14173Y-35934D01*
X13465Y-36028D01*
X12806Y-36301D01*
X12239Y-36735D01*
X11805Y-37302D01*
X11532Y-37962D01*
X11438Y-38669D01*
Y-41327D01*
X11532Y-42035D01*
X11805Y-42694D01*
X12239Y-43261D01*
X12806Y-43695D01*
X13465Y-43968D01*
X13969Y-44035D01*
X14014Y-44545D01*
X12098Y-45149D01*
X8117Y-46032D01*
X4074Y-46564D01*
X0Y-46742D01*
X-4074Y-46564D01*
X-8117Y-46032D01*
X-12098Y-45149D01*
X-14009Y-44546D01*
X-13965Y-44036D01*
X-13465Y-43970D01*
X-12806Y-43697D01*
X-12239Y-43262D01*
X-11805Y-42696D01*
X-11532Y-42037D01*
X-11438Y-41329D01*
Y-38671D01*
X-11532Y-37963D01*
X-11805Y-37304D01*
X-12239Y-36737D01*
X-12806Y-36303D01*
X-13465Y-36030D01*
X-14173Y-35936D01*
X-14881Y-36030D01*
X-15541Y-36303D01*
X-16107Y-36737D01*
X-16542Y-37304D01*
X-16815Y-37963D01*
X-16908Y-38671D01*
Y-41329D01*
X-16815Y-42037D01*
X-16542Y-42696D01*
X-16107Y-43262D01*
X-15911Y-43413D01*
X-16163Y-43850D01*
X-19754Y-42362D01*
X-23371Y-40479D01*
X-26810Y-38289D01*
X-30045Y-35806D01*
X-33051Y-33051D01*
X-35806Y-30045D01*
X-38289Y-26810D01*
X-40479Y-23371D01*
X-42362Y-19754D01*
X-43923Y-15987D01*
X-45149Y-12098D01*
X-46032Y-8117D01*
X-46455Y-4900D01*
X-45987Y-4628D01*
X-45906Y-4662D01*
X-41181D01*
X-40951Y-4567D01*
X-40856Y-4337D01*
Y597D01*
X-40760Y675D01*
X-40185Y715D01*
X-39871Y505D01*
X-39500Y431D01*
X-39129Y505D01*
X-38815Y715D01*
X-38605Y1029D01*
X-38531Y1400D01*
X-38605Y1771D01*
X-38815Y2085D01*
X-38851Y2109D01*
Y7812D01*
X-38705Y8029D01*
X-38631Y8400D01*
X-38705Y8771D01*
X-38915Y9085D01*
X-39229Y9295D01*
X-39600Y9369D01*
X-39971Y9295D01*
X-40285Y9085D01*
X-40495Y8771D01*
X-40569Y8400D01*
X-40495Y8029D01*
X-40285Y7715D01*
X-40149Y7625D01*
Y2275D01*
X-40435Y2102D01*
X-40760Y2125D01*
X-40856Y2203D01*
Y3537D01*
X-40951Y3767D01*
X-41181Y3862D01*
X-45906D01*
X-46076Y3791D01*
X-46568Y3987D01*
X-46568Y3987D01*
X-46564Y4074D01*
X-46032Y8117D01*
X-45149Y12098D01*
X-45044Y12432D01*
X-44994Y12590D01*
X-44790Y12689D01*
X-44524Y12300D01*
Y12300D01*
Y12300D01*
X-44524D01*
D01*
X-44430Y11832D01*
X-44165Y11435D01*
X-43768Y11170D01*
X-43300Y11077D01*
X-42832Y11170D01*
X-42435Y11435D01*
X-42170Y11832D01*
X-42077Y12300D01*
X-42170Y12768D01*
X-42435Y13165D01*
X-42832Y13430D01*
X-43300Y13523D01*
X-43768Y13430D01*
X-44165Y13165D01*
X-44172Y13155D01*
X-44519Y13117D01*
X-44754Y13184D01*
X-44773Y13218D01*
Y13218D01*
X-44787Y13246D01*
X-43923Y15987D01*
X-42362Y19754D01*
X-40479Y23371D01*
X-38289Y26810D01*
X-36430Y29232D01*
X-35855Y29160D01*
X-35729Y28971D01*
X-35349Y28717D01*
X-35150Y28677D01*
Y29800D01*
X-34900D01*
Y30050D01*
X-33777D01*
X-33817Y30249D01*
X-34071Y30629D01*
X-34395Y30845D01*
X-34470Y30979D01*
X-34552Y31413D01*
X-33051Y33051D01*
X-30045Y35806D01*
X-26810Y38289D01*
X-23371Y40479D01*
X-19754Y42362D01*
X-15987Y43923D01*
X-12098Y45149D01*
X-8117Y46032D01*
X-4074Y46564D01*
X0Y46742D01*
X4074Y46564D01*
D02*
G37*
%LPC*%
G36*
X18050Y42323D02*
X17851Y42283D01*
X17471Y42029D01*
X17217Y41649D01*
X17177Y41450D01*
X18050D01*
Y42323D01*
D02*
G37*
G36*
X-50Y41823D02*
Y40950D01*
X823D01*
X783Y41149D01*
X529Y41529D01*
X149Y41783D01*
X-50Y41823D01*
D02*
G37*
G36*
X-550D02*
X-749Y41783D01*
X-1129Y41529D01*
X-1383Y41149D01*
X-1423Y40950D01*
X-550D01*
Y41823D01*
D02*
G37*
G36*
X19423Y40950D02*
X18550D01*
Y40077D01*
X18749Y40117D01*
X19129Y40371D01*
X19383Y40751D01*
X19423Y40950D01*
D02*
G37*
G36*
X18050D02*
X17177D01*
X17217Y40751D01*
X17471Y40371D01*
X17851Y40117D01*
X18050Y40077D01*
Y40950D01*
D02*
G37*
G36*
X823Y40450D02*
X-50D01*
Y39577D01*
X149Y39617D01*
X529Y39871D01*
X783Y40251D01*
X823Y40450D01*
D02*
G37*
G36*
X-550D02*
X-1423D01*
X-1383Y40251D01*
X-1129Y39871D01*
X-749Y39617D01*
X-550Y39577D01*
Y40450D01*
D02*
G37*
G36*
X-12168Y41237D02*
X-12539Y41163D01*
X-12853Y40953D01*
X-12913Y40864D01*
X-13668D01*
X-14089Y40690D01*
X-14264Y40268D01*
Y32478D01*
X-15521Y31221D01*
X-15695Y30800D01*
Y30649D01*
X-15854Y30412D01*
X-15916Y30100D01*
X-15854Y29788D01*
X-16126Y29295D01*
X-29200D01*
X-29410Y29208D01*
X-29621Y29121D01*
X-36921Y21821D01*
X-37095Y21400D01*
Y20063D01*
X-37098Y20061D01*
X-37275Y19796D01*
X-37337Y19484D01*
X-37275Y19172D01*
X-37098Y18907D01*
X-36833Y18731D01*
X-36521Y18669D01*
X-36209Y18731D01*
X-35945Y18907D01*
X-35805Y19116D01*
X-35537Y19146D01*
X-35269Y19116D01*
X-35129Y18907D01*
X-34865Y18731D01*
X-34553Y18669D01*
X-34241Y18731D01*
X-33976Y18907D01*
X-33836Y19116D01*
X-33569Y19146D01*
X-33305Y19117D01*
X-33298Y19113D01*
X-33161Y18907D01*
X-32896Y18731D01*
X-32584Y18669D01*
X-32576Y18639D01*
X-32454Y18188D01*
X-32454Y18188D01*
X-32454Y18188D01*
X-32277Y17923D01*
X-32147Y17837D01*
X-32012Y17746D01*
X-31900Y17724D01*
X-31710Y17640D01*
X-31384Y17276D01*
D01*
X-31369Y17204D01*
X-31193Y16939D01*
X-31192Y16939D01*
X-31116Y16888D01*
X-30984Y16800D01*
X-30954Y16532D01*
X-30984Y16263D01*
X-31192Y16124D01*
X-31330Y15918D01*
X-31337Y15915D01*
X-31600Y15885D01*
X-31868Y15915D01*
X-32008Y16124D01*
X-32272Y16301D01*
X-32584Y16363D01*
X-32896Y16301D01*
X-33161Y16124D01*
X-33301Y15915D01*
X-33569Y15885D01*
X-33836Y15915D01*
X-33976Y16124D01*
X-34241Y16301D01*
X-34553Y16363D01*
X-34865Y16301D01*
X-35129Y16124D01*
X-35306Y15859D01*
X-35368Y15547D01*
X-35306Y15235D01*
X-35202Y15079D01*
Y9903D01*
X-35150Y9777D01*
X-35166Y9700D01*
X-35104Y9388D01*
X-34927Y9123D01*
X-34662Y8946D01*
X-34350Y8884D01*
X-34038Y8946D01*
X-33773Y9123D01*
X-33577D01*
X-33312Y8946D01*
X-33000Y8884D01*
X-32688Y8946D01*
X-32669Y8959D01*
X-32300Y9082D01*
X-31931Y8959D01*
X-31912Y8946D01*
X-31808Y8926D01*
X-31617Y8410D01*
X-31959Y8067D01*
X-32149Y7608D01*
Y3368D01*
X-32254Y3212D01*
X-32316Y2900D01*
X-32254Y2588D01*
X-32077Y2323D01*
X-31812Y2146D01*
X-31500Y2084D01*
X-31199Y2144D01*
X-31161Y2117D01*
X-30846Y1774D01*
X-30954Y1612D01*
X-31016Y1300D01*
X-30954Y988D01*
X-30777Y723D01*
X-30512Y546D01*
X-30233Y491D01*
X-27446Y-2296D01*
X-27025Y-2470D01*
X-21724D01*
X-21487Y-2628D01*
X-21175Y-2691D01*
X-20863Y-2628D01*
X-20598Y-2452D01*
X-20421Y-2187D01*
X-20359Y-1875D01*
X-20421Y-1563D01*
X-20485Y-1467D01*
X-20350Y-1125D01*
X-20008Y-990D01*
X-19912Y-1054D01*
X-19633Y-1109D01*
X-18615Y-2127D01*
X-18651Y-2713D01*
X-18662Y-2733D01*
X-18710Y-2765D01*
X-18920Y-3079D01*
X-18994Y-3450D01*
X-18920Y-3820D01*
X-18710Y-4135D01*
X-18396Y-4344D01*
X-18025Y-4418D01*
X-17654Y-4344D01*
X-17383Y-4163D01*
X-8646D01*
X-5759Y-7051D01*
X-5695Y-7371D01*
X-5485Y-7685D01*
X-5171Y-7895D01*
X-4800Y-7969D01*
X-4429Y-7895D01*
X-4115Y-7685D01*
X-3905Y-7371D01*
X-3831Y-7000D01*
X-3905Y-6629D01*
X-4115Y-6315D01*
X-4429Y-6105D01*
X-4749Y-6041D01*
X-7846Y-2945D01*
X-8077Y-2790D01*
X-8350Y-2736D01*
X-13795D01*
X-14062Y-2236D01*
X-14046Y-2212D01*
X-13984Y-1900D01*
X-14046Y-1588D01*
X-14175Y-1395D01*
X-14093Y-1109D01*
X-13964Y-895D01*
X-10749D01*
X-10512Y-1054D01*
X-10200Y-1116D01*
X-9888Y-1054D01*
X-9623Y-877D01*
X-9446Y-612D01*
X-9384Y-300D01*
X-9446Y12D01*
X-9623Y277D01*
X-9888Y454D01*
X-10200Y516D01*
X-10512Y454D01*
X-10749Y295D01*
X-12429D01*
X-12479Y795D01*
X-12429Y805D01*
X-12115Y1015D01*
X-11905Y1329D01*
X-11831Y1700D01*
X-11905Y2071D01*
X-12115Y2385D01*
X-12429Y2595D01*
X-12800Y2669D01*
X-13171Y2595D01*
X-13485Y2385D01*
X-13695Y2071D01*
X-13769Y1700D01*
X-13695Y1329D01*
X-13485Y1015D01*
X-13171Y805D01*
X-13121Y795D01*
X-13171Y295D01*
X-17476D01*
X-17713Y454D01*
X-18025Y516D01*
X-18337Y454D01*
X-18602Y277D01*
X-19023D01*
X-19288Y454D01*
X-19600Y516D01*
X-19912Y454D01*
X-20177Y277D01*
X-20598D01*
X-20863Y454D01*
X-21175Y516D01*
X-21487Y454D01*
X-21724Y295D01*
X-22053D01*
X-23991Y2233D01*
X-24046Y2512D01*
X-24223Y2777D01*
X-24488Y2954D01*
X-24800Y3016D01*
X-25112Y2954D01*
X-25377Y2777D01*
X-25554Y2512D01*
X-25616Y2200D01*
X-25554Y1888D01*
X-25377Y1623D01*
X-25112Y1446D01*
X-24833Y1391D01*
X-22721Y-721D01*
X-22598Y-772D01*
X-22580Y-779D01*
X-22679Y-1280D01*
X-26779D01*
X-29391Y1333D01*
X-29446Y1612D01*
X-29466Y1641D01*
X-29478Y1929D01*
X-29100Y2323D01*
X-28677D01*
X-28412Y2146D01*
X-28100Y2084D01*
X-27788Y2146D01*
X-27523Y2323D01*
X-27346Y2588D01*
X-27284Y2900D01*
X-27346Y3212D01*
X-27451Y3368D01*
Y5931D01*
X-26741Y6641D01*
X-26551Y7100D01*
Y8122D01*
X-26442Y8284D01*
X-26380Y8596D01*
X-26442Y8908D01*
X-26619Y9173D01*
X-26884Y9349D01*
X-27196Y9411D01*
X-27582Y9798D01*
X-27644Y10110D01*
X-27821Y10375D01*
X-28086Y10552D01*
X-28398Y10614D01*
X-28789Y10996D01*
X-28851Y11308D01*
X-29027Y11573D01*
X-29292Y11749D01*
X-29604Y11812D01*
X-29916Y11749D01*
X-30181Y11573D01*
X-30358Y11308D01*
X-30420Y10996D01*
X-30358Y10684D01*
X-30254Y10528D01*
Y10229D01*
X-30378Y10143D01*
X-30423Y10130D01*
X-30624Y10145D01*
X-30951Y10353D01*
Y12031D01*
X-30741Y12241D01*
X-30551Y12700D01*
Y13933D01*
X-30051Y14140D01*
X-26790Y10879D01*
X-26666Y10828D01*
X-26368Y10705D01*
X-20100D01*
X-19679Y10879D01*
X-9553Y21005D01*
X-7749D01*
X-7512Y20846D01*
X-7200Y20784D01*
X-6888Y20846D01*
X-6623Y21023D01*
X-6446Y21288D01*
X-6384Y21600D01*
X-6425Y21805D01*
X-6231Y22162D01*
X-6107Y22305D01*
X-5149D01*
X-4728Y22479D01*
X-2257Y24950D01*
X-1818Y24682D01*
X-1819Y24675D01*
X-850D01*
Y24425D01*
X-600D01*
Y23455D01*
X-459Y23483D01*
X-129Y23704D01*
X92Y24035D01*
X170Y24425D01*
X168Y24433D01*
X475Y24736D01*
Y26000D01*
X725D01*
Y26250D01*
X1848D01*
X1808Y26449D01*
X1554Y26829D01*
X1174Y27083D01*
X725Y27172D01*
X659Y27159D01*
X413Y27620D01*
X1847Y29054D01*
X12349D01*
X12770Y29228D01*
X13847Y30305D01*
X14353D01*
X14879Y29779D01*
X15089Y29692D01*
X15300Y29605D01*
X19155D01*
X19215Y29515D01*
X19529Y29305D01*
X19900Y29231D01*
X20271Y29305D01*
X20585Y29515D01*
X20795Y29829D01*
X20869Y30200D01*
X20795Y30571D01*
X20726Y30674D01*
X20592Y30920D01*
X20687Y31418D01*
X20695Y31429D01*
X20769Y31800D01*
X20695Y32171D01*
X20607Y32302D01*
X20585Y32815D01*
X20795Y33129D01*
X20869Y33500D01*
X20795Y33871D01*
X20585Y34185D01*
X20271Y34395D01*
X19900Y34469D01*
X19529Y34395D01*
X19215Y34185D01*
X19155Y34095D01*
X15300D01*
X15002Y33972D01*
X14879Y33921D01*
X14253Y33295D01*
X4186D01*
X3888Y33172D01*
X3765Y33121D01*
X3480Y32836D01*
X2877Y32876D01*
X2612Y33053D01*
X2300Y33115D01*
X1988Y33053D01*
X1723Y32876D01*
X1302D01*
X1037Y33053D01*
X725Y33115D01*
X413Y33053D01*
X148Y32876D01*
X-28Y32611D01*
X-91Y32299D01*
X-28Y31987D01*
X-78Y31824D01*
X-224Y31763D01*
X-254Y31691D01*
X-1119Y30826D01*
X-1662Y30990D01*
X-1671Y31036D01*
X-1848Y31301D01*
X-2112Y31478D01*
X-2424Y31540D01*
X-2737Y31478D01*
X-3001Y31301D01*
X-3422D01*
X-3687Y31478D01*
X-3999Y31540D01*
X-4311Y31478D01*
X-4548Y31320D01*
X-10876D01*
X-11173Y31196D01*
X-11297Y31145D01*
X-11646Y30796D01*
X-12208Y30941D01*
X-12233Y31025D01*
X-9953Y33305D01*
X-8231D01*
X-7810Y33479D01*
X-7636Y33900D01*
Y36331D01*
X-7759Y36629D01*
X-7810Y36752D01*
X-9252Y38194D01*
X-9231Y38300D01*
X-9305Y38671D01*
X-9515Y38985D01*
X-9829Y39195D01*
X-10200Y39268D01*
X-10571Y39195D01*
X-10885Y38985D01*
X-11095Y38671D01*
X-11169Y38300D01*
X-11095Y37929D01*
X-10885Y37615D01*
X-10571Y37405D01*
X-10200Y37331D01*
X-10094Y37352D01*
X-8827Y36085D01*
Y34495D01*
X-10200D01*
X-10498Y34372D01*
X-10621Y34321D01*
X-11073Y33869D01*
X-11573Y34076D01*
Y35587D01*
X-11484Y35647D01*
X-11274Y35961D01*
X-11200Y36331D01*
X-11274Y36702D01*
X-11484Y37016D01*
X-11798Y37226D01*
X-12168Y37300D01*
X-12539Y37226D01*
X-12573Y37204D01*
X-13073Y37471D01*
Y39129D01*
X-12573Y39396D01*
X-12539Y39374D01*
X-12168Y39300D01*
X-11798Y39374D01*
X-11484Y39584D01*
X-11274Y39898D01*
X-11200Y40268D01*
X-11274Y40639D01*
X-11484Y40953D01*
X-11798Y41163D01*
X-12168Y41237D01*
D02*
G37*
G36*
X7900Y38869D02*
X7529Y38795D01*
X7215Y38585D01*
X7005Y38271D01*
X6931Y37900D01*
X7005Y37529D01*
X7215Y37215D01*
X7529Y37005D01*
X7900Y36931D01*
X8271Y37005D01*
X8585Y37215D01*
X8795Y37529D01*
X8869Y37900D01*
X8795Y38271D01*
X8585Y38585D01*
X8271Y38795D01*
X7900Y38869D01*
D02*
G37*
G36*
X12300Y36969D02*
X11929Y36895D01*
X11615Y36685D01*
X11405Y36371D01*
X11331Y36000D01*
X11405Y35629D01*
X11615Y35315D01*
X11929Y35105D01*
X12300Y35031D01*
X12671Y35105D01*
X12985Y35315D01*
X13195Y35629D01*
X13269Y36000D01*
X13195Y36371D01*
X12985Y36685D01*
X12671Y36895D01*
X12300Y36969D01*
D02*
G37*
G36*
X24100Y38440D02*
X23281Y38277D01*
X22587Y37813D01*
X22123Y37119D01*
X21960Y36300D01*
X22123Y35481D01*
X22587Y34786D01*
X23281Y34323D01*
X24100Y34160D01*
X24919Y34323D01*
X25613Y34786D01*
X26077Y35481D01*
X26240Y36300D01*
X26077Y37119D01*
X25613Y37813D01*
X24919Y38277D01*
X24100Y38440D01*
D02*
G37*
G36*
X-22050Y34723D02*
Y33850D01*
X-21177D01*
X-21217Y34049D01*
X-21471Y34429D01*
X-21851Y34683D01*
X-22050Y34723D01*
D02*
G37*
G36*
X-22550D02*
X-22749Y34683D01*
X-23129Y34429D01*
X-23383Y34049D01*
X-23423Y33850D01*
X-22550D01*
Y34723D01*
D02*
G37*
G36*
X-21177Y33350D02*
X-22050D01*
Y32477D01*
X-21851Y32517D01*
X-21471Y32771D01*
X-21217Y33151D01*
X-21177Y33350D01*
D02*
G37*
G36*
X-22550D02*
X-23423D01*
X-23383Y33151D01*
X-23129Y32771D01*
X-22749Y32517D01*
X-22550Y32477D01*
Y33350D01*
D02*
G37*
G36*
X-33777Y29550D02*
X-34650D01*
Y28677D01*
X-34451Y28717D01*
X-34071Y28971D01*
X-33817Y29351D01*
X-33777Y29550D01*
D02*
G37*
G36*
X15600Y28769D02*
X15229Y28695D01*
X14915Y28485D01*
X14705Y28171D01*
X14631Y27800D01*
X14705Y27429D01*
X14915Y27115D01*
X15229Y26905D01*
X15600Y26831D01*
X15971Y26905D01*
X16285Y27115D01*
X16495Y27429D01*
X16569Y27800D01*
X16495Y28171D01*
X16285Y28485D01*
X15971Y28695D01*
X15600Y28769D01*
D02*
G37*
G36*
X-36100Y27869D02*
X-36471Y27795D01*
X-36785Y27585D01*
X-36995Y27271D01*
X-37069Y26900D01*
X-36995Y26529D01*
X-36785Y26215D01*
X-36471Y26005D01*
X-36100Y25931D01*
X-35729Y26005D01*
X-35415Y26215D01*
X-35205Y26529D01*
X-35131Y26900D01*
X-35205Y27271D01*
X-35415Y27585D01*
X-35729Y27795D01*
X-36100Y27869D01*
D02*
G37*
G36*
X1848Y25750D02*
X975D01*
Y24877D01*
X1174Y24917D01*
X1554Y25171D01*
X1808Y25551D01*
X1848Y25750D01*
D02*
G37*
G36*
X-1100Y24175D02*
X-1819D01*
X-1792Y24035D01*
X-1571Y23704D01*
X-1240Y23483D01*
X-1100Y23455D01*
Y24175D01*
D02*
G37*
G36*
X39050Y23178D02*
X38754Y23119D01*
X38291Y22809D01*
X37981Y22346D01*
X37922Y22050D01*
X39050D01*
Y23178D01*
D02*
G37*
G36*
X-850Y22091D02*
X-1162Y22029D01*
X-1426Y21852D01*
X-1848D01*
X-2112Y22029D01*
X-2424Y22091D01*
X-2737Y22029D01*
X-3001Y21852D01*
X-3178Y21588D01*
X-3240Y21276D01*
X-3178Y20964D01*
X-3001Y20699D01*
X-2737Y20522D01*
X-2424Y20460D01*
X-2112Y20522D01*
X-2043Y20568D01*
X-1680Y20445D01*
X-1557Y20082D01*
X-1603Y20013D01*
X-1665Y19701D01*
X-1603Y19389D01*
X-1426Y19124D01*
X-1162Y18947D01*
X-850Y18885D01*
X-395Y18487D01*
Y16997D01*
X-882Y16509D01*
X-1162Y16454D01*
X-1426Y16277D01*
X-1603Y16012D01*
X-1665Y15700D01*
X-1603Y15388D01*
X-1426Y15123D01*
X-1162Y14946D01*
X-850Y14884D01*
X-538Y14946D01*
X-273Y15123D01*
X-96Y15388D01*
X-40Y15667D01*
X621Y16329D01*
X672Y16452D01*
X796Y16750D01*
Y20136D01*
X672Y20434D01*
X621Y20557D01*
X-45Y21223D01*
X-34Y21276D01*
X-96Y21588D01*
X-273Y21852D01*
X-538Y22029D01*
X-850Y22091D01*
D02*
G37*
G36*
X39050Y21550D02*
X37922D01*
X37981Y21254D01*
X38291Y20791D01*
X38754Y20481D01*
X39050Y20422D01*
Y21550D01*
D02*
G37*
G36*
X5799Y20188D02*
X5450D01*
X5105Y20045D01*
X4963Y19701D01*
X5094Y19384D01*
X5105Y19356D01*
X5105Y19356D01*
X5256Y19206D01*
X5372Y19158D01*
X5483Y19112D01*
X5483D01*
X5483Y19112D01*
X5483D01*
X5600Y19063D01*
X5944Y19206D01*
X5978Y19288D01*
X6026Y19308D01*
X6026Y19308D01*
X6026D01*
X6144Y19356D01*
X6286Y19701D01*
X6144Y20045D01*
X6026Y20094D01*
D01*
X5799Y20188D01*
D02*
G37*
G36*
X15450Y20123D02*
Y19250D01*
X16323D01*
X16283Y19449D01*
X16029Y19829D01*
X15649Y20083D01*
X15450Y20123D01*
D02*
G37*
G36*
X14950D02*
X14751Y20083D01*
X14371Y19829D01*
X14117Y19449D01*
X14077Y19250D01*
X14950D01*
Y20123D01*
D02*
G37*
G36*
X16323Y18750D02*
X15450D01*
Y17877D01*
X15649Y17917D01*
X16029Y18171D01*
X16283Y18551D01*
X16323Y18750D01*
D02*
G37*
G36*
X14950D02*
X14077D01*
X14117Y18551D01*
X14371Y18171D01*
X14751Y17917D01*
X14950Y17877D01*
Y18750D01*
D02*
G37*
G36*
X-40434Y18893D02*
Y17766D01*
X-39307D01*
X-39366Y18062D01*
X-39675Y18525D01*
X-40138Y18835D01*
X-40434Y18893D01*
D02*
G37*
G36*
X-40934D02*
X-41230Y18835D01*
X-41694Y18525D01*
X-42003Y18062D01*
X-42062Y17766D01*
X-40934D01*
Y18893D01*
D02*
G37*
G36*
X-8400Y19369D02*
X-8771Y19295D01*
X-9085Y19085D01*
X-9295Y18771D01*
X-9369Y18400D01*
X-9295Y18029D01*
X-9085Y17715D01*
X-8771Y17505D01*
X-8400Y17431D01*
X-8029Y17505D01*
X-7715Y17715D01*
X-7505Y18029D01*
X-7431Y18400D01*
X-7505Y18771D01*
X-7715Y19085D01*
X-8029Y19295D01*
X-8400Y19369D01*
D02*
G37*
G36*
X-39307Y17266D02*
X-40434D01*
Y16138D01*
X-40138Y16197D01*
X-39675Y16506D01*
X-39366Y16970D01*
X-39307Y17266D01*
D02*
G37*
G36*
X-40934D02*
X-42062D01*
X-42003Y16970D01*
X-41694Y16506D01*
X-41230Y16197D01*
X-40934Y16138D01*
Y17266D01*
D02*
G37*
G36*
X-4202Y17071D02*
X-4573Y16997D01*
X-4887Y16787D01*
X-5097Y16473D01*
X-5171Y16102D01*
X-5097Y15732D01*
X-4887Y15417D01*
X-4573Y15207D01*
X-4202Y15134D01*
X-3832Y15207D01*
X-3517Y15417D01*
X-3308Y15732D01*
X-3234Y16102D01*
X-3308Y16473D01*
X-3517Y16787D01*
X-3832Y16997D01*
X-4202Y17071D01*
D02*
G37*
G36*
X15200Y16969D02*
X14829Y16895D01*
X14515Y16685D01*
X14305Y16371D01*
X14231Y16000D01*
X14305Y15629D01*
X14515Y15315D01*
X14829Y15105D01*
X15200Y15031D01*
X15571Y15105D01*
X15885Y15315D01*
X16095Y15629D01*
X16169Y16000D01*
X16095Y16371D01*
X15885Y16685D01*
X15571Y16895D01*
X15200Y16969D01*
D02*
G37*
G36*
X22850Y15878D02*
Y14750D01*
X23978D01*
X23919Y15046D01*
X23609Y15509D01*
X23146Y15819D01*
X22850Y15878D01*
D02*
G37*
G36*
X22350D02*
X22054Y15819D01*
X21591Y15509D01*
X21281Y15046D01*
X21222Y14750D01*
X22350D01*
Y15878D01*
D02*
G37*
G36*
X23978Y14250D02*
X22850D01*
Y13122D01*
X23146Y13181D01*
X23609Y13491D01*
X23919Y13954D01*
X23978Y14250D01*
D02*
G37*
G36*
X22350D02*
X21222D01*
X21281Y13954D01*
X21591Y13491D01*
X22054Y13181D01*
X22350Y13122D01*
Y14250D01*
D02*
G37*
G36*
X-36521Y14394D02*
X-36833Y14332D01*
X-37098Y14155D01*
X-37275Y13891D01*
X-37337Y13579D01*
X-37275Y13267D01*
X-37098Y13002D01*
X-36833Y12825D01*
X-36521Y12763D01*
X-36209Y12825D01*
X-35945Y13002D01*
X-35768Y13267D01*
X-35706Y13579D01*
X-35768Y13891D01*
X-35945Y14155D01*
X-36209Y14332D01*
X-36521Y14394D01*
D02*
G37*
G36*
X-7548Y13523D02*
Y12650D01*
X-6675D01*
X-6714Y12849D01*
X-6968Y13229D01*
X-7349Y13483D01*
X-7548Y13523D01*
D02*
G37*
G36*
X-8048D02*
X-8246Y13483D01*
X-8627Y13229D01*
X-8881Y12849D01*
X-8920Y12650D01*
X-8048D01*
Y13523D01*
D02*
G37*
G36*
X-6675Y12150D02*
X-7548D01*
Y11277D01*
X-7349Y11317D01*
X-6968Y11571D01*
X-6714Y11951D01*
X-6675Y12150D01*
D02*
G37*
G36*
X-8048D02*
X-8920D01*
X-8881Y11951D01*
X-8627Y11571D01*
X-8246Y11317D01*
X-8048Y11277D01*
Y12150D01*
D02*
G37*
G36*
X30050Y11677D02*
Y10550D01*
X31177D01*
X31119Y10846D01*
X30809Y11309D01*
X30346Y11619D01*
X30050Y11677D01*
D02*
G37*
G36*
X29550D02*
X29254Y11619D01*
X28791Y11309D01*
X28481Y10846D01*
X28422Y10550D01*
X29550D01*
Y11677D01*
D02*
G37*
G36*
X-12400Y10569D02*
X-12771Y10495D01*
X-13085Y10285D01*
X-13100Y10263D01*
X-18552D01*
X-18688Y10354D01*
X-19000Y10416D01*
X-19312Y10354D01*
X-19577Y10177D01*
X-19754Y9912D01*
X-19816Y9600D01*
X-19754Y9288D01*
X-19577Y9023D01*
X-19312Y8846D01*
X-19000Y8784D01*
X-18688Y8846D01*
X-18552Y8937D01*
X-13100D01*
X-13085Y8915D01*
X-12771Y8705D01*
X-12400Y8631D01*
X-12029Y8705D01*
X-11715Y8915D01*
X-11505Y9229D01*
X-11431Y9600D01*
X-11505Y9971D01*
X-11715Y10285D01*
X-12029Y10495D01*
X-12400Y10569D01*
D02*
G37*
G36*
X31177Y10050D02*
X30050D01*
Y8922D01*
X30346Y8981D01*
X30809Y9290D01*
X31119Y9754D01*
X31177Y10050D01*
D02*
G37*
G36*
X29550D02*
X28422D01*
X28481Y9754D01*
X28791Y9290D01*
X29254Y8981D01*
X29550Y8922D01*
Y10050D01*
D02*
G37*
G36*
X2300Y22091D02*
X1988Y22029D01*
X1723Y21852D01*
X1546Y21588D01*
X1484Y21276D01*
X1546Y20964D01*
X1705Y20727D01*
Y15600D01*
X1705Y15600D01*
Y10900D01*
X1879Y10479D01*
X2891Y9467D01*
X2946Y9188D01*
X3123Y8923D01*
X3388Y8746D01*
X3700Y8684D01*
X4012Y8746D01*
X4277Y8923D01*
X4454Y9188D01*
X4516Y9500D01*
X4454Y9812D01*
X4277Y10077D01*
X4012Y10254D01*
X3733Y10309D01*
X2895Y11147D01*
Y15600D01*
X2895Y15600D01*
Y20727D01*
X3054Y20964D01*
X3116Y21276D01*
X3054Y21588D01*
X2877Y21852D01*
X2612Y22029D01*
X2300Y22091D01*
D02*
G37*
G36*
X-18750Y8070D02*
Y7350D01*
X-18030D01*
X-18058Y7490D01*
X-18279Y7821D01*
X-18610Y8042D01*
X-18750Y8070D01*
D02*
G37*
G36*
X-19250D02*
X-19390Y8042D01*
X-19721Y7821D01*
X-19942Y7490D01*
X-19970Y7350D01*
X-19250D01*
Y8070D01*
D02*
G37*
G36*
X-18030Y6850D02*
X-18750D01*
Y6130D01*
X-18610Y6158D01*
X-18279Y6379D01*
X-18058Y6710D01*
X-18030Y6850D01*
D02*
G37*
G36*
X-19250D02*
X-19970D01*
X-19942Y6710D01*
X-19721Y6379D01*
X-19390Y6158D01*
X-19250Y6130D01*
Y6850D01*
D02*
G37*
G36*
X-9250Y6497D02*
Y5369D01*
X-8122D01*
X-8181Y5665D01*
X-8491Y6128D01*
X-8954Y6438D01*
X-9250Y6497D01*
D02*
G37*
G36*
X-9750D02*
X-10046Y6438D01*
X-10509Y6128D01*
X-10819Y5665D01*
X-10878Y5369D01*
X-9750D01*
Y6497D01*
D02*
G37*
G36*
X-23750Y6278D02*
Y5150D01*
X-22622D01*
X-22681Y5446D01*
X-22991Y5909D01*
X-23454Y6219D01*
X-23750Y6278D01*
D02*
G37*
G36*
X-24250D02*
X-24546Y6219D01*
X-25009Y5909D01*
X-25319Y5446D01*
X-25378Y5150D01*
X-24250D01*
Y6278D01*
D02*
G37*
G36*
X-8122Y4869D02*
X-9250D01*
Y3741D01*
X-8954Y3800D01*
X-8491Y4110D01*
X-8181Y4573D01*
X-8122Y4869D01*
D02*
G37*
G36*
X-9750D02*
X-10878D01*
X-10819Y4573D01*
X-10509Y4110D01*
X-10046Y3800D01*
X-9750Y3741D01*
Y4869D01*
D02*
G37*
G36*
X-22622Y4650D02*
X-23750D01*
Y3522D01*
X-23454Y3581D01*
X-22991Y3891D01*
X-22681Y4354D01*
X-22622Y4650D01*
D02*
G37*
G36*
X-24250D02*
X-25378D01*
X-25319Y4354D01*
X-25009Y3891D01*
X-24546Y3581D01*
X-24250Y3522D01*
Y4650D01*
D02*
G37*
G36*
X24450Y2978D02*
Y1850D01*
X25578D01*
X25519Y2146D01*
X25209Y2609D01*
X24746Y2919D01*
X24450Y2978D01*
D02*
G37*
G36*
X23950D02*
X23654Y2919D01*
X23191Y2609D01*
X22881Y2146D01*
X22822Y1850D01*
X23950D01*
Y2978D01*
D02*
G37*
G36*
X25578Y1350D02*
X24450D01*
Y222D01*
X24746Y281D01*
X25209Y591D01*
X25519Y1054D01*
X25578Y1350D01*
D02*
G37*
G36*
X23950D02*
X22822D01*
X22881Y1054D01*
X23191Y591D01*
X23654Y281D01*
X23950Y222D01*
Y1350D01*
D02*
G37*
G36*
X5100Y3516D02*
X4788Y3454D01*
X4523Y3277D01*
X4346Y3012D01*
X4284Y2700D01*
Y2700D01*
X4106Y2327D01*
X3898Y2276D01*
X3788Y2254D01*
X3523Y2077D01*
X3346Y1812D01*
X3284Y1500D01*
X3346Y1188D01*
X3523Y923D01*
X3788Y746D01*
X3972Y710D01*
X5610Y-928D01*
X5646Y-1112D01*
X5823Y-1377D01*
X6088Y-1554D01*
X6400Y-1616D01*
X6712Y-1554D01*
X6977Y-1377D01*
X7154Y-1112D01*
X7216Y-800D01*
X7500Y-516D01*
X7812Y-454D01*
X8077Y-277D01*
X8254Y-12D01*
X8316Y300D01*
X8254Y612D01*
X8077Y877D01*
X7812Y1054D01*
X7628Y1090D01*
X5890Y2828D01*
X5854Y3012D01*
X5677Y3277D01*
X5412Y3454D01*
X5100Y3516D01*
D02*
G37*
G36*
X13950Y-2777D02*
Y-3650D01*
X14823D01*
X14783Y-3451D01*
X14529Y-3071D01*
X14149Y-2817D01*
X13950Y-2777D01*
D02*
G37*
G36*
X13450D02*
X13251Y-2817D01*
X12871Y-3071D01*
X12617Y-3451D01*
X12577Y-3650D01*
X13450D01*
Y-2777D01*
D02*
G37*
G36*
X0Y-767D02*
X-663Y-899D01*
X-1226Y-1274D01*
X-1601Y-1837D01*
X-1733Y-2500D01*
X-1601Y-3163D01*
X-1226Y-3726D01*
X-663Y-4101D01*
X0Y-4233D01*
X663Y-4101D01*
X1226Y-3726D01*
X1601Y-3163D01*
X1733Y-2500D01*
X1601Y-1837D01*
X1226Y-1274D01*
X663Y-899D01*
X0Y-767D01*
D02*
G37*
G36*
X-22500Y-4180D02*
Y-4900D01*
X-21780D01*
X-21808Y-4759D01*
X-22029Y-4429D01*
X-22359Y-4208D01*
X-22500Y-4180D01*
D02*
G37*
G36*
X-23000D02*
X-23140Y-4208D01*
X-23471Y-4429D01*
X-23692Y-4759D01*
X-23720Y-4900D01*
X-23000D01*
Y-4180D01*
D02*
G37*
G36*
X14823Y-4150D02*
X13950D01*
Y-5023D01*
X14149Y-4983D01*
X14529Y-4729D01*
X14783Y-4349D01*
X14823Y-4150D01*
D02*
G37*
G36*
X13450D02*
X12577D01*
X12617Y-4349D01*
X12871Y-4729D01*
X13251Y-4983D01*
X13450Y-5023D01*
Y-4150D01*
D02*
G37*
G36*
X-21780Y-5400D02*
X-22500D01*
Y-6120D01*
X-22359Y-6092D01*
X-22029Y-5871D01*
X-21808Y-5540D01*
X-21780Y-5400D01*
D02*
G37*
G36*
X-23000D02*
X-23720D01*
X-23692Y-5540D01*
X-23471Y-5871D01*
X-23140Y-6092D01*
X-23000Y-6120D01*
Y-5400D01*
D02*
G37*
G36*
X-28100Y-6984D02*
X-28412Y-7046D01*
X-28677Y-7223D01*
X-29223D01*
X-29488Y-7046D01*
X-29800Y-6984D01*
X-30112Y-7046D01*
X-30377Y-7223D01*
X-30923D01*
X-31188Y-7046D01*
X-31500Y-6984D01*
X-31812Y-7046D01*
X-32077Y-7223D01*
X-32254Y-7488D01*
X-32316Y-7800D01*
X-32254Y-8112D01*
X-32141Y-8280D01*
X-32149Y-8300D01*
X-31959Y-8759D01*
X-29290Y-11428D01*
X-29536Y-11889D01*
X-29600Y-11876D01*
X-30068Y-11970D01*
X-30465Y-12235D01*
X-30730Y-12632D01*
X-30823Y-13100D01*
X-30730Y-13568D01*
X-30465Y-13965D01*
X-30068Y-14230D01*
X-29600Y-14323D01*
X-29132Y-14230D01*
X-28735Y-13965D01*
X-28470Y-13568D01*
X-28376Y-13100D01*
X-28389Y-13036D01*
X-27928Y-12790D01*
X-25749Y-14969D01*
Y-31500D01*
X-25559Y-31959D01*
X-21959Y-35559D01*
X-21500Y-35749D01*
X-19109D01*
X-19085Y-35785D01*
X-18771Y-35995D01*
X-18400Y-36069D01*
X-18029Y-35995D01*
X-17715Y-35785D01*
X-17505Y-35471D01*
X-17431Y-35100D01*
X-17505Y-34729D01*
X-17658Y-34501D01*
X-17697Y-34442D01*
X-17697Y-34442D01*
X-17696Y-34444D01*
X-17700Y-34438D01*
X-17713Y-34411D01*
X-17407Y-33870D01*
X-17400Y-33869D01*
X-17352Y-33859D01*
X-17334Y-33856D01*
X-17207Y-33830D01*
X-17029Y-33795D01*
X-16895Y-33705D01*
X-16715Y-33585D01*
X-16556Y-33346D01*
X-16505Y-33271D01*
X-16431Y-32900D01*
X-16431Y-32900D01*
D01*
Y-32900D01*
X-16348Y-32622D01*
X-16129Y-32395D01*
Y-32395D01*
X-16129D01*
X-16129Y-32395D01*
X-15815Y-32185D01*
X-15765Y-32109D01*
X-15605Y-31871D01*
X-15531Y-31500D01*
X-15605Y-31129D01*
X-15815Y-30815D01*
X-16129Y-30605D01*
X-16500Y-30531D01*
X-16871Y-30605D01*
X-17185Y-30815D01*
X-17209Y-30851D01*
X-21331D01*
X-21851Y-30331D01*
Y-25306D01*
X-21351Y-25184D01*
X-21216Y-25385D01*
X-20902Y-25595D01*
X-20532Y-25669D01*
X-20161Y-25595D01*
X-19847Y-25385D01*
X-19637Y-25071D01*
X-19563Y-24700D01*
X-19624Y-24393D01*
X-19508Y-24215D01*
X-19259Y-23994D01*
X-18981Y-24050D01*
X-18610Y-23976D01*
X-18296Y-23766D01*
X-18086Y-23452D01*
X-18012Y-23081D01*
X-18086Y-22710D01*
X-18296Y-22396D01*
X-18610Y-22186D01*
X-18981Y-22113D01*
X-19352Y-22186D01*
X-19666Y-22396D01*
X-19876Y-22710D01*
X-19950Y-23081D01*
X-19889Y-23388D01*
X-20005Y-23566D01*
X-20254Y-23787D01*
X-20532Y-23731D01*
X-20902Y-23805D01*
X-21216Y-24015D01*
X-21351Y-24216D01*
X-21851Y-24094D01*
Y-19675D01*
X-21351Y-19553D01*
X-21216Y-19753D01*
X-20902Y-19963D01*
X-20532Y-20037D01*
X-20161Y-19963D01*
X-19847Y-19753D01*
X-19637Y-19439D01*
X-19563Y-19068D01*
X-19637Y-18698D01*
X-19847Y-18383D01*
X-20161Y-18173D01*
X-20532Y-18100D01*
X-20902Y-18173D01*
X-21216Y-18383D01*
X-21351Y-18584D01*
X-21851Y-18462D01*
Y-14700D01*
X-22041Y-14241D01*
X-27451Y-8831D01*
Y-8268D01*
X-27346Y-8112D01*
X-27284Y-7800D01*
X-27346Y-7488D01*
X-27523Y-7223D01*
X-27788Y-7046D01*
X-28100Y-6984D01*
D02*
G37*
G36*
X-25350Y-6577D02*
Y-7450D01*
X-24477D01*
X-24517Y-7251D01*
X-24771Y-6871D01*
X-25151Y-6617D01*
X-25350Y-6577D01*
D02*
G37*
G36*
X-25850D02*
X-26049Y-6617D01*
X-26429Y-6871D01*
X-26683Y-7251D01*
X-26723Y-7450D01*
X-25850D01*
Y-6577D01*
D02*
G37*
G36*
X-39950Y-7077D02*
Y-7950D01*
X-39077D01*
X-39117Y-7751D01*
X-39371Y-7371D01*
X-39751Y-7117D01*
X-39950Y-7077D01*
D02*
G37*
G36*
X-40450D02*
X-40649Y-7117D01*
X-41029Y-7371D01*
X-41283Y-7751D01*
X-41323Y-7950D01*
X-40450D01*
Y-7077D01*
D02*
G37*
G36*
X-11669Y-7458D02*
Y-8331D01*
X-10796D01*
X-10836Y-8132D01*
X-11090Y-7752D01*
X-11470Y-7498D01*
X-11669Y-7458D01*
D02*
G37*
G36*
X-12169D02*
X-12368Y-7498D01*
X-12748Y-7752D01*
X-13002Y-8132D01*
X-13042Y-8331D01*
X-12169D01*
Y-7458D01*
D02*
G37*
G36*
X-24477Y-7950D02*
X-25350D01*
Y-8823D01*
X-25151Y-8783D01*
X-24771Y-8529D01*
X-24517Y-8149D01*
X-24477Y-7950D01*
D02*
G37*
G36*
X-25850D02*
X-26723D01*
X-26683Y-8149D01*
X-26429Y-8529D01*
X-26049Y-8783D01*
X-25850Y-8823D01*
Y-7950D01*
D02*
G37*
G36*
X-39077Y-8450D02*
X-39950D01*
Y-9323D01*
X-39751Y-9283D01*
X-39371Y-9029D01*
X-39117Y-8649D01*
X-39077Y-8450D01*
D02*
G37*
G36*
X-40450D02*
X-41323D01*
X-41283Y-8649D01*
X-41029Y-9029D01*
X-40649Y-9283D01*
X-40450Y-9323D01*
Y-8450D01*
D02*
G37*
G36*
X-10796Y-8831D02*
X-11669D01*
Y-9704D01*
X-11470Y-9664D01*
X-11090Y-9410D01*
X-10836Y-9030D01*
X-10796Y-8831D01*
D02*
G37*
G36*
X-12169D02*
X-13042D01*
X-13002Y-9030D01*
X-12748Y-9410D01*
X-12368Y-9664D01*
X-12169Y-9704D01*
Y-8831D01*
D02*
G37*
G36*
X-37000Y-7931D02*
X-37371Y-8005D01*
X-37685Y-8215D01*
X-37895Y-8529D01*
X-37969Y-8900D01*
X-37895Y-9271D01*
X-37685Y-9585D01*
X-37371Y-9795D01*
X-37000Y-9869D01*
X-36629Y-9795D01*
X-36315Y-9585D01*
X-36105Y-9271D01*
X-36031Y-8900D01*
X-36105Y-8529D01*
X-36315Y-8215D01*
X-36629Y-8005D01*
X-37000Y-7931D01*
D02*
G37*
G36*
X42950Y-10822D02*
X42654Y-10881D01*
X42191Y-11191D01*
X41881Y-11654D01*
X41822Y-11950D01*
X42950D01*
Y-10822D01*
D02*
G37*
G36*
Y-12450D02*
X41822D01*
X41881Y-12746D01*
X42191Y-13209D01*
X42654Y-13519D01*
X42950Y-13578D01*
Y-12450D01*
D02*
G37*
G36*
X-40700Y-12560D02*
X-41519Y-12723D01*
X-42213Y-13186D01*
X-42677Y-13881D01*
X-42840Y-14700D01*
X-42677Y-15519D01*
X-42213Y-16214D01*
X-41519Y-16677D01*
X-40700Y-16840D01*
X-39881Y-16677D01*
X-39186Y-16214D01*
X-38723Y-15519D01*
X-38560Y-14700D01*
X-38723Y-13881D01*
X-39186Y-13186D01*
X-39881Y-12723D01*
X-40700Y-12560D01*
D02*
G37*
G36*
X8350Y-17522D02*
Y-18650D01*
X9478D01*
X9419Y-18354D01*
X9109Y-17891D01*
X8646Y-17581D01*
X8350Y-17522D01*
D02*
G37*
G36*
X7850D02*
X7554Y-17581D01*
X7091Y-17891D01*
X6781Y-18354D01*
X6722Y-18650D01*
X7850D01*
Y-17522D01*
D02*
G37*
G36*
X-39300Y-18131D02*
X-39671Y-18205D01*
X-39985Y-18415D01*
X-40195Y-18729D01*
X-40269Y-19100D01*
X-40195Y-19471D01*
X-39985Y-19785D01*
X-39671Y-19995D01*
X-39300Y-20069D01*
X-38929Y-19995D01*
X-38615Y-19785D01*
X-38405Y-19471D01*
X-38331Y-19100D01*
X-38405Y-18729D01*
X-38615Y-18415D01*
X-38929Y-18205D01*
X-39300Y-18131D01*
D02*
G37*
G36*
X9478Y-19150D02*
X8350D01*
Y-20278D01*
X8646Y-20219D01*
X9109Y-19909D01*
X9419Y-19446D01*
X9478Y-19150D01*
D02*
G37*
G36*
X7850D02*
X6722D01*
X6781Y-19446D01*
X7091Y-19909D01*
X7554Y-20219D01*
X7850Y-20278D01*
Y-19150D01*
D02*
G37*
G36*
X-8150Y-20077D02*
Y-20950D01*
X-7277D01*
X-7317Y-20751D01*
X-7571Y-20371D01*
X-7951Y-20117D01*
X-8150Y-20077D01*
D02*
G37*
G36*
X-8650D02*
X-8849Y-20117D01*
X-9229Y-20371D01*
X-9483Y-20751D01*
X-9523Y-20950D01*
X-8650D01*
Y-20077D01*
D02*
G37*
G36*
X26250Y-20322D02*
Y-21450D01*
X27378D01*
X27319Y-21154D01*
X27009Y-20691D01*
X26546Y-20381D01*
X26250Y-20322D01*
D02*
G37*
G36*
X25750D02*
X25454Y-20381D01*
X24991Y-20691D01*
X24681Y-21154D01*
X24622Y-21450D01*
X25750D01*
Y-20322D01*
D02*
G37*
G36*
X-7277Y-21450D02*
X-8150D01*
Y-22323D01*
X-7951Y-22283D01*
X-7571Y-22029D01*
X-7317Y-21649D01*
X-7277Y-21450D01*
D02*
G37*
G36*
X-8650D02*
X-9523D01*
X-9483Y-21649D01*
X-9229Y-22029D01*
X-8849Y-22283D01*
X-8650Y-22323D01*
Y-21450D01*
D02*
G37*
G36*
X27378Y-21950D02*
X26250D01*
Y-23078D01*
X26546Y-23019D01*
X27009Y-22709D01*
X27319Y-22246D01*
X27378Y-21950D01*
D02*
G37*
G36*
X25750D02*
X24622D01*
X24681Y-22246D01*
X24991Y-22709D01*
X25454Y-23019D01*
X25750Y-23078D01*
Y-21950D01*
D02*
G37*
G36*
X9843Y-25109D02*
X9122Y-25204D01*
X8450Y-25482D01*
X7874Y-25925D01*
X7431Y-26502D01*
X7153Y-27173D01*
X7058Y-27894D01*
Y-28878D01*
X7153Y-29599D01*
X7431Y-30270D01*
X7874Y-30847D01*
X8450Y-31289D01*
X9122Y-31567D01*
X9843Y-31662D01*
X10563Y-31567D01*
X11235Y-31289D01*
X11811Y-30847D01*
X12254Y-30270D01*
X12532Y-29599D01*
X12627Y-28878D01*
Y-27894D01*
X12532Y-27173D01*
X12254Y-26502D01*
X11811Y-25925D01*
X11235Y-25482D01*
X10563Y-25204D01*
X9843Y-25109D01*
D02*
G37*
G36*
X-9843Y-25306D02*
X-10563Y-25401D01*
X-11235Y-25679D01*
X-11811Y-26122D01*
X-12254Y-26698D01*
X-12532Y-27370D01*
X-12627Y-28091D01*
Y-29075D01*
X-12532Y-29796D01*
X-12254Y-30467D01*
X-11811Y-31044D01*
X-11235Y-31486D01*
X-10563Y-31764D01*
X-9843Y-31859D01*
X-9122Y-31764D01*
X-8450Y-31486D01*
X-7874Y-31044D01*
X-7431Y-30467D01*
X-7153Y-29796D01*
X-7058Y-29075D01*
Y-28091D01*
X-7153Y-27370D01*
X-7431Y-26698D01*
X-7874Y-26122D01*
X-8450Y-25679D01*
X-9122Y-25401D01*
X-9843Y-25306D01*
D02*
G37*
%LPD*%
G36*
X-10595Y29939D02*
X-10510Y29809D01*
X-10403Y29398D01*
X-10542Y29190D01*
X-10570Y29050D01*
X-9600D01*
Y28800D01*
X-9350D01*
Y27830D01*
X-9332Y27834D01*
X-9035Y27684D01*
X-8848Y27498D01*
X-8795Y27229D01*
X-8585Y26915D01*
X-8271Y26705D01*
X-8096Y26670D01*
X-7851Y26487D01*
X-7738Y26154D01*
X-7769Y26000D01*
X-7728Y25795D01*
X-7976Y25381D01*
X-8073Y25295D01*
X-13200D01*
X-13621Y25121D01*
X-19224Y19518D01*
X-19677Y19772D01*
X-19631Y20000D01*
X-19705Y20371D01*
X-19915Y20685D01*
X-20229Y20895D01*
X-20600Y20969D01*
X-20971Y20895D01*
X-21285Y20685D01*
X-21345Y20595D01*
X-22300D01*
X-22305Y20593D01*
X-22805Y20928D01*
Y22053D01*
X-22253Y22605D01*
X-21345D01*
X-21285Y22515D01*
X-20971Y22305D01*
X-20600Y22231D01*
X-20229Y22305D01*
X-19915Y22515D01*
X-19705Y22829D01*
X-19631Y23200D01*
X-19705Y23571D01*
X-19915Y23885D01*
X-20229Y24095D01*
X-20600Y24169D01*
X-20971Y24095D01*
X-21285Y23885D01*
X-21345Y23795D01*
X-22500D01*
X-23005Y23871D01*
X-23118Y24039D01*
X-23215Y24185D01*
X-23529Y24395D01*
X-23900Y24469D01*
X-24271Y24395D01*
X-24585Y24185D01*
X-24795Y23871D01*
X-24869Y23500D01*
X-24795Y23129D01*
X-24585Y22815D01*
X-24391Y22685D01*
X-24588Y22254D01*
X-24900Y22316D01*
X-25212Y22254D01*
X-25449Y22095D01*
X-27400D01*
X-27821Y21921D01*
X-28612Y21130D01*
X-29082D01*
X-29380Y21006D01*
X-29503Y20955D01*
X-30118Y20340D01*
X-30293Y19919D01*
Y19449D01*
X-30579Y19163D01*
X-31123Y19077D01*
X-31315Y19205D01*
X-31424Y19555D01*
X-31451Y19776D01*
X-28401Y22826D01*
X-27228D01*
X-26991Y22668D01*
X-26679Y22606D01*
X-26367Y22668D01*
X-26102Y22844D01*
X-25925Y23109D01*
X-25863Y23421D01*
X-25925Y23733D01*
X-26102Y23998D01*
X-26367Y24175D01*
X-26679Y24237D01*
X-26991Y24175D01*
X-27228Y24017D01*
X-28395D01*
X-28602Y24517D01*
X-27176Y25942D01*
X-26971Y25805D01*
X-26600Y25731D01*
X-26229Y25805D01*
X-25915Y26015D01*
X-25705Y26329D01*
X-25631Y26700D01*
X-25705Y27071D01*
X-25915Y27385D01*
X-26229Y27595D01*
X-26279Y27605D01*
X-26229Y28105D01*
X-12900D01*
X-12479Y28279D01*
X-10786Y29972D01*
X-10595Y29939D01*
D02*
G37*
%LPC*%
G36*
X-9850Y28550D02*
X-10570D01*
X-10542Y28410D01*
X-10321Y28079D01*
X-9990Y27858D01*
X-9850Y27830D01*
Y28550D01*
D02*
G37*
%LPD*%
D42*
X-10200Y38300D02*
X-8231Y36331D01*
X-10200Y33900D02*
X-8231D01*
X2300Y15600D02*
Y21276D01*
Y15600D02*
X2300Y15600D01*
X-19600Y-300D02*
X-18000Y-1900D01*
X-15100Y30100D02*
Y30800D01*
X-13668Y32232D02*
Y40268D01*
X-13200Y30100D02*
Y30900D01*
X-10200Y33900D01*
X-8231D02*
Y36331D01*
X-24800Y2200D02*
X-22300Y-300D01*
X-32584Y19484D02*
X-28647Y23421D01*
X-26679D01*
X-10876Y30724D02*
X-3999D01*
X-12900Y28700D02*
X-10876Y30724D01*
X-29200Y28700D02*
X-12900D01*
X-36500Y21400D02*
X-29200Y28700D01*
X-36500Y19484D02*
Y21400D01*
X12349Y29649D02*
X13600Y30900D01*
X1600Y29649D02*
X12349D01*
X3066Y30449D02*
X4417Y31800D01*
X964Y30449D02*
X3066D01*
X2735Y31249D02*
X4186Y32700D01*
X290Y31249D02*
X2735D01*
X197Y31343D02*
X290Y31249D01*
X-5149Y22900D02*
X1600Y29649D01*
X-12200Y22900D02*
X-5149D01*
X-5686Y23800D02*
X964Y30449D01*
X197Y31300D02*
Y31343D01*
X-6403Y24700D02*
X197Y31300D01*
X-13200Y24700D02*
X-6403D01*
X14600Y30900D02*
X15300Y30200D01*
X13600Y30900D02*
X14600D01*
X15300Y30200D02*
X19900D01*
X4417Y31800D02*
X19800D01*
X4186Y32700D02*
X14500D01*
X15300Y33500D02*
X19900D01*
X14500Y32700D02*
X15300Y33500D01*
X-28647Y19484D02*
X-24316D01*
X-23400Y20400D01*
Y22300D01*
X-22500Y23200D01*
X-20600D01*
X-28647Y17516D02*
X-24784D01*
X-22300Y20000D01*
X-20600D01*
X-28647Y15547D02*
X-25500Y12400D01*
X-19500Y18400D02*
X-13200Y24700D01*
X-20700Y18400D02*
X-19500D01*
X-12600Y23800D02*
X-5686D01*
X-19304Y17096D02*
X-12600Y23800D01*
X-20704Y17096D02*
X-19304D01*
X-19400Y15700D02*
X-12200Y22900D01*
X-20700Y15700D02*
X-19400D01*
X-27400Y21500D02*
X-24900D01*
X-30616Y18284D02*
X-29697Y19203D01*
Y19919D01*
X-29082Y20534D01*
X-28366D01*
X-27400Y21500D01*
X-30616Y17516D02*
Y18284D01*
Y15547D02*
X-26368Y11300D01*
X-20100D01*
X-9800Y21600D01*
X-7200D01*
X-15100Y30800D02*
X-13668Y32232D01*
X-12168Y33532D02*
Y36331D01*
X-30200Y1300D02*
X-27025Y-1875D01*
X-22300Y-300D02*
X-21175D01*
X-18025D02*
X-10200D01*
X-27025Y-1875D02*
X-21175D01*
X-18000Y-1900D02*
X-14800D01*
X-13668Y40268D02*
X-12168D01*
X-850Y15700D02*
X200Y16750D01*
Y20136D01*
X-850Y21186D02*
X200Y20136D01*
X2300Y10900D02*
Y15600D01*
Y10900D02*
X3700Y9500D01*
D43*
X-19000Y9600D02*
X-12400D01*
D44*
X5100Y2700D02*
X7500Y300D01*
X4100Y1500D02*
X6400Y-800D01*
X-34553Y19484D02*
X-27337Y26700D01*
X-26600D01*
X-34553Y9903D02*
Y15547D01*
X-32584Y12316D02*
Y13579D01*
X-33000Y11900D02*
X-32584Y12316D01*
X-33000Y9700D02*
Y11900D01*
X-31600Y9700D02*
Y12300D01*
X-31200Y12700D01*
Y14163D01*
X-32584Y15547D02*
X-31200Y14163D01*
X-28100Y2900D02*
Y6200D01*
X-27200Y7100D01*
X-29800Y2900D02*
Y6904D01*
X-28402Y8302D01*
X-31500Y2900D02*
Y7608D01*
X-29604Y9504D01*
Y10996D01*
X-29600Y11000D01*
X-28402Y8302D02*
Y9794D01*
X-28398Y9798D01*
X-27200Y7100D02*
Y8592D01*
X-27196Y8596D01*
X-25100Y-31500D02*
X-21500Y-35100D01*
X-31500Y-8300D02*
X-25100Y-14700D01*
X-21500Y-35100D02*
X-18400D01*
X-25100Y-31500D02*
Y-14700D01*
X-29800Y-8700D02*
Y-7800D01*
X-23800Y-30900D02*
X-21800Y-32900D01*
X-29800Y-8700D02*
X-23800Y-14700D01*
X-21800Y-32900D02*
X-17400D01*
X-23800Y-30900D02*
Y-14700D01*
X-28100Y-9100D02*
Y-7800D01*
X-22500Y-30600D02*
X-21600Y-31500D01*
X-28100Y-9100D02*
X-22500Y-14700D01*
X-21600Y-31500D02*
X-16500D01*
X-22500Y-30600D02*
Y-14700D01*
X-39500Y1400D02*
Y8300D01*
D45*
X-8350Y-3450D02*
X-4800Y-7000D01*
X-18025Y-3450D02*
X-8350D01*
D47*
X5450Y19701D02*
X5799D01*
X5450D02*
X5600Y19550D01*
D52*
X8100Y-18900D02*
D03*
X39300Y21800D02*
D03*
X22600Y14500D02*
D03*
X43200Y-12200D02*
D03*
X-40684Y17516D02*
D03*
X26000Y-21700D02*
D03*
X-24000Y4900D02*
D03*
X-9500Y5119D02*
D03*
X29800Y10300D02*
D03*
X24200Y1600D02*
D03*
D53*
X-300Y40700D02*
D03*
X13700Y-3900D02*
D03*
X-7798Y12400D02*
D03*
X18300Y41200D02*
D03*
X-11919Y-8581D02*
D03*
X-22300Y33600D02*
D03*
X-39500Y1400D02*
D03*
X-12168Y40268D02*
D03*
X-10200Y38300D02*
D03*
X-8400Y-21200D02*
D03*
X-4800Y-7000D02*
D03*
X-26600Y26700D02*
D03*
X-18400Y-35100D02*
D03*
X-17400Y-32900D02*
D03*
X-16500Y-31500D02*
D03*
X19900Y30200D02*
D03*
X19800Y31800D02*
D03*
X19900Y33500D02*
D03*
X-20600Y23200D02*
D03*
Y20000D02*
D03*
X-34900Y29800D02*
D03*
X-39600Y8400D02*
D03*
X-12168Y36331D02*
D03*
X-40200Y-8200D02*
D03*
X-12400Y9600D02*
D03*
X725Y26000D02*
D03*
X-18025Y-3450D02*
D03*
X-25600Y-7700D02*
D03*
X15200Y19000D02*
D03*
D54*
X7500Y300D02*
D03*
X6400Y-800D02*
D03*
X5100Y2700D02*
D03*
X4100Y1500D02*
D03*
X2300Y21276D02*
D03*
X3700Y9500D02*
D03*
X-19600Y-300D02*
D03*
X-18025D02*
D03*
X-15100Y30100D02*
D03*
X-13200D02*
D03*
X-30200Y1300D02*
D03*
X-24800Y2200D02*
D03*
X-32584Y19484D02*
D03*
X-26679Y23421D02*
D03*
X-34553Y19484D02*
D03*
X-3999Y30724D02*
D03*
X-36521Y19484D02*
D03*
X-34350Y9700D02*
D03*
X-33000D02*
D03*
X-31600D02*
D03*
X-34553Y15547D02*
D03*
X-32584D02*
D03*
Y13579D02*
D03*
X-31500Y-7800D02*
D03*
Y2900D02*
D03*
X-29800Y-7800D02*
D03*
Y2900D02*
D03*
X-28100Y-7800D02*
D03*
Y2900D02*
D03*
X-29604Y10996D02*
D03*
X-28398Y9798D02*
D03*
X-27196Y8596D02*
D03*
X-30616Y15547D02*
D03*
X-28647D02*
D03*
Y17516D02*
D03*
X-30616D02*
D03*
X-28647Y19484D02*
D03*
X-24900Y21500D02*
D03*
X-25504Y12396D02*
D03*
X-20704Y18396D02*
D03*
Y17096D02*
D03*
X-20700Y15700D02*
D03*
X-7200Y21600D02*
D03*
X-12400Y33300D02*
D03*
X-19000Y9600D02*
D03*
X-9600Y28800D02*
D03*
X-850Y24425D02*
D03*
X-19000Y7100D02*
D03*
X-21175Y-300D02*
D03*
X-10200D02*
D03*
X-21175Y-1875D02*
D03*
X-22750Y-5150D02*
D03*
X-14800Y-1900D02*
D03*
X-850Y15700D02*
D03*
Y21276D02*
D03*
M02*
