G04 Layer_Physical_Order=2*
G04 Layer_Color=36540*
%FSLAX25Y25*%
%MOIN*%
G70*
G01*
G75*
%ADD54C,0.01000*%
%ADD55C,0.00700*%
%ADD57C,0.01500*%
%ADD58C,0.00600*%
%ADD63C,0.01600*%
%ADD64C,0.01300*%
%ADD65C,0.01000*%
%ADD66C,0.01800*%
%ADD67C,0.01400*%
%ADD68C,0.02598*%
G36*
X228351Y197469D02*
X227851Y197317D01*
X227837Y197337D01*
X227407Y197625D01*
X227150Y197676D01*
Y196400D01*
Y195124D01*
X227407Y195175D01*
X227837Y195463D01*
X227851Y195483D01*
X228351Y195331D01*
Y192369D01*
X227851Y192217D01*
X227837Y192237D01*
X227407Y192525D01*
X227150Y192576D01*
Y191300D01*
Y190024D01*
X227407Y190075D01*
X227837Y190363D01*
X227851Y190383D01*
X228351Y190231D01*
Y186669D01*
X227851Y186517D01*
X227837Y186537D01*
X227407Y186825D01*
X227150Y186876D01*
Y185600D01*
Y184324D01*
X227407Y184375D01*
X227837Y184663D01*
X227851Y184683D01*
X228351Y184531D01*
Y180469D01*
X227851Y180317D01*
X227837Y180337D01*
X227407Y180625D01*
X227150Y180676D01*
Y179400D01*
Y178124D01*
X227407Y178175D01*
X227837Y178463D01*
X227851Y178483D01*
X228351Y178331D01*
Y174769D01*
X227851Y174617D01*
X227837Y174637D01*
X227407Y174925D01*
X227150Y174976D01*
Y173700D01*
Y172424D01*
X227407Y172475D01*
X227837Y172763D01*
X227851Y172783D01*
X228351Y172631D01*
Y170969D01*
X227851Y170817D01*
X227837Y170837D01*
X227407Y171125D01*
X227150Y171176D01*
Y169900D01*
Y168624D01*
X227407Y168675D01*
X227837Y168963D01*
X227851Y168983D01*
X228351Y168831D01*
Y165269D01*
X227851Y165117D01*
X227837Y165137D01*
X227407Y165425D01*
X227150Y165476D01*
Y164200D01*
Y162924D01*
X227407Y162975D01*
X227837Y163263D01*
X227851Y163283D01*
X228351Y163131D01*
Y160869D01*
X227851Y160717D01*
X227837Y160737D01*
X227407Y161025D01*
X227150Y161076D01*
Y159800D01*
Y158524D01*
X227407Y158575D01*
X227837Y158863D01*
X227851Y158883D01*
X228351Y158731D01*
Y156469D01*
X227851Y156317D01*
X227837Y156337D01*
X227407Y156625D01*
X227150Y156676D01*
Y155400D01*
Y154124D01*
X227407Y154175D01*
X227837Y154463D01*
X227851Y154483D01*
X228351Y154331D01*
Y152069D01*
X227851Y151917D01*
X227837Y151937D01*
X227407Y152225D01*
X227150Y152276D01*
Y151000D01*
Y149724D01*
X227407Y149775D01*
X227837Y150063D01*
X227851Y150083D01*
X228351Y149931D01*
Y148269D01*
X227851Y148117D01*
X227837Y148137D01*
X227407Y148425D01*
X227150Y148476D01*
Y147200D01*
Y145924D01*
X227407Y145975D01*
X227837Y146263D01*
X227851Y146283D01*
X228351Y146131D01*
Y143869D01*
X227851Y143717D01*
X227837Y143737D01*
X227407Y144025D01*
X227150Y144076D01*
Y142800D01*
Y141524D01*
X227407Y141575D01*
X227837Y141863D01*
X227851Y141883D01*
X228351Y141731D01*
Y139469D01*
X227851Y139317D01*
X227837Y139337D01*
X227407Y139625D01*
X227150Y139676D01*
Y138400D01*
Y137124D01*
X227407Y137175D01*
X227837Y137463D01*
X227851Y137483D01*
X228351Y137331D01*
Y135069D01*
X227851Y134917D01*
X227837Y134937D01*
X227407Y135225D01*
X227150Y135276D01*
Y134000D01*
Y132724D01*
X227407Y132775D01*
X227837Y133063D01*
X227851Y133083D01*
X228351Y132931D01*
Y130669D01*
X227851Y130517D01*
X227837Y130537D01*
X227407Y130825D01*
X227150Y130876D01*
Y129600D01*
Y128324D01*
X227407Y128375D01*
X227837Y128663D01*
X227851Y128683D01*
X228351Y128531D01*
Y125569D01*
X227851Y125417D01*
X227837Y125437D01*
X227407Y125725D01*
X227150Y125776D01*
Y124500D01*
Y123224D01*
X227407Y123275D01*
X227837Y123563D01*
X227851Y123583D01*
X228351Y123431D01*
Y121769D01*
X227851Y121617D01*
X227837Y121637D01*
X227407Y121925D01*
X227150Y121976D01*
Y120700D01*
Y119424D01*
X227407Y119475D01*
X227837Y119763D01*
X227851Y119783D01*
X228351Y119631D01*
Y118117D01*
X228169Y117994D01*
X227851Y117895D01*
X227507Y118125D01*
X227250Y118176D01*
Y116900D01*
Y115624D01*
X227507Y115675D01*
X227851Y115905D01*
X228169Y115806D01*
X228351Y115683D01*
Y113717D01*
X228169Y113594D01*
X227851Y113495D01*
X227507Y113725D01*
X227250Y113776D01*
Y112500D01*
Y111224D01*
X227507Y111275D01*
X227851Y111505D01*
X228169Y111406D01*
X228351Y111283D01*
Y106806D01*
X227851Y106636D01*
X227532Y107052D01*
X226945Y107502D01*
X226261Y107785D01*
X225527Y107882D01*
X222869D01*
X222135Y107785D01*
X221451Y107502D01*
X220864Y107052D01*
X220413Y106464D01*
X220130Y105780D01*
X220034Y105046D01*
X220130Y104313D01*
X220413Y103629D01*
X220864Y103041D01*
X221451Y102591D01*
X222135Y102307D01*
X222869Y102211D01*
X225527D01*
X226261Y102307D01*
X226945Y102591D01*
X227532Y103041D01*
X227851Y103457D01*
X228351Y103287D01*
Y78462D01*
X227851Y78292D01*
X227534Y78705D01*
X226947Y79156D01*
X226263Y79439D01*
X225529Y79536D01*
X222871D01*
X222137Y79439D01*
X221453Y79156D01*
X220866Y78705D01*
X220415Y78118D01*
X220132Y77434D01*
X220036Y76700D01*
X220132Y75966D01*
X220415Y75282D01*
X220866Y74695D01*
X221453Y74244D01*
X222137Y73961D01*
X222871Y73864D01*
X225529D01*
X226263Y73961D01*
X226947Y74244D01*
X227534Y74695D01*
X227851Y75108D01*
X228351Y74938D01*
Y65417D01*
X228169Y65294D01*
X227851Y65195D01*
X227507Y65425D01*
X227250Y65476D01*
Y64200D01*
Y62924D01*
X227507Y62975D01*
X227851Y63205D01*
X228169Y63106D01*
X228351Y62983D01*
Y61017D01*
X228169Y60894D01*
X227851Y60795D01*
X227507Y61025D01*
X227250Y61076D01*
Y59800D01*
Y58524D01*
X227507Y58575D01*
X227851Y58805D01*
X228169Y58706D01*
X228351Y58583D01*
Y57117D01*
X228169Y56994D01*
X227851Y56895D01*
X227507Y57125D01*
X227250Y57176D01*
Y55900D01*
Y54624D01*
X227507Y54675D01*
X227851Y54905D01*
X228169Y54806D01*
X228351Y54683D01*
Y34017D01*
X228169Y33894D01*
X227851Y33795D01*
X227507Y34025D01*
X227250Y34076D01*
Y32800D01*
Y31524D01*
X227507Y31575D01*
X227851Y31805D01*
X228169Y31706D01*
X228351Y31583D01*
Y28317D01*
X228169Y28194D01*
X227851Y28095D01*
X227507Y28325D01*
X227250Y28376D01*
Y27100D01*
Y25824D01*
X227507Y25875D01*
X227851Y26105D01*
X228169Y26006D01*
X228351Y25883D01*
Y23917D01*
X228169Y23794D01*
X227851Y23695D01*
X227507Y23925D01*
X227250Y23976D01*
Y22700D01*
Y21424D01*
X227507Y21475D01*
X227851Y21705D01*
X228169Y21606D01*
X228351Y21483D01*
Y20117D01*
X228169Y19994D01*
X227851Y19895D01*
X227507Y20125D01*
X227250Y20176D01*
Y18900D01*
Y17624D01*
X227507Y17675D01*
X227851Y17905D01*
X228169Y17806D01*
X228351Y17683D01*
Y16917D01*
X228169Y16794D01*
X227851Y16695D01*
X227507Y16925D01*
X227250Y16976D01*
Y15700D01*
Y14424D01*
X227507Y14475D01*
X227851Y14705D01*
X228169Y14606D01*
X228351Y14483D01*
Y13117D01*
X228169Y12994D01*
X227851Y12895D01*
X227507Y13125D01*
X227250Y13176D01*
Y11900D01*
Y10624D01*
X227507Y10675D01*
X227851Y10905D01*
X228169Y10806D01*
X228351Y10683D01*
Y9317D01*
X228169Y9194D01*
X227851Y9095D01*
X227507Y9325D01*
X227250Y9376D01*
Y8100D01*
Y6824D01*
X227507Y6875D01*
X227851Y7105D01*
X228169Y7006D01*
X228351Y6883D01*
Y6117D01*
X228169Y5994D01*
X227851Y5895D01*
X227507Y6125D01*
X227250Y6176D01*
Y4900D01*
Y3624D01*
X227507Y3675D01*
X227851Y3905D01*
X228169Y3806D01*
X228351Y3683D01*
Y2917D01*
X228169Y2794D01*
X227851Y2695D01*
X227507Y2925D01*
X227250Y2976D01*
Y1700D01*
X227000D01*
Y1450D01*
X225724D01*
X225775Y1193D01*
X225804Y1149D01*
X225537Y649D01*
X224396D01*
X224129Y1149D01*
X224225Y1293D01*
X224276Y1550D01*
X221724D01*
X221775Y1293D01*
X221871Y1149D01*
X221604Y649D01*
X221063D01*
X220796Y1149D01*
X220825Y1193D01*
X220876Y1450D01*
X218324D01*
X218375Y1193D01*
X218404Y1149D01*
X218137Y649D01*
X216900D01*
X216662Y1149D01*
X216825Y1393D01*
X216876Y1650D01*
X214324D01*
X214375Y1393D01*
X214538Y1149D01*
X214300Y649D01*
X212800D01*
X212562Y1149D01*
X212725Y1393D01*
X212776Y1650D01*
X210224D01*
X210275Y1393D01*
X210438Y1149D01*
X210200Y649D01*
X209600D01*
X209362Y1149D01*
X209525Y1393D01*
X209576Y1650D01*
X207024D01*
X207075Y1393D01*
X207238Y1149D01*
X207000Y649D01*
X206100D01*
X205862Y1149D01*
X206025Y1393D01*
X206076Y1650D01*
X203524D01*
X203575Y1393D01*
X203738Y1149D01*
X203500Y649D01*
X202300D01*
X202062Y1149D01*
X202225Y1393D01*
X202276Y1650D01*
X199724D01*
X199775Y1393D01*
X199938Y1149D01*
X199700Y649D01*
X198217D01*
X198094Y831D01*
X197995Y1149D01*
X198225Y1493D01*
X198276Y1750D01*
X195724D01*
X195775Y1493D01*
X196005Y1149D01*
X195906Y831D01*
X195783Y649D01*
X193800D01*
X193562Y1149D01*
X193725Y1393D01*
X193776Y1650D01*
X191224D01*
X191275Y1393D01*
X191438Y1149D01*
X191200Y649D01*
X189700D01*
X189462Y1149D01*
X189625Y1393D01*
X189676Y1650D01*
X187124D01*
X187175Y1393D01*
X187338Y1149D01*
X187100Y649D01*
X186500D01*
X186262Y1149D01*
X186425Y1393D01*
X186476Y1650D01*
X183924D01*
X183975Y1393D01*
X184138Y1149D01*
X183900Y649D01*
X183000D01*
X182762Y1149D01*
X182925Y1393D01*
X182976Y1650D01*
X180424D01*
X180475Y1393D01*
X180638Y1149D01*
X180400Y649D01*
X179200D01*
X178962Y1149D01*
X179125Y1393D01*
X179176Y1650D01*
X176624D01*
X176675Y1393D01*
X176838Y1149D01*
X176600Y649D01*
X175117D01*
X174994Y831D01*
X174895Y1149D01*
X175125Y1493D01*
X175176Y1750D01*
X172624D01*
X172675Y1493D01*
X172905Y1149D01*
X172806Y831D01*
X172683Y649D01*
X112896D01*
X112629Y1149D01*
X112725Y1293D01*
X112776Y1550D01*
X110224D01*
X110275Y1293D01*
X110371Y1149D01*
X110104Y649D01*
X108796D01*
X108529Y1149D01*
X108625Y1293D01*
X108676Y1550D01*
X106124D01*
X106175Y1293D01*
X106271Y1149D01*
X106052Y738D01*
X105549D01*
X105329Y1149D01*
X105425Y1293D01*
X105476Y1550D01*
X102924D01*
X102975Y1293D01*
X103071Y1149D01*
X102804Y649D01*
X102096D01*
X101829Y1149D01*
X101925Y1293D01*
X101976Y1550D01*
X99424D01*
X99475Y1293D01*
X99571Y1149D01*
X99304Y649D01*
X98296D01*
X98029Y1149D01*
X98125Y1293D01*
X98176Y1550D01*
X95624D01*
X95675Y1293D01*
X95771Y1149D01*
X95504Y649D01*
X94200D01*
X93962Y1149D01*
X94125Y1393D01*
X94176Y1650D01*
X91624D01*
X91675Y1393D01*
X91838Y1149D01*
X91600Y649D01*
X90500D01*
X90262Y1149D01*
X90425Y1393D01*
X90476Y1650D01*
X87924D01*
X87975Y1393D01*
X88138Y1149D01*
X87900Y649D01*
X86400D01*
X86162Y1149D01*
X86325Y1393D01*
X86376Y1650D01*
X83824D01*
X83875Y1393D01*
X84038Y1149D01*
X83800Y649D01*
X83200D01*
X82962Y1149D01*
X83125Y1393D01*
X83176Y1650D01*
X80624D01*
X80675Y1393D01*
X80838Y1149D01*
X80600Y649D01*
X79700D01*
X79462Y1149D01*
X79625Y1393D01*
X79676Y1650D01*
X77124D01*
X77175Y1393D01*
X77338Y1149D01*
X77100Y649D01*
X75900D01*
X75662Y1149D01*
X75825Y1393D01*
X75876Y1650D01*
X73324D01*
X73375Y1393D01*
X73538Y1149D01*
X73300Y649D01*
X71817D01*
X71694Y831D01*
X71595Y1149D01*
X71825Y1493D01*
X71876Y1750D01*
X69324D01*
X69375Y1493D01*
X69605Y1149D01*
X69506Y831D01*
X69383Y649D01*
X67617D01*
X67494Y831D01*
X67395Y1149D01*
X67625Y1493D01*
X67676Y1750D01*
X65124D01*
X65175Y1493D01*
X65405Y1149D01*
X65306Y831D01*
X65183Y649D01*
X63517D01*
X63394Y831D01*
X63295Y1149D01*
X63525Y1493D01*
X63576Y1750D01*
X61024D01*
X61075Y1493D01*
X61305Y1149D01*
X61206Y831D01*
X61083Y649D01*
X60317D01*
X60194Y831D01*
X60095Y1149D01*
X60325Y1493D01*
X60376Y1750D01*
X57824D01*
X57875Y1493D01*
X58105Y1149D01*
X58006Y831D01*
X57883Y649D01*
X56817D01*
X56694Y831D01*
X56595Y1149D01*
X56825Y1493D01*
X56876Y1750D01*
X54324D01*
X54375Y1493D01*
X54605Y1149D01*
X54506Y831D01*
X54383Y649D01*
X53017D01*
X52894Y831D01*
X52795Y1149D01*
X53025Y1493D01*
X53076Y1750D01*
X50524D01*
X50575Y1493D01*
X50805Y1149D01*
X50706Y831D01*
X50583Y649D01*
X48869D01*
X48717Y1149D01*
X48737Y1163D01*
X49025Y1593D01*
X49076Y1850D01*
X46524D01*
X46575Y1593D01*
X46863Y1163D01*
X46883Y1149D01*
X46731Y649D01*
X43019D01*
X42868Y1149D01*
X43037Y1263D01*
X43325Y1693D01*
X43376Y1950D01*
X40824D01*
X40875Y1693D01*
X41163Y1263D01*
X41332Y1149D01*
X41181Y649D01*
X38919D01*
X38768Y1149D01*
X38937Y1263D01*
X39225Y1693D01*
X39276Y1950D01*
X36724D01*
X36775Y1693D01*
X37063Y1263D01*
X37232Y1149D01*
X37081Y649D01*
X35719D01*
X35568Y1149D01*
X35737Y1263D01*
X36025Y1693D01*
X36076Y1950D01*
X33524D01*
X33575Y1693D01*
X33863Y1263D01*
X34032Y1149D01*
X33881Y649D01*
X32219D01*
X32068Y1149D01*
X32237Y1263D01*
X32525Y1693D01*
X32576Y1950D01*
X30024D01*
X30075Y1693D01*
X30363Y1263D01*
X30532Y1149D01*
X30381Y649D01*
X28419D01*
X28268Y1149D01*
X28437Y1263D01*
X28725Y1693D01*
X28776Y1950D01*
X26224D01*
X26275Y1693D01*
X26563Y1263D01*
X26732Y1149D01*
X26581Y649D01*
X24234D01*
X24118Y1149D01*
X24437Y1363D01*
X24725Y1793D01*
X24776Y2050D01*
X22224D01*
X22275Y1793D01*
X22563Y1363D01*
X22882Y1149D01*
X22767Y649D01*
X21034D01*
X20918Y1149D01*
X21237Y1363D01*
X21525Y1793D01*
X21576Y2050D01*
X19024D01*
X19075Y1793D01*
X19363Y1363D01*
X19682Y1149D01*
X19567Y649D01*
X16933D01*
X16818Y1149D01*
X17137Y1363D01*
X17425Y1793D01*
X17476Y2050D01*
X14924D01*
X14975Y1793D01*
X15263Y1363D01*
X15582Y1149D01*
X15466Y649D01*
X13734D01*
X13618Y1149D01*
X13937Y1363D01*
X14225Y1793D01*
X14276Y2050D01*
X11724D01*
X11775Y1793D01*
X12063Y1363D01*
X12382Y1149D01*
X12267Y649D01*
X10233D01*
X10118Y1149D01*
X10437Y1363D01*
X10725Y1793D01*
X10776Y2050D01*
X8224D01*
X8275Y1793D01*
X8563Y1363D01*
X8882Y1149D01*
X8766Y649D01*
X6434D01*
X6318Y1149D01*
X6637Y1363D01*
X6925Y1793D01*
X6976Y2050D01*
X4424D01*
X4475Y1793D01*
X4763Y1363D01*
X5082Y1149D01*
X4967Y649D01*
X2126D01*
X2077Y1149D01*
X2207Y1175D01*
X2637Y1463D01*
X2925Y1893D01*
X2976Y2150D01*
X1700D01*
Y2400D01*
X1450D01*
Y3676D01*
X1193Y3625D01*
X1149Y3596D01*
X649Y3863D01*
Y5937D01*
X1149Y6204D01*
X1193Y6175D01*
X1450Y6124D01*
Y7400D01*
Y8676D01*
X1193Y8625D01*
X1149Y8596D01*
X649Y8863D01*
Y9637D01*
X1149Y9904D01*
X1193Y9875D01*
X1450Y9824D01*
Y11100D01*
Y12376D01*
X1193Y12325D01*
X1149Y12296D01*
X649Y12563D01*
Y13337D01*
X1149Y13604D01*
X1193Y13575D01*
X1450Y13524D01*
Y14800D01*
Y16076D01*
X1193Y16025D01*
X1149Y15996D01*
X649Y16263D01*
Y17037D01*
X1149Y17304D01*
X1193Y17275D01*
X1450Y17224D01*
Y18500D01*
Y19776D01*
X1193Y19725D01*
X1149Y19696D01*
X649Y19963D01*
Y20737D01*
X1149Y21004D01*
X1193Y20975D01*
X1450Y20924D01*
Y22200D01*
Y23476D01*
X1193Y23425D01*
X1149Y23396D01*
X649Y23663D01*
Y24437D01*
X1149Y24704D01*
X1193Y24675D01*
X1450Y24624D01*
Y25900D01*
Y27176D01*
X1193Y27125D01*
X1149Y27096D01*
X649Y27363D01*
Y28137D01*
X1149Y28404D01*
X1193Y28375D01*
X1450Y28324D01*
Y29600D01*
Y30876D01*
X1193Y30825D01*
X1149Y30796D01*
X649Y31063D01*
Y31837D01*
X1149Y32104D01*
X1193Y32075D01*
X1450Y32024D01*
Y33300D01*
Y34576D01*
X1193Y34525D01*
X1149Y34496D01*
X649Y34763D01*
Y35537D01*
X1149Y35804D01*
X1193Y35775D01*
X1450Y35724D01*
Y37000D01*
Y38276D01*
X1193Y38225D01*
X1149Y38196D01*
X649Y38463D01*
Y39237D01*
X1149Y39504D01*
X1193Y39475D01*
X1450Y39424D01*
Y40700D01*
Y41976D01*
X1193Y41925D01*
X1149Y41896D01*
X649Y42163D01*
Y42937D01*
X1149Y43204D01*
X1193Y43175D01*
X1450Y43124D01*
Y44400D01*
Y45676D01*
X1193Y45625D01*
X1149Y45596D01*
X649Y45863D01*
Y46637D01*
X1149Y46904D01*
X1193Y46875D01*
X1450Y46824D01*
Y48100D01*
Y49376D01*
X1193Y49325D01*
X1149Y49296D01*
X649Y49563D01*
Y50337D01*
X1149Y50604D01*
X1193Y50575D01*
X1450Y50524D01*
Y51800D01*
Y53076D01*
X1193Y53025D01*
X1149Y52996D01*
X649Y53263D01*
Y54037D01*
X1149Y54304D01*
X1193Y54275D01*
X1450Y54224D01*
Y55500D01*
Y56776D01*
X1193Y56725D01*
X1149Y56696D01*
X649Y56963D01*
Y57737D01*
X1149Y58004D01*
X1193Y57975D01*
X1450Y57924D01*
Y59200D01*
Y60476D01*
X1193Y60425D01*
X1149Y60396D01*
X649Y60663D01*
Y61437D01*
X1149Y61704D01*
X1193Y61675D01*
X1450Y61624D01*
Y62900D01*
Y64176D01*
X1193Y64125D01*
X1149Y64096D01*
X649Y64363D01*
Y65270D01*
X1033Y65534D01*
X1149Y65564D01*
X1350Y65524D01*
Y66800D01*
Y68076D01*
X1149Y68036D01*
X1033Y68066D01*
X649Y68330D01*
Y70270D01*
X1033Y70534D01*
X1149Y70564D01*
X1350Y70524D01*
Y71800D01*
Y73076D01*
X1149Y73036D01*
X1033Y73066D01*
X649Y73330D01*
Y75270D01*
X1033Y75534D01*
X1149Y75564D01*
X1350Y75524D01*
Y76800D01*
Y78076D01*
X1149Y78036D01*
X1033Y78066D01*
X649Y78330D01*
Y80170D01*
X1033Y80434D01*
X1149Y80464D01*
X1350Y80424D01*
Y81700D01*
Y82976D01*
X1149Y82936D01*
X1033Y82966D01*
X649Y83230D01*
Y83870D01*
X1033Y84134D01*
X1149Y84164D01*
X1350Y84124D01*
Y85400D01*
Y86676D01*
X1149Y86636D01*
X1033Y86666D01*
X649Y86930D01*
Y88770D01*
X1033Y89034D01*
X1149Y89064D01*
X1350Y89024D01*
Y90300D01*
Y91576D01*
X1149Y91536D01*
X1033Y91566D01*
X649Y91830D01*
Y93770D01*
X1033Y94034D01*
X1149Y94064D01*
X1350Y94024D01*
Y95300D01*
Y96576D01*
X1149Y96536D01*
X1033Y96566D01*
X649Y96830D01*
Y98770D01*
X1033Y99034D01*
X1149Y99064D01*
X1350Y99024D01*
Y100300D01*
Y101576D01*
X1149Y101536D01*
X1033Y101566D01*
X649Y101830D01*
Y140581D01*
X1149Y140732D01*
X1263Y140563D01*
X1693Y140275D01*
X1950Y140224D01*
Y141500D01*
Y142776D01*
X1693Y142725D01*
X1263Y142437D01*
X1149Y142268D01*
X649Y142419D01*
Y148281D01*
X1149Y148432D01*
X1263Y148263D01*
X1693Y147975D01*
X1950Y147924D01*
Y149200D01*
Y150476D01*
X1693Y150425D01*
X1263Y150137D01*
X1149Y149968D01*
X649Y150119D01*
Y156081D01*
X1149Y156232D01*
X1263Y156063D01*
X1693Y155775D01*
X1950Y155724D01*
Y157000D01*
Y158276D01*
X1693Y158225D01*
X1263Y157937D01*
X1149Y157768D01*
X649Y157919D01*
Y163881D01*
X1149Y164032D01*
X1263Y163863D01*
X1693Y163575D01*
X1950Y163524D01*
Y164800D01*
Y166076D01*
X1693Y166025D01*
X1263Y165737D01*
X1149Y165568D01*
X649Y165719D01*
Y175481D01*
X1149Y175632D01*
X1263Y175463D01*
X1693Y175175D01*
X1950Y175124D01*
Y176400D01*
Y177676D01*
X1693Y177625D01*
X1263Y177337D01*
X1149Y177168D01*
X649Y177319D01*
Y183281D01*
X1149Y183432D01*
X1263Y183263D01*
X1693Y182975D01*
X1950Y182924D01*
Y184200D01*
Y185476D01*
X1693Y185425D01*
X1263Y185137D01*
X1149Y184968D01*
X649Y185119D01*
Y191081D01*
X1149Y191232D01*
X1263Y191063D01*
X1693Y190775D01*
X1950Y190724D01*
Y192000D01*
Y193276D01*
X1693Y193225D01*
X1263Y192937D01*
X1149Y192768D01*
X649Y192919D01*
Y199351D01*
X1504D01*
X1771Y198851D01*
X1675Y198707D01*
X1624Y198450D01*
X4176D01*
X4125Y198707D01*
X4029Y198851D01*
X4296Y199351D01*
X8104D01*
X8371Y198851D01*
X8275Y198707D01*
X8224Y198450D01*
X10776D01*
X10725Y198707D01*
X10629Y198851D01*
X10896Y199351D01*
X15704D01*
X15971Y198851D01*
X15875Y198707D01*
X15824Y198450D01*
X18376D01*
X18325Y198707D01*
X18229Y198851D01*
X18496Y199351D01*
X22700D01*
X22938Y198851D01*
X22775Y198607D01*
X22724Y198350D01*
X25276D01*
X25225Y198607D01*
X25062Y198851D01*
X25300Y199351D01*
X30704D01*
X30971Y198851D01*
X30875Y198707D01*
X30824Y198450D01*
X33376D01*
X33325Y198707D01*
X33229Y198851D01*
X33496Y199351D01*
X39867D01*
X39982Y198851D01*
X39663Y198637D01*
X39375Y198207D01*
X39324Y197950D01*
X41876D01*
X41825Y198207D01*
X41537Y198637D01*
X41218Y198851D01*
X41333Y199351D01*
X47483D01*
X47606Y199169D01*
X47705Y198851D01*
X47475Y198507D01*
X47424Y198250D01*
X49976D01*
X49925Y198507D01*
X49695Y198851D01*
X49794Y199169D01*
X49917Y199351D01*
X55431D01*
X55583Y198851D01*
X55563Y198837D01*
X55275Y198407D01*
X55224Y198150D01*
X57776D01*
X57725Y198407D01*
X57437Y198837D01*
X57417Y198851D01*
X57569Y199351D01*
X61731D01*
X61883Y198851D01*
X61863Y198837D01*
X61575Y198407D01*
X61524Y198150D01*
X64076D01*
X64025Y198407D01*
X63737Y198837D01*
X63717Y198851D01*
X63869Y199351D01*
X67831D01*
X67983Y198851D01*
X67963Y198837D01*
X67675Y198407D01*
X67624Y198150D01*
X70176D01*
X70125Y198407D01*
X69837Y198837D01*
X69817Y198851D01*
X69969Y199351D01*
X75081D01*
X75232Y198851D01*
X75063Y198737D01*
X74775Y198307D01*
X74724Y198050D01*
X77276D01*
X77225Y198307D01*
X76937Y198737D01*
X76768Y198851D01*
X76919Y199351D01*
X81731D01*
X81883Y198851D01*
X81863Y198837D01*
X81575Y198407D01*
X81524Y198150D01*
X84076D01*
X84025Y198407D01*
X83737Y198837D01*
X83717Y198851D01*
X83869Y199351D01*
X85681D01*
X85832Y198851D01*
X85663Y198737D01*
X85375Y198307D01*
X85324Y198050D01*
X87876D01*
X87825Y198307D01*
X87537Y198737D01*
X87368Y198851D01*
X87519Y199351D01*
X93074D01*
X93123Y198851D01*
X92993Y198825D01*
X92563Y198537D01*
X92275Y198107D01*
X92224Y197850D01*
X94776D01*
X94725Y198107D01*
X94437Y198537D01*
X94007Y198825D01*
X93877Y198851D01*
X93926Y199351D01*
X99581D01*
X99732Y198851D01*
X99563Y198737D01*
X99275Y198307D01*
X99224Y198050D01*
X101776D01*
X101725Y198307D01*
X101437Y198737D01*
X101268Y198851D01*
X101419Y199351D01*
X106981D01*
X107132Y198851D01*
X106963Y198737D01*
X106675Y198307D01*
X106624Y198050D01*
X109176D01*
X109125Y198307D01*
X108837Y198737D01*
X108668Y198851D01*
X108819Y199351D01*
X113531D01*
X113683Y198851D01*
X113663Y198837D01*
X113375Y198407D01*
X113324Y198150D01*
X115876D01*
X115825Y198407D01*
X115537Y198837D01*
X115517Y198851D01*
X115669Y199351D01*
X120431D01*
X120583Y198851D01*
X120563Y198837D01*
X120275Y198407D01*
X120224Y198150D01*
X122776D01*
X122725Y198407D01*
X122437Y198837D01*
X122417Y198851D01*
X122569Y199351D01*
X130231D01*
X130383Y198851D01*
X130363Y198837D01*
X130075Y198407D01*
X130024Y198150D01*
X132576D01*
X132525Y198407D01*
X132237Y198837D01*
X132217Y198851D01*
X132369Y199351D01*
X135683D01*
X135806Y199169D01*
X135905Y198851D01*
X135675Y198507D01*
X135624Y198250D01*
X138176D01*
X138125Y198507D01*
X137895Y198851D01*
X137994Y199169D01*
X138117Y199351D01*
X140731D01*
X140883Y198851D01*
X140863Y198837D01*
X140575Y198407D01*
X140524Y198150D01*
X143076D01*
X143025Y198407D01*
X142737Y198837D01*
X142717Y198851D01*
X142869Y199351D01*
X145783D01*
X145906Y199169D01*
X146005Y198851D01*
X145775Y198507D01*
X145724Y198250D01*
X148276D01*
X148225Y198507D01*
X147995Y198851D01*
X148094Y199169D01*
X148217Y199351D01*
X150183D01*
X150306Y199169D01*
X150405Y198851D01*
X150175Y198507D01*
X150124Y198250D01*
X152676D01*
X152625Y198507D01*
X152395Y198851D01*
X152494Y199169D01*
X152617Y199351D01*
X155300D01*
X155538Y198851D01*
X155375Y198607D01*
X155324Y198350D01*
X157876D01*
X157825Y198607D01*
X157662Y198851D01*
X157900Y199351D01*
X161300D01*
X161538Y198851D01*
X161375Y198607D01*
X161324Y198350D01*
X163876D01*
X163825Y198607D01*
X163662Y198851D01*
X163900Y199351D01*
X166383D01*
X166506Y199169D01*
X166605Y198851D01*
X166375Y198507D01*
X166324Y198250D01*
X168876D01*
X168825Y198507D01*
X168595Y198851D01*
X168694Y199169D01*
X168817Y199351D01*
X172431D01*
X172583Y198851D01*
X172563Y198837D01*
X172275Y198407D01*
X172224Y198150D01*
X174776D01*
X174725Y198407D01*
X174437Y198837D01*
X174417Y198851D01*
X174569Y199351D01*
X176983D01*
X177106Y199169D01*
X177205Y198851D01*
X176975Y198507D01*
X176924Y198250D01*
X179476D01*
X179425Y198507D01*
X179195Y198851D01*
X179294Y199169D01*
X179417Y199351D01*
X181783D01*
X181906Y199169D01*
X182005Y198851D01*
X181775Y198507D01*
X181724Y198250D01*
X184276D01*
X184225Y198507D01*
X183995Y198851D01*
X184094Y199169D01*
X184217Y199351D01*
X187283D01*
X187406Y199169D01*
X187505Y198851D01*
X187275Y198507D01*
X187224Y198250D01*
X189776D01*
X189725Y198507D01*
X189495Y198851D01*
X189594Y199169D01*
X189717Y199351D01*
X193900D01*
X194138Y198851D01*
X193975Y198607D01*
X193924Y198350D01*
X196476D01*
X196425Y198607D01*
X196262Y198851D01*
X196500Y199351D01*
X199304D01*
X199571Y198851D01*
X199475Y198707D01*
X199424Y198450D01*
X201976D01*
X201925Y198707D01*
X201829Y198851D01*
X202096Y199351D01*
X203900D01*
X204138Y198851D01*
X203975Y198607D01*
X203924Y198350D01*
X206476D01*
X206425Y198607D01*
X206262Y198851D01*
X206500Y199351D01*
X209604D01*
X209871Y198851D01*
X209775Y198707D01*
X209724Y198450D01*
X212276D01*
X212225Y198707D01*
X212129Y198851D01*
X212396Y199351D01*
X214131D01*
X214283Y198851D01*
X214263Y198837D01*
X213975Y198407D01*
X213924Y198150D01*
X216476D01*
X216425Y198407D01*
X216137Y198837D01*
X216117Y198851D01*
X216269Y199351D01*
X218983D01*
X219106Y199169D01*
X219205Y198851D01*
X218975Y198507D01*
X218924Y198250D01*
X221476D01*
X221425Y198507D01*
X221195Y198851D01*
X221294Y199169D01*
X221417Y199351D01*
X228351D01*
Y197469D01*
D02*
G37*
%LPC*%
G36*
X212276Y197950D02*
X211250D01*
Y196924D01*
X211507Y196975D01*
X211937Y197263D01*
X212225Y197693D01*
X212276Y197950D01*
D02*
G37*
G36*
X210750D02*
X209724D01*
X209775Y197693D01*
X210063Y197263D01*
X210493Y196975D01*
X210750Y196924D01*
Y197950D01*
D02*
G37*
G36*
X201976D02*
X200950D01*
Y196924D01*
X201207Y196975D01*
X201637Y197263D01*
X201925Y197693D01*
X201976Y197950D01*
D02*
G37*
G36*
X200450D02*
X199424D01*
X199475Y197693D01*
X199763Y197263D01*
X200193Y196975D01*
X200450Y196924D01*
Y197950D01*
D02*
G37*
G36*
X33376D02*
X32350D01*
Y196924D01*
X32607Y196975D01*
X33037Y197263D01*
X33325Y197693D01*
X33376Y197950D01*
D02*
G37*
G36*
X31850D02*
X30824D01*
X30875Y197693D01*
X31163Y197263D01*
X31593Y196975D01*
X31850Y196924D01*
Y197950D01*
D02*
G37*
G36*
X18376D02*
X17350D01*
Y196924D01*
X17607Y196975D01*
X18037Y197263D01*
X18325Y197693D01*
X18376Y197950D01*
D02*
G37*
G36*
X16850D02*
X15824D01*
X15875Y197693D01*
X16163Y197263D01*
X16593Y196975D01*
X16850Y196924D01*
Y197950D01*
D02*
G37*
G36*
X10776D02*
X9750D01*
Y196924D01*
X10007Y196975D01*
X10437Y197263D01*
X10725Y197693D01*
X10776Y197950D01*
D02*
G37*
G36*
X9250D02*
X8224D01*
X8275Y197693D01*
X8563Y197263D01*
X8993Y196975D01*
X9250Y196924D01*
Y197950D01*
D02*
G37*
G36*
X4176D02*
X3150D01*
Y196924D01*
X3407Y196975D01*
X3837Y197263D01*
X4125Y197693D01*
X4176Y197950D01*
D02*
G37*
G36*
X2650D02*
X1624D01*
X1675Y197693D01*
X1963Y197263D01*
X2393Y196975D01*
X2650Y196924D01*
Y197950D01*
D02*
G37*
G36*
X206476Y197850D02*
X205450D01*
Y196824D01*
X205707Y196875D01*
X206137Y197163D01*
X206425Y197593D01*
X206476Y197850D01*
D02*
G37*
G36*
X204950D02*
X203924D01*
X203975Y197593D01*
X204263Y197163D01*
X204693Y196875D01*
X204950Y196824D01*
Y197850D01*
D02*
G37*
G36*
X196476D02*
X195450D01*
Y196824D01*
X195707Y196875D01*
X196137Y197163D01*
X196425Y197593D01*
X196476Y197850D01*
D02*
G37*
G36*
X194950D02*
X193924D01*
X193975Y197593D01*
X194263Y197163D01*
X194693Y196875D01*
X194950Y196824D01*
Y197850D01*
D02*
G37*
G36*
X163876D02*
X162850D01*
Y196824D01*
X163107Y196875D01*
X163537Y197163D01*
X163825Y197593D01*
X163876Y197850D01*
D02*
G37*
G36*
X162350D02*
X161324D01*
X161375Y197593D01*
X161663Y197163D01*
X162093Y196875D01*
X162350Y196824D01*
Y197850D01*
D02*
G37*
G36*
X157876D02*
X156850D01*
Y196824D01*
X157107Y196875D01*
X157537Y197163D01*
X157825Y197593D01*
X157876Y197850D01*
D02*
G37*
G36*
X156350D02*
X155324D01*
X155375Y197593D01*
X155663Y197163D01*
X156093Y196875D01*
X156350Y196824D01*
Y197850D01*
D02*
G37*
G36*
X25276D02*
X24250D01*
Y196824D01*
X24507Y196875D01*
X24937Y197163D01*
X25225Y197593D01*
X25276Y197850D01*
D02*
G37*
G36*
X23750D02*
X22724D01*
X22775Y197593D01*
X23063Y197163D01*
X23493Y196875D01*
X23750Y196824D01*
Y197850D01*
D02*
G37*
G36*
X221476Y197750D02*
X220450D01*
Y196724D01*
X220707Y196775D01*
X221137Y197063D01*
X221425Y197493D01*
X221476Y197750D01*
D02*
G37*
G36*
X219950D02*
X218924D01*
X218975Y197493D01*
X219263Y197063D01*
X219693Y196775D01*
X219950Y196724D01*
Y197750D01*
D02*
G37*
G36*
X189776D02*
X188750D01*
Y196724D01*
X189007Y196775D01*
X189437Y197063D01*
X189725Y197493D01*
X189776Y197750D01*
D02*
G37*
G36*
X188250D02*
X187224D01*
X187275Y197493D01*
X187563Y197063D01*
X187993Y196775D01*
X188250Y196724D01*
Y197750D01*
D02*
G37*
G36*
X184276D02*
X183250D01*
Y196724D01*
X183507Y196775D01*
X183937Y197063D01*
X184225Y197493D01*
X184276Y197750D01*
D02*
G37*
G36*
X182750D02*
X181724D01*
X181775Y197493D01*
X182063Y197063D01*
X182493Y196775D01*
X182750Y196724D01*
Y197750D01*
D02*
G37*
G36*
X179476D02*
X178450D01*
Y196724D01*
X178707Y196775D01*
X179137Y197063D01*
X179425Y197493D01*
X179476Y197750D01*
D02*
G37*
G36*
X177950D02*
X176924D01*
X176975Y197493D01*
X177263Y197063D01*
X177693Y196775D01*
X177950Y196724D01*
Y197750D01*
D02*
G37*
G36*
X168876D02*
X167850D01*
Y196724D01*
X168107Y196775D01*
X168537Y197063D01*
X168825Y197493D01*
X168876Y197750D01*
D02*
G37*
G36*
X167350D02*
X166324D01*
X166375Y197493D01*
X166663Y197063D01*
X167093Y196775D01*
X167350Y196724D01*
Y197750D01*
D02*
G37*
G36*
X152676D02*
X151650D01*
Y196724D01*
X151907Y196775D01*
X152337Y197063D01*
X152625Y197493D01*
X152676Y197750D01*
D02*
G37*
G36*
X151150D02*
X150124D01*
X150175Y197493D01*
X150463Y197063D01*
X150893Y196775D01*
X151150Y196724D01*
Y197750D01*
D02*
G37*
G36*
X148276D02*
X147250D01*
Y196724D01*
X147507Y196775D01*
X147937Y197063D01*
X148225Y197493D01*
X148276Y197750D01*
D02*
G37*
G36*
X146750D02*
X145724D01*
X145775Y197493D01*
X146063Y197063D01*
X146493Y196775D01*
X146750Y196724D01*
Y197750D01*
D02*
G37*
G36*
X138176D02*
X137150D01*
Y196724D01*
X137407Y196775D01*
X137837Y197063D01*
X138125Y197493D01*
X138176Y197750D01*
D02*
G37*
G36*
X136650D02*
X135624D01*
X135675Y197493D01*
X135963Y197063D01*
X136393Y196775D01*
X136650Y196724D01*
Y197750D01*
D02*
G37*
G36*
X49976D02*
X48950D01*
Y196724D01*
X49207Y196775D01*
X49637Y197063D01*
X49925Y197493D01*
X49976Y197750D01*
D02*
G37*
G36*
X48450D02*
X47424D01*
X47475Y197493D01*
X47763Y197063D01*
X48193Y196775D01*
X48450Y196724D01*
Y197750D01*
D02*
G37*
G36*
X226650Y197676D02*
X226393Y197625D01*
X225963Y197337D01*
X225675Y196907D01*
X225624Y196650D01*
X226650D01*
Y197676D01*
D02*
G37*
G36*
X216476Y197650D02*
X215450D01*
Y196624D01*
X215707Y196675D01*
X216137Y196963D01*
X216425Y197393D01*
X216476Y197650D01*
D02*
G37*
G36*
X214950D02*
X213924D01*
X213975Y197393D01*
X214263Y196963D01*
X214693Y196675D01*
X214950Y196624D01*
Y197650D01*
D02*
G37*
G36*
X174776D02*
X173750D01*
Y196624D01*
X174007Y196675D01*
X174437Y196963D01*
X174725Y197393D01*
X174776Y197650D01*
D02*
G37*
G36*
X173250D02*
X172224D01*
X172275Y197393D01*
X172563Y196963D01*
X172993Y196675D01*
X173250Y196624D01*
Y197650D01*
D02*
G37*
G36*
X143076D02*
X142050D01*
Y196624D01*
X142307Y196675D01*
X142737Y196963D01*
X143025Y197393D01*
X143076Y197650D01*
D02*
G37*
G36*
X141550D02*
X140524D01*
X140575Y197393D01*
X140863Y196963D01*
X141293Y196675D01*
X141550Y196624D01*
Y197650D01*
D02*
G37*
G36*
X132576D02*
X131550D01*
Y196624D01*
X131807Y196675D01*
X132237Y196963D01*
X132525Y197393D01*
X132576Y197650D01*
D02*
G37*
G36*
X131050D02*
X130024D01*
X130075Y197393D01*
X130363Y196963D01*
X130793Y196675D01*
X131050Y196624D01*
Y197650D01*
D02*
G37*
G36*
X122776D02*
X121750D01*
Y196624D01*
X122007Y196675D01*
X122437Y196963D01*
X122725Y197393D01*
X122776Y197650D01*
D02*
G37*
G36*
X121250D02*
X120224D01*
X120275Y197393D01*
X120563Y196963D01*
X120993Y196675D01*
X121250Y196624D01*
Y197650D01*
D02*
G37*
G36*
X115876D02*
X114850D01*
Y196624D01*
X115107Y196675D01*
X115537Y196963D01*
X115825Y197393D01*
X115876Y197650D01*
D02*
G37*
G36*
X114350D02*
X113324D01*
X113375Y197393D01*
X113663Y196963D01*
X114093Y196675D01*
X114350Y196624D01*
Y197650D01*
D02*
G37*
G36*
X84076D02*
X83050D01*
Y196624D01*
X83307Y196675D01*
X83737Y196963D01*
X84025Y197393D01*
X84076Y197650D01*
D02*
G37*
G36*
X82550D02*
X81524D01*
X81575Y197393D01*
X81863Y196963D01*
X82293Y196675D01*
X82550Y196624D01*
Y197650D01*
D02*
G37*
G36*
X70176D02*
X69150D01*
Y196624D01*
X69407Y196675D01*
X69837Y196963D01*
X70125Y197393D01*
X70176Y197650D01*
D02*
G37*
G36*
X68650D02*
X67624D01*
X67675Y197393D01*
X67963Y196963D01*
X68393Y196675D01*
X68650Y196624D01*
Y197650D01*
D02*
G37*
G36*
X64076D02*
X63050D01*
Y196624D01*
X63307Y196675D01*
X63737Y196963D01*
X64025Y197393D01*
X64076Y197650D01*
D02*
G37*
G36*
X62550D02*
X61524D01*
X61575Y197393D01*
X61863Y196963D01*
X62293Y196675D01*
X62550Y196624D01*
Y197650D01*
D02*
G37*
G36*
X57776D02*
X56750D01*
Y196624D01*
X57007Y196675D01*
X57437Y196963D01*
X57725Y197393D01*
X57776Y197650D01*
D02*
G37*
G36*
X56250D02*
X55224D01*
X55275Y197393D01*
X55563Y196963D01*
X55993Y196675D01*
X56250Y196624D01*
Y197650D01*
D02*
G37*
G36*
X109176Y197550D02*
X108150D01*
Y196524D01*
X108407Y196575D01*
X108837Y196863D01*
X109125Y197293D01*
X109176Y197550D01*
D02*
G37*
G36*
X107650D02*
X106624D01*
X106675Y197293D01*
X106963Y196863D01*
X107393Y196575D01*
X107650Y196524D01*
Y197550D01*
D02*
G37*
G36*
X101776D02*
X100750D01*
Y196524D01*
X101007Y196575D01*
X101437Y196863D01*
X101725Y197293D01*
X101776Y197550D01*
D02*
G37*
G36*
X100250D02*
X99224D01*
X99275Y197293D01*
X99563Y196863D01*
X99993Y196575D01*
X100250Y196524D01*
Y197550D01*
D02*
G37*
G36*
X87876D02*
X86850D01*
Y196524D01*
X87107Y196575D01*
X87537Y196863D01*
X87825Y197293D01*
X87876Y197550D01*
D02*
G37*
G36*
X86350D02*
X85324D01*
X85375Y197293D01*
X85663Y196863D01*
X86093Y196575D01*
X86350Y196524D01*
Y197550D01*
D02*
G37*
G36*
X77276D02*
X76250D01*
Y196524D01*
X76507Y196575D01*
X76937Y196863D01*
X77225Y197293D01*
X77276Y197550D01*
D02*
G37*
G36*
X75750D02*
X74724D01*
X74775Y197293D01*
X75063Y196863D01*
X75493Y196575D01*
X75750Y196524D01*
Y197550D01*
D02*
G37*
G36*
X41876Y197450D02*
X40850D01*
Y196424D01*
X41107Y196475D01*
X41537Y196763D01*
X41825Y197193D01*
X41876Y197450D01*
D02*
G37*
G36*
X40350D02*
X39324D01*
X39375Y197193D01*
X39663Y196763D01*
X40093Y196475D01*
X40350Y196424D01*
Y197450D01*
D02*
G37*
G36*
X94776Y197350D02*
X93750D01*
Y196324D01*
X94007Y196375D01*
X94437Y196663D01*
X94725Y197093D01*
X94776Y197350D01*
D02*
G37*
G36*
X93250D02*
X92224D01*
X92275Y197093D01*
X92563Y196663D01*
X92993Y196375D01*
X93250Y196324D01*
Y197350D01*
D02*
G37*
G36*
X226650Y196150D02*
X225624D01*
X225675Y195893D01*
X225963Y195463D01*
X226393Y195175D01*
X226650Y195124D01*
Y196150D01*
D02*
G37*
G36*
X2450Y193276D02*
Y192250D01*
X3476D01*
X3425Y192507D01*
X3137Y192937D01*
X2707Y193225D01*
X2450Y193276D01*
D02*
G37*
G36*
X226650Y192576D02*
X226393Y192525D01*
X225963Y192237D01*
X225675Y191807D01*
X225624Y191550D01*
X226650D01*
Y192576D01*
D02*
G37*
G36*
X82850Y192376D02*
Y191350D01*
X83876D01*
X83825Y191607D01*
X83537Y192037D01*
X83107Y192325D01*
X82850Y192376D01*
D02*
G37*
G36*
X82350D02*
X82093Y192325D01*
X81663Y192037D01*
X81375Y191607D01*
X81324Y191350D01*
X82350D01*
Y192376D01*
D02*
G37*
G36*
X3476Y191750D02*
X2450D01*
Y190724D01*
X2707Y190775D01*
X3137Y191063D01*
X3425Y191493D01*
X3476Y191750D01*
D02*
G37*
G36*
X226650Y191050D02*
X225624D01*
X225675Y190793D01*
X225963Y190363D01*
X226393Y190075D01*
X226650Y190024D01*
Y191050D01*
D02*
G37*
G36*
X83876Y190850D02*
X82850D01*
Y189824D01*
X83107Y189875D01*
X83537Y190163D01*
X83825Y190593D01*
X83876Y190850D01*
D02*
G37*
G36*
X82350D02*
X81324D01*
X81375Y190593D01*
X81663Y190163D01*
X82093Y189875D01*
X82350Y189824D01*
Y190850D01*
D02*
G37*
G36*
X226650Y186876D02*
X226393Y186825D01*
X225963Y186537D01*
X225675Y186107D01*
X225624Y185850D01*
X226650D01*
Y186876D01*
D02*
G37*
G36*
X2450Y185476D02*
Y184450D01*
X3476D01*
X3425Y184707D01*
X3137Y185137D01*
X2707Y185425D01*
X2450Y185476D01*
D02*
G37*
G36*
X226650Y185350D02*
X225624D01*
X225675Y185093D01*
X225963Y184663D01*
X226393Y184375D01*
X226650Y184324D01*
Y185350D01*
D02*
G37*
G36*
X33900Y186624D02*
X33432Y186530D01*
X33035Y186265D01*
X32770Y185868D01*
X32677Y185400D01*
X32770Y184932D01*
X32849Y184814D01*
X32581Y184314D01*
X16638D01*
X16302Y184692D01*
X16323Y184800D01*
X16230Y185268D01*
X15965Y185665D01*
X15568Y185930D01*
X15100Y186023D01*
X14632Y185930D01*
X14235Y185665D01*
X13970Y185268D01*
X13877Y184800D01*
X13970Y184332D01*
X14235Y183935D01*
X14632Y183670D01*
X15100Y183577D01*
X15279Y183612D01*
X15795Y183095D01*
X16027Y182941D01*
X16300Y182886D01*
X39704D01*
X40086Y182504D01*
Y174000D01*
X40141Y173727D01*
X40295Y173495D01*
X55964Y157827D01*
X56195Y157672D01*
X56468Y157618D01*
X62380D01*
X62580Y157484D01*
X62931Y157414D01*
X63283Y157484D01*
X63580Y157683D01*
X63627Y157752D01*
X64205D01*
X64251Y157683D01*
X64549Y157484D01*
X64900Y157414D01*
X65251Y157484D01*
X65549Y157683D01*
X65595Y157752D01*
X66173D01*
X66220Y157683D01*
X66517Y157484D01*
X66868Y157414D01*
X66997Y157439D01*
X67311Y157010D01*
X67229Y156600D01*
X67311Y156190D01*
X67543Y155843D01*
X67890Y155611D01*
X68300Y155529D01*
X68710Y155611D01*
X69057Y155843D01*
X69289Y156190D01*
X69371Y156600D01*
X69289Y157010D01*
X69057Y157357D01*
X68710Y157589D01*
X68300Y157671D01*
X68081Y157627D01*
X67883Y157819D01*
X67727Y158036D01*
X67786Y158332D01*
X67716Y158683D01*
X67582Y158883D01*
Y160532D01*
X67528Y160805D01*
X67373Y161036D01*
X64966Y163443D01*
X65141Y163975D01*
X65349Y164017D01*
X65729Y164271D01*
X65983Y164651D01*
X66023Y164850D01*
X64900D01*
Y165100D01*
X64650D01*
Y166223D01*
X64451Y166183D01*
X64071Y165929D01*
X63817Y165549D01*
X63775Y165341D01*
X63486Y165196D01*
X63248Y165143D01*
X63073Y165259D01*
X62800Y165314D01*
X58196D01*
X49488Y174021D01*
X49523Y174200D01*
X49430Y174668D01*
X49165Y175065D01*
X48768Y175330D01*
X48300Y175424D01*
X47832Y175330D01*
X47435Y175065D01*
X47170Y174668D01*
X47083Y174233D01*
X46951Y174148D01*
X46606Y174004D01*
X45314Y175296D01*
Y178134D01*
X45465Y178235D01*
X45730Y178632D01*
X45823Y179100D01*
X45730Y179568D01*
X45465Y179965D01*
X45068Y180230D01*
X44600Y180324D01*
X44132Y180230D01*
X43735Y179965D01*
X43470Y179568D01*
X43376Y179100D01*
X43470Y178632D01*
X43735Y178235D01*
X43886Y178134D01*
Y175030D01*
X43818Y174969D01*
X43418Y174791D01*
X42814Y175396D01*
Y183500D01*
X42759Y183773D01*
X42605Y184005D01*
X40705Y185905D01*
X40473Y186059D01*
X40200Y186114D01*
X34866D01*
X34765Y186265D01*
X34368Y186530D01*
X33900Y186624D01*
D02*
G37*
G36*
X3476Y183950D02*
X2450D01*
Y182924D01*
X2707Y182975D01*
X3137Y183263D01*
X3425Y183693D01*
X3476Y183950D01*
D02*
G37*
G36*
X226650Y180676D02*
X226393Y180625D01*
X225963Y180337D01*
X225675Y179907D01*
X225624Y179650D01*
X226650D01*
Y180676D01*
D02*
G37*
G36*
Y179150D02*
X225624D01*
X225675Y178893D01*
X225963Y178463D01*
X226393Y178175D01*
X226650Y178124D01*
Y179150D01*
D02*
G37*
G36*
X2450Y177676D02*
Y176650D01*
X3476D01*
X3425Y176907D01*
X3137Y177337D01*
X2707Y177625D01*
X2450Y177676D01*
D02*
G37*
G36*
X3476Y176150D02*
X2450D01*
Y175124D01*
X2707Y175175D01*
X3137Y175463D01*
X3425Y175893D01*
X3476Y176150D01*
D02*
G37*
G36*
X226650Y174976D02*
X226393Y174925D01*
X225963Y174637D01*
X225675Y174207D01*
X225624Y173950D01*
X226650D01*
Y174976D01*
D02*
G37*
G36*
Y173450D02*
X225624D01*
X225675Y173193D01*
X225963Y172763D01*
X226393Y172475D01*
X226650Y172424D01*
Y173450D01*
D02*
G37*
G36*
Y171176D02*
X226393Y171125D01*
X225963Y170837D01*
X225675Y170407D01*
X225624Y170150D01*
X226650D01*
Y171176D01*
D02*
G37*
G36*
Y169650D02*
X225624D01*
X225675Y169393D01*
X225963Y168963D01*
X226393Y168675D01*
X226650Y168624D01*
Y169650D01*
D02*
G37*
G36*
X218737Y168788D02*
Y167763D01*
X219763D01*
X219712Y168020D01*
X219425Y168450D01*
X218995Y168737D01*
X218737Y168788D01*
D02*
G37*
G36*
X218237D02*
X217980Y168737D01*
X217550Y168450D01*
X217263Y168020D01*
X217212Y167763D01*
X218237D01*
Y168788D01*
D02*
G37*
G36*
X192163Y168488D02*
Y167463D01*
X193188D01*
X193137Y167720D01*
X192850Y168150D01*
X192420Y168437D01*
X192163Y168488D01*
D02*
G37*
G36*
X191663D02*
X191405Y168437D01*
X190975Y168150D01*
X190688Y167720D01*
X190637Y167463D01*
X191663D01*
Y168488D01*
D02*
G37*
G36*
X219763Y167263D02*
X218737D01*
Y166237D01*
X218995Y166288D01*
X219425Y166575D01*
X219712Y167005D01*
X219763Y167263D01*
D02*
G37*
G36*
X218237D02*
X217212D01*
X217263Y167005D01*
X217550Y166575D01*
X217980Y166288D01*
X218237Y166237D01*
Y167263D01*
D02*
G37*
G36*
X193188Y166963D02*
X192163D01*
Y165937D01*
X192420Y165988D01*
X192850Y166275D01*
X193137Y166705D01*
X193188Y166963D01*
D02*
G37*
G36*
X191663D02*
X190637D01*
X190688Y166705D01*
X190975Y166275D01*
X191405Y165988D01*
X191663Y165937D01*
Y166963D01*
D02*
G37*
G36*
X147450Y166776D02*
Y165750D01*
X148476D01*
X148425Y166007D01*
X148137Y166437D01*
X147707Y166725D01*
X147450Y166776D01*
D02*
G37*
G36*
X146950D02*
X146693Y166725D01*
X146263Y166437D01*
X145975Y166007D01*
X145924Y165750D01*
X146950D01*
Y166776D01*
D02*
G37*
G36*
X65150Y166223D02*
Y165350D01*
X66023D01*
X65983Y165549D01*
X65729Y165929D01*
X65349Y166183D01*
X65150Y166223D01*
D02*
G37*
G36*
X177200Y167623D02*
X176732Y167530D01*
X176335Y167265D01*
X176070Y166868D01*
X175977Y166400D01*
X176070Y165932D01*
X176335Y165535D01*
X176732Y165270D01*
X177200Y165176D01*
X177668Y165270D01*
X178065Y165535D01*
X178330Y165932D01*
X178424Y166400D01*
X178330Y166868D01*
X178065Y167265D01*
X177668Y167530D01*
X177200Y167623D01*
D02*
G37*
G36*
X2450Y166076D02*
Y165050D01*
X3476D01*
X3425Y165307D01*
X3137Y165737D01*
X2707Y166025D01*
X2450Y166076D01*
D02*
G37*
G36*
X226650Y165476D02*
X226393Y165425D01*
X225963Y165137D01*
X225675Y164707D01*
X225624Y164450D01*
X226650D01*
Y165476D01*
D02*
G37*
G36*
X148476Y165250D02*
X147450D01*
Y164224D01*
X147707Y164275D01*
X148137Y164563D01*
X148425Y164993D01*
X148476Y165250D01*
D02*
G37*
G36*
X146950D02*
X145924D01*
X145975Y164993D01*
X146263Y164563D01*
X146693Y164275D01*
X146950Y164224D01*
Y165250D01*
D02*
G37*
G36*
X3476Y164550D02*
X2450D01*
Y163524D01*
X2707Y163575D01*
X3137Y163863D01*
X3425Y164293D01*
X3476Y164550D01*
D02*
G37*
G36*
X226650Y163950D02*
X225624D01*
X225675Y163693D01*
X225963Y163263D01*
X226393Y162975D01*
X226650Y162924D01*
Y163950D01*
D02*
G37*
G36*
Y161076D02*
X226393Y161025D01*
X225963Y160737D01*
X225675Y160307D01*
X225624Y160050D01*
X226650D01*
Y161076D01*
D02*
G37*
G36*
Y159550D02*
X225624D01*
X225675Y159293D01*
X225963Y158863D01*
X226393Y158575D01*
X226650Y158524D01*
Y159550D01*
D02*
G37*
G36*
X92000Y159824D02*
X91532Y159730D01*
X91135Y159465D01*
X90870Y159068D01*
X90776Y158600D01*
X90870Y158132D01*
X91135Y157735D01*
X91532Y157470D01*
X92000Y157377D01*
X92468Y157470D01*
X92865Y157735D01*
X93130Y158132D01*
X93224Y158600D01*
X93130Y159068D01*
X92865Y159465D01*
X92468Y159730D01*
X92000Y159824D01*
D02*
G37*
G36*
X2450Y158276D02*
Y157250D01*
X3476D01*
X3425Y157507D01*
X3137Y157937D01*
X2707Y158225D01*
X2450Y158276D01*
D02*
G37*
G36*
X3476Y156750D02*
X2450D01*
Y155724D01*
X2707Y155775D01*
X3137Y156063D01*
X3425Y156493D01*
X3476Y156750D01*
D02*
G37*
G36*
X83900Y158124D02*
X83432Y158030D01*
X83035Y157765D01*
X82770Y157368D01*
X82677Y156900D01*
X82770Y156432D01*
X83035Y156035D01*
X83432Y155770D01*
X83900Y155676D01*
X84368Y155770D01*
X84765Y156035D01*
X85030Y156432D01*
X85123Y156900D01*
X85030Y157368D01*
X84765Y157765D01*
X84368Y158030D01*
X83900Y158124D01*
D02*
G37*
G36*
X226650Y156676D02*
X226393Y156625D01*
X225963Y156337D01*
X225675Y155907D01*
X225624Y155650D01*
X226650D01*
Y156676D01*
D02*
G37*
G36*
X190247Y157170D02*
X189896Y157101D01*
X189598Y156902D01*
X189399Y156604D01*
X189330Y156253D01*
X189399Y155902D01*
X189598Y155604D01*
X189896Y155405D01*
X190247Y155335D01*
X190598Y155405D01*
X190896Y155604D01*
X191095Y155902D01*
X191165Y156253D01*
X191095Y156604D01*
X190896Y156902D01*
X190598Y157101D01*
X190247Y157170D01*
D02*
G37*
G36*
X222953Y157576D02*
X222484Y157483D01*
X222088Y157218D01*
X221822Y156821D01*
X221729Y156353D01*
X221822Y155885D01*
X222088Y155488D01*
X222484Y155222D01*
X222953Y155129D01*
X223421Y155222D01*
X223818Y155488D01*
X224083Y155885D01*
X224176Y156353D01*
X224083Y156821D01*
X223818Y157218D01*
X223421Y157483D01*
X222953Y157576D01*
D02*
G37*
G36*
X202653Y157476D02*
X202185Y157383D01*
X201788Y157118D01*
X201522Y156721D01*
X201429Y156253D01*
X201522Y155784D01*
X201788Y155388D01*
X202185Y155122D01*
X202653Y155029D01*
X203121Y155122D01*
X203518Y155388D01*
X203783Y155784D01*
X203876Y156253D01*
X203783Y156721D01*
X203518Y157118D01*
X203121Y157383D01*
X202653Y157476D01*
D02*
G37*
G36*
X135200Y157792D02*
X134849Y157723D01*
X134648Y157589D01*
X100748D01*
X100475Y157534D01*
X100243Y157379D01*
X78034Y135170D01*
X77879Y134939D01*
X77825Y134666D01*
Y128090D01*
X77691Y127890D01*
X77621Y127539D01*
X77691Y127187D01*
X77890Y126890D01*
X78187Y126691D01*
X78539Y126621D01*
X78890Y126691D01*
X78939Y126724D01*
X79372Y126818D01*
X79665Y126704D01*
X79762Y126639D01*
X80113Y126569D01*
X80465Y126639D01*
X80762Y126838D01*
X80961Y127136D01*
X81031Y127487D01*
X80961Y127838D01*
X80827Y128038D01*
Y133718D01*
X101696Y154586D01*
X134648D01*
X134849Y154452D01*
X135200Y154382D01*
X135551Y154452D01*
X135849Y154651D01*
X136048Y154949D01*
X136118Y155300D01*
X136048Y155651D01*
X135999Y155725D01*
X135890Y156087D01*
X135999Y156450D01*
X136048Y156524D01*
X136118Y156875D01*
X136048Y157226D01*
X135849Y157524D01*
X135551Y157723D01*
X135200Y157792D01*
D02*
G37*
G36*
X226650Y155150D02*
X225624D01*
X225675Y154893D01*
X225963Y154463D01*
X226393Y154175D01*
X226650Y154124D01*
Y155150D01*
D02*
G37*
G36*
X76050Y154676D02*
Y153650D01*
X77076D01*
X77025Y153907D01*
X76737Y154337D01*
X76307Y154625D01*
X76050Y154676D01*
D02*
G37*
G36*
X75550D02*
X75293Y154625D01*
X74863Y154337D01*
X74575Y153907D01*
X74524Y153650D01*
X75550D01*
Y154676D01*
D02*
G37*
G36*
X43700Y155771D02*
X43290Y155689D01*
X42943Y155457D01*
X42711Y155110D01*
X42629Y154700D01*
X42711Y154290D01*
X42943Y153943D01*
X43290Y153711D01*
X43700Y153629D01*
X44110Y153711D01*
X44457Y153943D01*
X44689Y154290D01*
X44771Y154700D01*
X44689Y155110D01*
X44457Y155457D01*
X44110Y155689D01*
X43700Y155771D01*
D02*
G37*
G36*
X39700D02*
X39290Y155689D01*
X38943Y155457D01*
X38711Y155110D01*
X38629Y154700D01*
X38711Y154290D01*
X38943Y153943D01*
X39290Y153711D01*
X39700Y153629D01*
X40110Y153711D01*
X40457Y153943D01*
X40689Y154290D01*
X40771Y154700D01*
X40689Y155110D01*
X40457Y155457D01*
X40110Y155689D01*
X39700Y155771D01*
D02*
G37*
G36*
X77076Y153150D02*
X76050D01*
Y152124D01*
X76307Y152175D01*
X76737Y152463D01*
X77025Y152893D01*
X77076Y153150D01*
D02*
G37*
G36*
X75550D02*
X74524D01*
X74575Y152893D01*
X74863Y152463D01*
X75293Y152175D01*
X75550Y152124D01*
Y153150D01*
D02*
G37*
G36*
X128900Y153218D02*
X128549Y153148D01*
X128251Y152949D01*
X128052Y152651D01*
X127982Y152300D01*
X128052Y151949D01*
X128251Y151651D01*
X128549Y151452D01*
X128900Y151382D01*
X129251Y151452D01*
X129549Y151651D01*
X129748Y151949D01*
X129818Y152300D01*
X129748Y152651D01*
X129549Y152949D01*
X129251Y153148D01*
X128900Y153218D01*
D02*
G37*
G36*
X226650Y152276D02*
X226393Y152225D01*
X225963Y151937D01*
X225675Y151507D01*
X225624Y151250D01*
X226650D01*
Y152276D01*
D02*
G37*
G36*
X57050Y151976D02*
Y150950D01*
X58076D01*
X58025Y151207D01*
X57737Y151637D01*
X57307Y151925D01*
X57050Y151976D01*
D02*
G37*
G36*
X56550D02*
X56293Y151925D01*
X55863Y151637D01*
X55575Y151207D01*
X55524Y150950D01*
X56550D01*
Y151976D01*
D02*
G37*
G36*
X226650Y150750D02*
X225624D01*
X225675Y150493D01*
X225963Y150063D01*
X226393Y149775D01*
X226650Y149724D01*
Y150750D01*
D02*
G37*
G36*
X2450Y150476D02*
Y149450D01*
X3476D01*
X3425Y149707D01*
X3137Y150137D01*
X2707Y150425D01*
X2450Y150476D01*
D02*
G37*
G36*
X190553Y151265D02*
X190201Y151195D01*
X189904Y150996D01*
X189705Y150698D01*
X189635Y150347D01*
X189705Y149996D01*
X189904Y149698D01*
X190201Y149499D01*
X190553Y149430D01*
X190904Y149499D01*
X191201Y149698D01*
X191401Y149996D01*
X191470Y150347D01*
X191401Y150698D01*
X191201Y150996D01*
X190904Y151195D01*
X190553Y151265D01*
D02*
G37*
G36*
X58076Y150450D02*
X57050D01*
Y149424D01*
X57307Y149475D01*
X57737Y149763D01*
X58025Y150193D01*
X58076Y150450D01*
D02*
G37*
G36*
X56550D02*
X55524D01*
X55575Y150193D01*
X55863Y149763D01*
X56293Y149475D01*
X56550Y149424D01*
Y150450D01*
D02*
G37*
G36*
X120700Y151926D02*
X120193Y151825D01*
X119763Y151537D01*
X119475Y151107D01*
X119457Y151015D01*
X116461Y148019D01*
X116357Y147976D01*
X115802Y148067D01*
X115763Y148126D01*
X115818Y148400D01*
X115748Y148751D01*
X115549Y149049D01*
X115251Y149248D01*
X114900Y149318D01*
X114549Y149248D01*
X114251Y149049D01*
X114052Y148751D01*
X113982Y148400D01*
X114052Y148049D01*
X114186Y147848D01*
Y136286D01*
X114143Y136257D01*
X113911Y135910D01*
X113829Y135500D01*
X113911Y135090D01*
X114143Y134743D01*
X114490Y134511D01*
X114900Y134429D01*
X115227Y134495D01*
X115524Y134346D01*
X115727Y134189D01*
Y122585D01*
X115675Y122507D01*
X115575Y122000D01*
X115675Y121493D01*
X115963Y121063D01*
X116393Y120775D01*
X116900Y120675D01*
X117407Y120775D01*
X117837Y121063D01*
X118125Y121493D01*
X118226Y122000D01*
X118125Y122507D01*
X118072Y122585D01*
Y146314D01*
X121115Y149357D01*
X121207Y149375D01*
X121637Y149663D01*
X121925Y150093D01*
X122026Y150600D01*
X121925Y151107D01*
X121637Y151537D01*
X121207Y151825D01*
X120700Y151926D01*
D02*
G37*
G36*
X3476Y148950D02*
X2450D01*
Y147924D01*
X2707Y147975D01*
X3137Y148263D01*
X3425Y148693D01*
X3476Y148950D01*
D02*
G37*
G36*
X226650Y148476D02*
X226393Y148425D01*
X225963Y148137D01*
X225675Y147707D01*
X225624Y147450D01*
X226650D01*
Y148476D01*
D02*
G37*
G36*
X112200Y149218D02*
X111849Y149148D01*
X111551Y148949D01*
X111352Y148651D01*
X111282Y148300D01*
X111352Y147949D01*
X111551Y147651D01*
X111849Y147452D01*
X112200Y147382D01*
X112551Y147452D01*
X112849Y147651D01*
X113048Y147949D01*
X113118Y148300D01*
X113048Y148651D01*
X112849Y148949D01*
X112551Y149148D01*
X112200Y149218D01*
D02*
G37*
G36*
X126198Y148726D02*
X125729Y148633D01*
X125332Y148368D01*
X125067Y147971D01*
X124974Y147502D01*
X125067Y147034D01*
X125332Y146637D01*
X125729Y146372D01*
X126198Y146279D01*
X126666Y146372D01*
X127063Y146637D01*
X127328Y147034D01*
X127421Y147502D01*
X127328Y147971D01*
X127063Y148368D01*
X126666Y148633D01*
X126198Y148726D01*
D02*
G37*
G36*
X190700Y148018D02*
X190349Y147948D01*
X190051Y147749D01*
X189852Y147451D01*
X189782Y147100D01*
X189852Y146749D01*
X190051Y146451D01*
X190349Y146252D01*
X190700Y146182D01*
X191051Y146252D01*
X191349Y146451D01*
X191548Y146749D01*
X191618Y147100D01*
X191548Y147451D01*
X191349Y147749D01*
X191051Y147948D01*
X190700Y148018D01*
D02*
G37*
G36*
X130500D02*
X130149Y147948D01*
X129851Y147749D01*
X129652Y147451D01*
X129582Y147100D01*
X129652Y146749D01*
X129851Y146451D01*
X130149Y146252D01*
X130500Y146182D01*
X130851Y146252D01*
X131149Y146451D01*
X131348Y146749D01*
X131418Y147100D01*
X131348Y147451D01*
X131149Y147749D01*
X130851Y147948D01*
X130500Y148018D01*
D02*
G37*
G36*
X226650Y146950D02*
X225624D01*
X225675Y146693D01*
X225963Y146263D01*
X226393Y145975D01*
X226650Y145924D01*
Y146950D01*
D02*
G37*
G36*
X218665Y147652D02*
X218314Y147582D01*
X218017Y147383D01*
X217818Y147086D01*
X217748Y146735D01*
X217818Y146384D01*
X218017Y146086D01*
X218314Y145887D01*
X218665Y145817D01*
X219017Y145887D01*
X219314Y146086D01*
X219513Y146384D01*
X219583Y146735D01*
X219513Y147086D01*
X219314Y147383D01*
X219017Y147582D01*
X218665Y147652D01*
D02*
G37*
G36*
X128652Y145673D02*
Y144648D01*
X129678D01*
X129627Y144905D01*
X129340Y145335D01*
X128910Y145622D01*
X128652Y145673D01*
D02*
G37*
G36*
X128152D02*
X127895Y145622D01*
X127465Y145335D01*
X127178Y144905D01*
X127127Y144648D01*
X128152D01*
Y145673D01*
D02*
G37*
G36*
X109150Y144560D02*
Y143534D01*
X110176D01*
X110125Y143791D01*
X109837Y144221D01*
X109407Y144509D01*
X109150Y144560D01*
D02*
G37*
G36*
X108650D02*
X108393Y144509D01*
X107963Y144221D01*
X107675Y143791D01*
X107624Y143534D01*
X108650D01*
Y144560D01*
D02*
G37*
G36*
X214335Y145252D02*
X213983Y145182D01*
X213686Y144983D01*
X213487Y144686D01*
X213417Y144335D01*
X213487Y143983D01*
X213686Y143686D01*
X213983Y143487D01*
X214335Y143417D01*
X214686Y143487D01*
X214984Y143686D01*
X215182Y143983D01*
X215252Y144335D01*
X215182Y144686D01*
X214984Y144983D01*
X214686Y145182D01*
X214335Y145252D01*
D02*
G37*
G36*
X38100Y145624D02*
X37632Y145530D01*
X37235Y145265D01*
X36970Y144868D01*
X36876Y144400D01*
X36970Y143932D01*
X37235Y143535D01*
X37632Y143270D01*
X38100Y143176D01*
X38568Y143270D01*
X38965Y143535D01*
X39230Y143932D01*
X39323Y144400D01*
X39230Y144868D01*
X38965Y145265D01*
X38568Y145530D01*
X38100Y145624D01*
D02*
G37*
G36*
X129678Y144148D02*
X128652D01*
Y143122D01*
X128910Y143173D01*
X129340Y143460D01*
X129627Y143890D01*
X129678Y144148D01*
D02*
G37*
G36*
X128152D02*
X127127D01*
X127178Y143890D01*
X127465Y143460D01*
X127895Y143173D01*
X128152Y143122D01*
Y144148D01*
D02*
G37*
G36*
X226650Y144076D02*
X226393Y144025D01*
X225963Y143737D01*
X225675Y143307D01*
X225624Y143050D01*
X226650D01*
Y144076D01*
D02*
G37*
G36*
X12150Y143976D02*
Y142950D01*
X13176D01*
X13125Y143207D01*
X12837Y143637D01*
X12407Y143925D01*
X12150Y143976D01*
D02*
G37*
G36*
X11650D02*
X11393Y143925D01*
X10963Y143637D01*
X10675Y143207D01*
X10624Y142950D01*
X11650D01*
Y143976D01*
D02*
G37*
G36*
X139150Y143474D02*
Y142550D01*
X140074D01*
X140030Y142768D01*
X139765Y143165D01*
X139368Y143430D01*
X139150Y143474D01*
D02*
G37*
G36*
X138650D02*
X138432Y143430D01*
X138035Y143165D01*
X137770Y142768D01*
X137726Y142550D01*
X138650D01*
Y143474D01*
D02*
G37*
G36*
X110176Y143034D02*
X109150D01*
Y142008D01*
X109407Y142060D01*
X109837Y142347D01*
X110125Y142777D01*
X110176Y143034D01*
D02*
G37*
G36*
X108650D02*
X107624D01*
X107675Y142777D01*
X107963Y142347D01*
X108393Y142060D01*
X108650Y142008D01*
Y143034D01*
D02*
G37*
G36*
X208500Y143718D02*
X208149Y143648D01*
X207851Y143449D01*
X207652Y143151D01*
X207582Y142800D01*
X207652Y142449D01*
X207851Y142151D01*
X208149Y141952D01*
X208500Y141882D01*
X208851Y141952D01*
X209149Y142151D01*
X209348Y142449D01*
X209418Y142800D01*
X209348Y143151D01*
X209149Y143449D01*
X208851Y143648D01*
X208500Y143718D01*
D02*
G37*
G36*
X2450Y142776D02*
Y141750D01*
X3476D01*
X3425Y142007D01*
X3137Y142437D01*
X2707Y142725D01*
X2450Y142776D01*
D02*
G37*
G36*
X226650Y142550D02*
X225624D01*
X225675Y142293D01*
X225963Y141863D01*
X226393Y141575D01*
X226650Y141524D01*
Y142550D01*
D02*
G37*
G36*
X13176Y142450D02*
X12150D01*
Y141424D01*
X12407Y141475D01*
X12837Y141763D01*
X13125Y142193D01*
X13176Y142450D01*
D02*
G37*
G36*
X11650D02*
X10624D01*
X10675Y142193D01*
X10963Y141763D01*
X11393Y141475D01*
X11650Y141424D01*
Y142450D01*
D02*
G37*
G36*
X140074Y142050D02*
X139150D01*
Y141126D01*
X139368Y141170D01*
X139765Y141435D01*
X140030Y141832D01*
X140074Y142050D01*
D02*
G37*
G36*
X138650D02*
X137726D01*
X137770Y141832D01*
X138035Y141435D01*
X138432Y141170D01*
X138650Y141126D01*
Y142050D01*
D02*
G37*
G36*
X132200Y145018D02*
X131849Y144948D01*
X131551Y144749D01*
X131352Y144451D01*
X131282Y144100D01*
X131352Y143749D01*
X131486Y143548D01*
Y140526D01*
X131440Y140508D01*
X130986Y140443D01*
X130849Y140649D01*
X130551Y140848D01*
X130200Y140918D01*
X129849Y140848D01*
X129551Y140649D01*
X129352Y140351D01*
X129282Y140000D01*
X129352Y139649D01*
X129551Y139351D01*
X129849Y139152D01*
X130200Y139082D01*
X130551Y139152D01*
X130849Y139351D01*
X130986Y139557D01*
X131440Y139492D01*
X131486Y139474D01*
Y136170D01*
X130049Y134732D01*
X129812Y134685D01*
X129514Y134486D01*
X129468Y134417D01*
X128890D01*
X128843Y134486D01*
X128735Y134558D01*
X128620Y135107D01*
X128630Y135159D01*
X128796Y135407D01*
X128854Y135700D01*
X128854Y135700D01*
Y136611D01*
X128854Y136611D01*
X128796Y136904D01*
X128630Y137152D01*
X128358Y137424D01*
X128436Y137866D01*
X128502Y137986D01*
X128749Y138151D01*
X128948Y138449D01*
X129018Y138800D01*
X128948Y139151D01*
X128749Y139449D01*
X128451Y139648D01*
X128100Y139718D01*
X127749Y139648D01*
X127551Y139516D01*
X127177Y139688D01*
X127091Y139763D01*
X127118Y139900D01*
X127048Y140251D01*
X126849Y140549D01*
X126551Y140748D01*
X126200Y140818D01*
X125849Y140748D01*
X125551Y140549D01*
X125352Y140251D01*
X125282Y139900D01*
X125352Y139549D01*
X125435Y139425D01*
Y138500D01*
X125494Y138207D01*
X125659Y137959D01*
X126425Y137193D01*
X126277Y136843D01*
X126195Y136717D01*
X125875Y136653D01*
X125577Y136454D01*
X125531Y136385D01*
X124953D01*
X124906Y136454D01*
X124609Y136653D01*
X124258Y136723D01*
X123906Y136653D01*
X123609Y136454D01*
X121651Y134497D01*
X121452Y134199D01*
X121382Y133848D01*
Y130500D01*
X121452Y130149D01*
X121651Y129851D01*
X121982Y129520D01*
Y129280D01*
X119651Y126949D01*
X119452Y126651D01*
X119382Y126300D01*
Y125050D01*
X119363Y125037D01*
X119075Y124607D01*
X118974Y124100D01*
X119075Y123593D01*
X119363Y123163D01*
X119793Y122875D01*
X120300Y122775D01*
X120807Y122875D01*
X121237Y123163D01*
X121525Y123593D01*
X121625Y124100D01*
X121525Y124607D01*
X121237Y125037D01*
X121218Y125050D01*
Y125920D01*
X122896Y127599D01*
X123064Y127593D01*
X123480Y127475D01*
X123609Y127283D01*
X123906Y127084D01*
X124258Y127014D01*
X124609Y127084D01*
X124906Y127283D01*
X124953Y127352D01*
X125531D01*
X125577Y127283D01*
X125875Y127084D01*
X126226Y127014D01*
X126577Y127084D01*
X126875Y127283D01*
X126921Y127352D01*
X127499D01*
X127546Y127283D01*
X127843Y127084D01*
X128194Y127014D01*
X128546Y127084D01*
X128843Y127283D01*
X128986Y127497D01*
X129371Y127457D01*
X129486Y127413D01*
Y126100D01*
X129541Y125827D01*
X129695Y125595D01*
X129927Y125441D01*
X130200Y125386D01*
X131249D01*
X131401Y124886D01*
X131266Y124797D01*
X131001Y124400D01*
X130958Y124181D01*
X133305D01*
X133262Y124400D01*
X132997Y124797D01*
X132862Y124886D01*
X133014Y125386D01*
X176865D01*
X176993Y125187D01*
X177082Y124886D01*
X176870Y124568D01*
X176777Y124100D01*
X176870Y123632D01*
X177135Y123235D01*
X177532Y122970D01*
X178000Y122877D01*
X178468Y122970D01*
X178865Y123235D01*
X179130Y123632D01*
X179224Y124100D01*
X179130Y124568D01*
X178918Y124886D01*
X179007Y125187D01*
X179135Y125386D01*
X209348D01*
X209549Y125252D01*
X209900Y125182D01*
X210251Y125252D01*
X210549Y125451D01*
X210748Y125749D01*
X210818Y126100D01*
X210748Y126451D01*
X210549Y126749D01*
X210419Y126835D01*
X210418Y126839D01*
X210413Y127374D01*
X210419Y127391D01*
X210473Y127427D01*
X210628Y127658D01*
X210682Y127931D01*
Y132801D01*
X210848Y133049D01*
X210918Y133400D01*
X210848Y133751D01*
X210649Y134049D01*
X210351Y134248D01*
X210000Y134318D01*
X209649Y134248D01*
X209351Y134049D01*
X209152Y133751D01*
X209082Y133400D01*
X209152Y133049D01*
X209255Y132895D01*
Y128645D01*
X188065D01*
X188016Y129145D01*
X188051Y129152D01*
X188349Y129351D01*
X188435Y129480D01*
X188949Y129529D01*
X189011Y129511D01*
X189051Y129451D01*
X189349Y129252D01*
X189700Y129182D01*
X190051Y129252D01*
X190349Y129451D01*
X190548Y129749D01*
X190618Y130100D01*
X190548Y130451D01*
X190414Y130652D01*
Y133248D01*
X190548Y133449D01*
X190618Y133800D01*
X190548Y134151D01*
X190349Y134449D01*
X190051Y134648D01*
X189700Y134718D01*
X189349Y134648D01*
X189051Y134449D01*
X188914Y134243D01*
X188460Y134308D01*
X188414Y134326D01*
Y135248D01*
X188548Y135449D01*
X188618Y135800D01*
X188548Y136151D01*
X188349Y136449D01*
X188051Y136648D01*
X187700Y136718D01*
X187349Y136648D01*
X187051Y136449D01*
X186852Y136151D01*
X186782Y135800D01*
X186852Y135449D01*
X186986Y135248D01*
Y131058D01*
X186643Y130813D01*
X186486Y130761D01*
X186200Y130818D01*
X185849Y130748D01*
X185648Y130614D01*
X134652D01*
X134451Y130748D01*
X134100Y130818D01*
X133749Y130748D01*
X133451Y130549D01*
X132972Y130671D01*
X132902Y130740D01*
X132780Y131220D01*
X132979Y131517D01*
X133049Y131869D01*
X132979Y132220D01*
X132780Y132517D01*
X132711Y132564D01*
Y133142D01*
X132780Y133188D01*
X132979Y133486D01*
X133049Y133837D01*
X133044Y133863D01*
X135041Y135859D01*
X135041Y135859D01*
X135206Y136107D01*
X135265Y136400D01*
Y141525D01*
X135348Y141649D01*
X135418Y142000D01*
X135348Y142351D01*
X135149Y142649D01*
X134851Y142848D01*
X134500Y142918D01*
X134149Y142848D01*
X133851Y142649D01*
X133652Y142351D01*
X133582Y142000D01*
X133652Y141649D01*
X133735Y141525D01*
Y136717D01*
X133376Y136357D01*
X132914Y136548D01*
Y143548D01*
X133048Y143749D01*
X133118Y144100D01*
X133048Y144451D01*
X132849Y144749D01*
X132551Y144948D01*
X132200Y145018D01*
D02*
G37*
G36*
X3476Y141250D02*
X2450D01*
Y140224D01*
X2707Y140275D01*
X3137Y140563D01*
X3425Y140993D01*
X3476Y141250D01*
D02*
G37*
G36*
X73700Y140471D02*
X73290Y140389D01*
X72943Y140157D01*
X72711Y139810D01*
X72629Y139400D01*
X72672Y139187D01*
X72352Y138790D01*
X72287Y138753D01*
X72200Y138771D01*
X71790Y138689D01*
X71443Y138457D01*
X71211Y138110D01*
X71129Y137700D01*
X71211Y137290D01*
X71443Y136943D01*
X71790Y136711D01*
X72200Y136629D01*
X72610Y136711D01*
X72957Y136943D01*
X73189Y137290D01*
X73271Y137700D01*
X73228Y137914D01*
X73548Y138310D01*
X73613Y138347D01*
X73700Y138329D01*
X74110Y138411D01*
X74457Y138643D01*
X74689Y138990D01*
X74771Y139400D01*
X74689Y139810D01*
X74457Y140157D01*
X74110Y140389D01*
X73700Y140471D01*
D02*
G37*
G36*
X226650Y139676D02*
X226393Y139625D01*
X225963Y139337D01*
X225675Y138907D01*
X225624Y138650D01*
X226650D01*
Y139676D01*
D02*
G37*
G36*
X92000Y140471D02*
X91590Y140389D01*
X91243Y140157D01*
X91011Y139810D01*
X90929Y139400D01*
X91011Y138990D01*
X91243Y138643D01*
X91590Y138411D01*
X92000Y138329D01*
X92410Y138411D01*
X92757Y138643D01*
X92989Y138990D01*
X93071Y139400D01*
X92989Y139810D01*
X92757Y140157D01*
X92410Y140389D01*
X92000Y140471D01*
D02*
G37*
G36*
X226650Y138150D02*
X225624D01*
X225675Y137893D01*
X225963Y137463D01*
X226393Y137175D01*
X226650Y137124D01*
Y138150D01*
D02*
G37*
G36*
X96300Y138771D02*
X95890Y138689D01*
X95543Y138457D01*
X95311Y138110D01*
X95229Y137700D01*
X95311Y137290D01*
X95543Y136943D01*
X95890Y136711D01*
X96300Y136629D01*
X96710Y136711D01*
X97057Y136943D01*
X97289Y137290D01*
X97371Y137700D01*
X97289Y138110D01*
X97057Y138457D01*
X96710Y138689D01*
X96300Y138771D01*
D02*
G37*
G36*
X226650Y135276D02*
X226393Y135225D01*
X225963Y134937D01*
X225675Y134507D01*
X225624Y134250D01*
X226650D01*
Y135276D01*
D02*
G37*
G36*
X5916Y134085D02*
Y133059D01*
X6942D01*
X6891Y133316D01*
X6603Y133746D01*
X6173Y134033D01*
X5916Y134085D01*
D02*
G37*
G36*
X5416D02*
X5159Y134033D01*
X4729Y133746D01*
X4441Y133316D01*
X4390Y133059D01*
X5416D01*
Y134085D01*
D02*
G37*
G36*
X88450Y135373D02*
X87982Y135280D01*
X87585Y135015D01*
X87320Y134618D01*
X87226Y134150D01*
X87320Y133682D01*
X87585Y133285D01*
X87982Y133020D01*
X88450Y132926D01*
X88918Y133020D01*
X89315Y133285D01*
X89580Y133682D01*
X89674Y134150D01*
X89580Y134618D01*
X89315Y135015D01*
X88918Y135280D01*
X88450Y135373D01*
D02*
G37*
G36*
X226650Y133750D02*
X225624D01*
X225675Y133493D01*
X225963Y133063D01*
X226393Y132775D01*
X226650Y132724D01*
Y133750D01*
D02*
G37*
G36*
X14185Y133016D02*
X13927Y132965D01*
X13497Y132677D01*
X13485Y132659D01*
X12884D01*
X12872Y132677D01*
X12442Y132965D01*
X12185Y133016D01*
Y131740D01*
X11685D01*
Y133016D01*
X11427Y132965D01*
X11119Y132759D01*
X10785Y132709D01*
X10450Y132759D01*
X10142Y132965D01*
X9885Y133016D01*
Y131740D01*
X9635D01*
Y131490D01*
X8359D01*
X8400Y131285D01*
X8379Y131187D01*
X8108Y130785D01*
X3895D01*
X3781Y130864D01*
X3772Y130877D01*
X3342Y131165D01*
X3085Y131216D01*
Y129940D01*
X2835D01*
Y129690D01*
X1559D01*
X1610Y129433D01*
X1897Y129003D01*
Y128677D01*
X1610Y128247D01*
X1559Y127990D01*
X2835D01*
Y127490D01*
X1559D01*
X1610Y127233D01*
X1897Y126803D01*
Y126477D01*
X1610Y126047D01*
X1559Y125790D01*
X2835D01*
Y125290D01*
X1559D01*
X1610Y125033D01*
X1897Y124603D01*
Y124277D01*
X1610Y123847D01*
X1559Y123590D01*
X2835D01*
Y123090D01*
X1559D01*
X1610Y122833D01*
X1897Y122403D01*
Y122077D01*
X1610Y121647D01*
X1559Y121390D01*
X2835D01*
Y120890D01*
X1559D01*
X1610Y120633D01*
X1897Y120203D01*
Y119877D01*
X1610Y119447D01*
X1559Y119190D01*
X2835D01*
Y118690D01*
X1559D01*
X1610Y118433D01*
X1897Y118003D01*
Y117677D01*
X1610Y117247D01*
X1559Y116990D01*
X2835D01*
Y116490D01*
X1559D01*
X1610Y116233D01*
X1897Y115803D01*
X1990Y115741D01*
Y115139D01*
X1897Y115077D01*
X1610Y114647D01*
X1559Y114390D01*
X2835D01*
Y114140D01*
X3085D01*
Y112864D01*
X3342Y112916D01*
X3395Y112951D01*
X3895Y112683D01*
Y111100D01*
X15706Y111100D01*
X16107Y110863D01*
X16327Y110716D01*
X16585Y110664D01*
Y111940D01*
X16835D01*
Y112190D01*
X18110D01*
X18059Y112447D01*
X17772Y112877D01*
X17679Y112940D01*
Y113541D01*
X17772Y113603D01*
X18059Y114033D01*
X18110Y114290D01*
X16835D01*
Y114790D01*
X18110D01*
X18059Y115047D01*
X17772Y115477D01*
Y115803D01*
X18059Y116233D01*
X18110Y116490D01*
X16835D01*
Y116990D01*
X18110D01*
X18059Y117247D01*
X17899Y117487D01*
X17812Y117840D01*
X17899Y118194D01*
X18059Y118433D01*
X18110Y118690D01*
X16835D01*
Y119190D01*
X18110D01*
X18059Y119447D01*
X17772Y119877D01*
X17679Y119939D01*
Y120541D01*
X17772Y120603D01*
X18059Y121033D01*
X18110Y121290D01*
X16835D01*
Y121790D01*
X18110D01*
X18059Y122047D01*
X17772Y122477D01*
Y122803D01*
X18059Y123233D01*
X18110Y123490D01*
X16835D01*
Y123990D01*
X18110D01*
X18059Y124247D01*
X17772Y124677D01*
X17679Y124740D01*
Y125341D01*
X17772Y125403D01*
X18059Y125833D01*
X18110Y126090D01*
X16835D01*
Y126590D01*
X18110D01*
X18059Y126847D01*
X17772Y127277D01*
X17679Y127339D01*
Y127941D01*
X17772Y128003D01*
X18059Y128433D01*
X18110Y128690D01*
X16835D01*
Y128940D01*
X16585D01*
Y130216D01*
X16327Y130165D01*
X16206Y130083D01*
X15753Y130325D01*
X15706Y130785D01*
X15706Y130785D01*
X15706Y130785D01*
X15670Y131285D01*
X15710Y131490D01*
X14435D01*
Y131740D01*
X14185D01*
Y133016D01*
D02*
G37*
G36*
X223053Y134476D02*
X222585Y134383D01*
X222188Y134118D01*
X221922Y133721D01*
X221829Y133253D01*
X221922Y132784D01*
X222188Y132388D01*
X222585Y132122D01*
X223053Y132029D01*
X223521Y132122D01*
X223918Y132388D01*
X224183Y132784D01*
X224276Y133253D01*
X224183Y133721D01*
X223918Y134118D01*
X223521Y134383D01*
X223053Y134476D01*
D02*
G37*
G36*
X202747D02*
X202279Y134383D01*
X201882Y134118D01*
X201617Y133721D01*
X201524Y133253D01*
X201617Y132784D01*
X201882Y132388D01*
X202279Y132122D01*
X202747Y132029D01*
X203216Y132122D01*
X203612Y132388D01*
X203878Y132784D01*
X203971Y133253D01*
X203878Y133721D01*
X203612Y134118D01*
X203216Y134383D01*
X202747Y134476D01*
D02*
G37*
G36*
X14685Y133016D02*
Y131990D01*
X15710D01*
X15659Y132247D01*
X15372Y132677D01*
X14942Y132965D01*
X14685Y133016D01*
D02*
G37*
G36*
X9385D02*
X9127Y132965D01*
X8697Y132677D01*
X8410Y132247D01*
X8359Y131990D01*
X9385D01*
Y133016D01*
D02*
G37*
G36*
X6942Y132559D02*
X5916D01*
Y131533D01*
X6173Y131584D01*
X6603Y131872D01*
X6891Y132302D01*
X6942Y132559D01*
D02*
G37*
G36*
X5416D02*
X4390D01*
X4441Y132302D01*
X4729Y131872D01*
X5159Y131584D01*
X5416Y131533D01*
Y132559D01*
D02*
G37*
G36*
X113531Y132786D02*
X113180Y132716D01*
X112883Y132517D01*
X112684Y132220D01*
X112614Y131869D01*
X112684Y131517D01*
X112883Y131220D01*
X113180Y131021D01*
X113531Y130951D01*
X113883Y131021D01*
X114180Y131220D01*
X114379Y131517D01*
X114449Y131869D01*
X114379Y132220D01*
X114180Y132517D01*
X113883Y132716D01*
X113531Y132786D01*
D02*
G37*
G36*
X2585Y131216D02*
X2327Y131165D01*
X1897Y130877D01*
X1610Y130447D01*
X1559Y130190D01*
X2585D01*
Y131216D01*
D02*
G37*
G36*
X226650Y130876D02*
X226393Y130825D01*
X225963Y130537D01*
X225675Y130107D01*
X225624Y129850D01*
X226650D01*
Y130876D01*
D02*
G37*
G36*
X102350Y130776D02*
Y129750D01*
X103376D01*
X103325Y130007D01*
X103037Y130437D01*
X102607Y130725D01*
X102350Y130776D01*
D02*
G37*
G36*
X101850D02*
X101593Y130725D01*
X101163Y130437D01*
X100875Y130007D01*
X100824Y129750D01*
X101850D01*
Y130776D01*
D02*
G37*
G36*
X17085Y130216D02*
Y129190D01*
X18110D01*
X18059Y129447D01*
X17772Y129877D01*
X17342Y130165D01*
X17085Y130216D01*
D02*
G37*
G36*
X97550Y129876D02*
Y128850D01*
X98576D01*
X98525Y129107D01*
X98237Y129537D01*
X97807Y129825D01*
X97550Y129876D01*
D02*
G37*
G36*
X97050D02*
X96793Y129825D01*
X96363Y129537D01*
X96075Y129107D01*
X96024Y128850D01*
X97050D01*
Y129876D01*
D02*
G37*
G36*
X226650Y129350D02*
X225624D01*
X225675Y129093D01*
X225963Y128663D01*
X226393Y128375D01*
X226650Y128324D01*
Y129350D01*
D02*
G37*
G36*
X103376Y129250D02*
X102350D01*
Y128224D01*
X102607Y128275D01*
X103037Y128563D01*
X103325Y128993D01*
X103376Y129250D01*
D02*
G37*
G36*
X101850D02*
X100824D01*
X100875Y128993D01*
X101163Y128563D01*
X101593Y128275D01*
X101850Y128224D01*
Y129250D01*
D02*
G37*
G36*
X98576Y128350D02*
X97550D01*
Y127324D01*
X97807Y127375D01*
X98237Y127663D01*
X98525Y128093D01*
X98576Y128350D01*
D02*
G37*
G36*
X97050D02*
X96024D01*
X96075Y128093D01*
X96363Y127663D01*
X96793Y127375D01*
X97050Y127324D01*
Y128350D01*
D02*
G37*
G36*
X81688Y126206D02*
X81337Y126136D01*
X81136Y126002D01*
X77452D01*
X77251Y126136D01*
X76900Y126206D01*
X76549Y126136D01*
X76251Y125937D01*
X76052Y125639D01*
X75982Y125288D01*
X76052Y124937D01*
X76251Y124639D01*
X76549Y124440D01*
X76900Y124371D01*
X77251Y124440D01*
X77452Y124574D01*
X81136D01*
X81337Y124440D01*
X81688Y124371D01*
X82039Y124440D01*
X82337Y124639D01*
X82536Y124937D01*
X82606Y125288D01*
X82536Y125639D01*
X82337Y125937D01*
X82039Y126136D01*
X81688Y126206D01*
D02*
G37*
G36*
X226650Y125776D02*
X226393Y125725D01*
X225963Y125437D01*
X225675Y125007D01*
X225624Y124750D01*
X226650D01*
Y125776D01*
D02*
G37*
G36*
X87987Y127918D02*
X87636Y127848D01*
X87339Y127649D01*
X87140Y127351D01*
X87070Y127000D01*
X87140Y126649D01*
X87339Y126351D01*
X87636Y126152D01*
X87987Y126082D01*
X88310Y126147D01*
X88558Y125966D01*
X88703Y125794D01*
X88645Y125500D01*
X88714Y125149D01*
X88913Y124851D01*
X89211Y124652D01*
X89562Y124582D01*
X89913Y124652D01*
X90211Y124851D01*
X90410Y125149D01*
X90480Y125500D01*
X90410Y125851D01*
X90211Y126149D01*
X89913Y126348D01*
X89562Y126418D01*
X89239Y126353D01*
X88992Y126534D01*
X88846Y126706D01*
X88905Y127000D01*
X88835Y127351D01*
X88636Y127649D01*
X88339Y127848D01*
X87987Y127918D01*
D02*
G37*
G36*
X41012Y126512D02*
X40544Y126419D01*
X40147Y126153D01*
X39881Y125756D01*
X39788Y125288D01*
X39881Y124820D01*
X40147Y124423D01*
X40544Y124158D01*
X41012Y124065D01*
X41480Y124158D01*
X41877Y124423D01*
X42142Y124820D01*
X42235Y125288D01*
X42142Y125756D01*
X41877Y126153D01*
X41480Y126419D01*
X41012Y126512D01*
D02*
G37*
G36*
X124507Y124616D02*
Y123693D01*
X125431D01*
X125388Y123911D01*
X125123Y124308D01*
X124726Y124573D01*
X124507Y124616D01*
D02*
G37*
G36*
X124007D02*
X123789Y124573D01*
X123392Y124308D01*
X123127Y123911D01*
X123084Y123693D01*
X124007D01*
Y124616D01*
D02*
G37*
G36*
X226650Y124250D02*
X225624D01*
X225675Y123993D01*
X225963Y123563D01*
X226393Y123275D01*
X226650Y123224D01*
Y124250D01*
D02*
G37*
G36*
X133305Y123681D02*
X132381D01*
Y122758D01*
X132600Y122801D01*
X132997Y123066D01*
X133262Y123463D01*
X133305Y123681D01*
D02*
G37*
G36*
X131881D02*
X130958D01*
X131001Y123463D01*
X131266Y123066D01*
X131663Y122801D01*
X131881Y122758D01*
Y123681D01*
D02*
G37*
G36*
X100000Y124823D02*
X99532Y124730D01*
X99135Y124465D01*
X98870Y124068D01*
X98777Y123600D01*
X98870Y123132D01*
X99135Y122735D01*
X99532Y122470D01*
X100000Y122377D01*
X100468Y122470D01*
X100865Y122735D01*
X101130Y123132D01*
X101224Y123600D01*
X101130Y124068D01*
X100865Y124465D01*
X100468Y124730D01*
X100000Y124823D01*
D02*
G37*
G36*
X125431Y123193D02*
X124507D01*
Y122269D01*
X124726Y122312D01*
X125123Y122577D01*
X125388Y122974D01*
X125431Y123193D01*
D02*
G37*
G36*
X124007D02*
X123084D01*
X123127Y122974D01*
X123392Y122577D01*
X123789Y122312D01*
X124007Y122269D01*
Y123193D01*
D02*
G37*
G36*
X63250Y122476D02*
Y121450D01*
X64276D01*
X64225Y121707D01*
X63937Y122137D01*
X63507Y122425D01*
X63250Y122476D01*
D02*
G37*
G36*
X62750D02*
X62493Y122425D01*
X62063Y122137D01*
X61775Y121707D01*
X61724Y121450D01*
X62750D01*
Y122476D01*
D02*
G37*
G36*
X226650Y121976D02*
X226393Y121925D01*
X225963Y121637D01*
X225675Y121207D01*
X225624Y120950D01*
X226650D01*
Y121976D01*
D02*
G37*
G36*
X64276Y120950D02*
X63250D01*
Y119924D01*
X63507Y119975D01*
X63937Y120263D01*
X64225Y120693D01*
X64276Y120950D01*
D02*
G37*
G36*
X62750D02*
X61724D01*
X61775Y120693D01*
X62063Y120263D01*
X62493Y119975D01*
X62750Y119924D01*
Y120950D01*
D02*
G37*
G36*
X226650Y120450D02*
X225624D01*
X225675Y120193D01*
X225963Y119763D01*
X226393Y119475D01*
X226650Y119424D01*
Y120450D01*
D02*
G37*
G36*
X179000Y119971D02*
X178590Y119889D01*
X178243Y119657D01*
X178011Y119310D01*
X177929Y118900D01*
X178011Y118490D01*
X178243Y118143D01*
X178590Y117911D01*
X179000Y117829D01*
X179410Y117911D01*
X179757Y118143D01*
X179989Y118490D01*
X180071Y118900D01*
X179989Y119310D01*
X179757Y119657D01*
X179410Y119889D01*
X179000Y119971D01*
D02*
G37*
G36*
X94537Y119271D02*
Y117737D01*
X96071D01*
X95981Y118189D01*
X95584Y118784D01*
X94989Y119181D01*
X94537Y119271D01*
D02*
G37*
G36*
X94037D02*
X93585Y119181D01*
X92989Y118784D01*
X92592Y118189D01*
X92502Y117737D01*
X94037D01*
Y119271D01*
D02*
G37*
G36*
X89812D02*
Y117737D01*
X91347D01*
X91257Y118189D01*
X90859Y118784D01*
X90264Y119181D01*
X89812Y119271D01*
D02*
G37*
G36*
X89312D02*
X88860Y119181D01*
X88265Y118784D01*
X87867Y118189D01*
X87778Y117737D01*
X89312D01*
Y119271D01*
D02*
G37*
G36*
X85088D02*
Y117737D01*
X86623D01*
X86533Y118189D01*
X86135Y118784D01*
X85540Y119181D01*
X85088Y119271D01*
D02*
G37*
G36*
X84588D02*
X84136Y119181D01*
X83541Y118784D01*
X83143Y118189D01*
X83053Y117737D01*
X84588D01*
Y119271D01*
D02*
G37*
G36*
X80363D02*
Y117737D01*
X81898D01*
X81808Y118189D01*
X81411Y118784D01*
X80815Y119181D01*
X80363Y119271D01*
D02*
G37*
G36*
X79863D02*
X79411Y119181D01*
X78816Y118784D01*
X78419Y118189D01*
X78329Y117737D01*
X79863D01*
Y119271D01*
D02*
G37*
G36*
X155650Y118476D02*
Y117450D01*
X156676D01*
X156625Y117707D01*
X156337Y118137D01*
X155907Y118425D01*
X155650Y118476D01*
D02*
G37*
G36*
X155150D02*
X154893Y118425D01*
X154463Y118137D01*
X154175Y117707D01*
X154124Y117450D01*
X155150D01*
Y118476D01*
D02*
G37*
G36*
X226750Y118176D02*
X226493Y118125D01*
X226063Y117837D01*
X225775Y117407D01*
X225724Y117150D01*
X226750D01*
Y118176D01*
D02*
G37*
G36*
X156676Y116950D02*
X155650D01*
Y115924D01*
X155907Y115975D01*
X156337Y116263D01*
X156625Y116693D01*
X156676Y116950D01*
D02*
G37*
G36*
X155150D02*
X154124D01*
X154175Y116693D01*
X154463Y116263D01*
X154893Y115975D01*
X155150Y115924D01*
Y116950D01*
D02*
G37*
G36*
X96071Y117237D02*
X94537D01*
Y115702D01*
X94989Y115792D01*
X95584Y116190D01*
X95981Y116785D01*
X96071Y117237D01*
D02*
G37*
G36*
X94037D02*
X92502D01*
X92592Y116785D01*
X92989Y116190D01*
X93585Y115792D01*
X94037Y115702D01*
Y117237D01*
D02*
G37*
G36*
X91347D02*
X89812D01*
Y115702D01*
X90264Y115792D01*
X90859Y116190D01*
X91257Y116785D01*
X91347Y117237D01*
D02*
G37*
G36*
X89312D02*
X87778D01*
X87867Y116785D01*
X88265Y116190D01*
X88860Y115792D01*
X89312Y115702D01*
Y117237D01*
D02*
G37*
G36*
X86623D02*
X85088D01*
Y115702D01*
X85540Y115792D01*
X86135Y116190D01*
X86533Y116785D01*
X86623Y117237D01*
D02*
G37*
G36*
X84588D02*
X83053D01*
X83143Y116785D01*
X83541Y116190D01*
X84136Y115792D01*
X84588Y115702D01*
Y117237D01*
D02*
G37*
G36*
X81898D02*
X80363D01*
Y115702D01*
X80815Y115792D01*
X81411Y116190D01*
X81808Y116785D01*
X81898Y117237D01*
D02*
G37*
G36*
X79863D02*
X78329D01*
X78419Y116785D01*
X78816Y116190D01*
X79411Y115792D01*
X79863Y115702D01*
Y117237D01*
D02*
G37*
G36*
X226750Y116650D02*
X225724D01*
X225775Y116393D01*
X226063Y115963D01*
X226493Y115675D01*
X226750Y115624D01*
Y116650D01*
D02*
G37*
G36*
X118100Y115255D02*
X117749Y115185D01*
X117451Y114986D01*
X117252Y114688D01*
X117182Y114337D01*
X117252Y113986D01*
X117451Y113688D01*
X117749Y113489D01*
X118100Y113419D01*
X118451Y113489D01*
X118749Y113688D01*
X118948Y113986D01*
X119018Y114337D01*
X118948Y114688D01*
X118749Y114986D01*
X118451Y115185D01*
X118100Y115255D01*
D02*
G37*
G36*
X42600Y120324D02*
X42132Y120230D01*
X41735Y119965D01*
X41470Y119568D01*
X41377Y119100D01*
X41470Y118632D01*
X41735Y118235D01*
X42132Y117970D01*
X42600Y117877D01*
X42958Y117948D01*
X43271Y117734D01*
X43397Y117588D01*
X43376Y117487D01*
X43470Y117018D01*
X43735Y116621D01*
X44132Y116356D01*
X44600Y116263D01*
X44742Y116291D01*
X45176Y115912D01*
X45177Y115907D01*
X45270Y115444D01*
X45535Y115047D01*
X45932Y114781D01*
X46400Y114688D01*
X46542Y114717D01*
X46976Y114337D01*
X46977Y114332D01*
X47070Y113869D01*
X47335Y113472D01*
X47732Y113207D01*
X48200Y113113D01*
X48668Y113207D01*
X49065Y113472D01*
X49330Y113869D01*
X49424Y114337D01*
X49330Y114805D01*
X49065Y115202D01*
X48668Y115467D01*
X48200Y115560D01*
X48058Y115532D01*
X47624Y115912D01*
X47623Y115917D01*
X47530Y116380D01*
X47265Y116777D01*
X46868Y117042D01*
X46400Y117135D01*
X46258Y117107D01*
X45824Y117486D01*
X45823Y117491D01*
X45730Y117955D01*
X45465Y118352D01*
X45068Y118617D01*
X44600Y118710D01*
X44242Y118639D01*
X43929Y118853D01*
X43803Y118999D01*
X43824Y119100D01*
X43730Y119568D01*
X43465Y119965D01*
X43068Y120230D01*
X42600Y120324D01*
D02*
G37*
G36*
X94537Y114547D02*
Y113012D01*
X96071D01*
X95981Y113464D01*
X95584Y114059D01*
X94989Y114457D01*
X94537Y114547D01*
D02*
G37*
G36*
X94037D02*
X93585Y114457D01*
X92989Y114059D01*
X92592Y113464D01*
X92502Y113012D01*
X94037D01*
Y114547D01*
D02*
G37*
G36*
X89812D02*
Y113012D01*
X91347D01*
X91257Y113464D01*
X90859Y114059D01*
X90264Y114457D01*
X89812Y114547D01*
D02*
G37*
G36*
X89312D02*
X88860Y114457D01*
X88265Y114059D01*
X87867Y113464D01*
X87778Y113012D01*
X89312D01*
Y114547D01*
D02*
G37*
G36*
X85088D02*
Y113012D01*
X86623D01*
X86533Y113464D01*
X86135Y114059D01*
X85540Y114457D01*
X85088Y114547D01*
D02*
G37*
G36*
X84588D02*
X84136Y114457D01*
X83541Y114059D01*
X83143Y113464D01*
X83053Y113012D01*
X84588D01*
Y114547D01*
D02*
G37*
G36*
X80363D02*
Y113012D01*
X81898D01*
X81808Y113464D01*
X81411Y114059D01*
X80815Y114457D01*
X80363Y114547D01*
D02*
G37*
G36*
X79863D02*
X79411Y114457D01*
X78816Y114059D01*
X78419Y113464D01*
X78329Y113012D01*
X79863D01*
Y114547D01*
D02*
G37*
G36*
X2585Y113890D02*
X1559D01*
X1610Y113633D01*
X1897Y113203D01*
X2327Y112916D01*
X2585Y112864D01*
Y113890D01*
D02*
G37*
G36*
X226750Y113776D02*
X226493Y113725D01*
X226063Y113437D01*
X225775Y113007D01*
X225724Y112750D01*
X226750D01*
Y113776D01*
D02*
G37*
G36*
X62150Y113676D02*
Y112650D01*
X63176D01*
X63125Y112907D01*
X62837Y113337D01*
X62407Y113625D01*
X62150Y113676D01*
D02*
G37*
G36*
X61650D02*
X61393Y113625D01*
X60963Y113337D01*
X60675Y112907D01*
X60624Y112650D01*
X61650D01*
Y113676D01*
D02*
G37*
G36*
X71800Y122424D02*
X71332Y122330D01*
X70935Y122065D01*
X70670Y121668D01*
X70577Y121200D01*
X70670Y120732D01*
X70935Y120335D01*
X71035Y120268D01*
Y113181D01*
X70990Y113113D01*
X70920Y112762D01*
X70990Y112411D01*
X71189Y112113D01*
X71487Y111914D01*
X71838Y111845D01*
X72189Y111914D01*
X72487Y112113D01*
X72686Y112411D01*
X72755Y112762D01*
X72686Y113113D01*
X72565Y113294D01*
Y120268D01*
X72665Y120335D01*
X72930Y120732D01*
X73023Y121200D01*
X72930Y121668D01*
X72665Y122065D01*
X72268Y122330D01*
X71800Y122424D01*
D02*
G37*
G36*
X106800Y116918D02*
X106449Y116848D01*
X106151Y116649D01*
X105952Y116351D01*
X105882Y116000D01*
X105952Y115649D01*
X106086Y115448D01*
Y113252D01*
X105952Y113051D01*
X105882Y112700D01*
X105952Y112349D01*
X106151Y112051D01*
X106449Y111852D01*
X106800Y111782D01*
X107151Y111852D01*
X107449Y112051D01*
X107648Y112349D01*
X107718Y112700D01*
X107648Y113051D01*
X107514Y113252D01*
Y115448D01*
X107648Y115649D01*
X107718Y116000D01*
X107648Y116351D01*
X107449Y116649D01*
X107151Y116848D01*
X106800Y116918D01*
D02*
G37*
G36*
X226750Y112250D02*
X225724D01*
X225775Y111993D01*
X226063Y111563D01*
X226493Y111275D01*
X226750Y111224D01*
Y112250D01*
D02*
G37*
G36*
X63176Y112150D02*
X62150D01*
Y111124D01*
X62407Y111175D01*
X62837Y111463D01*
X63125Y111893D01*
X63176Y112150D01*
D02*
G37*
G36*
X61650D02*
X60624D01*
X60675Y111893D01*
X60963Y111463D01*
X61393Y111175D01*
X61650Y111124D01*
Y112150D01*
D02*
G37*
G36*
X96071Y112512D02*
X94537D01*
Y110977D01*
X94989Y111067D01*
X95584Y111465D01*
X95981Y112060D01*
X96071Y112512D01*
D02*
G37*
G36*
X94037D02*
X92502D01*
X92592Y112060D01*
X92989Y111465D01*
X93585Y111067D01*
X94037Y110977D01*
Y112512D01*
D02*
G37*
G36*
X91347D02*
X89812D01*
Y110977D01*
X90264Y111067D01*
X90859Y111465D01*
X91257Y112060D01*
X91347Y112512D01*
D02*
G37*
G36*
X89312D02*
X87778D01*
X87867Y112060D01*
X88265Y111465D01*
X88860Y111067D01*
X89312Y110977D01*
Y112512D01*
D02*
G37*
G36*
X86623D02*
X85088D01*
Y110977D01*
X85540Y111067D01*
X86135Y111465D01*
X86533Y112060D01*
X86623Y112512D01*
D02*
G37*
G36*
X84588D02*
X83053D01*
X83143Y112060D01*
X83541Y111465D01*
X84136Y111067D01*
X84588Y110977D01*
Y112512D01*
D02*
G37*
G36*
X81898D02*
X80363D01*
Y110977D01*
X80815Y111067D01*
X81411Y111465D01*
X81808Y112060D01*
X81898Y112512D01*
D02*
G37*
G36*
X79863D02*
X78329D01*
X78419Y112060D01*
X78816Y111465D01*
X79411Y111067D01*
X79863Y110977D01*
Y112512D01*
D02*
G37*
G36*
X18110Y111690D02*
X17085D01*
Y110664D01*
X17342Y110716D01*
X17772Y111003D01*
X18059Y111433D01*
X18110Y111690D01*
D02*
G37*
G36*
X122100Y112118D02*
X121749Y112048D01*
X121451Y111849D01*
X121252Y111551D01*
X121182Y111200D01*
X121252Y110849D01*
X121451Y110551D01*
X121749Y110352D01*
X122100Y110282D01*
X122451Y110352D01*
X122749Y110551D01*
X122948Y110849D01*
X123018Y111200D01*
X122948Y111551D01*
X122749Y111849D01*
X122451Y112048D01*
X122100Y112118D01*
D02*
G37*
G36*
X4385Y110416D02*
Y109390D01*
X5410D01*
X5359Y109647D01*
X5072Y110077D01*
X4642Y110365D01*
X4385Y110416D01*
D02*
G37*
G36*
X3885D02*
X3627Y110365D01*
X3197Y110077D01*
X2910Y109647D01*
X2859Y109390D01*
X3885D01*
Y110416D01*
D02*
G37*
G36*
X132187Y110530D02*
X131836Y110460D01*
X131538Y110261D01*
X131340Y109964D01*
X131270Y109613D01*
X131340Y109261D01*
X131538Y108964D01*
X131836Y108765D01*
X132187Y108695D01*
X132539Y108765D01*
X132836Y108964D01*
X133035Y109261D01*
X133105Y109613D01*
X133035Y109964D01*
X132836Y110261D01*
X132539Y110460D01*
X132187Y110530D01*
D02*
G37*
G36*
X94537Y109822D02*
Y108288D01*
X96071D01*
X95981Y108740D01*
X95584Y109335D01*
X94989Y109733D01*
X94537Y109822D01*
D02*
G37*
G36*
X94037D02*
X93585Y109733D01*
X92989Y109335D01*
X92592Y108740D01*
X92502Y108288D01*
X94037D01*
Y109822D01*
D02*
G37*
G36*
X89812D02*
Y108288D01*
X91347D01*
X91257Y108740D01*
X90859Y109335D01*
X90264Y109733D01*
X89812Y109822D01*
D02*
G37*
G36*
X89312D02*
X88860Y109733D01*
X88265Y109335D01*
X87867Y108740D01*
X87778Y108288D01*
X89312D01*
Y109822D01*
D02*
G37*
G36*
X85088D02*
Y108288D01*
X86623D01*
X86533Y108740D01*
X86135Y109335D01*
X85540Y109733D01*
X85088Y109822D01*
D02*
G37*
G36*
X84588D02*
X84136Y109733D01*
X83541Y109335D01*
X83143Y108740D01*
X83053Y108288D01*
X84588D01*
Y109822D01*
D02*
G37*
G36*
X80363D02*
Y108288D01*
X81898D01*
X81808Y108740D01*
X81411Y109335D01*
X80815Y109733D01*
X80363Y109822D01*
D02*
G37*
G36*
X79863D02*
X79411Y109733D01*
X78816Y109335D01*
X78419Y108740D01*
X78329Y108288D01*
X79863D01*
Y109822D01*
D02*
G37*
G36*
X5410Y108890D02*
X4385D01*
Y107864D01*
X4642Y107916D01*
X5072Y108203D01*
X5359Y108633D01*
X5410Y108890D01*
D02*
G37*
G36*
X3885D02*
X2859D01*
X2910Y108633D01*
X3197Y108203D01*
X3627Y107916D01*
X3885Y107864D01*
Y108890D01*
D02*
G37*
G36*
X130200Y109018D02*
X129849Y108948D01*
X129551Y108749D01*
X129352Y108451D01*
X129282Y108100D01*
X129352Y107749D01*
X129551Y107451D01*
X129849Y107252D01*
X130200Y107182D01*
X130551Y107252D01*
X130849Y107451D01*
X131048Y107749D01*
X131118Y108100D01*
X131048Y108451D01*
X130849Y108749D01*
X130551Y108948D01*
X130200Y109018D01*
D02*
G37*
G36*
X167900Y109071D02*
X167490Y108989D01*
X167143Y108757D01*
X166911Y108410D01*
X166829Y108000D01*
X166911Y107590D01*
X167143Y107243D01*
X167490Y107011D01*
X167900Y106929D01*
X168310Y107011D01*
X168657Y107243D01*
X168889Y107590D01*
X168971Y108000D01*
X168889Y108410D01*
X168657Y108757D01*
X168310Y108989D01*
X167900Y109071D01*
D02*
G37*
G36*
X96071Y107788D02*
X94537D01*
Y106253D01*
X94989Y106343D01*
X95584Y106741D01*
X95981Y107336D01*
X96071Y107788D01*
D02*
G37*
G36*
X94037D02*
X92502D01*
X92592Y107336D01*
X92989Y106741D01*
X93585Y106343D01*
X94037Y106253D01*
Y107788D01*
D02*
G37*
G36*
X91347D02*
X89812D01*
Y106253D01*
X90264Y106343D01*
X90859Y106741D01*
X91257Y107336D01*
X91347Y107788D01*
D02*
G37*
G36*
X89312D02*
X87778D01*
X87867Y107336D01*
X88265Y106741D01*
X88860Y106343D01*
X89312Y106253D01*
Y107788D01*
D02*
G37*
G36*
X86623D02*
X85088D01*
Y106253D01*
X85540Y106343D01*
X86135Y106741D01*
X86533Y107336D01*
X86623Y107788D01*
D02*
G37*
G36*
X84588D02*
X83053D01*
X83143Y107336D01*
X83541Y106741D01*
X84136Y106343D01*
X84588Y106253D01*
Y107788D01*
D02*
G37*
G36*
X81898D02*
X80363D01*
Y106253D01*
X80815Y106343D01*
X81411Y106741D01*
X81808Y107336D01*
X81898Y107788D01*
D02*
G37*
G36*
X79863D02*
X78329D01*
X78419Y107336D01*
X78816Y106741D01*
X79411Y106343D01*
X79863Y106253D01*
Y107788D01*
D02*
G37*
G36*
X72913Y106313D02*
Y105287D01*
X73939D01*
X73888Y105544D01*
X73600Y105974D01*
X73170Y106262D01*
X72913Y106313D01*
D02*
G37*
G36*
X72413D02*
X72156Y106262D01*
X71726Y105974D01*
X71438Y105544D01*
X71387Y105287D01*
X72413D01*
Y106313D01*
D02*
G37*
G36*
X67450Y105276D02*
Y104250D01*
X68476D01*
X68425Y104507D01*
X68137Y104937D01*
X67707Y105225D01*
X67450Y105276D01*
D02*
G37*
G36*
X66950D02*
X66693Y105225D01*
X66263Y104937D01*
X65975Y104507D01*
X65924Y104250D01*
X66950D01*
Y105276D01*
D02*
G37*
G36*
X73939Y104787D02*
X72913D01*
Y103761D01*
X73170Y103812D01*
X73600Y104100D01*
X73888Y104530D01*
X73939Y104787D01*
D02*
G37*
G36*
X72413D02*
X71387D01*
X71438Y104530D01*
X71726Y104100D01*
X72156Y103812D01*
X72413Y103761D01*
Y104787D01*
D02*
G37*
G36*
X94537Y105098D02*
Y103563D01*
X96071D01*
X95981Y104015D01*
X95584Y104611D01*
X94989Y105008D01*
X94537Y105098D01*
D02*
G37*
G36*
X94037D02*
X93585Y105008D01*
X92989Y104611D01*
X92592Y104015D01*
X92502Y103563D01*
X94037D01*
Y105098D01*
D02*
G37*
G36*
X89812D02*
Y103563D01*
X91347D01*
X91257Y104015D01*
X90859Y104611D01*
X90264Y105008D01*
X89812Y105098D01*
D02*
G37*
G36*
X89312D02*
X88860Y105008D01*
X88265Y104611D01*
X87867Y104015D01*
X87778Y103563D01*
X89312D01*
Y105098D01*
D02*
G37*
G36*
X85088D02*
Y103563D01*
X86623D01*
X86533Y104015D01*
X86135Y104611D01*
X85540Y105008D01*
X85088Y105098D01*
D02*
G37*
G36*
X84588D02*
X84136Y105008D01*
X83541Y104611D01*
X83143Y104015D01*
X83053Y103563D01*
X84588D01*
Y105098D01*
D02*
G37*
G36*
X80363D02*
Y103563D01*
X81898D01*
X81808Y104015D01*
X81411Y104611D01*
X80815Y105008D01*
X80363Y105098D01*
D02*
G37*
G36*
X79863D02*
X79411Y105008D01*
X78816Y104611D01*
X78419Y104015D01*
X78329Y103563D01*
X79863D01*
Y105098D01*
D02*
G37*
G36*
X127200Y107826D02*
X126693Y107725D01*
X126263Y107437D01*
X125975Y107007D01*
X125874Y106500D01*
X125975Y105993D01*
X126263Y105563D01*
X126693Y105275D01*
X127200Y105175D01*
X127700Y105274D01*
X127724Y105257D01*
X128057Y104908D01*
X127952Y104751D01*
X127882Y104400D01*
X127952Y104049D01*
X128151Y103751D01*
X128449Y103552D01*
X128800Y103482D01*
X129151Y103552D01*
X129449Y103751D01*
X129648Y104049D01*
X129718Y104400D01*
X129648Y104751D01*
X129449Y105049D01*
X129151Y105248D01*
X128800Y105318D01*
X128518Y105262D01*
X128328Y105461D01*
X128210Y105671D01*
X128425Y105993D01*
X128525Y106500D01*
X128425Y107007D01*
X128137Y107437D01*
X127707Y107725D01*
X127200Y107826D01*
D02*
G37*
G36*
X68476Y103750D02*
X67450D01*
Y102724D01*
X67707Y102775D01*
X68137Y103063D01*
X68425Y103493D01*
X68476Y103750D01*
D02*
G37*
G36*
X66950D02*
X65924D01*
X65975Y103493D01*
X66263Y103063D01*
X66693Y102775D01*
X66950Y102724D01*
Y103750D01*
D02*
G37*
G36*
X17250Y103476D02*
Y102450D01*
X18276D01*
X18225Y102707D01*
X17937Y103137D01*
X17507Y103425D01*
X17250Y103476D01*
D02*
G37*
G36*
X16750D02*
X16493Y103425D01*
X16063Y103137D01*
X15775Y102707D01*
X15724Y102450D01*
X16750D01*
Y103476D01*
D02*
G37*
G36*
X9850D02*
Y102450D01*
X10876D01*
X10825Y102707D01*
X10537Y103137D01*
X10107Y103425D01*
X9850Y103476D01*
D02*
G37*
G36*
X9350D02*
X9093Y103425D01*
X8663Y103137D01*
X8375Y102707D01*
X8324Y102450D01*
X9350D01*
Y103476D01*
D02*
G37*
G36*
X197500Y104825D02*
X196993Y104725D01*
X196563Y104437D01*
X196275Y104007D01*
X196175Y103500D01*
X196275Y102993D01*
X196563Y102563D01*
X196993Y102275D01*
X197500Y102174D01*
X198007Y102275D01*
X198437Y102563D01*
X198725Y102993D01*
X198826Y103500D01*
X198725Y104007D01*
X198437Y104437D01*
X198007Y104725D01*
X197500Y104825D01*
D02*
G37*
G36*
X96071Y103063D02*
X94537D01*
Y101529D01*
X94989Y101619D01*
X95584Y102016D01*
X95981Y102611D01*
X96071Y103063D01*
D02*
G37*
G36*
X94037D02*
X92502D01*
X92592Y102611D01*
X92989Y102016D01*
X93585Y101619D01*
X94037Y101529D01*
Y103063D01*
D02*
G37*
G36*
X91347D02*
X89812D01*
Y101529D01*
X90264Y101619D01*
X90859Y102016D01*
X91257Y102611D01*
X91347Y103063D01*
D02*
G37*
G36*
X89312D02*
X87778D01*
X87867Y102611D01*
X88265Y102016D01*
X88860Y101619D01*
X89312Y101529D01*
Y103063D01*
D02*
G37*
G36*
X86623D02*
X85088D01*
Y101529D01*
X85540Y101619D01*
X86135Y102016D01*
X86533Y102611D01*
X86623Y103063D01*
D02*
G37*
G36*
X84588D02*
X83053D01*
X83143Y102611D01*
X83541Y102016D01*
X84136Y101619D01*
X84588Y101529D01*
Y103063D01*
D02*
G37*
G36*
X81898D02*
X80363D01*
Y101529D01*
X80815Y101619D01*
X81411Y102016D01*
X81808Y102611D01*
X81898Y103063D01*
D02*
G37*
G36*
X79863D02*
X78329D01*
X78419Y102611D01*
X78816Y102016D01*
X79411Y101619D01*
X79863Y101529D01*
Y103063D01*
D02*
G37*
G36*
X18276Y101950D02*
X17250D01*
Y100924D01*
X17507Y100975D01*
X17937Y101263D01*
X18225Y101693D01*
X18276Y101950D01*
D02*
G37*
G36*
X16750D02*
X15724D01*
X15775Y101693D01*
X16063Y101263D01*
X16493Y100975D01*
X16750Y100924D01*
Y101950D01*
D02*
G37*
G36*
X10876D02*
X9850D01*
Y100924D01*
X10107Y100975D01*
X10537Y101263D01*
X10825Y101693D01*
X10876Y101950D01*
D02*
G37*
G36*
X9350D02*
X8324D01*
X8375Y101693D01*
X8663Y101263D01*
X9093Y100975D01*
X9350Y100924D01*
Y101950D01*
D02*
G37*
G36*
X202261Y101765D02*
Y100739D01*
X203287D01*
X203236Y100996D01*
X202948Y101426D01*
X202518Y101714D01*
X202261Y101765D01*
D02*
G37*
G36*
X201761D02*
X201504Y101714D01*
X201074Y101426D01*
X200786Y100996D01*
X200735Y100739D01*
X201761D01*
Y101765D01*
D02*
G37*
G36*
X1850Y101576D02*
Y100550D01*
X2876D01*
X2825Y100807D01*
X2537Y101237D01*
X2107Y101525D01*
X1850Y101576D01*
D02*
G37*
G36*
X203287Y100239D02*
X202261D01*
Y99213D01*
X202518Y99264D01*
X202948Y99552D01*
X203236Y99982D01*
X203287Y100239D01*
D02*
G37*
G36*
X201761D02*
X200735D01*
X200786Y99982D01*
X201074Y99552D01*
X201504Y99264D01*
X201761Y99213D01*
Y100239D01*
D02*
G37*
G36*
X2876Y100050D02*
X1850D01*
Y99024D01*
X2107Y99075D01*
X2537Y99363D01*
X2825Y99793D01*
X2876Y100050D01*
D02*
G37*
G36*
X68998Y101126D02*
X68529Y101033D01*
X68133Y100768D01*
X67867Y100371D01*
X67774Y99902D01*
X67867Y99434D01*
X68133Y99037D01*
X68529Y98772D01*
X68998Y98679D01*
X69466Y98772D01*
X69863Y99037D01*
X70128Y99434D01*
X70221Y99902D01*
X70128Y100371D01*
X69863Y100768D01*
X69466Y101033D01*
X68998Y101126D01*
D02*
G37*
G36*
X99450Y99574D02*
Y98650D01*
X100374D01*
X100330Y98868D01*
X100065Y99265D01*
X99668Y99530D01*
X99450Y99574D01*
D02*
G37*
G36*
X98950D02*
X98732Y99530D01*
X98335Y99265D01*
X98070Y98868D01*
X98026Y98650D01*
X98950D01*
Y99574D01*
D02*
G37*
G36*
X106002Y100624D02*
X105573Y100539D01*
X105209Y100295D01*
X104966Y99932D01*
X104881Y99502D01*
X104966Y99073D01*
X105209Y98709D01*
X105573Y98466D01*
X106002Y98381D01*
X106432Y98466D01*
X106795Y98709D01*
X107038Y99073D01*
X107124Y99502D01*
X107038Y99932D01*
X106795Y100295D01*
X106432Y100539D01*
X106002Y100624D01*
D02*
G37*
G36*
X213078Y103601D02*
X212094D01*
X211347Y103503D01*
X210651Y103215D01*
X210053Y102756D01*
X209595Y102158D01*
X209307Y101462D01*
X209208Y100716D01*
X209307Y99969D01*
X209595Y99273D01*
X210053Y98676D01*
X210651Y98217D01*
X211347Y97929D01*
X212094Y97830D01*
X213078D01*
X213825Y97929D01*
X214521Y98217D01*
X215118Y98676D01*
X215577Y99273D01*
X215865Y99969D01*
X215963Y100716D01*
X215865Y101462D01*
X215577Y102158D01*
X215118Y102756D01*
X214521Y103215D01*
X213825Y103503D01*
X213078Y103601D01*
D02*
G37*
G36*
X100374Y98150D02*
X99450D01*
Y97226D01*
X99668Y97270D01*
X100065Y97535D01*
X100330Y97932D01*
X100374Y98150D01*
D02*
G37*
G36*
X98950D02*
X98026D01*
X98070Y97932D01*
X98335Y97535D01*
X98732Y97270D01*
X98950Y97226D01*
Y98150D01*
D02*
G37*
G36*
X151300Y100771D02*
X150890Y100689D01*
X150543Y100457D01*
X150311Y100110D01*
X150229Y99700D01*
X149900Y99271D01*
X149490Y99189D01*
X149143Y98957D01*
X148911Y98610D01*
X148829Y98200D01*
X148911Y97790D01*
X149143Y97443D01*
X149490Y97211D01*
X149900Y97129D01*
X150310Y97211D01*
X150657Y97443D01*
X150889Y97790D01*
X150971Y98200D01*
X151300Y98629D01*
X151710Y98711D01*
X152057Y98943D01*
X152289Y99290D01*
X152371Y99700D01*
X152289Y100110D01*
X152057Y100457D01*
X151710Y100689D01*
X151300Y100771D01*
D02*
G37*
G36*
X208441Y97267D02*
Y96241D01*
X209467D01*
X209416Y96499D01*
X209129Y96929D01*
X208699Y97216D01*
X208441Y97267D01*
D02*
G37*
G36*
X207941D02*
X207684Y97216D01*
X207254Y96929D01*
X206967Y96499D01*
X206916Y96241D01*
X207941D01*
Y97267D01*
D02*
G37*
G36*
X1850Y96576D02*
Y95550D01*
X2876D01*
X2825Y95807D01*
X2537Y96237D01*
X2107Y96525D01*
X1850Y96576D01*
D02*
G37*
G36*
X88000Y97318D02*
X87649Y97248D01*
X87351Y97049D01*
X87152Y96751D01*
X87082Y96400D01*
X87152Y96049D01*
X87351Y95751D01*
X87649Y95552D01*
X88000Y95482D01*
X88351Y95552D01*
X88649Y95751D01*
X88848Y96049D01*
X88918Y96400D01*
X88848Y96751D01*
X88649Y97049D01*
X88351Y97248D01*
X88000Y97318D01*
D02*
G37*
G36*
X209467Y95741D02*
X208441D01*
Y94716D01*
X208699Y94767D01*
X209129Y95054D01*
X209416Y95484D01*
X209467Y95741D01*
D02*
G37*
G36*
X207941D02*
X206916D01*
X206967Y95484D01*
X207254Y95054D01*
X207684Y94767D01*
X207941Y94716D01*
Y95741D01*
D02*
G37*
G36*
X2876Y95050D02*
X1850D01*
Y94024D01*
X2107Y94075D01*
X2537Y94363D01*
X2825Y94793D01*
X2876Y95050D01*
D02*
G37*
G36*
X154400Y94771D02*
X153990Y94689D01*
X153643Y94457D01*
X153411Y94110D01*
X153329Y93700D01*
X153411Y93290D01*
X153643Y92943D01*
X153990Y92711D01*
X154400Y92629D01*
X154810Y92711D01*
X155157Y92943D01*
X155389Y93290D01*
X155471Y93700D01*
X155389Y94110D01*
X155157Y94457D01*
X154810Y94689D01*
X154400Y94771D01*
D02*
G37*
G36*
X84050Y92176D02*
Y91150D01*
X85076D01*
X85025Y91407D01*
X84737Y91837D01*
X84307Y92125D01*
X84050Y92176D01*
D02*
G37*
G36*
X83550D02*
X83293Y92125D01*
X82863Y91837D01*
X82575Y91407D01*
X82524Y91150D01*
X83550D01*
Y92176D01*
D02*
G37*
G36*
X86500Y92418D02*
X86149Y92348D01*
X85851Y92149D01*
X85652Y91851D01*
X85582Y91500D01*
X85652Y91149D01*
X85851Y90851D01*
X86149Y90652D01*
X86500Y90582D01*
X86851Y90652D01*
X87149Y90851D01*
X87348Y91149D01*
X87418Y91500D01*
X87348Y91851D01*
X87149Y92149D01*
X86851Y92348D01*
X86500Y92418D01*
D02*
G37*
G36*
X1850Y91576D02*
Y90550D01*
X2876D01*
X2825Y90807D01*
X2537Y91237D01*
X2107Y91525D01*
X1850Y91576D01*
D02*
G37*
G36*
X85076Y90650D02*
X84050D01*
Y89624D01*
X84307Y89675D01*
X84737Y89963D01*
X85025Y90393D01*
X85076Y90650D01*
D02*
G37*
G36*
X83550D02*
X82524D01*
X82575Y90393D01*
X82863Y89963D01*
X83293Y89675D01*
X83550Y89624D01*
Y90650D01*
D02*
G37*
G36*
X2876Y90050D02*
X1850D01*
Y89024D01*
X2107Y89075D01*
X2537Y89363D01*
X2825Y89793D01*
X2876Y90050D01*
D02*
G37*
G36*
X158050Y88978D02*
Y87850D01*
X159178D01*
X159119Y88146D01*
X158809Y88609D01*
X158346Y88919D01*
X158050Y88978D01*
D02*
G37*
G36*
X157550D02*
X157254Y88919D01*
X156791Y88609D01*
X156481Y88146D01*
X156422Y87850D01*
X157550D01*
Y88978D01*
D02*
G37*
G36*
X152100Y89122D02*
X151671Y89036D01*
X151307Y88793D01*
X151064Y88429D01*
X150978Y88000D01*
X151064Y87571D01*
X151307Y87207D01*
X151671Y86964D01*
X152100Y86878D01*
X152529Y86964D01*
X152893Y87207D01*
X153136Y87571D01*
X153222Y88000D01*
X153136Y88429D01*
X152893Y88793D01*
X152529Y89036D01*
X152100Y89122D01*
D02*
G37*
G36*
X111732Y89076D02*
X111264Y88983D01*
X110867Y88718D01*
X110602Y88321D01*
X110509Y87853D01*
X110602Y87384D01*
X110867Y86988D01*
X111264Y86722D01*
X111732Y86629D01*
X112200Y86722D01*
X112597Y86988D01*
X112863Y87384D01*
X112956Y87853D01*
X112863Y88321D01*
X112597Y88718D01*
X112200Y88983D01*
X111732Y89076D01*
D02*
G37*
G36*
X121700Y88924D02*
X121232Y88830D01*
X120835Y88565D01*
X120570Y88168D01*
X120476Y87700D01*
X120570Y87232D01*
X120835Y86835D01*
X121232Y86570D01*
X121700Y86476D01*
X122168Y86570D01*
X122565Y86835D01*
X122830Y87232D01*
X122924Y87700D01*
X122830Y88168D01*
X122565Y88565D01*
X122168Y88830D01*
X121700Y88924D01*
D02*
G37*
G36*
X159178Y87350D02*
X158050D01*
Y86222D01*
X158346Y86281D01*
X158809Y86591D01*
X159119Y87054D01*
X159178Y87350D01*
D02*
G37*
G36*
X157550D02*
X156422D01*
X156481Y87054D01*
X156791Y86591D01*
X157254Y86281D01*
X157550Y86222D01*
Y87350D01*
D02*
G37*
G36*
X1850Y86676D02*
Y85650D01*
X2876D01*
X2825Y85907D01*
X2537Y86337D01*
X2107Y86625D01*
X1850Y86676D01*
D02*
G37*
G36*
X78952Y86176D02*
Y85252D01*
X79876D01*
X79833Y85471D01*
X79567Y85868D01*
X79171Y86133D01*
X78952Y86176D01*
D02*
G37*
G36*
X78452D02*
X78234Y86133D01*
X77837Y85868D01*
X77572Y85471D01*
X77529Y85252D01*
X78452D01*
Y86176D01*
D02*
G37*
G36*
X2876Y85150D02*
X1850D01*
Y84124D01*
X2107Y84175D01*
X2537Y84463D01*
X2825Y84893D01*
X2876Y85150D01*
D02*
G37*
G36*
X79876Y84752D02*
X78952D01*
Y83829D01*
X79171Y83872D01*
X79567Y84137D01*
X79833Y84534D01*
X79876Y84752D01*
D02*
G37*
G36*
X78452D02*
X77529D01*
X77572Y84534D01*
X77837Y84137D01*
X78234Y83872D01*
X78452Y83829D01*
Y84752D01*
D02*
G37*
G36*
X1850Y82976D02*
Y81950D01*
X2876D01*
X2825Y82207D01*
X2537Y82637D01*
X2107Y82925D01*
X1850Y82976D01*
D02*
G37*
G36*
X128600Y84825D02*
X128093Y84725D01*
X127663Y84437D01*
X127375Y84007D01*
X127275Y83500D01*
X127375Y82993D01*
X127663Y82563D01*
X128093Y82275D01*
X128559Y82183D01*
X135771Y74971D01*
X136151Y74717D01*
X136600Y74628D01*
X160227D01*
X160676Y74717D01*
X161056Y74971D01*
X161310Y75351D01*
X161368Y75644D01*
X162786Y77062D01*
X163286Y76855D01*
Y72000D01*
X163341Y71727D01*
X163495Y71495D01*
X174386Y60604D01*
Y56900D01*
X174441Y56627D01*
X174451Y56611D01*
X174429Y56500D01*
X174511Y56090D01*
X174743Y55743D01*
X175090Y55511D01*
X175500Y55429D01*
X175910Y55511D01*
X176257Y55743D01*
X176489Y56090D01*
X176571Y56500D01*
X176489Y56910D01*
X176257Y57257D01*
X175910Y57489D01*
X175814Y57508D01*
Y60900D01*
X175759Y61173D01*
X175605Y61405D01*
X164714Y72296D01*
Y79523D01*
X164659Y79796D01*
X164505Y80028D01*
X163295Y81237D01*
X163248Y81474D01*
X163217Y81520D01*
X163577Y81881D01*
X163624Y81850D01*
X163975Y81780D01*
X164326Y81850D01*
X164624Y82049D01*
X164823Y82346D01*
X164892Y82698D01*
X164823Y83049D01*
X164624Y83346D01*
X164326Y83545D01*
X163975Y83615D01*
X163624Y83545D01*
X163326Y83346D01*
X163127Y83049D01*
X163057Y82698D01*
X163127Y82346D01*
X163158Y82300D01*
X162797Y81940D01*
X162751Y81971D01*
X162400Y82041D01*
X162049Y81971D01*
X161751Y81772D01*
X161474D01*
X161176Y81971D01*
X161092Y81987D01*
X158875Y84205D01*
X158643Y84359D01*
X158370Y84414D01*
X156652D01*
X156451Y84548D01*
X156100Y84618D01*
X155749Y84548D01*
X155451Y84349D01*
X155252Y84051D01*
X155182Y83700D01*
X155252Y83349D01*
X155451Y83051D01*
X155749Y82852D01*
X156100Y82782D01*
X156451Y82852D01*
X156652Y82986D01*
X158075D01*
X158666Y82395D01*
X158673Y82272D01*
X158332Y81836D01*
X150923D01*
X150650Y81782D01*
X150418Y81628D01*
X147785Y78995D01*
X147549Y78948D01*
X147251Y78749D01*
X147052Y78451D01*
X146982Y78100D01*
X147052Y77749D01*
X147237Y77473D01*
X147212Y77349D01*
X147067Y76973D01*
X137086D01*
X129729Y84329D01*
X129349Y84583D01*
X129306Y84592D01*
X129107Y84725D01*
X128600Y84825D01*
D02*
G37*
G36*
X2876Y81450D02*
X1850D01*
Y80424D01*
X2107Y80475D01*
X2537Y80763D01*
X2825Y81193D01*
X2876Y81450D01*
D02*
G37*
G36*
X112350Y81174D02*
Y80250D01*
X113274D01*
X113230Y80468D01*
X112965Y80865D01*
X112568Y81130D01*
X112350Y81174D01*
D02*
G37*
G36*
X111850D02*
X111632Y81130D01*
X111235Y80865D01*
X110970Y80468D01*
X110926Y80250D01*
X111850D01*
Y81174D01*
D02*
G37*
G36*
X89950Y80674D02*
Y79750D01*
X90874D01*
X90830Y79968D01*
X90565Y80365D01*
X90168Y80630D01*
X89950Y80674D01*
D02*
G37*
G36*
X89450D02*
X89232Y80630D01*
X88835Y80365D01*
X88570Y79968D01*
X88526Y79750D01*
X89450D01*
Y80674D01*
D02*
G37*
G36*
X113274Y79750D02*
X112350D01*
Y78826D01*
X112568Y78870D01*
X112965Y79135D01*
X113230Y79532D01*
X113274Y79750D01*
D02*
G37*
G36*
X111850D02*
X110926D01*
X110970Y79532D01*
X111235Y79135D01*
X111632Y78870D01*
X111850Y78826D01*
Y79750D01*
D02*
G37*
G36*
X107775Y81051D02*
X107268Y80950D01*
X106838Y80662D01*
X106550Y80232D01*
X106449Y79725D01*
X106550Y79218D01*
X106838Y78788D01*
X107268Y78501D01*
X107775Y78400D01*
X108282Y78501D01*
X108712Y78788D01*
X108999Y79218D01*
X109100Y79725D01*
X108999Y80232D01*
X108712Y80662D01*
X108282Y80950D01*
X107775Y81051D01*
D02*
G37*
G36*
X90874Y79250D02*
X89950D01*
Y78326D01*
X90168Y78370D01*
X90565Y78635D01*
X90830Y79032D01*
X90874Y79250D01*
D02*
G37*
G36*
X89450D02*
X88526D01*
X88570Y79032D01*
X88835Y78635D01*
X89232Y78370D01*
X89450Y78326D01*
Y79250D01*
D02*
G37*
G36*
X213275Y83916D02*
X212291D01*
X211544Y83818D01*
X210848Y83530D01*
X210250Y83071D01*
X209792Y82473D01*
X209504Y81778D01*
X209405Y81031D01*
X209504Y80284D01*
X209792Y79588D01*
X210250Y78991D01*
X210848Y78532D01*
X211544Y78244D01*
X212291Y78145D01*
X213275D01*
X214022Y78244D01*
X214718Y78532D01*
X215315Y78991D01*
X215774Y79588D01*
X216062Y80284D01*
X216160Y81031D01*
X216062Y81778D01*
X215774Y82473D01*
X215315Y83071D01*
X214718Y83530D01*
X214022Y83818D01*
X213275Y83916D01*
D02*
G37*
G36*
X1850Y78076D02*
Y77050D01*
X2876D01*
X2825Y77307D01*
X2537Y77737D01*
X2107Y78025D01*
X1850Y78076D01*
D02*
G37*
G36*
X171927Y76599D02*
Y75573D01*
X172953D01*
X172902Y75830D01*
X172614Y76260D01*
X172184Y76547D01*
X171927Y76599D01*
D02*
G37*
G36*
X171427D02*
X171170Y76547D01*
X170740Y76260D01*
X170453Y75830D01*
X170401Y75573D01*
X171427D01*
Y76599D01*
D02*
G37*
G36*
X2876Y76550D02*
X1850D01*
Y75524D01*
X2107Y75575D01*
X2537Y75863D01*
X2825Y76293D01*
X2876Y76550D01*
D02*
G37*
G36*
X172953Y75073D02*
X171927D01*
Y74047D01*
X172184Y74098D01*
X172614Y74386D01*
X172902Y74816D01*
X172953Y75073D01*
D02*
G37*
G36*
X171427D02*
X170401D01*
X170453Y74816D01*
X170740Y74386D01*
X171170Y74098D01*
X171427Y74047D01*
Y75073D01*
D02*
G37*
G36*
X1850Y73076D02*
Y72050D01*
X2876D01*
X2825Y72307D01*
X2537Y72737D01*
X2107Y73025D01*
X1850Y73076D01*
D02*
G37*
G36*
X2876Y71550D02*
X1850D01*
Y70524D01*
X2107Y70575D01*
X2537Y70863D01*
X2825Y71293D01*
X2876Y71550D01*
D02*
G37*
G36*
X194400Y73125D02*
X193893Y73025D01*
X193463Y72737D01*
X193175Y72307D01*
X193075Y71800D01*
X193175Y71293D01*
X193463Y70863D01*
X193893Y70575D01*
X194400Y70474D01*
X194907Y70575D01*
X195337Y70863D01*
X195625Y71293D01*
X195726Y71800D01*
X195625Y72307D01*
X195337Y72737D01*
X194907Y73025D01*
X194400Y73125D01*
D02*
G37*
G36*
X172738Y69087D02*
Y68062D01*
X173764D01*
X173713Y68319D01*
X173425Y68749D01*
X172995Y69036D01*
X172738Y69087D01*
D02*
G37*
G36*
X172238D02*
X171981Y69036D01*
X171551Y68749D01*
X171264Y68319D01*
X171212Y68062D01*
X172238D01*
Y69087D01*
D02*
G37*
G36*
X1850Y68076D02*
Y67050D01*
X2876D01*
X2825Y67307D01*
X2537Y67737D01*
X2107Y68025D01*
X1850Y68076D01*
D02*
G37*
G36*
X173764Y67562D02*
X172738D01*
Y66536D01*
X172995Y66587D01*
X173425Y66874D01*
X173713Y67304D01*
X173764Y67562D01*
D02*
G37*
G36*
X172238D02*
X171212D01*
X171264Y67304D01*
X171551Y66874D01*
X171981Y66587D01*
X172238Y66536D01*
Y67562D01*
D02*
G37*
G36*
X2876Y66550D02*
X1850D01*
Y65524D01*
X2107Y65575D01*
X2537Y65863D01*
X2825Y66293D01*
X2876Y66550D01*
D02*
G37*
G36*
X136200Y67826D02*
X135693Y67725D01*
X135263Y67437D01*
X134975Y67007D01*
X134874Y66500D01*
X134975Y65993D01*
X135263Y65563D01*
X135693Y65275D01*
X136200Y65175D01*
X136707Y65275D01*
X137137Y65563D01*
X137425Y65993D01*
X137525Y66500D01*
X137425Y67007D01*
X137137Y67437D01*
X136707Y67725D01*
X136200Y67826D01*
D02*
G37*
G36*
X189050Y66176D02*
Y65150D01*
X190076D01*
X190025Y65407D01*
X189737Y65837D01*
X189307Y66125D01*
X189050Y66176D01*
D02*
G37*
G36*
X188550D02*
X188293Y66125D01*
X187863Y65837D01*
X187575Y65407D01*
X187524Y65150D01*
X188550D01*
Y66176D01*
D02*
G37*
G36*
X226750Y65476D02*
X226493Y65425D01*
X226063Y65137D01*
X225775Y64707D01*
X225724Y64450D01*
X226750D01*
Y65476D01*
D02*
G37*
G36*
X190076Y64650D02*
X189050D01*
Y63624D01*
X189307Y63675D01*
X189737Y63963D01*
X190025Y64393D01*
X190076Y64650D01*
D02*
G37*
G36*
X188550D02*
X187524D01*
X187575Y64393D01*
X187863Y63963D01*
X188293Y63675D01*
X188550Y63624D01*
Y64650D01*
D02*
G37*
G36*
X1950Y64176D02*
Y63150D01*
X2976D01*
X2925Y63407D01*
X2637Y63837D01*
X2207Y64125D01*
X1950Y64176D01*
D02*
G37*
G36*
X226750Y63950D02*
X225724D01*
X225775Y63693D01*
X226063Y63263D01*
X226493Y62975D01*
X226750Y62924D01*
Y63950D01*
D02*
G37*
G36*
X2976Y62650D02*
X1950D01*
Y61624D01*
X2207Y61675D01*
X2637Y61963D01*
X2925Y62393D01*
X2976Y62650D01*
D02*
G37*
G36*
X226750Y61076D02*
X226493Y61025D01*
X226063Y60737D01*
X225775Y60307D01*
X225724Y60050D01*
X226750D01*
Y61076D01*
D02*
G37*
G36*
X1950Y60476D02*
Y59450D01*
X2976D01*
X2925Y59707D01*
X2637Y60137D01*
X2207Y60425D01*
X1950Y60476D01*
D02*
G37*
G36*
X226750Y59550D02*
X225724D01*
X225775Y59293D01*
X226063Y58863D01*
X226493Y58575D01*
X226750Y58524D01*
Y59550D01*
D02*
G37*
G36*
X2976Y58950D02*
X1950D01*
Y57924D01*
X2207Y57975D01*
X2637Y58263D01*
X2925Y58693D01*
X2976Y58950D01*
D02*
G37*
G36*
X226750Y57176D02*
X226493Y57125D01*
X226063Y56837D01*
X225775Y56407D01*
X225724Y56150D01*
X226750D01*
Y57176D01*
D02*
G37*
G36*
X1950Y56776D02*
Y55750D01*
X2976D01*
X2925Y56007D01*
X2637Y56437D01*
X2207Y56725D01*
X1950Y56776D01*
D02*
G37*
G36*
X226750Y55650D02*
X225724D01*
X225775Y55393D01*
X226063Y54963D01*
X226493Y54675D01*
X226750Y54624D01*
Y55650D01*
D02*
G37*
G36*
X2976Y55250D02*
X1950D01*
Y54224D01*
X2207Y54275D01*
X2637Y54563D01*
X2925Y54993D01*
X2976Y55250D01*
D02*
G37*
G36*
X1950Y53076D02*
Y52050D01*
X2976D01*
X2925Y52307D01*
X2637Y52737D01*
X2207Y53025D01*
X1950Y53076D01*
D02*
G37*
G36*
X183753Y69669D02*
X183324Y69583D01*
X182960Y69340D01*
X182717Y68976D01*
X182631Y68547D01*
X182717Y68118D01*
X182835Y67941D01*
Y51266D01*
X182673Y51134D01*
X182335Y50955D01*
X182000Y51022D01*
X181571Y50936D01*
X181393Y50818D01*
X170680D01*
X169718Y51780D01*
Y58983D01*
X169789Y59090D01*
X169871Y59500D01*
X169789Y59910D01*
X169557Y60257D01*
X169210Y60489D01*
X168800Y60571D01*
X168390Y60489D01*
X168043Y60257D01*
X167811Y59910D01*
X167729Y59500D01*
X167811Y59090D01*
X167882Y58983D01*
Y51400D01*
X167952Y51049D01*
X168151Y50751D01*
X169651Y49251D01*
X169949Y49052D01*
X170300Y48982D01*
X181393D01*
X181571Y48864D01*
X182000Y48778D01*
X182335Y48845D01*
X182673Y48666D01*
X182835Y48534D01*
Y47733D01*
X170920Y35818D01*
X165307D01*
X165129Y35936D01*
X164700Y36022D01*
X164271Y35936D01*
X163907Y35693D01*
X163664Y35329D01*
X163578Y34900D01*
X163664Y34471D01*
X163907Y34107D01*
X164271Y33864D01*
X164700Y33778D01*
X165129Y33864D01*
X165307Y33982D01*
X171300D01*
X171651Y34052D01*
X171949Y34251D01*
X184402Y46704D01*
X184600Y47002D01*
X184670Y47353D01*
Y67941D01*
X184789Y68118D01*
X184874Y68547D01*
X184789Y68976D01*
X184546Y69340D01*
X184182Y69583D01*
X183753Y69669D01*
D02*
G37*
G36*
X2976Y51550D02*
X1950D01*
Y50524D01*
X2207Y50575D01*
X2637Y50863D01*
X2925Y51293D01*
X2976Y51550D01*
D02*
G37*
G36*
X1950Y49376D02*
Y48350D01*
X2976D01*
X2925Y48607D01*
X2637Y49037D01*
X2207Y49325D01*
X1950Y49376D01*
D02*
G37*
G36*
X210000Y49922D02*
X209571Y49836D01*
X209207Y49593D01*
X208964Y49229D01*
X208878Y48800D01*
X208964Y48371D01*
X209207Y48007D01*
X209571Y47764D01*
X210000Y47678D01*
X210429Y47764D01*
X210793Y48007D01*
X211036Y48371D01*
X211122Y48800D01*
X211036Y49229D01*
X210793Y49593D01*
X210429Y49836D01*
X210000Y49922D01*
D02*
G37*
G36*
X2976Y47850D02*
X1950D01*
Y46824D01*
X2207Y46875D01*
X2637Y47163D01*
X2925Y47593D01*
X2976Y47850D01*
D02*
G37*
G36*
X187350Y47376D02*
Y46350D01*
X188376D01*
X188325Y46607D01*
X188037Y47037D01*
X187607Y47325D01*
X187350Y47376D01*
D02*
G37*
G36*
X186850D02*
X186593Y47325D01*
X186163Y47037D01*
X185875Y46607D01*
X185824Y46350D01*
X186850D01*
Y47376D01*
D02*
G37*
G36*
X188376Y45850D02*
X187350D01*
Y44824D01*
X187607Y44875D01*
X188037Y45163D01*
X188325Y45593D01*
X188376Y45850D01*
D02*
G37*
G36*
X186850D02*
X185824D01*
X185875Y45593D01*
X186163Y45163D01*
X186593Y44875D01*
X186850Y44824D01*
Y45850D01*
D02*
G37*
G36*
X1950Y45676D02*
Y44650D01*
X2976D01*
X2925Y44907D01*
X2637Y45337D01*
X2207Y45625D01*
X1950Y45676D01*
D02*
G37*
G36*
X2976Y44150D02*
X1950D01*
Y43124D01*
X2207Y43175D01*
X2637Y43463D01*
X2925Y43893D01*
X2976Y44150D01*
D02*
G37*
G36*
X62400Y43624D02*
X61932Y43530D01*
X61535Y43265D01*
X61270Y42868D01*
X61177Y42400D01*
X61270Y41932D01*
X61535Y41535D01*
X61932Y41270D01*
X62400Y41177D01*
X62868Y41270D01*
X63265Y41535D01*
X63530Y41932D01*
X63623Y42400D01*
X63530Y42868D01*
X63265Y43265D01*
X62868Y43530D01*
X62400Y43624D01*
D02*
G37*
G36*
X1950Y41976D02*
Y40950D01*
X2976D01*
X2925Y41207D01*
X2637Y41637D01*
X2207Y41925D01*
X1950Y41976D01*
D02*
G37*
G36*
X201300Y58818D02*
X200949Y58748D01*
X200651Y58549D01*
X200452Y58251D01*
X200382Y57900D01*
X200452Y57549D01*
X200651Y57251D01*
X201382Y56520D01*
Y41400D01*
X201452Y41049D01*
X201651Y40751D01*
X201949Y40552D01*
X202300Y40482D01*
X202651Y40552D01*
X202949Y40751D01*
X203148Y41049D01*
X203218Y41400D01*
Y56900D01*
X203148Y57251D01*
X202949Y57549D01*
X201949Y58549D01*
X201651Y58748D01*
X201300Y58818D01*
D02*
G37*
G36*
X196800Y58318D02*
X196449Y58248D01*
X196151Y58049D01*
X195952Y57751D01*
X195905Y57515D01*
X194195Y55805D01*
X194041Y55573D01*
X193986Y55300D01*
Y41452D01*
X193852Y41251D01*
X193782Y40900D01*
X193852Y40549D01*
X194051Y40251D01*
X194349Y40052D01*
X194700Y39982D01*
X195051Y40052D01*
X195349Y40251D01*
X195548Y40549D01*
X195618Y40900D01*
X195548Y41251D01*
X195414Y41452D01*
Y55004D01*
X196915Y56505D01*
X197151Y56552D01*
X197449Y56751D01*
X197648Y57049D01*
X197718Y57400D01*
X197648Y57751D01*
X197449Y58049D01*
X197151Y58248D01*
X196800Y58318D01*
D02*
G37*
G36*
X2976Y40450D02*
X1950D01*
Y39424D01*
X2207Y39475D01*
X2637Y39763D01*
X2925Y40193D01*
X2976Y40450D01*
D02*
G37*
G36*
X1950Y38276D02*
Y37250D01*
X2976D01*
X2925Y37507D01*
X2637Y37937D01*
X2207Y38225D01*
X1950Y38276D01*
D02*
G37*
G36*
X2976Y36750D02*
X1950D01*
Y35724D01*
X2207Y35775D01*
X2637Y36063D01*
X2925Y36493D01*
X2976Y36750D01*
D02*
G37*
G36*
X98400Y36122D02*
X97971Y36036D01*
X97607Y35793D01*
X97364Y35429D01*
X97278Y35000D01*
X97364Y34571D01*
X97607Y34207D01*
X97971Y33964D01*
X98400Y33878D01*
X98829Y33964D01*
X99193Y34207D01*
X99436Y34571D01*
X99522Y35000D01*
X99436Y35429D01*
X99193Y35793D01*
X98829Y36036D01*
X98400Y36122D01*
D02*
G37*
G36*
X1950Y34576D02*
Y33550D01*
X2976D01*
X2925Y33807D01*
X2637Y34237D01*
X2207Y34525D01*
X1950Y34576D01*
D02*
G37*
G36*
X226750Y34076D02*
X226493Y34025D01*
X226063Y33737D01*
X225775Y33307D01*
X225724Y33050D01*
X226750D01*
Y34076D01*
D02*
G37*
G36*
X177050Y33976D02*
Y32950D01*
X178076D01*
X178025Y33207D01*
X177737Y33637D01*
X177307Y33925D01*
X177050Y33976D01*
D02*
G37*
G36*
X176550D02*
X176293Y33925D01*
X175863Y33637D01*
X175575Y33207D01*
X175524Y32950D01*
X176550D01*
Y33976D01*
D02*
G37*
G36*
X201037Y33463D02*
Y32437D01*
X202063D01*
X202012Y32695D01*
X201725Y33125D01*
X201295Y33412D01*
X201037Y33463D01*
D02*
G37*
G36*
X200537D02*
X200280Y33412D01*
X199850Y33125D01*
X199563Y32695D01*
X199512Y32437D01*
X200537D01*
Y33463D01*
D02*
G37*
G36*
X2976Y33050D02*
X1950D01*
Y32024D01*
X2207Y32075D01*
X2637Y32363D01*
X2925Y32793D01*
X2976Y33050D01*
D02*
G37*
G36*
X226750Y32550D02*
X225724D01*
X225775Y32293D01*
X226063Y31863D01*
X226493Y31575D01*
X226750Y31524D01*
Y32550D01*
D02*
G37*
G36*
X178076Y32450D02*
X177050D01*
Y31424D01*
X177307Y31475D01*
X177737Y31763D01*
X178025Y32193D01*
X178076Y32450D01*
D02*
G37*
G36*
X176550D02*
X175524D01*
X175575Y32193D01*
X175863Y31763D01*
X176293Y31475D01*
X176550Y31424D01*
Y32450D01*
D02*
G37*
G36*
X202063Y31937D02*
X201037D01*
Y30912D01*
X201295Y30963D01*
X201725Y31250D01*
X202012Y31680D01*
X202063Y31937D01*
D02*
G37*
G36*
X200537D02*
X199512D01*
X199563Y31680D01*
X199850Y31250D01*
X200280Y30963D01*
X200537Y30912D01*
Y31937D01*
D02*
G37*
G36*
X47800Y32423D02*
X47332Y32330D01*
X46935Y32065D01*
X46670Y31668D01*
X46576Y31200D01*
X46670Y30732D01*
X46935Y30335D01*
X47332Y30070D01*
X47800Y29976D01*
X48268Y30070D01*
X48665Y30335D01*
X48930Y30732D01*
X49024Y31200D01*
X48930Y31668D01*
X48665Y32065D01*
X48268Y32330D01*
X47800Y32423D01*
D02*
G37*
G36*
X1950Y30876D02*
Y29850D01*
X2976D01*
X2925Y30107D01*
X2637Y30537D01*
X2207Y30825D01*
X1950Y30876D01*
D02*
G37*
G36*
X2976Y29350D02*
X1950D01*
Y28324D01*
X2207Y28375D01*
X2637Y28663D01*
X2925Y29093D01*
X2976Y29350D01*
D02*
G37*
G36*
X226750Y28376D02*
X226493Y28325D01*
X226063Y28037D01*
X225775Y27607D01*
X225724Y27350D01*
X226750D01*
Y28376D01*
D02*
G37*
G36*
X1950Y27176D02*
Y26150D01*
X2976D01*
X2925Y26407D01*
X2637Y26837D01*
X2207Y27125D01*
X1950Y27176D01*
D02*
G37*
G36*
X226750Y26850D02*
X225724D01*
X225775Y26593D01*
X226063Y26163D01*
X226493Y25875D01*
X226750Y25824D01*
Y26850D01*
D02*
G37*
G36*
X2976Y25650D02*
X1950D01*
Y24624D01*
X2207Y24675D01*
X2637Y24963D01*
X2925Y25393D01*
X2976Y25650D01*
D02*
G37*
G36*
X226750Y23976D02*
X226493Y23925D01*
X226063Y23637D01*
X225775Y23207D01*
X225724Y22950D01*
X226750D01*
Y23976D01*
D02*
G37*
G36*
X1950Y23476D02*
Y22450D01*
X2976D01*
X2925Y22707D01*
X2637Y23137D01*
X2207Y23425D01*
X1950Y23476D01*
D02*
G37*
G36*
X226750Y22450D02*
X225724D01*
X225775Y22193D01*
X226063Y21763D01*
X226493Y21475D01*
X226750Y21424D01*
Y22450D01*
D02*
G37*
G36*
X2976Y21950D02*
X1950D01*
Y20924D01*
X2207Y20975D01*
X2637Y21263D01*
X2925Y21693D01*
X2976Y21950D01*
D02*
G37*
G36*
X226750Y20176D02*
X226493Y20125D01*
X226063Y19837D01*
X225775Y19407D01*
X225724Y19150D01*
X226750D01*
Y20176D01*
D02*
G37*
G36*
X1950Y19776D02*
Y18750D01*
X2976D01*
X2925Y19007D01*
X2637Y19437D01*
X2207Y19725D01*
X1950Y19776D01*
D02*
G37*
G36*
X226750Y18650D02*
X225724D01*
X225775Y18393D01*
X226063Y17963D01*
X226493Y17675D01*
X226750Y17624D01*
Y18650D01*
D02*
G37*
G36*
X2976Y18250D02*
X1950D01*
Y17224D01*
X2207Y17275D01*
X2637Y17563D01*
X2925Y17993D01*
X2976Y18250D01*
D02*
G37*
G36*
X67200Y18523D02*
X66732Y18430D01*
X66335Y18165D01*
X66070Y17768D01*
X65977Y17300D01*
X66070Y16832D01*
X66335Y16435D01*
X66732Y16170D01*
X67200Y16077D01*
X67668Y16170D01*
X68065Y16435D01*
X68330Y16832D01*
X68423Y17300D01*
X68330Y17768D01*
X68065Y18165D01*
X67668Y18430D01*
X67200Y18523D01*
D02*
G37*
G36*
X226750Y16976D02*
X226493Y16925D01*
X226063Y16637D01*
X225775Y16207D01*
X225724Y15950D01*
X226750D01*
Y16976D01*
D02*
G37*
G36*
X165750Y16876D02*
Y15850D01*
X166776D01*
X166725Y16107D01*
X166437Y16537D01*
X166007Y16825D01*
X165750Y16876D01*
D02*
G37*
G36*
X165250D02*
X164993Y16825D01*
X164563Y16537D01*
X164275Y16107D01*
X164224Y15850D01*
X165250D01*
Y16876D01*
D02*
G37*
G36*
X1950Y16076D02*
Y15050D01*
X2976D01*
X2925Y15307D01*
X2637Y15737D01*
X2207Y16025D01*
X1950Y16076D01*
D02*
G37*
G36*
X226750Y15450D02*
X225724D01*
X225775Y15193D01*
X226063Y14763D01*
X226493Y14475D01*
X226750Y14424D01*
Y15450D01*
D02*
G37*
G36*
X166776Y15350D02*
X165750D01*
Y14324D01*
X166007Y14375D01*
X166437Y14663D01*
X166725Y15093D01*
X166776Y15350D01*
D02*
G37*
G36*
X165250D02*
X164224D01*
X164275Y15093D01*
X164563Y14663D01*
X164993Y14375D01*
X165250Y14324D01*
Y15350D01*
D02*
G37*
G36*
X2976Y14550D02*
X1950D01*
Y13524D01*
X2207Y13575D01*
X2637Y13863D01*
X2925Y14293D01*
X2976Y14550D01*
D02*
G37*
G36*
X45400Y15324D02*
X44932Y15230D01*
X44535Y14965D01*
X44270Y14568D01*
X44177Y14100D01*
X44270Y13632D01*
X44535Y13235D01*
X44932Y12970D01*
X45400Y12877D01*
X45868Y12970D01*
X46265Y13235D01*
X46530Y13632D01*
X46624Y14100D01*
X46530Y14568D01*
X46265Y14965D01*
X45868Y15230D01*
X45400Y15324D01*
D02*
G37*
G36*
X56300Y14923D02*
X55832Y14830D01*
X55435Y14565D01*
X55170Y14168D01*
X55076Y13700D01*
X55170Y13232D01*
X55435Y12835D01*
X55832Y12570D01*
X56300Y12477D01*
X56768Y12570D01*
X57165Y12835D01*
X57430Y13232D01*
X57524Y13700D01*
X57430Y14168D01*
X57165Y14565D01*
X56768Y14830D01*
X56300Y14923D01*
D02*
G37*
G36*
X226750Y13176D02*
X226493Y13125D01*
X226063Y12837D01*
X225775Y12407D01*
X225724Y12150D01*
X226750D01*
Y13176D01*
D02*
G37*
G36*
X1950Y12376D02*
Y11350D01*
X2976D01*
X2925Y11607D01*
X2637Y12037D01*
X2207Y12325D01*
X1950Y12376D01*
D02*
G37*
G36*
X226750Y11650D02*
X225724D01*
X225775Y11393D01*
X226063Y10963D01*
X226493Y10675D01*
X226750Y10624D01*
Y11650D01*
D02*
G37*
G36*
X2976Y10850D02*
X1950D01*
Y9824D01*
X2207Y9875D01*
X2637Y10163D01*
X2925Y10593D01*
X2976Y10850D01*
D02*
G37*
G36*
X98750Y10176D02*
Y9150D01*
X99776D01*
X99725Y9407D01*
X99437Y9837D01*
X99007Y10125D01*
X98750Y10176D01*
D02*
G37*
G36*
X98250D02*
X97993Y10125D01*
X97563Y9837D01*
X97275Y9407D01*
X97224Y9150D01*
X98250D01*
Y10176D01*
D02*
G37*
G36*
X226750Y9376D02*
X226493Y9325D01*
X226063Y9037D01*
X225775Y8607D01*
X225724Y8350D01*
X226750D01*
Y9376D01*
D02*
G37*
G36*
X1950Y8676D02*
Y7650D01*
X2976D01*
X2925Y7907D01*
X2637Y8337D01*
X2207Y8625D01*
X1950Y8676D01*
D02*
G37*
G36*
X99776Y8650D02*
X98750D01*
Y7624D01*
X99007Y7675D01*
X99437Y7963D01*
X99725Y8393D01*
X99776Y8650D01*
D02*
G37*
G36*
X98250D02*
X97224D01*
X97275Y8393D01*
X97563Y7963D01*
X97993Y7675D01*
X98250Y7624D01*
Y8650D01*
D02*
G37*
G36*
X226750Y7850D02*
X225724D01*
X225775Y7593D01*
X226063Y7163D01*
X226493Y6875D01*
X226750Y6824D01*
Y7850D01*
D02*
G37*
G36*
X2976Y7150D02*
X1950D01*
Y6124D01*
X2207Y6175D01*
X2637Y6463D01*
X2925Y6893D01*
X2976Y7150D01*
D02*
G37*
G36*
X226750Y6176D02*
X226493Y6125D01*
X226063Y5837D01*
X225775Y5407D01*
X225724Y5150D01*
X226750D01*
Y6176D01*
D02*
G37*
G36*
Y4650D02*
X225724D01*
X225775Y4393D01*
X226063Y3963D01*
X226493Y3675D01*
X226750Y3624D01*
Y4650D01*
D02*
G37*
G36*
X1950Y3676D02*
Y2650D01*
X2976D01*
X2925Y2907D01*
X2637Y3337D01*
X2207Y3625D01*
X1950Y3676D01*
D02*
G37*
G36*
X23750Y3576D02*
Y2550D01*
X24776D01*
X24725Y2807D01*
X24437Y3237D01*
X24007Y3525D01*
X23750Y3576D01*
D02*
G37*
G36*
X23250D02*
X22993Y3525D01*
X22563Y3237D01*
X22275Y2807D01*
X22224Y2550D01*
X23250D01*
Y3576D01*
D02*
G37*
G36*
X20550D02*
Y2550D01*
X21576D01*
X21525Y2807D01*
X21237Y3237D01*
X20807Y3525D01*
X20550Y3576D01*
D02*
G37*
G36*
X20050D02*
X19793Y3525D01*
X19363Y3237D01*
X19075Y2807D01*
X19024Y2550D01*
X20050D01*
Y3576D01*
D02*
G37*
G36*
X16450D02*
Y2550D01*
X17476D01*
X17425Y2807D01*
X17137Y3237D01*
X16707Y3525D01*
X16450Y3576D01*
D02*
G37*
G36*
X15950D02*
X15693Y3525D01*
X15263Y3237D01*
X14975Y2807D01*
X14924Y2550D01*
X15950D01*
Y3576D01*
D02*
G37*
G36*
X13250D02*
Y2550D01*
X14276D01*
X14225Y2807D01*
X13937Y3237D01*
X13507Y3525D01*
X13250Y3576D01*
D02*
G37*
G36*
X12750D02*
X12493Y3525D01*
X12063Y3237D01*
X11775Y2807D01*
X11724Y2550D01*
X12750D01*
Y3576D01*
D02*
G37*
G36*
X9750D02*
Y2550D01*
X10776D01*
X10725Y2807D01*
X10437Y3237D01*
X10007Y3525D01*
X9750Y3576D01*
D02*
G37*
G36*
X9250D02*
X8993Y3525D01*
X8563Y3237D01*
X8275Y2807D01*
X8224Y2550D01*
X9250D01*
Y3576D01*
D02*
G37*
G36*
X5950D02*
Y2550D01*
X6976D01*
X6925Y2807D01*
X6637Y3237D01*
X6207Y3525D01*
X5950Y3576D01*
D02*
G37*
G36*
X5450D02*
X5193Y3525D01*
X4763Y3237D01*
X4475Y2807D01*
X4424Y2550D01*
X5450D01*
Y3576D01*
D02*
G37*
G36*
X42350Y3476D02*
Y2450D01*
X43376D01*
X43325Y2707D01*
X43037Y3137D01*
X42607Y3425D01*
X42350Y3476D01*
D02*
G37*
G36*
X41850D02*
X41593Y3425D01*
X41163Y3137D01*
X40875Y2707D01*
X40824Y2450D01*
X41850D01*
Y3476D01*
D02*
G37*
G36*
X38250D02*
Y2450D01*
X39276D01*
X39225Y2707D01*
X38937Y3137D01*
X38507Y3425D01*
X38250Y3476D01*
D02*
G37*
G36*
X37750D02*
X37493Y3425D01*
X37063Y3137D01*
X36775Y2707D01*
X36724Y2450D01*
X37750D01*
Y3476D01*
D02*
G37*
G36*
X35050D02*
Y2450D01*
X36076D01*
X36025Y2707D01*
X35737Y3137D01*
X35307Y3425D01*
X35050Y3476D01*
D02*
G37*
G36*
X34550D02*
X34293Y3425D01*
X33863Y3137D01*
X33575Y2707D01*
X33524Y2450D01*
X34550D01*
Y3476D01*
D02*
G37*
G36*
X31550D02*
Y2450D01*
X32576D01*
X32525Y2707D01*
X32237Y3137D01*
X31807Y3425D01*
X31550Y3476D01*
D02*
G37*
G36*
X31050D02*
X30793Y3425D01*
X30363Y3137D01*
X30075Y2707D01*
X30024Y2450D01*
X31050D01*
Y3476D01*
D02*
G37*
G36*
X27750D02*
Y2450D01*
X28776D01*
X28725Y2707D01*
X28437Y3137D01*
X28007Y3425D01*
X27750Y3476D01*
D02*
G37*
G36*
X27250D02*
X26993Y3425D01*
X26563Y3137D01*
X26275Y2707D01*
X26224Y2450D01*
X27250D01*
Y3476D01*
D02*
G37*
G36*
X48050Y3376D02*
Y2350D01*
X49076D01*
X49025Y2607D01*
X48737Y3037D01*
X48307Y3325D01*
X48050Y3376D01*
D02*
G37*
G36*
X47550D02*
X47293Y3325D01*
X46863Y3037D01*
X46575Y2607D01*
X46524Y2350D01*
X47550D01*
Y3376D01*
D02*
G37*
G36*
X197250Y3276D02*
Y2250D01*
X198276D01*
X198225Y2507D01*
X197937Y2937D01*
X197507Y3225D01*
X197250Y3276D01*
D02*
G37*
G36*
X196750D02*
X196493Y3225D01*
X196063Y2937D01*
X195775Y2507D01*
X195724Y2250D01*
X196750D01*
Y3276D01*
D02*
G37*
G36*
X174150D02*
Y2250D01*
X175176D01*
X175125Y2507D01*
X174837Y2937D01*
X174407Y3225D01*
X174150Y3276D01*
D02*
G37*
G36*
X173650D02*
X173393Y3225D01*
X172963Y2937D01*
X172675Y2507D01*
X172624Y2250D01*
X173650D01*
Y3276D01*
D02*
G37*
G36*
X70850D02*
Y2250D01*
X71876D01*
X71825Y2507D01*
X71537Y2937D01*
X71107Y3225D01*
X70850Y3276D01*
D02*
G37*
G36*
X70350D02*
X70093Y3225D01*
X69663Y2937D01*
X69375Y2507D01*
X69324Y2250D01*
X70350D01*
Y3276D01*
D02*
G37*
G36*
X66650D02*
Y2250D01*
X67676D01*
X67625Y2507D01*
X67337Y2937D01*
X66907Y3225D01*
X66650Y3276D01*
D02*
G37*
G36*
X66150D02*
X65893Y3225D01*
X65463Y2937D01*
X65175Y2507D01*
X65124Y2250D01*
X66150D01*
Y3276D01*
D02*
G37*
G36*
X62550D02*
Y2250D01*
X63576D01*
X63525Y2507D01*
X63237Y2937D01*
X62807Y3225D01*
X62550Y3276D01*
D02*
G37*
G36*
X62050D02*
X61793Y3225D01*
X61363Y2937D01*
X61075Y2507D01*
X61024Y2250D01*
X62050D01*
Y3276D01*
D02*
G37*
G36*
X59350D02*
Y2250D01*
X60376D01*
X60325Y2507D01*
X60037Y2937D01*
X59607Y3225D01*
X59350Y3276D01*
D02*
G37*
G36*
X58850D02*
X58593Y3225D01*
X58163Y2937D01*
X57875Y2507D01*
X57824Y2250D01*
X58850D01*
Y3276D01*
D02*
G37*
G36*
X55850D02*
Y2250D01*
X56876D01*
X56825Y2507D01*
X56537Y2937D01*
X56107Y3225D01*
X55850Y3276D01*
D02*
G37*
G36*
X55350D02*
X55093Y3225D01*
X54663Y2937D01*
X54375Y2507D01*
X54324Y2250D01*
X55350D01*
Y3276D01*
D02*
G37*
G36*
X52050D02*
Y2250D01*
X53076D01*
X53025Y2507D01*
X52737Y2937D01*
X52307Y3225D01*
X52050Y3276D01*
D02*
G37*
G36*
X51550D02*
X51293Y3225D01*
X50863Y2937D01*
X50575Y2507D01*
X50524Y2250D01*
X51550D01*
Y3276D01*
D02*
G37*
G36*
X215850Y3176D02*
Y2150D01*
X216876D01*
X216825Y2407D01*
X216537Y2837D01*
X216107Y3125D01*
X215850Y3176D01*
D02*
G37*
G36*
X215350D02*
X215093Y3125D01*
X214663Y2837D01*
X214375Y2407D01*
X214324Y2150D01*
X215350D01*
Y3176D01*
D02*
G37*
G36*
X211750D02*
Y2150D01*
X212776D01*
X212725Y2407D01*
X212437Y2837D01*
X212007Y3125D01*
X211750Y3176D01*
D02*
G37*
G36*
X211250D02*
X210993Y3125D01*
X210563Y2837D01*
X210275Y2407D01*
X210224Y2150D01*
X211250D01*
Y3176D01*
D02*
G37*
G36*
X208550D02*
Y2150D01*
X209576D01*
X209525Y2407D01*
X209237Y2837D01*
X208807Y3125D01*
X208550Y3176D01*
D02*
G37*
G36*
X208050D02*
X207793Y3125D01*
X207363Y2837D01*
X207075Y2407D01*
X207024Y2150D01*
X208050D01*
Y3176D01*
D02*
G37*
G36*
X205050D02*
Y2150D01*
X206076D01*
X206025Y2407D01*
X205737Y2837D01*
X205307Y3125D01*
X205050Y3176D01*
D02*
G37*
G36*
X204550D02*
X204293Y3125D01*
X203863Y2837D01*
X203575Y2407D01*
X203524Y2150D01*
X204550D01*
Y3176D01*
D02*
G37*
G36*
X201250D02*
Y2150D01*
X202276D01*
X202225Y2407D01*
X201937Y2837D01*
X201507Y3125D01*
X201250Y3176D01*
D02*
G37*
G36*
X200750D02*
X200493Y3125D01*
X200063Y2837D01*
X199775Y2407D01*
X199724Y2150D01*
X200750D01*
Y3176D01*
D02*
G37*
G36*
X192750D02*
Y2150D01*
X193776D01*
X193725Y2407D01*
X193437Y2837D01*
X193007Y3125D01*
X192750Y3176D01*
D02*
G37*
G36*
X192250D02*
X191993Y3125D01*
X191563Y2837D01*
X191275Y2407D01*
X191224Y2150D01*
X192250D01*
Y3176D01*
D02*
G37*
G36*
X188650D02*
Y2150D01*
X189676D01*
X189625Y2407D01*
X189337Y2837D01*
X188907Y3125D01*
X188650Y3176D01*
D02*
G37*
G36*
X188150D02*
X187893Y3125D01*
X187463Y2837D01*
X187175Y2407D01*
X187124Y2150D01*
X188150D01*
Y3176D01*
D02*
G37*
G36*
X185450D02*
Y2150D01*
X186476D01*
X186425Y2407D01*
X186137Y2837D01*
X185707Y3125D01*
X185450Y3176D01*
D02*
G37*
G36*
X184950D02*
X184693Y3125D01*
X184263Y2837D01*
X183975Y2407D01*
X183924Y2150D01*
X184950D01*
Y3176D01*
D02*
G37*
G36*
X181950D02*
Y2150D01*
X182976D01*
X182925Y2407D01*
X182637Y2837D01*
X182207Y3125D01*
X181950Y3176D01*
D02*
G37*
G36*
X181450D02*
X181193Y3125D01*
X180763Y2837D01*
X180475Y2407D01*
X180424Y2150D01*
X181450D01*
Y3176D01*
D02*
G37*
G36*
X178150D02*
Y2150D01*
X179176D01*
X179125Y2407D01*
X178837Y2837D01*
X178407Y3125D01*
X178150Y3176D01*
D02*
G37*
G36*
X177650D02*
X177393Y3125D01*
X176963Y2837D01*
X176675Y2407D01*
X176624Y2150D01*
X177650D01*
Y3176D01*
D02*
G37*
G36*
X93150D02*
Y2150D01*
X94176D01*
X94125Y2407D01*
X93837Y2837D01*
X93407Y3125D01*
X93150Y3176D01*
D02*
G37*
G36*
X92650D02*
X92393Y3125D01*
X91963Y2837D01*
X91675Y2407D01*
X91624Y2150D01*
X92650D01*
Y3176D01*
D02*
G37*
G36*
X89450D02*
Y2150D01*
X90476D01*
X90425Y2407D01*
X90137Y2837D01*
X89707Y3125D01*
X89450Y3176D01*
D02*
G37*
G36*
X88950D02*
X88693Y3125D01*
X88263Y2837D01*
X87975Y2407D01*
X87924Y2150D01*
X88950D01*
Y3176D01*
D02*
G37*
G36*
X85350D02*
Y2150D01*
X86376D01*
X86325Y2407D01*
X86037Y2837D01*
X85607Y3125D01*
X85350Y3176D01*
D02*
G37*
G36*
X84850D02*
X84593Y3125D01*
X84163Y2837D01*
X83875Y2407D01*
X83824Y2150D01*
X84850D01*
Y3176D01*
D02*
G37*
G36*
X82150D02*
Y2150D01*
X83176D01*
X83125Y2407D01*
X82837Y2837D01*
X82407Y3125D01*
X82150Y3176D01*
D02*
G37*
G36*
X81650D02*
X81393Y3125D01*
X80963Y2837D01*
X80675Y2407D01*
X80624Y2150D01*
X81650D01*
Y3176D01*
D02*
G37*
G36*
X78650D02*
Y2150D01*
X79676D01*
X79625Y2407D01*
X79337Y2837D01*
X78907Y3125D01*
X78650Y3176D01*
D02*
G37*
G36*
X78150D02*
X77893Y3125D01*
X77463Y2837D01*
X77175Y2407D01*
X77124Y2150D01*
X78150D01*
Y3176D01*
D02*
G37*
G36*
X74850D02*
Y2150D01*
X75876D01*
X75825Y2407D01*
X75537Y2837D01*
X75107Y3125D01*
X74850Y3176D01*
D02*
G37*
G36*
X74350D02*
X74093Y3125D01*
X73663Y2837D01*
X73375Y2407D01*
X73324Y2150D01*
X74350D01*
Y3176D01*
D02*
G37*
G36*
X223250Y3076D02*
Y2050D01*
X224276D01*
X224225Y2307D01*
X223937Y2737D01*
X223507Y3025D01*
X223250Y3076D01*
D02*
G37*
G36*
X222750D02*
X222493Y3025D01*
X222063Y2737D01*
X221775Y2307D01*
X221724Y2050D01*
X222750D01*
Y3076D01*
D02*
G37*
G36*
X111750D02*
Y2050D01*
X112776D01*
X112725Y2307D01*
X112437Y2737D01*
X112007Y3025D01*
X111750Y3076D01*
D02*
G37*
G36*
X111250D02*
X110993Y3025D01*
X110563Y2737D01*
X110275Y2307D01*
X110224Y2050D01*
X111250D01*
Y3076D01*
D02*
G37*
G36*
X107650D02*
Y2050D01*
X108676D01*
X108625Y2307D01*
X108337Y2737D01*
X107907Y3025D01*
X107650Y3076D01*
D02*
G37*
G36*
X107150D02*
X106893Y3025D01*
X106463Y2737D01*
X106175Y2307D01*
X106124Y2050D01*
X107150D01*
Y3076D01*
D02*
G37*
G36*
X104450D02*
Y2050D01*
X105476D01*
X105425Y2307D01*
X105137Y2737D01*
X104707Y3025D01*
X104450Y3076D01*
D02*
G37*
G36*
X103950D02*
X103693Y3025D01*
X103263Y2737D01*
X102975Y2307D01*
X102924Y2050D01*
X103950D01*
Y3076D01*
D02*
G37*
G36*
X100950D02*
Y2050D01*
X101976D01*
X101925Y2307D01*
X101637Y2737D01*
X101207Y3025D01*
X100950Y3076D01*
D02*
G37*
G36*
X100450D02*
X100193Y3025D01*
X99763Y2737D01*
X99475Y2307D01*
X99424Y2050D01*
X100450D01*
Y3076D01*
D02*
G37*
G36*
X97150D02*
Y2050D01*
X98176D01*
X98125Y2307D01*
X97837Y2737D01*
X97407Y3025D01*
X97150Y3076D01*
D02*
G37*
G36*
X96650D02*
X96393Y3025D01*
X95963Y2737D01*
X95675Y2307D01*
X95624Y2050D01*
X96650D01*
Y3076D01*
D02*
G37*
G36*
X226750Y2976D02*
X226493Y2925D01*
X226063Y2637D01*
X225775Y2207D01*
X225724Y1950D01*
X226750D01*
Y2976D01*
D02*
G37*
G36*
X219850D02*
Y1950D01*
X220876D01*
X220825Y2207D01*
X220537Y2637D01*
X220107Y2925D01*
X219850Y2976D01*
D02*
G37*
G36*
X219350D02*
X219093Y2925D01*
X218663Y2637D01*
X218375Y2207D01*
X218324Y1950D01*
X219350D01*
Y2976D01*
D02*
G37*
%LPD*%
G36*
X185230Y129145D02*
X184978Y128645D01*
X135322D01*
X135070Y129145D01*
X135100Y129186D01*
X185200D01*
X185230Y129145D01*
D02*
G37*
D54*
X128600Y83500D02*
X128900D01*
X120300Y124100D02*
Y126300D01*
X122900Y128900D01*
Y129900D01*
X128194D01*
X122300Y130500D02*
X122900Y129900D01*
X122300Y130500D02*
Y133848D01*
X124258Y135805D01*
Y135758D02*
Y135805D01*
X201300Y57900D02*
X202300Y56900D01*
Y41400D02*
Y56900D01*
X168800Y51400D02*
Y59500D01*
Y51400D02*
X170300Y49900D01*
X182000D01*
X183753Y47353D02*
Y68547D01*
X171300Y34900D02*
X183753Y47353D01*
X164700Y34900D02*
X171300D01*
X160227Y75800D02*
X162400Y77973D01*
D55*
X134500Y136400D02*
Y142000D01*
X132132Y134031D02*
X134500Y136400D01*
X132132Y133837D02*
Y134031D01*
X126200Y138500D02*
Y139900D01*
Y138500D02*
X128089Y136611D01*
Y135700D02*
Y136611D01*
X126226Y133837D02*
X128089Y135700D01*
X71800Y112762D02*
Y121200D01*
D57*
X128900Y83500D02*
X136600Y75800D01*
X160227D01*
X116900Y146800D02*
X120700Y150600D01*
X116900Y122000D02*
Y146800D01*
D58*
X78539Y134666D02*
X100748Y156875D01*
X78539Y127539D02*
Y134666D01*
X100748Y156875D02*
X135200D01*
X101400Y155300D02*
X135200D01*
X76900Y125288D02*
X81688D01*
X80113Y134013D02*
X101400Y155300D01*
X80113Y127487D02*
Y134013D01*
X48300Y174200D02*
X57900Y164600D01*
X62800D01*
X66868Y160532D01*
Y158332D02*
Y160532D01*
X44600Y175000D02*
Y179100D01*
Y175000D02*
X57100Y162500D01*
X62700D01*
X64900Y160300D01*
X33900Y185400D02*
X40200D01*
X42100Y183500D01*
Y175100D02*
Y183500D01*
Y175100D02*
X56900Y160300D01*
X62931D01*
X64900Y158332D01*
X15100Y184800D02*
X16300Y183600D01*
X40000D01*
X40800Y182800D01*
Y174000D02*
Y182800D01*
Y174000D02*
X56468Y158332D01*
X62931D01*
X106800Y112700D02*
Y116000D01*
X132200Y135874D02*
Y144100D01*
X130163Y133837D02*
X132200Y135874D01*
X114900Y135500D02*
Y148400D01*
X209968Y127931D02*
Y133400D01*
X130200Y126100D02*
X209900D01*
X130200D02*
Y127969D01*
X132132Y129900D01*
X134100D02*
X186200D01*
X132132Y127931D02*
X209968D01*
X187700Y130000D02*
Y135800D01*
X189700Y130100D02*
Y133800D01*
X194700Y55300D02*
X196800Y57400D01*
X194700Y40900D02*
Y55300D01*
X175100Y56900D02*
X175500Y56500D01*
X175100Y56900D02*
Y60900D01*
X164000Y72000D02*
X175100Y60900D01*
X164000Y72000D02*
Y79523D01*
X162400Y81123D02*
X164000Y79523D01*
X156100Y83700D02*
X158370D01*
X160825Y81245D01*
Y81123D02*
Y81245D01*
X147900Y78100D02*
X150923Y81123D01*
X159250D01*
X153300Y78100D02*
X154748Y79548D01*
X159250D01*
D63*
X128402Y144398D02*
D03*
X208191Y95991D02*
D03*
X202011Y100489D02*
D03*
X187100Y46100D02*
D03*
X188800Y64900D02*
D03*
X17000Y102200D02*
D03*
X9600D02*
D03*
X5666Y132809D02*
D03*
X4135Y109140D02*
D03*
X147200Y165500D02*
D03*
X61900Y112400D02*
D03*
X67200Y104000D02*
D03*
X72663Y105037D02*
D03*
X155400Y117200D02*
D03*
X165500Y15600D02*
D03*
X98500Y8900D02*
D03*
X82600Y191100D02*
D03*
X11900Y142700D02*
D03*
X200787Y32187D02*
D03*
X176800Y32700D02*
D03*
X218487Y167513D02*
D03*
X191913Y167213D02*
D03*
X97300Y128600D02*
D03*
X102100Y129500D02*
D03*
X83800Y90900D02*
D03*
X48300Y174200D02*
D03*
X44600Y179100D02*
D03*
X33900Y185400D02*
D03*
X15100Y184800D02*
D03*
X56800Y150700D02*
D03*
X75800Y153400D02*
D03*
X171677Y75323D02*
D03*
X172488Y67812D02*
D03*
X108900Y143284D02*
D03*
X16835Y111940D02*
D03*
Y114540D02*
D03*
Y116740D02*
D03*
Y118940D02*
D03*
Y121540D02*
D03*
Y123740D02*
D03*
Y126340D02*
D03*
Y128940D02*
D03*
X14435Y131740D02*
D03*
X11935D02*
D03*
X9635D02*
D03*
X2835Y129940D02*
D03*
Y127740D02*
D03*
Y125540D02*
D03*
Y123340D02*
D03*
Y121140D02*
D03*
Y118940D02*
D03*
Y116740D02*
D03*
Y114140D02*
D03*
X1600Y100300D02*
D03*
Y95300D02*
D03*
Y90300D02*
D03*
Y85400D02*
D03*
Y81700D02*
D03*
Y76800D02*
D03*
Y71800D02*
D03*
Y66800D02*
D03*
X1700Y62900D02*
D03*
Y59200D02*
D03*
Y55500D02*
D03*
Y51800D02*
D03*
Y48100D02*
D03*
Y44400D02*
D03*
Y40700D02*
D03*
Y37000D02*
D03*
Y33300D02*
D03*
Y29600D02*
D03*
Y25900D02*
D03*
Y22200D02*
D03*
Y18500D02*
D03*
Y14800D02*
D03*
Y11100D02*
D03*
Y7400D02*
D03*
Y2400D02*
D03*
X5700Y2300D02*
D03*
X9500D02*
D03*
X13000D02*
D03*
X16200D02*
D03*
X20300D02*
D03*
X42100Y2200D02*
D03*
X38000D02*
D03*
X34800D02*
D03*
X31300D02*
D03*
X27500D02*
D03*
X23500Y2300D02*
D03*
X66400Y2000D02*
D03*
X62300D02*
D03*
X59100D02*
D03*
X55600D02*
D03*
X51800D02*
D03*
X47800Y2100D02*
D03*
X89200Y1900D02*
D03*
X85100D02*
D03*
X81900D02*
D03*
X78400D02*
D03*
X74600D02*
D03*
X70600Y2000D02*
D03*
X111500Y1800D02*
D03*
X107400D02*
D03*
X104200D02*
D03*
X100700D02*
D03*
X96900D02*
D03*
X92900Y1900D02*
D03*
X192500D02*
D03*
X188400D02*
D03*
X185200D02*
D03*
X181700D02*
D03*
X177900D02*
D03*
X173900Y2000D02*
D03*
X215600Y1900D02*
D03*
X211500D02*
D03*
X208300D02*
D03*
X204800D02*
D03*
X201000D02*
D03*
X197000Y2000D02*
D03*
X219600Y1700D02*
D03*
X223000Y1800D02*
D03*
X227000Y1700D02*
D03*
Y4900D02*
D03*
Y8100D02*
D03*
Y11900D02*
D03*
Y15700D02*
D03*
Y18900D02*
D03*
Y22700D02*
D03*
Y27100D02*
D03*
Y32800D02*
D03*
Y55900D02*
D03*
Y59800D02*
D03*
Y64200D02*
D03*
Y112500D02*
D03*
Y116900D02*
D03*
X226900Y120700D02*
D03*
Y124500D02*
D03*
Y129600D02*
D03*
Y134000D02*
D03*
Y138400D02*
D03*
Y142800D02*
D03*
Y147200D02*
D03*
Y151000D02*
D03*
Y155400D02*
D03*
Y159800D02*
D03*
Y164200D02*
D03*
Y169900D02*
D03*
Y173700D02*
D03*
Y179400D02*
D03*
Y185600D02*
D03*
Y191300D02*
D03*
Y196400D02*
D03*
X220200Y198000D02*
D03*
X215200Y197900D02*
D03*
X211000Y198200D02*
D03*
X205200Y198100D02*
D03*
X200700Y198200D02*
D03*
X195200Y198100D02*
D03*
X188500Y198000D02*
D03*
X183000D02*
D03*
X178200D02*
D03*
X173500Y197900D02*
D03*
X167600Y198000D02*
D03*
X162600Y198100D02*
D03*
X156600D02*
D03*
X151400Y198000D02*
D03*
X147000D02*
D03*
X141800Y197900D02*
D03*
X136900Y198000D02*
D03*
X131300Y197900D02*
D03*
X121500D02*
D03*
X114600D02*
D03*
X107900Y197800D02*
D03*
X100500D02*
D03*
X93500Y197600D02*
D03*
X86600Y197800D02*
D03*
X82800Y197900D02*
D03*
X76000Y197800D02*
D03*
X68900Y197900D02*
D03*
X62800D02*
D03*
X56500D02*
D03*
X48700Y198000D02*
D03*
X40600Y197700D02*
D03*
X32100Y198200D02*
D03*
X24000Y198100D02*
D03*
X17100Y198200D02*
D03*
X9500D02*
D03*
X2900D02*
D03*
X2200Y192000D02*
D03*
Y184200D02*
D03*
Y176400D02*
D03*
Y164800D02*
D03*
Y157000D02*
D03*
Y149200D02*
D03*
Y141500D02*
D03*
X63000Y121200D02*
D03*
X71800D02*
D03*
D64*
X64900Y165100D02*
D03*
X114900Y135500D02*
D03*
X175500Y56500D02*
D03*
X168800Y59500D02*
D03*
D65*
X76900Y125288D02*
D03*
X81688D02*
D03*
X135200Y155300D02*
D03*
X80113Y127487D02*
D03*
X135200Y156875D02*
D03*
X78539Y127539D02*
D03*
X66868Y158332D02*
D03*
X64900D02*
D03*
Y160300D02*
D03*
X62931Y158332D02*
D03*
X106800Y116000D02*
D03*
Y112700D02*
D03*
X132200Y144100D02*
D03*
X114900Y148400D02*
D03*
X134500Y142000D02*
D03*
X126200Y139900D02*
D03*
X132132Y133837D02*
D03*
X126226D02*
D03*
X186200Y129900D02*
D03*
X209900Y126100D02*
D03*
X210000Y133400D02*
D03*
X132132Y127931D02*
D03*
X134100Y129900D02*
D03*
X132132D02*
D03*
X130163Y133837D02*
D03*
X187700Y135800D02*
D03*
Y130000D02*
D03*
X189700Y133800D02*
D03*
Y130100D02*
D03*
X128194Y129900D02*
D03*
X124258Y135805D02*
D03*
X201300Y57900D02*
D03*
X202300Y41400D02*
D03*
X196800Y57400D02*
D03*
X194700Y40900D02*
D03*
X156100Y83700D02*
D03*
X147900Y78100D02*
D03*
X153300D02*
D03*
X162400Y81123D02*
D03*
X160825D02*
D03*
X159250Y79548D02*
D03*
Y81123D02*
D03*
X162400Y77973D02*
D03*
X71838Y112762D02*
D03*
D66*
X128600Y83500D02*
D03*
X116900Y122000D02*
D03*
X120300Y124100D02*
D03*
X120700Y150600D02*
D03*
X157800Y87600D02*
D03*
D67*
X124258Y123442D02*
D03*
X132132Y123932D02*
D03*
X182000Y49900D02*
D03*
X183753Y68547D02*
D03*
X164700Y34900D02*
D03*
X138900Y142300D02*
D03*
X99200Y98400D02*
D03*
X78702Y85002D02*
D03*
X89700Y79500D02*
D03*
X112100Y80000D02*
D03*
D68*
X94287Y103313D02*
D03*
X89562D02*
D03*
X84838D02*
D03*
X80113D02*
D03*
X94287Y108038D02*
D03*
X89562D02*
D03*
X84838D02*
D03*
X80113D02*
D03*
X94287Y112762D02*
D03*
X89562D02*
D03*
X84838D02*
D03*
X80113D02*
D03*
X94287Y117487D02*
D03*
X89562D02*
D03*
X84838D02*
D03*
X80113D02*
D03*
M02*
