G04 Layer_Physical_Order=1*
G04 Layer_Color=255*
%FSLAX25Y25*%
%MOIN*%
G70*
G01*
G75*
%ADD10R,0.02953X0.02559*%
%ADD11R,0.07480X0.06299*%
%ADD12R,0.05315X0.01575*%
%ADD13R,0.07480X0.04724*%
%ADD14R,0.01575X0.01969*%
%ADD15R,0.01417X0.01969*%
%ADD16R,0.02953X0.01102*%
%ADD17R,0.03347X0.01102*%
%ADD18R,0.04724X0.04921*%
%ADD19R,0.01575X0.02598*%
%ADD20R,0.03150X0.03150*%
%ADD21R,0.02165X0.02362*%
%ADD22R,0.01378X0.01181*%
%ADD23R,0.18504X0.18504*%
%ADD24O,0.00787X0.02559*%
%ADD25O,0.02559X0.00787*%
%ADD26R,0.08268X0.08268*%
%ADD27R,0.02835X0.01181*%
%ADD28R,0.01181X0.02835*%
%ADD29R,0.05000X0.15000*%
%ADD30R,0.04016X0.08622*%
%ADD31R,0.09055X0.03347*%
%ADD32R,0.02795X0.03622*%
%ADD33R,0.03543X0.03937*%
%ADD34R,0.02520X0.02362*%
%ADD35R,0.01260X0.01260*%
%ADD36R,0.06693X0.04724*%
%ADD37R,0.04331X0.01969*%
%ADD38C,0.01043*%
%ADD39C,0.01083*%
G04:AMPARAMS|DCode=40|XSize=9mil|YSize=9mil|CornerRadius=4.5mil|HoleSize=0mil|Usage=FLASHONLY|Rotation=0.000|XOffset=0mil|YOffset=0mil|HoleType=Round|Shape=RoundedRectangle|*
%AMROUNDEDRECTD40*
21,1,0.00900,0.00000,0,0,0.0*
21,1,0.00000,0.00900,0,0,0.0*
1,1,0.00900,0.00000,0.00000*
1,1,0.00900,0.00000,0.00000*
1,1,0.00900,0.00000,0.00000*
1,1,0.00900,0.00000,0.00000*
%
%ADD40ROUNDEDRECTD40*%
%ADD41R,0.10827X0.05512*%
%ADD42R,0.03150X0.03937*%
%ADD43R,0.00984X0.02165*%
%ADD44R,0.02756X0.03543*%
%ADD45R,0.02756X0.15748*%
%ADD46R,0.02756X0.05906*%
%ADD47R,0.01260X0.01260*%
%ADD48R,0.03937X0.03543*%
%ADD49R,0.02362X0.02520*%
%ADD50R,0.04724X0.06693*%
%ADD51R,0.01969X0.04331*%
%ADD52R,0.15000X0.05000*%
%ADD53R,0.01181X0.01378*%
%ADD54C,0.00800*%
%ADD55C,0.01000*%
%ADD56C,0.00550*%
%ADD57C,0.00600*%
%ADD58C,0.00700*%
%ADD59C,0.00400*%
%ADD60C,0.01500*%
%ADD61O,0.05906X0.04921*%
%ADD62O,0.07480X0.04823*%
%ADD63C,0.02598*%
%ADD64C,0.01600*%
%ADD65C,0.01000*%
%ADD66C,0.01400*%
%ADD67C,0.01800*%
%ADD68C,0.01300*%
G36*
X228351Y197469D02*
X227851Y197317D01*
X227837Y197337D01*
X227407Y197625D01*
X227150Y197676D01*
Y196400D01*
Y195124D01*
X227407Y195175D01*
X227837Y195463D01*
X227851Y195483D01*
X228351Y195331D01*
Y192369D01*
X227851Y192217D01*
X227837Y192237D01*
X227407Y192525D01*
X227150Y192576D01*
Y191300D01*
Y190024D01*
X227407Y190075D01*
X227837Y190363D01*
X227851Y190383D01*
X228351Y190231D01*
Y186669D01*
X227851Y186517D01*
X227837Y186537D01*
X227407Y186825D01*
X227150Y186876D01*
Y185600D01*
Y184324D01*
X227407Y184375D01*
X227837Y184663D01*
X227851Y184683D01*
X228351Y184531D01*
Y180469D01*
X227851Y180317D01*
X227837Y180337D01*
X227407Y180625D01*
X227150Y180676D01*
Y179400D01*
Y178124D01*
X227407Y178175D01*
X227837Y178463D01*
X227851Y178483D01*
X228351Y178331D01*
Y174769D01*
X227851Y174617D01*
X227837Y174637D01*
X227407Y174925D01*
X227150Y174976D01*
Y173700D01*
Y172424D01*
X227407Y172475D01*
X227837Y172763D01*
X227851Y172783D01*
X228351Y172631D01*
Y170969D01*
X227851Y170817D01*
X227837Y170837D01*
X227407Y171125D01*
X227150Y171176D01*
Y169900D01*
Y168624D01*
X227407Y168675D01*
X227837Y168963D01*
X227851Y168983D01*
X228351Y168831D01*
Y165269D01*
X227851Y165117D01*
X227837Y165137D01*
X227407Y165425D01*
X227150Y165476D01*
Y164200D01*
Y162924D01*
X227407Y162975D01*
X227837Y163263D01*
X227851Y163283D01*
X228351Y163131D01*
Y160869D01*
X227851Y160717D01*
X227837Y160737D01*
X227407Y161025D01*
X227150Y161076D01*
Y159800D01*
Y158524D01*
X227407Y158575D01*
X227837Y158863D01*
X227851Y158883D01*
X228351Y158731D01*
Y156469D01*
X227851Y156317D01*
X227837Y156337D01*
X227407Y156625D01*
X227150Y156676D01*
Y155400D01*
Y154124D01*
X227407Y154175D01*
X227837Y154463D01*
X227851Y154483D01*
X228351Y154331D01*
Y152069D01*
X227851Y151917D01*
X227837Y151937D01*
X227407Y152225D01*
X227150Y152276D01*
Y151000D01*
Y149724D01*
X227407Y149775D01*
X227837Y150063D01*
X227851Y150083D01*
X228351Y149931D01*
Y148269D01*
X227851Y148117D01*
X227837Y148137D01*
X227407Y148425D01*
X227150Y148476D01*
Y147200D01*
Y145924D01*
X227407Y145975D01*
X227837Y146263D01*
X227851Y146283D01*
X228351Y146131D01*
Y143869D01*
X227851Y143717D01*
X227837Y143737D01*
X227407Y144025D01*
X227150Y144076D01*
Y142800D01*
Y141524D01*
X227407Y141575D01*
X227837Y141863D01*
X227851Y141883D01*
X228351Y141731D01*
Y139469D01*
X227851Y139317D01*
X227837Y139337D01*
X227407Y139625D01*
X227150Y139676D01*
Y138400D01*
Y137124D01*
X227407Y137175D01*
X227837Y137463D01*
X227851Y137483D01*
X228351Y137331D01*
Y135069D01*
X227851Y134917D01*
X227837Y134937D01*
X227407Y135225D01*
X227150Y135276D01*
Y134000D01*
Y132724D01*
X227407Y132775D01*
X227837Y133063D01*
X227851Y133083D01*
X228351Y132931D01*
Y130669D01*
X227851Y130517D01*
X227837Y130537D01*
X227407Y130825D01*
X227150Y130876D01*
Y129600D01*
Y128324D01*
X227407Y128375D01*
X227837Y128663D01*
X227851Y128683D01*
X228351Y128531D01*
Y125569D01*
X227851Y125417D01*
X227837Y125437D01*
X227407Y125725D01*
X227150Y125776D01*
Y124500D01*
Y123224D01*
X227407Y123275D01*
X227837Y123563D01*
X227851Y123583D01*
X228351Y123431D01*
Y121769D01*
X227851Y121617D01*
X227837Y121637D01*
X227407Y121925D01*
X227150Y121976D01*
Y120700D01*
Y119424D01*
X227407Y119475D01*
X227837Y119763D01*
X227851Y119783D01*
X228351Y119631D01*
Y118117D01*
X228169Y117994D01*
X227851Y117895D01*
X227507Y118125D01*
X227250Y118176D01*
Y116900D01*
Y115624D01*
X227507Y115675D01*
X227851Y115905D01*
X228169Y115806D01*
X228351Y115683D01*
Y113717D01*
X228169Y113594D01*
X227851Y113495D01*
X227507Y113725D01*
X227250Y113776D01*
Y112500D01*
Y111224D01*
X227507Y111275D01*
X227851Y111505D01*
X228169Y111406D01*
X228351Y111283D01*
Y106806D01*
X227851Y106636D01*
X227532Y107052D01*
X226945Y107502D01*
X226261Y107785D01*
X225527Y107882D01*
X222869D01*
X222135Y107785D01*
X221451Y107502D01*
X220864Y107052D01*
X220413Y106464D01*
X220130Y105780D01*
X220086Y105447D01*
X220060D01*
X220034Y105046D01*
X220060Y104847D01*
Y99922D01*
X228340D01*
X228351Y99426D01*
Y99052D01*
X228340Y98557D01*
X227851Y98557D01*
X220060D01*
Y91457D01*
X228340Y91457D01*
X228351Y90962D01*
Y90785D01*
X228340Y90289D01*
X227851Y90289D01*
X220060D01*
Y83190D01*
X228340Y83190D01*
X228351Y82694D01*
Y82320D01*
X228340Y81824D01*
X220060D01*
Y76884D01*
X220036Y76700D01*
X220060Y76300D01*
X220088D01*
X220132Y75966D01*
X220415Y75282D01*
X220866Y74695D01*
X221453Y74244D01*
X222137Y73961D01*
X222871Y73864D01*
X225529D01*
X226263Y73961D01*
X226947Y74244D01*
X227534Y74695D01*
X227851Y75108D01*
X228351Y74938D01*
Y65417D01*
X228169Y65294D01*
X227851Y65195D01*
X227507Y65425D01*
X227250Y65476D01*
Y64200D01*
Y62924D01*
X227507Y62975D01*
X227851Y63205D01*
X228169Y63106D01*
X228351Y62983D01*
Y61017D01*
X228169Y60894D01*
X227851Y60795D01*
X227507Y61025D01*
X227250Y61076D01*
Y59800D01*
Y58524D01*
X227507Y58575D01*
X227851Y58805D01*
X228169Y58706D01*
X228351Y58583D01*
Y57117D01*
X228169Y56994D01*
X227851Y56895D01*
X227507Y57125D01*
X227250Y57176D01*
Y55900D01*
Y54624D01*
X227507Y54675D01*
X227851Y54905D01*
X228169Y54806D01*
X228351Y54683D01*
Y34017D01*
X228169Y33894D01*
X227851Y33795D01*
X227507Y34025D01*
X227250Y34076D01*
Y32800D01*
Y31524D01*
X227507Y31575D01*
X227851Y31805D01*
X228169Y31706D01*
X228351Y31583D01*
Y28317D01*
X228169Y28194D01*
X227851Y28095D01*
X227507Y28325D01*
X227250Y28376D01*
Y27100D01*
Y25824D01*
X227507Y25875D01*
X227851Y26105D01*
X228169Y26006D01*
X228351Y25883D01*
Y23917D01*
X228169Y23794D01*
X227851Y23695D01*
X227507Y23925D01*
X227250Y23976D01*
Y22700D01*
Y21424D01*
X227507Y21475D01*
X227851Y21705D01*
X228169Y21606D01*
X228351Y21483D01*
Y20117D01*
X228169Y19994D01*
X227851Y19895D01*
X227507Y20125D01*
X227250Y20176D01*
Y18900D01*
Y17624D01*
X227507Y17675D01*
X227851Y17905D01*
X228169Y17806D01*
X228351Y17683D01*
Y16917D01*
X228169Y16794D01*
X227851Y16695D01*
X227507Y16925D01*
X227250Y16976D01*
Y15700D01*
Y14424D01*
X227507Y14475D01*
X227851Y14705D01*
X228169Y14606D01*
X228351Y14483D01*
Y13117D01*
X228169Y12994D01*
X227851Y12895D01*
X227507Y13125D01*
X227250Y13176D01*
Y11900D01*
Y10624D01*
X227507Y10675D01*
X227851Y10905D01*
X228169Y10806D01*
X228351Y10683D01*
Y9317D01*
X228169Y9194D01*
X227851Y9095D01*
X227507Y9325D01*
X227250Y9376D01*
Y8100D01*
Y6824D01*
X227507Y6875D01*
X227851Y7105D01*
X228169Y7006D01*
X228351Y6883D01*
Y6117D01*
X228169Y5994D01*
X227851Y5895D01*
X227507Y6125D01*
X227250Y6176D01*
Y4900D01*
Y3624D01*
X227507Y3675D01*
X227851Y3905D01*
X228169Y3806D01*
X228351Y3683D01*
Y2917D01*
X228169Y2794D01*
X227851Y2695D01*
X227507Y2925D01*
X227250Y2976D01*
Y1700D01*
X227000D01*
Y1450D01*
X225724D01*
X225775Y1193D01*
X225804Y1149D01*
X225537Y649D01*
X224396D01*
X224129Y1149D01*
X224225Y1293D01*
X224276Y1550D01*
X221724D01*
X221775Y1293D01*
X221871Y1149D01*
X221604Y649D01*
X221063D01*
X220796Y1149D01*
X220825Y1193D01*
X220876Y1450D01*
X218324D01*
X218375Y1193D01*
X218404Y1149D01*
X218137Y649D01*
X216900D01*
X216662Y1149D01*
X216825Y1393D01*
X216876Y1650D01*
X214324D01*
X214375Y1393D01*
X214538Y1149D01*
X214300Y649D01*
X212800D01*
X212562Y1149D01*
X212725Y1393D01*
X212776Y1650D01*
X210224D01*
X210275Y1393D01*
X210438Y1149D01*
X210200Y649D01*
X209600D01*
X209362Y1149D01*
X209525Y1393D01*
X209576Y1650D01*
X207024D01*
X207075Y1393D01*
X207238Y1149D01*
X207000Y649D01*
X206100D01*
X205862Y1149D01*
X206025Y1393D01*
X206076Y1650D01*
X203524D01*
X203575Y1393D01*
X203738Y1149D01*
X203500Y649D01*
X202300D01*
X202062Y1149D01*
X202225Y1393D01*
X202276Y1650D01*
X199724D01*
X199775Y1393D01*
X199938Y1149D01*
X199700Y649D01*
X198217D01*
X198094Y831D01*
X197995Y1149D01*
X198225Y1493D01*
X198276Y1750D01*
X195724D01*
X195775Y1493D01*
X196005Y1149D01*
X195906Y831D01*
X195783Y649D01*
X193800D01*
X193562Y1149D01*
X193725Y1393D01*
X193776Y1650D01*
X191224D01*
X191275Y1393D01*
X191438Y1149D01*
X191200Y649D01*
X189700D01*
X189462Y1149D01*
X189625Y1393D01*
X189676Y1650D01*
X187124D01*
X187175Y1393D01*
X187338Y1149D01*
X187100Y649D01*
X186500D01*
X186262Y1149D01*
X186425Y1393D01*
X186476Y1650D01*
X183924D01*
X183975Y1393D01*
X184138Y1149D01*
X183900Y649D01*
X183000D01*
X182762Y1149D01*
X182925Y1393D01*
X182976Y1650D01*
X180424D01*
X180475Y1393D01*
X180638Y1149D01*
X180400Y649D01*
X179200D01*
X178962Y1149D01*
X179125Y1393D01*
X179176Y1650D01*
X176624D01*
X176675Y1393D01*
X176838Y1149D01*
X176600Y649D01*
X175117D01*
X174994Y831D01*
X174895Y1149D01*
X175125Y1493D01*
X175176Y1750D01*
X172624D01*
X172675Y1493D01*
X172905Y1149D01*
X172806Y831D01*
X172683Y649D01*
X170654D01*
X170447Y1149D01*
X174862Y5564D01*
X175060Y5861D01*
X175130Y6213D01*
Y7570D01*
X180026D01*
Y9808D01*
X194974D01*
Y7570D01*
X206601D01*
Y13882D01*
X194974D01*
Y11644D01*
X180026D01*
Y13882D01*
X174926D01*
Y16687D01*
X174872Y16961D01*
X174717Y17192D01*
X169153Y22756D01*
X169344Y23218D01*
X173963D01*
Y26474D01*
X174213D01*
Y26724D01*
X180126D01*
Y29730D01*
X175835D01*
X175628Y30230D01*
X176777Y31379D01*
X176800Y31374D01*
X177307Y31475D01*
X177737Y31763D01*
X178025Y32193D01*
X178076Y32450D01*
X176800D01*
Y32700D01*
X176550D01*
Y33976D01*
X176293Y33925D01*
X175863Y33637D01*
X175575Y33207D01*
X175475Y32700D01*
X175479Y32677D01*
X173564Y30762D01*
X173365Y30464D01*
X173295Y30113D01*
Y29730D01*
X168299D01*
X168014Y30112D01*
Y31104D01*
X176005Y39095D01*
X176159Y39327D01*
X176214Y39600D01*
Y55714D01*
X176257Y55743D01*
X176286Y55786D01*
X177411D01*
Y55728D01*
X179589D01*
Y57591D01*
X179589Y57709D01*
Y58091D01*
X179589Y58210D01*
Y60072D01*
X177411D01*
Y59999D01*
X176599D01*
X176365Y60233D01*
X176067Y60432D01*
X175716Y60502D01*
X173760D01*
Y61165D01*
X171817D01*
X167351Y65631D01*
X167558Y66131D01*
X168850D01*
Y67562D01*
X167340D01*
Y66349D01*
X166840Y66142D01*
X163318Y69664D01*
Y75389D01*
X163818Y75597D01*
X167440Y71974D01*
Y69951D01*
X167340Y69493D01*
X167340Y69394D01*
Y68062D01*
X169100D01*
Y67812D01*
X169350D01*
Y66131D01*
X170860D01*
Y66894D01*
X171538D01*
X171551Y66874D01*
X171981Y66587D01*
X172238Y66536D01*
Y67812D01*
Y69087D01*
X171981Y69036D01*
X171551Y68749D01*
X171538Y68729D01*
X170860D01*
Y69394D01*
X170860Y69493D01*
X170760Y69951D01*
Y70252D01*
X171113Y70605D01*
X175873D01*
Y69548D01*
X179822D01*
Y73498D01*
X175873D01*
Y72440D01*
X170760D01*
Y73015D01*
X168995D01*
X168239Y73770D01*
X168431Y74232D01*
X168650D01*
Y75323D01*
X169150D01*
Y74232D01*
X170089D01*
Y74405D01*
X170727D01*
X170740Y74386D01*
X171170Y74098D01*
X171427Y74047D01*
Y75323D01*
Y76599D01*
X171170Y76547D01*
X170740Y76260D01*
X170727Y76240D01*
X170517D01*
X170089Y76413D01*
X169989Y76695D01*
X169989D01*
X169989Y76695D01*
Y78676D01*
X169818D01*
Y79000D01*
X169748Y79351D01*
X169549Y79649D01*
X169001Y80197D01*
X168703Y80396D01*
X168352Y80466D01*
X165159D01*
X165065Y80546D01*
X164810Y80966D01*
X164841Y81123D01*
X164776Y81454D01*
X164732Y81520D01*
X164624Y82049D01*
X164823Y82346D01*
X164892Y82698D01*
X164823Y83049D01*
X164624Y83346D01*
X164732Y83876D01*
X164776Y83941D01*
X164841Y84272D01*
X164776Y84604D01*
X164689Y84734D01*
Y88725D01*
X164634Y88998D01*
X164479Y89230D01*
X153505Y100205D01*
X153273Y100359D01*
X153000Y100414D01*
X152086D01*
X152057Y100457D01*
X151710Y100689D01*
X151300Y100771D01*
X150890Y100689D01*
X150543Y100457D01*
X150311Y100110D01*
X150229Y99700D01*
X149900Y99271D01*
X149490Y99189D01*
X149143Y98957D01*
X148911Y98610D01*
X148829Y98200D01*
X148911Y97790D01*
X149143Y97443D01*
X149490Y97211D01*
X149900Y97129D01*
X149951Y97140D01*
X153340Y93751D01*
X153329Y93700D01*
X153411Y93290D01*
X153643Y92943D01*
X153990Y92711D01*
X154400Y92629D01*
X154810Y92711D01*
X155157Y92943D01*
X155389Y93290D01*
X155471Y93700D01*
X155389Y94110D01*
X155157Y94457D01*
X154810Y94689D01*
X154400Y94771D01*
X154349Y94760D01*
X150960Y98149D01*
X150971Y98200D01*
X151300Y98629D01*
X151710Y98711D01*
X152057Y98943D01*
X152086Y98986D01*
X152704D01*
X163261Y88429D01*
Y85321D01*
X162761Y85053D01*
X162732Y85073D01*
X162400Y85139D01*
X162068Y85073D01*
X161961Y85002D01*
X161613Y84924D01*
X161264Y85002D01*
X161157Y85073D01*
X160825Y85139D01*
X160668Y85108D01*
X160248Y85363D01*
X160168Y85457D01*
Y86150D01*
X160098Y86501D01*
X159899Y86799D01*
X159348Y87350D01*
X158050D01*
Y86052D01*
X158270Y85833D01*
X158207Y85413D01*
X157769Y85120D01*
X157676Y85139D01*
X157344Y85073D01*
X157063Y84885D01*
X156875Y84604D01*
X156451Y84548D01*
X156404Y84557D01*
X156100Y84618D01*
X155749Y84548D01*
X155689Y84508D01*
X155189Y84708D01*
Y85113D01*
X155189Y85232D01*
Y87094D01*
X154087D01*
X153215Y87967D01*
X153222Y88000D01*
X153136Y88429D01*
X152893Y88793D01*
X152529Y89036D01*
X152100Y89122D01*
X151671Y89036D01*
X151307Y88793D01*
X151064Y88429D01*
X150978Y88000D01*
X151064Y87571D01*
X151307Y87207D01*
X151671Y86964D01*
X152100Y86878D01*
X152134Y86885D01*
X153011Y86007D01*
Y85232D01*
X153011Y85113D01*
X152900Y84659D01*
X143138D01*
X139449Y88349D01*
X139151Y88548D01*
X138800Y88618D01*
X122487D01*
X122168Y88830D01*
X121700Y88924D01*
X121232Y88830D01*
X120835Y88565D01*
X120570Y88168D01*
X120476Y87700D01*
X120570Y87232D01*
X120835Y86835D01*
X121232Y86570D01*
X121700Y86476D01*
X122168Y86570D01*
X122487Y86782D01*
X138420D01*
X142109Y83093D01*
X142407Y82894D01*
X142758Y82824D01*
X153011D01*
Y82751D01*
X155189D01*
Y82751D01*
X155689Y82892D01*
X155749Y82852D01*
X156100Y82782D01*
X156219Y82806D01*
X156298Y82788D01*
X156702Y82525D01*
X156755Y82454D01*
X156758Y82441D01*
Y81379D01*
X156757Y81373D01*
X157676D01*
Y80873D01*
X156757D01*
X156781Y80752D01*
X156991Y80438D01*
X156891Y79903D01*
X156884Y79893D01*
X154631Y77640D01*
X154176Y77893D01*
X154218Y78100D01*
X154148Y78451D01*
X153949Y78749D01*
X153651Y78948D01*
X153300Y79018D01*
X152949Y78948D01*
X152651Y78749D01*
X152452Y78451D01*
X152382Y78100D01*
X152452Y77749D01*
X152543Y77613D01*
X152406Y77113D01*
X152111D01*
Y75132D01*
X152111D01*
X152011Y74851D01*
X151583Y74678D01*
X149343D01*
X149089Y74932D01*
X148989Y75391D01*
Y77194D01*
X148916D01*
X148712Y77694D01*
X148748Y77749D01*
X148818Y78100D01*
X148748Y78451D01*
X148549Y78749D01*
X148251Y78948D01*
X147900Y79018D01*
X147549Y78948D01*
X147251Y78749D01*
X147052Y78451D01*
X146982Y78100D01*
X147052Y77749D01*
X147089Y77694D01*
X146884Y77194D01*
X146811D01*
Y75391D01*
X146711Y74932D01*
X146711Y74755D01*
Y74092D01*
X147900D01*
Y73842D01*
X148150D01*
Y72751D01*
X149089D01*
Y72843D01*
X152011D01*
Y72670D01*
X152950D01*
Y73761D01*
X153450D01*
Y72670D01*
X154089D01*
Y70447D01*
X153628Y70353D01*
X153628Y70353D01*
X153628Y70353D01*
X151568D01*
Y68293D01*
X151680D01*
Y67634D01*
X150747D01*
Y66341D01*
X149703D01*
X148895Y67149D01*
X148597Y67348D01*
X148246Y67418D01*
X146360D01*
Y68115D01*
X143040D01*
Y67418D01*
X142060D01*
Y68115D01*
X138740D01*
Y67418D01*
X137150D01*
X137137Y67437D01*
X136707Y67725D01*
X136200Y67826D01*
X135693Y67725D01*
X135263Y67437D01*
X134610Y67360D01*
X134514Y67438D01*
Y72000D01*
X134459Y72273D01*
X134305Y72505D01*
X119614Y87196D01*
Y92200D01*
X119559Y92473D01*
X119405Y92705D01*
X106860Y105249D01*
X107063Y105749D01*
X124067D01*
X125921Y103895D01*
X126153Y103741D01*
X126426Y103686D01*
X128248D01*
X128449Y103552D01*
X128800Y103482D01*
X129151Y103552D01*
X129449Y103751D01*
X129648Y104049D01*
X129718Y104400D01*
X129648Y104751D01*
X129449Y105049D01*
X129399Y105082D01*
X129550Y105582D01*
X131851D01*
Y104483D01*
X141706D01*
Y108630D01*
X133169D01*
X133168Y108631D01*
X132947Y109130D01*
X133035Y109261D01*
X133105Y109613D01*
X133035Y109964D01*
X132836Y110261D01*
X132539Y110460D01*
X132187Y110530D01*
X131836Y110460D01*
X131636Y110326D01*
X123200D01*
X122933Y110826D01*
X122948Y110849D01*
X123018Y111200D01*
X122948Y111551D01*
X122749Y111849D01*
X122451Y112048D01*
X122100Y112118D01*
X121749Y112048D01*
X121529Y111901D01*
X107950D01*
X107679Y112302D01*
X107658Y112401D01*
X107718Y112700D01*
X107648Y113051D01*
X107600Y113123D01*
X107867Y113623D01*
X117548D01*
X117749Y113489D01*
X118100Y113419D01*
X118451Y113489D01*
X118652Y113623D01*
X119837D01*
X120110Y113678D01*
X120342Y113832D01*
X128699Y122190D01*
X128854Y122421D01*
X128908Y122695D01*
Y125102D01*
X129384Y125246D01*
X129419Y125237D01*
X129426Y125226D01*
X129764Y125001D01*
X129913Y124971D01*
Y125963D01*
X130413D01*
Y124971D01*
X130562Y125001D01*
X130776Y124886D01*
X131001Y124400D01*
X130958Y124181D01*
X132132D01*
Y123932D01*
X132381D01*
Y122758D01*
X132600Y122801D01*
X132682Y122856D01*
X133182Y122589D01*
Y121600D01*
X133252Y121249D01*
X133451Y120951D01*
X135861Y118541D01*
Y117685D01*
X131851D01*
Y113539D01*
X141706D01*
Y114694D01*
X144217D01*
Y113615D01*
X149741D01*
Y119336D01*
X144217D01*
Y116529D01*
X141706D01*
Y117685D01*
X137696D01*
Y118921D01*
X137627Y119272D01*
X137428Y119570D01*
X135018Y121980D01*
Y125852D01*
X135040Y125963D01*
X134968Y126323D01*
X134840Y126514D01*
X134980Y126907D01*
X135062Y127014D01*
X144217D01*
Y125032D01*
X149741D01*
Y126282D01*
X153032D01*
Y125186D01*
X157768D01*
Y125442D01*
X158268Y125709D01*
X158338Y125663D01*
X158689Y125593D01*
X159187D01*
X159540Y125240D01*
Y125029D01*
X159440Y124570D01*
X159440Y124471D01*
Y122960D01*
X157869D01*
Y124314D01*
X155650D01*
Y122043D01*
X155400D01*
Y121792D01*
X152931D01*
Y119771D01*
X154482D01*
Y118150D01*
X154463Y118137D01*
X154175Y117707D01*
X154124Y117450D01*
X156676D01*
X156625Y117707D01*
X156337Y118137D01*
X156318Y118150D01*
Y119771D01*
X157869D01*
Y121125D01*
X160354D01*
X160705Y121195D01*
X160724Y121208D01*
X160950D01*
Y122889D01*
X161450D01*
Y121208D01*
X162960D01*
Y121971D01*
X163940D01*
Y121208D01*
X165450D01*
Y122889D01*
X165700D01*
Y123139D01*
X167460D01*
Y124471D01*
X167460Y124570D01*
X167360Y125029D01*
Y125240D01*
X167713Y125593D01*
X175209D01*
X176795Y124007D01*
X176870Y123632D01*
X177135Y123235D01*
X177532Y122970D01*
X178000Y122877D01*
X178468Y122970D01*
X178865Y123235D01*
X179130Y123632D01*
X179224Y124100D01*
X179130Y124568D01*
X178865Y124965D01*
X178468Y125230D01*
X178093Y125305D01*
X176238Y127160D01*
X175940Y127359D01*
X175589Y127429D01*
X167360D01*
Y128092D01*
X164040D01*
Y127429D01*
X162860D01*
Y128092D01*
X159540D01*
Y127498D01*
X159040Y127457D01*
X158491Y128006D01*
X158194Y128205D01*
X157843Y128275D01*
X157768D01*
Y129529D01*
X153032D01*
Y128118D01*
X149741D01*
Y130655D01*
X149741Y130754D01*
X149979Y131155D01*
X185558D01*
X185710Y130655D01*
X185551Y130549D01*
X185352Y130251D01*
X185282Y129900D01*
X185352Y129549D01*
X185486Y129348D01*
Y126800D01*
X185541Y126527D01*
X185695Y126295D01*
X189495Y122495D01*
X189727Y122341D01*
X190000Y122286D01*
X217500D01*
X217773Y122341D01*
X218005Y122495D01*
X219670Y124161D01*
X219825Y124392D01*
X219879Y124665D01*
Y124979D01*
X221140D01*
Y129716D01*
X217309D01*
X216809Y129716D01*
X216691Y129716D01*
X212860D01*
Y126814D01*
X210452D01*
X210251Y126948D01*
X209900Y127018D01*
X209549Y126948D01*
X209251Y126749D01*
X209052Y126451D01*
X208982Y126100D01*
X209052Y125749D01*
X209251Y125451D01*
X209549Y125252D01*
X209900Y125182D01*
X210251Y125252D01*
X210452Y125386D01*
X212860D01*
Y124979D01*
X216690D01*
X217191Y124979D01*
X217309Y124979D01*
X217762D01*
X217969Y124479D01*
X217204Y123714D01*
X198076D01*
X197885Y124176D01*
X198688Y124979D01*
X200640D01*
Y129716D01*
X196809D01*
X196309Y129716D01*
X196191Y129716D01*
X192360D01*
Y129103D01*
X191898Y128911D01*
X190595Y130215D01*
X190548Y130451D01*
X190412Y130655D01*
X190521Y130995D01*
X190633Y131155D01*
X192360D01*
Y130884D01*
X196191D01*
X196691Y130884D01*
X196809Y130884D01*
X200640D01*
Y132335D01*
X201961D01*
X202279Y132122D01*
X202747Y132029D01*
X203216Y132122D01*
X203612Y132388D01*
X203878Y132784D01*
X203971Y133253D01*
X203878Y133721D01*
X203612Y134118D01*
X203216Y134383D01*
X202747Y134476D01*
X202279Y134383D01*
X201961Y134170D01*
X200640D01*
Y135621D01*
X196809D01*
X196309Y135621D01*
X196191Y135621D01*
X192360D01*
Y132582D01*
X190397D01*
X190246Y133082D01*
X190349Y133151D01*
X190548Y133449D01*
X190618Y133800D01*
X190548Y134151D01*
X190349Y134449D01*
X190051Y134648D01*
X189700Y134718D01*
X189349Y134648D01*
X189204Y134551D01*
X188350D01*
X188199Y135051D01*
X188349Y135151D01*
X188548Y135449D01*
X188618Y135800D01*
X188548Y136151D01*
X188349Y136449D01*
X188051Y136648D01*
X187700Y136718D01*
X187349Y136648D01*
X187156Y136519D01*
X134691D01*
X134460Y136674D01*
X134100Y136745D01*
X133740Y136674D01*
X133549Y136546D01*
X133156Y136685D01*
X133049Y136767D01*
Y138528D01*
X133389D01*
Y138701D01*
X136219D01*
X136570Y138771D01*
X136868Y138970D01*
X138993Y141095D01*
X139368Y141170D01*
X139765Y141435D01*
X140030Y141832D01*
X140074Y142050D01*
X138900D01*
Y142300D01*
X138650D01*
Y143474D01*
X138432Y143430D01*
X138035Y143165D01*
X137770Y142768D01*
X137695Y142393D01*
X135839Y140536D01*
X133870D01*
X133866Y140538D01*
X133700Y141129D01*
X133786Y141235D01*
X134025D01*
X134149Y141152D01*
X134500Y141082D01*
X134851Y141152D01*
X135149Y141351D01*
X135348Y141649D01*
X135418Y142000D01*
X135348Y142351D01*
X135149Y142649D01*
X134851Y142848D01*
X134500Y142918D01*
X134149Y142848D01*
X134025Y142765D01*
X133289D01*
Y142972D01*
X133031D01*
X132887Y143352D01*
X132863Y143472D01*
X133048Y143749D01*
X133118Y144100D01*
X133048Y144451D01*
X132914Y144652D01*
Y159304D01*
X133705Y160095D01*
X133859Y160327D01*
X133914Y160600D01*
Y183550D01*
X133859Y183823D01*
X133705Y184055D01*
X131900Y185859D01*
Y195650D01*
X126100D01*
Y179850D01*
X131900D01*
Y182679D01*
X132400Y182947D01*
X132486Y182889D01*
Y160896D01*
X131714Y160123D01*
X131635Y160127D01*
X131214Y160284D01*
Y162350D01*
X131900D01*
Y178150D01*
X126100D01*
Y162350D01*
X129786D01*
Y158505D01*
X129754Y158479D01*
X129286Y158323D01*
X125414Y162196D01*
Y182050D01*
X125359Y182323D01*
X125205Y182555D01*
X121900Y185859D01*
Y195650D01*
X116100D01*
Y179850D01*
X121900D01*
Y183187D01*
X122362Y183379D01*
X123986Y181754D01*
Y161900D01*
X124041Y161627D01*
X124195Y161395D01*
X128186Y157404D01*
Y152852D01*
X128052Y152651D01*
X127982Y152300D01*
X128052Y151949D01*
X128251Y151651D01*
X128549Y151452D01*
X128900Y151382D01*
X129251Y151452D01*
X129286Y151476D01*
X129786Y151208D01*
Y147652D01*
X129652Y147451D01*
X129582Y147100D01*
X129652Y146749D01*
X129851Y146451D01*
X130149Y146252D01*
X130500Y146182D01*
X130851Y146252D01*
X130986Y146343D01*
X131480Y146128D01*
X131486Y146121D01*
Y144652D01*
X131352Y144451D01*
X131282Y144100D01*
X131352Y143749D01*
X131537Y143472D01*
X131514Y143352D01*
X131369Y142972D01*
X131111D01*
Y141168D01*
X131098Y141107D01*
X130660Y140811D01*
X130565Y140839D01*
X130551Y140848D01*
X130200Y140918D01*
X129903Y140859D01*
X129670Y141068D01*
X129532Y141238D01*
Y142050D01*
X128402D01*
Y142550D01*
X129532D01*
Y143430D01*
X129532D01*
X129627Y143890D01*
X129678Y144148D01*
X128402D01*
Y144398D01*
X128152D01*
Y145673D01*
X127895Y145622D01*
X127465Y145335D01*
X127462Y145331D01*
X126962Y145482D01*
Y146570D01*
X127063Y146637D01*
X127328Y147034D01*
X127421Y147502D01*
X127328Y147971D01*
X127063Y148368D01*
X126666Y148633D01*
X126198Y148726D01*
X125729Y148633D01*
X125332Y148368D01*
X125067Y147971D01*
X124974Y147502D01*
X125067Y147034D01*
X125332Y146637D01*
X125433Y146570D01*
Y143330D01*
X125168D01*
Y141270D01*
X125433D01*
Y140372D01*
X125352Y140251D01*
X125282Y139900D01*
X125352Y139549D01*
X125551Y139251D01*
X125849Y139052D01*
X126200Y138982D01*
X126551Y139052D01*
X126749Y139184D01*
X127123Y139012D01*
X127209Y138937D01*
X127182Y138800D01*
X127252Y138449D01*
X127386Y138248D01*
Y136628D01*
X126891Y136470D01*
X126586Y136674D01*
X126226Y136745D01*
X125866Y136674D01*
X125561Y136470D01*
X125542Y136441D01*
X124942D01*
X124922Y136470D01*
X124617Y136674D01*
X124258Y136745D01*
X124146Y136723D01*
X120911D01*
Y136814D01*
X120799D01*
Y137454D01*
X120911D01*
Y139313D01*
X121349Y139751D01*
X121548Y140049D01*
X121618Y140400D01*
Y140916D01*
X123608D01*
Y145653D01*
X121618D01*
Y149650D01*
X121637Y149663D01*
X121925Y150093D01*
X122026Y150600D01*
X121925Y151107D01*
X121637Y151537D01*
X121207Y151825D01*
X120700Y151926D01*
X120193Y151825D01*
X119763Y151537D01*
X119475Y151107D01*
X119375Y150600D01*
X119475Y150093D01*
X119763Y149663D01*
X119782Y149650D01*
Y145653D01*
X119265D01*
Y140916D01*
X119265D01*
X119418Y140416D01*
X119232Y140230D01*
X119079Y140001D01*
X119070Y139989D01*
X118846Y139975D01*
X118551Y140041D01*
X118524Y140175D01*
X118422Y140328D01*
X118393Y140816D01*
X118393Y140816D01*
X118393Y140816D01*
Y143034D01*
X116121D01*
Y143284D01*
X115871D01*
Y145753D01*
X113850D01*
Y144202D01*
X109850D01*
X109837Y144221D01*
X109407Y144509D01*
X109150Y144560D01*
Y143284D01*
Y142008D01*
X109407Y142060D01*
X109837Y142347D01*
X109850Y142367D01*
X113850D01*
Y140816D01*
X115415D01*
X115472Y140730D01*
X116239Y139963D01*
X116546Y139614D01*
X116546D01*
X116546Y139614D01*
Y138734D01*
X117676D01*
Y138234D01*
X116546D01*
Y137354D01*
X116546D01*
Y136914D01*
X116546D01*
Y136034D01*
X117676D01*
Y135534D01*
X116546D01*
Y134671D01*
X116546Y134654D01*
X116737Y134154D01*
X115799Y133217D01*
X114749D01*
Y132567D01*
X114249Y132415D01*
X114180Y132517D01*
X113883Y132716D01*
X113531Y132786D01*
X113186Y132717D01*
X112973Y132859D01*
X112700Y132914D01*
X112268D01*
Y133156D01*
X110090D01*
Y131352D01*
X109990Y130894D01*
X109990Y130716D01*
Y130053D01*
X111179D01*
Y129803D01*
X111429D01*
Y128713D01*
X112368D01*
Y128982D01*
X114649D01*
Y128852D01*
X115529D01*
Y129982D01*
X116029D01*
Y128852D01*
X116909D01*
Y128982D01*
X119349D01*
Y128752D01*
X120229D01*
Y129882D01*
X120729D01*
Y128752D01*
X121609D01*
Y128982D01*
X123296D01*
X123378Y128876D01*
X123517Y128482D01*
X123389Y128291D01*
X123318Y127931D01*
X123389Y127572D01*
X123593Y127267D01*
X123532Y126707D01*
X123521Y126700D01*
X123295Y126362D01*
X123266Y126213D01*
X124258D01*
Y125713D01*
X123266D01*
X123295Y125564D01*
X123442Y125345D01*
Y124341D01*
X123392Y124308D01*
X123127Y123911D01*
X123084Y123693D01*
X125431D01*
X125388Y123911D01*
X125123Y124308D01*
X125073Y124341D01*
Y125129D01*
X125500Y125277D01*
X125573Y125291D01*
X125866Y125095D01*
X126226Y125023D01*
X126586Y125095D01*
X126891Y125299D01*
X127326Y125050D01*
X127481Y124913D01*
Y122990D01*
X119541Y115051D01*
X118652D01*
X118451Y115185D01*
X118100Y115255D01*
X117749Y115185D01*
X117548Y115051D01*
X107831D01*
X107582Y115551D01*
X107648Y115649D01*
X107718Y116000D01*
X107648Y116351D01*
X107514Y116552D01*
Y142119D01*
X107780Y142254D01*
X108014Y142313D01*
X108393Y142060D01*
X108650Y142008D01*
Y143284D01*
Y144560D01*
X108393Y144509D01*
X108014Y144255D01*
X107780Y144314D01*
X107514Y144449D01*
Y160400D01*
X107459Y160673D01*
X107305Y160905D01*
X106359Y161850D01*
X106567Y162350D01*
X111486D01*
Y148852D01*
X111352Y148651D01*
X111282Y148300D01*
X111352Y147949D01*
X111551Y147651D01*
X111849Y147452D01*
X112200Y147382D01*
X112551Y147452D01*
X112849Y147651D01*
X113048Y147949D01*
X113118Y148300D01*
X113048Y148651D01*
X112914Y148852D01*
Y167050D01*
X112859Y167323D01*
X112705Y167555D01*
X111900Y168359D01*
Y178150D01*
X106100D01*
Y163190D01*
X105600Y162937D01*
X105414Y163073D01*
Y182950D01*
X105600Y183091D01*
X106100Y182843D01*
Y179850D01*
X111900D01*
Y195650D01*
X106100D01*
Y185859D01*
X104195Y183955D01*
X104114Y183833D01*
X103789Y183844D01*
X103630Y183890D01*
X103604Y183901D01*
X103559Y184123D01*
X103405Y184355D01*
X101900Y185859D01*
Y195650D01*
X96100D01*
Y179850D01*
X101900D01*
X102186Y179469D01*
Y178531D01*
X101900Y178150D01*
X96100D01*
Y162350D01*
X99141D01*
X103816Y157675D01*
Y130098D01*
X103325Y130007D01*
X103037Y130437D01*
X102607Y130725D01*
X102350Y130776D01*
Y129500D01*
X102100D01*
Y129250D01*
X100824D01*
X100875Y128993D01*
X101163Y128563D01*
X101582Y128282D01*
Y124223D01*
X101381Y124154D01*
X101082Y124140D01*
X100865Y124465D01*
X100468Y124730D01*
X100000Y124823D01*
X99532Y124730D01*
X99135Y124465D01*
X98870Y124068D01*
X98777Y123600D01*
X98870Y123132D01*
X99135Y122735D01*
X99235Y122668D01*
Y119871D01*
X98224D01*
X97914Y119809D01*
X97651Y119634D01*
X97476Y119371D01*
X97452Y119251D01*
X96952Y119300D01*
Y120152D01*
X96417D01*
X96315Y120652D01*
X96506Y120779D01*
X96703Y121075D01*
X96773Y121424D01*
Y122277D01*
X96779Y122309D01*
Y124081D01*
X97949Y125251D01*
X98148Y125549D01*
X98218Y125900D01*
Y127650D01*
X98237Y127663D01*
X98525Y128093D01*
X98576Y128350D01*
X97300D01*
Y128850D01*
X98576D01*
X98525Y129107D01*
X98237Y129537D01*
X97807Y129825D01*
X97300Y129926D01*
X97236Y129913D01*
X96935Y130363D01*
X96959Y130398D01*
X97014Y130672D01*
Y136914D01*
X97057Y136943D01*
X97289Y137290D01*
X97371Y137700D01*
X97289Y138110D01*
X97057Y138457D01*
X96710Y138689D01*
X96300Y138771D01*
X95890Y138689D01*
X95543Y138457D01*
X95311Y138110D01*
X95261Y137856D01*
X94832Y137666D01*
X94750Y137659D01*
X93060Y139349D01*
X93071Y139400D01*
X92989Y139810D01*
X92757Y140157D01*
X92410Y140389D01*
X92000Y140471D01*
X91590Y140389D01*
X91243Y140157D01*
X91011Y139810D01*
X91010Y139806D01*
X90468Y139642D01*
X86214Y143896D01*
Y158200D01*
X86159Y158473D01*
X86005Y158705D01*
X64214Y180496D01*
Y183865D01*
X69555D01*
Y191358D01*
X64031D01*
Y186186D01*
X63531Y185979D01*
X62805Y186705D01*
X62573Y186859D01*
X62300Y186914D01*
X58486D01*
X58213Y186859D01*
X57981Y186705D01*
X56669Y185393D01*
X56169Y185600D01*
Y191358D01*
X50645D01*
Y184279D01*
X35196D01*
X34928Y184779D01*
X35030Y184932D01*
X35124Y185400D01*
X35030Y185868D01*
X34876Y186100D01*
X35094Y186597D01*
X35097Y186600D01*
X39050D01*
Y192400D01*
X23250D01*
Y186600D01*
X32703D01*
X32706Y186597D01*
X32925Y186100D01*
X32770Y185868D01*
X32677Y185400D01*
X32770Y184932D01*
X32872Y184779D01*
X32604Y184279D01*
X17715D01*
X17442Y184225D01*
X17211Y184070D01*
X15541Y182400D01*
X5750D01*
Y176600D01*
X21550D01*
Y182400D01*
X21550D01*
X21667Y182852D01*
X23133D01*
X23250Y182400D01*
X23250Y182352D01*
Y176600D01*
X39050D01*
Y178386D01*
X43634D01*
X43735Y178235D01*
X44132Y177970D01*
X44600Y177876D01*
X45068Y177970D01*
X45465Y178235D01*
X45730Y178632D01*
X45823Y179100D01*
X45730Y179568D01*
X45465Y179965D01*
X45068Y180230D01*
X44600Y180324D01*
X44132Y180230D01*
X43735Y179965D01*
X43634Y179814D01*
X39050D01*
Y182352D01*
X39050Y182400D01*
X39167Y182852D01*
X56565D01*
X56641Y182867D01*
X57075Y182594D01*
X57141Y182507D01*
Y179535D01*
X57811D01*
Y170475D01*
X57866Y170202D01*
X58021Y169970D01*
X62218Y165773D01*
Y162895D01*
X62045Y162636D01*
X61972Y162268D01*
X62045Y161901D01*
X62253Y161590D01*
X61983Y161169D01*
X61846Y161014D01*
X55600D01*
X55327Y160959D01*
X55095Y160805D01*
X52995Y158705D01*
X52841Y158473D01*
X52786Y158200D01*
Y157092D01*
X51840D01*
Y154029D01*
X51740Y153570D01*
X51740Y153471D01*
Y152139D01*
X53500D01*
Y151889D01*
X53750D01*
Y150208D01*
X55260D01*
X55260Y150208D01*
X55685Y150028D01*
X55863Y149763D01*
X56293Y149475D01*
X56550Y149424D01*
Y150700D01*
X56800D01*
Y150950D01*
X58108D01*
X58499Y151328D01*
X59250D01*
Y152419D01*
X59500D01*
Y152669D01*
X60689D01*
Y153332D01*
X60689Y153509D01*
X60676Y153567D01*
X61079Y154067D01*
X62218D01*
Y146969D01*
X62272Y146695D01*
X62427Y146464D01*
X71140Y137751D01*
X71129Y137700D01*
X71211Y137290D01*
X71443Y136943D01*
X71790Y136711D01*
X72200Y136629D01*
X72610Y136711D01*
X72957Y136943D01*
X73189Y137290D01*
X73271Y137700D01*
X73228Y137914D01*
X73548Y138310D01*
X73613Y138347D01*
X73700Y138329D01*
X74110Y138411D01*
X74457Y138643D01*
X74689Y138990D01*
X74723Y139161D01*
X75254Y139337D01*
X82215Y132376D01*
X82024Y131914D01*
X64596D01*
X45914Y150596D01*
Y165100D01*
X45859Y165373D01*
X45705Y165605D01*
X41305Y170005D01*
X41073Y170159D01*
X40800Y170214D01*
X39050D01*
Y172400D01*
X23250D01*
Y166600D01*
X39050D01*
Y168786D01*
X40504D01*
X44486Y164804D01*
Y156039D01*
X44363Y155924D01*
X43986Y155714D01*
X43700Y155771D01*
X43290Y155689D01*
X43014Y155504D01*
X42730Y155585D01*
X42514Y155714D01*
Y158000D01*
X42459Y158273D01*
X42305Y158505D01*
X40805Y160005D01*
X40573Y160159D01*
X40300Y160214D01*
X39050D01*
Y162400D01*
X23250D01*
Y156600D01*
X39050D01*
Y158786D01*
X40004D01*
X41086Y157704D01*
Y155415D01*
X40586Y155263D01*
X40457Y155457D01*
X40110Y155689D01*
X39700Y155771D01*
X39290Y155689D01*
X38943Y155457D01*
X38914Y155414D01*
X15396D01*
X14709Y156100D01*
X14917Y156600D01*
X21550D01*
Y162400D01*
X5750D01*
Y156600D01*
X12936D01*
Y156150D01*
X12991Y155877D01*
X13145Y155645D01*
X14595Y154195D01*
X14827Y154041D01*
X15100Y153986D01*
X38914D01*
X38943Y153943D01*
X39290Y153711D01*
X39700Y153629D01*
X40110Y153711D01*
X40457Y153943D01*
X40586Y154137D01*
X41086Y153985D01*
Y148800D01*
X41141Y148527D01*
X41295Y148295D01*
X61357Y128234D01*
X61588Y128079D01*
X61861Y128025D01*
X77226D01*
X77621Y127539D01*
X77691Y127187D01*
X77825Y126987D01*
Y126354D01*
X77325Y126087D01*
X77251Y126136D01*
X76900Y126206D01*
X76549Y126136D01*
X76348Y126002D01*
X41978D01*
X41877Y126153D01*
X41480Y126419D01*
X41012Y126512D01*
X40544Y126419D01*
X40147Y126153D01*
X39881Y125756D01*
X39788Y125288D01*
X39881Y124820D01*
X40147Y124423D01*
X40544Y124158D01*
X41012Y124065D01*
X41480Y124158D01*
X41877Y124423D01*
X41978Y124574D01*
X76348D01*
X76549Y124440D01*
X76900Y124371D01*
X77251Y124440D01*
X77325Y124490D01*
X77825Y124222D01*
Y123556D01*
X77791Y123505D01*
X77729Y123195D01*
Y121424D01*
X77791Y121114D01*
X77966Y120851D01*
X78229Y120676D01*
X78350Y120652D01*
X78300Y120152D01*
X77448D01*
Y119300D01*
X76948Y119251D01*
X76924Y119371D01*
X76749Y119634D01*
X76486Y119809D01*
X76176Y119871D01*
X74405D01*
X74095Y119809D01*
X74044Y119775D01*
X72728D01*
X72576Y120275D01*
X72665Y120335D01*
X72930Y120732D01*
X73023Y121200D01*
X72930Y121668D01*
X72665Y122065D01*
X72268Y122330D01*
X71800Y122424D01*
X71332Y122330D01*
X70935Y122065D01*
X70868Y121965D01*
X69332D01*
Y122230D01*
X67686D01*
X67228Y122330D01*
X66814Y122330D01*
X66348D01*
Y121200D01*
X65848D01*
Y122330D01*
X64968D01*
Y122118D01*
X63950D01*
X63937Y122137D01*
X63507Y122425D01*
X63250Y122476D01*
Y121200D01*
X63000D01*
Y120950D01*
X61724D01*
X61775Y120693D01*
X62055Y120275D01*
X62040Y120197D01*
X61892Y119775D01*
X43592D01*
X43465Y119965D01*
X43068Y120230D01*
X42600Y120324D01*
X42132Y120230D01*
X41735Y119965D01*
X41470Y119568D01*
X41377Y119100D01*
X41470Y118632D01*
X41735Y118235D01*
X42132Y117970D01*
X42600Y117877D01*
X42958Y117948D01*
X43271Y117734D01*
X43397Y117588D01*
X43376Y117487D01*
X43470Y117018D01*
X43735Y116621D01*
X44132Y116356D01*
X44600Y116263D01*
X44742Y116291D01*
X45176Y115912D01*
X45177Y115907D01*
X45270Y115444D01*
X45535Y115047D01*
X45932Y114781D01*
X46400Y114688D01*
X46542Y114717D01*
X46976Y114337D01*
X46977Y114332D01*
X47070Y113869D01*
X47335Y113472D01*
X47732Y113207D01*
X48200Y113113D01*
X48668Y113207D01*
X49065Y113472D01*
X49166Y113623D01*
X60559D01*
X60820Y113123D01*
X60675Y112907D01*
X60624Y112650D01*
X61900D01*
Y112400D01*
X62150D01*
Y111124D01*
X62407Y111175D01*
X62837Y111463D01*
X63118Y111882D01*
X63768D01*
Y111670D01*
X63980D01*
Y110617D01*
X64050Y110266D01*
X64219Y110013D01*
Y108898D01*
X64219Y108721D01*
X64319Y108262D01*
Y108126D01*
X63966Y107773D01*
X18030D01*
Y108030D01*
X15970D01*
Y107813D01*
X15372D01*
Y108087D01*
X13510D01*
X13390Y108087D01*
X13010D01*
X12890Y108087D01*
X11065D01*
X11028Y108087D01*
Y108087D01*
X10916Y108042D01*
X10416Y108365D01*
Y110700D01*
X11381D01*
Y111100D01*
X15706D01*
X16107Y110863D01*
X16327Y110716D01*
X16585Y110664D01*
Y111940D01*
X16835D01*
Y112190D01*
X18110D01*
X18059Y112447D01*
X17772Y112877D01*
X17679Y112940D01*
Y113541D01*
X17772Y113603D01*
X18059Y114033D01*
X18110Y114290D01*
X16835D01*
Y114790D01*
X18110D01*
X18059Y115047D01*
X17772Y115477D01*
Y115803D01*
X18059Y116233D01*
X18110Y116490D01*
X16835D01*
Y116990D01*
X18110D01*
X18059Y117247D01*
X17899Y117487D01*
X17812Y117840D01*
X17899Y118194D01*
X18059Y118433D01*
X18110Y118690D01*
X16835D01*
Y119190D01*
X18110D01*
X18059Y119447D01*
X17772Y119877D01*
X17679Y119939D01*
Y120541D01*
X17772Y120603D01*
X18059Y121033D01*
X18110Y121290D01*
X16835D01*
Y121790D01*
X18110D01*
X18059Y122047D01*
X17772Y122477D01*
Y122803D01*
X18059Y123233D01*
X18110Y123490D01*
X16835D01*
Y123990D01*
X18110D01*
X18059Y124247D01*
X17772Y124677D01*
X17679Y124740D01*
Y125341D01*
X17772Y125403D01*
X18059Y125833D01*
X18110Y126090D01*
X16835D01*
Y126590D01*
X18110D01*
X18059Y126847D01*
X17772Y127277D01*
X17679Y127339D01*
Y127941D01*
X17772Y128003D01*
X18059Y128433D01*
X18110Y128690D01*
X16835D01*
Y128940D01*
X16585D01*
Y130216D01*
X16327Y130165D01*
X16206Y130083D01*
X15753Y130325D01*
X15706Y130785D01*
X15706Y130785D01*
X15706Y130785D01*
X15670Y131285D01*
X15710Y131490D01*
X14435D01*
Y131740D01*
X14185D01*
Y133016D01*
X13927Y132965D01*
X13497Y132677D01*
X13485Y132659D01*
X12884D01*
X12872Y132677D01*
X12442Y132965D01*
X12185Y133016D01*
Y131740D01*
X11685D01*
Y133016D01*
X11427Y132965D01*
X11119Y132759D01*
X10785Y132709D01*
X10450Y132759D01*
X10142Y132965D01*
X9885Y133016D01*
Y131740D01*
X9635D01*
Y131490D01*
X8359D01*
X8400Y131285D01*
X8379Y131187D01*
X8108Y130785D01*
X7544D01*
Y131285D01*
X6584D01*
Y131859D01*
X6603Y131872D01*
X6891Y132302D01*
X6942Y132559D01*
X4390D01*
X4441Y132302D01*
X4729Y131872D01*
X4748Y131859D01*
Y131285D01*
X3788D01*
X3788Y131285D01*
X3288Y131175D01*
X3085Y131216D01*
Y129940D01*
X2835D01*
Y129690D01*
X1559D01*
X1610Y129433D01*
X1897Y129003D01*
Y128677D01*
X1610Y128247D01*
X1559Y127990D01*
X2835D01*
Y127490D01*
X1559D01*
X1610Y127233D01*
X1897Y126803D01*
Y126477D01*
X1610Y126047D01*
X1559Y125790D01*
X2835D01*
Y125290D01*
X1559D01*
X1610Y125033D01*
X1897Y124603D01*
Y124277D01*
X1610Y123847D01*
X1559Y123590D01*
X2835D01*
Y123090D01*
X1559D01*
X1610Y122833D01*
X1897Y122403D01*
Y122077D01*
X1610Y121647D01*
X1559Y121390D01*
X2835D01*
Y120890D01*
X1559D01*
X1610Y120633D01*
X1897Y120203D01*
Y119877D01*
X1610Y119447D01*
X1559Y119190D01*
X2835D01*
Y118690D01*
X1559D01*
X1610Y118433D01*
X1770Y118194D01*
X1857Y117840D01*
X1770Y117487D01*
X1610Y117247D01*
X1559Y116990D01*
X2835D01*
Y116490D01*
X1559D01*
X1610Y116233D01*
X1897Y115803D01*
X1990Y115741D01*
Y115139D01*
X1897Y115077D01*
X1610Y114647D01*
X1559Y114390D01*
X2835D01*
Y114140D01*
X3085D01*
Y112864D01*
X3288Y112905D01*
X3393Y112881D01*
X3788Y112612D01*
X3788Y110600D01*
X3444Y110242D01*
X3197Y110077D01*
X2910Y109647D01*
X2859Y109390D01*
X4135D01*
Y109140D01*
X4385D01*
Y107864D01*
X4642Y107916D01*
X5072Y108203D01*
X5359Y108633D01*
X5460Y109140D01*
X5455Y109163D01*
X6315Y110023D01*
X6514Y110320D01*
X6569Y110600D01*
X7367D01*
X7544Y110600D01*
Y110600D01*
X7825Y110700D01*
X7825Y110700D01*
X8784D01*
Y107930D01*
X8570D01*
Y106284D01*
X8470Y105825D01*
X8470Y105412D01*
Y104945D01*
X10730D01*
X10730Y105532D01*
X11001Y105874D01*
X11195Y105909D01*
X12890D01*
X13010Y105909D01*
X13390D01*
X13510Y105909D01*
X15370D01*
X15870Y105905D01*
X15870Y105511D01*
Y105045D01*
X18130D01*
Y105925D01*
X18540Y106141D01*
X64319D01*
Y105474D01*
X65729D01*
X66136Y105386D01*
X66198Y105215D01*
X66221Y104874D01*
X65975Y104507D01*
X65924Y104250D01*
X68476D01*
X68425Y104507D01*
X68178Y104877D01*
X68173Y105248D01*
X68224Y105386D01*
X68630Y105474D01*
X70040D01*
Y106876D01*
X70514Y107350D01*
X71572D01*
X71839Y106850D01*
X71815Y106814D01*
X71745Y106463D01*
Y105987D01*
X71726Y105974D01*
X71438Y105544D01*
X71387Y105287D01*
X72663D01*
Y104787D01*
X71387D01*
X71438Y104530D01*
X71514Y104416D01*
X71573Y103854D01*
X71407Y103606D01*
X71349Y103313D01*
Y100932D01*
X70970D01*
Y100667D01*
X69930D01*
X69863Y100768D01*
X69466Y101033D01*
X68998Y101126D01*
X68529Y101033D01*
X68133Y100768D01*
X67867Y100371D01*
X67774Y99902D01*
X67867Y99434D01*
X68133Y99037D01*
X68529Y98772D01*
X68998Y98679D01*
X69466Y98772D01*
X69863Y99037D01*
X69930Y99138D01*
X70499D01*
X70870Y98828D01*
X70870Y98414D01*
Y97948D01*
X73130D01*
Y98828D01*
X73030Y99286D01*
Y100932D01*
X73513Y100974D01*
X74181D01*
X74405Y100929D01*
X76176D01*
X76486Y100991D01*
X76749Y101166D01*
X76924Y101429D01*
X76948Y101549D01*
X77448Y101500D01*
Y100648D01*
X78300D01*
X78350Y100148D01*
X78229Y100124D01*
X77966Y99949D01*
X77791Y99686D01*
X77729Y99376D01*
Y97605D01*
X77774Y97381D01*
Y91655D01*
X74059Y87941D01*
X73893Y87693D01*
X73835Y87400D01*
Y83200D01*
X73893Y82907D01*
X74059Y82659D01*
X74462Y82257D01*
X74710Y82091D01*
X75002Y82033D01*
X75670D01*
Y81768D01*
X77730D01*
Y82033D01*
X78286D01*
X78928Y81391D01*
X79176Y81225D01*
X79469Y81167D01*
X79469Y81167D01*
X80265D01*
Y80252D01*
X84017D01*
Y83589D01*
X84017Y83611D01*
X84071Y84089D01*
X84117D01*
Y85619D01*
X82141D01*
Y85869D01*
X81891D01*
Y87648D01*
X80165D01*
Y86786D01*
X79568D01*
X79217Y86716D01*
X78920Y86517D01*
X78610Y86207D01*
X78322Y86150D01*
X77830Y86132D01*
X77830Y86132D01*
X77830Y86132D01*
X76950D01*
Y85002D01*
X76450D01*
Y86132D01*
X75570D01*
X75365Y86547D01*
Y87083D01*
X78910Y90629D01*
X79039Y90646D01*
X79441Y90582D01*
X79509Y90541D01*
X79573Y90446D01*
X81359Y88659D01*
X81607Y88494D01*
X81900Y88435D01*
X86083D01*
X86471Y88048D01*
X86437Y87548D01*
X85383D01*
Y84211D01*
X85383Y84189D01*
X85329Y83711D01*
X85283D01*
Y82182D01*
X87259D01*
Y81932D01*
X87509D01*
Y80152D01*
X88137D01*
X88434Y79750D01*
X90874D01*
X90830Y79968D01*
X90618Y80287D01*
Y80531D01*
X90770Y80968D01*
X91650D01*
Y82098D01*
X91900D01*
Y82348D01*
X93030D01*
Y83228D01*
X92990Y83412D01*
X93438Y83702D01*
X93586Y83592D01*
Y68896D01*
X71795Y47105D01*
X71641Y46873D01*
X71586Y46600D01*
Y39050D01*
X69500D01*
Y23250D01*
X75300D01*
Y39050D01*
X73014D01*
Y46304D01*
X76524Y49815D01*
X76986Y49624D01*
Y18350D01*
X77041Y18077D01*
X77195Y17845D01*
X79500Y15541D01*
Y5750D01*
X85300D01*
Y21550D01*
X79500D01*
Y18213D01*
X79038Y18021D01*
X78414Y18646D01*
Y50204D01*
X81224Y53015D01*
X81686Y52824D01*
Y39050D01*
X79500D01*
Y23250D01*
X85300D01*
Y39050D01*
X83114D01*
Y53490D01*
X96124Y66501D01*
X96586Y66309D01*
Y42000D01*
X96641Y41727D01*
X96795Y41495D01*
X100486Y37804D01*
Y24100D01*
X100541Y23827D01*
X100695Y23595D01*
X111145Y13145D01*
X111377Y12991D01*
X111650Y12936D01*
X116500D01*
Y5750D01*
X121982D01*
X122300Y5750D01*
X122482Y5325D01*
Y2900D01*
X122552Y2549D01*
X122751Y2251D01*
X123853Y1149D01*
X123646Y649D01*
X112896D01*
X112629Y1149D01*
X112725Y1293D01*
X112776Y1550D01*
X110224D01*
X110275Y1293D01*
X110371Y1149D01*
X110104Y649D01*
X108796D01*
X108529Y1149D01*
X108625Y1293D01*
X108676Y1550D01*
X106124D01*
X106175Y1293D01*
X106271Y1149D01*
X106052Y738D01*
X105549D01*
X105329Y1149D01*
X105425Y1293D01*
X105476Y1550D01*
X102924D01*
X102975Y1293D01*
X103071Y1149D01*
X102804Y649D01*
X102096D01*
X101829Y1149D01*
X101925Y1293D01*
X101976Y1550D01*
X99424D01*
X99475Y1293D01*
X99571Y1149D01*
X99304Y649D01*
X98296D01*
X98029Y1149D01*
X98125Y1293D01*
X98176Y1550D01*
X95624D01*
X95675Y1293D01*
X95771Y1149D01*
X95504Y649D01*
X94200D01*
X93962Y1149D01*
X94125Y1393D01*
X94176Y1650D01*
X91624D01*
X91675Y1393D01*
X91838Y1149D01*
X91600Y649D01*
X90500D01*
X90262Y1149D01*
X90425Y1393D01*
X90476Y1650D01*
X87924D01*
X87975Y1393D01*
X88138Y1149D01*
X87900Y649D01*
X86400D01*
X86162Y1149D01*
X86325Y1393D01*
X86376Y1650D01*
X83824D01*
X83875Y1393D01*
X84038Y1149D01*
X83800Y649D01*
X83200D01*
X82962Y1149D01*
X83125Y1393D01*
X83176Y1650D01*
X80624D01*
X80675Y1393D01*
X80838Y1149D01*
X80600Y649D01*
X79700D01*
X79462Y1149D01*
X79625Y1393D01*
X79676Y1650D01*
X77124D01*
X77175Y1393D01*
X77338Y1149D01*
X77100Y649D01*
X75900D01*
X75662Y1149D01*
X75825Y1393D01*
X75876Y1650D01*
X73324D01*
X73375Y1393D01*
X73538Y1149D01*
X73300Y649D01*
X71817D01*
X71694Y831D01*
X71595Y1149D01*
X71825Y1493D01*
X71876Y1750D01*
X69324D01*
X69375Y1493D01*
X69605Y1149D01*
X69506Y831D01*
X69383Y649D01*
X67617D01*
X67494Y831D01*
X67395Y1149D01*
X67625Y1493D01*
X67676Y1750D01*
X65124D01*
X65175Y1493D01*
X65405Y1149D01*
X65306Y831D01*
X65183Y649D01*
X63517D01*
X63394Y831D01*
X63295Y1149D01*
X63525Y1493D01*
X63576Y1750D01*
X61024D01*
X61075Y1493D01*
X61305Y1149D01*
X61206Y831D01*
X61083Y649D01*
X60317D01*
X60194Y831D01*
X60095Y1149D01*
X60325Y1493D01*
X60376Y1750D01*
X57824D01*
X57875Y1493D01*
X58105Y1149D01*
X58006Y831D01*
X57883Y649D01*
X56817D01*
X56694Y831D01*
X56595Y1149D01*
X56825Y1493D01*
X56876Y1750D01*
X54324D01*
X54375Y1493D01*
X54605Y1149D01*
X54506Y831D01*
X54383Y649D01*
X53017D01*
X52894Y831D01*
X52795Y1149D01*
X53025Y1493D01*
X53076Y1750D01*
X50524D01*
X50575Y1493D01*
X50805Y1149D01*
X50706Y831D01*
X50583Y649D01*
X48869D01*
X48717Y1149D01*
X48737Y1163D01*
X49025Y1593D01*
X49076Y1850D01*
X46524D01*
X46575Y1593D01*
X46863Y1163D01*
X46883Y1149D01*
X46731Y649D01*
X43019D01*
X42868Y1149D01*
X43037Y1263D01*
X43325Y1693D01*
X43376Y1950D01*
X40824D01*
X40875Y1693D01*
X41163Y1263D01*
X41332Y1149D01*
X41181Y649D01*
X38919D01*
X38768Y1149D01*
X38937Y1263D01*
X39225Y1693D01*
X39276Y1950D01*
X36724D01*
X36775Y1693D01*
X37063Y1263D01*
X37232Y1149D01*
X37081Y649D01*
X35719D01*
X35568Y1149D01*
X35737Y1263D01*
X36025Y1693D01*
X36076Y1950D01*
X33524D01*
X33575Y1693D01*
X33863Y1263D01*
X34032Y1149D01*
X33881Y649D01*
X32219D01*
X32068Y1149D01*
X32237Y1263D01*
X32525Y1693D01*
X32576Y1950D01*
X30024D01*
X30075Y1693D01*
X30363Y1263D01*
X30532Y1149D01*
X30381Y649D01*
X28419D01*
X28268Y1149D01*
X28437Y1263D01*
X28725Y1693D01*
X28776Y1950D01*
X26224D01*
X26275Y1693D01*
X26563Y1263D01*
X26732Y1149D01*
X26581Y649D01*
X24234D01*
X24118Y1149D01*
X24437Y1363D01*
X24725Y1793D01*
X24776Y2050D01*
X22224D01*
X22275Y1793D01*
X22563Y1363D01*
X22882Y1149D01*
X22767Y649D01*
X21034D01*
X20918Y1149D01*
X21237Y1363D01*
X21525Y1793D01*
X21576Y2050D01*
X19024D01*
X19075Y1793D01*
X19363Y1363D01*
X19682Y1149D01*
X19567Y649D01*
X16933D01*
X16818Y1149D01*
X17137Y1363D01*
X17425Y1793D01*
X17476Y2050D01*
X14924D01*
X14975Y1793D01*
X15263Y1363D01*
X15582Y1149D01*
X15466Y649D01*
X13734D01*
X13618Y1149D01*
X13937Y1363D01*
X14225Y1793D01*
X14276Y2050D01*
X11724D01*
X11775Y1793D01*
X12063Y1363D01*
X12382Y1149D01*
X12267Y649D01*
X10233D01*
X10118Y1149D01*
X10437Y1363D01*
X10725Y1793D01*
X10776Y2050D01*
X8224D01*
X8275Y1793D01*
X8563Y1363D01*
X8882Y1149D01*
X8766Y649D01*
X6434D01*
X6318Y1149D01*
X6637Y1363D01*
X6925Y1793D01*
X6976Y2050D01*
X4424D01*
X4475Y1793D01*
X4763Y1363D01*
X5082Y1149D01*
X4967Y649D01*
X2126D01*
X2077Y1149D01*
X2207Y1175D01*
X2637Y1463D01*
X2925Y1893D01*
X2976Y2150D01*
X1700D01*
Y2400D01*
X1450D01*
Y3676D01*
X1193Y3625D01*
X1149Y3596D01*
X649Y3863D01*
Y5937D01*
X1149Y6204D01*
X1193Y6175D01*
X1450Y6124D01*
Y7400D01*
Y8676D01*
X1193Y8625D01*
X1149Y8596D01*
X649Y8863D01*
Y9637D01*
X1149Y9904D01*
X1193Y9875D01*
X1450Y9824D01*
Y11100D01*
Y12376D01*
X1193Y12325D01*
X1149Y12296D01*
X649Y12563D01*
Y13337D01*
X1149Y13604D01*
X1193Y13575D01*
X1450Y13524D01*
Y14800D01*
Y16076D01*
X1193Y16025D01*
X1149Y15996D01*
X649Y16263D01*
Y17037D01*
X1149Y17304D01*
X1193Y17275D01*
X1450Y17224D01*
Y18500D01*
Y19776D01*
X1193Y19725D01*
X1149Y19696D01*
X649Y19963D01*
Y20737D01*
X1149Y21004D01*
X1193Y20975D01*
X1450Y20924D01*
Y22200D01*
Y23476D01*
X1193Y23425D01*
X1149Y23396D01*
X649Y23663D01*
Y24437D01*
X1149Y24704D01*
X1193Y24675D01*
X1450Y24624D01*
Y25900D01*
Y27176D01*
X1193Y27125D01*
X1149Y27096D01*
X649Y27363D01*
Y28137D01*
X1149Y28404D01*
X1193Y28375D01*
X1450Y28324D01*
Y29600D01*
Y30876D01*
X1193Y30825D01*
X1149Y30796D01*
X649Y31063D01*
Y31837D01*
X1149Y32104D01*
X1193Y32075D01*
X1450Y32024D01*
Y33300D01*
Y34576D01*
X1193Y34525D01*
X1149Y34496D01*
X649Y34763D01*
Y35537D01*
X1149Y35804D01*
X1193Y35775D01*
X1450Y35724D01*
Y37000D01*
Y38276D01*
X1193Y38225D01*
X1149Y38196D01*
X649Y38463D01*
Y39237D01*
X1149Y39504D01*
X1193Y39475D01*
X1450Y39424D01*
Y40700D01*
Y41976D01*
X1193Y41925D01*
X1149Y41896D01*
X649Y42163D01*
Y42937D01*
X1149Y43204D01*
X1193Y43175D01*
X1450Y43124D01*
Y44400D01*
Y45676D01*
X1193Y45625D01*
X1149Y45596D01*
X649Y45863D01*
Y46637D01*
X1149Y46904D01*
X1193Y46875D01*
X1450Y46824D01*
Y48100D01*
Y49376D01*
X1193Y49325D01*
X1149Y49296D01*
X649Y49563D01*
Y50337D01*
X1149Y50604D01*
X1193Y50575D01*
X1450Y50524D01*
Y51800D01*
Y53076D01*
X1193Y53025D01*
X1149Y52996D01*
X649Y53263D01*
Y54037D01*
X1149Y54304D01*
X1193Y54275D01*
X1450Y54224D01*
Y55500D01*
Y56776D01*
X1193Y56725D01*
X1149Y56696D01*
X649Y56963D01*
Y57737D01*
X1149Y58004D01*
X1193Y57975D01*
X1450Y57924D01*
Y59200D01*
Y60476D01*
X1193Y60425D01*
X1149Y60396D01*
X649Y60663D01*
Y61437D01*
X1149Y61704D01*
X1193Y61675D01*
X1450Y61624D01*
Y62900D01*
Y64176D01*
X1193Y64125D01*
X1149Y64096D01*
X649Y64363D01*
Y65270D01*
X1033Y65534D01*
X1149Y65564D01*
X1350Y65524D01*
Y66800D01*
Y68076D01*
X1149Y68036D01*
X1033Y68066D01*
X649Y68330D01*
Y70270D01*
X1033Y70534D01*
X1149Y70564D01*
X1350Y70524D01*
Y71800D01*
Y73076D01*
X1149Y73036D01*
X1033Y73066D01*
X649Y73330D01*
Y75270D01*
X1033Y75534D01*
X1149Y75564D01*
X1350Y75524D01*
Y76800D01*
Y78076D01*
X1149Y78036D01*
X1033Y78066D01*
X649Y78330D01*
Y80170D01*
X1033Y80434D01*
X1149Y80464D01*
X1350Y80424D01*
Y81700D01*
Y82976D01*
X1149Y82936D01*
X1033Y82966D01*
X649Y83230D01*
Y83870D01*
X1033Y84134D01*
X1149Y84164D01*
X1350Y84124D01*
Y85400D01*
Y86676D01*
X1149Y86636D01*
X1033Y86666D01*
X649Y86930D01*
Y88770D01*
X1033Y89034D01*
X1149Y89064D01*
X1350Y89024D01*
Y90300D01*
Y91576D01*
X1149Y91536D01*
X1033Y91566D01*
X649Y91830D01*
Y93770D01*
X1033Y94034D01*
X1149Y94064D01*
X1350Y94024D01*
Y95300D01*
Y96576D01*
X1149Y96536D01*
X1033Y96566D01*
X649Y96830D01*
Y98770D01*
X1033Y99034D01*
X1149Y99064D01*
X1350Y99024D01*
Y100300D01*
Y101576D01*
X1149Y101536D01*
X1033Y101566D01*
X649Y101830D01*
Y140581D01*
X1149Y140732D01*
X1263Y140563D01*
X1693Y140275D01*
X1950Y140224D01*
Y141500D01*
Y142776D01*
X1693Y142725D01*
X1263Y142437D01*
X1149Y142268D01*
X649Y142419D01*
Y148281D01*
X1149Y148432D01*
X1263Y148263D01*
X1693Y147975D01*
X1950Y147924D01*
Y149200D01*
Y150476D01*
X1693Y150425D01*
X1263Y150137D01*
X1149Y149968D01*
X649Y150119D01*
Y156081D01*
X1149Y156232D01*
X1263Y156063D01*
X1693Y155775D01*
X1950Y155724D01*
Y157000D01*
Y158276D01*
X1693Y158225D01*
X1263Y157937D01*
X1149Y157768D01*
X649Y157919D01*
Y163881D01*
X1149Y164032D01*
X1263Y163863D01*
X1693Y163575D01*
X1950Y163524D01*
Y164800D01*
Y166076D01*
X1693Y166025D01*
X1263Y165737D01*
X1149Y165568D01*
X649Y165719D01*
Y175481D01*
X1149Y175632D01*
X1263Y175463D01*
X1693Y175175D01*
X1950Y175124D01*
Y176400D01*
Y177676D01*
X1693Y177625D01*
X1263Y177337D01*
X1149Y177168D01*
X649Y177319D01*
Y183281D01*
X1149Y183432D01*
X1263Y183263D01*
X1693Y182975D01*
X1950Y182924D01*
Y184200D01*
Y185476D01*
X1693Y185425D01*
X1263Y185137D01*
X1149Y184968D01*
X649Y185119D01*
Y191081D01*
X1149Y191232D01*
X1263Y191063D01*
X1693Y190775D01*
X1950Y190724D01*
Y192000D01*
Y193276D01*
X1693Y193225D01*
X1263Y192937D01*
X1149Y192768D01*
X649Y192919D01*
Y199351D01*
X1504D01*
X1771Y198851D01*
X1675Y198707D01*
X1624Y198450D01*
X4176D01*
X4125Y198707D01*
X4029Y198851D01*
X4296Y199351D01*
X8104D01*
X8371Y198851D01*
X8275Y198707D01*
X8224Y198450D01*
X10776D01*
X10725Y198707D01*
X10629Y198851D01*
X10896Y199351D01*
X15704D01*
X15971Y198851D01*
X15875Y198707D01*
X15824Y198450D01*
X18376D01*
X18325Y198707D01*
X18229Y198851D01*
X18496Y199351D01*
X22700D01*
X22938Y198851D01*
X22775Y198607D01*
X22724Y198350D01*
X25276D01*
X25225Y198607D01*
X25062Y198851D01*
X25300Y199351D01*
X30704D01*
X30971Y198851D01*
X30875Y198707D01*
X30824Y198450D01*
X33376D01*
X33325Y198707D01*
X33229Y198851D01*
X33496Y199351D01*
X39867D01*
X39982Y198851D01*
X39663Y198637D01*
X39375Y198207D01*
X39324Y197950D01*
X41876D01*
X41825Y198207D01*
X41537Y198637D01*
X41218Y198851D01*
X41333Y199351D01*
X47483D01*
X47606Y199169D01*
X47705Y198851D01*
X47475Y198507D01*
X47424Y198250D01*
X49976D01*
X49925Y198507D01*
X49695Y198851D01*
X49794Y199169D01*
X49917Y199351D01*
X55431D01*
X55583Y198851D01*
X55563Y198837D01*
X55275Y198407D01*
X55224Y198150D01*
X57776D01*
X57725Y198407D01*
X57437Y198837D01*
X57417Y198851D01*
X57569Y199351D01*
X61731D01*
X61883Y198851D01*
X61863Y198837D01*
X61575Y198407D01*
X61524Y198150D01*
X64076D01*
X64025Y198407D01*
X63737Y198837D01*
X63717Y198851D01*
X63869Y199351D01*
X67831D01*
X67983Y198851D01*
X67963Y198837D01*
X67675Y198407D01*
X67624Y198150D01*
X70176D01*
X70125Y198407D01*
X69837Y198837D01*
X69817Y198851D01*
X69969Y199351D01*
X75081D01*
X75232Y198851D01*
X75063Y198737D01*
X74775Y198307D01*
X74724Y198050D01*
X77276D01*
X77225Y198307D01*
X76937Y198737D01*
X76768Y198851D01*
X76919Y199351D01*
X81731D01*
X81883Y198851D01*
X81863Y198837D01*
X81575Y198407D01*
X81524Y198150D01*
X84076D01*
X84025Y198407D01*
X83737Y198837D01*
X83717Y198851D01*
X83869Y199351D01*
X85681D01*
X85832Y198851D01*
X85663Y198737D01*
X85375Y198307D01*
X85324Y198050D01*
X87876D01*
X87825Y198307D01*
X87537Y198737D01*
X87368Y198851D01*
X87519Y199351D01*
X93074D01*
X93123Y198851D01*
X92993Y198825D01*
X92563Y198537D01*
X92275Y198107D01*
X92224Y197850D01*
X94776D01*
X94725Y198107D01*
X94437Y198537D01*
X94007Y198825D01*
X93877Y198851D01*
X93926Y199351D01*
X99581D01*
X99732Y198851D01*
X99563Y198737D01*
X99275Y198307D01*
X99224Y198050D01*
X101776D01*
X101725Y198307D01*
X101437Y198737D01*
X101268Y198851D01*
X101419Y199351D01*
X106981D01*
X107132Y198851D01*
X106963Y198737D01*
X106675Y198307D01*
X106624Y198050D01*
X109176D01*
X109125Y198307D01*
X108837Y198737D01*
X108668Y198851D01*
X108819Y199351D01*
X113531D01*
X113683Y198851D01*
X113663Y198837D01*
X113375Y198407D01*
X113324Y198150D01*
X115876D01*
X115825Y198407D01*
X115537Y198837D01*
X115517Y198851D01*
X115669Y199351D01*
X120431D01*
X120583Y198851D01*
X120563Y198837D01*
X120275Y198407D01*
X120224Y198150D01*
X122776D01*
X122725Y198407D01*
X122437Y198837D01*
X122417Y198851D01*
X122569Y199351D01*
X130231D01*
X130383Y198851D01*
X130363Y198837D01*
X130075Y198407D01*
X130024Y198150D01*
X132576D01*
X132525Y198407D01*
X132237Y198837D01*
X132217Y198851D01*
X132369Y199351D01*
X135683D01*
X135806Y199169D01*
X135905Y198851D01*
X135675Y198507D01*
X135624Y198250D01*
X138176D01*
X138125Y198507D01*
X137895Y198851D01*
X137994Y199169D01*
X138117Y199351D01*
X140731D01*
X140883Y198851D01*
X140863Y198837D01*
X140575Y198407D01*
X140524Y198150D01*
X143076D01*
X143025Y198407D01*
X142737Y198837D01*
X142717Y198851D01*
X142869Y199351D01*
X145783D01*
X145906Y199169D01*
X146005Y198851D01*
X145775Y198507D01*
X145724Y198250D01*
X148276D01*
X148225Y198507D01*
X147995Y198851D01*
X148094Y199169D01*
X148217Y199351D01*
X150183D01*
X150306Y199169D01*
X150405Y198851D01*
X150175Y198507D01*
X150124Y198250D01*
X152676D01*
X152625Y198507D01*
X152395Y198851D01*
X152494Y199169D01*
X152617Y199351D01*
X155300D01*
X155538Y198851D01*
X155375Y198607D01*
X155324Y198350D01*
X157876D01*
X157825Y198607D01*
X157662Y198851D01*
X157900Y199351D01*
X161300D01*
X161538Y198851D01*
X161375Y198607D01*
X161324Y198350D01*
X163876D01*
X163825Y198607D01*
X163662Y198851D01*
X163900Y199351D01*
X166383D01*
X166506Y199169D01*
X166605Y198851D01*
X166375Y198507D01*
X166324Y198250D01*
X168876D01*
X168825Y198507D01*
X168595Y198851D01*
X168694Y199169D01*
X168817Y199351D01*
X172431D01*
X172583Y198851D01*
X172563Y198837D01*
X172275Y198407D01*
X172224Y198150D01*
X174776D01*
X174725Y198407D01*
X174437Y198837D01*
X174417Y198851D01*
X174569Y199351D01*
X176983D01*
X177106Y199169D01*
X177205Y198851D01*
X176975Y198507D01*
X176924Y198250D01*
X179476D01*
X179425Y198507D01*
X179195Y198851D01*
X179294Y199169D01*
X179417Y199351D01*
X181783D01*
X181906Y199169D01*
X182005Y198851D01*
X181775Y198507D01*
X181724Y198250D01*
X184276D01*
X184225Y198507D01*
X183995Y198851D01*
X184094Y199169D01*
X184217Y199351D01*
X187283D01*
X187406Y199169D01*
X187505Y198851D01*
X187275Y198507D01*
X187224Y198250D01*
X189776D01*
X189725Y198507D01*
X189495Y198851D01*
X189594Y199169D01*
X189717Y199351D01*
X193900D01*
X194138Y198851D01*
X193975Y198607D01*
X193924Y198350D01*
X196476D01*
X196425Y198607D01*
X196262Y198851D01*
X196500Y199351D01*
X199304D01*
X199571Y198851D01*
X199475Y198707D01*
X199424Y198450D01*
X201976D01*
X201925Y198707D01*
X201829Y198851D01*
X202096Y199351D01*
X203900D01*
X204138Y198851D01*
X203975Y198607D01*
X203924Y198350D01*
X206476D01*
X206425Y198607D01*
X206262Y198851D01*
X206500Y199351D01*
X209604D01*
X209871Y198851D01*
X209775Y198707D01*
X209724Y198450D01*
X212276D01*
X212225Y198707D01*
X212129Y198851D01*
X212396Y199351D01*
X214131D01*
X214283Y198851D01*
X214263Y198837D01*
X213975Y198407D01*
X213924Y198150D01*
X216476D01*
X216425Y198407D01*
X216137Y198837D01*
X216117Y198851D01*
X216269Y199351D01*
X218983D01*
X219106Y199169D01*
X219205Y198851D01*
X218975Y198507D01*
X218924Y198250D01*
X221476D01*
X221425Y198507D01*
X221195Y198851D01*
X221294Y199169D01*
X221417Y199351D01*
X228351D01*
Y197469D01*
D02*
G37*
G36*
X60961Y173125D02*
X61015Y172852D01*
X61170Y172620D01*
X66155Y167636D01*
Y166192D01*
X65946Y166063D01*
X65655Y165979D01*
X65349Y166183D01*
X65150Y166223D01*
Y165100D01*
X64650D01*
Y166223D01*
X64451Y166183D01*
X64145Y165979D01*
X63890Y166025D01*
X63626Y166164D01*
X63591Y166342D01*
X63436Y166573D01*
X59239Y170770D01*
Y179535D01*
X59909D01*
Y179535D01*
X60291D01*
Y179535D01*
X60961D01*
Y173125D01*
D02*
G37*
G36*
X63059Y179535D02*
Y179535D01*
X63432Y179259D01*
X84096Y158594D01*
X83952Y158249D01*
X83867Y158117D01*
X83644Y158072D01*
X80960D01*
Y158492D01*
X77640D01*
Y158072D01*
X73660D01*
Y158592D01*
X72918D01*
Y159100D01*
X72848Y159451D01*
X72649Y159749D01*
X71449Y160949D01*
X71151Y161148D01*
X70800Y161218D01*
X67854D01*
X67794Y161290D01*
X67633Y161718D01*
X67755Y161901D01*
X67828Y162268D01*
X67755Y162636D01*
X67582Y162895D01*
Y167932D01*
X67528Y168205D01*
X67373Y168436D01*
X62388Y173421D01*
Y179535D01*
X63059D01*
X63059Y179535D01*
D02*
G37*
G36*
X61983Y159431D02*
X62253Y159010D01*
X62045Y158699D01*
X61972Y158332D01*
X62045Y157964D01*
X62218Y157705D01*
Y155495D01*
X60589D01*
Y155772D01*
X58411D01*
Y153968D01*
X58311Y153509D01*
X57830Y153337D01*
X55493D01*
X55260Y153570D01*
X55160Y154029D01*
Y157092D01*
X54214D01*
Y157904D01*
X55896Y159586D01*
X61845D01*
X61983Y159431D01*
D02*
G37*
G36*
X70617Y159045D02*
X70420Y158592D01*
X70340D01*
Y155529D01*
X70240Y155070D01*
X70240Y154971D01*
Y153639D01*
X72000D01*
Y153389D01*
X72250D01*
Y151708D01*
X73760D01*
Y152471D01*
X74857D01*
X74863Y152463D01*
X75293Y152175D01*
X75550Y152124D01*
Y153400D01*
X76050D01*
Y152124D01*
X76307Y152175D01*
X76737Y152463D01*
X76743Y152471D01*
X77540D01*
Y151608D01*
X79050D01*
Y153289D01*
X79300D01*
Y153539D01*
X81060D01*
Y154871D01*
X81060Y154970D01*
X81004Y155227D01*
X81315Y155728D01*
X83644D01*
X83900Y155676D01*
X84286Y155753D01*
X84580Y155607D01*
X84786Y155448D01*
Y143600D01*
X84841Y143327D01*
X84995Y143095D01*
X90677Y137414D01*
X90470Y136914D01*
X82196D01*
X69014Y150096D01*
Y155814D01*
X69057Y155843D01*
X69289Y156190D01*
X69371Y156600D01*
X69289Y157010D01*
X69057Y157357D01*
X68710Y157589D01*
X68300Y157671D01*
X68139Y157639D01*
X67989Y157766D01*
X67776Y158068D01*
X67828Y158332D01*
X67755Y158699D01*
X67632Y158882D01*
X67794Y159309D01*
X67854Y159382D01*
X70347D01*
X70617Y159045D01*
D02*
G37*
G36*
X186722Y135051D02*
X186470Y134551D01*
X135270D01*
X135114Y134963D01*
X135219Y135092D01*
X186691D01*
X186722Y135051D01*
D02*
G37*
G36*
X188675Y133082D02*
X188423Y132582D01*
X135270D01*
X135114Y132995D01*
X135219Y133123D01*
X188644D01*
X188675Y133082D01*
D02*
G37*
G36*
X118186Y91904D02*
Y87144D01*
X117686Y86937D01*
X113219Y91405D01*
X112987Y91559D01*
X112714Y91614D01*
X101224D01*
X96575Y96263D01*
Y97244D01*
X96609Y97295D01*
X96671Y97605D01*
Y98924D01*
X97171Y99132D01*
X97995Y98307D01*
X98070Y97932D01*
X98335Y97535D01*
X98732Y97270D01*
X99107Y97195D01*
X99654Y96649D01*
X99951Y96450D01*
X100302Y96380D01*
X102570D01*
Y96168D01*
X103450D01*
Y97298D01*
X103700D01*
Y97548D01*
X104830D01*
Y98407D01*
X105179Y98685D01*
X105230Y98695D01*
X105573Y98466D01*
X106002Y98381D01*
X106432Y98466D01*
X106795Y98709D01*
X107038Y99073D01*
X107124Y99502D01*
X107038Y99932D01*
X106795Y100295D01*
X106432Y100539D01*
X106002Y100624D01*
X105573Y100539D01*
X105230Y100309D01*
X104730Y100409D01*
Y100532D01*
X103752D01*
X102005Y102279D01*
X101756Y102445D01*
X101464Y102503D01*
X101010D01*
X100743Y103003D01*
X100743Y103004D01*
X100804Y103313D01*
X100743Y103623D01*
X100709Y103674D01*
X100967Y104174D01*
X105916D01*
X118186Y91904D01*
D02*
G37*
G36*
X157926Y76976D02*
X158333Y76714D01*
Y67634D01*
X156258D01*
Y63212D01*
X159854D01*
Y65142D01*
X160354Y65349D01*
X164075Y61627D01*
X163884Y61165D01*
X163840D01*
Y58102D01*
X163740Y57643D01*
X163740Y57544D01*
Y56212D01*
X165500D01*
Y55962D01*
X165750D01*
Y54281D01*
X167260D01*
Y55045D01*
X170340D01*
Y54281D01*
X171850D01*
Y55962D01*
X172100D01*
Y56212D01*
X173860D01*
Y57544D01*
X173860Y57643D01*
X173760Y58102D01*
Y58313D01*
X174113Y58666D01*
X175336D01*
X175570Y58432D01*
X175868Y58233D01*
X176219Y58163D01*
X177248D01*
X177411Y57709D01*
X177114Y57214D01*
X176286D01*
X176257Y57257D01*
X175910Y57489D01*
X175500Y57571D01*
X175090Y57489D01*
X174743Y57257D01*
X174511Y56910D01*
X174429Y56500D01*
X174511Y56090D01*
X174743Y55743D01*
X174786Y55714D01*
Y39896D01*
X166795Y31905D01*
X166641Y31673D01*
X166586Y31400D01*
Y23600D01*
X166641Y23327D01*
X166795Y23095D01*
X173499Y16392D01*
Y13882D01*
X168399D01*
Y7570D01*
X173295D01*
Y6593D01*
X169120Y2418D01*
X155061D01*
X154820Y2749D01*
X154759Y2907D01*
X154762Y2918D01*
X154818Y3200D01*
Y26650D01*
X154748Y27001D01*
X154549Y27299D01*
X152300Y29548D01*
Y39050D01*
X146500D01*
Y23250D01*
X152300D01*
Y25947D01*
X152800Y26195D01*
X152982Y26057D01*
Y3580D01*
X151820Y2418D01*
X125180D01*
X124318Y3280D01*
Y16970D01*
X124578Y17111D01*
X124818Y17151D01*
X126500Y15469D01*
Y5750D01*
X132300D01*
Y21550D01*
X126500D01*
Y21550D01*
X126065Y21706D01*
Y23094D01*
X126500Y23250D01*
Y23250D01*
X131908D01*
X131941Y23087D01*
X132095Y22855D01*
X136500Y18451D01*
Y5750D01*
X142300D01*
Y21550D01*
X136500D01*
Y21123D01*
X136038Y20931D01*
X133314Y23656D01*
Y38940D01*
X133259Y39213D01*
X133105Y39445D01*
X131914Y40636D01*
Y47570D01*
X132414Y47777D01*
X138686Y41504D01*
Y39050D01*
X136500D01*
Y23250D01*
X142300D01*
Y39050D01*
X140114D01*
Y41800D01*
X140059Y42073D01*
X139905Y42305D01*
X133214Y48996D01*
Y49470D01*
X133714Y49677D01*
X143486Y39904D01*
Y18850D01*
X143541Y18577D01*
X143695Y18345D01*
X146500Y15541D01*
Y5750D01*
X152300D01*
Y21550D01*
X146500D01*
Y18213D01*
X146038Y18021D01*
X144914Y19146D01*
Y40200D01*
X144859Y40473D01*
X144705Y40705D01*
X134514Y50896D01*
Y65562D01*
X134610Y65640D01*
X135263Y65563D01*
X135693Y65275D01*
X136200Y65175D01*
X136707Y65275D01*
X137137Y65563D01*
X137150Y65582D01*
X138387D01*
X138740Y65229D01*
Y65051D01*
X138640Y64593D01*
X138640Y64494D01*
Y63162D01*
X142160D01*
Y64494D01*
X142160Y64593D01*
X142060Y65051D01*
Y65229D01*
X142253Y65422D01*
X142847D01*
X143040Y65229D01*
Y65051D01*
X142940Y64593D01*
X142940Y64494D01*
Y63162D01*
X146460D01*
Y64494D01*
X146460Y64593D01*
X146360Y65051D01*
Y65229D01*
X146713Y65582D01*
X147866D01*
X148674Y64774D01*
X148972Y64575D01*
X149323Y64505D01*
X150747D01*
Y63212D01*
X151680D01*
Y62512D01*
X151528D01*
Y60334D01*
X153391D01*
X153509Y60334D01*
Y60334D01*
X153589D01*
X154089Y59916D01*
Y59395D01*
X153911D01*
Y57591D01*
X153811Y57132D01*
X153811Y56955D01*
Y56292D01*
X155000D01*
X156189D01*
Y56955D01*
X156189Y57132D01*
X156089Y57591D01*
Y59395D01*
X155516D01*
Y60334D01*
X155872D01*
Y62512D01*
X155516D01*
Y68293D01*
X155832D01*
Y70353D01*
X155516D01*
Y76507D01*
X156360Y77350D01*
X156991Y77288D01*
X157305Y77078D01*
X157426Y77054D01*
Y77973D01*
X157926D01*
Y76976D01*
D02*
G37*
G36*
X100806Y85628D02*
X101054Y85462D01*
X101347Y85404D01*
X105013D01*
Y84784D01*
X107387D01*
Y85404D01*
X109757D01*
X110111Y85050D01*
Y84668D01*
X110011Y84210D01*
X110011Y84032D01*
Y83369D01*
X111200D01*
X112389D01*
Y83922D01*
X112889Y84130D01*
X124535Y72483D01*
Y41921D01*
X124093Y41765D01*
X124035Y41762D01*
X105543Y60255D01*
Y80847D01*
X105734D01*
Y83616D01*
X103516D01*
Y80847D01*
X103708D01*
Y59875D01*
X103777Y59524D01*
X103976Y59226D01*
X113881Y49322D01*
X113562Y48933D01*
X113373Y49059D01*
X113100Y49114D01*
X101196D01*
X99014Y51296D01*
Y86657D01*
X99000Y86727D01*
X99461Y86973D01*
X100806Y85628D01*
D02*
G37*
G36*
X128686Y69889D02*
Y39050D01*
X126500D01*
Y39050D01*
X126065Y39206D01*
Y71858D01*
X126527Y72049D01*
X128686Y69889D01*
D02*
G37*
G36*
X100395Y47895D02*
X100627Y47741D01*
X100900Y47686D01*
X112804D01*
X118686Y41804D01*
Y39050D01*
X116500D01*
Y23250D01*
X121982D01*
X122300Y23250D01*
X122482Y22826D01*
Y21974D01*
X122300Y21550D01*
X121982Y21550D01*
X116500D01*
Y14364D01*
X111946D01*
X101914Y24396D01*
Y38100D01*
X101859Y38373D01*
X101705Y38605D01*
X98014Y42296D01*
Y49624D01*
X98476Y49815D01*
X100395Y47895D01*
D02*
G37*
%LPC*%
G36*
X212276Y197950D02*
X211250D01*
Y196924D01*
X211507Y196975D01*
X211937Y197263D01*
X212225Y197693D01*
X212276Y197950D01*
D02*
G37*
G36*
X210750D02*
X209724D01*
X209775Y197693D01*
X210063Y197263D01*
X210493Y196975D01*
X210750Y196924D01*
Y197950D01*
D02*
G37*
G36*
X201976D02*
X200950D01*
Y196924D01*
X201207Y196975D01*
X201637Y197263D01*
X201925Y197693D01*
X201976Y197950D01*
D02*
G37*
G36*
X200450D02*
X199424D01*
X199475Y197693D01*
X199763Y197263D01*
X200193Y196975D01*
X200450Y196924D01*
Y197950D01*
D02*
G37*
G36*
X33376D02*
X32350D01*
Y196924D01*
X32607Y196975D01*
X33037Y197263D01*
X33325Y197693D01*
X33376Y197950D01*
D02*
G37*
G36*
X31850D02*
X30824D01*
X30875Y197693D01*
X31163Y197263D01*
X31593Y196975D01*
X31850Y196924D01*
Y197950D01*
D02*
G37*
G36*
X18376D02*
X17350D01*
Y196924D01*
X17607Y196975D01*
X18037Y197263D01*
X18325Y197693D01*
X18376Y197950D01*
D02*
G37*
G36*
X16850D02*
X15824D01*
X15875Y197693D01*
X16163Y197263D01*
X16593Y196975D01*
X16850Y196924D01*
Y197950D01*
D02*
G37*
G36*
X10776D02*
X9750D01*
Y196924D01*
X10007Y196975D01*
X10437Y197263D01*
X10725Y197693D01*
X10776Y197950D01*
D02*
G37*
G36*
X9250D02*
X8224D01*
X8275Y197693D01*
X8563Y197263D01*
X8993Y196975D01*
X9250Y196924D01*
Y197950D01*
D02*
G37*
G36*
X4176D02*
X3150D01*
Y196924D01*
X3407Y196975D01*
X3837Y197263D01*
X4125Y197693D01*
X4176Y197950D01*
D02*
G37*
G36*
X2650D02*
X1624D01*
X1675Y197693D01*
X1963Y197263D01*
X2393Y196975D01*
X2650Y196924D01*
Y197950D01*
D02*
G37*
G36*
X206476Y197850D02*
X205450D01*
Y196824D01*
X205707Y196875D01*
X206137Y197163D01*
X206425Y197593D01*
X206476Y197850D01*
D02*
G37*
G36*
X204950D02*
X203924D01*
X203975Y197593D01*
X204263Y197163D01*
X204693Y196875D01*
X204950Y196824D01*
Y197850D01*
D02*
G37*
G36*
X196476D02*
X195450D01*
Y196824D01*
X195707Y196875D01*
X196137Y197163D01*
X196425Y197593D01*
X196476Y197850D01*
D02*
G37*
G36*
X194950D02*
X193924D01*
X193975Y197593D01*
X194263Y197163D01*
X194693Y196875D01*
X194950Y196824D01*
Y197850D01*
D02*
G37*
G36*
X163876D02*
X162850D01*
Y196824D01*
X163107Y196875D01*
X163537Y197163D01*
X163825Y197593D01*
X163876Y197850D01*
D02*
G37*
G36*
X162350D02*
X161324D01*
X161375Y197593D01*
X161663Y197163D01*
X162093Y196875D01*
X162350Y196824D01*
Y197850D01*
D02*
G37*
G36*
X157876D02*
X156850D01*
Y196824D01*
X157107Y196875D01*
X157537Y197163D01*
X157825Y197593D01*
X157876Y197850D01*
D02*
G37*
G36*
X156350D02*
X155324D01*
X155375Y197593D01*
X155663Y197163D01*
X156093Y196875D01*
X156350Y196824D01*
Y197850D01*
D02*
G37*
G36*
X25276D02*
X24250D01*
Y196824D01*
X24507Y196875D01*
X24937Y197163D01*
X25225Y197593D01*
X25276Y197850D01*
D02*
G37*
G36*
X23750D02*
X22724D01*
X22775Y197593D01*
X23063Y197163D01*
X23493Y196875D01*
X23750Y196824D01*
Y197850D01*
D02*
G37*
G36*
X221476Y197750D02*
X220450D01*
Y196724D01*
X220707Y196775D01*
X221137Y197063D01*
X221425Y197493D01*
X221476Y197750D01*
D02*
G37*
G36*
X219950D02*
X218924D01*
X218975Y197493D01*
X219263Y197063D01*
X219693Y196775D01*
X219950Y196724D01*
Y197750D01*
D02*
G37*
G36*
X189776D02*
X188750D01*
Y196724D01*
X189007Y196775D01*
X189437Y197063D01*
X189725Y197493D01*
X189776Y197750D01*
D02*
G37*
G36*
X188250D02*
X187224D01*
X187275Y197493D01*
X187563Y197063D01*
X187993Y196775D01*
X188250Y196724D01*
Y197750D01*
D02*
G37*
G36*
X184276D02*
X183250D01*
Y196724D01*
X183507Y196775D01*
X183937Y197063D01*
X184225Y197493D01*
X184276Y197750D01*
D02*
G37*
G36*
X182750D02*
X181724D01*
X181775Y197493D01*
X182063Y197063D01*
X182493Y196775D01*
X182750Y196724D01*
Y197750D01*
D02*
G37*
G36*
X179476D02*
X178450D01*
Y196724D01*
X178707Y196775D01*
X179137Y197063D01*
X179425Y197493D01*
X179476Y197750D01*
D02*
G37*
G36*
X177950D02*
X176924D01*
X176975Y197493D01*
X177263Y197063D01*
X177693Y196775D01*
X177950Y196724D01*
Y197750D01*
D02*
G37*
G36*
X168876D02*
X167850D01*
Y196724D01*
X168107Y196775D01*
X168537Y197063D01*
X168825Y197493D01*
X168876Y197750D01*
D02*
G37*
G36*
X167350D02*
X166324D01*
X166375Y197493D01*
X166663Y197063D01*
X167093Y196775D01*
X167350Y196724D01*
Y197750D01*
D02*
G37*
G36*
X152676D02*
X151650D01*
Y196724D01*
X151907Y196775D01*
X152337Y197063D01*
X152625Y197493D01*
X152676Y197750D01*
D02*
G37*
G36*
X151150D02*
X150124D01*
X150175Y197493D01*
X150463Y197063D01*
X150893Y196775D01*
X151150Y196724D01*
Y197750D01*
D02*
G37*
G36*
X148276D02*
X147250D01*
Y196724D01*
X147507Y196775D01*
X147937Y197063D01*
X148225Y197493D01*
X148276Y197750D01*
D02*
G37*
G36*
X146750D02*
X145724D01*
X145775Y197493D01*
X146063Y197063D01*
X146493Y196775D01*
X146750Y196724D01*
Y197750D01*
D02*
G37*
G36*
X138176D02*
X137150D01*
Y196724D01*
X137407Y196775D01*
X137837Y197063D01*
X138125Y197493D01*
X138176Y197750D01*
D02*
G37*
G36*
X136650D02*
X135624D01*
X135675Y197493D01*
X135963Y197063D01*
X136393Y196775D01*
X136650Y196724D01*
Y197750D01*
D02*
G37*
G36*
X49976D02*
X48950D01*
Y196724D01*
X49207Y196775D01*
X49637Y197063D01*
X49925Y197493D01*
X49976Y197750D01*
D02*
G37*
G36*
X48450D02*
X47424D01*
X47475Y197493D01*
X47763Y197063D01*
X48193Y196775D01*
X48450Y196724D01*
Y197750D01*
D02*
G37*
G36*
X226650Y197676D02*
X226393Y197625D01*
X225963Y197337D01*
X225675Y196907D01*
X225624Y196650D01*
X226650D01*
Y197676D01*
D02*
G37*
G36*
X216476Y197650D02*
X215450D01*
Y196624D01*
X215707Y196675D01*
X216137Y196963D01*
X216425Y197393D01*
X216476Y197650D01*
D02*
G37*
G36*
X214950D02*
X213924D01*
X213975Y197393D01*
X214263Y196963D01*
X214693Y196675D01*
X214950Y196624D01*
Y197650D01*
D02*
G37*
G36*
X174776D02*
X173750D01*
Y196624D01*
X174007Y196675D01*
X174437Y196963D01*
X174725Y197393D01*
X174776Y197650D01*
D02*
G37*
G36*
X173250D02*
X172224D01*
X172275Y197393D01*
X172563Y196963D01*
X172993Y196675D01*
X173250Y196624D01*
Y197650D01*
D02*
G37*
G36*
X143076D02*
X142050D01*
Y196624D01*
X142307Y196675D01*
X142737Y196963D01*
X143025Y197393D01*
X143076Y197650D01*
D02*
G37*
G36*
X141550D02*
X140524D01*
X140575Y197393D01*
X140863Y196963D01*
X141293Y196675D01*
X141550Y196624D01*
Y197650D01*
D02*
G37*
G36*
X132576D02*
X131550D01*
Y196624D01*
X131807Y196675D01*
X132237Y196963D01*
X132525Y197393D01*
X132576Y197650D01*
D02*
G37*
G36*
X131050D02*
X130024D01*
X130075Y197393D01*
X130363Y196963D01*
X130793Y196675D01*
X131050Y196624D01*
Y197650D01*
D02*
G37*
G36*
X122776D02*
X121750D01*
Y196624D01*
X122007Y196675D01*
X122437Y196963D01*
X122725Y197393D01*
X122776Y197650D01*
D02*
G37*
G36*
X121250D02*
X120224D01*
X120275Y197393D01*
X120563Y196963D01*
X120993Y196675D01*
X121250Y196624D01*
Y197650D01*
D02*
G37*
G36*
X115876D02*
X114850D01*
Y196624D01*
X115107Y196675D01*
X115537Y196963D01*
X115825Y197393D01*
X115876Y197650D01*
D02*
G37*
G36*
X114350D02*
X113324D01*
X113375Y197393D01*
X113663Y196963D01*
X114093Y196675D01*
X114350Y196624D01*
Y197650D01*
D02*
G37*
G36*
X84076D02*
X83050D01*
Y196624D01*
X83307Y196675D01*
X83737Y196963D01*
X84025Y197393D01*
X84076Y197650D01*
D02*
G37*
G36*
X82550D02*
X81524D01*
X81575Y197393D01*
X81863Y196963D01*
X82293Y196675D01*
X82550Y196624D01*
Y197650D01*
D02*
G37*
G36*
X70176D02*
X69150D01*
Y196624D01*
X69407Y196675D01*
X69837Y196963D01*
X70125Y197393D01*
X70176Y197650D01*
D02*
G37*
G36*
X68650D02*
X67624D01*
X67675Y197393D01*
X67963Y196963D01*
X68393Y196675D01*
X68650Y196624D01*
Y197650D01*
D02*
G37*
G36*
X64076D02*
X63050D01*
Y196624D01*
X63307Y196675D01*
X63737Y196963D01*
X64025Y197393D01*
X64076Y197650D01*
D02*
G37*
G36*
X62550D02*
X61524D01*
X61575Y197393D01*
X61863Y196963D01*
X62293Y196675D01*
X62550Y196624D01*
Y197650D01*
D02*
G37*
G36*
X57776D02*
X56750D01*
Y196624D01*
X57007Y196675D01*
X57437Y196963D01*
X57725Y197393D01*
X57776Y197650D01*
D02*
G37*
G36*
X56250D02*
X55224D01*
X55275Y197393D01*
X55563Y196963D01*
X55993Y196675D01*
X56250Y196624D01*
Y197650D01*
D02*
G37*
G36*
X109176Y197550D02*
X108150D01*
Y196524D01*
X108407Y196575D01*
X108837Y196863D01*
X109125Y197293D01*
X109176Y197550D01*
D02*
G37*
G36*
X107650D02*
X106624D01*
X106675Y197293D01*
X106963Y196863D01*
X107393Y196575D01*
X107650Y196524D01*
Y197550D01*
D02*
G37*
G36*
X101776D02*
X100750D01*
Y196524D01*
X101007Y196575D01*
X101437Y196863D01*
X101725Y197293D01*
X101776Y197550D01*
D02*
G37*
G36*
X100250D02*
X99224D01*
X99275Y197293D01*
X99563Y196863D01*
X99993Y196575D01*
X100250Y196524D01*
Y197550D01*
D02*
G37*
G36*
X87876D02*
X86850D01*
Y196524D01*
X87107Y196575D01*
X87537Y196863D01*
X87825Y197293D01*
X87876Y197550D01*
D02*
G37*
G36*
X86350D02*
X85324D01*
X85375Y197293D01*
X85663Y196863D01*
X86093Y196575D01*
X86350Y196524D01*
Y197550D01*
D02*
G37*
G36*
X77276D02*
X76250D01*
Y196524D01*
X76507Y196575D01*
X76937Y196863D01*
X77225Y197293D01*
X77276Y197550D01*
D02*
G37*
G36*
X75750D02*
X74724D01*
X74775Y197293D01*
X75063Y196863D01*
X75493Y196575D01*
X75750Y196524D01*
Y197550D01*
D02*
G37*
G36*
X41876Y197450D02*
X40850D01*
Y196424D01*
X41107Y196475D01*
X41537Y196763D01*
X41825Y197193D01*
X41876Y197450D01*
D02*
G37*
G36*
X40350D02*
X39324D01*
X39375Y197193D01*
X39663Y196763D01*
X40093Y196475D01*
X40350Y196424D01*
Y197450D01*
D02*
G37*
G36*
X94776Y197350D02*
X93750D01*
Y196324D01*
X94007Y196375D01*
X94437Y196663D01*
X94725Y197093D01*
X94776Y197350D01*
D02*
G37*
G36*
X93250D02*
X92224D01*
X92275Y197093D01*
X92563Y196663D01*
X92993Y196375D01*
X93250Y196324D01*
Y197350D01*
D02*
G37*
G36*
X226650Y196150D02*
X225624D01*
X225675Y195893D01*
X225963Y195463D01*
X226393Y195175D01*
X226650Y195124D01*
Y196150D01*
D02*
G37*
G36*
X2450Y193276D02*
Y192250D01*
X3476D01*
X3425Y192507D01*
X3137Y192937D01*
X2707Y193225D01*
X2450Y193276D01*
D02*
G37*
G36*
X226650Y192576D02*
X226393Y192525D01*
X225963Y192237D01*
X225675Y191807D01*
X225624Y191550D01*
X226650D01*
Y192576D01*
D02*
G37*
G36*
X82350Y192376D02*
X82093Y192325D01*
X81663Y192037D01*
X81375Y191607D01*
X81324Y191350D01*
X82350D01*
Y192376D01*
D02*
G37*
G36*
X3476Y191750D02*
X2450D01*
Y190724D01*
X2707Y190775D01*
X3137Y191063D01*
X3425Y191493D01*
X3476Y191750D01*
D02*
G37*
G36*
X226650Y191050D02*
X225624D01*
X225675Y190793D01*
X225963Y190363D01*
X226393Y190075D01*
X226650Y190024D01*
Y191050D01*
D02*
G37*
G36*
X88750Y195750D02*
X86000D01*
Y189651D01*
X85538Y189460D01*
X83921Y191077D01*
X83925Y191100D01*
X83825Y191607D01*
X83537Y192037D01*
X83107Y192325D01*
X82850Y192376D01*
Y191100D01*
X82600D01*
Y190850D01*
X81324D01*
X81375Y190593D01*
X81663Y190163D01*
X82093Y189875D01*
X82600Y189775D01*
X82623Y189779D01*
X85301Y187101D01*
X85599Y186902D01*
X85950Y186832D01*
X86000D01*
Y179750D01*
X88750D01*
Y187750D01*
Y195750D01*
D02*
G37*
G36*
X92000D02*
X89250D01*
Y188000D01*
X92000D01*
Y195750D01*
D02*
G37*
G36*
X226650Y186876D02*
X226393Y186825D01*
X225963Y186537D01*
X225675Y186107D01*
X225624Y185850D01*
X226650D01*
Y186876D01*
D02*
G37*
G36*
X186987Y194318D02*
X170700D01*
X170349Y194248D01*
X170051Y194049D01*
X166551Y190549D01*
X166352Y190251D01*
X166282Y189900D01*
Y189079D01*
X164792D01*
Y179657D01*
X166282D01*
Y177543D01*
X164792D01*
Y168121D01*
X165832D01*
X166039Y167621D01*
X158411Y159993D01*
X157914Y160203D01*
Y168121D01*
X159608D01*
Y177543D01*
X158118D01*
Y179657D01*
X159608D01*
Y189079D01*
X154792D01*
Y179657D01*
X156282D01*
Y177543D01*
X154792D01*
Y168121D01*
X156486D01*
Y160296D01*
X153779Y157589D01*
X135752D01*
X135551Y157723D01*
X135200Y157792D01*
X134849Y157723D01*
X134551Y157524D01*
X134352Y157226D01*
X134282Y156875D01*
X134352Y156524D01*
X134401Y156450D01*
X134510Y156087D01*
X134401Y155725D01*
X134352Y155651D01*
X134282Y155300D01*
X134352Y154949D01*
X134551Y154651D01*
X134849Y154452D01*
X135200Y154382D01*
X135551Y154452D01*
X135752Y154586D01*
X154727D01*
X155000Y154641D01*
X155232Y154795D01*
X167705Y167268D01*
X167859Y167500D01*
X167914Y167773D01*
Y168121D01*
X169608D01*
Y177543D01*
X168118D01*
Y179657D01*
X169608D01*
Y189079D01*
X168260D01*
X168176Y189579D01*
X171080Y192482D01*
X186607D01*
X186997Y192092D01*
X186806Y191630D01*
X186099D01*
Y185318D01*
X197726D01*
Y187556D01*
X212674D01*
Y185318D01*
X224301D01*
Y191630D01*
X212674D01*
Y189392D01*
X197726D01*
Y191630D01*
X190054D01*
X187636Y194049D01*
X187338Y194248D01*
X186987Y194318D01*
D02*
G37*
G36*
X149708Y189179D02*
X147450D01*
Y184618D01*
X149708D01*
Y189179D01*
D02*
G37*
G36*
X146950D02*
X144692D01*
Y184618D01*
X146950D01*
Y189179D01*
D02*
G37*
G36*
X2450Y185476D02*
Y184450D01*
X3476D01*
X3425Y184707D01*
X3137Y185137D01*
X2707Y185425D01*
X2450Y185476D01*
D02*
G37*
G36*
X226650Y185350D02*
X225624D01*
X225675Y185093D01*
X225963Y184663D01*
X226393Y184375D01*
X226650Y184324D01*
Y185350D01*
D02*
G37*
G36*
X21550Y192400D02*
X5750D01*
Y186600D01*
X12936D01*
Y186250D01*
X12991Y185977D01*
X13145Y185745D01*
X13912Y184979D01*
X13877Y184800D01*
X13970Y184332D01*
X14235Y183935D01*
X14632Y183670D01*
X15100Y183577D01*
X15568Y183670D01*
X15965Y183935D01*
X16230Y184332D01*
X16323Y184800D01*
X16230Y185268D01*
X15965Y185665D01*
X15568Y185930D01*
X15302Y185983D01*
X15220Y186100D01*
X15479Y186600D01*
X21550D01*
Y192400D01*
D02*
G37*
G36*
X3476Y183950D02*
X2450D01*
Y182924D01*
X2707Y182975D01*
X3137Y183263D01*
X3425Y183693D01*
X3476Y183950D01*
D02*
G37*
G36*
X92000Y187500D02*
X89250D01*
Y179750D01*
X92000D01*
Y187500D01*
D02*
G37*
G36*
X226650Y180676D02*
X226393Y180625D01*
X225963Y180337D01*
X225675Y179907D01*
X225624Y179650D01*
X226650D01*
Y180676D01*
D02*
G37*
G36*
Y179150D02*
X225624D01*
X225675Y178893D01*
X225963Y178463D01*
X226393Y178175D01*
X226650Y178124D01*
Y179150D01*
D02*
G37*
G36*
X2450Y177676D02*
Y176650D01*
X3476D01*
X3425Y176907D01*
X3137Y177337D01*
X2707Y177625D01*
X2450Y177676D01*
D02*
G37*
G36*
X3476Y176150D02*
X2450D01*
Y175124D01*
X2707Y175175D01*
X3137Y175463D01*
X3425Y175893D01*
X3476Y176150D01*
D02*
G37*
G36*
X226650Y174976D02*
X226393Y174925D01*
X225963Y174637D01*
X225675Y174207D01*
X225624Y173950D01*
X226650D01*
Y174976D01*
D02*
G37*
G36*
X149708Y184118D02*
X147200D01*
X144692D01*
Y179557D01*
X146282D01*
Y177643D01*
X144692D01*
Y173082D01*
X147200D01*
X149708D01*
Y177643D01*
X148118D01*
Y179557D01*
X149708D01*
Y184118D01*
D02*
G37*
G36*
X48300Y175424D02*
X47832Y175330D01*
X47435Y175065D01*
X47334Y174914D01*
X18350D01*
X18077Y174859D01*
X17845Y174705D01*
X15541Y172400D01*
X5750D01*
Y166600D01*
X21550D01*
Y172400D01*
X18213D01*
X18021Y172862D01*
X18646Y173486D01*
X47334D01*
X47435Y173335D01*
X47832Y173070D01*
X48300Y172977D01*
X48768Y173070D01*
X49165Y173335D01*
X49430Y173732D01*
X49523Y174200D01*
X49430Y174668D01*
X49165Y175065D01*
X48768Y175330D01*
X48300Y175424D01*
D02*
G37*
G36*
X224401Y175982D02*
X218737D01*
Y172976D01*
X224401D01*
Y175982D01*
D02*
G37*
G36*
X218237D02*
X212574D01*
Y172976D01*
X218237D01*
Y175982D01*
D02*
G37*
G36*
X197826D02*
X192163D01*
Y172976D01*
X197826D01*
Y175982D01*
D02*
G37*
G36*
X191663D02*
X185999D01*
Y172976D01*
X191663D01*
Y175982D01*
D02*
G37*
G36*
X226650Y173450D02*
X225624D01*
X225675Y173193D01*
X225963Y172763D01*
X226393Y172475D01*
X226650Y172424D01*
Y173450D01*
D02*
G37*
G36*
Y171176D02*
X226393Y171125D01*
X225963Y170837D01*
X225675Y170407D01*
X225624Y170150D01*
X226650D01*
Y171176D01*
D02*
G37*
G36*
Y169650D02*
X225624D01*
X225675Y169393D01*
X225963Y168963D01*
X226393Y168675D01*
X226650Y168624D01*
Y169650D01*
D02*
G37*
G36*
X224401Y172476D02*
X212574D01*
Y169470D01*
X217570D01*
Y168463D01*
X217550Y168450D01*
X217263Y168020D01*
X217212Y167763D01*
X219763D01*
X219712Y168020D01*
X219425Y168450D01*
X219405Y168463D01*
Y169470D01*
X224401D01*
Y172476D01*
D02*
G37*
G36*
X197826D02*
X185999D01*
Y169470D01*
X190995D01*
Y168163D01*
X190975Y168150D01*
X190688Y167720D01*
X190637Y167463D01*
X193188D01*
X193137Y167720D01*
X192850Y168150D01*
X192830Y168163D01*
Y169470D01*
X197826D01*
Y172476D01*
D02*
G37*
G36*
X219763Y167263D02*
X218737D01*
Y166237D01*
X218995Y166288D01*
X219425Y166575D01*
X219712Y167005D01*
X219763Y167263D01*
D02*
G37*
G36*
X218237D02*
X217212D01*
X217263Y167005D01*
X217550Y166575D01*
X217980Y166288D01*
X218237Y166237D01*
Y167263D01*
D02*
G37*
G36*
X193188Y166963D02*
X192163D01*
Y165937D01*
X192420Y165988D01*
X192850Y166275D01*
X193137Y166705D01*
X193188Y166963D01*
D02*
G37*
G36*
X191663D02*
X190637D01*
X190688Y166705D01*
X190975Y166275D01*
X191405Y165988D01*
X191663Y165937D01*
Y166963D01*
D02*
G37*
G36*
X149708Y172582D02*
X147200D01*
X144692D01*
Y168021D01*
X146282D01*
Y166450D01*
X146263Y166437D01*
X145975Y166007D01*
X145924Y165750D01*
X148476D01*
X148425Y166007D01*
X148137Y166437D01*
X148118Y166450D01*
Y168021D01*
X149708D01*
Y172582D01*
D02*
G37*
G36*
X179608Y189079D02*
X174792D01*
Y179657D01*
X176282D01*
Y177543D01*
X174792D01*
Y168121D01*
X176282D01*
Y167187D01*
X176070Y166868D01*
X175977Y166400D01*
X176070Y165932D01*
X176335Y165535D01*
X176732Y165270D01*
X177200Y165176D01*
X177668Y165270D01*
X178065Y165535D01*
X178330Y165932D01*
X178424Y166400D01*
X178330Y166868D01*
X178118Y167187D01*
Y168121D01*
X179608D01*
Y177543D01*
X178118D01*
Y179657D01*
X179608D01*
Y189079D01*
D02*
G37*
G36*
X2450Y166076D02*
Y165050D01*
X3476D01*
X3425Y165307D01*
X3137Y165737D01*
X2707Y166025D01*
X2450Y166076D01*
D02*
G37*
G36*
X226650Y165476D02*
X226393Y165425D01*
X225963Y165137D01*
X225675Y164707D01*
X225624Y164450D01*
X226650D01*
Y165476D01*
D02*
G37*
G36*
X148476Y165250D02*
X147450D01*
Y164224D01*
X147707Y164275D01*
X148137Y164563D01*
X148425Y164993D01*
X148476Y165250D01*
D02*
G37*
G36*
X146950D02*
X145924D01*
X145975Y164993D01*
X146263Y164563D01*
X146693Y164275D01*
X146950Y164224D01*
Y165250D01*
D02*
G37*
G36*
X3476Y164550D02*
X2450D01*
Y163524D01*
X2707Y163575D01*
X3137Y163863D01*
X3425Y164293D01*
X3476Y164550D01*
D02*
G37*
G36*
X226650Y163950D02*
X225624D01*
X225675Y163693D01*
X225963Y163263D01*
X226393Y162975D01*
X226650Y162924D01*
Y163950D01*
D02*
G37*
G36*
Y161076D02*
X226393Y161025D01*
X225963Y160737D01*
X225675Y160307D01*
X225624Y160050D01*
X226650D01*
Y161076D01*
D02*
G37*
G36*
Y159550D02*
X225624D01*
X225675Y159293D01*
X225963Y158863D01*
X226393Y158575D01*
X226650Y158524D01*
Y159550D01*
D02*
G37*
G36*
X91900Y178150D02*
X86100D01*
Y162350D01*
X88082D01*
Y161600D01*
X88152Y161249D01*
X88351Y160951D01*
X90795Y158507D01*
X90870Y158132D01*
X91135Y157735D01*
X91532Y157470D01*
X92000Y157377D01*
X92468Y157470D01*
X92865Y157735D01*
X93130Y158132D01*
X93224Y158600D01*
X93130Y159068D01*
X92865Y159465D01*
X92468Y159730D01*
X92093Y159805D01*
X90048Y161850D01*
X90232Y162350D01*
X91900D01*
Y178150D01*
D02*
G37*
G36*
X2450Y158276D02*
Y157250D01*
X3476D01*
X3425Y157507D01*
X3137Y157937D01*
X2707Y158225D01*
X2450Y158276D01*
D02*
G37*
G36*
X196309Y158621D02*
X196191Y158621D01*
X192360D01*
Y156967D01*
X190799D01*
X190598Y157101D01*
X190247Y157170D01*
X189896Y157101D01*
X189598Y156902D01*
X189399Y156604D01*
X189330Y156253D01*
X189399Y155902D01*
X189598Y155604D01*
X189896Y155405D01*
X190247Y155335D01*
X190598Y155405D01*
X190799Y155539D01*
X192360D01*
Y153884D01*
X196191D01*
X196691Y153884D01*
X196809Y153884D01*
X200640D01*
Y155335D01*
X201866D01*
X202185Y155122D01*
X202653Y155029D01*
X203121Y155122D01*
X203518Y155388D01*
X203783Y155784D01*
X203876Y156253D01*
X203783Y156721D01*
X203518Y157118D01*
X203121Y157383D01*
X202653Y157476D01*
X202185Y157383D01*
X201866Y157170D01*
X200640D01*
Y158621D01*
X196796D01*
X196309Y158621D01*
D02*
G37*
G36*
X3476Y156750D02*
X2450D01*
Y155724D01*
X2707Y155775D01*
X3137Y156063D01*
X3425Y156493D01*
X3476Y156750D01*
D02*
G37*
G36*
X226650Y156676D02*
X226393Y156625D01*
X225963Y156337D01*
X225675Y155907D01*
X225624Y155650D01*
X226650D01*
Y156676D01*
D02*
G37*
G36*
X216309Y158721D02*
X216191Y158721D01*
X212360D01*
Y157067D01*
X209253D01*
X208980Y157012D01*
X208748Y156858D01*
X207995Y156105D01*
X207841Y155873D01*
X207786Y155600D01*
Y143352D01*
X207652Y143151D01*
X207582Y142800D01*
X207652Y142449D01*
X207851Y142151D01*
X208149Y141952D01*
X208500Y141882D01*
X208851Y141952D01*
X209149Y142151D01*
X209348Y142449D01*
X209418Y142800D01*
X209348Y143151D01*
X209214Y143352D01*
Y155304D01*
X209548Y155639D01*
X212360D01*
Y153984D01*
X216191D01*
X216691Y153984D01*
X216809Y153984D01*
X220640D01*
Y155435D01*
X222166D01*
X222484Y155222D01*
X222953Y155129D01*
X223421Y155222D01*
X223818Y155488D01*
X224083Y155885D01*
X224176Y156353D01*
X224083Y156821D01*
X223818Y157218D01*
X223421Y157483D01*
X222953Y157576D01*
X222484Y157483D01*
X222166Y157270D01*
X220640D01*
Y158721D01*
X216796D01*
X216309Y158721D01*
D02*
G37*
G36*
X226650Y155150D02*
X225624D01*
X225675Y154893D01*
X225963Y154463D01*
X226393Y154175D01*
X226650Y154124D01*
Y155150D01*
D02*
G37*
G36*
X60689Y152169D02*
X59750D01*
Y151328D01*
X60689D01*
Y152169D01*
D02*
G37*
G36*
X226650Y152276D02*
X226393Y152225D01*
X225963Y151937D01*
X225675Y151507D01*
X225624Y151250D01*
X226650D01*
Y152276D01*
D02*
G37*
G36*
X196309Y152716D02*
X196191Y152716D01*
X192360D01*
Y151061D01*
X191104D01*
X190904Y151195D01*
X190553Y151265D01*
X190201Y151195D01*
X189904Y150996D01*
X189705Y150698D01*
X189635Y150347D01*
X189705Y149996D01*
X189904Y149698D01*
X190201Y149499D01*
X190553Y149430D01*
X190904Y149499D01*
X191104Y149634D01*
X192006D01*
X192360Y149280D01*
X192360Y147979D01*
X191928Y147814D01*
X191252D01*
X191051Y147948D01*
X190700Y148018D01*
X190349Y147948D01*
X190051Y147749D01*
X189852Y147451D01*
X189782Y147100D01*
X189852Y146749D01*
X190051Y146451D01*
X190349Y146252D01*
X190700Y146182D01*
X191051Y146252D01*
X191252Y146386D01*
X198100D01*
X198373Y146441D01*
X198605Y146595D01*
X199170Y147161D01*
X199325Y147392D01*
X199379Y147665D01*
Y147979D01*
X200640D01*
Y152716D01*
X196796D01*
X196309Y152716D01*
D02*
G37*
G36*
X53250Y151639D02*
X51740D01*
Y150208D01*
X53250D01*
Y151639D01*
D02*
G37*
G36*
X21650Y152500D02*
X13900D01*
Y149750D01*
X21650D01*
Y152500D01*
D02*
G37*
G36*
X13400D02*
X5650D01*
Y149750D01*
X13400D01*
Y152500D01*
D02*
G37*
G36*
X226650Y150750D02*
X225624D01*
X225675Y150493D01*
X225963Y150063D01*
X226393Y149775D01*
X226650Y149724D01*
Y150750D01*
D02*
G37*
G36*
X2450Y150476D02*
Y149450D01*
X3476D01*
X3425Y149707D01*
X3137Y150137D01*
X2707Y150425D01*
X2450Y150476D01*
D02*
G37*
G36*
X58076Y150450D02*
X57050D01*
Y149424D01*
X57307Y149475D01*
X57737Y149763D01*
X58025Y150193D01*
X58076Y150450D01*
D02*
G37*
G36*
X3476Y148950D02*
X2450D01*
Y147924D01*
X2707Y147975D01*
X3137Y148263D01*
X3425Y148693D01*
X3476Y148950D01*
D02*
G37*
G36*
X121900Y178150D02*
X116100D01*
Y168359D01*
X114395Y166655D01*
X114241Y166423D01*
X114186Y166150D01*
Y148952D01*
X114052Y148751D01*
X113982Y148400D01*
X114052Y148049D01*
X114251Y147751D01*
X114549Y147552D01*
X114900Y147482D01*
X115251Y147552D01*
X115549Y147751D01*
X115748Y148049D01*
X115818Y148400D01*
X115748Y148751D01*
X115614Y148952D01*
Y162317D01*
X116100Y162350D01*
Y162350D01*
X121900D01*
Y178150D01*
D02*
G37*
G36*
X226650Y148476D02*
X226393Y148425D01*
X225963Y148137D01*
X225675Y147707D01*
X225624Y147450D01*
X226650D01*
Y148476D01*
D02*
G37*
G36*
Y146950D02*
X225624D01*
X225675Y146693D01*
X225963Y146263D01*
X226393Y145975D01*
X226650Y145924D01*
Y146950D01*
D02*
G37*
G36*
X216309Y152816D02*
X216191Y152816D01*
X212360D01*
Y148079D01*
X213621D01*
Y144886D01*
X213487Y144686D01*
X213417Y144335D01*
X213487Y143983D01*
X213686Y143686D01*
X213983Y143487D01*
X214335Y143417D01*
X214686Y143487D01*
X214984Y143686D01*
X215182Y143983D01*
X215252Y144335D01*
X215182Y144686D01*
X215048Y144886D01*
Y148079D01*
X216191D01*
X216690Y148079D01*
X216809Y148079D01*
X217952D01*
Y147286D01*
X217818Y147086D01*
X217748Y146735D01*
X217818Y146384D01*
X218017Y146086D01*
X218314Y145887D01*
X218665Y145817D01*
X219017Y145887D01*
X219314Y146086D01*
X219513Y146384D01*
X219583Y146735D01*
X219513Y147086D01*
X219379Y147286D01*
Y148079D01*
X220640D01*
Y152816D01*
X216796D01*
X216309Y152816D01*
D02*
G37*
G36*
X128652Y145673D02*
Y144648D01*
X129678D01*
X129627Y144905D01*
X129340Y145335D01*
X128910Y145622D01*
X128652Y145673D01*
D02*
G37*
G36*
X21650Y149250D02*
X13650D01*
X5650D01*
Y146500D01*
X12732D01*
Y144830D01*
X11923Y144021D01*
X11900Y144026D01*
X11393Y143925D01*
X10963Y143637D01*
X10675Y143207D01*
X10624Y142950D01*
X11900D01*
Y142700D01*
X12150D01*
Y141424D01*
X12407Y141475D01*
X12837Y141763D01*
X13125Y142193D01*
X13226Y142700D01*
X13221Y142723D01*
X14299Y143801D01*
X14498Y144099D01*
X14568Y144450D01*
Y146500D01*
X21650D01*
Y149250D01*
D02*
G37*
G36*
X118393Y145753D02*
X116371D01*
Y143534D01*
X118393D01*
Y145753D01*
D02*
G37*
G36*
X39050Y152400D02*
X23250D01*
Y146600D01*
X32392D01*
X35421Y143571D01*
X35801Y143317D01*
X36250Y143228D01*
X37844D01*
X38100Y143176D01*
X38568Y143270D01*
X38965Y143535D01*
X39230Y143932D01*
X39323Y144400D01*
X39230Y144868D01*
X38965Y145265D01*
X38568Y145530D01*
X38100Y145624D01*
X37844Y145572D01*
X36736D01*
X36170Y146138D01*
X36362Y146600D01*
X39050D01*
Y152400D01*
D02*
G37*
G36*
X226650Y144076D02*
X226393Y144025D01*
X225963Y143737D01*
X225675Y143307D01*
X225624Y143050D01*
X226650D01*
Y144076D01*
D02*
G37*
G36*
X139150Y143474D02*
Y142550D01*
X140074D01*
X140030Y142768D01*
X139765Y143165D01*
X139368Y143430D01*
X139150Y143474D01*
D02*
G37*
G36*
X2450Y142776D02*
Y141750D01*
X3476D01*
X3425Y142007D01*
X3137Y142437D01*
X2707Y142725D01*
X2450Y142776D01*
D02*
G37*
G36*
X226650Y142550D02*
X225624D01*
X225675Y142293D01*
X225963Y141863D01*
X226393Y141575D01*
X226650Y141524D01*
Y142550D01*
D02*
G37*
G36*
X11650Y142450D02*
X10624D01*
X10675Y142193D01*
X10963Y141763D01*
X11393Y141475D01*
X11650Y141424D01*
Y142450D01*
D02*
G37*
G36*
X3476Y141250D02*
X2450D01*
Y140224D01*
X2707Y140275D01*
X3137Y140563D01*
X3425Y140993D01*
X3476Y141250D01*
D02*
G37*
G36*
X226650Y139676D02*
X226393Y139625D01*
X225963Y139337D01*
X225675Y138907D01*
X225624Y138650D01*
X226650D01*
Y139676D01*
D02*
G37*
G36*
Y138150D02*
X225624D01*
X225675Y137893D01*
X225963Y137463D01*
X226393Y137175D01*
X226650Y137124D01*
Y138150D01*
D02*
G37*
G36*
X114900Y136571D02*
X114490Y136489D01*
X114143Y136257D01*
X113911Y135910D01*
X113829Y135500D01*
X113911Y135090D01*
X114143Y134743D01*
X114490Y134511D01*
X114900Y134429D01*
X115310Y134511D01*
X115657Y134743D01*
X115889Y135090D01*
X115971Y135500D01*
X115889Y135910D01*
X115657Y136257D01*
X115310Y136489D01*
X114900Y136571D01*
D02*
G37*
G36*
X226650Y135276D02*
X226393Y135225D01*
X225963Y134937D01*
X225675Y134507D01*
X225624Y134250D01*
X226650D01*
Y135276D01*
D02*
G37*
G36*
X216810Y135621D02*
X216691Y135621D01*
X212860D01*
Y134114D01*
X210552D01*
X210351Y134248D01*
X210000Y134318D01*
X209649Y134248D01*
X209351Y134049D01*
X209152Y133751D01*
X209082Y133400D01*
X209152Y133049D01*
X209351Y132751D01*
X209649Y132552D01*
X210000Y132482D01*
X210351Y132552D01*
X210552Y132686D01*
X212860D01*
Y130884D01*
X216691D01*
X217191Y130884D01*
X217309Y130884D01*
X221140D01*
Y132335D01*
X222266D01*
X222585Y132122D01*
X223053Y132029D01*
X223521Y132122D01*
X223918Y132388D01*
X224183Y132784D01*
X224276Y133253D01*
X224183Y133721D01*
X223918Y134118D01*
X223521Y134383D01*
X223053Y134476D01*
X222585Y134383D01*
X222266Y134170D01*
X221140D01*
Y135621D01*
X217296D01*
X216810Y135621D01*
D02*
G37*
G36*
X5916Y134085D02*
Y133059D01*
X6942D01*
X6891Y133316D01*
X6603Y133746D01*
X6173Y134033D01*
X5916Y134085D01*
D02*
G37*
G36*
X5416D02*
X5159Y134033D01*
X4729Y133746D01*
X4441Y133316D01*
X4390Y133059D01*
X5416D01*
Y134085D01*
D02*
G37*
G36*
X226650Y133750D02*
X225624D01*
X225675Y133493D01*
X225963Y133063D01*
X226393Y132775D01*
X226650Y132724D01*
Y133750D01*
D02*
G37*
G36*
X14685Y133016D02*
Y131990D01*
X15710D01*
X15659Y132247D01*
X15372Y132677D01*
X14942Y132965D01*
X14685Y133016D01*
D02*
G37*
G36*
X9385D02*
X9127Y132965D01*
X8697Y132677D01*
X8410Y132247D01*
X8359Y131990D01*
X9385D01*
Y133016D01*
D02*
G37*
G36*
X2585Y131216D02*
X2327Y131165D01*
X1897Y130877D01*
X1610Y130447D01*
X1559Y130190D01*
X2585D01*
Y131216D01*
D02*
G37*
G36*
X226650Y130876D02*
X226393Y130825D01*
X225963Y130537D01*
X225675Y130107D01*
X225624Y129850D01*
X226650D01*
Y130876D01*
D02*
G37*
G36*
X101850Y130776D02*
X101593Y130725D01*
X101163Y130437D01*
X100875Y130007D01*
X100824Y129750D01*
X101850D01*
Y130776D01*
D02*
G37*
G36*
X17085Y130216D02*
Y129190D01*
X18110D01*
X18059Y129447D01*
X17772Y129877D01*
X17342Y130165D01*
X17085Y130216D01*
D02*
G37*
G36*
X110929Y129553D02*
X109990D01*
Y128713D01*
X110929D01*
Y129553D01*
D02*
G37*
G36*
X226650Y129350D02*
X225624D01*
X225675Y129093D01*
X225963Y128663D01*
X226393Y128375D01*
X226650Y128324D01*
Y129350D01*
D02*
G37*
G36*
Y125776D02*
X226393Y125725D01*
X225963Y125437D01*
X225675Y125007D01*
X225624Y124750D01*
X226650D01*
Y125776D01*
D02*
G37*
G36*
Y124250D02*
X225624D01*
X225675Y123993D01*
X225963Y123563D01*
X226393Y123275D01*
X226650Y123224D01*
Y124250D01*
D02*
G37*
G36*
X120300Y125426D02*
X119793Y125325D01*
X119363Y125037D01*
X119075Y124607D01*
X118974Y124100D01*
X119075Y123593D01*
X119363Y123163D01*
X119793Y122875D01*
X120300Y122775D01*
X120807Y122875D01*
X121237Y123163D01*
X121525Y123593D01*
X121625Y124100D01*
X121525Y124607D01*
X121237Y125037D01*
X120807Y125325D01*
X120300Y125426D01*
D02*
G37*
G36*
X131881Y123681D02*
X130958D01*
X131001Y123463D01*
X131266Y123066D01*
X131663Y122801D01*
X131881Y122758D01*
Y123681D01*
D02*
G37*
G36*
X155150Y124314D02*
X152931D01*
Y122292D01*
X155150D01*
Y124314D01*
D02*
G37*
G36*
X125431Y123193D02*
X124507D01*
Y122269D01*
X124726Y122312D01*
X125123Y122577D01*
X125388Y122974D01*
X125431Y123193D01*
D02*
G37*
G36*
X124007D02*
X123084D01*
X123127Y122974D01*
X123392Y122577D01*
X123789Y122312D01*
X124007Y122269D01*
Y123193D01*
D02*
G37*
G36*
X62750Y122476D02*
X62493Y122425D01*
X62063Y122137D01*
X61775Y121707D01*
X61724Y121450D01*
X62750D01*
Y122476D01*
D02*
G37*
G36*
X167460Y122639D02*
X165950D01*
Y121208D01*
X167460D01*
Y122639D01*
D02*
G37*
G36*
X226650Y121976D02*
X226393Y121925D01*
X225963Y121637D01*
X225675Y121207D01*
X225624Y120950D01*
X226650D01*
Y121976D01*
D02*
G37*
G36*
X116900Y123326D02*
X116393Y123225D01*
X115963Y122937D01*
X115675Y122507D01*
X115575Y122000D01*
X115675Y121493D01*
X115963Y121063D01*
X116393Y120775D01*
X116900Y120675D01*
X117407Y120775D01*
X117837Y121063D01*
X118125Y121493D01*
X118226Y122000D01*
X118125Y122507D01*
X117837Y122937D01*
X117407Y123225D01*
X116900Y123326D01*
D02*
G37*
G36*
X185330Y120633D02*
X184871Y120533D01*
X181808D01*
Y119614D01*
X179786D01*
X179757Y119657D01*
X179410Y119889D01*
X179000Y119971D01*
X178590Y119889D01*
X178243Y119657D01*
X178011Y119310D01*
X177929Y118900D01*
X178011Y118490D01*
X178243Y118143D01*
X178590Y117911D01*
X179000Y117829D01*
X179410Y117911D01*
X179757Y118143D01*
X179786Y118186D01*
X181808D01*
Y117213D01*
X182675D01*
Y116185D01*
X182395Y115905D01*
X182241Y115673D01*
X182186Y115400D01*
Y114876D01*
X181930D01*
Y111241D01*
X183911D01*
Y114876D01*
X183911D01*
X183885Y115376D01*
X183894Y115384D01*
X184048Y115616D01*
X184103Y115889D01*
Y116860D01*
X184456Y117213D01*
X184871D01*
X185330Y117113D01*
X185429Y117113D01*
X186093D01*
Y116689D01*
X186163Y116338D01*
X186362Y116040D01*
X186933Y115469D01*
X186948Y114976D01*
X186489Y114878D01*
X186470Y114876D01*
X186448Y114876D01*
X184489D01*
Y111241D01*
X186448D01*
X186470Y111241D01*
X186948Y111188D01*
Y111141D01*
X187121D01*
Y110507D01*
X184450D01*
Y106123D01*
X188834D01*
Y109282D01*
X188886Y109361D01*
X188956Y109712D01*
Y111141D01*
X189129D01*
Y112808D01*
X188039D01*
Y113308D01*
X189129D01*
Y114976D01*
X188956D01*
Y115661D01*
X188886Y116013D01*
X188687Y116310D01*
X188384Y116613D01*
X188592Y117113D01*
X188692D01*
Y118623D01*
X187011D01*
Y118873D01*
X186761D01*
Y120633D01*
X185429D01*
X185330Y120633D01*
D02*
G37*
G36*
X226650Y120450D02*
X225624D01*
X225675Y120193D01*
X225963Y119763D01*
X226393Y119475D01*
X226650Y119424D01*
Y120450D01*
D02*
G37*
G36*
X187261Y120633D02*
Y119123D01*
X188692D01*
Y120633D01*
X187261D01*
D02*
G37*
G36*
X226750Y118176D02*
X226493Y118125D01*
X226063Y117837D01*
X225775Y117407D01*
X225724Y117150D01*
X226750D01*
Y118176D01*
D02*
G37*
G36*
X156676Y116950D02*
X155650D01*
Y115924D01*
X155907Y115975D01*
X156337Y116263D01*
X156625Y116693D01*
X156676Y116950D01*
D02*
G37*
G36*
X155150D02*
X154124D01*
X154175Y116693D01*
X154463Y116263D01*
X154893Y115975D01*
X155150Y115924D01*
Y116950D01*
D02*
G37*
G36*
X226750Y116650D02*
X225724D01*
X225775Y116393D01*
X226063Y115963D01*
X226493Y115675D01*
X226750Y115624D01*
Y116650D01*
D02*
G37*
G36*
X204460Y114365D02*
X202950D01*
Y112934D01*
X204460D01*
Y114365D01*
D02*
G37*
G36*
X199460D02*
X197950D01*
Y112934D01*
X199460D01*
Y114365D01*
D02*
G37*
G36*
X202450D02*
X200940D01*
Y112934D01*
X202450D01*
Y114365D01*
D02*
G37*
G36*
X197450D02*
X195940D01*
Y112934D01*
X197450D01*
Y114365D01*
D02*
G37*
G36*
X2585Y113890D02*
X1559D01*
X1610Y113633D01*
X1897Y113203D01*
X2327Y112916D01*
X2585Y112864D01*
Y113890D01*
D02*
G37*
G36*
X226750Y113776D02*
X226493Y113725D01*
X226063Y113437D01*
X225775Y113007D01*
X225724Y112750D01*
X226750D01*
Y113776D01*
D02*
G37*
G36*
X181352Y114876D02*
X179371D01*
Y111241D01*
X181352D01*
Y114876D01*
D02*
G37*
G36*
X226750Y112250D02*
X225724D01*
X225775Y111993D01*
X226063Y111563D01*
X226493Y111275D01*
X226750Y111224D01*
Y112250D01*
D02*
G37*
G36*
X61650Y112150D02*
X60624D01*
X60675Y111893D01*
X60963Y111463D01*
X61393Y111175D01*
X61650Y111124D01*
Y112150D01*
D02*
G37*
G36*
X18110Y111690D02*
X17085D01*
Y110664D01*
X17342Y110716D01*
X17772Y111003D01*
X18059Y111433D01*
X18110Y111690D01*
D02*
G37*
G36*
X204460Y112434D02*
X202700D01*
X200940D01*
Y111102D01*
X200940Y111003D01*
X201040Y110545D01*
Y110144D01*
X200687Y109791D01*
X199713D01*
X199360Y110144D01*
Y110545D01*
X199460Y111003D01*
X199460Y111102D01*
Y112434D01*
X197700D01*
X195940D01*
Y111102D01*
X195940Y111003D01*
X196040Y110545D01*
Y107481D01*
X196376D01*
X196583Y106981D01*
X195251Y105649D01*
X195251Y105649D01*
X195114Y105511D01*
X193202D01*
Y105584D01*
X189568D01*
Y103603D01*
X193202D01*
Y103676D01*
X195494D01*
X195761Y103729D01*
X195980Y103608D01*
X196197Y103386D01*
X196275Y102993D01*
X196563Y102563D01*
X196993Y102275D01*
X197500Y102174D01*
X198007Y102275D01*
X198437Y102563D01*
X198725Y102993D01*
X198826Y103500D01*
X198725Y104007D01*
X198437Y104437D01*
X198007Y104725D01*
X197692Y104787D01*
X197495Y105289D01*
X197495Y105297D01*
X198349Y106151D01*
X198548Y106449D01*
X198618Y106800D01*
Y107481D01*
X199360D01*
Y107956D01*
X201040D01*
Y107481D01*
X204360D01*
Y107956D01*
X207347D01*
Y107292D01*
X210313D01*
Y110454D01*
X207347D01*
Y109791D01*
X204713D01*
X204360Y110144D01*
Y110545D01*
X204460Y111003D01*
X204460Y111102D01*
Y112434D01*
D02*
G37*
G36*
X193202Y110702D02*
X189568D01*
Y108721D01*
X193202D01*
Y110702D01*
D02*
G37*
G36*
X178832Y110702D02*
Y110702D01*
X175198D01*
Y108721D01*
X178551D01*
Y108143D01*
X175198D01*
Y107989D01*
X174698Y107917D01*
X174305Y108310D01*
X174073Y108465D01*
X173800Y108519D01*
X172860D01*
Y109265D01*
X169540D01*
Y108398D01*
X168891D01*
X168889Y108410D01*
X168657Y108757D01*
X168310Y108989D01*
X167900Y109071D01*
X167490Y108989D01*
X167143Y108757D01*
X166911Y108410D01*
X166829Y108000D01*
X166911Y107590D01*
X167143Y107243D01*
X167490Y107011D01*
X167900Y106929D01*
X168161Y106981D01*
X168216Y106971D01*
X169540D01*
Y106103D01*
X169540Y106103D01*
X169440Y105743D01*
X169440Y105743D01*
X169440Y105642D01*
Y104312D01*
X171200D01*
Y104062D01*
X171450D01*
Y102381D01*
X172960D01*
Y102882D01*
X173500D01*
X173851Y102952D01*
X174149Y103151D01*
X174598Y103600D01*
X175098Y103503D01*
X175196Y103044D01*
X175198Y103025D01*
X175198D01*
Y101044D01*
X178671D01*
X178775Y100888D01*
X179215Y100449D01*
X179371Y100344D01*
Y96871D01*
X181352D01*
Y100225D01*
X181930D01*
Y96871D01*
X182003D01*
Y92779D01*
X182073Y92428D01*
X182272Y92131D01*
X192178Y82224D01*
X192476Y82025D01*
X192827Y81956D01*
X195273D01*
Y80898D01*
X199222D01*
X199222Y84362D01*
Y84469D01*
X199252Y84681D01*
X199323Y84858D01*
X199672Y84885D01*
X199867Y84861D01*
X201178Y83550D01*
Y80898D01*
X205128D01*
Y84848D01*
X202476D01*
X201425Y85898D01*
X201632Y86398D01*
X205128D01*
Y87397D01*
X210006D01*
X210117Y86942D01*
X210117Y86627D01*
Y84568D01*
X216232D01*
Y84838D01*
X216655D01*
X217006Y84907D01*
X217304Y85106D01*
X218549Y86351D01*
X218748Y86649D01*
X218818Y87000D01*
Y103500D01*
X218748Y103851D01*
X218549Y104149D01*
X214053Y108645D01*
Y110454D01*
X211087D01*
Y107292D01*
X212810D01*
X216982Y103120D01*
Y87532D01*
X216732Y87339D01*
X216523Y87382D01*
X216232Y87566D01*
Y89186D01*
X216232Y89502D01*
X216232Y90002D01*
Y91745D01*
X216232Y92061D01*
X216232Y92561D01*
Y94245D01*
X216332Y94704D01*
X216332Y95078D01*
Y95741D01*
X213174D01*
Y95991D01*
X212924D01*
Y97279D01*
X210017D01*
Y96909D01*
X209142D01*
X209129Y96929D01*
X208699Y97216D01*
X208441Y97267D01*
Y95991D01*
Y94716D01*
X208699Y94767D01*
X209129Y95054D01*
X209602Y95022D01*
X210017Y94704D01*
X210117Y94245D01*
Y92561D01*
X210117Y92245D01*
X210006Y91791D01*
X206907D01*
X205749Y92949D01*
X205451Y93148D01*
X205100Y93218D01*
X201600D01*
X201249Y93148D01*
X200951Y92949D01*
X199551Y91549D01*
X199352Y91251D01*
X199282Y90900D01*
Y90823D01*
X199222Y90348D01*
X198782Y90348D01*
X195273D01*
Y89291D01*
X194007D01*
X186993Y96305D01*
X186988Y96431D01*
X187389Y96871D01*
X187512Y96871D01*
X189029D01*
Y97771D01*
X193232D01*
X194778Y96224D01*
X195076Y96026D01*
X195427Y95956D01*
X196808D01*
Y95213D01*
X199871D01*
X200330Y95113D01*
X200429Y95113D01*
X201761D01*
Y96873D01*
X202011D01*
Y97123D01*
X203692D01*
Y98633D01*
X202929D01*
Y99539D01*
X202948Y99552D01*
X203236Y99982D01*
X203287Y100239D01*
X200735D01*
X200786Y99982D01*
X201074Y99552D01*
X201093Y99539D01*
Y98633D01*
X200429D01*
X200330Y98633D01*
X199871Y98533D01*
X196808D01*
Y97791D01*
X195807D01*
X194261Y99337D01*
X193963Y99536D01*
X193612Y99606D01*
X192406D01*
Y101044D01*
X193202D01*
Y103025D01*
X189568D01*
Y101044D01*
X190571D01*
Y99606D01*
X189029D01*
Y100505D01*
X188855D01*
Y100700D01*
X188846Y100744D01*
X188834Y101239D01*
X188834Y101239D01*
X188834Y101239D01*
Y105623D01*
X184200D01*
Y105873D01*
X183950D01*
Y110507D01*
X179566D01*
X179566Y110507D01*
X179332Y110492D01*
X178832Y110702D01*
D02*
G37*
G36*
X3885Y108890D02*
X2859D01*
X2910Y108633D01*
X3197Y108203D01*
X3627Y107916D01*
X3885Y107864D01*
Y108890D01*
D02*
G37*
G36*
X193202Y108143D02*
X189568D01*
Y106162D01*
X193202D01*
Y108143D01*
D02*
G37*
G36*
X68476Y103750D02*
X67450D01*
Y102724D01*
X67707Y102775D01*
X68137Y103063D01*
X68425Y103493D01*
X68476Y103750D01*
D02*
G37*
G36*
X66950D02*
X65924D01*
X65975Y103493D01*
X66263Y103063D01*
X66693Y102775D01*
X66950Y102724D01*
Y103750D01*
D02*
G37*
G36*
X18130Y104545D02*
X15870D01*
Y103665D01*
X16082D01*
Y103150D01*
X16063Y103137D01*
X15775Y102707D01*
X15724Y102450D01*
X18276D01*
X18225Y102707D01*
X17937Y103137D01*
X17918Y103150D01*
Y103665D01*
X18130D01*
Y104545D01*
D02*
G37*
G36*
X10730Y104445D02*
X8470D01*
Y103565D01*
X8470D01*
X8599Y103119D01*
X8615Y103065D01*
X8375Y102707D01*
X8324Y102450D01*
X10876D01*
X10825Y102707D01*
X10585Y103065D01*
X10598Y103110D01*
X10730Y103565D01*
X10730Y103565D01*
X10730Y103565D01*
Y104445D01*
D02*
G37*
G36*
X170950Y103812D02*
X169440D01*
Y102381D01*
X170950D01*
Y103812D01*
D02*
G37*
G36*
X18276Y101950D02*
X17250D01*
Y100924D01*
X17507Y100975D01*
X17937Y101263D01*
X18225Y101693D01*
X18276Y101950D01*
D02*
G37*
G36*
X16750D02*
X15724D01*
X15775Y101693D01*
X16063Y101263D01*
X16493Y100975D01*
X16750Y100924D01*
Y101950D01*
D02*
G37*
G36*
X10876D02*
X9850D01*
Y100924D01*
X10107Y100975D01*
X10537Y101263D01*
X10825Y101693D01*
X10876Y101950D01*
D02*
G37*
G36*
X9350D02*
X8324D01*
X8375Y101693D01*
X8663Y101263D01*
X9093Y100975D01*
X9350Y100924D01*
Y101950D01*
D02*
G37*
G36*
X202261Y101765D02*
Y100739D01*
X203287D01*
X203236Y100996D01*
X202948Y101426D01*
X202518Y101714D01*
X202261Y101765D01*
D02*
G37*
G36*
X201761D02*
X201504Y101714D01*
X201074Y101426D01*
X200786Y100996D01*
X200735Y100739D01*
X201761D01*
Y101765D01*
D02*
G37*
G36*
X1850Y101576D02*
Y100550D01*
X2876D01*
X2825Y100807D01*
X2537Y101237D01*
X2107Y101525D01*
X1850Y101576D01*
D02*
G37*
G36*
X2876Y100050D02*
X1850D01*
Y99024D01*
X2107Y99075D01*
X2537Y99363D01*
X2825Y99793D01*
X2876Y100050D01*
D02*
G37*
G36*
X213078Y103601D02*
X212094D01*
X211347Y103503D01*
X210651Y103215D01*
X210053Y102756D01*
X209595Y102158D01*
X209307Y101462D01*
X209208Y100716D01*
X209307Y99969D01*
X209595Y99273D01*
X210053Y98676D01*
X210651Y98217D01*
X211347Y97929D01*
X212094Y97830D01*
X213078D01*
X213825Y97929D01*
X214521Y98217D01*
X215118Y98676D01*
X215577Y99273D01*
X215865Y99969D01*
X215963Y100716D01*
X215865Y101462D01*
X215577Y102158D01*
X215118Y102756D01*
X214521Y103215D01*
X213825Y103503D01*
X213078Y103601D01*
D02*
G37*
G36*
X73130Y97448D02*
X72250D01*
Y96568D01*
X73130D01*
Y97448D01*
D02*
G37*
G36*
X71750D02*
X70870D01*
Y96568D01*
X71750D01*
Y97448D01*
D02*
G37*
G36*
X216332Y97279D02*
X213424D01*
Y96241D01*
X216332D01*
Y97279D01*
D02*
G37*
G36*
X207941Y97267D02*
X207684Y97216D01*
X207254Y96929D01*
X206967Y96499D01*
X206916Y96241D01*
X207941D01*
Y97267D01*
D02*
G37*
G36*
X1850Y96576D02*
Y95550D01*
X2876D01*
X2825Y95807D01*
X2537Y96237D01*
X2107Y96525D01*
X1850Y96576D01*
D02*
G37*
G36*
X203692Y96623D02*
X202261D01*
Y95113D01*
X203692D01*
Y96623D01*
D02*
G37*
G36*
X207941Y95741D02*
X206916D01*
X206967Y95484D01*
X207254Y95054D01*
X207684Y94767D01*
X207941Y94716D01*
Y95741D01*
D02*
G37*
G36*
X2876Y95050D02*
X1850D01*
Y94024D01*
X2107Y94075D01*
X2537Y94363D01*
X2825Y94793D01*
X2876Y95050D01*
D02*
G37*
G36*
X1850Y91576D02*
Y90550D01*
X2876D01*
X2825Y90807D01*
X2537Y91237D01*
X2107Y91525D01*
X1850Y91576D01*
D02*
G37*
G36*
X2876Y90050D02*
X1850D01*
Y89024D01*
X2107Y89075D01*
X2537Y89363D01*
X2825Y89793D01*
X2876Y90050D01*
D02*
G37*
G36*
X158050Y88978D02*
Y87850D01*
X159178D01*
X159119Y88146D01*
X158809Y88609D01*
X158346Y88919D01*
X158050Y88978D01*
D02*
G37*
G36*
X157550D02*
X157254Y88919D01*
X156791Y88609D01*
X156481Y88146D01*
X156422Y87850D01*
X157550D01*
Y88978D01*
D02*
G37*
G36*
Y87350D02*
X156422D01*
X156481Y87054D01*
X156791Y86591D01*
X157254Y86281D01*
X157550Y86222D01*
Y87350D01*
D02*
G37*
G36*
X84117Y87648D02*
X82391D01*
Y86119D01*
X84117D01*
Y87648D01*
D02*
G37*
G36*
X1850Y86676D02*
Y85650D01*
X2876D01*
X2825Y85907D01*
X2537Y86337D01*
X2107Y86625D01*
X1850Y86676D01*
D02*
G37*
G36*
X2876Y85150D02*
X1850D01*
Y84124D01*
X2107Y84175D01*
X2537Y84463D01*
X2825Y84893D01*
X2876Y85150D01*
D02*
G37*
G36*
X128600Y84825D02*
X128093Y84725D01*
X127663Y84437D01*
X127375Y84007D01*
X127275Y83500D01*
X127375Y82993D01*
X127663Y82563D01*
X128093Y82275D01*
X128600Y82174D01*
X129107Y82275D01*
X129537Y82563D01*
X129825Y82993D01*
X129926Y83500D01*
X129825Y84007D01*
X129537Y84437D01*
X129107Y84725D01*
X128600Y84825D01*
D02*
G37*
G36*
X1850Y82976D02*
Y81950D01*
X2876D01*
X2825Y82207D01*
X2537Y82637D01*
X2107Y82925D01*
X1850Y82976D01*
D02*
G37*
G36*
X93030Y81848D02*
X92150D01*
Y80968D01*
X93030D01*
Y81848D01*
D02*
G37*
G36*
X2876Y81450D02*
X1850D01*
Y80424D01*
X2107Y80475D01*
X2537Y80763D01*
X2825Y81193D01*
X2876Y81450D01*
D02*
G37*
G36*
X87009Y81682D02*
X85283D01*
Y80152D01*
X87009D01*
Y81682D01*
D02*
G37*
G36*
X90874Y79250D02*
X89950D01*
Y78326D01*
X90168Y78370D01*
X90565Y78635D01*
X90830Y79032D01*
X90874Y79250D01*
D02*
G37*
G36*
X89450D02*
X88526D01*
X88570Y79032D01*
X88835Y78635D01*
X89232Y78370D01*
X89450Y78326D01*
Y79250D01*
D02*
G37*
G36*
X213275Y83916D02*
X212291D01*
X211544Y83818D01*
X210848Y83530D01*
X210250Y83071D01*
X209792Y82473D01*
X209504Y81778D01*
X209405Y81031D01*
X209504Y80284D01*
X209792Y79588D01*
X210250Y78991D01*
X210848Y78532D01*
X211544Y78244D01*
X212291Y78145D01*
X213275D01*
X214022Y78244D01*
X214718Y78532D01*
X215315Y78991D01*
X215774Y79588D01*
X216062Y80284D01*
X216160Y81031D01*
X216062Y81778D01*
X215774Y82473D01*
X215315Y83071D01*
X214718Y83530D01*
X214022Y83818D01*
X213275Y83916D01*
D02*
G37*
G36*
X1850Y78076D02*
Y77050D01*
X2876D01*
X2825Y77307D01*
X2537Y77737D01*
X2107Y78025D01*
X1850Y78076D01*
D02*
G37*
G36*
X171927Y76599D02*
Y75573D01*
X172953D01*
X172902Y75830D01*
X172614Y76260D01*
X172184Y76547D01*
X171927Y76599D01*
D02*
G37*
G36*
X2876Y76550D02*
X1850D01*
Y75524D01*
X2107Y75575D01*
X2537Y75863D01*
X2825Y76293D01*
X2876Y76550D01*
D02*
G37*
G36*
X172953Y75073D02*
X171927D01*
Y74047D01*
X172184Y74098D01*
X172614Y74386D01*
X172902Y74816D01*
X172953Y75073D01*
D02*
G37*
G36*
X147650Y73592D02*
X146711D01*
Y72751D01*
X147650D01*
Y73592D01*
D02*
G37*
G36*
X1850Y73076D02*
Y72050D01*
X2876D01*
X2825Y72307D01*
X2537Y72737D01*
X2107Y73025D01*
X1850Y73076D01*
D02*
G37*
G36*
X2876Y71550D02*
X1850D01*
Y70524D01*
X2107Y70575D01*
X2537Y70863D01*
X2825Y71293D01*
X2876Y71550D01*
D02*
G37*
G36*
X185728Y73498D02*
X181778D01*
Y69548D01*
X182594D01*
X182764Y69048D01*
X182717Y68976D01*
X182631Y68547D01*
X182717Y68118D01*
X182960Y67754D01*
X183324Y67511D01*
X183753Y67426D01*
X184182Y67511D01*
X184546Y67754D01*
X184789Y68118D01*
X184874Y68547D01*
X184789Y68976D01*
X184741Y69048D01*
X184912Y69548D01*
X185728D01*
Y70616D01*
X186787D01*
X187140Y70263D01*
Y70051D01*
X187040Y69593D01*
X187040Y69494D01*
Y68162D01*
X190560D01*
Y69494D01*
X190560Y69593D01*
X190460Y70051D01*
Y70529D01*
X190813Y70882D01*
X193450D01*
X193463Y70863D01*
X193893Y70575D01*
X194400Y70474D01*
X194907Y70575D01*
X195337Y70863D01*
X195625Y71293D01*
X195726Y71800D01*
X195625Y72307D01*
X195337Y72737D01*
X194907Y73025D01*
X194400Y73125D01*
X193893Y73025D01*
X193463Y72737D01*
X193450Y72718D01*
X190460D01*
Y73115D01*
X187140D01*
Y72451D01*
X185728D01*
Y73498D01*
D02*
G37*
G36*
X172738Y69087D02*
Y68062D01*
X173764D01*
X173713Y68319D01*
X173425Y68749D01*
X172995Y69036D01*
X172738Y69087D01*
D02*
G37*
G36*
X1850Y68076D02*
Y67050D01*
X2876D01*
X2825Y67307D01*
X2537Y67737D01*
X2107Y68025D01*
X1850Y68076D01*
D02*
G37*
G36*
X173764Y67562D02*
X172738D01*
Y66536D01*
X172995Y66587D01*
X173425Y66874D01*
X173713Y67304D01*
X173764Y67562D01*
D02*
G37*
G36*
X2876Y66550D02*
X1850D01*
Y65524D01*
X2107Y65575D01*
X2537Y65863D01*
X2825Y66293D01*
X2876Y66550D01*
D02*
G37*
G36*
X190560Y67662D02*
X187040D01*
Y66231D01*
X187570D01*
X187663Y66106D01*
X187792Y65731D01*
X187575Y65407D01*
X187524Y65150D01*
X190076D01*
X190025Y65407D01*
X189808Y65731D01*
X189937Y66106D01*
X190030Y66231D01*
X190560D01*
Y67662D01*
D02*
G37*
G36*
X226750Y65476D02*
X226493Y65425D01*
X226063Y65137D01*
X225775Y64707D01*
X225724Y64450D01*
X226750D01*
Y65476D01*
D02*
G37*
G36*
X190076Y64650D02*
X189050D01*
Y63624D01*
X189307Y63675D01*
X189737Y63963D01*
X190025Y64393D01*
X190076Y64650D01*
D02*
G37*
G36*
X188550D02*
X187524D01*
X187575Y64393D01*
X187863Y63963D01*
X188293Y63675D01*
X188550Y63624D01*
Y64650D01*
D02*
G37*
G36*
X1950Y64176D02*
Y63150D01*
X2976D01*
X2925Y63407D01*
X2637Y63837D01*
X2207Y64125D01*
X1950Y64176D01*
D02*
G37*
G36*
X226750Y63950D02*
X225724D01*
X225775Y63693D01*
X226063Y63263D01*
X226493Y62975D01*
X226750Y62924D01*
Y63950D01*
D02*
G37*
G36*
X2976Y62650D02*
X1950D01*
Y61624D01*
X2207Y61675D01*
X2637Y61963D01*
X2925Y62393D01*
X2976Y62650D01*
D02*
G37*
G36*
X198172Y61414D02*
X197672Y61414D01*
X195928D01*
X195613Y61414D01*
X195113Y61414D01*
X193053D01*
Y58016D01*
X193527D01*
Y57359D01*
X193582Y57086D01*
X193736Y56854D01*
X195395Y55195D01*
X195627Y55041D01*
X195900Y54986D01*
X197822D01*
X198178Y54631D01*
X198174Y54348D01*
X197971Y54131D01*
X197672Y54131D01*
X195987D01*
X195528Y54231D01*
X195528Y54231D01*
X195528Y54231D01*
X194491D01*
Y52431D01*
X194241D01*
Y52182D01*
X192954D01*
Y50887D01*
X190593Y48526D01*
X189611D01*
Y48353D01*
X188435D01*
X188084Y48283D01*
X187787Y48084D01*
X187123Y47421D01*
X187100Y47425D01*
X186593Y47325D01*
X186163Y47037D01*
X185875Y46607D01*
X185824Y46350D01*
X187100D01*
Y46100D01*
X187350D01*
Y44824D01*
X187607Y44875D01*
X188037Y45163D01*
X188325Y45593D01*
X188426Y46100D01*
X188421Y46123D01*
X188815Y46518D01*
X189183D01*
X189611Y46345D01*
X189711Y46064D01*
X189711D01*
X189711Y46064D01*
Y44083D01*
X191889D01*
Y44328D01*
X193549D01*
X193924Y44024D01*
X193924Y43590D01*
Y42122D01*
X194009D01*
X194161Y41622D01*
X194051Y41549D01*
X193852Y41251D01*
X193782Y40900D01*
X193852Y40549D01*
X194051Y40251D01*
X194349Y40052D01*
X194700Y39982D01*
X195051Y40052D01*
X195128Y40104D01*
X195628Y39838D01*
Y37984D01*
X197491D01*
X197609Y37984D01*
X197991D01*
X198109Y37984D01*
X199972D01*
Y40074D01*
X200943Y41045D01*
X201131Y41047D01*
X201505Y40970D01*
X201651Y40751D01*
X201949Y40552D01*
X202300Y40482D01*
X202651Y40552D01*
X202949Y40751D01*
X203148Y41049D01*
X203218Y41400D01*
Y41478D01*
X203680Y41669D01*
X205198Y40151D01*
X205495Y39952D01*
X205847Y39882D01*
X208457D01*
X208808Y39952D01*
X209106Y40151D01*
X210498Y41543D01*
X210932D01*
Y41656D01*
X214235D01*
Y41114D01*
X219365D01*
Y43764D01*
X219365Y43883D01*
Y44264D01*
X219365Y44383D01*
Y47032D01*
X214235D01*
Y46566D01*
X210972D01*
Y46662D01*
X210918D01*
Y48193D01*
X211036Y48371D01*
X211122Y48800D01*
X211036Y49229D01*
X210793Y49593D01*
X210429Y49836D01*
X210000Y49922D01*
X209571Y49836D01*
X209207Y49593D01*
X208964Y49229D01*
X208878Y48800D01*
X208964Y48371D01*
X209082Y48193D01*
Y46728D01*
X208610Y46662D01*
X208490Y46662D01*
X206628D01*
Y46501D01*
X206200D01*
X205849Y46431D01*
X205551Y46232D01*
X205278Y45959D01*
X202662D01*
X202204Y46059D01*
X202204Y46493D01*
Y47877D01*
X202769Y48443D01*
X203211Y48583D01*
Y48583D01*
X205389D01*
Y50386D01*
X205489Y50845D01*
X205489Y51022D01*
Y51685D01*
X203111D01*
Y51022D01*
X203111Y50845D01*
X203124Y50787D01*
X203028Y50581D01*
X202738Y50257D01*
X202617Y50233D01*
X202386Y50078D01*
X200269Y47961D01*
X198570D01*
X198451Y47961D01*
X198070D01*
X197951Y47961D01*
X195324D01*
X195133Y48423D01*
X197305Y50595D01*
X197396Y50732D01*
X197987Y50732D01*
X198487Y50732D01*
X200547D01*
Y54131D01*
X200073D01*
Y54459D01*
X200018Y54732D01*
X199864Y54964D01*
X198623Y56205D01*
X198391Y56359D01*
X198118Y56414D01*
X197779D01*
X197772Y56420D01*
X197557Y56914D01*
X197648Y57049D01*
X197718Y57400D01*
X197695Y57516D01*
X197987Y58016D01*
X198487Y58016D01*
X199760D01*
X200525Y57251D01*
X200823Y57052D01*
X201174Y56982D01*
X201300D01*
X201651Y57052D01*
X201949Y57251D01*
X202148Y57549D01*
X202218Y57900D01*
X202148Y58251D01*
X201949Y58549D01*
X201651Y58748D01*
X201617Y58754D01*
X200547Y59825D01*
Y61414D01*
X198172Y61414D01*
D02*
G37*
G36*
X226750Y61076D02*
X226493Y61025D01*
X226063Y60737D01*
X225775Y60307D01*
X225724Y60050D01*
X226750D01*
Y61076D01*
D02*
G37*
G36*
X1950Y60476D02*
Y59450D01*
X2976D01*
X2925Y59707D01*
X2637Y60137D01*
X2207Y60425D01*
X1950Y60476D01*
D02*
G37*
G36*
X226750Y59550D02*
X225724D01*
X225775Y59293D01*
X226063Y58863D01*
X226493Y58575D01*
X226750Y58524D01*
Y59550D01*
D02*
G37*
G36*
X2976Y58950D02*
X1950D01*
Y57924D01*
X2207Y57975D01*
X2637Y58263D01*
X2925Y58693D01*
X2976Y58950D01*
D02*
G37*
G36*
X226750Y57176D02*
X226493Y57125D01*
X226063Y56837D01*
X225775Y56407D01*
X225724Y56150D01*
X226750D01*
Y57176D01*
D02*
G37*
G36*
X1950Y56776D02*
Y55750D01*
X2976D01*
X2925Y56007D01*
X2637Y56437D01*
X2207Y56725D01*
X1950Y56776D01*
D02*
G37*
G36*
X226750Y55650D02*
X225724D01*
X225775Y55393D01*
X226063Y54963D01*
X226493Y54675D01*
X226750Y54624D01*
Y55650D01*
D02*
G37*
G36*
X2976Y55250D02*
X1950D01*
Y54224D01*
X2207Y54275D01*
X2637Y54563D01*
X2925Y54993D01*
X2976Y55250D01*
D02*
G37*
G36*
X193991Y54231D02*
X192954D01*
Y52681D01*
X193991D01*
Y54231D01*
D02*
G37*
G36*
X205489Y53026D02*
X204550D01*
Y52185D01*
X205489D01*
Y53026D01*
D02*
G37*
G36*
X204050D02*
X203111D01*
Y52185D01*
X204050D01*
Y53026D01*
D02*
G37*
G36*
X1950Y53076D02*
Y52050D01*
X2976D01*
X2925Y52307D01*
X2637Y52737D01*
X2207Y53025D01*
X1950Y53076D01*
D02*
G37*
G36*
X2976Y51550D02*
X1950D01*
Y50524D01*
X2207Y50575D01*
X2637Y50863D01*
X2925Y51293D01*
X2976Y51550D01*
D02*
G37*
G36*
X182000Y51022D02*
X181571Y50936D01*
X181207Y50693D01*
X180964Y50329D01*
X180878Y49900D01*
X180964Y49471D01*
X181207Y49107D01*
X181571Y48864D01*
X182000Y48778D01*
X182429Y48864D01*
X182793Y49107D01*
X183036Y49471D01*
X183122Y49900D01*
X183036Y50329D01*
X182793Y50693D01*
X182429Y50936D01*
X182000Y51022D01*
D02*
G37*
G36*
X1950Y49376D02*
Y48350D01*
X2976D01*
X2925Y48607D01*
X2637Y49037D01*
X2207Y49325D01*
X1950Y49376D01*
D02*
G37*
G36*
X226058Y53528D02*
X218565D01*
Y48004D01*
X226058D01*
Y53528D01*
D02*
G37*
G36*
X2976Y47850D02*
X1950D01*
Y46824D01*
X2207Y46875D01*
X2637Y47163D01*
X2925Y47593D01*
X2976Y47850D01*
D02*
G37*
G36*
X186850Y45850D02*
X185824D01*
X185875Y45593D01*
X186163Y45163D01*
X186593Y44875D01*
X186850Y44824D01*
Y45850D01*
D02*
G37*
G36*
X1950Y45676D02*
Y44650D01*
X2976D01*
X2925Y44907D01*
X2637Y45337D01*
X2207Y45625D01*
X1950Y45676D01*
D02*
G37*
G36*
X2976Y44150D02*
X1950D01*
Y43124D01*
X2207Y43175D01*
X2637Y43463D01*
X2925Y43893D01*
X2976Y44150D01*
D02*
G37*
G36*
X1950Y41976D02*
Y40950D01*
X2976D01*
X2925Y41207D01*
X2637Y41637D01*
X2207Y41925D01*
X1950Y41976D01*
D02*
G37*
G36*
X2976Y40450D02*
X1950D01*
Y39424D01*
X2207Y39475D01*
X2637Y39763D01*
X2925Y40193D01*
X2976Y40450D01*
D02*
G37*
G36*
X1950Y38276D02*
Y37250D01*
X2976D01*
X2925Y37507D01*
X2637Y37937D01*
X2207Y38225D01*
X1950Y38276D01*
D02*
G37*
G36*
X2976Y36750D02*
X1950D01*
Y35724D01*
X2207Y35775D01*
X2637Y36063D01*
X2925Y36493D01*
X2976Y36750D01*
D02*
G37*
G36*
X226058Y40143D02*
X218565D01*
Y34618D01*
X226058D01*
Y40143D01*
D02*
G37*
G36*
X95300Y39050D02*
X89500D01*
Y23250D01*
X95300D01*
Y32752D01*
X96630Y34082D01*
X97793D01*
X97971Y33964D01*
X98400Y33878D01*
X98829Y33964D01*
X99193Y34207D01*
X99436Y34571D01*
X99522Y35000D01*
X99436Y35429D01*
X99193Y35793D01*
X98829Y36036D01*
X98400Y36122D01*
X97971Y36036D01*
X97793Y35918D01*
X96250D01*
X95899Y35848D01*
X95800Y35782D01*
X95300Y36030D01*
Y39050D01*
D02*
G37*
G36*
X1950Y34576D02*
Y33550D01*
X2976D01*
X2925Y33807D01*
X2637Y34237D01*
X2207Y34525D01*
X1950Y34576D01*
D02*
G37*
G36*
X226750Y34076D02*
X226493Y34025D01*
X226063Y33737D01*
X225775Y33307D01*
X225724Y33050D01*
X226750D01*
Y34076D01*
D02*
G37*
G36*
X177050Y33976D02*
Y32950D01*
X178076D01*
X178025Y33207D01*
X177737Y33637D01*
X177307Y33925D01*
X177050Y33976D01*
D02*
G37*
G36*
X201037Y33463D02*
Y32437D01*
X202063D01*
X202012Y32695D01*
X201725Y33125D01*
X201295Y33412D01*
X201037Y33463D01*
D02*
G37*
G36*
X200537D02*
X200280Y33412D01*
X199850Y33125D01*
X199563Y32695D01*
X199512Y32437D01*
X200537D01*
Y33463D01*
D02*
G37*
G36*
X2976Y33050D02*
X1950D01*
Y32024D01*
X2207Y32075D01*
X2637Y32363D01*
X2925Y32793D01*
X2976Y33050D01*
D02*
G37*
G36*
X55300Y39050D02*
X49500D01*
Y31914D01*
X48766D01*
X48665Y32065D01*
X48268Y32330D01*
X47800Y32423D01*
X47332Y32330D01*
X46935Y32065D01*
X46670Y31668D01*
X46576Y31200D01*
X46670Y30732D01*
X46935Y30335D01*
X47332Y30070D01*
X47800Y29976D01*
X48268Y30070D01*
X48665Y30335D01*
X48766Y30486D01*
X49500D01*
Y23250D01*
X55300D01*
Y39050D01*
D02*
G37*
G36*
X226750Y32550D02*
X225724D01*
X225775Y32293D01*
X226063Y31863D01*
X226493Y31575D01*
X226750Y31524D01*
Y32550D01*
D02*
G37*
G36*
X1950Y30876D02*
Y29850D01*
X2976D01*
X2925Y30107D01*
X2637Y30537D01*
X2207Y30825D01*
X1950Y30876D01*
D02*
G37*
G36*
X2976Y29350D02*
X1950D01*
Y28324D01*
X2207Y28375D01*
X2637Y28663D01*
X2925Y29093D01*
X2976Y29350D01*
D02*
G37*
G36*
X226750Y28376D02*
X226493Y28325D01*
X226063Y28037D01*
X225775Y27607D01*
X225724Y27350D01*
X226750D01*
Y28376D01*
D02*
G37*
G36*
X202063Y31937D02*
X199512D01*
X199563Y31680D01*
X199850Y31250D01*
X199870Y31237D01*
Y29730D01*
X194874D01*
Y26724D01*
X200787D01*
X206701D01*
Y29730D01*
X201705D01*
Y31237D01*
X201725Y31250D01*
X202012Y31680D01*
X202063Y31937D01*
D02*
G37*
G36*
X1950Y27176D02*
Y26150D01*
X2976D01*
X2925Y26407D01*
X2637Y26837D01*
X2207Y27125D01*
X1950Y27176D01*
D02*
G37*
G36*
X226750Y26850D02*
X225724D01*
X225775Y26593D01*
X226063Y26163D01*
X226493Y25875D01*
X226750Y25824D01*
Y26850D01*
D02*
G37*
G36*
X2976Y25650D02*
X1950D01*
Y24624D01*
X2207Y24675D01*
X2637Y24963D01*
X2925Y25393D01*
X2976Y25650D01*
D02*
G37*
G36*
X62400Y43624D02*
X61932Y43530D01*
X61535Y43265D01*
X61270Y42868D01*
X61177Y42400D01*
X61270Y41932D01*
X61535Y41535D01*
X61686Y41434D01*
Y39050D01*
X59500D01*
Y23250D01*
X65300D01*
Y39050D01*
X63114D01*
Y41434D01*
X63265Y41535D01*
X63530Y41932D01*
X63623Y42400D01*
X63530Y42868D01*
X63265Y43265D01*
X62868Y43530D01*
X62400Y43624D01*
D02*
G37*
G36*
X206701Y26224D02*
X201037D01*
Y23218D01*
X206701D01*
Y26224D01*
D02*
G37*
G36*
X200537D02*
X194874D01*
Y23218D01*
X200537D01*
Y26224D01*
D02*
G37*
G36*
X180126D02*
X174463D01*
Y23218D01*
X180126D01*
Y26224D01*
D02*
G37*
G36*
X226750Y23976D02*
X226493Y23925D01*
X226063Y23637D01*
X225775Y23207D01*
X225724Y22950D01*
X226750D01*
Y23976D01*
D02*
G37*
G36*
X1950Y23476D02*
Y22450D01*
X2976D01*
X2925Y22707D01*
X2637Y23137D01*
X2207Y23425D01*
X1950Y23476D01*
D02*
G37*
G36*
X226750Y22450D02*
X225724D01*
X225775Y22193D01*
X226063Y21763D01*
X226493Y21475D01*
X226750Y21424D01*
Y22450D01*
D02*
G37*
G36*
X2976Y21950D02*
X1950D01*
Y20924D01*
X2207Y20975D01*
X2637Y21263D01*
X2925Y21693D01*
X2976Y21950D01*
D02*
G37*
G36*
X226750Y20176D02*
X226493Y20125D01*
X226063Y19837D01*
X225775Y19407D01*
X225724Y19150D01*
X226750D01*
Y20176D01*
D02*
G37*
G36*
X1950Y19776D02*
Y18750D01*
X2976D01*
X2925Y19007D01*
X2637Y19437D01*
X2207Y19725D01*
X1950Y19776D01*
D02*
G37*
G36*
X226750Y18650D02*
X225724D01*
X225775Y18393D01*
X226063Y17963D01*
X226493Y17675D01*
X226750Y17624D01*
Y18650D01*
D02*
G37*
G36*
X2976Y18250D02*
X1950D01*
Y17224D01*
X2207Y17275D01*
X2637Y17563D01*
X2925Y17993D01*
X2976Y18250D01*
D02*
G37*
G36*
X226750Y16976D02*
X226493Y16925D01*
X226063Y16637D01*
X225775Y16207D01*
X225724Y15950D01*
X226750D01*
Y16976D01*
D02*
G37*
G36*
X1950Y16076D02*
Y15050D01*
X2976D01*
X2925Y15307D01*
X2637Y15737D01*
X2207Y16025D01*
X1950Y16076D01*
D02*
G37*
G36*
X75300Y21550D02*
X69500D01*
Y15063D01*
X69038Y14871D01*
X68025Y15885D01*
X68063Y16434D01*
X68065Y16435D01*
X68330Y16832D01*
X68423Y17300D01*
X68330Y17768D01*
X68065Y18165D01*
X67668Y18430D01*
X67200Y18523D01*
X66732Y18430D01*
X66335Y18165D01*
X66070Y17768D01*
X65977Y17300D01*
X66070Y16832D01*
X66335Y16435D01*
X66486Y16334D01*
Y15700D01*
X66541Y15427D01*
X66695Y15195D01*
X68745Y13145D01*
X68977Y12991D01*
X69250Y12936D01*
X69500D01*
Y5750D01*
X75300D01*
Y21550D01*
D02*
G37*
G36*
X226750Y15450D02*
X225724D01*
X225775Y15193D01*
X226063Y14763D01*
X226493Y14475D01*
X226750Y14424D01*
Y15450D01*
D02*
G37*
G36*
X65300Y21550D02*
X59500D01*
Y14414D01*
X57266D01*
X57165Y14565D01*
X56768Y14830D01*
X56300Y14923D01*
X55832Y14830D01*
X55800Y14809D01*
X55300Y15076D01*
Y21550D01*
X49500D01*
Y14814D01*
X46366D01*
X46265Y14965D01*
X45868Y15230D01*
X45400Y15324D01*
X44932Y15230D01*
X44535Y14965D01*
X44270Y14568D01*
X44177Y14100D01*
X44270Y13632D01*
X44535Y13235D01*
X44932Y12970D01*
X45400Y12877D01*
X45868Y12970D01*
X46265Y13235D01*
X46366Y13386D01*
X49500D01*
Y5750D01*
X55300D01*
Y12324D01*
X55800Y12591D01*
X55832Y12570D01*
X56300Y12477D01*
X56768Y12570D01*
X57165Y12835D01*
X57266Y12986D01*
X59500D01*
Y5750D01*
X65300D01*
Y21550D01*
D02*
G37*
G36*
X95400Y21650D02*
X92650D01*
Y13900D01*
X95400D01*
Y21650D01*
D02*
G37*
G36*
X92150D02*
X89400D01*
Y13900D01*
X92150D01*
Y21650D01*
D02*
G37*
G36*
X2976Y14550D02*
X1950D01*
Y13524D01*
X2207Y13575D01*
X2637Y13863D01*
X2925Y14293D01*
X2976Y14550D01*
D02*
G37*
G36*
X226750Y13176D02*
X226493Y13125D01*
X226063Y12837D01*
X225775Y12407D01*
X225724Y12150D01*
X226750D01*
Y13176D01*
D02*
G37*
G36*
X1950Y12376D02*
Y11350D01*
X2976D01*
X2925Y11607D01*
X2637Y12037D01*
X2207Y12325D01*
X1950Y12376D01*
D02*
G37*
G36*
X226750Y11650D02*
X225724D01*
X225775Y11393D01*
X226063Y10963D01*
X226493Y10675D01*
X226750Y10624D01*
Y11650D01*
D02*
G37*
G36*
X2976Y10850D02*
X1950D01*
Y9824D01*
X2207Y9875D01*
X2637Y10163D01*
X2925Y10593D01*
X2976Y10850D01*
D02*
G37*
G36*
X226750Y9376D02*
X226493Y9325D01*
X226063Y9037D01*
X225775Y8607D01*
X225724Y8350D01*
X226750D01*
Y9376D01*
D02*
G37*
G36*
X1950Y8676D02*
Y7650D01*
X2976D01*
X2925Y7907D01*
X2637Y8337D01*
X2207Y8625D01*
X1950Y8676D01*
D02*
G37*
G36*
X99776Y8650D02*
X98750D01*
Y7624D01*
X99007Y7675D01*
X99437Y7963D01*
X99725Y8393D01*
X99776Y8650D01*
D02*
G37*
G36*
X95400Y13400D02*
X92650D01*
Y5650D01*
X95400D01*
Y10049D01*
X95862Y10240D01*
X97179Y8923D01*
X97175Y8900D01*
X97275Y8393D01*
X97563Y7963D01*
X97993Y7675D01*
X98250Y7624D01*
Y8900D01*
X98500D01*
Y9150D01*
X99776D01*
X99725Y9407D01*
X99437Y9837D01*
X99007Y10125D01*
X98500Y10226D01*
X98477Y10221D01*
X95400Y13298D01*
Y13400D01*
D02*
G37*
G36*
X226750Y7850D02*
X225724D01*
X225775Y7593D01*
X226063Y7163D01*
X226493Y6875D01*
X226750Y6824D01*
Y7850D01*
D02*
G37*
G36*
X2976Y7150D02*
X1950D01*
Y6124D01*
X2207Y6175D01*
X2637Y6463D01*
X2925Y6893D01*
X2976Y7150D01*
D02*
G37*
G36*
X92150Y13400D02*
X89400D01*
Y5650D01*
X92150D01*
Y13400D01*
D02*
G37*
G36*
X226750Y6176D02*
X226493Y6125D01*
X226063Y5837D01*
X225775Y5407D01*
X225724Y5150D01*
X226750D01*
Y6176D01*
D02*
G37*
G36*
Y4650D02*
X225724D01*
X225775Y4393D01*
X226063Y3963D01*
X226493Y3675D01*
X226750Y3624D01*
Y4650D01*
D02*
G37*
G36*
X1950Y3676D02*
Y2650D01*
X2976D01*
X2925Y2907D01*
X2637Y3337D01*
X2207Y3625D01*
X1950Y3676D01*
D02*
G37*
G36*
X23750Y3576D02*
Y2550D01*
X24776D01*
X24725Y2807D01*
X24437Y3237D01*
X24007Y3525D01*
X23750Y3576D01*
D02*
G37*
G36*
X23250D02*
X22993Y3525D01*
X22563Y3237D01*
X22275Y2807D01*
X22224Y2550D01*
X23250D01*
Y3576D01*
D02*
G37*
G36*
X20550D02*
Y2550D01*
X21576D01*
X21525Y2807D01*
X21237Y3237D01*
X20807Y3525D01*
X20550Y3576D01*
D02*
G37*
G36*
X20050D02*
X19793Y3525D01*
X19363Y3237D01*
X19075Y2807D01*
X19024Y2550D01*
X20050D01*
Y3576D01*
D02*
G37*
G36*
X16450D02*
Y2550D01*
X17476D01*
X17425Y2807D01*
X17137Y3237D01*
X16707Y3525D01*
X16450Y3576D01*
D02*
G37*
G36*
X15950D02*
X15693Y3525D01*
X15263Y3237D01*
X14975Y2807D01*
X14924Y2550D01*
X15950D01*
Y3576D01*
D02*
G37*
G36*
X13250D02*
Y2550D01*
X14276D01*
X14225Y2807D01*
X13937Y3237D01*
X13507Y3525D01*
X13250Y3576D01*
D02*
G37*
G36*
X12750D02*
X12493Y3525D01*
X12063Y3237D01*
X11775Y2807D01*
X11724Y2550D01*
X12750D01*
Y3576D01*
D02*
G37*
G36*
X9750D02*
Y2550D01*
X10776D01*
X10725Y2807D01*
X10437Y3237D01*
X10007Y3525D01*
X9750Y3576D01*
D02*
G37*
G36*
X9250D02*
X8993Y3525D01*
X8563Y3237D01*
X8275Y2807D01*
X8224Y2550D01*
X9250D01*
Y3576D01*
D02*
G37*
G36*
X5950D02*
Y2550D01*
X6976D01*
X6925Y2807D01*
X6637Y3237D01*
X6207Y3525D01*
X5950Y3576D01*
D02*
G37*
G36*
X5450D02*
X5193Y3525D01*
X4763Y3237D01*
X4475Y2807D01*
X4424Y2550D01*
X5450D01*
Y3576D01*
D02*
G37*
G36*
X42350Y3476D02*
Y2450D01*
X43376D01*
X43325Y2707D01*
X43037Y3137D01*
X42607Y3425D01*
X42350Y3476D01*
D02*
G37*
G36*
X41850D02*
X41593Y3425D01*
X41163Y3137D01*
X40875Y2707D01*
X40824Y2450D01*
X41850D01*
Y3476D01*
D02*
G37*
G36*
X38250D02*
Y2450D01*
X39276D01*
X39225Y2707D01*
X38937Y3137D01*
X38507Y3425D01*
X38250Y3476D01*
D02*
G37*
G36*
X37750D02*
X37493Y3425D01*
X37063Y3137D01*
X36775Y2707D01*
X36724Y2450D01*
X37750D01*
Y3476D01*
D02*
G37*
G36*
X35050D02*
Y2450D01*
X36076D01*
X36025Y2707D01*
X35737Y3137D01*
X35307Y3425D01*
X35050Y3476D01*
D02*
G37*
G36*
X34550D02*
X34293Y3425D01*
X33863Y3137D01*
X33575Y2707D01*
X33524Y2450D01*
X34550D01*
Y3476D01*
D02*
G37*
G36*
X31550D02*
Y2450D01*
X32576D01*
X32525Y2707D01*
X32237Y3137D01*
X31807Y3425D01*
X31550Y3476D01*
D02*
G37*
G36*
X31050D02*
X30793Y3425D01*
X30363Y3137D01*
X30075Y2707D01*
X30024Y2450D01*
X31050D01*
Y3476D01*
D02*
G37*
G36*
X27750D02*
Y2450D01*
X28776D01*
X28725Y2707D01*
X28437Y3137D01*
X28007Y3425D01*
X27750Y3476D01*
D02*
G37*
G36*
X27250D02*
X26993Y3425D01*
X26563Y3137D01*
X26275Y2707D01*
X26224Y2450D01*
X27250D01*
Y3476D01*
D02*
G37*
G36*
X48050Y3376D02*
Y2350D01*
X49076D01*
X49025Y2607D01*
X48737Y3037D01*
X48307Y3325D01*
X48050Y3376D01*
D02*
G37*
G36*
X47550D02*
X47293Y3325D01*
X46863Y3037D01*
X46575Y2607D01*
X46524Y2350D01*
X47550D01*
Y3376D01*
D02*
G37*
G36*
X197250Y3276D02*
Y2250D01*
X198276D01*
X198225Y2507D01*
X197937Y2937D01*
X197507Y3225D01*
X197250Y3276D01*
D02*
G37*
G36*
X196750D02*
X196493Y3225D01*
X196063Y2937D01*
X195775Y2507D01*
X195724Y2250D01*
X196750D01*
Y3276D01*
D02*
G37*
G36*
X174150D02*
Y2250D01*
X175176D01*
X175125Y2507D01*
X174837Y2937D01*
X174407Y3225D01*
X174150Y3276D01*
D02*
G37*
G36*
X173650D02*
X173393Y3225D01*
X172963Y2937D01*
X172675Y2507D01*
X172624Y2250D01*
X173650D01*
Y3276D01*
D02*
G37*
G36*
X70850D02*
Y2250D01*
X71876D01*
X71825Y2507D01*
X71537Y2937D01*
X71107Y3225D01*
X70850Y3276D01*
D02*
G37*
G36*
X70350D02*
X70093Y3225D01*
X69663Y2937D01*
X69375Y2507D01*
X69324Y2250D01*
X70350D01*
Y3276D01*
D02*
G37*
G36*
X66650D02*
Y2250D01*
X67676D01*
X67625Y2507D01*
X67337Y2937D01*
X66907Y3225D01*
X66650Y3276D01*
D02*
G37*
G36*
X66150D02*
X65893Y3225D01*
X65463Y2937D01*
X65175Y2507D01*
X65124Y2250D01*
X66150D01*
Y3276D01*
D02*
G37*
G36*
X62550D02*
Y2250D01*
X63576D01*
X63525Y2507D01*
X63237Y2937D01*
X62807Y3225D01*
X62550Y3276D01*
D02*
G37*
G36*
X62050D02*
X61793Y3225D01*
X61363Y2937D01*
X61075Y2507D01*
X61024Y2250D01*
X62050D01*
Y3276D01*
D02*
G37*
G36*
X59350D02*
Y2250D01*
X60376D01*
X60325Y2507D01*
X60037Y2937D01*
X59607Y3225D01*
X59350Y3276D01*
D02*
G37*
G36*
X58850D02*
X58593Y3225D01*
X58163Y2937D01*
X57875Y2507D01*
X57824Y2250D01*
X58850D01*
Y3276D01*
D02*
G37*
G36*
X55850D02*
Y2250D01*
X56876D01*
X56825Y2507D01*
X56537Y2937D01*
X56107Y3225D01*
X55850Y3276D01*
D02*
G37*
G36*
X55350D02*
X55093Y3225D01*
X54663Y2937D01*
X54375Y2507D01*
X54324Y2250D01*
X55350D01*
Y3276D01*
D02*
G37*
G36*
X52050D02*
Y2250D01*
X53076D01*
X53025Y2507D01*
X52737Y2937D01*
X52307Y3225D01*
X52050Y3276D01*
D02*
G37*
G36*
X51550D02*
X51293Y3225D01*
X50863Y2937D01*
X50575Y2507D01*
X50524Y2250D01*
X51550D01*
Y3276D01*
D02*
G37*
G36*
X215850Y3176D02*
Y2150D01*
X216876D01*
X216825Y2407D01*
X216537Y2837D01*
X216107Y3125D01*
X215850Y3176D01*
D02*
G37*
G36*
X215350D02*
X215093Y3125D01*
X214663Y2837D01*
X214375Y2407D01*
X214324Y2150D01*
X215350D01*
Y3176D01*
D02*
G37*
G36*
X211750D02*
Y2150D01*
X212776D01*
X212725Y2407D01*
X212437Y2837D01*
X212007Y3125D01*
X211750Y3176D01*
D02*
G37*
G36*
X211250D02*
X210993Y3125D01*
X210563Y2837D01*
X210275Y2407D01*
X210224Y2150D01*
X211250D01*
Y3176D01*
D02*
G37*
G36*
X208550D02*
Y2150D01*
X209576D01*
X209525Y2407D01*
X209237Y2837D01*
X208807Y3125D01*
X208550Y3176D01*
D02*
G37*
G36*
X208050D02*
X207793Y3125D01*
X207363Y2837D01*
X207075Y2407D01*
X207024Y2150D01*
X208050D01*
Y3176D01*
D02*
G37*
G36*
X205050D02*
Y2150D01*
X206076D01*
X206025Y2407D01*
X205737Y2837D01*
X205307Y3125D01*
X205050Y3176D01*
D02*
G37*
G36*
X204550D02*
X204293Y3125D01*
X203863Y2837D01*
X203575Y2407D01*
X203524Y2150D01*
X204550D01*
Y3176D01*
D02*
G37*
G36*
X201250D02*
Y2150D01*
X202276D01*
X202225Y2407D01*
X201937Y2837D01*
X201507Y3125D01*
X201250Y3176D01*
D02*
G37*
G36*
X200750D02*
X200493Y3125D01*
X200063Y2837D01*
X199775Y2407D01*
X199724Y2150D01*
X200750D01*
Y3176D01*
D02*
G37*
G36*
X192750D02*
Y2150D01*
X193776D01*
X193725Y2407D01*
X193437Y2837D01*
X193007Y3125D01*
X192750Y3176D01*
D02*
G37*
G36*
X192250D02*
X191993Y3125D01*
X191563Y2837D01*
X191275Y2407D01*
X191224Y2150D01*
X192250D01*
Y3176D01*
D02*
G37*
G36*
X188650D02*
Y2150D01*
X189676D01*
X189625Y2407D01*
X189337Y2837D01*
X188907Y3125D01*
X188650Y3176D01*
D02*
G37*
G36*
X188150D02*
X187893Y3125D01*
X187463Y2837D01*
X187175Y2407D01*
X187124Y2150D01*
X188150D01*
Y3176D01*
D02*
G37*
G36*
X185450D02*
Y2150D01*
X186476D01*
X186425Y2407D01*
X186137Y2837D01*
X185707Y3125D01*
X185450Y3176D01*
D02*
G37*
G36*
X184950D02*
X184693Y3125D01*
X184263Y2837D01*
X183975Y2407D01*
X183924Y2150D01*
X184950D01*
Y3176D01*
D02*
G37*
G36*
X181950D02*
Y2150D01*
X182976D01*
X182925Y2407D01*
X182637Y2837D01*
X182207Y3125D01*
X181950Y3176D01*
D02*
G37*
G36*
X181450D02*
X181193Y3125D01*
X180763Y2837D01*
X180475Y2407D01*
X180424Y2150D01*
X181450D01*
Y3176D01*
D02*
G37*
G36*
X178150D02*
Y2150D01*
X179176D01*
X179125Y2407D01*
X178837Y2837D01*
X178407Y3125D01*
X178150Y3176D01*
D02*
G37*
G36*
X177650D02*
X177393Y3125D01*
X176963Y2837D01*
X176675Y2407D01*
X176624Y2150D01*
X177650D01*
Y3176D01*
D02*
G37*
G36*
X93150D02*
Y2150D01*
X94176D01*
X94125Y2407D01*
X93837Y2837D01*
X93407Y3125D01*
X93150Y3176D01*
D02*
G37*
G36*
X92650D02*
X92393Y3125D01*
X91963Y2837D01*
X91675Y2407D01*
X91624Y2150D01*
X92650D01*
Y3176D01*
D02*
G37*
G36*
X89450D02*
Y2150D01*
X90476D01*
X90425Y2407D01*
X90137Y2837D01*
X89707Y3125D01*
X89450Y3176D01*
D02*
G37*
G36*
X88950D02*
X88693Y3125D01*
X88263Y2837D01*
X87975Y2407D01*
X87924Y2150D01*
X88950D01*
Y3176D01*
D02*
G37*
G36*
X85350D02*
Y2150D01*
X86376D01*
X86325Y2407D01*
X86037Y2837D01*
X85607Y3125D01*
X85350Y3176D01*
D02*
G37*
G36*
X84850D02*
X84593Y3125D01*
X84163Y2837D01*
X83875Y2407D01*
X83824Y2150D01*
X84850D01*
Y3176D01*
D02*
G37*
G36*
X82150D02*
Y2150D01*
X83176D01*
X83125Y2407D01*
X82837Y2837D01*
X82407Y3125D01*
X82150Y3176D01*
D02*
G37*
G36*
X81650D02*
X81393Y3125D01*
X80963Y2837D01*
X80675Y2407D01*
X80624Y2150D01*
X81650D01*
Y3176D01*
D02*
G37*
G36*
X78650D02*
Y2150D01*
X79676D01*
X79625Y2407D01*
X79337Y2837D01*
X78907Y3125D01*
X78650Y3176D01*
D02*
G37*
G36*
X78150D02*
X77893Y3125D01*
X77463Y2837D01*
X77175Y2407D01*
X77124Y2150D01*
X78150D01*
Y3176D01*
D02*
G37*
G36*
X74850D02*
Y2150D01*
X75876D01*
X75825Y2407D01*
X75537Y2837D01*
X75107Y3125D01*
X74850Y3176D01*
D02*
G37*
G36*
X74350D02*
X74093Y3125D01*
X73663Y2837D01*
X73375Y2407D01*
X73324Y2150D01*
X74350D01*
Y3176D01*
D02*
G37*
G36*
X223250Y3076D02*
Y2050D01*
X224276D01*
X224225Y2307D01*
X223937Y2737D01*
X223507Y3025D01*
X223250Y3076D01*
D02*
G37*
G36*
X222750D02*
X222493Y3025D01*
X222063Y2737D01*
X221775Y2307D01*
X221724Y2050D01*
X222750D01*
Y3076D01*
D02*
G37*
G36*
X111750D02*
Y2050D01*
X112776D01*
X112725Y2307D01*
X112437Y2737D01*
X112007Y3025D01*
X111750Y3076D01*
D02*
G37*
G36*
X111250D02*
X110993Y3025D01*
X110563Y2737D01*
X110275Y2307D01*
X110224Y2050D01*
X111250D01*
Y3076D01*
D02*
G37*
G36*
X107650D02*
Y2050D01*
X108676D01*
X108625Y2307D01*
X108337Y2737D01*
X107907Y3025D01*
X107650Y3076D01*
D02*
G37*
G36*
X107150D02*
X106893Y3025D01*
X106463Y2737D01*
X106175Y2307D01*
X106124Y2050D01*
X107150D01*
Y3076D01*
D02*
G37*
G36*
X104450D02*
Y2050D01*
X105476D01*
X105425Y2307D01*
X105137Y2737D01*
X104707Y3025D01*
X104450Y3076D01*
D02*
G37*
G36*
X103950D02*
X103693Y3025D01*
X103263Y2737D01*
X102975Y2307D01*
X102924Y2050D01*
X103950D01*
Y3076D01*
D02*
G37*
G36*
X100950D02*
Y2050D01*
X101976D01*
X101925Y2307D01*
X101637Y2737D01*
X101207Y3025D01*
X100950Y3076D01*
D02*
G37*
G36*
X100450D02*
X100193Y3025D01*
X99763Y2737D01*
X99475Y2307D01*
X99424Y2050D01*
X100450D01*
Y3076D01*
D02*
G37*
G36*
X97150D02*
Y2050D01*
X98176D01*
X98125Y2307D01*
X97837Y2737D01*
X97407Y3025D01*
X97150Y3076D01*
D02*
G37*
G36*
X96650D02*
X96393Y3025D01*
X95963Y2737D01*
X95675Y2307D01*
X95624Y2050D01*
X96650D01*
Y3076D01*
D02*
G37*
G36*
X226750Y2976D02*
X226493Y2925D01*
X226063Y2637D01*
X225775Y2207D01*
X225724Y1950D01*
X226750D01*
Y2976D01*
D02*
G37*
G36*
X219850D02*
Y1950D01*
X220876D01*
X220825Y2207D01*
X220537Y2637D01*
X220107Y2925D01*
X219850Y2976D01*
D02*
G37*
G36*
X219350D02*
X219093Y2925D01*
X218663Y2637D01*
X218375Y2207D01*
X218324Y1950D01*
X219350D01*
Y2976D01*
D02*
G37*
%LPD*%
G36*
X184489Y96871D02*
X184562D01*
Y96521D01*
X184632Y96169D01*
X184831Y95872D01*
X192978Y87724D01*
X193276Y87525D01*
X193627Y87456D01*
X195273D01*
Y86398D01*
X199222Y86398D01*
X199282Y85923D01*
Y85826D01*
X199343Y85520D01*
X199352Y85475D01*
X199366Y85403D01*
X199368Y85234D01*
X199368Y85232D01*
X199063Y84872D01*
X198913Y84848D01*
X198767Y84848D01*
X195273D01*
Y83791D01*
X193207D01*
X183838Y93160D01*
Y96871D01*
X183911D01*
Y100225D01*
X184489D01*
Y96871D01*
D02*
G37*
%LPC*%
G36*
X71750Y153139D02*
X70240D01*
Y151708D01*
X71750D01*
Y153139D01*
D02*
G37*
G36*
X81060Y153039D02*
X79550D01*
Y151608D01*
X81060D01*
Y153039D01*
D02*
G37*
G36*
X104830Y97048D02*
X103950D01*
Y96168D01*
X104830D01*
Y97048D01*
D02*
G37*
G36*
X146460Y62662D02*
X144950D01*
Y61231D01*
X146460D01*
Y62662D01*
D02*
G37*
G36*
X144450D02*
X142940D01*
Y61231D01*
X144450D01*
Y62662D01*
D02*
G37*
G36*
X142160D02*
X140650D01*
Y61231D01*
X142160D01*
Y62662D01*
D02*
G37*
G36*
X140150D02*
X138640D01*
Y61231D01*
X140150D01*
Y62662D01*
D02*
G37*
G36*
X156189Y55792D02*
X155250D01*
Y54951D01*
X156189D01*
Y55792D01*
D02*
G37*
G36*
X154750D02*
X153811D01*
Y54951D01*
X154750D01*
Y55792D01*
D02*
G37*
G36*
X173860Y55712D02*
X172350D01*
Y54281D01*
X173860D01*
Y55712D01*
D02*
G37*
G36*
X165250D02*
X163740D01*
Y54281D01*
X165250D01*
Y55712D01*
D02*
G37*
G36*
X162300Y39050D02*
X156500D01*
Y23250D01*
X162300D01*
Y32752D01*
X163530Y33982D01*
X164093D01*
X164271Y33864D01*
X164700Y33778D01*
X165129Y33864D01*
X165493Y34107D01*
X165736Y34471D01*
X165822Y34900D01*
X165736Y35329D01*
X165493Y35693D01*
X165129Y35936D01*
X164700Y36022D01*
X164271Y35936D01*
X164093Y35818D01*
X163150D01*
X162799Y35748D01*
X162300Y36016D01*
Y39050D01*
D02*
G37*
G36*
X165750Y16876D02*
Y15850D01*
X166776D01*
X166725Y16107D01*
X166437Y16537D01*
X166007Y16825D01*
X165750Y16876D01*
D02*
G37*
G36*
X162400Y21650D02*
X159650D01*
Y13650D01*
Y5650D01*
X162400D01*
Y12732D01*
X163550D01*
X163901Y12802D01*
X164199Y13001D01*
X165477Y14279D01*
X165500Y14275D01*
X166007Y14375D01*
X166437Y14663D01*
X166725Y15093D01*
X166776Y15350D01*
X165500D01*
Y15600D01*
X165250D01*
Y16876D01*
X164993Y16825D01*
X164563Y16537D01*
X164275Y16107D01*
X164174Y15600D01*
X164179Y15577D01*
X163170Y14568D01*
X162400D01*
Y21650D01*
D02*
G37*
G36*
X159150D02*
X156400D01*
Y13900D01*
X159150D01*
Y21650D01*
D02*
G37*
G36*
Y13400D02*
X156400D01*
Y5650D01*
X159150D01*
Y13400D01*
D02*
G37*
G36*
X113274Y79750D02*
X112350D01*
Y78826D01*
X112568Y78870D01*
X112965Y79135D01*
X113230Y79532D01*
X113274Y79750D01*
D02*
G37*
G36*
X112389Y82869D02*
X111200D01*
X110011D01*
Y82028D01*
X110282D01*
Y80900D01*
X110352Y80549D01*
X110551Y80251D01*
X110895Y79907D01*
X110970Y79532D01*
X111235Y79135D01*
X111632Y78870D01*
X111850Y78826D01*
Y80000D01*
X112100D01*
Y80250D01*
X113274D01*
X113230Y80468D01*
X112965Y80865D01*
X112568Y81130D01*
X112193Y81205D01*
X112118Y81280D01*
Y82028D01*
X112389D01*
Y82869D01*
D02*
G37*
G36*
X108884Y83616D02*
X106666D01*
Y80847D01*
X106666Y80847D01*
X106666D01*
X106635Y80360D01*
X106550Y80232D01*
X106449Y79725D01*
X106550Y79218D01*
X106838Y78788D01*
X107268Y78501D01*
X107775Y78400D01*
X108282Y78501D01*
X108712Y78788D01*
X108999Y79218D01*
X109100Y79725D01*
X108999Y80232D01*
X108914Y80360D01*
X108884Y80847D01*
X108884Y80847D01*
Y83616D01*
D02*
G37*
%LPD*%
D10*
X87259Y85869D02*
D03*
X82141D02*
D03*
X87259Y81932D02*
D03*
X82141D02*
D03*
D11*
X224200Y86739D02*
D03*
Y95007D02*
D03*
D12*
X213174Y95991D02*
D03*
Y93432D02*
D03*
Y90873D02*
D03*
Y88314D02*
D03*
X213174Y85755D02*
D03*
D13*
X224200Y79062D02*
D03*
X224200Y102684D02*
D03*
D14*
X106200Y86168D02*
D03*
D15*
X107775Y82231D02*
D03*
X104625D02*
D03*
D16*
X200327Y43073D02*
D03*
Y45042D02*
D03*
Y47010D02*
D03*
X195800Y43073D02*
D03*
Y45042D02*
D03*
D17*
X195997Y47010D02*
D03*
D18*
X146979Y116476D02*
D03*
Y127893D02*
D03*
D19*
X194241Y59715D02*
D03*
X196800D02*
D03*
X199359D02*
D03*
Y52431D02*
D03*
X196800D02*
D03*
X194241D02*
D03*
D20*
X203153Y82873D02*
D03*
X197247D02*
D03*
X177847Y71523D02*
D03*
X183753D02*
D03*
X203153Y88373D02*
D03*
X197247D02*
D03*
D21*
X208830Y108873D02*
D03*
X212570D02*
D03*
D22*
X147900Y73842D02*
D03*
Y76204D02*
D03*
X87200Y132181D02*
D03*
Y129819D02*
D03*
X89700Y132181D02*
D03*
Y129819D02*
D03*
X178500Y59081D02*
D03*
Y56719D02*
D03*
X111200Y85481D02*
D03*
Y83119D02*
D03*
X59500Y154781D02*
D03*
Y152419D02*
D03*
X111179Y132165D02*
D03*
Y129803D02*
D03*
X132200Y141981D02*
D03*
Y139619D02*
D03*
X168900Y77685D02*
D03*
Y75323D02*
D03*
X153200Y76123D02*
D03*
Y73761D02*
D03*
X155000Y58404D02*
D03*
Y56042D02*
D03*
X154100Y86104D02*
D03*
Y83742D02*
D03*
X204300Y49573D02*
D03*
Y51935D02*
D03*
X190800Y45073D02*
D03*
Y47435D02*
D03*
D23*
X87200Y110400D02*
D03*
D24*
X95861Y98491D02*
D03*
X94287D02*
D03*
X92712D02*
D03*
X91137D02*
D03*
X89562D02*
D03*
X87987D02*
D03*
X86413D02*
D03*
X84838D02*
D03*
X83263D02*
D03*
X81688D02*
D03*
X80113D02*
D03*
X78539D02*
D03*
Y122309D02*
D03*
X80113D02*
D03*
X81688D02*
D03*
X83263D02*
D03*
X84838D02*
D03*
X86413D02*
D03*
X87987D02*
D03*
X89562D02*
D03*
X91137D02*
D03*
X92712D02*
D03*
X94287D02*
D03*
X95861D02*
D03*
D25*
X75291Y101739D02*
D03*
Y103313D02*
D03*
Y104888D02*
D03*
Y106463D02*
D03*
Y108038D02*
D03*
Y109613D02*
D03*
Y111187D02*
D03*
Y112762D02*
D03*
Y114337D02*
D03*
Y115912D02*
D03*
Y117487D02*
D03*
Y119061D02*
D03*
X99110D02*
D03*
Y117487D02*
D03*
Y115912D02*
D03*
Y114337D02*
D03*
Y112762D02*
D03*
Y111187D02*
D03*
Y109613D02*
D03*
Y108038D02*
D03*
Y106463D02*
D03*
Y104888D02*
D03*
Y103313D02*
D03*
Y101739D02*
D03*
D26*
X184200Y105873D02*
D03*
D27*
X177015Y109712D02*
D03*
Y107153D02*
D03*
Y104594D02*
D03*
Y102035D02*
D03*
X191385D02*
D03*
Y104594D02*
D03*
Y107153D02*
D03*
Y109712D02*
D03*
D28*
X180361Y98688D02*
D03*
X182921D02*
D03*
X185479D02*
D03*
X188039D02*
D03*
Y113058D02*
D03*
X185479D02*
D03*
X182921D02*
D03*
X180361D02*
D03*
D29*
X119400Y13650D02*
D03*
Y31150D02*
D03*
X129400Y13650D02*
D03*
Y31150D02*
D03*
X139400Y13650D02*
D03*
Y31150D02*
D03*
X149400Y13650D02*
D03*
Y31150D02*
D03*
X159400Y13650D02*
D03*
Y31150D02*
D03*
X129000Y187750D02*
D03*
Y170250D02*
D03*
X119000Y187750D02*
D03*
Y170250D02*
D03*
X109000Y187750D02*
D03*
Y170250D02*
D03*
X99000Y187750D02*
D03*
Y170250D02*
D03*
X89000Y187750D02*
D03*
Y170250D02*
D03*
X52400Y13650D02*
D03*
Y31150D02*
D03*
X62400Y13650D02*
D03*
Y31150D02*
D03*
X72400Y13650D02*
D03*
Y31150D02*
D03*
X82400Y13650D02*
D03*
Y31150D02*
D03*
X92400Y13650D02*
D03*
Y31150D02*
D03*
D30*
X177200Y184368D02*
D03*
Y172832D02*
D03*
X147200D02*
D03*
Y184368D02*
D03*
X157200Y172832D02*
D03*
Y184368D02*
D03*
X167200D02*
D03*
Y172832D02*
D03*
D31*
X136779Y115612D02*
D03*
Y106557D02*
D03*
D32*
X158056Y65423D02*
D03*
X152544D02*
D03*
D33*
X121436Y143284D02*
D03*
X116121D02*
D03*
D34*
X171200Y107684D02*
D03*
Y104062D02*
D03*
X161200Y126511D02*
D03*
Y122889D02*
D03*
X165700Y126511D02*
D03*
Y122889D02*
D03*
X72000Y157011D02*
D03*
Y153389D02*
D03*
X79300Y156911D02*
D03*
Y153289D02*
D03*
X53500Y155511D02*
D03*
Y151889D02*
D03*
X165500Y59584D02*
D03*
Y55962D02*
D03*
X169100Y71434D02*
D03*
Y67812D02*
D03*
X172100Y59584D02*
D03*
Y55962D02*
D03*
X144700Y66534D02*
D03*
Y62912D02*
D03*
X140400Y66534D02*
D03*
Y62912D02*
D03*
X202700Y109062D02*
D03*
Y112684D02*
D03*
X197700Y109062D02*
D03*
Y112684D02*
D03*
X188800Y71534D02*
D03*
Y67912D02*
D03*
D35*
X207698Y42573D02*
D03*
X209902D02*
D03*
X81598Y92900D02*
D03*
X83802D02*
D03*
X68302Y121200D02*
D03*
X66098D02*
D03*
X67102Y112800D02*
D03*
X64898D02*
D03*
X119881Y138484D02*
D03*
X117676D02*
D03*
X119881Y135784D02*
D03*
X117676D02*
D03*
X126198Y142300D02*
D03*
X128402D02*
D03*
X152598Y69323D02*
D03*
X154802D02*
D03*
D36*
X222312Y50766D02*
D03*
Y37380D02*
D03*
D37*
X216800Y42498D02*
D03*
Y45648D02*
D03*
D38*
X124258Y135805D02*
D03*
X126226D02*
D03*
X128194D02*
D03*
X130163D02*
D03*
X132132D02*
D03*
X134100D02*
D03*
X124258Y133837D02*
D03*
X126226D02*
D03*
X128194D02*
D03*
X130163D02*
D03*
X132132D02*
D03*
X134100D02*
D03*
X124258Y131869D02*
D03*
X126226D02*
D03*
X128194D02*
D03*
X130163D02*
D03*
X132132D02*
D03*
X134100D02*
D03*
X124258Y129900D02*
D03*
X126226D02*
D03*
X128194D02*
D03*
X130163D02*
D03*
X132132D02*
D03*
X134100D02*
D03*
X124258Y127931D02*
D03*
X126226D02*
D03*
X128194D02*
D03*
X130163D02*
D03*
X132132D02*
D03*
X134100D02*
D03*
X124258Y125963D02*
D03*
X126226D02*
D03*
X128194D02*
D03*
X130163D02*
D03*
X132132D02*
D03*
X134100D02*
D03*
D39*
X66868Y158332D02*
D03*
Y160300D02*
D03*
Y162268D02*
D03*
X64900Y158332D02*
D03*
X62931D02*
D03*
X64900Y160300D02*
D03*
X62931D02*
D03*
Y162268D02*
D03*
X64900D02*
D03*
D40*
X163975Y77973D02*
D03*
Y79548D02*
D03*
X162400Y77973D02*
D03*
Y79548D02*
D03*
X163975Y82698D02*
D03*
Y81123D02*
D03*
Y84272D02*
D03*
X162400Y82698D02*
D03*
Y81123D02*
D03*
X160825Y84272D02*
D03*
X162400D02*
D03*
X160825Y77973D02*
D03*
X159250D02*
D03*
X160825Y79548D02*
D03*
X159250D02*
D03*
Y81123D02*
D03*
X157676Y77973D02*
D03*
Y79548D02*
D03*
X160825Y81123D02*
D03*
X157676D02*
D03*
X160825Y82698D02*
D03*
X159250D02*
D03*
Y84272D02*
D03*
X157676D02*
D03*
Y82698D02*
D03*
D41*
X218487Y172726D02*
D03*
Y188474D02*
D03*
X191913Y172726D02*
D03*
Y188474D02*
D03*
X174213Y26474D02*
D03*
Y10726D02*
D03*
X200787Y26474D02*
D03*
Y10726D02*
D03*
D42*
X214335Y156353D02*
D03*
X214335Y150447D02*
D03*
X218665Y150447D02*
D03*
X218665Y156353D02*
D03*
X194335Y133253D02*
D03*
X194335Y127347D02*
D03*
X198665Y127347D02*
D03*
X198665Y133253D02*
D03*
X194335Y156253D02*
D03*
X194335Y150347D02*
D03*
X198665Y150347D02*
D03*
X198665Y156253D02*
D03*
X214835Y133253D02*
D03*
X214835Y127347D02*
D03*
X219165Y127347D02*
D03*
X219165Y133253D02*
D03*
D43*
X65211Y110303D02*
D03*
X67180D02*
D03*
X69148D02*
D03*
Y106957D02*
D03*
X67180D02*
D03*
X65211D02*
D03*
D44*
X5666Y112872D02*
D03*
D45*
Y122911D02*
D03*
D46*
X9603Y114053D02*
D03*
D47*
X76700Y82798D02*
D03*
Y85002D02*
D03*
X91900Y84302D02*
D03*
Y82098D02*
D03*
X103700Y99502D02*
D03*
Y97298D02*
D03*
X72000Y99902D02*
D03*
Y97698D02*
D03*
X17000Y107000D02*
D03*
Y104795D02*
D03*
X9600Y106900D02*
D03*
Y104695D02*
D03*
X102500Y120198D02*
D03*
Y122402D02*
D03*
X115779Y132187D02*
D03*
Y129982D02*
D03*
X120479Y129882D02*
D03*
Y132087D02*
D03*
D48*
X155400Y127357D02*
D03*
Y122043D02*
D03*
D49*
X198389Y96873D02*
D03*
X202011D02*
D03*
X187011Y118873D02*
D03*
X183389D02*
D03*
D50*
X53407Y187612D02*
D03*
X66793D02*
D03*
D51*
X61675Y182100D02*
D03*
X58525D02*
D03*
D52*
X13650Y189500D02*
D03*
X31150D02*
D03*
X13650Y179500D02*
D03*
X31150D02*
D03*
X13650Y169500D02*
D03*
X31150D02*
D03*
X13650Y159500D02*
D03*
X31150D02*
D03*
X13650Y149500D02*
D03*
X31150D02*
D03*
D53*
X12019Y106998D02*
D03*
X14381D02*
D03*
X209981Y45573D02*
D03*
X207619D02*
D03*
X152519Y61423D02*
D03*
X154881D02*
D03*
X196619Y39073D02*
D03*
X198981D02*
D03*
D54*
X9600Y106900D02*
Y114050D01*
X9698Y106998D02*
X12019D01*
X17000Y106957D02*
X65211D01*
X14381Y106998D02*
X16998D01*
X124258Y123442D02*
Y125963D01*
D55*
X67180Y104020D02*
Y106957D01*
X63000Y121200D02*
X66098D01*
X62300Y112800D02*
X64898D01*
Y110617D02*
Y112800D01*
X111200Y80900D02*
X112100Y80000D01*
X111200Y80900D02*
Y83119D01*
X89700Y81932D02*
X91734D01*
X87259D02*
X89700D01*
Y79500D02*
Y81932D01*
X79568Y85869D02*
X82141D01*
X78702Y85002D02*
X79568Y85869D01*
X76700Y85002D02*
X78702D01*
X94287Y103313D02*
X100302Y97298D01*
X89562Y108038D02*
X94287Y103313D01*
X87200Y110400D02*
X89562Y108038D01*
X100302Y97298D02*
X103700D01*
X136219Y139619D02*
X138900Y142300D01*
X159400Y31150D02*
X163150Y34900D01*
X164700D01*
X183753Y68547D02*
Y71523D01*
X92400Y31150D02*
X96250Y35000D01*
X98400D01*
X210000Y45592D02*
Y48800D01*
X165500Y59584D02*
X168716D01*
X203212Y88314D02*
X213174D01*
X206527Y90873D02*
X213174D01*
X205100Y92300D02*
X206527Y90873D01*
X201600Y92300D02*
X205100D01*
X200200Y90900D02*
X201600Y92300D01*
X200200Y85826D02*
Y90900D01*
Y85826D02*
X203153Y82873D01*
X185479Y96521D02*
Y98688D01*
Y96521D02*
X193627Y88373D01*
X197247D01*
X182921Y92779D02*
Y98688D01*
Y92779D02*
X192827Y82873D01*
X197247D01*
X188039Y98688D02*
X191488D01*
Y101932D01*
Y98688D02*
X193612D01*
X195427Y96873D01*
X198389D01*
X213174Y85755D02*
X216655D01*
X217900Y87000D01*
Y103500D01*
X212570Y108830D02*
X217900Y103500D01*
X191385Y104594D02*
X195494D01*
X197700Y106800D02*
Y109062D01*
X197889Y108873D02*
X208830D01*
X187011Y116689D02*
Y118873D01*
Y116689D02*
X188039Y115661D01*
Y113058D02*
Y115661D01*
Y109712D02*
Y113058D01*
X184200Y105873D02*
X188039Y109712D01*
X174294Y104594D02*
X177015D01*
X173500Y103800D02*
X174294Y104594D01*
X171462Y103800D02*
X173500D01*
X171200Y104062D02*
X171462Y103800D01*
X195900Y105000D02*
X196000D01*
X197500Y103500D01*
X195494Y104594D02*
X195900Y105000D01*
X197700Y106800D01*
X189066Y71800D02*
X194400D01*
X183764Y71534D02*
X188800D01*
X169189Y71523D02*
X177847D01*
X163975Y76737D02*
Y77973D01*
Y76737D02*
X169189Y71523D01*
X163975Y79548D02*
X168352D01*
X168900Y79000D01*
Y77685D02*
Y79000D01*
Y75323D02*
X171677D01*
X169100Y67812D02*
X172488D01*
X157676Y81123D02*
Y82698D01*
X159250D01*
Y84272D01*
Y86150D01*
X147981Y73761D02*
X153200D01*
X159250Y66617D02*
Y77973D01*
X158056Y65423D02*
X159250Y66617D01*
X149323Y65423D02*
X152544D01*
X148246Y66500D02*
X149323Y65423D01*
X136200Y66500D02*
X148246D01*
X152598Y61502D02*
Y69323D01*
X157800Y87600D02*
X159250Y86150D01*
X160825Y66175D02*
X165500Y61500D01*
Y59584D02*
Y61500D01*
X160825Y66175D02*
Y77973D01*
Y79548D01*
X162400Y69284D02*
X172100Y59584D01*
X162400Y69284D02*
Y77973D01*
Y79548D01*
X165500Y55962D02*
X172100D01*
Y59584D02*
X175716D01*
X176219Y59081D01*
X178500D01*
X210056Y45648D02*
X216800D01*
X207619Y42652D02*
Y45573D01*
X203573Y43073D02*
X205847Y40800D01*
X208457D01*
X209902Y42245D01*
Y42573D02*
X216725D01*
X200327Y45042D02*
X205658D01*
X206200Y45583D01*
X207609D01*
X198981Y39073D02*
Y40381D01*
X200327Y41727D01*
Y43073D01*
X194241Y50876D02*
Y52431D01*
X190800Y47435D02*
X194241Y50876D01*
X200327Y43073D02*
X202300D01*
X203573D01*
X202300Y41400D02*
Y43073D01*
X201174Y57900D02*
X201300D01*
X199359Y59715D02*
X201174Y57900D01*
X136779Y115612D02*
X146115D01*
X134100Y121600D02*
Y125963D01*
Y121600D02*
X136779Y118921D01*
Y115612D02*
Y118921D01*
X119881Y139581D02*
X120700Y140400D01*
X119881Y138484D02*
Y139581D01*
Y135884D02*
Y138484D01*
X119960Y135805D02*
X124258D01*
X127200Y106500D02*
X136722D01*
X111276Y129900D02*
X124258D01*
X130163Y125963D02*
Y127931D01*
Y125963D02*
X132132D01*
Y135805D02*
Y139550D01*
X134100Y127931D02*
X146940D01*
X147672Y127200D02*
X155243D01*
X155400Y127357D01*
X157843D01*
X158689Y126511D01*
X161200D01*
X165700D01*
X146940Y127931D02*
X146979Y127893D01*
X147672Y127200D01*
X155400Y122043D02*
X160354D01*
X161200Y122889D01*
X165700D01*
X132132Y123932D02*
Y125963D01*
X116121Y141379D02*
Y143284D01*
Y141379D02*
X117676Y139824D01*
Y138484D02*
Y139824D01*
Y135784D02*
Y138484D01*
X108900Y143284D02*
X116121D01*
X132200Y139619D02*
X136219D01*
X64900Y162268D02*
Y165100D01*
X120700Y140400D02*
Y150600D01*
X66868Y160300D02*
X70800D01*
X72000Y159100D01*
Y157011D02*
Y159100D01*
Y153389D02*
X79200D01*
X56800Y150700D02*
Y152419D01*
X54030D02*
X56800D01*
X59500D01*
X83802Y90902D02*
Y92900D01*
X83800Y90900D02*
X83802Y90902D01*
X104625Y59875D02*
Y82231D01*
Y59875D02*
X123400Y41100D01*
Y2900D02*
Y41100D01*
Y2900D02*
X124800Y1500D01*
X152200D01*
X153900Y3200D01*
Y26650D01*
X149400Y31150D02*
X153900Y26650D01*
X142758Y83742D02*
X154100D01*
X138800Y87700D02*
X142758Y83742D01*
X121700Y87700D02*
X138800D01*
X152200Y1500D02*
X169500D01*
X174213Y6213D01*
Y10726D01*
X200787D01*
X95861Y122309D02*
Y124461D01*
X102100Y129500D02*
X102500Y129100D01*
Y122402D02*
Y129100D01*
X95861Y124461D02*
X97300Y125900D01*
Y128600D01*
X147200Y172832D02*
Y184368D01*
X157200Y172832D02*
Y184368D01*
X167200Y172832D02*
Y184368D01*
X177200Y172832D02*
Y184368D01*
X167200D02*
Y189900D01*
X170700Y193400D01*
X186987D01*
X191913Y188474D01*
X218487D01*
X191913Y167213D02*
Y172726D01*
X218487Y167513D02*
Y172726D01*
X174213Y26474D02*
Y30113D01*
X176800Y32700D01*
X200787Y26474D02*
Y32187D01*
X13650Y144450D02*
Y149500D01*
X11900Y142700D02*
X13650Y144450D01*
X85950Y187750D02*
X89000D01*
X82600Y191100D02*
X85950Y187750D01*
X89000Y161600D02*
Y170250D01*
Y161600D02*
X92000Y158600D01*
X92400Y13650D02*
X93750D01*
X98500Y8900D01*
X159400Y13650D02*
X163550D01*
X165500Y15600D01*
X155400Y117200D02*
Y122043D01*
X165700Y126511D02*
X175589D01*
X178000Y124100D01*
X198665Y156253D02*
X202653D01*
X218665Y156353D02*
X222953D01*
X198665Y133253D02*
X202747D01*
X219165D02*
X223053D01*
X72663Y106463D02*
X75291D01*
X72663Y105037D02*
Y106463D01*
X72812Y104888D02*
X75291D01*
X147200Y165500D02*
Y172832D01*
X5666Y110671D02*
Y112872D01*
X4135Y109140D02*
X5666Y110671D01*
Y122911D02*
Y132809D01*
X9600Y102200D02*
Y104695D01*
X17000Y102200D02*
Y104795D01*
X188800Y64900D02*
Y67912D01*
X188435Y47435D02*
X190800D01*
X187100Y46100D02*
X188435Y47435D01*
X202011Y96873D02*
Y100489D01*
X208191Y95991D02*
X213174D01*
X128402Y142300D02*
Y144398D01*
X177200Y166400D02*
Y172832D01*
D56*
X69839Y109613D02*
X75291D01*
X70229Y108038D02*
X75291D01*
X69148Y110303D02*
X69839Y109613D01*
X69148Y106957D02*
X70229Y108038D01*
X75165Y109487D02*
X75291Y109613D01*
D57*
X67102Y112800D02*
X69900D01*
X71513Y111187D01*
X75291D01*
X67180Y110303D02*
Y112723D01*
X174213Y10726D02*
Y16687D01*
X167300Y23600D02*
X174213Y16687D01*
X167300Y23600D02*
Y31400D01*
X175500Y39600D01*
Y56500D01*
X183389Y115889D02*
Y118873D01*
X182900Y115400D02*
X183389Y115889D01*
X182900Y113079D02*
Y115400D01*
X174453Y107153D02*
X177015D01*
X173800Y107806D02*
X174453Y107153D01*
X171321Y107806D02*
X173800D01*
X157548Y79548D02*
X157676D01*
X154802Y76802D02*
X157548Y79548D01*
X154802Y69323D02*
Y76802D01*
Y58602D02*
Y69323D01*
Y58602D02*
X155000Y58404D01*
X147900Y76204D02*
Y78100D01*
X153300Y76223D02*
Y78100D01*
X154142Y83700D02*
X156100D01*
X175500Y56500D02*
X178281D01*
X195800Y41300D02*
Y43073D01*
Y41300D02*
X196619Y40481D01*
Y39073D02*
Y40481D01*
X190800Y45073D02*
X190832Y45042D01*
X193100D02*
Y47400D01*
X196800Y51100D01*
Y52431D01*
X190832Y45042D02*
X193100D01*
X195800D01*
X200327Y47010D02*
X202890Y49573D01*
X204300D01*
X195100Y41300D02*
X195800D01*
X194700Y40900D02*
X195100Y41300D01*
X196800Y57400D02*
Y59715D01*
X196800Y59715D01*
X199359Y52431D02*
Y54459D01*
X198118Y55700D02*
X199359Y54459D01*
X195900Y55700D02*
X198118D01*
X194241Y57359D02*
X195900Y55700D01*
X194241Y57359D02*
Y59715D01*
X117429Y133837D02*
X124258D01*
X115779Y132187D02*
X117429Y133837D01*
X122632Y131869D02*
X124258D01*
X122300Y132200D02*
X122632Y131869D01*
X120592Y132200D02*
X122300D01*
X113031Y131869D02*
X113531D01*
X112700Y132200D02*
X113031Y131869D01*
X111213Y132200D02*
X112700D01*
X190247Y156253D02*
X194335D01*
X190553Y150347D02*
X194335D01*
X198665Y147665D02*
Y150347D01*
X198100Y147100D02*
X198665Y147665D01*
X190700Y147100D02*
X198100D01*
X128100Y135911D02*
X128200Y135811D01*
X128100Y135911D02*
Y138800D01*
X134100Y131869D02*
X192950D01*
X192453Y127347D02*
X194335D01*
X189700Y130100D02*
X192453Y127347D01*
X134100Y133837D02*
X189700D01*
X198665Y125965D02*
Y127347D01*
X196800Y124100D02*
X198665Y125965D01*
X192100Y124100D02*
X196800D01*
X187700Y128500D02*
X192100Y124100D01*
X187700Y128500D02*
Y130000D01*
X134100Y135805D02*
X187700D01*
X210000Y133400D02*
X214687D01*
X209900Y126100D02*
X213587D01*
X186200Y126800D02*
Y129900D01*
Y126800D02*
X190000Y123000D01*
X217500D01*
X219165Y124665D01*
Y127347D01*
X218665Y146735D02*
Y150447D01*
X214335Y144335D02*
Y150447D01*
X209253Y156353D02*
X214335D01*
X208500Y155600D02*
X209253Y156353D01*
X208500Y142800D02*
Y155600D01*
X119837Y114337D02*
X128194Y122695D01*
Y125963D01*
X99110Y111187D02*
X122087D01*
X99110Y108038D02*
Y108100D01*
X130200D01*
X99110Y106463D02*
X124363D01*
X126426Y104400D01*
X128800D01*
X114900Y148400D02*
Y166150D01*
X119000Y170250D01*
X130200Y135843D02*
Y140000D01*
X132200Y144100D02*
Y159600D01*
X133200Y160600D01*
Y183550D01*
X129000Y187750D02*
X133200Y183550D01*
X130500Y147100D02*
Y168750D01*
X129000Y170250D02*
X130500Y168750D01*
X128900Y152300D02*
Y157700D01*
X124700Y161900D02*
X128900Y157700D01*
X124700Y161900D02*
Y182050D01*
X119000Y187750D02*
X124700Y182050D01*
X99110Y109613D02*
X132187D01*
X99110Y114337D02*
X118100D01*
X119837D01*
X112200Y148300D02*
Y167050D01*
X109000Y170250D02*
X112200Y167050D01*
X104530Y117487D02*
Y157970D01*
X99000Y163500D02*
X104530Y157970D01*
X99000Y163500D02*
Y170250D01*
X99110Y117487D02*
X104530D01*
X99110Y115912D02*
X105500D01*
X102900Y161900D02*
X105530Y159270D01*
X102900Y161900D02*
Y183850D01*
X99000Y187750D02*
X102900Y183850D01*
X105530Y115912D02*
Y159270D01*
X99110Y112762D02*
X106738D01*
X106800Y116000D02*
Y160400D01*
X104700Y162500D02*
X106800Y160400D01*
X104700Y162500D02*
Y183450D01*
X109000Y187750D01*
X58525Y170475D02*
Y182100D01*
Y170475D02*
X62931Y166069D01*
Y162268D02*
Y166069D01*
X61675Y173125D02*
Y182100D01*
Y173125D02*
X66868Y167932D01*
Y162268D02*
Y167932D01*
X55600Y160300D02*
X62931D01*
X53500Y158200D02*
X55600Y160300D01*
X53500Y155511D02*
Y158200D01*
X13650Y186250D02*
X15100Y184800D01*
X13650Y186250D02*
Y189500D01*
X33900Y185400D02*
Y186750D01*
X31150Y189500D02*
X33900Y186750D01*
X31550Y179100D02*
X44600D01*
X31150Y179500D02*
X31550Y179100D01*
X18350Y174200D02*
X48300D01*
X13650Y169500D02*
X18350Y174200D01*
X135200Y156875D02*
X154075D01*
X157200Y160000D01*
X135200Y155300D02*
X154727D01*
X167200Y167773D01*
X78539Y122309D02*
Y127539D01*
X80113Y122309D02*
Y127487D01*
X157200Y160000D02*
Y172832D01*
X167200Y167773D02*
Y172832D01*
X81688Y122309D02*
Y125288D01*
X41012D02*
X76900D01*
X44600Y117487D02*
X75291D01*
X46400Y115912D02*
X75291D01*
X48200Y114337D02*
X75291D01*
X45400Y14100D02*
X51950D01*
X52400Y13650D01*
X42600Y119061D02*
X75291D01*
X47800Y31200D02*
X52350D01*
X56300Y13700D02*
X62350D01*
X62400Y31150D02*
Y42400D01*
X67200Y15700D02*
Y17300D01*
Y15700D02*
X69250Y13650D01*
X72400D01*
X72300Y46600D02*
X94300Y68600D01*
X72300Y31250D02*
Y46600D01*
X84838Y95876D02*
Y98491D01*
Y95876D02*
X95300Y85414D01*
Y68100D02*
Y85414D01*
X77700Y50500D02*
X95300Y68100D01*
X77700Y18350D02*
Y50500D01*
Y18350D02*
X82400Y13650D01*
X86413Y95716D02*
Y98491D01*
Y95716D02*
X96300Y85828D01*
Y67686D02*
Y85828D01*
X82400Y53786D02*
X96300Y67686D01*
X82400Y31150D02*
Y53786D01*
X87987Y95555D02*
X97300Y86243D01*
Y42000D02*
Y86243D01*
Y42000D02*
X101200Y38100D01*
Y24100D02*
Y38100D01*
Y24100D02*
X111650Y13650D01*
X119400D01*
X89562Y95395D02*
Y98491D01*
Y95395D02*
X98300Y86657D01*
Y51000D02*
Y86657D01*
Y51000D02*
X100900Y48400D01*
X113100D01*
X119400Y42100D01*
Y31150D02*
Y42100D01*
X111732Y87853D02*
X129400Y70185D01*
Y31150D02*
Y70185D01*
X92712Y96288D02*
Y98491D01*
Y96288D02*
X101147Y87853D01*
X111732D01*
X94287Y96128D02*
Y98491D01*
Y96128D02*
X100514Y89900D01*
X112300D01*
X95861Y95967D02*
Y98491D01*
Y95967D02*
X100928Y90900D01*
X112714D01*
X112300Y89900D02*
X131200Y71000D01*
X132600Y23360D02*
Y38940D01*
X131200Y40340D02*
Y71000D01*
Y40340D02*
X132600Y38940D01*
Y23360D02*
X139400Y16560D01*
Y13650D02*
Y16560D01*
Y31150D02*
Y41800D01*
X132500Y48700D02*
X139400Y41800D01*
X132500Y48700D02*
Y71114D01*
X112714Y90900D02*
X132500Y71114D01*
X99110Y104888D02*
X106212D01*
X118900Y92200D01*
Y86900D02*
Y92200D01*
Y86900D02*
X133800Y72000D01*
Y50600D02*
Y72000D01*
Y50600D02*
X144200Y40200D01*
Y18850D02*
Y40200D01*
Y18850D02*
X149400Y13650D01*
X83263Y95689D02*
Y98491D01*
Y95689D02*
X85132Y93820D01*
Y92868D02*
Y93820D01*
X92368Y85632D02*
X92820D01*
X94300Y84152D01*
Y68600D02*
Y84152D01*
X85132Y92868D02*
X86500Y91500D01*
X92368Y85632D01*
X168216Y107684D02*
X171200D01*
X167900Y108000D02*
X168216Y107684D01*
X87987Y95555D02*
Y98491D01*
X179000Y118900D02*
X183362D01*
X83263Y122309D02*
Y127337D01*
X81861Y128739D02*
X83263Y127337D01*
X61861Y128739D02*
X81861D01*
X41800Y148800D02*
X61861Y128739D01*
X41800Y148800D02*
Y158000D01*
X40300Y159500D02*
X41800Y158000D01*
X31150Y159500D02*
X40300D01*
X84838Y122309D02*
Y127662D01*
X82300Y130200D02*
X84838Y127662D01*
X62900Y130200D02*
X82300D01*
X43700Y149400D02*
X62900Y130200D01*
X43700Y149400D02*
Y154700D01*
X15100D02*
X39700D01*
X13650Y156150D02*
X15100Y154700D01*
X13650Y156150D02*
Y159500D01*
X86200Y122522D02*
X86413Y122309D01*
X86200Y122522D02*
Y127714D01*
X82714Y131200D02*
X86200Y127714D01*
X64300Y131200D02*
X82714D01*
X45200Y150300D02*
X64300Y131200D01*
X45200Y150300D02*
Y165100D01*
X40800Y169500D02*
X45200Y165100D01*
X31150Y169500D02*
X40800D01*
X66868Y148732D02*
Y158332D01*
Y148732D02*
X85781Y129819D01*
X87200D01*
X68300Y149800D02*
Y156600D01*
Y149800D02*
X81900Y136200D01*
X91000D01*
X92000Y135200D01*
Y131000D02*
Y135200D01*
X90819Y129819D02*
X92000Y131000D01*
X89700Y129819D02*
X90819D01*
X91137Y122309D02*
Y128337D01*
X93500Y130700D01*
Y135600D01*
X85500Y143600D02*
X93500Y135600D01*
X85500Y143600D02*
Y158200D01*
X63500Y180200D02*
X85500Y158200D01*
X63500Y180200D02*
Y185000D01*
X62300Y186200D02*
X63500Y185000D01*
X58486Y186200D02*
X62300D01*
X56841Y184555D02*
X58486Y186200D01*
X56841Y183841D02*
Y184555D01*
X56565Y183565D02*
X56841Y183841D01*
X17715Y183565D02*
X56565D01*
X13650Y179500D02*
X17715Y183565D01*
X64900Y148200D02*
Y158332D01*
Y148200D02*
X73700Y139400D01*
X92000D02*
X94800Y136600D01*
Y130586D02*
Y136600D01*
X92712Y128498D02*
X94800Y130586D01*
X92712Y122309D02*
Y128498D01*
X62931Y146969D02*
X72200Y137700D01*
X96300Y130672D02*
Y137700D01*
X94287Y128658D02*
X96300Y130672D01*
X94287Y122309D02*
Y128658D01*
X59500Y154781D02*
X62881D01*
X62931Y154831D01*
Y146969D02*
Y154831D01*
Y158332D01*
X87200Y129819D02*
X87987Y129032D01*
X89562Y122309D02*
Y125500D01*
Y129681D01*
X149900Y98200D02*
X154400Y93700D01*
X87987Y122309D02*
Y127000D01*
Y129032D01*
X163975Y84272D02*
Y88725D01*
X151300Y99700D02*
X153000D01*
X163975Y88725D01*
D58*
X71838Y112762D02*
X75291D01*
X68302Y121200D02*
X71800D01*
X152100Y88000D02*
X153996Y86104D01*
X154100D01*
X103700Y99502D02*
X106002D01*
X107775Y79725D02*
Y82231D01*
X177015Y109712D02*
X179078D01*
X179316Y109474D01*
Y101429D02*
Y109474D01*
Y101429D02*
X179755Y100989D01*
X187800D01*
X188090Y100700D01*
Y98739D02*
Y100700D01*
X188039Y98688D02*
X188090Y98739D01*
X212570Y108830D02*
Y108873D01*
X81688Y92990D02*
Y98491D01*
X78539Y91339D02*
Y98491D01*
X74600Y87400D02*
X78539Y91339D01*
X74600Y83200D02*
Y87400D01*
Y83200D02*
X75002Y82798D01*
X76700D01*
X78602D01*
X79469Y81932D01*
X82141D01*
X80113Y90987D02*
Y98491D01*
Y90987D02*
X81900Y89200D01*
X86400D01*
X87259Y88341D01*
Y85869D02*
Y88341D01*
X106200Y86168D02*
X110513D01*
X111200Y85481D01*
X99110Y101739D02*
X101464D01*
X103700Y99502D01*
X99110Y119061D02*
X102066D01*
X102500Y119495D01*
X126226Y133837D02*
X128194Y131869D01*
X132219Y142000D02*
X134500D01*
X126198Y139902D02*
Y142300D01*
X102500Y119495D02*
Y120198D01*
X72113Y103313D02*
X75291D01*
X72175Y101739D02*
X75291D01*
X72113Y100016D02*
Y103313D01*
X88450Y132181D02*
Y134150D01*
X87200Y132181D02*
X88450D01*
X89700D01*
X125300Y17750D02*
X129400Y13650D01*
X111200Y85481D02*
X112619D01*
X125300Y72800D01*
Y17750D02*
Y72800D01*
X91137Y96378D02*
X101347Y86168D01*
X91137Y96378D02*
Y98491D01*
X101347Y86168D02*
X106200D01*
X87259Y85869D02*
X90647D01*
X91900Y84615D01*
Y84302D02*
Y84615D01*
X99110Y119061D02*
X100000D01*
Y123600D01*
X68998Y99902D02*
X72000D01*
X126198Y142300D02*
Y147502D01*
D59*
X154100Y83742D02*
X154142Y83700D01*
D60*
X72111Y156900D02*
X83900D01*
X36250Y144400D02*
X38100D01*
X31150Y149500D02*
X36250Y144400D01*
D61*
X212783Y81031D02*
D03*
X212586Y100716D02*
D03*
D62*
X224200Y76700D02*
D03*
X224198Y105046D02*
D03*
D63*
X80113Y117487D02*
D03*
X84838D02*
D03*
X89562D02*
D03*
X94287D02*
D03*
X80113Y112762D02*
D03*
X84838D02*
D03*
X89562D02*
D03*
X94287D02*
D03*
X80113Y108038D02*
D03*
X84838D02*
D03*
X89562D02*
D03*
X94287D02*
D03*
X80113Y103313D02*
D03*
X84838D02*
D03*
X89562D02*
D03*
X94287D02*
D03*
D64*
X71800Y121200D02*
D03*
X63000D02*
D03*
X2200Y141500D02*
D03*
Y149200D02*
D03*
Y157000D02*
D03*
Y164800D02*
D03*
Y176400D02*
D03*
Y184200D02*
D03*
Y192000D02*
D03*
X2900Y198200D02*
D03*
X9500D02*
D03*
X17100D02*
D03*
X24000Y198100D02*
D03*
X32100Y198200D02*
D03*
X40600Y197700D02*
D03*
X48700Y198000D02*
D03*
X56500Y197900D02*
D03*
X62800D02*
D03*
X68900D02*
D03*
X76000Y197800D02*
D03*
X82800Y197900D02*
D03*
X86600Y197800D02*
D03*
X93500Y197600D02*
D03*
X100500Y197800D02*
D03*
X107900D02*
D03*
X114600Y197900D02*
D03*
X121500D02*
D03*
X131300D02*
D03*
X136900Y198000D02*
D03*
X141800Y197900D02*
D03*
X147000Y198000D02*
D03*
X151400D02*
D03*
X156600Y198100D02*
D03*
X162600D02*
D03*
X167600Y198000D02*
D03*
X173500Y197900D02*
D03*
X178200Y198000D02*
D03*
X183000D02*
D03*
X188500D02*
D03*
X195200Y198100D02*
D03*
X200700Y198200D02*
D03*
X205200Y198100D02*
D03*
X211000Y198200D02*
D03*
X215200Y197900D02*
D03*
X220200Y198000D02*
D03*
X226900Y196400D02*
D03*
Y191300D02*
D03*
Y185600D02*
D03*
Y179400D02*
D03*
Y173700D02*
D03*
Y169900D02*
D03*
Y164200D02*
D03*
Y159800D02*
D03*
Y155400D02*
D03*
Y151000D02*
D03*
Y147200D02*
D03*
Y142800D02*
D03*
Y138400D02*
D03*
Y134000D02*
D03*
Y129600D02*
D03*
Y124500D02*
D03*
Y120700D02*
D03*
X227000Y116900D02*
D03*
Y112500D02*
D03*
Y64200D02*
D03*
Y59800D02*
D03*
Y55900D02*
D03*
Y32800D02*
D03*
Y27100D02*
D03*
Y22700D02*
D03*
Y18900D02*
D03*
Y15700D02*
D03*
Y11900D02*
D03*
Y8100D02*
D03*
Y4900D02*
D03*
Y1700D02*
D03*
X223000Y1800D02*
D03*
X219600Y1700D02*
D03*
X197000Y2000D02*
D03*
X201000Y1900D02*
D03*
X204800D02*
D03*
X208300D02*
D03*
X211500D02*
D03*
X215600D02*
D03*
X173900Y2000D02*
D03*
X177900Y1900D02*
D03*
X181700D02*
D03*
X185200D02*
D03*
X188400D02*
D03*
X192500D02*
D03*
X92900D02*
D03*
X96900Y1800D02*
D03*
X100700D02*
D03*
X104200D02*
D03*
X107400D02*
D03*
X111500D02*
D03*
X70600Y2000D02*
D03*
X74600Y1900D02*
D03*
X78400D02*
D03*
X81900D02*
D03*
X85100D02*
D03*
X89200D02*
D03*
X47800Y2100D02*
D03*
X51800Y2000D02*
D03*
X55600D02*
D03*
X59100D02*
D03*
X62300D02*
D03*
X66400D02*
D03*
X23500Y2300D02*
D03*
X27500Y2200D02*
D03*
X31300D02*
D03*
X34800D02*
D03*
X38000D02*
D03*
X42100D02*
D03*
X20300Y2300D02*
D03*
X16200D02*
D03*
X13000D02*
D03*
X9500D02*
D03*
X5700D02*
D03*
X1700Y2400D02*
D03*
Y7400D02*
D03*
Y11100D02*
D03*
Y14800D02*
D03*
Y18500D02*
D03*
Y22200D02*
D03*
Y25900D02*
D03*
Y29600D02*
D03*
Y33300D02*
D03*
Y37000D02*
D03*
Y40700D02*
D03*
Y44400D02*
D03*
Y48100D02*
D03*
Y51800D02*
D03*
Y55500D02*
D03*
Y59200D02*
D03*
Y62900D02*
D03*
X1600Y66800D02*
D03*
Y71800D02*
D03*
Y76800D02*
D03*
Y81700D02*
D03*
Y85400D02*
D03*
Y90300D02*
D03*
Y95300D02*
D03*
Y100300D02*
D03*
X2835Y114140D02*
D03*
Y116740D02*
D03*
Y118940D02*
D03*
Y121140D02*
D03*
Y123340D02*
D03*
Y125540D02*
D03*
Y127740D02*
D03*
Y129940D02*
D03*
X9635Y131740D02*
D03*
X11935D02*
D03*
X14435D02*
D03*
X16835Y128940D02*
D03*
Y126340D02*
D03*
Y123740D02*
D03*
Y121540D02*
D03*
Y118940D02*
D03*
Y116740D02*
D03*
Y114540D02*
D03*
Y111940D02*
D03*
X108900Y143284D02*
D03*
X172488Y67812D02*
D03*
X171677Y75323D02*
D03*
X83900Y156900D02*
D03*
X75800Y153400D02*
D03*
X56800Y150700D02*
D03*
X15100Y184800D02*
D03*
X33900Y185400D02*
D03*
X44600Y179100D02*
D03*
X48300Y174200D02*
D03*
X88450Y134150D02*
D03*
X41012Y125288D02*
D03*
X45400Y14100D02*
D03*
X42600Y119100D02*
D03*
X47800Y31200D02*
D03*
X44600Y117487D02*
D03*
X56300Y13700D02*
D03*
X46400Y115912D02*
D03*
X62400Y42400D02*
D03*
X48200Y114337D02*
D03*
X67200Y17300D02*
D03*
X83800Y90900D02*
D03*
X111732Y87853D02*
D03*
X121700Y87700D02*
D03*
X102100Y129500D02*
D03*
X97300Y128600D02*
D03*
X100000Y123600D02*
D03*
X38100Y144400D02*
D03*
X191913Y167213D02*
D03*
X218487Y167513D02*
D03*
X176800Y32700D02*
D03*
X200787Y32187D02*
D03*
X11900Y142700D02*
D03*
X82600Y191100D02*
D03*
X92000Y158600D02*
D03*
X98500Y8900D02*
D03*
X165500Y15600D02*
D03*
X155400Y117200D02*
D03*
X178000Y124100D02*
D03*
X202653Y156253D02*
D03*
X222953Y156353D02*
D03*
X202747Y133253D02*
D03*
X223053D02*
D03*
X72663Y105037D02*
D03*
X68998Y99902D02*
D03*
X67200Y104000D02*
D03*
X61900Y112400D02*
D03*
X147200Y165500D02*
D03*
X4135Y109140D02*
D03*
X5666Y132809D02*
D03*
X9600Y102200D02*
D03*
X17000D02*
D03*
X188800Y64900D02*
D03*
X187100Y46100D02*
D03*
X202011Y100489D02*
D03*
X208191Y95991D02*
D03*
X126198Y147502D02*
D03*
X128402Y144398D02*
D03*
X177200Y166400D02*
D03*
D65*
X71838Y112762D02*
D03*
X162400Y77973D02*
D03*
X159250Y81123D02*
D03*
Y79548D02*
D03*
X160825Y81123D02*
D03*
X162400D02*
D03*
X153300Y78100D02*
D03*
X147900D02*
D03*
X156100Y83700D02*
D03*
X194700Y40900D02*
D03*
X196800Y57400D02*
D03*
X202300Y41400D02*
D03*
X201300Y57900D02*
D03*
X124258Y135805D02*
D03*
X128194Y129900D02*
D03*
X126226Y131869D02*
D03*
X113531D02*
D03*
X190247Y156253D02*
D03*
X190553Y150347D02*
D03*
X190700Y147100D02*
D03*
X126226Y135805D02*
D03*
X130200Y140000D02*
D03*
X128100Y138800D02*
D03*
X189700Y130100D02*
D03*
Y133800D02*
D03*
X187700Y130000D02*
D03*
Y135800D02*
D03*
X128194Y133837D02*
D03*
X130163D02*
D03*
Y131869D02*
D03*
X132132D02*
D03*
Y129900D02*
D03*
X134100D02*
D03*
X132132Y127931D02*
D03*
X210000Y133400D02*
D03*
X209900Y126100D02*
D03*
X186200Y129900D02*
D03*
X218665Y146735D02*
D03*
X124258Y127931D02*
D03*
X126226D02*
D03*
X128194D02*
D03*
X214335Y144335D02*
D03*
X208500Y142800D02*
D03*
X122100Y111200D02*
D03*
X132187Y109613D02*
D03*
X130200Y108100D02*
D03*
X128800Y104400D02*
D03*
X126226Y133837D02*
D03*
X132132D02*
D03*
X126200Y139900D02*
D03*
X134500Y142000D02*
D03*
X114900Y148400D02*
D03*
X132200Y144100D02*
D03*
X130500Y147100D02*
D03*
X128900Y152300D02*
D03*
X118100Y114337D02*
D03*
X112200Y148300D02*
D03*
X106800Y112700D02*
D03*
Y116000D02*
D03*
X62931Y158332D02*
D03*
X64900Y160300D02*
D03*
Y158332D02*
D03*
X66868D02*
D03*
X78539Y127539D02*
D03*
X135200Y156875D02*
D03*
X80113Y127487D02*
D03*
X135200Y155300D02*
D03*
X81688Y125288D02*
D03*
X76900D02*
D03*
X88000Y96400D02*
D03*
X86500Y91500D02*
D03*
X87987Y127000D02*
D03*
X89562Y125500D02*
D03*
X163975Y82698D02*
D03*
D66*
X152100Y88000D02*
D03*
X112100Y80000D02*
D03*
X89700Y79500D02*
D03*
X78702Y85002D02*
D03*
X106002Y99502D02*
D03*
X99200Y98400D02*
D03*
X138900Y142300D02*
D03*
X164700Y34900D02*
D03*
X183753Y68547D02*
D03*
X98400Y35000D02*
D03*
X210000Y48800D02*
D03*
X182000Y49900D02*
D03*
X132132Y123932D02*
D03*
X124258Y123442D02*
D03*
D67*
X107775Y79725D02*
D03*
X197500Y103500D02*
D03*
X194400Y71800D02*
D03*
X136200Y66500D02*
D03*
X157800Y87600D02*
D03*
X120700Y150600D02*
D03*
X120300Y124100D02*
D03*
X127200Y106500D02*
D03*
X116900Y122000D02*
D03*
X128600Y83500D02*
D03*
D68*
X168800Y59500D02*
D03*
X175500Y56500D02*
D03*
X114900Y135500D02*
D03*
X64900Y165100D02*
D03*
X167900Y108000D02*
D03*
X179000Y118900D02*
D03*
X43700Y154700D02*
D03*
X39700D02*
D03*
X68300Y156600D02*
D03*
X73700Y139400D02*
D03*
X92000D02*
D03*
X72200Y137700D02*
D03*
X96300D02*
D03*
X149900Y98200D02*
D03*
X154400Y93700D02*
D03*
X151300Y99700D02*
D03*
M02*
