G04 Layer_Color=65535*
%FSLAX25Y25*%
%MOIN*%
G70*
G01*
G75*
%ADD54C,0.00800*%
%ADD55C,0.01000*%
%ADD57C,0.00600*%
%ADD58C,0.00700*%
%ADD59C,0.00400*%
%ADD69C,0.00500*%
%ADD70C,0.00394*%
%ADD71C,0.00984*%
%ADD72C,0.02000*%
%ADD73C,0.00492*%
%ADD74C,0.00787*%
D54*
X175539Y111877D02*
X178196Y114535D01*
D55*
X114400Y32400D02*
X164400D01*
Y12400D02*
Y32400D01*
X114400Y12400D02*
X164400D01*
X114400D02*
Y32400D01*
X172200Y173600D02*
Y176600D01*
Y180600D02*
Y183600D01*
X182200Y173600D02*
Y183600D01*
X142200D02*
X182200D01*
X142200Y173600D02*
X182200D01*
X142200D02*
Y183600D01*
X84000Y169000D02*
X134000D01*
X84000D02*
Y189000D01*
X134000D01*
Y169000D02*
Y189000D01*
X32400Y144500D02*
Y194500D01*
X12400Y144500D02*
X32400D01*
X12400D02*
Y194500D01*
X32400D01*
X47400Y32400D02*
X97400D01*
Y12400D02*
Y32400D01*
X47400Y12400D02*
X97400D01*
X47400D02*
Y32400D01*
X19466Y58699D02*
X18133D01*
X18799D01*
Y55366D01*
X18133Y54700D01*
X17467D01*
X16800Y55366D01*
X20799Y58699D02*
Y54700D01*
X22798D01*
X23464Y55366D01*
Y58032D01*
X22798Y58699D01*
X20799D01*
X24797D02*
Y54700D01*
X26797D01*
X27463Y55366D01*
Y56033D01*
X26797Y56699D01*
X24797D01*
X26797D01*
X27463Y57366D01*
Y58032D01*
X26797Y58699D01*
X24797D01*
X28796Y56699D02*
X31462D01*
X32795Y58032D02*
X33461Y58699D01*
X34794D01*
X35461Y58032D01*
Y55366D01*
X34794Y54700D01*
X33461D01*
X32795Y55366D01*
Y58032D01*
X36794D02*
X37460Y58699D01*
X38793D01*
X39459Y58032D01*
Y55366D01*
X38793Y54700D01*
X37460D01*
X36794Y55366D01*
Y58032D01*
X40792Y54700D02*
X42125D01*
X41459D01*
Y58699D01*
X40792Y58032D01*
X48123Y57366D02*
X49456Y54700D01*
X50789Y57366D01*
X52122Y54700D02*
X53455D01*
X52788D01*
Y58699D01*
X52122Y58032D01*
X55454Y54700D02*
Y55366D01*
X56121D01*
Y54700D01*
X55454D01*
X58786Y58032D02*
X59453Y58699D01*
X60786D01*
X61452Y58032D01*
Y55366D01*
X60786Y54700D01*
X59453D01*
X58786Y55366D01*
Y58032D01*
X68117Y54700D02*
X66784Y56033D01*
Y57366D01*
X68117Y58699D01*
X70783Y54700D02*
Y58032D01*
Y56699D01*
X70116D01*
X71449D01*
X70783D01*
Y58032D01*
X71449Y58699D01*
X73448Y57366D02*
Y54700D01*
Y56033D01*
X74115Y56699D01*
X74781Y57366D01*
X75448D01*
X78114Y54700D02*
X79447D01*
X80113Y55366D01*
Y56699D01*
X79447Y57366D01*
X78114D01*
X77447Y56699D01*
Y55366D01*
X78114Y54700D01*
X81446D02*
Y57366D01*
X82112D01*
X82779Y56699D01*
Y54700D01*
Y56699D01*
X83445Y57366D01*
X84112Y56699D01*
Y54700D01*
X92109Y58699D02*
X90776D01*
X91443D01*
Y55366D01*
X90776Y54700D01*
X90110D01*
X89443Y55366D01*
X93442Y58699D02*
Y54700D01*
X94775Y56033D01*
X96108Y54700D01*
Y58699D01*
X97441D02*
Y54700D01*
X99440D01*
X100107Y55366D01*
Y56033D01*
X99440Y56699D01*
X97441D01*
X99440D01*
X100107Y57366D01*
Y58032D01*
X99440Y58699D01*
X97441D01*
X101439Y56699D02*
X104105D01*
X105438Y58032D02*
X106105Y58699D01*
X107437D01*
X108104Y58032D01*
Y55366D01*
X107437Y54700D01*
X106105D01*
X105438Y55366D01*
Y58032D01*
X109437D02*
X110103Y58699D01*
X111436D01*
X112103Y58032D01*
Y55366D01*
X111436Y54700D01*
X110103D01*
X109437Y55366D01*
Y58032D01*
X113435Y54700D02*
X114768D01*
X114102D01*
Y58699D01*
X113435Y58032D01*
X120766Y57366D02*
X122099Y54700D01*
X123432Y57366D01*
X124765Y58032D02*
X125432Y58699D01*
X126765D01*
X127431Y58032D01*
Y57366D01*
X126765Y56699D01*
X126098D01*
X126765D01*
X127431Y56033D01*
Y55366D01*
X126765Y54700D01*
X125432D01*
X124765Y55366D01*
X128764Y54700D02*
Y55366D01*
X129430D01*
Y54700D01*
X128764D01*
X132096Y58032D02*
X132763Y58699D01*
X134096D01*
X134762Y58032D01*
Y57366D01*
X134096Y56699D01*
X134762Y56033D01*
Y55366D01*
X134096Y54700D01*
X132763D01*
X132096Y55366D01*
Y56033D01*
X132763Y56699D01*
X132096Y57366D01*
Y58032D01*
X132763Y56699D02*
X134096D01*
X136095Y54700D02*
X137428Y56033D01*
Y57366D01*
X136095Y58699D01*
D57*
X211502Y180600D02*
G03*
X211502Y180600I-6302J0D01*
G01*
X193802Y18600D02*
G03*
X193802Y18600I-6302J0D01*
G01*
X193389Y168789D02*
Y192411D01*
Y168789D02*
X217011D01*
Y192411D01*
X193389D02*
X217011D01*
X70329Y110185D02*
X70329Y107036D01*
X64030D02*
Y110185D01*
X64818Y108630D02*
X65605D01*
X199311Y6789D02*
Y30411D01*
X175689D02*
X199311D01*
X175689Y6789D02*
Y30411D01*
Y6789D02*
X199311D01*
D58*
X215800Y51573D02*
X218800D01*
X215800Y47073D02*
Y51573D01*
Y36573D02*
Y41073D01*
Y36573D02*
X218800D01*
X52600Y181100D02*
Y184100D01*
Y181100D02*
X57100D01*
X63100D02*
X67600D01*
Y184100D01*
D59*
X116700Y5559D02*
Y4309D01*
X116950Y4059D01*
X117450D01*
X117700Y4309D01*
Y5559D01*
X118200Y4059D02*
Y5059D01*
X118699Y5559D01*
X119199Y5059D01*
Y4059D01*
Y4809D01*
X118200D01*
X119699Y4059D02*
Y5559D01*
X120449D01*
X120699Y5309D01*
Y4809D01*
X120449Y4559D01*
X119699D01*
X120199D02*
X120699Y4059D01*
X121199Y5559D02*
X122198D01*
X121698D01*
Y4059D01*
X116700Y1300D02*
Y2799D01*
X117450D01*
X117700Y2550D01*
Y2050D01*
X117450Y1800D01*
X116700D01*
X117200D02*
X117700Y1300D01*
X118200Y2799D02*
X119199Y1300D01*
Y2799D02*
X118200Y1300D01*
X1400Y191709D02*
Y190209D01*
Y190959D01*
X2400D01*
Y191709D01*
Y190209D01*
X2899D02*
Y191209D01*
X3399Y191709D01*
X3899Y191209D01*
Y190209D01*
Y190959D01*
X2899D01*
X4399Y190209D02*
Y191709D01*
X5149D01*
X5399Y191459D01*
Y190959D01*
X5149Y190709D01*
X4399D01*
X2400Y188950D02*
X1400D01*
Y187450D01*
X2400D01*
X1400Y188200D02*
X1900D01*
X2899Y187450D02*
Y188950D01*
X3899Y187450D01*
Y188950D01*
X39500Y191559D02*
Y190059D01*
Y190809D01*
X40500D01*
Y191559D01*
Y190059D01*
X40999D02*
Y191059D01*
X41499Y191559D01*
X41999Y191059D01*
Y190059D01*
Y190809D01*
X40999D01*
X42499Y190059D02*
Y191559D01*
X43249D01*
X43499Y191309D01*
Y190809D01*
X43249Y190559D01*
X42499D01*
X39500Y188800D02*
X40500D01*
X40000D01*
Y187300D01*
X40999D02*
Y188800D01*
X41749D01*
X41999Y188550D01*
Y188050D01*
X41749Y187800D01*
X40999D01*
X41499D02*
X41999Y187300D01*
X42499Y188800D02*
X42999D01*
X42749D01*
Y187300D01*
X42499D01*
X42999D01*
X44748Y188550D02*
X44498Y188800D01*
X43999D01*
X43749Y188550D01*
Y187550D01*
X43999Y187300D01*
X44498D01*
X44748Y187550D01*
Y188050D01*
X44249D01*
X70800Y43859D02*
Y42609D01*
X71050Y42359D01*
X71550D01*
X71800Y42609D01*
Y43859D01*
X72299Y42359D02*
Y43359D01*
X72799Y43859D01*
X73299Y43359D01*
Y42359D01*
Y43109D01*
X72299D01*
X73799Y42359D02*
Y43859D01*
X74549D01*
X74799Y43609D01*
Y43109D01*
X74549Y42859D01*
X73799D01*
X74299D02*
X74799Y42359D01*
X75299Y43859D02*
X76298D01*
X75798D01*
Y42359D01*
X70800Y39600D02*
Y41100D01*
X71550D01*
X71800Y40850D01*
Y40350D01*
X71550Y40100D01*
X70800D01*
X71300D02*
X71800Y39600D01*
X72299Y41100D02*
X73299Y39600D01*
Y41100D02*
X72299Y39600D01*
X82500Y78399D02*
X83500Y76900D01*
Y78399D02*
X82500Y76900D01*
X84000D02*
X84499D01*
X84249D01*
Y78399D01*
X84000Y78150D01*
X85249D02*
X85499Y78399D01*
X85999D01*
X86249Y78150D01*
Y77150D01*
X85999Y76900D01*
X85499D01*
X85249Y77150D01*
Y78150D01*
X86749D02*
X86999Y78399D01*
X87498D01*
X87748Y78150D01*
Y77150D01*
X87498Y76900D01*
X86999D01*
X86749Y77150D01*
Y78150D01*
X221900Y69973D02*
X221400D01*
X221650D01*
Y68723D01*
X221400Y68473D01*
X221150D01*
X220900Y68723D01*
X222399Y69723D02*
X222649Y69973D01*
X223149D01*
X223399Y69723D01*
Y69473D01*
X223149Y69223D01*
X222899D01*
X223149D01*
X223399Y68973D01*
Y68723D01*
X223149Y68473D01*
X222649D01*
X222399Y68723D01*
X223899Y69723D02*
X224149Y69973D01*
X224649D01*
X224899Y69723D01*
Y68723D01*
X224649Y68473D01*
X224149D01*
X223899Y68723D01*
Y69723D01*
X225399D02*
X225648Y69973D01*
X226148D01*
X226398Y69723D01*
Y68723D01*
X226148Y68473D01*
X225648D01*
X225399Y68723D01*
Y69723D01*
X104600Y89050D02*
Y90050D01*
X104350Y90299D01*
X103850D01*
X103600Y90050D01*
Y89050D01*
X103850Y88800D01*
X104350D01*
X104100Y89300D02*
X104600Y88800D01*
X104350D02*
X104600Y89050D01*
X105099Y88800D02*
X105599D01*
X105349D01*
Y90299D01*
X105099Y90050D01*
X106349D02*
X106599Y90299D01*
X107099D01*
X107349Y90050D01*
Y89050D01*
X107099Y88800D01*
X106599D01*
X106349Y89050D01*
Y90050D01*
X107849D02*
X108099Y90299D01*
X108598D01*
X108848Y90050D01*
Y89050D01*
X108598Y88800D01*
X108099D01*
X107849Y89050D01*
Y90050D01*
X203100Y42473D02*
X204350D01*
X204600Y42723D01*
Y43223D01*
X204350Y43473D01*
X203100D01*
X203350Y43973D02*
X203100Y44223D01*
Y44723D01*
X203350Y44972D01*
X203600D01*
X203850Y44723D01*
Y44473D01*
Y44723D01*
X204100Y44972D01*
X204350D01*
X204600Y44723D01*
Y44223D01*
X204350Y43973D01*
X203350Y45472D02*
X203100Y45722D01*
Y46222D01*
X203350Y46472D01*
X204350D01*
X204600Y46222D01*
Y45722D01*
X204350Y45472D01*
X203350D01*
X204600Y46972D02*
Y47472D01*
Y47222D01*
X203100D01*
X203350Y46972D01*
X144379Y112184D02*
Y110684D01*
X145129D01*
X145378Y110934D01*
Y111934D01*
X145129Y112184D01*
X144379D01*
X146878Y110684D02*
X145878D01*
X146878Y111684D01*
Y111934D01*
X146628Y112184D01*
X146128D01*
X145878Y111934D01*
X147378D02*
X147628Y112184D01*
X148127D01*
X148378Y111934D01*
Y110934D01*
X148127Y110684D01*
X147628D01*
X147378Y110934D01*
Y111934D01*
X149627Y110684D02*
Y112184D01*
X148877Y111434D01*
X149877D01*
X194900Y62950D02*
Y63950D01*
X194650Y64200D01*
X194150D01*
X193900Y63950D01*
Y62950D01*
X194150Y62700D01*
X194650D01*
X194400Y63200D02*
X194900Y62700D01*
X194650D02*
X194900Y62950D01*
X195399Y63950D02*
X195649Y64200D01*
X196149D01*
X196399Y63950D01*
Y63700D01*
X196149Y63450D01*
X195899D01*
X196149D01*
X196399Y63200D01*
Y62950D01*
X196149Y62700D01*
X195649D01*
X195399Y62950D01*
X196899Y63950D02*
X197149Y64200D01*
X197649D01*
X197899Y63950D01*
Y62950D01*
X197649Y62700D01*
X197149D01*
X196899Y62950D01*
Y63950D01*
X198399D02*
X198649Y64200D01*
X199148D01*
X199398Y63950D01*
Y62950D01*
X199148Y62700D01*
X198649D01*
X198399Y62950D01*
Y63950D01*
X197700Y78373D02*
Y79873D01*
X198450D01*
X198700Y79623D01*
Y79123D01*
X198450Y78873D01*
X197700D01*
X198200D02*
X198700Y78373D01*
X199199Y79623D02*
X199450Y79873D01*
X199949D01*
X200199Y79623D01*
Y79373D01*
X199949Y79123D01*
X199699D01*
X199949D01*
X200199Y78873D01*
Y78623D01*
X199949Y78373D01*
X199450D01*
X199199Y78623D01*
X200699Y78373D02*
X201199D01*
X200949D01*
Y79873D01*
X200699Y79623D01*
X201949D02*
X202199Y79873D01*
X202698D01*
X202948Y79623D01*
Y78623D01*
X202698Y78373D01*
X202199D01*
X201949Y78623D01*
Y79623D01*
X208000Y111673D02*
Y113173D01*
X208750D01*
X209000Y112923D01*
Y112423D01*
X208750Y112173D01*
X208000D01*
X208500D02*
X209000Y111673D01*
X209500Y112923D02*
X209749Y113173D01*
X210249D01*
X210499Y112923D01*
Y112673D01*
X210249Y112423D01*
X209999D01*
X210249D01*
X210499Y112173D01*
Y111923D01*
X210249Y111673D01*
X209749D01*
X209500Y111923D01*
X210999Y112923D02*
X211249Y113173D01*
X211749D01*
X211999Y112923D01*
Y111923D01*
X211749Y111673D01*
X211249D01*
X210999Y111923D01*
Y112923D01*
X212499D02*
X212749Y113173D01*
X213248D01*
X213498Y112923D01*
Y112673D01*
X213248Y112423D01*
X213498Y112173D01*
Y111923D01*
X213248Y111673D01*
X212749D01*
X212499Y111923D01*
Y112173D01*
X212749Y112423D01*
X212499Y112673D01*
Y112923D01*
X212749Y112423D02*
X213248D01*
X146100Y71623D02*
X144600D01*
Y72373D01*
X144850Y72623D01*
X145350D01*
X145600Y72373D01*
Y71623D01*
Y72123D02*
X146100Y72623D01*
X144600Y73122D02*
Y74122D01*
Y73622D01*
X146100D01*
X144850Y74622D02*
X144600Y74872D01*
Y75372D01*
X144850Y75622D01*
X145100D01*
X145350Y75372D01*
Y75122D01*
Y75372D01*
X145600Y75622D01*
X145850D01*
X146100Y75372D01*
Y74872D01*
X145850Y74622D01*
X144850Y76121D02*
X144600Y76371D01*
Y76871D01*
X144850Y77121D01*
X145850D01*
X146100Y76871D01*
Y76371D01*
X145850Y76121D01*
X144850D01*
Y77621D02*
X144600Y77871D01*
Y78371D01*
X144850Y78621D01*
X145850D01*
X146100Y78371D01*
Y77871D01*
X145850Y77621D01*
X144850D01*
X73500Y125370D02*
Y124120D01*
X73750Y123871D01*
X74250D01*
X74500Y124120D01*
Y125370D01*
X74999Y123871D02*
X75499D01*
X75249D01*
Y125370D01*
X74999Y125120D01*
X76249D02*
X76499Y125370D01*
X76999D01*
X77249Y125120D01*
Y124120D01*
X76999Y123871D01*
X76499D01*
X76249Y124120D01*
Y125120D01*
X77749D02*
X77999Y125370D01*
X78498D01*
X78748Y125120D01*
Y124120D01*
X78498Y123871D01*
X77999D01*
X77749Y124120D01*
Y125120D01*
X181600Y95273D02*
Y94023D01*
X181850Y93773D01*
X182350D01*
X182600Y94023D01*
Y95273D01*
X183099Y95023D02*
X183350Y95273D01*
X183849D01*
X184099Y95023D01*
Y94773D01*
X183849Y94523D01*
X183599D01*
X183849D01*
X184099Y94273D01*
Y94023D01*
X183849Y93773D01*
X183350D01*
X183099Y94023D01*
X184599Y95023D02*
X184849Y95273D01*
X185349D01*
X185599Y95023D01*
Y94023D01*
X185349Y93773D01*
X184849D01*
X184599Y94023D01*
Y95023D01*
X187098Y93773D02*
X186099D01*
X187098Y94773D01*
Y95023D01*
X186848Y95273D01*
X186348D01*
X186099Y95023D01*
X113100Y20000D02*
X111600D01*
Y20750D01*
X111850Y21000D01*
X112350D01*
X112600Y20750D01*
Y20000D01*
X113100Y21499D02*
Y21999D01*
Y21749D01*
X111600D01*
X111850Y21499D01*
Y22749D02*
X111600Y22999D01*
Y23499D01*
X111850Y23749D01*
X112850D01*
X113100Y23499D01*
Y22999D01*
X112850Y22749D01*
X111850D01*
Y24249D02*
X111600Y24499D01*
Y24998D01*
X111850Y25248D01*
X112100D01*
X112350Y24998D01*
Y24748D01*
Y24998D01*
X112600Y25248D01*
X112850D01*
X113100Y24998D01*
Y24499D01*
X112850Y24249D01*
X159500Y165200D02*
Y166700D01*
X160250D01*
X160500Y166450D01*
Y165950D01*
X160250Y165700D01*
X159500D01*
X161000Y165200D02*
X161499D01*
X161249D01*
Y166700D01*
X161000Y166450D01*
X162249D02*
X162499Y166700D01*
X162999D01*
X163249Y166450D01*
Y165450D01*
X162999Y165200D01*
X162499D01*
X162249Y165450D01*
Y166450D01*
X164498Y165200D02*
Y166700D01*
X163749Y165950D01*
X164748D01*
X133479Y119984D02*
Y118484D01*
X134478D01*
X135978D02*
X134978D01*
X135978Y119484D01*
Y119734D01*
X135728Y119984D01*
X135228D01*
X134978Y119734D01*
X136478D02*
X136728Y119984D01*
X137227D01*
X137478Y119734D01*
Y118734D01*
X137227Y118484D01*
X136728D01*
X136478Y118734D01*
Y119734D01*
X137977D02*
X138227Y119984D01*
X138727D01*
X138977Y119734D01*
Y118734D01*
X138727Y118484D01*
X138227D01*
X137977Y118734D01*
Y119734D01*
X160900Y65822D02*
Y64323D01*
X161900D01*
X162399Y65572D02*
X162650Y65822D01*
X163149D01*
X163399Y65572D01*
Y65323D01*
X163149Y65073D01*
X162899D01*
X163149D01*
X163399Y64823D01*
Y64573D01*
X163149Y64323D01*
X162650D01*
X162399Y64573D01*
X163899Y65572D02*
X164149Y65822D01*
X164649D01*
X164899Y65572D01*
Y64573D01*
X164649Y64323D01*
X164149D01*
X163899Y64573D01*
Y65572D01*
X165399D02*
X165648Y65822D01*
X166148D01*
X166398Y65572D01*
Y64573D01*
X166148Y64323D01*
X165648D01*
X165399Y64573D01*
Y65572D01*
X177900Y76022D02*
Y74523D01*
X178650D01*
X178900Y74773D01*
Y75772D01*
X178650Y76022D01*
X177900D01*
X179400Y75772D02*
X179649Y76022D01*
X180149D01*
X180399Y75772D01*
Y75523D01*
X180149Y75273D01*
X179899D01*
X180149D01*
X180399Y75023D01*
Y74773D01*
X180149Y74523D01*
X179649D01*
X179400Y74773D01*
X180899Y75772D02*
X181149Y76022D01*
X181649D01*
X181899Y75772D01*
Y74773D01*
X181649Y74523D01*
X181149D01*
X180899Y74773D01*
Y75772D01*
X182399D02*
X182649Y76022D01*
X183148D01*
X183398Y75772D01*
Y74773D01*
X183148Y74523D01*
X182649D01*
X182399Y74773D01*
Y75772D01*
X114878Y148234D02*
X114629Y148484D01*
X114129D01*
X113879Y148234D01*
Y147234D01*
X114129Y146984D01*
X114629D01*
X114878Y147234D01*
X116378Y146984D02*
X115378D01*
X116378Y147984D01*
Y148234D01*
X116128Y148484D01*
X115628D01*
X115378Y148234D01*
X116878D02*
X117128Y148484D01*
X117628D01*
X117877Y148234D01*
Y147234D01*
X117628Y146984D01*
X117128D01*
X116878Y147234D01*
Y148234D01*
X119377Y148484D02*
X118377D01*
Y147734D01*
X118877Y147984D01*
X119127D01*
X119377Y147734D01*
Y147234D01*
X119127Y146984D01*
X118627D01*
X118377Y147234D01*
X167000Y103273D02*
X168500D01*
Y104023D01*
X168250Y104273D01*
X167250D01*
X167000Y104023D01*
Y103273D01*
X167250Y104773D02*
X167000Y105023D01*
Y105523D01*
X167250Y105772D01*
X167500D01*
X167750Y105523D01*
Y105273D01*
Y105523D01*
X168000Y105772D01*
X168250D01*
X168500Y105523D01*
Y105023D01*
X168250Y104773D01*
X167250Y106272D02*
X167000Y106522D01*
Y107022D01*
X167250Y107272D01*
X168250D01*
X168500Y107022D01*
Y106522D01*
X168250Y106272D01*
X167250D01*
Y107772D02*
X167000Y108022D01*
Y108522D01*
X167250Y108772D01*
X167500D01*
X167750Y108522D01*
Y108272D01*
Y108522D01*
X168000Y108772D01*
X168250D01*
X168500Y108522D01*
Y108022D01*
X168250Y107772D01*
X207400Y40323D02*
X207150Y40573D01*
X206650D01*
X206400Y40323D01*
Y39323D01*
X206650Y39073D01*
X207150D01*
X207400Y39323D01*
X207899Y40323D02*
X208149Y40573D01*
X208649D01*
X208899Y40323D01*
Y40073D01*
X208649Y39823D01*
X208399D01*
X208649D01*
X208899Y39573D01*
Y39323D01*
X208649Y39073D01*
X208149D01*
X207899Y39323D01*
X209399Y40323D02*
X209649Y40573D01*
X210149D01*
X210399Y40323D01*
Y39323D01*
X210149Y39073D01*
X209649D01*
X209399Y39323D01*
Y40323D01*
X211898Y40573D02*
X211398Y40323D01*
X210899Y39823D01*
Y39323D01*
X211149Y39073D01*
X211648D01*
X211898Y39323D01*
Y39573D01*
X211648Y39823D01*
X210899D01*
X214500Y57573D02*
X214000D01*
X214250D01*
Y56323D01*
X214000Y56073D01*
X213750D01*
X213500Y56323D01*
X215000Y57323D02*
X215249Y57573D01*
X215749D01*
X215999Y57323D01*
Y57073D01*
X215749Y56823D01*
X215499D01*
X215749D01*
X215999Y56573D01*
Y56323D01*
X215749Y56073D01*
X215249D01*
X215000Y56323D01*
X216499Y57323D02*
X216749Y57573D01*
X217249D01*
X217499Y57323D01*
Y56323D01*
X217249Y56073D01*
X216749D01*
X216499Y56323D01*
Y57323D01*
X217999Y56073D02*
X218498D01*
X218249D01*
Y57573D01*
X217999Y57323D01*
X124779Y139684D02*
Y138434D01*
X125029Y138184D01*
X125529D01*
X125778Y138434D01*
Y139684D01*
X127278Y138184D02*
X126278D01*
X127278Y139184D01*
Y139434D01*
X127028Y139684D01*
X126528D01*
X126278Y139434D01*
X127778D02*
X128028Y139684D01*
X128527D01*
X128778Y139434D01*
Y138434D01*
X128527Y138184D01*
X128028D01*
X127778Y138434D01*
Y139434D01*
X129277Y138184D02*
X129777D01*
X129527D01*
Y139684D01*
X129277Y139434D01*
X61200Y167700D02*
Y166450D01*
X61450Y166200D01*
X61950D01*
X62200Y166450D01*
Y167700D01*
X63699Y166200D02*
X62700D01*
X63699Y167200D01*
Y167450D01*
X63449Y167700D01*
X62949D01*
X62700Y167450D01*
X64199D02*
X64449Y167700D01*
X64949D01*
X65199Y167450D01*
Y166450D01*
X64949Y166200D01*
X64449D01*
X64199Y166450D01*
Y167450D01*
X65699D02*
X65948Y167700D01*
X66448D01*
X66698Y167450D01*
Y166450D01*
X66448Y166200D01*
X65948D01*
X65699Y166450D01*
Y167450D01*
X158000Y88022D02*
Y86773D01*
X158250Y86523D01*
X158750D01*
X159000Y86773D01*
Y88022D01*
X159500Y87772D02*
X159749Y88022D01*
X160249D01*
X160499Y87772D01*
Y87523D01*
X160249Y87273D01*
X159999D01*
X160249D01*
X160499Y87023D01*
Y86773D01*
X160249Y86523D01*
X159749D01*
X159500Y86773D01*
X160999Y87772D02*
X161249Y88022D01*
X161749D01*
X161999Y87772D01*
Y86773D01*
X161749Y86523D01*
X161249D01*
X160999Y86773D01*
Y87772D01*
X162499D02*
X162749Y88022D01*
X163248D01*
X163498Y87772D01*
Y86773D01*
X163248Y86523D01*
X162749D01*
X162499Y86773D01*
Y87772D01*
X203100Y166750D02*
X202850Y166999D01*
X202350D01*
X202100Y166750D01*
Y166500D01*
X202350Y166250D01*
X202850D01*
X203100Y166000D01*
Y165750D01*
X202850Y165500D01*
X202350D01*
X202100Y165750D01*
X203600Y166999D02*
Y165500D01*
X204099Y166000D01*
X204599Y165500D01*
Y166999D01*
X205099Y165500D02*
X205599D01*
X205349D01*
Y166999D01*
X205099Y166750D01*
X206349D02*
X206599Y166999D01*
X207098D01*
X207348Y166750D01*
Y165750D01*
X207098Y165500D01*
X206599D01*
X206349Y165750D01*
Y166750D01*
X207848Y165500D02*
X208348D01*
X208098D01*
Y166999D01*
X207848Y166750D01*
X213700Y161899D02*
Y160400D01*
X214450D01*
X214700Y160650D01*
Y161650D01*
X214450Y161899D01*
X213700D01*
X216199Y160400D02*
X215199D01*
X216199Y161400D01*
Y161650D01*
X215949Y161899D01*
X215449D01*
X215199Y161650D01*
X216699D02*
X216949Y161899D01*
X217449D01*
X217699Y161650D01*
Y160650D01*
X217449Y160400D01*
X216949D01*
X216699Y160650D01*
Y161650D01*
X218199D02*
X218448Y161899D01*
X218948D01*
X219198Y161650D01*
Y161400D01*
X218948Y161150D01*
X218698D01*
X218948D01*
X219198Y160900D01*
Y160650D01*
X218948Y160400D01*
X218448D01*
X218199Y160650D01*
X64461Y104312D02*
Y103063D01*
X64711Y102813D01*
X65211D01*
X65461Y103063D01*
Y104312D01*
X65961Y102813D02*
X66461D01*
X66211D01*
Y104312D01*
X65961Y104062D01*
X67211D02*
X67461Y104312D01*
X67960D01*
X68210Y104062D01*
Y103063D01*
X67960Y102813D01*
X67461D01*
X67211Y103063D01*
Y104062D01*
X68710Y102813D02*
X69210D01*
X68960D01*
Y104312D01*
X68710Y104062D01*
X12235Y114540D02*
Y115540D01*
X12734Y116040D01*
X13234Y115540D01*
Y114540D01*
Y115290D01*
X12235D01*
X13734Y114540D02*
X14234D01*
X13984D01*
Y116040D01*
X13734Y115790D01*
X14984D02*
X15234Y116040D01*
X15733D01*
X15983Y115790D01*
Y114790D01*
X15733Y114540D01*
X15234D01*
X14984Y114790D01*
Y115790D01*
X16483D02*
X16733Y116040D01*
X17233D01*
X17483Y115790D01*
Y114790D01*
X17233Y114540D01*
X16733D01*
X16483Y114790D01*
Y115790D01*
X81300Y91150D02*
X81050Y91400D01*
X80550D01*
X80300Y91150D01*
Y90150D01*
X80550Y89900D01*
X81050D01*
X81300Y90150D01*
X81800Y89900D02*
X82299D01*
X82049D01*
Y91400D01*
X81800Y91150D01*
X83049D02*
X83299Y91400D01*
X83799D01*
X84049Y91150D01*
Y90150D01*
X83799Y89900D01*
X83299D01*
X83049Y90150D01*
Y91150D01*
X84549D02*
X84799Y91400D01*
X85298D01*
X85548Y91150D01*
Y90150D01*
X85298Y89900D01*
X84799D01*
X84549Y90150D01*
Y91150D01*
X71200Y84650D02*
X70950Y84899D01*
X70450D01*
X70200Y84650D01*
Y83650D01*
X70450Y83400D01*
X70950D01*
X71200Y83650D01*
X71700Y83400D02*
X72199D01*
X71949D01*
Y84899D01*
X71700Y84650D01*
X72949D02*
X73199Y84899D01*
X73699D01*
X73949Y84650D01*
Y83650D01*
X73699Y83400D01*
X73199D01*
X72949Y83650D01*
Y84650D01*
X74449Y83400D02*
X74949D01*
X74699D01*
Y84899D01*
X74449Y84650D01*
X92100Y80150D02*
X91850Y80400D01*
X91350D01*
X91100Y80150D01*
Y79150D01*
X91350Y78900D01*
X91850D01*
X92100Y79150D01*
X92599Y78900D02*
X93099D01*
X92849D01*
Y80400D01*
X92599Y80150D01*
X93849D02*
X94099Y80400D01*
X94599D01*
X94849Y80150D01*
Y79150D01*
X94599Y78900D01*
X94099D01*
X93849Y79150D01*
Y80150D01*
X96348Y78900D02*
X95349D01*
X96348Y79900D01*
Y80150D01*
X96098Y80400D01*
X95599D01*
X95349Y80150D01*
X106650Y100100D02*
X106899Y100350D01*
Y100850D01*
X106650Y101100D01*
X105650D01*
X105400Y100850D01*
Y100350D01*
X105650Y100100D01*
X105400Y99600D02*
Y99101D01*
Y99351D01*
X106899D01*
X106650Y99600D01*
Y98351D02*
X106899Y98101D01*
Y97601D01*
X106650Y97351D01*
X105650D01*
X105400Y97601D01*
Y98101D01*
X105650Y98351D01*
X106650D01*
X105400Y96102D02*
X106899D01*
X106150Y96851D01*
Y95852D01*
X70050Y100000D02*
X70300Y100250D01*
Y100750D01*
X70050Y101000D01*
X69050D01*
X68800Y100750D01*
Y100250D01*
X69050Y100000D01*
X68800Y99501D02*
Y99001D01*
Y99251D01*
X70300D01*
X70050Y99501D01*
Y98251D02*
X70300Y98001D01*
Y97501D01*
X70050Y97251D01*
X69050D01*
X68800Y97501D01*
Y98001D01*
X69050Y98251D01*
X70050D01*
X70300Y95752D02*
Y96751D01*
X69550D01*
X69800Y96251D01*
Y96002D01*
X69550Y95752D01*
X69050D01*
X68800Y96002D01*
Y96501D01*
X69050Y96751D01*
X19350Y104497D02*
X19101Y104247D01*
Y103748D01*
X19350Y103498D01*
X20350D01*
X20600Y103748D01*
Y104247D01*
X20350Y104497D01*
X20600Y104997D02*
Y105497D01*
Y105247D01*
X19101D01*
X19350Y104997D01*
Y106247D02*
X19101Y106497D01*
Y106997D01*
X19350Y107246D01*
X20350D01*
X20600Y106997D01*
Y106497D01*
X20350Y106247D01*
X19350D01*
X19101Y107746D02*
Y108746D01*
X19350D01*
X20350Y107746D01*
X20600D01*
X6550Y104397D02*
X6301Y104147D01*
Y103648D01*
X6550Y103398D01*
X7550D01*
X7800Y103648D01*
Y104147D01*
X7550Y104397D01*
X7800Y104897D02*
Y105397D01*
Y105147D01*
X6301D01*
X6550Y104897D01*
Y106147D02*
X6301Y106397D01*
Y106896D01*
X6550Y107146D01*
X7550D01*
X7800Y106896D01*
Y106397D01*
X7550Y106147D01*
X6550D01*
Y107646D02*
X6301Y107896D01*
Y108396D01*
X6550Y108646D01*
X6800D01*
X7050Y108396D01*
X7300Y108646D01*
X7550D01*
X7800Y108396D01*
Y107896D01*
X7550Y107646D01*
X7300D01*
X7050Y107896D01*
X6800Y107646D01*
X6550D01*
X7050Y107896D02*
Y108396D01*
X65700Y124150D02*
X65450Y124399D01*
X64950D01*
X64700Y124150D01*
Y123150D01*
X64950Y122900D01*
X65450D01*
X65700Y123150D01*
X66199Y122900D02*
X66699D01*
X66449D01*
Y124399D01*
X66199Y124150D01*
X67449D02*
X67699Y124399D01*
X68199D01*
X68449Y124150D01*
Y123150D01*
X68199Y122900D01*
X67699D01*
X67449Y123150D01*
Y124150D01*
X68949Y123150D02*
X69199Y122900D01*
X69698D01*
X69948Y123150D01*
Y124150D01*
X69698Y124399D01*
X69199D01*
X68949Y124150D01*
Y123900D01*
X69199Y123650D01*
X69948D01*
X64600Y115750D02*
X64350Y115999D01*
X63850D01*
X63600Y115750D01*
Y114750D01*
X63850Y114500D01*
X64350D01*
X64600Y114750D01*
X65100Y114500D02*
X65599D01*
X65349D01*
Y115999D01*
X65100Y115750D01*
X66349Y114500D02*
X66849D01*
X66599D01*
Y115999D01*
X66349Y115750D01*
X67599D02*
X67849Y115999D01*
X68348D01*
X68598Y115750D01*
Y114750D01*
X68348Y114500D01*
X67849D01*
X67599Y114750D01*
Y115750D01*
X105850Y122603D02*
X106099Y122853D01*
Y123352D01*
X105850Y123602D01*
X104850D01*
X104600Y123352D01*
Y122853D01*
X104850Y122603D01*
X104600Y122103D02*
Y121603D01*
Y121853D01*
X106099D01*
X105850Y122103D01*
X104600Y120853D02*
Y120353D01*
Y120603D01*
X106099D01*
X105850Y120853D01*
X104600Y119604D02*
Y119104D01*
Y119354D01*
X106099D01*
X105850Y119604D01*
X160400Y130750D02*
X160150Y131000D01*
X159650D01*
X159400Y130750D01*
Y129750D01*
X159650Y129500D01*
X160150D01*
X160400Y129750D01*
X161899Y129500D02*
X160899D01*
X161899Y130500D01*
Y130750D01*
X161649Y131000D01*
X161149D01*
X160899Y130750D01*
X162399D02*
X162649Y131000D01*
X163149D01*
X163399Y130750D01*
Y129750D01*
X163149Y129500D01*
X162649D01*
X162399Y129750D01*
Y130750D01*
X163899D02*
X164148Y131000D01*
X164648D01*
X164898Y130750D01*
Y129750D01*
X164648Y129500D01*
X164148D01*
X163899Y129750D01*
Y130750D01*
X164600Y119650D02*
X164350Y119899D01*
X163850D01*
X163600Y119650D01*
Y118650D01*
X163850Y118400D01*
X164350D01*
X164600Y118650D01*
X166099Y118400D02*
X165100D01*
X166099Y119400D01*
Y119650D01*
X165849Y119899D01*
X165349D01*
X165100Y119650D01*
X166599D02*
X166849Y119899D01*
X167349D01*
X167599Y119650D01*
Y118650D01*
X167349Y118400D01*
X166849D01*
X166599Y118650D01*
Y119650D01*
X168099Y118400D02*
X168598D01*
X168349D01*
Y119899D01*
X168099Y119650D01*
X153800Y118450D02*
X153550Y118700D01*
X153050D01*
X152800Y118450D01*
Y117450D01*
X153050Y117200D01*
X153550D01*
X153800Y117450D01*
X155299Y117200D02*
X154299D01*
X155299Y118200D01*
Y118450D01*
X155049Y118700D01*
X154549D01*
X154299Y118450D01*
X155799D02*
X156049Y118700D01*
X156549D01*
X156799Y118450D01*
Y117450D01*
X156549Y117200D01*
X156049D01*
X155799Y117450D01*
Y118450D01*
X158048Y117200D02*
Y118700D01*
X157299Y117950D01*
X158298D01*
X111478Y139034D02*
X111229Y139284D01*
X110729D01*
X110479Y139034D01*
Y138034D01*
X110729Y137784D01*
X111229D01*
X111478Y138034D01*
X112978Y137784D02*
X111978D01*
X112978Y138784D01*
Y139034D01*
X112728Y139284D01*
X112228D01*
X111978Y139034D01*
X113478D02*
X113728Y139284D01*
X114227D01*
X114478Y139034D01*
Y138034D01*
X114227Y137784D01*
X113728D01*
X113478Y138034D01*
Y139034D01*
X115977Y139284D02*
X115477Y139034D01*
X114977Y138534D01*
Y138034D01*
X115227Y137784D01*
X115727D01*
X115977Y138034D01*
Y138284D01*
X115727Y138534D01*
X114977D01*
X111578Y136334D02*
X111328Y136584D01*
X110829D01*
X110579Y136334D01*
Y135334D01*
X110829Y135084D01*
X111328D01*
X111578Y135334D01*
X113078Y135084D02*
X112078D01*
X113078Y136084D01*
Y136334D01*
X112828Y136584D01*
X112328D01*
X112078Y136334D01*
X113578D02*
X113828Y136584D01*
X114328D01*
X114577Y136334D01*
Y135334D01*
X114328Y135084D01*
X113828D01*
X113578Y135334D01*
Y136334D01*
X115077Y136584D02*
X116077D01*
Y136334D01*
X115077Y135334D01*
Y135084D01*
X76150Y156911D02*
X76399Y157161D01*
Y157661D01*
X76150Y157911D01*
X75150D01*
X74900Y157661D01*
Y157161D01*
X75150Y156911D01*
X74900Y155412D02*
Y156411D01*
X75900Y155412D01*
X76150D01*
X76399Y155662D01*
Y156161D01*
X76150Y156411D01*
Y154912D02*
X76399Y154662D01*
Y154162D01*
X76150Y153912D01*
X75150D01*
X74900Y154162D01*
Y154662D01*
X75150Y154912D01*
X76150D01*
Y153412D02*
X76399Y153163D01*
Y152663D01*
X76150Y152413D01*
X75900D01*
X75650Y152663D01*
X75400Y152413D01*
X75150D01*
X74900Y152663D01*
Y153163D01*
X75150Y153412D01*
X75400D01*
X75650Y153163D01*
X75900Y153412D01*
X76150D01*
X75650Y153163D02*
Y152663D01*
X83350Y156900D02*
X83600Y157150D01*
Y157650D01*
X83350Y157900D01*
X82350D01*
X82100Y157650D01*
Y157150D01*
X82350Y156900D01*
X82100Y155401D02*
Y156401D01*
X83100Y155401D01*
X83350D01*
X83600Y155651D01*
Y156151D01*
X83350Y156401D01*
Y154901D02*
X83600Y154651D01*
Y154151D01*
X83350Y153901D01*
X82350D01*
X82100Y154151D01*
Y154651D01*
X82350Y154901D01*
X83350D01*
X82350Y153401D02*
X82100Y153152D01*
Y152652D01*
X82350Y152402D01*
X83350D01*
X83600Y152652D01*
Y153152D01*
X83350Y153401D01*
X83100D01*
X82850Y153152D01*
Y152402D01*
X49750Y152100D02*
X49501Y151850D01*
Y151350D01*
X49750Y151100D01*
X50750D01*
X51000Y151350D01*
Y151850D01*
X50750Y152100D01*
X51000Y153599D02*
Y152600D01*
X50000Y153599D01*
X49750D01*
X49501Y153349D01*
Y152849D01*
X49750Y152600D01*
X51000Y154099D02*
Y154599D01*
Y154349D01*
X49501D01*
X49750Y154099D01*
Y155349D02*
X49501Y155599D01*
Y156098D01*
X49750Y156348D01*
X50750D01*
X51000Y156098D01*
Y155599D01*
X50750Y155349D01*
X49750D01*
X126000Y145450D02*
X125750Y145700D01*
X125250D01*
X125000Y145450D01*
Y144450D01*
X125250Y144200D01*
X125750D01*
X126000Y144450D01*
X127499Y144200D02*
X126499D01*
X127499Y145200D01*
Y145450D01*
X127249Y145700D01*
X126749D01*
X126499Y145450D01*
X127999Y144200D02*
X128499D01*
X128249D01*
Y145700D01*
X127999Y145450D01*
X129249Y144200D02*
X129748D01*
X129499D01*
Y145700D01*
X129249Y145450D01*
X112829Y129884D02*
X112579Y129634D01*
Y129134D01*
X112829Y128884D01*
X113829D01*
X114079Y129134D01*
Y129634D01*
X113829Y129884D01*
X114079Y131383D02*
Y130384D01*
X113079Y131383D01*
X112829D01*
X112579Y131133D01*
Y130634D01*
X112829Y130384D01*
X114079Y131883D02*
Y132383D01*
Y132133D01*
X112579D01*
X112829Y131883D01*
Y133133D02*
X112579Y133383D01*
Y133883D01*
X112829Y134133D01*
X113079D01*
X113329Y133883D01*
Y133633D01*
Y133883D01*
X113579Y134133D01*
X113829D01*
X114079Y133883D01*
Y133383D01*
X113829Y133133D01*
X117629Y129784D02*
X117379Y129534D01*
Y129034D01*
X117629Y128784D01*
X118629D01*
X118879Y129034D01*
Y129534D01*
X118629Y129784D01*
X118879Y131283D02*
Y130284D01*
X117879Y131283D01*
X117629D01*
X117379Y131034D01*
Y130534D01*
X117629Y130284D01*
X118879Y131783D02*
Y132283D01*
Y132033D01*
X117379D01*
X117629Y131783D01*
X118879Y133783D02*
X117379D01*
X118129Y133033D01*
Y134033D01*
X168250Y56073D02*
X168000Y55823D01*
Y55323D01*
X168250Y55073D01*
X169250D01*
X169500Y55323D01*
Y55823D01*
X169250Y56073D01*
X168250Y56573D02*
X168000Y56823D01*
Y57323D01*
X168250Y57572D01*
X168500D01*
X168750Y57323D01*
Y57073D01*
Y57323D01*
X169000Y57572D01*
X169250D01*
X169500Y57323D01*
Y56823D01*
X169250Y56573D01*
X168250Y58072D02*
X168000Y58322D01*
Y58822D01*
X168250Y59072D01*
X169250D01*
X169500Y58822D01*
Y58322D01*
X169250Y58072D01*
X168250D01*
Y59572D02*
X168000Y59822D01*
Y60322D01*
X168250Y60571D01*
X169250D01*
X169500Y60322D01*
Y59822D01*
X169250Y59572D01*
X168250D01*
X173050Y71023D02*
X173300Y71273D01*
Y71773D01*
X173050Y72023D01*
X172050D01*
X171800Y71773D01*
Y71273D01*
X172050Y71023D01*
X173050Y70523D02*
X173300Y70273D01*
Y69774D01*
X173050Y69524D01*
X172800D01*
X172550Y69774D01*
Y70024D01*
Y69774D01*
X172300Y69524D01*
X172050D01*
X171800Y69774D01*
Y70273D01*
X172050Y70523D01*
X173050Y69024D02*
X173300Y68774D01*
Y68274D01*
X173050Y68024D01*
X172050D01*
X171800Y68274D01*
Y68774D01*
X172050Y69024D01*
X173050D01*
X171800Y67524D02*
Y67024D01*
Y67274D01*
X173300D01*
X173050Y67524D01*
X175250Y55973D02*
X175001Y55723D01*
Y55223D01*
X175250Y54973D01*
X176250D01*
X176500Y55223D01*
Y55723D01*
X176250Y55973D01*
X175250Y56473D02*
X175001Y56723D01*
Y57222D01*
X175250Y57472D01*
X175500D01*
X175750Y57222D01*
Y56973D01*
Y57222D01*
X176000Y57472D01*
X176250D01*
X176500Y57222D01*
Y56723D01*
X176250Y56473D01*
X175250Y57972D02*
X175001Y58222D01*
Y58722D01*
X175250Y58972D01*
X176250D01*
X176500Y58722D01*
Y58222D01*
X176250Y57972D01*
X175250D01*
X176500Y60471D02*
Y59472D01*
X175500Y60471D01*
X175250D01*
X175001Y60222D01*
Y59722D01*
X175250Y59472D01*
X157300Y69872D02*
X157050Y70122D01*
X156550D01*
X156300Y69872D01*
Y68873D01*
X156550Y68623D01*
X157050D01*
X157300Y68873D01*
X157799Y69872D02*
X158049Y70122D01*
X158549D01*
X158799Y69872D01*
Y69622D01*
X158549Y69373D01*
X158299D01*
X158549D01*
X158799Y69123D01*
Y68873D01*
X158549Y68623D01*
X158049D01*
X157799Y68873D01*
X159299Y69872D02*
X159549Y70122D01*
X160049D01*
X160299Y69872D01*
Y68873D01*
X160049Y68623D01*
X159549D01*
X159299Y68873D01*
Y69872D01*
X160799D02*
X161048Y70122D01*
X161548D01*
X161798Y69872D01*
Y69622D01*
X161548Y69373D01*
X161298D01*
X161548D01*
X161798Y69123D01*
Y68873D01*
X161548Y68623D01*
X161048D01*
X160799Y68873D01*
X147650Y63222D02*
X147400Y62973D01*
Y62473D01*
X147650Y62223D01*
X148650D01*
X148900Y62473D01*
Y62973D01*
X148650Y63222D01*
X147650Y63722D02*
X147400Y63972D01*
Y64472D01*
X147650Y64722D01*
X147900D01*
X148150Y64472D01*
Y64222D01*
Y64472D01*
X148400Y64722D01*
X148650D01*
X148900Y64472D01*
Y63972D01*
X148650Y63722D01*
X147650Y65222D02*
X147400Y65472D01*
Y65972D01*
X147650Y66222D01*
X148650D01*
X148900Y65972D01*
Y65472D01*
X148650Y65222D01*
X147650D01*
X148900Y67471D02*
X147400D01*
X148150Y66721D01*
Y67721D01*
X136650Y63122D02*
X136400Y62873D01*
Y62373D01*
X136650Y62123D01*
X137650D01*
X137900Y62373D01*
Y62873D01*
X137650Y63122D01*
X136650Y63622D02*
X136400Y63872D01*
Y64372D01*
X136650Y64622D01*
X136900D01*
X137150Y64372D01*
Y64122D01*
Y64372D01*
X137400Y64622D01*
X137650D01*
X137900Y64372D01*
Y63872D01*
X137650Y63622D01*
X136650Y65122D02*
X136400Y65372D01*
Y65872D01*
X136650Y66122D01*
X137650D01*
X137900Y65872D01*
Y65372D01*
X137650Y65122D01*
X136650D01*
X136400Y67621D02*
Y66621D01*
X137150D01*
X136900Y67121D01*
Y67371D01*
X137150Y67621D01*
X137650D01*
X137900Y67371D01*
Y66871D01*
X137650Y66621D01*
X205450Y109373D02*
X205201Y109123D01*
Y108623D01*
X205450Y108373D01*
X206450D01*
X206700Y108623D01*
Y109123D01*
X206450Y109373D01*
X205450Y109873D02*
X205201Y110123D01*
Y110623D01*
X205450Y110872D01*
X205700D01*
X205950Y110623D01*
Y110373D01*
Y110623D01*
X206200Y110872D01*
X206450D01*
X206700Y110623D01*
Y110123D01*
X206450Y109873D01*
X205450Y111372D02*
X205201Y111622D01*
Y112122D01*
X205450Y112372D01*
X206450D01*
X206700Y112122D01*
Y111622D01*
X206450Y111372D01*
X205450D01*
X205201Y112872D02*
Y113872D01*
X205450D01*
X206450Y112872D01*
X206700D01*
X205450Y94873D02*
X205201Y94623D01*
Y94123D01*
X205450Y93873D01*
X206450D01*
X206700Y94123D01*
Y94623D01*
X206450Y94873D01*
X205450Y95373D02*
X205201Y95623D01*
Y96122D01*
X205450Y96372D01*
X205700D01*
X205950Y96122D01*
Y95873D01*
Y96122D01*
X206200Y96372D01*
X206450D01*
X206700Y96122D01*
Y95623D01*
X206450Y95373D01*
X205450Y96872D02*
X205201Y97122D01*
Y97622D01*
X205450Y97872D01*
X206450D01*
X206700Y97622D01*
Y97122D01*
X206450Y96872D01*
X205450D01*
Y98372D02*
X205201Y98622D01*
Y99122D01*
X205450Y99371D01*
X205700D01*
X205950Y99122D01*
X206200Y99371D01*
X206450D01*
X206700Y99122D01*
Y98622D01*
X206450Y98372D01*
X206200D01*
X205950Y98622D01*
X205700Y98372D01*
X205450D01*
X205950Y98622D02*
Y99122D01*
X196600Y105823D02*
X196350Y106073D01*
X195850D01*
X195600Y105823D01*
Y104823D01*
X195850Y104573D01*
X196350D01*
X196600Y104823D01*
X197099Y105823D02*
X197350Y106073D01*
X197849D01*
X198099Y105823D01*
Y105573D01*
X197849Y105323D01*
X197599D01*
X197849D01*
X198099Y105073D01*
Y104823D01*
X197849Y104573D01*
X197350D01*
X197099Y104823D01*
X198599Y105823D02*
X198849Y106073D01*
X199349D01*
X199599Y105823D01*
Y104823D01*
X199349Y104573D01*
X198849D01*
X198599Y104823D01*
Y105823D01*
X200099Y104823D02*
X200348Y104573D01*
X200848D01*
X201098Y104823D01*
Y105823D01*
X200848Y106073D01*
X200348D01*
X200099Y105823D01*
Y105573D01*
X200348Y105323D01*
X201098D01*
X193600Y138499D02*
Y137000D01*
X194350D01*
X194600Y137250D01*
Y138250D01*
X194350Y138499D01*
X193600D01*
X196099Y137000D02*
X195099D01*
X196099Y138000D01*
Y138250D01*
X195849Y138499D01*
X195349D01*
X195099Y138250D01*
X196599D02*
X196849Y138499D01*
X197349D01*
X197599Y138250D01*
Y137250D01*
X197349Y137000D01*
X196849D01*
X196599Y137250D01*
Y138250D01*
X198099D02*
X198348Y138499D01*
X198848D01*
X199098Y138250D01*
Y137250D01*
X198848Y137000D01*
X198348D01*
X198099Y137250D01*
Y138250D01*
X193700Y161399D02*
Y159900D01*
X194450D01*
X194700Y160150D01*
Y161150D01*
X194450Y161399D01*
X193700D01*
X196199Y159900D02*
X195200D01*
X196199Y160900D01*
Y161150D01*
X195949Y161399D01*
X195449D01*
X195200Y161150D01*
X196699D02*
X196949Y161399D01*
X197449D01*
X197699Y161150D01*
Y160150D01*
X197449Y159900D01*
X196949D01*
X196699Y160150D01*
Y161150D01*
X198199Y159900D02*
X198698D01*
X198449D01*
Y161399D01*
X198199Y161150D01*
X214100Y138499D02*
Y137000D01*
X214850D01*
X215100Y137250D01*
Y138250D01*
X214850Y138499D01*
X214100D01*
X216599Y137000D02*
X215599D01*
X216599Y138000D01*
Y138250D01*
X216349Y138499D01*
X215849D01*
X215599Y138250D01*
X217099D02*
X217349Y138499D01*
X217849D01*
X218099Y138250D01*
Y137250D01*
X217849Y137000D01*
X217349D01*
X217099Y137250D01*
Y138250D01*
X219598Y137000D02*
X218599D01*
X219598Y138000D01*
Y138250D01*
X219348Y138499D01*
X218848D01*
X218599Y138250D01*
X191200Y67523D02*
X192700D01*
Y68273D01*
X192450Y68523D01*
X191450D01*
X191200Y68273D01*
Y67523D01*
X191450Y69022D02*
X191200Y69272D01*
Y69772D01*
X191450Y70022D01*
X191700D01*
X191950Y69772D01*
Y69522D01*
Y69772D01*
X192200Y70022D01*
X192450D01*
X192700Y69772D01*
Y69272D01*
X192450Y69022D01*
X191450Y70522D02*
X191200Y70772D01*
Y71272D01*
X191450Y71522D01*
X192450D01*
X192700Y71272D01*
Y70772D01*
X192450Y70522D01*
X191450D01*
X192700Y72021D02*
Y72521D01*
Y72271D01*
X191200D01*
X191450Y72021D01*
X182700Y122873D02*
Y121373D01*
X183450D01*
X183700Y121623D01*
Y122623D01*
X183450Y122873D01*
X182700D01*
X184200Y122623D02*
X184450Y122873D01*
X184949D01*
X185199Y122623D01*
Y122373D01*
X184949Y122123D01*
X184699D01*
X184949D01*
X185199Y121873D01*
Y121623D01*
X184949Y121373D01*
X184450D01*
X184200Y121623D01*
X185699Y122623D02*
X185949Y122873D01*
X186449D01*
X186699Y122623D01*
Y121623D01*
X186449Y121373D01*
X185949D01*
X185699Y121623D01*
Y122623D01*
X188198Y121373D02*
X187199D01*
X188198Y122373D01*
Y122623D01*
X187948Y122873D01*
X187449D01*
X187199Y122623D01*
X72400Y186800D02*
X71900D01*
X72150D01*
Y185550D01*
X71900Y185300D01*
X71650D01*
X71400Y185550D01*
X73899Y185300D02*
X72900D01*
X73899Y186300D01*
Y186550D01*
X73649Y186800D01*
X73149D01*
X72900Y186550D01*
X74399D02*
X74649Y186800D01*
X75149D01*
X75399Y186550D01*
Y185550D01*
X75149Y185300D01*
X74649D01*
X74399Y185550D01*
Y186550D01*
X75899D02*
X76148Y186800D01*
X76648D01*
X76898Y186550D01*
Y185550D01*
X76648Y185300D01*
X76148D01*
X75899Y185550D01*
Y186550D01*
X82300Y176800D02*
X80800D01*
Y177550D01*
X81050Y177800D01*
X81550D01*
X81800Y177550D01*
Y176800D01*
X82300Y178299D02*
Y178799D01*
Y178549D01*
X80800D01*
X81050Y178299D01*
Y179549D02*
X80800Y179799D01*
Y180299D01*
X81050Y180549D01*
X82050D01*
X82300Y180299D01*
Y179799D01*
X82050Y179549D01*
X81050D01*
Y181049D02*
X80800Y181299D01*
Y181798D01*
X81050Y182048D01*
X82050D01*
X82300Y181798D01*
Y181299D01*
X82050Y181049D01*
X81050D01*
X20100Y141100D02*
Y142599D01*
X20850D01*
X21100Y142350D01*
Y141850D01*
X20850Y141600D01*
X20100D01*
X21599Y141100D02*
X22099D01*
X21849D01*
Y142599D01*
X21599Y142350D01*
X22849D02*
X23099Y142599D01*
X23599D01*
X23849Y142350D01*
Y141350D01*
X23599Y141100D01*
X23099D01*
X22849Y141350D01*
Y142350D01*
X24349Y141100D02*
X24848D01*
X24599D01*
Y142599D01*
X24349Y142350D01*
X45800Y19900D02*
X44300D01*
Y20650D01*
X44550Y20900D01*
X45050D01*
X45300Y20650D01*
Y19900D01*
X45800Y21399D02*
Y21899D01*
Y21649D01*
X44300D01*
X44550Y21399D01*
Y22649D02*
X44300Y22899D01*
Y23399D01*
X44550Y23649D01*
X45550D01*
X45800Y23399D01*
Y22899D01*
X45550Y22649D01*
X44550D01*
X45800Y25148D02*
Y24149D01*
X44800Y25148D01*
X44550D01*
X44300Y24898D01*
Y24399D01*
X44550Y24149D01*
X11100Y108900D02*
Y110399D01*
X11850D01*
X12100Y110150D01*
Y109650D01*
X11850Y109400D01*
X11100D01*
X11600D02*
X12100Y108900D01*
X12599D02*
X13099D01*
X12849D01*
Y110399D01*
X12599Y110150D01*
X13849D02*
X14099Y110399D01*
X14599D01*
X14849Y110150D01*
Y109150D01*
X14599Y108900D01*
X14099D01*
X13849Y109150D01*
Y110150D01*
X15349D02*
X15599Y110399D01*
X16098D01*
X16348Y110150D01*
Y109150D01*
X16098Y108900D01*
X15599D01*
X15349Y109150D01*
Y110150D01*
X85400Y128800D02*
X83900D01*
Y129550D01*
X84150Y129800D01*
X84650D01*
X84900Y129550D01*
Y128800D01*
Y129300D02*
X85400Y129800D01*
Y130299D02*
Y130799D01*
Y130549D01*
X83900D01*
X84150Y130299D01*
Y131549D02*
X83900Y131799D01*
Y132299D01*
X84150Y132549D01*
X85150D01*
X85400Y132299D01*
Y131799D01*
X85150Y131549D01*
X84150D01*
X85400Y133049D02*
Y133548D01*
Y133299D01*
X83900D01*
X84150Y133049D01*
X93100Y128500D02*
X91601D01*
Y129250D01*
X91850Y129500D01*
X92350D01*
X92600Y129250D01*
Y128500D01*
Y129000D02*
X93100Y129500D01*
Y129999D02*
Y130499D01*
Y130249D01*
X91601D01*
X91850Y129999D01*
Y131249D02*
X91601Y131499D01*
Y131999D01*
X91850Y132249D01*
X92850D01*
X93100Y131999D01*
Y131499D01*
X92850Y131249D01*
X91850D01*
X93100Y133748D02*
Y132749D01*
X92100Y133748D01*
X91850D01*
X91601Y133498D01*
Y132999D01*
X91850Y132749D01*
X182100Y55400D02*
X180601D01*
Y56150D01*
X180850Y56400D01*
X181350D01*
X181600Y56150D01*
Y55400D01*
Y55900D02*
X182100Y56400D01*
Y56899D02*
Y57399D01*
Y57149D01*
X180601D01*
X180850Y56899D01*
Y58149D02*
X180601Y58399D01*
Y58899D01*
X180850Y59149D01*
X181850D01*
X182100Y58899D01*
Y58399D01*
X181850Y58149D01*
X180850D01*
X182100Y60398D02*
X180601D01*
X181350Y59649D01*
Y60648D01*
X114700Y81800D02*
X113200D01*
Y82550D01*
X113450Y82800D01*
X113950D01*
X114200Y82550D01*
Y81800D01*
Y82300D02*
X114700Y82800D01*
Y83299D02*
Y83799D01*
Y83549D01*
X113200D01*
X113450Y83299D01*
Y84549D02*
X113200Y84799D01*
Y85299D01*
X113450Y85549D01*
X114450D01*
X114700Y85299D01*
Y84799D01*
X114450Y84549D01*
X113450D01*
X113200Y87048D02*
Y86049D01*
X113950D01*
X113700Y86549D01*
Y86798D01*
X113950Y87048D01*
X114450D01*
X114700Y86798D01*
Y86299D01*
X114450Y86049D01*
X57700Y151000D02*
X56200D01*
Y151750D01*
X56450Y152000D01*
X56950D01*
X57200Y151750D01*
Y151000D01*
Y151500D02*
X57700Y152000D01*
Y153499D02*
Y152499D01*
X56700Y153499D01*
X56450D01*
X56200Y153249D01*
Y152749D01*
X56450Y152499D01*
Y153999D02*
X56200Y154249D01*
Y154749D01*
X56450Y154999D01*
X57450D01*
X57700Y154749D01*
Y154249D01*
X57450Y153999D01*
X56450D01*
Y155499D02*
X56200Y155748D01*
Y156248D01*
X56450Y156498D01*
X57450D01*
X57700Y156248D01*
Y155748D01*
X57450Y155499D01*
X56450D01*
X109379Y128984D02*
X107879D01*
Y129734D01*
X108129Y129984D01*
X108629D01*
X108879Y129734D01*
Y128984D01*
Y129484D02*
X109379Y129984D01*
Y131483D02*
Y130484D01*
X108379Y131483D01*
X108129D01*
X107879Y131234D01*
Y130734D01*
X108129Y130484D01*
Y131983D02*
X107879Y132233D01*
Y132733D01*
X108129Y132983D01*
X109129D01*
X109379Y132733D01*
Y132233D01*
X109129Y131983D01*
X108129D01*
X109379Y133483D02*
Y133983D01*
Y133733D01*
X107879D01*
X108129Y133483D01*
X131500Y143500D02*
Y145000D01*
X132250D01*
X132500Y144750D01*
Y144250D01*
X132250Y144000D01*
X131500D01*
X132000D02*
X132500Y143500D01*
X133999D02*
X133000D01*
X133999Y144500D01*
Y144750D01*
X133749Y145000D01*
X133249D01*
X133000Y144750D01*
X134499D02*
X134749Y145000D01*
X135249D01*
X135499Y144750D01*
Y143750D01*
X135249Y143500D01*
X134749D01*
X134499Y143750D01*
Y144750D01*
X136998Y143500D02*
X135999D01*
X136998Y144500D01*
Y144750D01*
X136748Y145000D01*
X136249D01*
X135999Y144750D01*
X170800Y79423D02*
X172300D01*
Y78673D01*
X172050Y78423D01*
X171550D01*
X171300Y78673D01*
Y79423D01*
Y78923D02*
X170800Y78423D01*
X172050Y77923D02*
X172300Y77673D01*
Y77174D01*
X172050Y76924D01*
X171800D01*
X171550Y77174D01*
Y77424D01*
Y77174D01*
X171300Y76924D01*
X171050D01*
X170800Y77174D01*
Y77673D01*
X171050Y77923D01*
X172050Y76424D02*
X172300Y76174D01*
Y75674D01*
X172050Y75424D01*
X171050D01*
X170800Y75674D01*
Y76174D01*
X171050Y76424D01*
X172050D01*
Y74924D02*
X172300Y74674D01*
Y74174D01*
X172050Y73925D01*
X171050D01*
X170800Y74174D01*
Y74674D01*
X171050Y74924D01*
X172050D01*
X151200Y72442D02*
X149700D01*
Y73191D01*
X149950Y73441D01*
X150450D01*
X150700Y73191D01*
Y72442D01*
Y72942D02*
X151200Y73441D01*
X149950Y73941D02*
X149700Y74191D01*
Y74691D01*
X149950Y74941D01*
X150200D01*
X150450Y74691D01*
Y74441D01*
Y74691D01*
X150700Y74941D01*
X150950D01*
X151200Y74691D01*
Y74191D01*
X150950Y73941D01*
X149950Y75441D02*
X149700Y75691D01*
Y76191D01*
X149950Y76441D01*
X150950D01*
X151200Y76191D01*
Y75691D01*
X150950Y75441D01*
X149950D01*
X151200Y76940D02*
Y77440D01*
Y77190D01*
X149700D01*
X149950Y76940D01*
X206300Y47573D02*
Y49073D01*
X207050D01*
X207300Y48823D01*
Y48323D01*
X207050Y48073D01*
X206300D01*
X206800D02*
X207300Y47573D01*
X207800Y48823D02*
X208049Y49073D01*
X208549D01*
X208799Y48823D01*
Y48573D01*
X208549Y48323D01*
X208299D01*
X208549D01*
X208799Y48073D01*
Y47823D01*
X208549Y47573D01*
X208049D01*
X207800Y47823D01*
X209299Y48823D02*
X209549Y49073D01*
X210049D01*
X210299Y48823D01*
Y47823D01*
X210049Y47573D01*
X209549D01*
X209299Y47823D01*
Y48823D01*
X210799D02*
X211049Y49073D01*
X211548D01*
X211798Y48823D01*
Y48573D01*
X211548Y48323D01*
X211298D01*
X211548D01*
X211798Y48073D01*
Y47823D01*
X211548Y47573D01*
X211049D01*
X210799Y47823D01*
X156900Y56523D02*
Y58022D01*
X157650D01*
X157900Y57772D01*
Y57273D01*
X157650Y57023D01*
X156900D01*
X157400D02*
X157900Y56523D01*
X158399Y57772D02*
X158650Y58022D01*
X159149D01*
X159399Y57772D01*
Y57522D01*
X159149Y57273D01*
X158899D01*
X159149D01*
X159399Y57023D01*
Y56773D01*
X159149Y56523D01*
X158650D01*
X158399Y56773D01*
X159899Y57772D02*
X160149Y58022D01*
X160649D01*
X160899Y57772D01*
Y56773D01*
X160649Y56523D01*
X160149D01*
X159899Y56773D01*
Y57772D01*
X162148Y56523D02*
Y58022D01*
X161399Y57273D01*
X162398D01*
X156700Y60723D02*
Y62222D01*
X157450D01*
X157700Y61972D01*
Y61473D01*
X157450Y61223D01*
X156700D01*
X157200D02*
X157700Y60723D01*
X158200Y61972D02*
X158449Y62222D01*
X158949D01*
X159199Y61972D01*
Y61722D01*
X158949Y61473D01*
X158699D01*
X158949D01*
X159199Y61223D01*
Y60973D01*
X158949Y60723D01*
X158449D01*
X158200Y60973D01*
X159699Y61972D02*
X159949Y62222D01*
X160449D01*
X160699Y61972D01*
Y60973D01*
X160449Y60723D01*
X159949D01*
X159699Y60973D01*
Y61972D01*
X162198Y62222D02*
X161199D01*
Y61473D01*
X161698Y61722D01*
X161948D01*
X162198Y61473D01*
Y60973D01*
X161948Y60723D01*
X161449D01*
X161199Y60973D01*
X146900Y84123D02*
Y85622D01*
X147650D01*
X147900Y85372D01*
Y84873D01*
X147650Y84623D01*
X146900D01*
X147400D02*
X147900Y84123D01*
X148399Y85372D02*
X148650Y85622D01*
X149149D01*
X149399Y85372D01*
Y85123D01*
X149149Y84873D01*
X148899D01*
X149149D01*
X149399Y84623D01*
Y84373D01*
X149149Y84123D01*
X148650D01*
X148399Y84373D01*
X149899Y85372D02*
X150149Y85622D01*
X150649D01*
X150899Y85372D01*
Y84373D01*
X150649Y84123D01*
X150149D01*
X149899Y84373D01*
Y85372D01*
X152398Y85622D02*
X151898Y85372D01*
X151399Y84873D01*
Y84373D01*
X151648Y84123D01*
X152148D01*
X152398Y84373D01*
Y84623D01*
X152148Y84873D01*
X151399D01*
X203600Y53773D02*
Y55273D01*
X204350D01*
X204600Y55023D01*
Y54523D01*
X204350Y54273D01*
X203600D01*
X204100D02*
X204600Y53773D01*
X205100Y55023D02*
X205349Y55273D01*
X205849D01*
X206099Y55023D01*
Y54773D01*
X205849Y54523D01*
X205599D01*
X205849D01*
X206099Y54273D01*
Y54023D01*
X205849Y53773D01*
X205349D01*
X205100Y54023D01*
X206599Y55023D02*
X206849Y55273D01*
X207349D01*
X207599Y55023D01*
Y54023D01*
X207349Y53773D01*
X206849D01*
X206599Y54023D01*
Y55023D01*
X208099Y55273D02*
X209098D01*
Y55023D01*
X208099Y54023D01*
Y53773D01*
X197200Y91373D02*
Y92873D01*
X197950D01*
X198200Y92623D01*
Y92123D01*
X197950Y91873D01*
X197200D01*
X197700D02*
X198200Y91373D01*
X198699Y92623D02*
X198950Y92873D01*
X199449D01*
X199699Y92623D01*
Y92373D01*
X199449Y92123D01*
X199199D01*
X199449D01*
X199699Y91873D01*
Y91623D01*
X199449Y91373D01*
X198950D01*
X198699Y91623D01*
X200199Y92623D02*
X200449Y92873D01*
X200949D01*
X201199Y92623D01*
Y91623D01*
X200949Y91373D01*
X200449D01*
X200199Y91623D01*
Y92623D01*
X201699Y91623D02*
X201948Y91373D01*
X202448D01*
X202698Y91623D01*
Y92623D01*
X202448Y92873D01*
X201948D01*
X201699Y92623D01*
Y92373D01*
X201948Y92123D01*
X202698D01*
X189000Y44273D02*
X187501D01*
Y45023D01*
X187750Y45273D01*
X188250D01*
X188500Y45023D01*
Y44273D01*
Y44773D02*
X189000Y45273D01*
X187750Y45773D02*
X187501Y46023D01*
Y46523D01*
X187750Y46772D01*
X188000D01*
X188250Y46523D01*
Y46273D01*
Y46523D01*
X188500Y46772D01*
X188750D01*
X189000Y46523D01*
Y46023D01*
X188750Y45773D01*
X189000Y47272D02*
Y47772D01*
Y47522D01*
X187501D01*
X187750Y47272D01*
X189000Y48522D02*
Y49022D01*
Y48772D01*
X187501D01*
X187750Y48522D01*
X195300Y35573D02*
Y37073D01*
X196050D01*
X196300Y36823D01*
Y36323D01*
X196050Y36073D01*
X195300D01*
X195800D02*
X196300Y35573D01*
X196800Y36823D02*
X197049Y37073D01*
X197549D01*
X197799Y36823D01*
Y36573D01*
X197549Y36323D01*
X197299D01*
X197549D01*
X197799Y36073D01*
Y35823D01*
X197549Y35573D01*
X197049D01*
X196800Y35823D01*
X198299Y35573D02*
X198799D01*
X198549D01*
Y37073D01*
X198299Y36823D01*
X200548Y35573D02*
X199549D01*
X200548Y36573D01*
Y36823D01*
X200298Y37073D01*
X199799D01*
X199549Y36823D01*
X169000Y32450D02*
X168750Y32699D01*
X168250D01*
X168000Y32450D01*
Y32200D01*
X168250Y31950D01*
X168750D01*
X169000Y31700D01*
Y31450D01*
X168750Y31200D01*
X168250D01*
X168000Y31450D01*
X169500Y32699D02*
Y31200D01*
X169999Y31700D01*
X170499Y31200D01*
Y32699D01*
X170999Y31200D02*
X171499D01*
X171249D01*
Y32699D01*
X170999Y32450D01*
X172249D02*
X172499Y32699D01*
X172998D01*
X173248Y32450D01*
Y31450D01*
X172998Y31200D01*
X172499D01*
X172249Y31450D01*
Y32450D01*
X173748D02*
X173998Y32699D01*
X174498D01*
X174748Y32450D01*
Y31450D01*
X174498Y31200D01*
X173998D01*
X173748Y31450D01*
Y32450D01*
X177800Y2100D02*
Y3100D01*
X178300Y3599D01*
X178800Y3100D01*
Y2100D01*
Y2850D01*
X177800D01*
X180299Y3350D02*
X180049Y3599D01*
X179549D01*
X179299Y3350D01*
Y2350D01*
X179549Y2100D01*
X180049D01*
X180299Y2350D01*
X180799Y3599D02*
X181799D01*
X181299D01*
Y2100D01*
X182299Y3599D02*
X182798D01*
X182548D01*
Y2100D01*
X182299D01*
X182798D01*
X184298Y3599D02*
X183798D01*
X183548Y3350D01*
Y2350D01*
X183798Y2100D01*
X184298D01*
X184548Y2350D01*
Y3350D01*
X184298Y3599D01*
X185048Y2100D02*
Y3599D01*
X186047Y2100D01*
Y3599D01*
X188047D02*
Y2100D01*
X188796D01*
X189046Y2350D01*
Y2600D01*
X188796Y2850D01*
X188047D01*
X188796D01*
X189046Y3100D01*
Y3350D01*
X188796Y3599D01*
X188047D01*
X189546D02*
Y2350D01*
X189796Y2100D01*
X190296D01*
X190546Y2350D01*
Y3599D01*
X191046D02*
X192045D01*
X191546D01*
Y2100D01*
X192545Y3599D02*
X193545D01*
X193045D01*
Y2100D01*
X194795Y3599D02*
X194295D01*
X194045Y3350D01*
Y2350D01*
X194295Y2100D01*
X194795D01*
X195045Y2350D01*
Y3350D01*
X194795Y3599D01*
X195544Y2100D02*
Y3599D01*
X196544Y2100D01*
Y3599D01*
X210200Y32699D02*
Y31200D01*
X210950D01*
X211200Y31450D01*
Y31700D01*
X210950Y31950D01*
X210200D01*
X210950D01*
X211200Y32200D01*
Y32450D01*
X210950Y32699D01*
X210200D01*
X211700Y31200D02*
Y32200D01*
X212199Y32699D01*
X212699Y32200D01*
Y31200D01*
Y31950D01*
X211700D01*
X213199Y32699D02*
X214199D01*
X213699D01*
Y31200D01*
X214699Y32699D02*
X215698D01*
X215198D01*
Y31200D01*
X217198Y32699D02*
X216198D01*
Y31200D01*
X217198D01*
X216198Y31950D02*
X216698D01*
X217698Y31200D02*
Y32699D01*
X218447D01*
X218697Y32450D01*
Y31950D01*
X218447Y31700D01*
X217698D01*
X218197D02*
X218697Y31200D01*
X219197Y32699D02*
Y32450D01*
X219697Y31950D01*
X220197Y32450D01*
Y32699D01*
X219697Y31950D02*
Y31200D01*
X223196Y32450D02*
X222946Y32699D01*
X222446D01*
X222196Y32450D01*
Y31450D01*
X222446Y31200D01*
X222946D01*
X223196Y31450D01*
X224445Y32699D02*
X223946D01*
X223696Y32450D01*
Y31450D01*
X223946Y31200D01*
X224445D01*
X224695Y31450D01*
Y32450D01*
X224445Y32699D01*
X225195Y31200D02*
Y32699D01*
X226195Y31200D01*
Y32699D01*
X226695Y31200D02*
Y32699D01*
X227694Y31200D01*
Y32699D01*
X197400Y195700D02*
Y197199D01*
X198150D01*
X198400Y196950D01*
Y196450D01*
X198150Y196200D01*
X197400D01*
X197900D02*
X198400Y195700D01*
X199899Y197199D02*
X198899D01*
Y195700D01*
X199899D01*
X198899Y196450D02*
X199399D01*
X201399Y196950D02*
X201149Y197199D01*
X200649D01*
X200399Y196950D01*
Y196700D01*
X200649Y196450D01*
X201149D01*
X201399Y196200D01*
Y195950D01*
X201149Y195700D01*
X200649D01*
X200399Y195950D01*
X202898Y197199D02*
X201899D01*
Y195700D01*
X202898D01*
X201899Y196450D02*
X202398D01*
X203398Y197199D02*
X204398D01*
X203898D01*
Y195700D01*
X206397Y197199D02*
Y195700D01*
X207147D01*
X207397Y195950D01*
Y196200D01*
X207147Y196450D01*
X206397D01*
X207147D01*
X207397Y196700D01*
Y196950D01*
X207147Y197199D01*
X206397D01*
X207897D02*
Y195950D01*
X208147Y195700D01*
X208646D01*
X208896Y195950D01*
Y197199D01*
X209396D02*
X210396D01*
X209896D01*
Y195700D01*
X210896Y197199D02*
X211895D01*
X211396D01*
Y195700D01*
X213145Y197199D02*
X212645D01*
X212395Y196950D01*
Y195950D01*
X212645Y195700D01*
X213145D01*
X213395Y195950D01*
Y196950D01*
X213145Y197199D01*
X213895Y195700D02*
Y197199D01*
X214894Y195700D01*
Y197199D01*
X175300Y189700D02*
X175800D01*
X175550D01*
Y191200D01*
X175300Y190950D01*
X176550Y191200D02*
Y190200D01*
X177049Y189700D01*
X177549Y190200D01*
Y191200D01*
X178049Y190950D02*
X178299Y191200D01*
X178799D01*
X179049Y190950D01*
Y190700D01*
X178799Y190450D01*
X179049Y190200D01*
Y189950D01*
X178799Y189700D01*
X178299D01*
X178049Y189950D01*
Y190200D01*
X178299Y190450D01*
X178049Y190700D01*
Y190950D01*
X178299Y190450D02*
X178799D01*
X164300Y189700D02*
Y191200D01*
X165050D01*
X165300Y190950D01*
Y190450D01*
X165050Y190200D01*
X164300D01*
X164800D02*
X165300Y189700D01*
X166799Y191200D02*
X165799D01*
Y189700D01*
X166799D01*
X165799Y190450D02*
X166299D01*
X168299Y190950D02*
X168049Y191200D01*
X167549D01*
X167299Y190950D01*
Y190700D01*
X167549Y190450D01*
X168049D01*
X168299Y190200D01*
Y189950D01*
X168049Y189700D01*
X167549D01*
X167299Y189950D01*
X169798Y191200D02*
X168799D01*
Y189700D01*
X169798D01*
X168799Y190450D02*
X169298D01*
X170298Y191200D02*
X171298D01*
X170798D01*
Y189700D01*
X156300Y190850D02*
X156050Y191100D01*
X155550D01*
X155300Y190850D01*
Y189850D01*
X155550Y189600D01*
X156050D01*
X156300Y189850D01*
X156799Y191100D02*
Y189600D01*
X157799D01*
X158299Y191100D02*
Y189600D01*
Y190100D01*
X159299Y191100D01*
X158549Y190350D01*
X159299Y189600D01*
X146300Y190850D02*
X146050Y191100D01*
X145550D01*
X145300Y190850D01*
Y189850D01*
X145550Y189600D01*
X146050D01*
X146300Y189850D01*
Y190350D01*
X145800D01*
X146800Y189600D02*
Y191100D01*
X147799Y189600D01*
Y191100D01*
X148299D02*
Y189600D01*
X149049D01*
X149299Y189850D01*
Y190850D01*
X149049Y191100D01*
X148299D01*
X88100Y197250D02*
X87850Y197500D01*
X87350D01*
X87100Y197250D01*
Y196250D01*
X87350Y196000D01*
X87850D01*
X88100Y196250D01*
Y196750D01*
X87600D01*
X88599Y196000D02*
Y197500D01*
X89599Y196000D01*
Y197500D01*
X90099D02*
Y196000D01*
X90849D01*
X91099Y196250D01*
Y197250D01*
X90849Y197500D01*
X90099D01*
X98000Y196000D02*
Y197500D01*
X98750D01*
X99000Y197250D01*
Y196750D01*
X98750Y196500D01*
X98000D01*
X100499Y197500D02*
X99999Y197250D01*
X99499Y196750D01*
Y196250D01*
X99749Y196000D01*
X100249D01*
X100499Y196250D01*
Y196500D01*
X100249Y196750D01*
X99499D01*
X107800Y196000D02*
Y197500D01*
X108550D01*
X108800Y197250D01*
Y196750D01*
X108550Y196500D01*
X107800D01*
X110049Y196000D02*
Y197500D01*
X109300Y196750D01*
X110299D01*
X115200Y197500D02*
Y196000D01*
X116200D01*
X117699Y197500D02*
X116700D01*
Y196000D01*
X117699D01*
X116700Y196750D02*
X117199D01*
X118199Y197500D02*
Y196000D01*
X118949D01*
X119199Y196250D01*
Y197250D01*
X118949Y197500D01*
X118199D01*
X119699Y195750D02*
X120698D01*
X122198Y197250D02*
X121948Y197500D01*
X121448D01*
X121198Y197250D01*
Y196250D01*
X121448Y196000D01*
X121948D01*
X122198Y196250D01*
X123697Y197250D02*
X123447Y197500D01*
X122948D01*
X122698Y197250D01*
Y197000D01*
X122948Y196750D01*
X123447D01*
X123697Y196500D01*
Y196250D01*
X123447Y196000D01*
X122948D01*
X122698Y196250D01*
X128200Y197350D02*
X127950Y197599D01*
X127450D01*
X127200Y197350D01*
Y197100D01*
X127450Y196850D01*
X127950D01*
X128200Y196600D01*
Y196350D01*
X127950Y196100D01*
X127450D01*
X127200Y196350D01*
X128700Y197599D02*
Y196100D01*
X129449D01*
X129699Y196350D01*
Y197350D01*
X129449Y197599D01*
X128700D01*
X130199D02*
X130699D01*
X130449D01*
Y196100D01*
X130199D01*
X130699D01*
X128100Y161650D02*
X127850Y161899D01*
X127350D01*
X127100Y161650D01*
Y161400D01*
X127350Y161150D01*
X127850D01*
X128100Y160900D01*
Y160650D01*
X127850Y160400D01*
X127350D01*
X127100Y160650D01*
X128600Y161899D02*
Y160400D01*
X129349D01*
X129599Y160650D01*
Y161650D01*
X129349Y161899D01*
X128600D01*
X130849D02*
X130349D01*
X130099Y161650D01*
Y160650D01*
X130349Y160400D01*
X130849D01*
X131099Y160650D01*
Y161650D01*
X130849Y161899D01*
X117500Y161550D02*
X117250Y161800D01*
X116750D01*
X116500Y161550D01*
Y161300D01*
X116750Y161050D01*
X117250D01*
X117500Y160800D01*
Y160550D01*
X117250Y160300D01*
X116750D01*
X116500Y160550D01*
X118999Y161550D02*
X118749Y161800D01*
X118249D01*
X117999Y161550D01*
Y160550D01*
X118249Y160300D01*
X118749D01*
X118999Y160550D01*
X119499Y161800D02*
Y160300D01*
X120499D01*
X120999Y161800D02*
Y160300D01*
Y160800D01*
X121998Y161800D01*
X121248Y161050D01*
X121998Y160300D01*
X104000Y161899D02*
Y160400D01*
X105000D01*
X106499Y161899D02*
X105499D01*
Y160400D01*
X106499D01*
X105499Y161150D02*
X105999D01*
X106999Y161899D02*
Y160400D01*
X107749D01*
X107999Y160650D01*
Y161650D01*
X107749Y161899D01*
X106999D01*
X108499Y160150D02*
X109498D01*
X109998Y160400D02*
Y161899D01*
X110748D01*
X110998Y161650D01*
Y161150D01*
X110748Y160900D01*
X109998D01*
X110498D02*
X110998Y160400D01*
X112497Y161650D02*
X112247Y161899D01*
X111748D01*
X111498Y161650D01*
Y161400D01*
X111748Y161150D01*
X112247D01*
X112497Y160900D01*
Y160650D01*
X112247Y160400D01*
X111748D01*
X111498Y160650D01*
X112997Y161899D02*
X113997D01*
X113497D01*
Y160400D01*
X97900Y160300D02*
Y161800D01*
X98650D01*
X98900Y161550D01*
Y161050D01*
X98650Y160800D01*
X97900D01*
X99400Y161800D02*
X100399D01*
Y161550D01*
X99400Y160550D01*
Y160300D01*
X87100Y160400D02*
X87600D01*
X87350D01*
Y161899D01*
X87100Y161650D01*
X88350Y161899D02*
Y160900D01*
X88849Y160400D01*
X89349Y160900D01*
Y161899D01*
X89849Y161650D02*
X90099Y161899D01*
X90599D01*
X90849Y161650D01*
Y161400D01*
X90599Y161150D01*
X90849Y160900D01*
Y160650D01*
X90599Y160400D01*
X90099D01*
X89849Y160650D01*
Y160900D01*
X90099Y161150D01*
X89849Y161400D01*
Y161650D01*
X90099Y161150D02*
X90599D01*
X117500Y39400D02*
Y40900D01*
X118250D01*
X118500Y40650D01*
Y40150D01*
X118250Y39900D01*
X117500D01*
X119999Y39400D02*
X119000D01*
X119999Y40400D01*
Y40650D01*
X119749Y40900D01*
X119249D01*
X119000Y40650D01*
X121499Y40900D02*
X120499D01*
Y40150D01*
X120999Y40400D01*
X121249D01*
X121499Y40150D01*
Y39650D01*
X121249Y39400D01*
X120749D01*
X120499Y39650D01*
X124400Y39500D02*
Y40999D01*
X125150D01*
X125400Y40750D01*
Y40250D01*
X125150Y40000D01*
X124400D01*
X125900Y39500D02*
Y40999D01*
X126399Y40500D01*
X126899Y40999D01*
Y39500D01*
X127399Y40999D02*
X127899D01*
X127649D01*
Y39500D01*
X127399D01*
X127899D01*
X129648Y40750D02*
X129398Y40999D01*
X128899D01*
X128649Y40750D01*
Y39750D01*
X128899Y39500D01*
X129398D01*
X129648Y39750D01*
X130148Y39250D02*
X131148D01*
X131648Y40999D02*
X132148D01*
X131898D01*
Y39500D01*
X131648D01*
X132148D01*
X132897D02*
Y40999D01*
X133897Y39500D01*
Y40999D01*
X134397D02*
X135397D01*
X134897D01*
Y39500D01*
X137500D02*
Y40999D01*
X138250D01*
X138500Y40750D01*
Y40250D01*
X138250Y40000D01*
X137500D01*
X139999Y39500D02*
X138999D01*
X139999Y40500D01*
Y40750D01*
X139749Y40999D01*
X139249D01*
X138999Y40750D01*
X140499Y39750D02*
X140749Y39500D01*
X141249D01*
X141499Y39750D01*
Y40750D01*
X141249Y40999D01*
X140749D01*
X140499Y40750D01*
Y40500D01*
X140749Y40250D01*
X141499D01*
X146400Y39600D02*
Y41100D01*
X147150D01*
X147400Y40850D01*
Y40350D01*
X147150Y40100D01*
X146400D01*
X147899Y41100D02*
Y39600D01*
X148649D01*
X148899Y39850D01*
Y40100D01*
X148649Y40350D01*
X147899D01*
X148649D01*
X148899Y40600D01*
Y40850D01*
X148649Y41100D01*
X147899D01*
X149399Y39350D02*
X150399D01*
X150899Y41100D02*
X151398D01*
X151148D01*
Y39600D01*
X150899D01*
X151398D01*
X152148D02*
Y41100D01*
X153148Y39600D01*
Y41100D01*
X159300Y41199D02*
X158300D01*
Y40450D01*
X158800Y40700D01*
X159050D01*
X159300Y40450D01*
Y39950D01*
X159050Y39700D01*
X158550D01*
X158300Y39950D01*
X159800Y41199D02*
Y40200D01*
X160299Y39700D01*
X160799Y40200D01*
Y41199D01*
X158400Y5050D02*
X158150Y5300D01*
X157650D01*
X157400Y5050D01*
Y4050D01*
X157650Y3800D01*
X158150D01*
X158400Y4050D01*
Y4550D01*
X157900D01*
X158899Y3800D02*
Y5300D01*
X159899Y3800D01*
Y5300D01*
X160399D02*
Y3800D01*
X161149D01*
X161399Y4050D01*
Y5050D01*
X161149Y5300D01*
X160399D01*
X147300Y3800D02*
Y5300D01*
X148050D01*
X148300Y5050D01*
Y4550D01*
X148050Y4300D01*
X147300D01*
X148800Y5050D02*
X149049Y5300D01*
X149549D01*
X149799Y5050D01*
Y4800D01*
X149549Y4550D01*
X149299D01*
X149549D01*
X149799Y4300D01*
Y4050D01*
X149549Y3800D01*
X149049D01*
X148800Y4050D01*
X150299Y5050D02*
X150549Y5300D01*
X151049D01*
X151299Y5050D01*
Y4050D01*
X151049Y3800D01*
X150549D01*
X150299Y4050D01*
Y5050D01*
X137400Y3800D02*
Y5300D01*
X138150D01*
X138400Y5050D01*
Y4550D01*
X138150Y4300D01*
X137400D01*
X139899Y3800D02*
X138900D01*
X139899Y4800D01*
Y5050D01*
X139649Y5300D01*
X139149D01*
X138900Y5050D01*
X140399D02*
X140649Y5300D01*
X141149D01*
X141399Y5050D01*
Y4800D01*
X141149Y4550D01*
X141399Y4300D01*
Y4050D01*
X141149Y3800D01*
X140649D01*
X140399Y4050D01*
Y4300D01*
X140649Y4550D01*
X140399Y4800D01*
Y5050D01*
X140649Y4550D02*
X141149D01*
X125500Y5200D02*
Y3700D01*
X126250D01*
X126500Y3950D01*
Y4200D01*
X126250Y4450D01*
X125500D01*
X126250D01*
X126500Y4700D01*
Y4950D01*
X126250Y5200D01*
X125500D01*
X126999D02*
Y3950D01*
X127249Y3700D01*
X127749D01*
X127999Y3950D01*
Y5200D01*
X128499D02*
X129499D01*
X128999D01*
Y3700D01*
X129999Y5200D02*
X130998D01*
X130498D01*
Y3700D01*
X132248Y5200D02*
X131748D01*
X131498Y4950D01*
Y3950D01*
X131748Y3700D01*
X132248D01*
X132498Y3950D01*
Y4950D01*
X132248Y5200D01*
X132998Y3700D02*
Y5200D01*
X133997Y3700D01*
Y5200D01*
X1600Y178500D02*
Y179999D01*
X2350D01*
X2600Y179750D01*
Y179250D01*
X2350Y179000D01*
X1600D01*
X3100Y178500D02*
X3599D01*
X3349D01*
Y179999D01*
X3100Y179750D01*
X4349D02*
X4599Y179999D01*
X5099D01*
X5349Y179750D01*
Y178750D01*
X5099Y178500D01*
X4599D01*
X4349Y178750D01*
Y179750D01*
X2400Y170050D02*
X2150Y170299D01*
X1650D01*
X1400Y170050D01*
Y169800D01*
X1650Y169550D01*
X2150D01*
X2400Y169300D01*
Y169050D01*
X2150Y168800D01*
X1650D01*
X1400Y169050D01*
X3899Y170050D02*
X3649Y170299D01*
X3149D01*
X2899Y170050D01*
Y169050D01*
X3149Y168800D01*
X3649D01*
X3899Y169050D01*
X4399Y170299D02*
Y168800D01*
X5399D01*
X1500Y158800D02*
Y160300D01*
X2250D01*
X2500Y160050D01*
Y159550D01*
X2250Y159300D01*
X1500D01*
X2999Y158800D02*
X3499D01*
X3249D01*
Y160300D01*
X2999Y160050D01*
X4999Y158800D02*
Y160300D01*
X4249Y159550D01*
X5249D01*
X2400Y149950D02*
X2150Y150199D01*
X1650D01*
X1400Y149950D01*
Y148950D01*
X1650Y148700D01*
X2150D01*
X2400Y148950D01*
Y149450D01*
X1900D01*
X2899Y148700D02*
Y150199D01*
X3899Y148700D01*
Y150199D01*
X4399D02*
Y148700D01*
X5149D01*
X5399Y148950D01*
Y149950D01*
X5149Y150199D01*
X4399D01*
X39400D02*
Y149200D01*
X39900Y148700D01*
X40400Y149200D01*
Y150199D01*
X41899Y149950D02*
X41649Y150199D01*
X41149D01*
X40900Y149950D01*
Y149700D01*
X41149Y149450D01*
X41649D01*
X41899Y149200D01*
Y148950D01*
X41649Y148700D01*
X41149D01*
X40900Y148950D01*
X42399Y150199D02*
Y149950D01*
X42899Y149450D01*
X43399Y149950D01*
Y150199D01*
X42899Y149450D02*
Y148700D01*
X44898Y149950D02*
X44648Y150199D01*
X44148D01*
X43899Y149950D01*
Y149700D01*
X44148Y149450D01*
X44648D01*
X44898Y149200D01*
Y148950D01*
X44648Y148700D01*
X44148D01*
X43899Y148950D01*
X39500Y158500D02*
Y160000D01*
X40250D01*
X40500Y159750D01*
Y159250D01*
X40250Y159000D01*
X39500D01*
X40999Y158500D02*
X41499D01*
X41249D01*
Y160000D01*
X40999Y159750D01*
X43249Y160000D02*
X42249D01*
Y159250D01*
X42749Y159500D01*
X42999D01*
X43249Y159250D01*
Y158750D01*
X42999Y158500D01*
X42499D01*
X42249Y158750D01*
X39400Y168800D02*
Y170299D01*
X40150D01*
X40400Y170050D01*
Y169550D01*
X40150Y169300D01*
X39400D01*
X40900Y168800D02*
X41399D01*
X41149D01*
Y170299D01*
X40900Y170050D01*
X42149D02*
X42399Y170299D01*
X42899D01*
X43149Y170050D01*
Y169800D01*
X42899Y169550D01*
X42649D01*
X42899D01*
X43149Y169300D01*
Y169050D01*
X42899Y168800D01*
X42399D01*
X42149Y169050D01*
X40200Y180250D02*
X39950Y180499D01*
X39450D01*
X39200Y180250D01*
Y180000D01*
X39450Y179750D01*
X39950D01*
X40200Y179500D01*
Y179250D01*
X39950Y179000D01*
X39450D01*
X39200Y179250D01*
X40699Y180499D02*
Y179000D01*
X41449D01*
X41699Y179250D01*
Y180250D01*
X41449Y180499D01*
X40699D01*
X42199Y179000D02*
Y180000D01*
X42699Y180499D01*
X43199Y180000D01*
Y179000D01*
Y179750D01*
X42199D01*
X50300Y3600D02*
Y5099D01*
X51050D01*
X51300Y4850D01*
Y4350D01*
X51050Y4100D01*
X50300D01*
X51799Y3600D02*
X52299D01*
X52049D01*
Y5099D01*
X51799Y4850D01*
X54049Y5099D02*
X53549Y4850D01*
X53049Y4350D01*
Y3850D01*
X53299Y3600D01*
X53799D01*
X54049Y3850D01*
Y4100D01*
X53799Y4350D01*
X53049D01*
X60300Y3600D02*
Y5099D01*
X61050D01*
X61300Y4850D01*
Y4350D01*
X61050Y4100D01*
X60300D01*
X61800Y3600D02*
X62299D01*
X62049D01*
Y5099D01*
X61800Y4850D01*
X63049D02*
X63299Y5099D01*
X63799D01*
X64049Y4850D01*
Y4600D01*
X63799Y4350D01*
X64049Y4100D01*
Y3850D01*
X63799Y3600D01*
X63299D01*
X63049Y3850D01*
Y4100D01*
X63299Y4350D01*
X63049Y4600D01*
Y4850D01*
X63299Y4350D02*
X63799D01*
X70400Y3600D02*
Y5099D01*
X71150D01*
X71400Y4850D01*
Y4350D01*
X71150Y4100D01*
X70400D01*
X72899Y3600D02*
X71899D01*
X72899Y4600D01*
Y4850D01*
X72649Y5099D01*
X72149D01*
X71899Y4850D01*
X73399D02*
X73649Y5099D01*
X74149D01*
X74399Y4850D01*
Y3850D01*
X74149Y3600D01*
X73649D01*
X73399Y3850D01*
Y4850D01*
X80600Y3700D02*
Y5200D01*
X81350D01*
X81600Y4950D01*
Y4450D01*
X81350Y4200D01*
X80600D01*
X83099Y3700D02*
X82099D01*
X83099Y4700D01*
Y4950D01*
X82849Y5200D01*
X82349D01*
X82099Y4950D01*
X84599Y3700D02*
X83599D01*
X84599Y4700D01*
Y4950D01*
X84349Y5200D01*
X83849D01*
X83599Y4950D01*
X91500D02*
X91250Y5200D01*
X90750D01*
X90500Y4950D01*
Y3950D01*
X90750Y3700D01*
X91250D01*
X91500Y3950D01*
Y4450D01*
X91000D01*
X92000Y3700D02*
Y5200D01*
X92999Y3700D01*
Y5200D01*
X93499D02*
Y3700D01*
X94249D01*
X94499Y3950D01*
Y4950D01*
X94249Y5200D01*
X93499D01*
X88800Y41100D02*
Y40100D01*
X89300Y39600D01*
X89800Y40100D01*
Y41100D01*
X90299D02*
Y39600D01*
X91049D01*
X91299Y39850D01*
Y40100D01*
X91049Y40350D01*
X90299D01*
X91049D01*
X91299Y40600D01*
Y40850D01*
X91049Y41100D01*
X90299D01*
X91799Y39600D02*
Y40600D01*
X92299Y41100D01*
X92799Y40600D01*
Y39600D01*
Y40350D01*
X91799D01*
X93299Y41100D02*
X94298D01*
X93798D01*
Y39600D01*
X94798Y41100D02*
X95798D01*
X95298D01*
Y39600D01*
X80400Y39800D02*
Y41300D01*
X81150D01*
X81400Y41050D01*
Y40550D01*
X81150Y40300D01*
X80400D01*
X82899Y39800D02*
X81899D01*
X82899Y40800D01*
Y41050D01*
X82649Y41300D01*
X82149D01*
X81899Y41050D01*
X83399D02*
X83649Y41300D01*
X84149D01*
X84399Y41050D01*
Y40800D01*
X84149Y40550D01*
X83899D01*
X84149D01*
X84399Y40300D01*
Y40050D01*
X84149Y39800D01*
X83649D01*
X83399Y40050D01*
X60600Y39600D02*
Y41100D01*
X61350D01*
X61600Y40850D01*
Y40350D01*
X61350Y40100D01*
X60600D01*
X62099Y39600D02*
X62599D01*
X62349D01*
Y41100D01*
X62099Y40850D01*
X63349Y39850D02*
X63599Y39600D01*
X64099D01*
X64349Y39850D01*
Y40850D01*
X64099Y41100D01*
X63599D01*
X63349Y40850D01*
Y40600D01*
X63599Y40350D01*
X64349D01*
X50900Y39500D02*
Y40999D01*
X51650D01*
X51900Y40750D01*
Y40250D01*
X51650Y40000D01*
X50900D01*
X52399Y39500D02*
X52899D01*
X52649D01*
Y40999D01*
X52399Y40750D01*
X53649Y40999D02*
X54649D01*
Y40750D01*
X53649Y39750D01*
Y39500D01*
X53000Y194500D02*
Y196000D01*
X53500Y195500D01*
X54000Y196000D01*
Y194500D01*
X55249Y196000D02*
X54749D01*
X54500Y195750D01*
Y194750D01*
X54749Y194500D01*
X55249D01*
X55499Y194750D01*
Y195750D01*
X55249Y196000D01*
X55999D02*
X56999D01*
X56499D01*
Y194500D01*
X58248Y196000D02*
X57749D01*
X57499Y195750D01*
Y194750D01*
X57749Y194500D01*
X58248D01*
X58498Y194750D01*
Y195750D01*
X58248Y196000D01*
X58998Y194500D02*
Y196000D01*
X59748D01*
X59998Y195750D01*
Y195250D01*
X59748Y195000D01*
X58998D01*
X59498D02*
X59998Y194500D01*
X62997Y195750D02*
X62747Y196000D01*
X62247D01*
X61997Y195750D01*
Y194750D01*
X62247Y194500D01*
X62747D01*
X62997Y194750D01*
X64246Y196000D02*
X63747D01*
X63497Y195750D01*
Y194750D01*
X63747Y194500D01*
X64246D01*
X64496Y194750D01*
Y195750D01*
X64246Y196000D01*
X64996Y194500D02*
Y196000D01*
X65996Y194500D01*
Y196000D01*
X66496Y194500D02*
Y196000D01*
X67495Y194500D01*
Y196000D01*
D69*
X79287Y79569D02*
G03*
X79287Y79569I-492J0D01*
G01*
X208834Y83373D02*
G03*
X208834Y83373I-787J0D01*
G01*
X191879Y51841D02*
G03*
X191879Y51841I-591J0D01*
G01*
X175440Y114141D02*
G03*
X175440Y114141I-492J0D01*
G01*
X214292Y48065D02*
G03*
X214292Y48065I-492J0D01*
G01*
X123057Y137203D02*
G03*
X123057Y137203I-197J0D01*
G01*
X156219Y86123D02*
G03*
X156219Y86123I-315J0D01*
G01*
X221224Y160093D02*
G03*
X221224Y160093I-394J0D01*
G01*
X10568Y116317D02*
G03*
X10568Y116317I-276J0D01*
G01*
X201224Y136993D02*
G03*
X201224Y136993I-394J0D01*
G01*
Y159993D02*
G03*
X201224Y159993I-394J0D01*
G01*
X221724Y136993D02*
G03*
X221724Y136993I-394J0D01*
G01*
X56600Y179100D02*
G03*
X56600Y179100I-492J0D01*
G01*
X80074Y88231D02*
X89228D01*
X80074Y79471D02*
X89228D01*
X108320Y85972D02*
X108759D01*
Y84003D02*
Y85972D01*
X103641D02*
X104080D01*
X103641Y84003D02*
Y85972D01*
X143829Y131239D02*
X146979Y132814D01*
X150128Y131239D01*
X143239Y116574D02*
Y127893D01*
X150719Y116574D02*
Y127893D01*
X143829Y132814D02*
X150128D01*
X141109Y109116D02*
Y113053D01*
X132448Y109116D02*
Y113053D01*
X174501Y71523D02*
X175485Y69554D01*
X174501Y71523D02*
X175485Y73491D01*
X174304Y69554D02*
Y73491D01*
X122880Y136002D02*
X124061Y137183D01*
X122880Y124585D02*
X124454D01*
X122880D02*
Y126160D01*
X133903Y124585D02*
X135478D01*
Y126160D01*
Y135609D02*
Y137183D01*
X133903D02*
X135478D01*
X61455Y158036D02*
X62636Y156855D01*
X66869Y157052D02*
X68148D01*
Y158332D01*
Y162268D02*
Y163548D01*
X66869D02*
X68148D01*
X61652Y162268D02*
Y163548D01*
X62932D01*
X165425Y76564D02*
Y78646D01*
X163325Y76564D02*
X165425D01*
X163325Y85723D02*
X165425D01*
Y83623D02*
Y85723D01*
X156266Y76564D02*
X158349D01*
X156266D02*
Y78646D01*
X156101Y84666D02*
X157282Y85847D01*
X211776Y158124D02*
X211776Y148676D01*
X221224Y158124D02*
X221224Y148676D01*
X6060Y116415D02*
X9209D01*
X6060Y113265D02*
X9209D01*
X191776Y135024D02*
X191776Y125576D01*
X201224Y135024D02*
X201224Y125576D01*
X191776Y158024D02*
X191776Y148576D01*
X201224Y158025D02*
X201224Y148576D01*
X212276Y135024D02*
X212276Y125576D01*
X221724Y135024D02*
X221725Y125576D01*
D70*
X193882Y48397D02*
G03*
X193882Y48397I-394J0D01*
G01*
X194914Y48191D02*
X201213D01*
X194914Y41892D02*
X201213D01*
D71*
X103047Y101739D02*
G03*
X103047Y101739I-492J0D01*
G01*
D72*
X115400Y9400D02*
G03*
X115400Y9400I-1000J0D01*
G01*
X135000Y192000D02*
G03*
X135000Y192000I-1000J0D01*
G01*
X10400Y194500D02*
G03*
X10400Y194500I-1000J0D01*
G01*
X48400Y9400D02*
G03*
X48400Y9400I-1000J0D01*
G01*
D73*
X61672Y156757D02*
G03*
X61672Y156757I-315J0D01*
G01*
D74*
X212485Y78476D02*
X212485Y76109D01*
X216326Y76109D01*
X212485Y105637D02*
X216326D01*
X212485Y103271D02*
Y105637D01*
X192469Y57254D02*
X201131D01*
X192469Y54892D02*
X201131D01*
Y57254D01*
X192469Y54892D02*
Y57254D01*
X99011Y120243D02*
Y122211D01*
X97043D02*
X99011D01*
X75389D02*
X77358D01*
X75389Y120243D02*
Y122211D01*
Y98589D02*
Y100557D01*
Y98589D02*
X77358D01*
X97043D02*
X99011Y100557D01*
X190204Y114535D02*
X192861D01*
Y111877D02*
Y114535D01*
X190204Y97212D02*
X192861D01*
Y99869D01*
X175539Y97212D02*
X178196D01*
X175539D02*
Y99869D01*
M02*
