G04 Layer_Color=8388736*
%FSLAX25Y25*%
%MOIN*%
G70*
G01*
G75*
%ADD85R,0.01181X0.00984*%
%ADD87R,0.03353X0.02959*%
%ADD88R,0.07880X0.06699*%
%ADD89R,0.05715X0.01975*%
%ADD90R,0.07880X0.05124*%
%ADD91R,0.01975X0.02369*%
%ADD92R,0.01817X0.02369*%
%ADD93R,0.03347X0.01496*%
%ADD94R,0.03740X0.01496*%
%ADD95R,0.05124X0.05321*%
%ADD96R,0.01975X0.02998*%
%ADD97R,0.03550X0.03550*%
%ADD98R,0.02565X0.02762*%
%ADD99R,0.01772X0.01575*%
%ADD100R,0.18904X0.18904*%
%ADD101O,0.01187X0.02959*%
%ADD102O,0.02959X0.01187*%
%ADD103R,0.08668X0.08668*%
%ADD104R,0.03235X0.01581*%
%ADD105R,0.01581X0.03235*%
%ADD106R,0.05400X0.15400*%
%ADD107R,0.04416X0.09022*%
%ADD108R,0.09455X0.03747*%
%ADD109R,0.03195X0.04022*%
%ADD110R,0.03943X0.04337*%
%ADD111R,0.02920X0.02762*%
%ADD112R,0.01654X0.01654*%
%ADD113R,0.07093X0.05124*%
%ADD114R,0.04731X0.02369*%
%ADD115C,0.01437*%
%ADD116C,0.01476*%
G04:AMPARAMS|DCode=117|XSize=12.94mil|YSize=12.94mil|CornerRadius=6.47mil|HoleSize=0mil|Usage=FLASHONLY|Rotation=0.000|XOffset=0mil|YOffset=0mil|HoleType=Round|Shape=RoundedRectangle|*
%AMROUNDEDRECTD117*
21,1,0.01294,0.00000,0,0,0.0*
21,1,0.00000,0.01294,0,0,0.0*
1,1,0.01294,0.00000,0.00000*
1,1,0.01294,0.00000,0.00000*
1,1,0.01294,0.00000,0.00000*
1,1,0.01294,0.00000,0.00000*
%
%ADD117ROUNDEDRECTD117*%
%ADD118R,0.11227X0.05912*%
%ADD119R,0.03550X0.04337*%
%ADD120R,0.01384X0.02565*%
%ADD121R,0.01654X0.01654*%
%ADD122R,0.04337X0.03943*%
%ADD123R,0.02762X0.02920*%
%ADD124R,0.05124X0.07093*%
%ADD125R,0.02369X0.04731*%
%ADD126R,0.15400X0.05400*%
%ADD127R,0.01575X0.01772*%
%ADD128O,0.06306X0.05321*%
%ADD129O,0.07880X0.05223*%
%ADD130C,0.00598*%
D85*
X6454Y114148D02*
D03*
X6454Y115526D02*
D03*
X8816Y115526D02*
D03*
X8816Y114148D02*
D03*
D87*
X87259Y85869D02*
D03*
X82141D02*
D03*
X87259Y81932D02*
D03*
X82141D02*
D03*
D88*
X224200Y86739D02*
D03*
Y95007D02*
D03*
D89*
X213174Y95991D02*
D03*
Y93432D02*
D03*
Y90873D02*
D03*
Y88314D02*
D03*
X213174Y85755D02*
D03*
D90*
X224200Y79062D02*
D03*
X224200Y102684D02*
D03*
D91*
X106200Y86168D02*
D03*
D92*
X107775Y82231D02*
D03*
X104625D02*
D03*
D93*
X200327Y43073D02*
D03*
Y45042D02*
D03*
Y47010D02*
D03*
X195800Y43073D02*
D03*
Y45042D02*
D03*
D94*
X195997Y47010D02*
D03*
D95*
X146979Y116476D02*
D03*
Y127893D02*
D03*
D96*
X194241Y59715D02*
D03*
X196800D02*
D03*
X199359D02*
D03*
Y52431D02*
D03*
X196800D02*
D03*
X194241D02*
D03*
D97*
X203153Y82873D02*
D03*
X197247D02*
D03*
X177847Y71523D02*
D03*
X183753D02*
D03*
X203153Y88373D02*
D03*
X197247D02*
D03*
D98*
X208830Y108873D02*
D03*
X212570D02*
D03*
D99*
X147900Y73842D02*
D03*
Y76204D02*
D03*
X87200Y132181D02*
D03*
Y129819D02*
D03*
X89700Y132181D02*
D03*
Y129819D02*
D03*
X178500Y59081D02*
D03*
Y56719D02*
D03*
X111200Y85481D02*
D03*
Y83119D02*
D03*
X59500Y154781D02*
D03*
Y152419D02*
D03*
X111179Y132165D02*
D03*
Y129803D02*
D03*
X132200Y141981D02*
D03*
Y139619D02*
D03*
X168900Y77685D02*
D03*
Y75323D02*
D03*
X153200Y76123D02*
D03*
Y73761D02*
D03*
X155000Y58404D02*
D03*
Y56042D02*
D03*
X154100Y86104D02*
D03*
Y83742D02*
D03*
X204300Y49573D02*
D03*
Y51935D02*
D03*
X190800Y45073D02*
D03*
Y47435D02*
D03*
D100*
X87200Y110400D02*
D03*
D101*
X95861Y98491D02*
D03*
X94287D02*
D03*
X92712D02*
D03*
X91137D02*
D03*
X89562D02*
D03*
X87987D02*
D03*
X86413D02*
D03*
X84838D02*
D03*
X83263D02*
D03*
X81688D02*
D03*
X80113D02*
D03*
X78539D02*
D03*
Y122309D02*
D03*
X80113D02*
D03*
X81688D02*
D03*
X83263D02*
D03*
X84838D02*
D03*
X86413D02*
D03*
X87987D02*
D03*
X89562D02*
D03*
X91137D02*
D03*
X92712D02*
D03*
X94287D02*
D03*
X95861D02*
D03*
D102*
X75291Y101739D02*
D03*
Y103313D02*
D03*
Y104888D02*
D03*
Y106463D02*
D03*
Y108038D02*
D03*
Y109613D02*
D03*
Y111187D02*
D03*
Y112762D02*
D03*
Y114337D02*
D03*
Y115912D02*
D03*
Y117487D02*
D03*
Y119061D02*
D03*
X99110D02*
D03*
Y117487D02*
D03*
Y115912D02*
D03*
Y114337D02*
D03*
Y112762D02*
D03*
Y111187D02*
D03*
Y109613D02*
D03*
Y108038D02*
D03*
Y106463D02*
D03*
Y104888D02*
D03*
Y103313D02*
D03*
Y101739D02*
D03*
D103*
X184200Y105873D02*
D03*
D104*
X177015Y109712D02*
D03*
Y107153D02*
D03*
Y104594D02*
D03*
Y102035D02*
D03*
X191385D02*
D03*
Y104594D02*
D03*
Y107153D02*
D03*
Y109712D02*
D03*
D105*
X180361Y98688D02*
D03*
X182921D02*
D03*
X185479D02*
D03*
X188039D02*
D03*
Y113058D02*
D03*
X185479D02*
D03*
X182921D02*
D03*
X180361D02*
D03*
D106*
X119400Y13650D02*
D03*
Y31150D02*
D03*
X129400Y13650D02*
D03*
Y31150D02*
D03*
X139400Y13650D02*
D03*
Y31150D02*
D03*
X149400Y13650D02*
D03*
Y31150D02*
D03*
X159400Y13650D02*
D03*
Y31150D02*
D03*
X129000Y187750D02*
D03*
Y170250D02*
D03*
X119000Y187750D02*
D03*
Y170250D02*
D03*
X109000Y187750D02*
D03*
Y170250D02*
D03*
X99000Y187750D02*
D03*
Y170250D02*
D03*
X89000Y187750D02*
D03*
Y170250D02*
D03*
X52400Y13650D02*
D03*
Y31150D02*
D03*
X62400Y13650D02*
D03*
Y31150D02*
D03*
X72400Y13650D02*
D03*
Y31150D02*
D03*
X82400Y13650D02*
D03*
Y31150D02*
D03*
X92400Y13650D02*
D03*
Y31150D02*
D03*
D107*
X177200Y184368D02*
D03*
Y172832D02*
D03*
X147200D02*
D03*
Y184368D02*
D03*
X157200Y172832D02*
D03*
Y184368D02*
D03*
X167200D02*
D03*
Y172832D02*
D03*
D108*
X136779Y115612D02*
D03*
Y106557D02*
D03*
D109*
X158056Y65423D02*
D03*
X152544D02*
D03*
D110*
X121436Y143284D02*
D03*
X116121D02*
D03*
D111*
X171200Y107684D02*
D03*
Y104062D02*
D03*
X161200Y126511D02*
D03*
Y122889D02*
D03*
X165700Y126511D02*
D03*
Y122889D02*
D03*
X72000Y157011D02*
D03*
Y153389D02*
D03*
X79300Y156911D02*
D03*
Y153289D02*
D03*
X53500Y155511D02*
D03*
Y151889D02*
D03*
X165500Y59584D02*
D03*
Y55962D02*
D03*
X169100Y71434D02*
D03*
Y67812D02*
D03*
X172100Y59584D02*
D03*
Y55962D02*
D03*
X144700Y66534D02*
D03*
Y62912D02*
D03*
X140400Y66534D02*
D03*
Y62912D02*
D03*
X202700Y109062D02*
D03*
Y112684D02*
D03*
X197700Y109062D02*
D03*
Y112684D02*
D03*
X188800Y71534D02*
D03*
Y67912D02*
D03*
D112*
X207698Y42573D02*
D03*
X209902D02*
D03*
X81598Y92900D02*
D03*
X83802D02*
D03*
X68302Y121200D02*
D03*
X66098D02*
D03*
X67102Y112800D02*
D03*
X64898D02*
D03*
X119881Y138484D02*
D03*
X117676D02*
D03*
X119881Y135784D02*
D03*
X117676D02*
D03*
X126198Y142300D02*
D03*
X128402D02*
D03*
X152598Y69323D02*
D03*
X154802D02*
D03*
D113*
X222312Y50766D02*
D03*
Y37380D02*
D03*
D114*
X216800Y42498D02*
D03*
Y45648D02*
D03*
D115*
X124258Y135805D02*
D03*
X126226D02*
D03*
X128194D02*
D03*
X130163D02*
D03*
X132132D02*
D03*
X134100D02*
D03*
X124258Y133837D02*
D03*
X126226D02*
D03*
X128194D02*
D03*
X130163D02*
D03*
X132132D02*
D03*
X134100D02*
D03*
X124258Y131869D02*
D03*
X126226D02*
D03*
X128194D02*
D03*
X130163D02*
D03*
X132132D02*
D03*
X134100D02*
D03*
X124258Y129900D02*
D03*
X126226D02*
D03*
X128194D02*
D03*
X130163D02*
D03*
X132132D02*
D03*
X134100D02*
D03*
X124258Y127931D02*
D03*
X126226D02*
D03*
X128194D02*
D03*
X130163D02*
D03*
X132132D02*
D03*
X134100D02*
D03*
X124258Y125963D02*
D03*
X126226D02*
D03*
X128194D02*
D03*
X130163D02*
D03*
X132132D02*
D03*
X134100D02*
D03*
D116*
X66868Y158332D02*
D03*
Y160300D02*
D03*
Y162268D02*
D03*
X64900Y158332D02*
D03*
X62931D02*
D03*
X64900Y160300D02*
D03*
X62931D02*
D03*
Y162268D02*
D03*
X64900D02*
D03*
D117*
X163975Y77973D02*
D03*
Y79548D02*
D03*
X162400Y77973D02*
D03*
Y79548D02*
D03*
X163975Y82698D02*
D03*
Y81123D02*
D03*
Y84272D02*
D03*
X162400Y82698D02*
D03*
Y81123D02*
D03*
X160825Y84272D02*
D03*
X162400D02*
D03*
X160825Y77973D02*
D03*
X159250D02*
D03*
X160825Y79548D02*
D03*
X159250D02*
D03*
Y81123D02*
D03*
X157676Y77973D02*
D03*
Y79548D02*
D03*
X160825Y81123D02*
D03*
X157676D02*
D03*
X160825Y82698D02*
D03*
X159250D02*
D03*
Y84272D02*
D03*
X157676D02*
D03*
Y82698D02*
D03*
D118*
X218487Y172726D02*
D03*
Y188474D02*
D03*
X191913Y172726D02*
D03*
Y188474D02*
D03*
X174213Y26474D02*
D03*
Y10726D02*
D03*
X200787Y26474D02*
D03*
Y10726D02*
D03*
D119*
X214335Y156353D02*
D03*
X214335Y150447D02*
D03*
X218665Y150447D02*
D03*
X218665Y156353D02*
D03*
X194335Y133253D02*
D03*
X194335Y127347D02*
D03*
X198665Y127347D02*
D03*
X198665Y133253D02*
D03*
X194335Y156253D02*
D03*
X194335Y150347D02*
D03*
X198665Y150347D02*
D03*
X198665Y156253D02*
D03*
X214835Y133253D02*
D03*
X214835Y127347D02*
D03*
X219165Y127347D02*
D03*
X219165Y133253D02*
D03*
D120*
X65211Y110303D02*
D03*
X67180D02*
D03*
X69148D02*
D03*
Y106957D02*
D03*
X67180D02*
D03*
X65211D02*
D03*
D121*
X76700Y82798D02*
D03*
Y85002D02*
D03*
X91900Y84302D02*
D03*
Y82098D02*
D03*
X103700Y99502D02*
D03*
Y97298D02*
D03*
X72000Y99902D02*
D03*
Y97698D02*
D03*
X17000Y107000D02*
D03*
Y104795D02*
D03*
X9600Y106900D02*
D03*
Y104695D02*
D03*
X102500Y120198D02*
D03*
Y122402D02*
D03*
X115779Y132187D02*
D03*
Y129982D02*
D03*
X120479Y129882D02*
D03*
Y132087D02*
D03*
D122*
X155400Y127357D02*
D03*
Y122043D02*
D03*
D123*
X198389Y96873D02*
D03*
X202011D02*
D03*
X187011Y118873D02*
D03*
X183389D02*
D03*
D124*
X53407Y187612D02*
D03*
X66793D02*
D03*
D125*
X61675Y182100D02*
D03*
X58525D02*
D03*
D126*
X13650Y189500D02*
D03*
X31150D02*
D03*
X13650Y179500D02*
D03*
X31150D02*
D03*
X13650Y169500D02*
D03*
X31150D02*
D03*
X13650Y159500D02*
D03*
X31150D02*
D03*
X13650Y149500D02*
D03*
X31150D02*
D03*
D127*
X12019Y106998D02*
D03*
X14381D02*
D03*
X209981Y45573D02*
D03*
X207619D02*
D03*
X152519Y61423D02*
D03*
X154881D02*
D03*
X196619Y39073D02*
D03*
X198981D02*
D03*
D128*
X212783Y81031D02*
D03*
X212586Y100716D02*
D03*
D129*
X224200Y76700D02*
D03*
X224198Y105046D02*
D03*
D130*
X80113Y117487D02*
D03*
X84838D02*
D03*
X89562D02*
D03*
X94287D02*
D03*
X80113Y112762D02*
D03*
X84838D02*
D03*
X89562D02*
D03*
X94287D02*
D03*
X80113Y108038D02*
D03*
X84838D02*
D03*
X89562D02*
D03*
X94287D02*
D03*
X80113Y103313D02*
D03*
X84838D02*
D03*
X89562D02*
D03*
X94287D02*
D03*
M02*
