M48
;Layer_Color=9474304
;FILE_FORMAT=2:5
INCH,LZ
;TYPE=PLATED
T2F00S00C0.00600
T3F00S00C0.00700
T4F00S00C0.00787
T5F00S00C0.00800
T6F00S00C0.01600
;TYPE=NON_PLATED
T9F00S00C0.03598
%
T02
X00073Y00344
T03
X-0037341Y-00088
X-00196Y-00097
Y-00003
X-0018025Y-0001875
X-0023141Y00046
X-0008741Y00121
X-0004441Y00116
X-00064Y0018
X-00117Y00158
X0001378Y0016481
X-00068Y00261
X-0000741Y00337
X0024259Y00037
T04
X-00194Y-00335
X-0021111Y-0021189
X-00137Y-00208
X-00135Y-00036
X-00189Y0006
X-00267Y00117
X-0028647Y0013579
X-0030616
X-0032584Y0015547
X-0034553
Y0013579
X-0036521
X-00393Y0016
X-00395Y00223
X-0034553Y0021453
Y0023421
Y0019484
X-00306Y00195
X-00233Y00182
X-00219Y00197
X-0022Y00233
X-00045Y0025581
X0001276Y0020576
X00094Y00221
X000915Y002845
X0014275Y0026875
X00186Y00339
X0014014Y0039345
X0009315Y0041055
X00046Y00394
X00049Y00343
X00077Y00111
X0011Y00118
X00137Y00112
X001405Y001535
X00186Y00183
X00197Y00208
X00229Y00212
X0024Y00165
X0013674Y-0004015
X0008Y-00209
X00253Y-0022
T05
X-00376Y-00255
X-0027956Y-0013356
X-00164Y-0016
X-00091Y-00111
X0004Y-00122
X0006Y-0003
X00037Y00081
X00134Y00041
X00295Y00064
X00328Y00051
Y00098
Y-00017
Y-00075
X00371Y-00102
X00438Y-00101
X00415Y-0017
X00438Y00115
X00423Y00168
X00403Y00206
X00379Y00249
X00127Y00433
X-00072Y00441
X-00191Y00355
X-00233Y00334
X-00197Y00254
X-00195Y00176
X-00167Y00135
X-00433Y0015
X-00225Y-00389
X0Y-00452
X00198Y-00406
T06
X0Y-00025
T09
X-00407Y-00147
X00372Y-00242
X00241Y00363
M30
