G04 Layer_Physical_Order=3*
G04 Layer_Color=16440176*
%FSLAX25Y25*%
%MOIN*%
G70*
G01*
G75*
%ADD43C,0.00500*%
%ADD44C,0.01000*%
%ADD45C,0.00400*%
%ADD56C,0.01800*%
%ADD57C,0.01600*%
%ADD58C,0.01000*%
%ADD59C,0.01300*%
%ADD60C,0.01575*%
%ADD61C,0.02800*%
G36*
X9856Y39606D02*
X9907Y39544D01*
X9937Y39470D01*
X9983Y39452D01*
X10014Y39414D01*
X10093Y39406D01*
X10167Y39375D01*
X12867D01*
X12892Y39345D01*
X12977Y38916D01*
X13220Y38552D01*
X13584Y38309D01*
X14014Y38223D01*
X14443Y38309D01*
X14807Y38552D01*
X15050Y38916D01*
X15135Y39345D01*
X15160Y39375D01*
X19965D01*
X21838Y37503D01*
X22078Y37180D01*
X22087Y36980D01*
X22085Y36931D01*
X21960Y36300D01*
X22123Y35481D01*
X22587Y34786D01*
X23281Y34323D01*
X24100Y34160D01*
X24731Y34285D01*
X24780Y34287D01*
X24980Y34278D01*
X25303Y34038D01*
X34670Y24670D01*
X35873Y23468D01*
X35801Y23009D01*
X35732Y22930D01*
X35335Y22665D01*
X35070Y22268D01*
X34977Y21800D01*
X35070Y21332D01*
X35335Y20935D01*
X35732Y20670D01*
X35975Y20392D01*
X35975Y10500D01*
X33789D01*
X33789Y10500D01*
Y10500D01*
X33711Y10605D01*
X33665Y10665D01*
X33268Y10930D01*
X32800Y11023D01*
X32332Y10930D01*
X31935Y10665D01*
X31670Y10268D01*
X31576Y9800D01*
X31670Y9332D01*
X31935Y8935D01*
X32332Y8670D01*
X32800Y8576D01*
X33268Y8670D01*
X33289Y8683D01*
X33789Y8416D01*
Y6484D01*
X33289Y6216D01*
X33268Y6230D01*
X32800Y6323D01*
X32332Y6230D01*
X31935Y5965D01*
X31670Y5568D01*
X31576Y5100D01*
X31670Y4632D01*
X31935Y4235D01*
X32332Y3970D01*
X32800Y3876D01*
X33268Y3970D01*
X33289Y3983D01*
X33789Y3716D01*
Y-316D01*
X33289Y-583D01*
X33268Y-570D01*
X32800Y-477D01*
X32332Y-570D01*
X31935Y-835D01*
X31670Y-1232D01*
X31576Y-1700D01*
X31670Y-2168D01*
X31935Y-2565D01*
X32332Y-2830D01*
X32800Y-2923D01*
X33268Y-2830D01*
X33289Y-2816D01*
X33789Y-3084D01*
Y-6116D01*
X33289Y-6384D01*
X33268Y-6370D01*
X32800Y-6277D01*
X32332Y-6370D01*
X31935Y-6635D01*
X31670Y-7032D01*
X31576Y-7500D01*
X31670Y-7968D01*
X31935Y-8365D01*
X32332Y-8630D01*
X32800Y-8724D01*
X33268Y-8630D01*
X33289Y-8617D01*
X33789Y-8884D01*
Y-9185D01*
X34717D01*
X35046Y-9604D01*
X34983Y-9879D01*
X34927Y-9907D01*
X34918Y-9937D01*
X34893Y-9956D01*
X20545Y-35138D01*
X15711D01*
X13975Y-34778D01*
X13941Y-34785D01*
X13909Y-34771D01*
X-15966Y-34780D01*
X-15998Y-34793D01*
X-16032Y-34786D01*
X-16114Y-34803D01*
X-16331Y-34738D01*
X-16937Y-34133D01*
X-17933D01*
X-17950Y-34125D01*
X-18305Y-33633D01*
X-18279Y-33500D01*
X-18364Y-33071D01*
X-18607Y-32707D01*
X-18971Y-32464D01*
X-19400Y-32378D01*
X-19829Y-32464D01*
X-20193Y-32707D01*
X-20436Y-33071D01*
X-20447Y-33123D01*
X-20875Y-33381D01*
X-26414Y-31727D01*
X-34370Y-23770D01*
X-34370Y-23770D01*
X-39661Y-18480D01*
X-39562Y-17213D01*
X-39569Y-17191D01*
X-39561Y-17169D01*
X-39607Y-17076D01*
X-39639Y-16977D01*
X-39634Y-16834D01*
X-39503Y-16425D01*
X-39186Y-16214D01*
X-38723Y-15519D01*
X-38560Y-14700D01*
X-38723Y-13881D01*
X-39186Y-13186D01*
X-39234Y-13155D01*
X-39272Y-12980D01*
X-39301Y-12671D01*
X-39239Y-12550D01*
X-39203Y-12507D01*
X-39207Y-12470D01*
X-39190Y-12438D01*
X-38001Y2826D01*
X-38012Y2859D01*
X-38003Y2893D01*
X-39534Y14659D01*
X-39300Y14878D01*
X-38871Y14964D01*
X-38507Y15207D01*
X-38264Y15571D01*
X-38178Y16000D01*
X-38264Y16429D01*
X-38507Y16793D01*
X-38529Y17015D01*
X-36470Y19074D01*
Y24871D01*
X-32770Y28570D01*
X-28629Y32712D01*
X-28600Y32781D01*
X-28458Y32987D01*
X-28337Y33108D01*
X-28131Y33250D01*
X-28062Y33279D01*
X-21866Y39475D01*
X-4434D01*
X-4430Y39470D01*
X-4200Y39375D01*
X3279D01*
X3375Y38893D01*
X3663Y38463D01*
X4093Y38175D01*
X4350Y38124D01*
Y39400D01*
X4850D01*
Y38124D01*
X5107Y38175D01*
X5537Y38463D01*
X5825Y38893D01*
X5921Y39375D01*
X8463D01*
X8537Y39406D01*
X8616Y39414D01*
X8647Y39452D01*
X8693Y39470D01*
X8723Y39544D01*
X8774Y39606D01*
X8802Y39700D01*
X9828D01*
X9856Y39606D01*
D02*
G37*
G36*
X4074Y46564D02*
X8117Y46032D01*
X12098Y45149D01*
X12556Y45005D01*
X12528Y44489D01*
X12232Y44430D01*
X11835Y44165D01*
X11570Y43768D01*
X11477Y43300D01*
X11570Y42832D01*
X11835Y42435D01*
X12232Y42170D01*
X12700Y42077D01*
X13168Y42170D01*
X13565Y42435D01*
X13830Y42832D01*
X13924Y43300D01*
X13830Y43768D01*
X13565Y44165D01*
X13792Y44615D01*
X15987Y43923D01*
X19754Y42362D01*
X23371Y40479D01*
X26810Y38289D01*
X30045Y35806D01*
X33051Y33051D01*
X35806Y30045D01*
X38289Y26810D01*
X38478Y26513D01*
X38167Y26070D01*
X37900Y26123D01*
X37432Y26030D01*
X37035Y25765D01*
X36770Y25368D01*
X36676Y24900D01*
X36770Y24432D01*
X37035Y24035D01*
X37432Y23770D01*
X37900Y23676D01*
X38368Y23770D01*
X38765Y24035D01*
X39030Y24432D01*
X39073Y24648D01*
X39603Y24747D01*
X40479Y23371D01*
X41155Y22073D01*
X40771Y21729D01*
X40768Y21730D01*
X40300Y21824D01*
X39832Y21730D01*
X39435Y21465D01*
X39170Y21068D01*
X39077Y20600D01*
X39170Y20132D01*
X39435Y19735D01*
X39832Y19470D01*
X40300Y19376D01*
X40768Y19470D01*
X41165Y19735D01*
X41430Y20132D01*
X41478Y20370D01*
X42002Y20445D01*
X42362Y19754D01*
X42933Y18376D01*
X42559Y17972D01*
X42300Y18023D01*
X41832Y17930D01*
X41435Y17665D01*
X41170Y17268D01*
X41076Y16800D01*
X41170Y16332D01*
X41435Y15935D01*
X41832Y15670D01*
X42300Y15576D01*
X42768Y15670D01*
X43165Y15935D01*
X43312Y16155D01*
X43862Y16134D01*
X43923Y15987D01*
X44931Y12789D01*
X44507Y12471D01*
X44268Y12630D01*
X43800Y12723D01*
X43332Y12630D01*
X42935Y12365D01*
X42670Y11968D01*
X42577Y11500D01*
X42670Y11032D01*
X42691Y11000D01*
X42424Y10500D01*
X36300Y10500D01*
X36300Y20392D01*
X36746Y20481D01*
X37209Y20791D01*
X37519Y21254D01*
X37578Y21550D01*
X36200D01*
Y22050D01*
X37578D01*
X37519Y22346D01*
X37209Y22809D01*
X36746Y23119D01*
X36300Y23208D01*
Y23500D01*
X34900Y24900D01*
X25532Y34268D01*
X25581Y34765D01*
X25613Y34786D01*
X26077Y35481D01*
X26240Y36300D01*
X26077Y37119D01*
X25613Y37813D01*
X24919Y38277D01*
X24100Y38440D01*
X23281Y38277D01*
X22587Y37813D01*
X22565Y37781D01*
X22068Y37732D01*
X20100Y39700D01*
X15065D01*
X15050Y39774D01*
X14807Y40138D01*
X14443Y40381D01*
X14014Y40466D01*
X13584Y40381D01*
X13220Y40138D01*
X12977Y39774D01*
X12963Y39700D01*
X10167D01*
X10015Y40200D01*
X10108Y40262D01*
X10351Y40626D01*
X10437Y41055D01*
X10351Y41484D01*
X10108Y41848D01*
X9744Y42091D01*
X9315Y42177D01*
X8886Y42091D01*
X8522Y41848D01*
X8279Y41484D01*
X8194Y41055D01*
X8279Y40626D01*
X8522Y40262D01*
X8615Y40200D01*
X8463Y39700D01*
X5662D01*
X5636Y39829D01*
X5393Y40193D01*
X5029Y40436D01*
X4600Y40522D01*
X4171Y40436D01*
X3807Y40193D01*
X3564Y39829D01*
X3538Y39700D01*
X-4200D01*
X-4300Y39800D01*
X-22000D01*
X-28291Y33509D01*
X-28680Y33827D01*
X-28658Y33860D01*
X-28630Y34000D01*
X-29350D01*
Y33280D01*
X-29210Y33308D01*
X-29177Y33330D01*
X-28859Y32941D01*
X-33000Y28800D01*
X-36753Y25047D01*
X-39461Y17090D01*
X-39729Y17036D01*
X-40093Y16793D01*
X-40336Y16429D01*
X-40422Y16000D01*
X-40336Y15571D01*
X-40093Y15207D01*
X-39918Y15090D01*
X-38325Y2851D01*
X-39514Y-12412D01*
X-40037Y-12691D01*
X-40700Y-12560D01*
X-41519Y-12723D01*
X-42213Y-13186D01*
X-42677Y-13881D01*
X-42840Y-14700D01*
X-42677Y-15519D01*
X-42213Y-16214D01*
X-41519Y-16677D01*
X-40700Y-16840D01*
X-40355Y-16772D01*
X-39886Y-17188D01*
X-39996Y-18604D01*
X-34600Y-24000D01*
X-26585Y-32015D01*
X-20453Y-33846D01*
X-20436Y-33929D01*
X-20193Y-34293D01*
X-19829Y-34536D01*
X-19400Y-34622D01*
X-18971Y-34536D01*
X-18715Y-34365D01*
X-16128Y-35138D01*
X-15966Y-35104D01*
X13909Y-35096D01*
X20200Y-36400D01*
X35175Y-10117D01*
X35387Y-10099D01*
X35877Y-10200D01*
X35970Y-10668D01*
X36235Y-11065D01*
X36632Y-11330D01*
X37100Y-11423D01*
X37568Y-11330D01*
X37965Y-11065D01*
X38230Y-10668D01*
X38324Y-10200D01*
X38321Y-10187D01*
X38638Y-9800D01*
X42330Y-9800D01*
X42577Y-10100D01*
X42670Y-10568D01*
X42935Y-10965D01*
X43332Y-11230D01*
X43800Y-11323D01*
X44268Y-11230D01*
X44665Y-10965D01*
X44930Y-10568D01*
X44991Y-10265D01*
X45048Y-10245D01*
X45475Y-10626D01*
X45149Y-12098D01*
X43923Y-15987D01*
X42362Y-19754D01*
X40479Y-23371D01*
X39804Y-24431D01*
X39332Y-24241D01*
X39340Y-24200D01*
X39177Y-23381D01*
X38713Y-22686D01*
X38019Y-22223D01*
X37200Y-22060D01*
X36381Y-22223D01*
X35686Y-22686D01*
X35223Y-23381D01*
X35060Y-24200D01*
X35223Y-25019D01*
X35686Y-25714D01*
X36381Y-26177D01*
X37200Y-26340D01*
X38019Y-26177D01*
X38158Y-26085D01*
X38523Y-26442D01*
X38289Y-26810D01*
X35806Y-30045D01*
X33051Y-33051D01*
X30045Y-35806D01*
X26810Y-38289D01*
X23371Y-40479D01*
X21154Y-41634D01*
X20809Y-41249D01*
X20930Y-41068D01*
X21023Y-40600D01*
X20930Y-40132D01*
X20665Y-39735D01*
X20268Y-39470D01*
X19800Y-39377D01*
X19332Y-39470D01*
X18935Y-39735D01*
X18670Y-40132D01*
X18576Y-40600D01*
X18670Y-41068D01*
X18935Y-41465D01*
X19332Y-41730D01*
X19635Y-42300D01*
X19590Y-42430D01*
X16158Y-43852D01*
X15905Y-43415D01*
X16107Y-43261D01*
X16542Y-42694D01*
X16815Y-42035D01*
X16908Y-41327D01*
Y-38669D01*
X16815Y-37962D01*
X16542Y-37302D01*
X16107Y-36735D01*
X15541Y-36301D01*
X14881Y-36028D01*
X14173Y-35934D01*
X13465Y-36028D01*
X12806Y-36301D01*
X12239Y-36735D01*
X11805Y-37302D01*
X11532Y-37962D01*
X11438Y-38669D01*
Y-41327D01*
X11532Y-42035D01*
X11805Y-42694D01*
X12239Y-43261D01*
X12806Y-43695D01*
X13465Y-43968D01*
X13969Y-44035D01*
X14014Y-44545D01*
X12098Y-45149D01*
X8117Y-46032D01*
X4074Y-46564D01*
X955Y-46700D01*
X815D01*
X663Y-46200D01*
X865Y-46065D01*
X1130Y-45668D01*
X1223Y-45200D01*
X1130Y-44732D01*
X865Y-44335D01*
X468Y-44070D01*
X0Y-43977D01*
X-468Y-44070D01*
X-865Y-44335D01*
X-1130Y-44732D01*
X-1223Y-45200D01*
X-1130Y-45668D01*
X-865Y-46065D01*
X-663Y-46200D01*
X-815Y-46700D01*
X-955D01*
X-4074Y-46564D01*
X-8117Y-46032D01*
X-12098Y-45149D01*
X-14009Y-44546D01*
X-13965Y-44036D01*
X-13465Y-43970D01*
X-12806Y-43697D01*
X-12239Y-43262D01*
X-11805Y-42696D01*
X-11532Y-42037D01*
X-11438Y-41329D01*
Y-38671D01*
X-11532Y-37963D01*
X-11805Y-37304D01*
X-12239Y-36737D01*
X-12806Y-36303D01*
X-13465Y-36030D01*
X-14173Y-35936D01*
X-14881Y-36030D01*
X-15541Y-36303D01*
X-16107Y-36737D01*
X-16542Y-37304D01*
X-16815Y-37963D01*
X-16908Y-38671D01*
Y-41329D01*
X-16815Y-42037D01*
X-16542Y-42696D01*
X-16107Y-43262D01*
X-15911Y-43413D01*
X-16163Y-43850D01*
X-19754Y-42362D01*
X-23371Y-40479D01*
X-26810Y-38289D01*
X-30045Y-35806D01*
X-33051Y-33051D01*
X-35806Y-30045D01*
X-38029Y-27148D01*
X-37747Y-26694D01*
X-37600Y-26724D01*
X-37132Y-26630D01*
X-36735Y-26365D01*
X-36470Y-25968D01*
X-36377Y-25500D01*
X-36470Y-25032D01*
X-36735Y-24635D01*
X-37132Y-24370D01*
X-37600Y-24276D01*
X-38068Y-24370D01*
X-38465Y-24635D01*
X-38730Y-25032D01*
X-38754Y-25149D01*
X-39283Y-25249D01*
X-40121Y-23934D01*
X-39850Y-23537D01*
Y-22100D01*
Y-20722D01*
X-40146Y-20781D01*
X-40609Y-21091D01*
X-40887Y-21506D01*
X-41129Y-21552D01*
X-41428Y-21549D01*
X-42362Y-19754D01*
X-43923Y-15987D01*
X-45149Y-12098D01*
X-45678Y-9713D01*
Y-4662D01*
X-41181D01*
X-40951Y-4567D01*
X-40856Y-4337D01*
Y3537D01*
X-40951Y3767D01*
X-41181Y3862D01*
X-45678D01*
Y7778D01*
X-45840Y7940D01*
X-45655Y9814D01*
X-45149Y12098D01*
X-44575Y13917D01*
X-44014Y14034D01*
X-43768Y13870D01*
X-43300Y13777D01*
X-42832Y13870D01*
X-42435Y14135D01*
X-42170Y14532D01*
X-42077Y15000D01*
X-42170Y15468D01*
X-42435Y15865D01*
X-42832Y16130D01*
X-43231Y16210D01*
X-43372Y16342D01*
X-43578Y16678D01*
X-42077Y20301D01*
X-41105Y22169D01*
X-40581Y22094D01*
X-40536Y21871D01*
X-40293Y21507D01*
X-39929Y21264D01*
X-39500Y21179D01*
X-39071Y21264D01*
X-38707Y21507D01*
X-38464Y21871D01*
X-38378Y22300D01*
X-38464Y22729D01*
X-38707Y23093D01*
X-39071Y23336D01*
X-39500Y23422D01*
X-39801Y23362D01*
X-40099Y23699D01*
X-40131Y23767D01*
X-37983Y26982D01*
X-33788Y32093D01*
X-31038Y34712D01*
X-30652Y34500D01*
X-29850D01*
Y35411D01*
X-30000Y35700D01*
X-29237Y36426D01*
X-26810Y38289D01*
X-23371Y40479D01*
X-19754Y42362D01*
X-15987Y43923D01*
X-12098Y45149D01*
X-8117Y46032D01*
X-4074Y46564D01*
X0Y46742D01*
X4074Y46564D01*
D02*
G37*
%LPC*%
G36*
X7300Y35522D02*
X6871Y35436D01*
X6507Y35193D01*
X6359Y34972D01*
X5886Y34925D01*
X5789Y34950D01*
X5693Y35093D01*
X5329Y35336D01*
X4900Y35422D01*
X4471Y35336D01*
X4107Y35093D01*
X3864Y34729D01*
X3779Y34300D01*
X3864Y33871D01*
X4107Y33507D01*
X4471Y33264D01*
X4900Y33178D01*
X5329Y33264D01*
X5693Y33507D01*
X5841Y33728D01*
X6313Y33775D01*
X6411Y33750D01*
X6507Y33607D01*
X6871Y33364D01*
X7300Y33278D01*
X7729Y33364D01*
X8093Y33607D01*
X8336Y33971D01*
X8422Y34400D01*
X8336Y34829D01*
X8093Y35193D01*
X7729Y35436D01*
X7300Y35522D01*
D02*
G37*
G36*
X-19100Y36724D02*
X-19568Y36630D01*
X-19965Y36365D01*
X-20230Y35968D01*
X-20324Y35500D01*
X-20230Y35032D01*
X-19965Y34635D01*
X-19568Y34370D01*
X-19100Y34277D01*
X-18632Y34370D01*
X-18235Y34635D01*
X-17970Y35032D01*
X-17876Y35500D01*
X-17970Y35968D01*
X-18235Y36365D01*
X-18632Y36630D01*
X-19100Y36724D01*
D02*
G37*
G36*
X-491Y34823D02*
Y33950D01*
X382D01*
X342Y34149D01*
X88Y34529D01*
X-292Y34783D01*
X-491Y34823D01*
D02*
G37*
G36*
X-991D02*
X-1190Y34783D01*
X-1570Y34529D01*
X-1824Y34149D01*
X-1864Y33950D01*
X-991D01*
Y34823D01*
D02*
G37*
G36*
X18600Y35022D02*
X18171Y34936D01*
X17807Y34693D01*
X17564Y34329D01*
X17479Y33900D01*
X17564Y33471D01*
X17807Y33107D01*
X18171Y32864D01*
X18600Y32778D01*
X19029Y32864D01*
X19393Y33107D01*
X19636Y33471D01*
X19722Y33900D01*
X19636Y34329D01*
X19393Y34693D01*
X19029Y34936D01*
X18600Y35022D01*
D02*
G37*
G36*
X382Y33450D02*
X-491D01*
Y32577D01*
X-292Y32617D01*
X88Y32871D01*
X342Y33251D01*
X382Y33450D01*
D02*
G37*
G36*
X-991D02*
X-1864D01*
X-1824Y33251D01*
X-1570Y32871D01*
X-1190Y32617D01*
X-991Y32577D01*
Y33450D01*
D02*
G37*
G36*
X-23300Y34624D02*
X-23768Y34530D01*
X-24165Y34265D01*
X-24430Y33868D01*
X-24523Y33400D01*
X-24430Y32932D01*
X-24165Y32535D01*
X-23768Y32270D01*
X-23300Y32177D01*
X-22832Y32270D01*
X-22435Y32535D01*
X-22170Y32932D01*
X-22076Y33400D01*
X-22170Y33868D01*
X-22435Y34265D01*
X-22832Y34530D01*
X-23300Y34624D01*
D02*
G37*
G36*
X9150Y29571D02*
X8720Y29486D01*
X8356Y29243D01*
X8113Y28879D01*
X8028Y28450D01*
X8113Y28020D01*
X8356Y27656D01*
X8720Y27413D01*
X9150Y27328D01*
X9579Y27413D01*
X9943Y27656D01*
X10186Y28020D01*
X10271Y28450D01*
X10186Y28879D01*
X9943Y29243D01*
X9579Y29486D01*
X9150Y29571D01*
D02*
G37*
G36*
X3050Y28214D02*
Y27188D01*
X4076D01*
X4025Y27445D01*
X3737Y27875D01*
X3307Y28162D01*
X3050Y28214D01*
D02*
G37*
G36*
X2550D02*
X2293Y28162D01*
X1863Y27875D01*
X1575Y27445D01*
X1524Y27188D01*
X2550D01*
Y28214D01*
D02*
G37*
G36*
X14525Y28150D02*
Y27125D01*
X15551D01*
X15499Y27382D01*
X15212Y27812D01*
X14782Y28099D01*
X14525Y28150D01*
D02*
G37*
G36*
X14025D02*
X13768Y28099D01*
X13338Y27812D01*
X13050Y27382D01*
X12999Y27125D01*
X14025D01*
Y28150D01*
D02*
G37*
G36*
X4076Y26688D02*
X3050D01*
Y25662D01*
X3307Y25713D01*
X3737Y26000D01*
X4025Y26431D01*
X4076Y26688D01*
D02*
G37*
G36*
X2550D02*
X1524D01*
X1575Y26431D01*
X1863Y26000D01*
X2293Y25713D01*
X2550Y25662D01*
Y26688D01*
D02*
G37*
G36*
X15551Y26625D02*
X14525D01*
Y25599D01*
X14782Y25650D01*
X15212Y25938D01*
X15499Y26368D01*
X15551Y26625D01*
D02*
G37*
G36*
X14025D02*
X12999D01*
X13050Y26368D01*
X13338Y25938D01*
X13768Y25650D01*
X14025Y25599D01*
Y26625D01*
D02*
G37*
G36*
X-6800Y27069D02*
X-7171Y26995D01*
X-7485Y26785D01*
X-7695Y26471D01*
X-7769Y26100D01*
X-7695Y25729D01*
X-7485Y25415D01*
X-7171Y25205D01*
X-6800Y25131D01*
X-6429Y25205D01*
X-6115Y25415D01*
X-5905Y25729D01*
X-5831Y26100D01*
X-5905Y26471D01*
X-6115Y26785D01*
X-6429Y26995D01*
X-6800Y27069D01*
D02*
G37*
G36*
X-19700Y26623D02*
X-20168Y26530D01*
X-20565Y26265D01*
X-20830Y25868D01*
X-20923Y25400D01*
X-20830Y24932D01*
X-20806Y24895D01*
X-21073Y24395D01*
X-21500D01*
X-21619Y24346D01*
X-22000Y24421D01*
X-22429Y24336D01*
X-22793Y24093D01*
X-23036Y23729D01*
X-23122Y23300D01*
X-23036Y22871D01*
X-22793Y22507D01*
X-22429Y22264D01*
X-22000Y22178D01*
X-21571Y22264D01*
X-21207Y22507D01*
X-20964Y22871D01*
X-20897Y23205D01*
X-19902D01*
X-19737Y22705D01*
X-21667Y20775D01*
X-21900Y20821D01*
X-22329Y20736D01*
X-22693Y20493D01*
X-22936Y20129D01*
X-23007Y19773D01*
X-23183Y19480D01*
X-23300Y19322D01*
X-23413Y19299D01*
X-23729Y19236D01*
X-24093Y18993D01*
X-24336Y18629D01*
X-24421Y18200D01*
X-24336Y17771D01*
X-24093Y17407D01*
X-23729Y17164D01*
X-23300Y17078D01*
X-22871Y17164D01*
X-22507Y17407D01*
X-22275Y17755D01*
X-21203D01*
X-20758Y17611D01*
X-20662Y17293D01*
X-20630Y17132D01*
X-20365Y16735D01*
X-19968Y16470D01*
X-19500Y16376D01*
X-19032Y16470D01*
X-18635Y16735D01*
X-18370Y17132D01*
X-18277Y17600D01*
X-18370Y18068D01*
X-18635Y18465D01*
X-18936Y18666D01*
X-19095Y19214D01*
X-17904Y20405D01*
X-4049D01*
X-3812Y20246D01*
X-3500Y20184D01*
X-3188Y20246D01*
X-2923Y20423D01*
X-2746Y20688D01*
X-2684Y21000D01*
X-2746Y21312D01*
X-2759Y21331D01*
X-2882Y21700D01*
X-2759Y22069D01*
X-2746Y22088D01*
X-2684Y22400D01*
X-2746Y22712D01*
X-2759Y22731D01*
X-2882Y23100D01*
X-2759Y23469D01*
X-2746Y23488D01*
X-2684Y23800D01*
X-2746Y24112D01*
X-2923Y24377D01*
X-3188Y24554D01*
X-3500Y24616D01*
X-3649Y24586D01*
X-3845Y24884D01*
X-3895Y25047D01*
X-3746Y25269D01*
X-3684Y25581D01*
X-3746Y25893D01*
X-3923Y26158D01*
X-4188Y26335D01*
X-4500Y26397D01*
X-4812Y26335D01*
X-5077Y26158D01*
X-5254Y25893D01*
X-5316Y25581D01*
X-5254Y25269D01*
X-5077Y25004D01*
X-4914Y24895D01*
X-5007Y24395D01*
X-18327D01*
X-18594Y24895D01*
X-18570Y24932D01*
X-18476Y25400D01*
X-18570Y25868D01*
X-18835Y26265D01*
X-19232Y26530D01*
X-19700Y26623D01*
D02*
G37*
G36*
X9400Y23222D02*
X8971Y23136D01*
X8607Y22893D01*
X8364Y22529D01*
X8278Y22100D01*
X8364Y21671D01*
X8607Y21307D01*
X8971Y21064D01*
X9400Y20978D01*
X9829Y21064D01*
X10193Y21307D01*
X10436Y21671D01*
X10522Y22100D01*
X10436Y22529D01*
X10193Y22893D01*
X9829Y23136D01*
X9400Y23222D01*
D02*
G37*
G36*
X1526Y21838D02*
Y20826D01*
X2538D01*
X2488Y21078D01*
X2204Y21504D01*
X1778Y21788D01*
X1526Y21838D01*
D02*
G37*
G36*
X1026D02*
X773Y21788D01*
X347Y21504D01*
X63Y21078D01*
X13Y20826D01*
X1026D01*
Y21838D01*
D02*
G37*
G36*
X22900Y22321D02*
X22471Y22236D01*
X22107Y21993D01*
X21864Y21629D01*
X21779Y21200D01*
X21864Y20771D01*
X22107Y20407D01*
X22471Y20164D01*
X22900Y20078D01*
X23329Y20164D01*
X23693Y20407D01*
X23936Y20771D01*
X24022Y21200D01*
X23936Y21629D01*
X23693Y21993D01*
X23329Y22236D01*
X22900Y22321D01*
D02*
G37*
G36*
X-30350Y20763D02*
Y19750D01*
X-29337D01*
X-29387Y20002D01*
X-29672Y20428D01*
X-30098Y20713D01*
X-30350Y20763D01*
D02*
G37*
G36*
X-30850D02*
X-31102Y20713D01*
X-31528Y20428D01*
X-31813Y20002D01*
X-31863Y19750D01*
X-30850D01*
Y20763D01*
D02*
G37*
G36*
X19700Y21922D02*
X19271Y21836D01*
X18907Y21593D01*
X18664Y21229D01*
X18578Y20800D01*
X18664Y20371D01*
X18907Y20007D01*
X19271Y19764D01*
X19700Y19679D01*
X20129Y19764D01*
X20493Y20007D01*
X20736Y20371D01*
X20821Y20800D01*
X20736Y21229D01*
X20493Y21593D01*
X20129Y21836D01*
X19700Y21922D01*
D02*
G37*
G36*
X2538Y20326D02*
X1526D01*
Y19313D01*
X1778Y19363D01*
X2204Y19647D01*
X2488Y20073D01*
X2538Y20326D01*
D02*
G37*
G36*
X1026D02*
X13D01*
X63Y20073D01*
X347Y19647D01*
X773Y19363D01*
X1026Y19313D01*
Y20326D01*
D02*
G37*
G36*
X-34553Y24543D02*
X-34982Y24457D01*
X-35346Y24214D01*
X-35589Y23851D01*
X-35674Y23421D01*
X-35589Y22992D01*
X-35346Y22628D01*
Y22246D01*
X-35589Y21882D01*
X-35674Y21453D01*
X-35589Y21024D01*
X-35346Y20660D01*
Y20277D01*
X-35589Y19914D01*
X-35674Y19484D01*
X-35589Y19055D01*
X-35346Y18691D01*
X-34982Y18448D01*
X-34553Y18363D01*
X-34124Y18448D01*
X-33760Y18691D01*
X-33517Y19055D01*
X-33431Y19484D01*
X-33517Y19914D01*
X-33760Y20277D01*
Y20660D01*
X-33517Y21024D01*
X-33431Y21453D01*
X-33517Y21882D01*
X-33760Y22246D01*
Y22628D01*
X-33517Y22992D01*
X-33431Y23421D01*
X-33517Y23851D01*
X-33760Y24214D01*
X-34124Y24457D01*
X-34553Y24543D01*
D02*
G37*
G36*
X-29337Y19250D02*
X-30350D01*
Y18237D01*
X-30098Y18287D01*
X-29672Y18572D01*
X-29387Y18998D01*
X-29337Y19250D01*
D02*
G37*
G36*
X-30850D02*
X-31863D01*
X-31813Y18998D01*
X-31528Y18572D01*
X-31102Y18287D01*
X-30850Y18237D01*
Y19250D01*
D02*
G37*
G36*
X18600Y19421D02*
X18171Y19336D01*
X17807Y19093D01*
X17564Y18729D01*
X17479Y18300D01*
X17564Y17871D01*
X17807Y17507D01*
X18171Y17264D01*
X18600Y17178D01*
X19029Y17264D01*
X19393Y17507D01*
X19636Y17871D01*
X19722Y18300D01*
X19636Y18729D01*
X19393Y19093D01*
X19029Y19336D01*
X18600Y19421D01*
D02*
G37*
G36*
X-6400Y18969D02*
X-6771Y18895D01*
X-7085Y18685D01*
X-7295Y18371D01*
X-7369Y18000D01*
X-7295Y17629D01*
X-7085Y17315D01*
X-6771Y17105D01*
X-6400Y17031D01*
X-6029Y17105D01*
X-5715Y17315D01*
X-5505Y17629D01*
X-5431Y18000D01*
X-5505Y18371D01*
X-5715Y18685D01*
X-6029Y18895D01*
X-6400Y18969D01*
D02*
G37*
G36*
X-32584Y16669D02*
X-33013Y16583D01*
X-33377Y16340D01*
X-33760D01*
X-34124Y16583D01*
X-34553Y16669D01*
X-34982Y16583D01*
X-35346Y16340D01*
X-35589Y15976D01*
X-35674Y15547D01*
X-35589Y15118D01*
X-35526Y15024D01*
X-35645Y14671D01*
X-35998Y14552D01*
X-36092Y14615D01*
X-36521Y14700D01*
X-36950Y14615D01*
X-37314Y14372D01*
X-37557Y14008D01*
X-37643Y13579D01*
X-37557Y13149D01*
X-37314Y12786D01*
X-36950Y12543D01*
X-36521Y12457D01*
X-36092Y12543D01*
X-35728Y12786D01*
X-35346D01*
X-34982Y12543D01*
X-34553Y12457D01*
X-34124Y12543D01*
X-33760Y12786D01*
X-33517Y13149D01*
X-33431Y13579D01*
X-33517Y14008D01*
X-33593Y14122D01*
X-33511Y14376D01*
X-33054Y14538D01*
X-33013Y14511D01*
X-32584Y14426D01*
X-32155Y14511D01*
X-31791Y14754D01*
X-31548Y15118D01*
X-31463Y15547D01*
X-31548Y15976D01*
X-31791Y16340D01*
X-32155Y16583D01*
X-32584Y16669D01*
D02*
G37*
G36*
X14300Y16626D02*
Y15600D01*
X15326D01*
X15275Y15857D01*
X14987Y16287D01*
X14557Y16575D01*
X14300Y16626D01*
D02*
G37*
G36*
X13800D02*
X13543Y16575D01*
X13113Y16287D01*
X12825Y15857D01*
X12774Y15600D01*
X13800D01*
Y16626D01*
D02*
G37*
G36*
X1378Y17450D02*
X1007Y17376D01*
X693Y17166D01*
X483Y16852D01*
X409Y16481D01*
X483Y16110D01*
X693Y15796D01*
X1007Y15586D01*
X1378Y15513D01*
X1749Y15586D01*
X2063Y15796D01*
X2273Y16110D01*
X2347Y16481D01*
X2273Y16852D01*
X2063Y17166D01*
X1749Y17376D01*
X1378Y17450D01*
D02*
G37*
G36*
X24000Y17621D02*
X23571Y17536D01*
X23207Y17293D01*
X22964Y16929D01*
X22878Y16500D01*
X22964Y16071D01*
X23207Y15707D01*
X23571Y15464D01*
X24000Y15379D01*
X24429Y15464D01*
X24793Y15707D01*
X25036Y16071D01*
X25122Y16500D01*
X25036Y16929D01*
X24793Y17293D01*
X24429Y17536D01*
X24000Y17621D01*
D02*
G37*
G36*
X-11700Y16769D02*
X-12071Y16695D01*
X-12385Y16485D01*
X-12595Y16171D01*
X-12669Y15800D01*
X-12595Y15429D01*
X-12385Y15115D01*
X-12071Y14905D01*
X-11700Y14831D01*
X-11329Y14905D01*
X-11015Y15115D01*
X-10805Y15429D01*
X-10731Y15800D01*
X-10805Y16171D01*
X-11015Y16485D01*
X-11329Y16695D01*
X-11700Y16769D01*
D02*
G37*
G36*
X-28647Y14700D02*
X-29076Y14615D01*
X-29440Y14372D01*
X-29823D01*
X-30187Y14615D01*
X-30616Y14700D01*
X-31045Y14615D01*
X-31409Y14372D01*
X-31652Y14008D01*
X-31737Y13579D01*
X-31652Y13149D01*
X-31409Y12786D01*
X-31383Y12768D01*
X-31578Y12297D01*
X-31700Y12322D01*
X-32129Y12236D01*
X-32493Y11993D01*
X-32736Y11629D01*
X-32822Y11200D01*
X-32736Y10771D01*
X-32493Y10407D01*
X-32129Y10164D01*
X-31700Y10078D01*
X-31341Y9640D01*
Y3000D01*
X-31341Y3000D01*
X-31183Y2617D01*
X-28141Y-424D01*
Y-2100D01*
X-28047Y-2327D01*
X-28122Y-2700D01*
X-28036Y-3129D01*
X-27793Y-3493D01*
X-27429Y-3736D01*
X-27000Y-3822D01*
X-26571Y-3736D01*
X-26207Y-3493D01*
X-25964Y-3129D01*
X-25878Y-2700D01*
X-25428Y-2402D01*
X-25171Y-2350D01*
X-25112Y-2311D01*
X-24638Y-2299D01*
X-24498Y-2457D01*
X-24362Y-2661D01*
X-23998Y-2905D01*
X-23568Y-2990D01*
X-23139Y-2905D01*
X-22775Y-2661D01*
X-22532Y-2298D01*
X-22474Y-2006D01*
X-21964Y-2006D01*
X-21928Y-2187D01*
X-21752Y-2452D01*
X-21487Y-2628D01*
X-21175Y-2691D01*
X-20863Y-2628D01*
X-20598Y-2452D01*
X-20421Y-2187D01*
X-20359Y-1875D01*
X-20421Y-1563D01*
X-20503Y-1441D01*
X-20142Y-1080D01*
X-19971Y-1195D01*
X-19600Y-1269D01*
X-19328Y-1214D01*
X-19109Y-1370D01*
X-19095Y-1384D01*
X-18940Y-1603D01*
X-18994Y-1875D01*
X-18920Y-2245D01*
X-18710Y-2560D01*
X-18396Y-2770D01*
X-18025Y-2843D01*
X-17654Y-2770D01*
X-17340Y-2560D01*
X-17130Y-2245D01*
X-17057Y-1875D01*
X-17130Y-1504D01*
X-17340Y-1190D01*
X-17654Y-980D01*
X-18025Y-906D01*
X-18297Y-960D01*
X-18516Y-805D01*
X-18530Y-790D01*
X-18686Y-572D01*
X-18631Y-300D01*
X-18705Y71D01*
X-18915Y385D01*
X-19229Y595D01*
X-19585Y666D01*
X-19603Y670D01*
X-19620Y680D01*
X-19942Y1110D01*
X-19905Y1200D01*
Y1875D01*
X-19707Y2007D01*
X-19464Y2371D01*
X-19378Y2800D01*
X-19464Y3229D01*
X-19707Y3593D01*
X-20071Y3836D01*
X-20500Y3921D01*
X-20929Y3836D01*
X-21293Y3593D01*
X-21536Y3229D01*
X-21621Y2800D01*
X-21536Y2371D01*
X-21412Y2185D01*
X-21807Y1893D01*
X-22171Y2136D01*
X-22600Y2221D01*
X-23029Y2136D01*
X-23393Y1893D01*
X-23607Y1872D01*
X-26159Y4424D01*
Y10739D01*
X-25907Y10907D01*
X-25664Y11271D01*
X-25578Y11700D01*
X-25664Y12129D01*
X-25907Y12493D01*
X-26271Y12736D01*
X-26700Y12822D01*
X-27129Y12736D01*
X-27158Y12717D01*
X-27647Y12824D01*
X-27733Y12966D01*
X-27611Y13149D01*
X-27526Y13579D01*
X-27611Y14008D01*
X-27854Y14372D01*
X-28218Y14615D01*
X-28647Y14700D01*
D02*
G37*
G36*
X15326Y15100D02*
X14300D01*
Y14074D01*
X14557Y14125D01*
X14987Y14413D01*
X15275Y14843D01*
X15326Y15100D01*
D02*
G37*
G36*
X13800D02*
X12774D01*
X12825Y14843D01*
X13113Y14413D01*
X13543Y14125D01*
X13800Y14074D01*
Y15100D01*
D02*
G37*
G36*
X1900Y14622D02*
X1471Y14536D01*
X1107Y14293D01*
X864Y13929D01*
X778Y13500D01*
X825Y13267D01*
X-421Y12021D01*
X-595Y11600D01*
Y-885D01*
X-663Y-899D01*
X-1226Y-1274D01*
X-1601Y-1837D01*
X-1733Y-2500D01*
X-1601Y-3163D01*
X-1563Y-3221D01*
X-3247Y-4905D01*
X-12573D01*
X-12724Y-4405D01*
X-12707Y-4393D01*
X-12464Y-4029D01*
X-12378Y-3600D01*
X-12464Y-3171D01*
X-12707Y-2807D01*
X-13071Y-2564D01*
X-13500Y-2479D01*
X-13929Y-2564D01*
X-14293Y-2807D01*
X-14536Y-3171D01*
X-14622Y-3600D01*
X-14536Y-4029D01*
X-14293Y-4393D01*
X-14276Y-4405D01*
X-14427Y-4905D01*
X-18142D01*
X-18483Y-4520D01*
X-18454Y-4375D01*
X-18539Y-3946D01*
X-18782Y-3582D01*
X-19146Y-3339D01*
X-19575Y-3254D01*
X-20004Y-3339D01*
X-20368Y-3582D01*
X-20611Y-3946D01*
X-20697Y-4375D01*
X-20611Y-4804D01*
X-20368Y-5168D01*
X-20004Y-5411D01*
X-19575Y-5497D01*
X-19342Y-5450D01*
X-18871Y-5921D01*
X-18450Y-6095D01*
X-3000D01*
X-2579Y-5921D01*
X-721Y-4063D01*
X-663Y-4101D01*
X0Y-4233D01*
X663Y-4101D01*
X1226Y-3726D01*
X1601Y-3163D01*
X1733Y-2500D01*
X1601Y-1837D01*
X1226Y-1274D01*
X663Y-899D01*
X595Y-885D01*
Y11353D01*
X1667Y12425D01*
X1900Y12378D01*
X2329Y12464D01*
X2693Y12707D01*
X2936Y13071D01*
X3022Y13500D01*
X2936Y13929D01*
X2693Y14293D01*
X2329Y14536D01*
X1900Y14622D01*
D02*
G37*
G36*
X-8491Y13223D02*
Y12350D01*
X-7618D01*
X-7658Y12549D01*
X-7912Y12929D01*
X-8292Y13183D01*
X-8491Y13223D01*
D02*
G37*
G36*
X-8991D02*
X-9190Y13183D01*
X-9570Y12929D01*
X-9824Y12549D01*
X-9864Y12350D01*
X-8991D01*
Y13223D01*
D02*
G37*
G36*
X-16700Y14724D02*
X-17168Y14630D01*
X-17565Y14365D01*
X-17830Y13968D01*
X-17923Y13500D01*
X-17830Y13032D01*
X-17565Y12635D01*
X-17168Y12370D01*
X-16700Y12276D01*
X-16232Y12370D01*
X-15835Y12635D01*
X-15570Y13032D01*
X-15476Y13500D01*
X-15570Y13968D01*
X-15835Y14365D01*
X-16232Y14630D01*
X-16700Y14724D01*
D02*
G37*
G36*
X-7618Y11850D02*
X-8491D01*
Y10977D01*
X-8292Y11017D01*
X-7912Y11271D01*
X-7658Y11651D01*
X-7618Y11850D01*
D02*
G37*
G36*
X-8991D02*
X-9864D01*
X-9824Y11651D01*
X-9570Y11271D01*
X-9190Y11017D01*
X-8991Y10977D01*
Y11850D01*
D02*
G37*
G36*
X11000Y12922D02*
X10571Y12836D01*
X10207Y12593D01*
X9964Y12229D01*
X9878Y11800D01*
X9964Y11371D01*
X10207Y11007D01*
X10571Y10764D01*
X11000Y10678D01*
X11429Y10764D01*
X11793Y11007D01*
X12036Y11371D01*
X12122Y11800D01*
X12036Y12229D01*
X11793Y12593D01*
X11429Y12836D01*
X11000Y12922D01*
D02*
G37*
G36*
X-4441Y12569D02*
X-4812Y12495D01*
X-5126Y12285D01*
X-5336Y11971D01*
X-5410Y11600D01*
X-5336Y11229D01*
X-5126Y10915D01*
X-4812Y10705D01*
X-4441Y10631D01*
X-4070Y10705D01*
X-3756Y10915D01*
X-3546Y11229D01*
X-3472Y11600D01*
X-3546Y11971D01*
X-3756Y12285D01*
X-4070Y12495D01*
X-4441Y12569D01*
D02*
G37*
G36*
X13700Y12322D02*
X13271Y12236D01*
X12907Y11993D01*
X12664Y11629D01*
X12578Y11200D01*
X12664Y10771D01*
X12907Y10407D01*
X13271Y10164D01*
X13700Y10078D01*
X14129Y10164D01*
X14493Y10407D01*
X14736Y10771D01*
X14821Y11200D01*
X14736Y11629D01*
X14493Y11993D01*
X14129Y12236D01*
X13700Y12322D01*
D02*
G37*
G36*
X7700Y12222D02*
X7271Y12136D01*
X6907Y11893D01*
X6664Y11529D01*
X6578Y11100D01*
X6664Y10671D01*
X6907Y10307D01*
X7271Y10064D01*
X7700Y9978D01*
X8129Y10064D01*
X8493Y10307D01*
X8736Y10671D01*
X8822Y11100D01*
X8736Y11529D01*
X8493Y11893D01*
X8129Y12136D01*
X7700Y12222D01*
D02*
G37*
G36*
X3700Y9324D02*
X3232Y9230D01*
X2835Y8965D01*
X2570Y8568D01*
X2476Y8100D01*
X2570Y7632D01*
X2835Y7235D01*
X3232Y6970D01*
X3700Y6876D01*
X4168Y6970D01*
X4565Y7235D01*
X4830Y7632D01*
X4924Y8100D01*
X4830Y8568D01*
X4565Y8965D01*
X4168Y9230D01*
X3700Y9324D01*
D02*
G37*
G36*
X-18650Y6970D02*
Y6250D01*
X-17930D01*
X-17958Y6390D01*
X-18179Y6721D01*
X-18510Y6942D01*
X-18650Y6970D01*
D02*
G37*
G36*
X-19150D02*
X-19290Y6942D01*
X-19621Y6721D01*
X-19842Y6390D01*
X-19870Y6250D01*
X-19150D01*
Y6970D01*
D02*
G37*
G36*
X29500Y7623D02*
X29032Y7530D01*
X28635Y7265D01*
X28370Y6868D01*
X28277Y6400D01*
X28370Y5932D01*
X28635Y5535D01*
X29032Y5270D01*
X29500Y5176D01*
X29968Y5270D01*
X30365Y5535D01*
X30630Y5932D01*
X30724Y6400D01*
X30630Y6868D01*
X30365Y7265D01*
X29968Y7530D01*
X29500Y7623D01*
D02*
G37*
G36*
X-17930Y5750D02*
X-18650D01*
Y5030D01*
X-18510Y5058D01*
X-18179Y5279D01*
X-17958Y5610D01*
X-17930Y5750D01*
D02*
G37*
G36*
X-19150D02*
X-19870D01*
X-19842Y5610D01*
X-19621Y5279D01*
X-19290Y5058D01*
X-19150Y5030D01*
Y5750D01*
D02*
G37*
G36*
X-23141Y5722D02*
X-23570Y5636D01*
X-23934Y5393D01*
X-24177Y5029D01*
X-24262Y4600D01*
X-24177Y4171D01*
X-23934Y3807D01*
X-23570Y3564D01*
X-23141Y3478D01*
X-22712Y3564D01*
X-22348Y3807D01*
X-22105Y4171D01*
X-22019Y4600D01*
X-22105Y5029D01*
X-22348Y5393D01*
X-22712Y5636D01*
X-23141Y5722D01*
D02*
G37*
G36*
X13400Y5324D02*
X12932Y5230D01*
X12535Y4965D01*
X12270Y4568D01*
X12177Y4100D01*
X12270Y3632D01*
X12535Y3235D01*
X12932Y2970D01*
X13400Y2877D01*
X13868Y2970D01*
X14265Y3235D01*
X14530Y3632D01*
X14624Y4100D01*
X14530Y4568D01*
X14265Y4965D01*
X13868Y5230D01*
X13400Y5324D01*
D02*
G37*
G36*
X24259Y4669D02*
X23888Y4595D01*
X23574Y4385D01*
X23364Y4071D01*
X23290Y3700D01*
X23364Y3329D01*
X23574Y3015D01*
X23888Y2805D01*
X24259Y2731D01*
X24630Y2805D01*
X24944Y3015D01*
X25154Y3329D01*
X25228Y3700D01*
X25154Y4071D01*
X24944Y4385D01*
X24630Y4595D01*
X24259Y4669D01*
D02*
G37*
G36*
X6000Y-1777D02*
X5532Y-1870D01*
X5135Y-2135D01*
X4870Y-2532D01*
X4777Y-3000D01*
X4870Y-3468D01*
X5135Y-3865D01*
X5532Y-4130D01*
X6000Y-4223D01*
X6468Y-4130D01*
X6865Y-3865D01*
X7130Y-3468D01*
X7224Y-3000D01*
X7130Y-2532D01*
X6865Y-2135D01*
X6468Y-1870D01*
X6000Y-1777D01*
D02*
G37*
G36*
X13674Y-2893D02*
X13245Y-2979D01*
X12881Y-3222D01*
X12638Y-3586D01*
X12552Y-4015D01*
X12638Y-4444D01*
X12881Y-4808D01*
X13245Y-5051D01*
X13674Y-5136D01*
X14103Y-5051D01*
X14467Y-4808D01*
X14710Y-4444D01*
X14796Y-4015D01*
X14710Y-3586D01*
X14467Y-3222D01*
X14103Y-2979D01*
X13674Y-2893D01*
D02*
G37*
G36*
X-37341Y-7831D02*
X-37712Y-7905D01*
X-38026Y-8115D01*
X-38236Y-8429D01*
X-38310Y-8800D01*
X-38236Y-9171D01*
X-38026Y-9485D01*
X-37712Y-9695D01*
X-37341Y-9769D01*
X-36970Y-9695D01*
X-36656Y-9485D01*
X-36446Y-9171D01*
X-36372Y-8800D01*
X-36446Y-8429D01*
X-36656Y-8115D01*
X-36970Y-7905D01*
X-37341Y-7831D01*
D02*
G37*
G36*
X-19600Y-8578D02*
X-20029Y-8664D01*
X-20393Y-8907D01*
X-20636Y-9271D01*
X-20721Y-9700D01*
X-20636Y-10129D01*
X-20393Y-10493D01*
X-20029Y-10736D01*
X-19600Y-10822D01*
X-19171Y-10736D01*
X-18807Y-10493D01*
X-18564Y-10129D01*
X-18478Y-9700D01*
X-18564Y-9271D01*
X-18807Y-8907D01*
X-19171Y-8664D01*
X-19600Y-8578D01*
D02*
G37*
G36*
X-8850Y-9722D02*
Y-10850D01*
X-7722D01*
X-7781Y-10554D01*
X-8091Y-10091D01*
X-8554Y-9781D01*
X-8850Y-9722D01*
D02*
G37*
G36*
X-9350D02*
X-9646Y-9781D01*
X-10109Y-10091D01*
X-10419Y-10554D01*
X-10478Y-10850D01*
X-9350D01*
Y-9722D01*
D02*
G37*
G36*
X-7722Y-11350D02*
X-8850D01*
Y-12478D01*
X-8554Y-12419D01*
X-8091Y-12109D01*
X-7781Y-11646D01*
X-7722Y-11350D01*
D02*
G37*
G36*
X-9350D02*
X-10478D01*
X-10419Y-11646D01*
X-10109Y-12109D01*
X-9646Y-12419D01*
X-9350Y-12478D01*
Y-11350D01*
D02*
G37*
G36*
X-16406Y-12233D02*
Y-13106D01*
X-15533D01*
X-15573Y-12907D01*
X-15827Y-12527D01*
X-16207Y-12273D01*
X-16406Y-12233D01*
D02*
G37*
G36*
X-16906D02*
X-17105Y-12273D01*
X-17485Y-12527D01*
X-17739Y-12907D01*
X-17779Y-13106D01*
X-16906D01*
Y-12233D01*
D02*
G37*
G36*
X-27706Y-11978D02*
Y-13106D01*
X-26578D01*
X-26637Y-12810D01*
X-26947Y-12347D01*
X-27410Y-12037D01*
X-27706Y-11978D01*
D02*
G37*
G36*
X-28206D02*
X-28502Y-12037D01*
X-28965Y-12347D01*
X-29275Y-12810D01*
X-29334Y-13106D01*
X-28206D01*
Y-11978D01*
D02*
G37*
G36*
X4000Y-10977D02*
X3532Y-11070D01*
X3135Y-11335D01*
X2870Y-11732D01*
X2777Y-12200D01*
X2870Y-12668D01*
X3135Y-13065D01*
X3532Y-13330D01*
X4000Y-13423D01*
X4468Y-13330D01*
X4865Y-13065D01*
X5130Y-12668D01*
X5223Y-12200D01*
X5130Y-11732D01*
X4865Y-11335D01*
X4468Y-11070D01*
X4000Y-10977D01*
D02*
G37*
G36*
X-26578Y-13606D02*
X-27706D01*
Y-14734D01*
X-27410Y-14675D01*
X-26947Y-14365D01*
X-26637Y-13902D01*
X-26578Y-13606D01*
D02*
G37*
G36*
X-28206D02*
X-29334D01*
X-29275Y-13902D01*
X-28965Y-14365D01*
X-28502Y-14675D01*
X-28206Y-14734D01*
Y-13606D01*
D02*
G37*
G36*
X-15533D02*
X-17779D01*
X-17739Y-13805D01*
X-17485Y-14185D01*
X-17105Y-14439D01*
X-17088Y-14442D01*
X-17014Y-14967D01*
X-17265Y-15135D01*
X-17530Y-15532D01*
X-17624Y-16000D01*
X-17530Y-16468D01*
X-17265Y-16865D01*
X-16868Y-17130D01*
X-16400Y-17223D01*
X-15932Y-17130D01*
X-15535Y-16865D01*
X-15270Y-16468D01*
X-15177Y-16000D01*
X-15270Y-15532D01*
X-15535Y-15135D01*
X-15932Y-14870D01*
X-15968Y-14863D01*
X-16052Y-14336D01*
X-15827Y-14185D01*
X-15573Y-13805D01*
X-15533Y-13606D01*
D02*
G37*
G36*
X-13700Y-19679D02*
X-14129Y-19764D01*
X-14493Y-20007D01*
X-14736Y-20371D01*
X-14821Y-20800D01*
X-14736Y-21229D01*
X-14493Y-21593D01*
X-14129Y-21836D01*
X-13700Y-21922D01*
X-13271Y-21836D01*
X-12907Y-21593D01*
X-12664Y-21229D01*
X-12578Y-20800D01*
X-12664Y-20371D01*
X-12907Y-20007D01*
X-13271Y-19764D01*
X-13700Y-19679D01*
D02*
G37*
G36*
X8000Y-19779D02*
X7571Y-19864D01*
X7207Y-20107D01*
X6964Y-20471D01*
X6878Y-20900D01*
X6964Y-21329D01*
X7207Y-21693D01*
X7571Y-21936D01*
X8000Y-22021D01*
X8429Y-21936D01*
X8793Y-21693D01*
X9036Y-21329D01*
X9122Y-20900D01*
X9036Y-20471D01*
X8793Y-20107D01*
X8429Y-19864D01*
X8000Y-19779D01*
D02*
G37*
G36*
X-21111Y-20067D02*
X-21540Y-20153D01*
X-21904Y-20396D01*
X-22147Y-20760D01*
X-22233Y-21189D01*
X-22147Y-21618D01*
X-21904Y-21982D01*
X-21540Y-22225D01*
X-21111Y-22310D01*
X-20682Y-22225D01*
X-20318Y-21982D01*
X-20075Y-21618D01*
X-19989Y-21189D01*
X-20075Y-20760D01*
X-20318Y-20396D01*
X-20682Y-20153D01*
X-21111Y-20067D01*
D02*
G37*
G36*
X25300Y-20878D02*
X24871Y-20964D01*
X24507Y-21207D01*
X24264Y-21571D01*
X24179Y-22000D01*
X24264Y-22429D01*
X24507Y-22793D01*
X24871Y-23036D01*
X25300Y-23122D01*
X25729Y-23036D01*
X26093Y-22793D01*
X26336Y-22429D01*
X26422Y-22000D01*
X26336Y-21571D01*
X26093Y-21207D01*
X25729Y-20964D01*
X25300Y-20878D01*
D02*
G37*
G36*
X9843Y-25109D02*
X9122Y-25204D01*
X8450Y-25482D01*
X7874Y-25925D01*
X7431Y-26502D01*
X7153Y-27173D01*
X7058Y-27894D01*
Y-28878D01*
X7153Y-29599D01*
X7431Y-30270D01*
X7874Y-30847D01*
X8450Y-31289D01*
X9122Y-31567D01*
X9843Y-31662D01*
X10563Y-31567D01*
X11235Y-31289D01*
X11811Y-30847D01*
X12254Y-30270D01*
X12532Y-29599D01*
X12627Y-28878D01*
Y-27894D01*
X12532Y-27173D01*
X12254Y-26502D01*
X11811Y-25925D01*
X11235Y-25482D01*
X10563Y-25204D01*
X9843Y-25109D01*
D02*
G37*
G36*
X-9843Y-25306D02*
X-10563Y-25401D01*
X-11235Y-25679D01*
X-11811Y-26122D01*
X-12254Y-26698D01*
X-12532Y-27370D01*
X-12627Y-28091D01*
Y-29075D01*
X-12532Y-29796D01*
X-12254Y-30467D01*
X-11811Y-31044D01*
X-11235Y-31486D01*
X-10563Y-31764D01*
X-9843Y-31859D01*
X-9122Y-31764D01*
X-8450Y-31486D01*
X-7874Y-31044D01*
X-7431Y-30467D01*
X-7153Y-29796D01*
X-7058Y-29075D01*
Y-28091D01*
X-7153Y-27370D01*
X-7431Y-26698D01*
X-7874Y-26122D01*
X-8450Y-25679D01*
X-9122Y-25401D01*
X-9843Y-25306D01*
D02*
G37*
G36*
X-7200Y45324D02*
X-7668Y45230D01*
X-8065Y44965D01*
X-8330Y44568D01*
X-8423Y44100D01*
X-8330Y43632D01*
X-8065Y43235D01*
X-7668Y42970D01*
X-7200Y42876D01*
X-6732Y42970D01*
X-6335Y43235D01*
X-6070Y43632D01*
X-5976Y44100D01*
X-6070Y44568D01*
X-6335Y44965D01*
X-6732Y45230D01*
X-7200Y45324D01*
D02*
G37*
G36*
X-29350Y35220D02*
Y34500D01*
X-28630D01*
X-28658Y34640D01*
X-28879Y34971D01*
X-29210Y35192D01*
X-29350Y35220D01*
D02*
G37*
G36*
X-29850Y34000D02*
X-30570D01*
X-30542Y33860D01*
X-30321Y33529D01*
X-29990Y33308D01*
X-29850Y33280D01*
Y34000D01*
D02*
G37*
G36*
X41500Y-15777D02*
X41032Y-15870D01*
X40635Y-16135D01*
X40370Y-16532D01*
X40277Y-17000D01*
X40370Y-17468D01*
X40635Y-17865D01*
X41032Y-18130D01*
X41500Y-18224D01*
X41968Y-18130D01*
X42365Y-17865D01*
X42630Y-17468D01*
X42724Y-17000D01*
X42630Y-16532D01*
X42365Y-16135D01*
X41968Y-15870D01*
X41500Y-15777D01*
D02*
G37*
G36*
X32650Y-17722D02*
Y-18850D01*
X33778D01*
X33719Y-18554D01*
X33409Y-18091D01*
X32946Y-17781D01*
X32650Y-17722D01*
D02*
G37*
G36*
X32150D02*
X31854Y-17781D01*
X31391Y-18091D01*
X31081Y-18554D01*
X31022Y-18850D01*
X32150D01*
Y-17722D01*
D02*
G37*
G36*
X33778Y-19350D02*
X32650D01*
Y-20478D01*
X32946Y-20419D01*
X33409Y-20109D01*
X33719Y-19646D01*
X33778Y-19350D01*
D02*
G37*
G36*
X32150D02*
X31022D01*
X31081Y-19646D01*
X31391Y-20109D01*
X31854Y-20419D01*
X32150Y-20478D01*
Y-19350D01*
D02*
G37*
G36*
X-39350Y-20722D02*
Y-21850D01*
X-38222D01*
X-38281Y-21554D01*
X-38591Y-21091D01*
X-39054Y-20781D01*
X-39350Y-20722D01*
D02*
G37*
G36*
X-38222Y-22350D02*
X-39350D01*
Y-23478D01*
X-39054Y-23419D01*
X-38591Y-23109D01*
X-38281Y-22646D01*
X-38222Y-22350D01*
D02*
G37*
G36*
X-22500Y-37677D02*
X-22968Y-37770D01*
X-23365Y-38035D01*
X-23630Y-38432D01*
X-23723Y-38900D01*
X-23630Y-39368D01*
X-23365Y-39765D01*
X-22968Y-40030D01*
X-22500Y-40124D01*
X-22032Y-40030D01*
X-21635Y-39765D01*
X-21370Y-39368D01*
X-21276Y-38900D01*
X-21370Y-38432D01*
X-21635Y-38035D01*
X-22032Y-37770D01*
X-22500Y-37677D01*
D02*
G37*
%LPD*%
D43*
X-18151Y21000D02*
X-3500D01*
X-20801Y18350D02*
X-18151Y21000D01*
X-3000Y-5500D02*
X0Y-2500D01*
Y11600D01*
X1900Y13500D01*
X-18450Y-5500D02*
X-3000D01*
X-19575Y-4375D02*
X-18450Y-5500D01*
X-20500Y1200D02*
Y2800D01*
X-23568Y-1868D02*
X-20500Y1200D01*
X-23150Y18350D02*
X-20801D01*
X-21900Y19700D02*
X-19200Y22400D01*
X-3500D01*
X-22000Y23300D02*
X-21500Y23800D01*
X-3500D01*
D44*
X-27956Y-13356D02*
X-16656D01*
D45*
X-26300Y-614D02*
Y-86D01*
X-28500Y3500D02*
X-26100Y1100D01*
X-28500Y3500D02*
Y13431D01*
X-27186Y800D02*
X-26300Y-86D01*
X-27200Y800D02*
X-27186D01*
X-29800Y3400D02*
X-27200Y800D01*
X-29800Y3400D02*
Y12763D01*
X-30616Y13579D02*
X-29800Y12763D01*
X-30800Y3000D02*
Y10300D01*
X-31700Y11200D02*
X-30800Y10300D01*
X-23700Y1200D02*
X-22700D01*
X-22600Y1100D01*
X-26100D02*
X-25300D01*
X-24200Y0D01*
X-26300Y-614D02*
X-25600Y-1314D01*
X-27600Y-2100D02*
Y-200D01*
X-30800Y3000D02*
X-27600Y-200D01*
X-26700Y4200D02*
X-23700Y1200D01*
X-26700Y4200D02*
Y11700D01*
D56*
X-27956Y-13356D02*
D03*
X-9100Y-11100D02*
D03*
X36200Y21800D02*
D03*
X32400Y-19100D02*
D03*
X-39600Y-22100D02*
D03*
D57*
X-20500Y2800D02*
D03*
X-27000Y-2700D02*
D03*
X-25600Y-1314D02*
D03*
X-24200Y0D02*
D03*
X-22600Y1100D02*
D03*
X-31700Y11200D02*
D03*
X-30616Y13579D02*
D03*
X-28647D02*
D03*
X-23300Y18200D02*
D03*
X-22000Y23300D02*
D03*
X-21900Y19700D02*
D03*
X-19575Y-4375D02*
D03*
X1900Y13500D02*
D03*
X14050Y15350D02*
D03*
X4600Y39400D02*
D03*
X14275Y26875D02*
D03*
X2800Y26938D02*
D03*
X-26700Y11700D02*
D03*
X-23568Y-1868D02*
D03*
D58*
X-3500Y21000D02*
D03*
Y22400D02*
D03*
Y23800D02*
D03*
X-29600Y34250D02*
D03*
X-18900Y6000D02*
D03*
D59*
X-16656Y-13356D02*
D03*
X-741Y33700D02*
D03*
X-8741Y12100D02*
D03*
D60*
X1276Y20576D02*
D03*
X-30600Y19500D02*
D03*
D61*
X0Y-2500D02*
D03*
M02*
