G04 Layer_Color=65535*
%FSLAX25Y25*%
%MOIN*%
G70*
G01*
G75*
%ADD43C,0.00500*%
%ADD45C,0.00400*%
%ADD47C,0.00800*%
%ADD48C,0.00700*%
%ADD76C,0.00492*%
%ADD77C,0.00433*%
%ADD78C,0.00394*%
%ADD79C,0.00787*%
D43*
X-22861Y-23149D02*
G03*
X-22861Y-23149I-492J0D01*
G01*
X39478Y5283D02*
G03*
X39478Y5283I-276J0D01*
G01*
X-24206Y4700D02*
G03*
X-24206Y4700I-315J0D01*
G01*
X-25084Y24819D02*
G03*
X-25084Y24819I-197J0D01*
G01*
X-8418Y31952D02*
G03*
X-8418Y31952I-492J0D01*
G01*
X13124Y-19452D02*
G03*
X13124Y-19452I-492J0D01*
G01*
X-6713Y-23846D02*
G03*
X-6713Y-23846I-787J0D01*
G01*
X26434Y12772D02*
G03*
X26434Y12772I-492J0D01*
G01*
X40285Y8335D02*
X43435D01*
X40285Y5185D02*
X43435D01*
X14124Y20452D02*
X21013D01*
X14124D02*
Y25373D01*
X21013Y20452D02*
Y25373D01*
X14124D02*
X21013D01*
X-24324Y3243D02*
X-23143Y4424D01*
X-24159Y-4859D02*
Y-2776D01*
Y-4859D02*
X-22076D01*
X-15000Y2200D02*
Y4300D01*
X-17100D02*
X-15000D01*
X-17100Y-4859D02*
X-15000D01*
Y-2776D01*
X-19632Y-20148D02*
X-18352D01*
Y-18868D01*
X-24848Y-20148D02*
X-23569D01*
X-24848D02*
Y-18868D01*
Y-14931D02*
Y-13652D01*
X-23569D01*
X-19336Y-13455D02*
X-18155Y-14636D01*
X-26482Y24799D02*
X-25301Y23618D01*
X-37899Y23224D02*
Y24799D01*
X-36324D01*
X-37899Y12201D02*
Y13776D01*
Y12201D02*
X-36324D01*
X-26876D02*
X-25301D01*
Y13776D01*
X-5699Y4600D02*
X-4715Y2631D01*
X-5699Y4600D02*
X-4715Y6568D01*
X-5896Y2631D02*
Y6568D01*
X15509Y12870D02*
X24663D01*
X15509Y4110D02*
X24663D01*
D45*
X17511Y15200D02*
X18511Y13700D01*
Y15200D02*
X17511Y13700D01*
X19011D02*
X19510D01*
X19261D01*
Y15200D01*
X19011Y14950D01*
X20260D02*
X20510Y15200D01*
X21010D01*
X21260Y14950D01*
Y13950D01*
X21010Y13700D01*
X20510D01*
X20260Y13950D01*
Y14950D01*
X21760D02*
X22010Y15200D01*
X22510D01*
X22759Y14950D01*
Y13950D01*
X22510Y13700D01*
X22010D01*
X21760Y13950D01*
Y14950D01*
X9601Y-8600D02*
X10850D01*
X11100Y-8350D01*
Y-7850D01*
X10850Y-7600D01*
X9601D01*
X9850Y-7101D02*
X9601Y-6851D01*
Y-6351D01*
X9850Y-6101D01*
X10100D01*
X10350Y-6351D01*
Y-6601D01*
Y-6351D01*
X10600Y-6101D01*
X10850D01*
X11100Y-6351D01*
Y-6851D01*
X10850Y-7101D01*
X9850Y-5601D02*
X9601Y-5351D01*
Y-4851D01*
X9850Y-4601D01*
X10850D01*
X11100Y-4851D01*
Y-5351D01*
X10850Y-5601D01*
X9850D01*
X11100Y-3102D02*
Y-4101D01*
X10100Y-3102D01*
X9850D01*
X9601Y-3352D01*
Y-3852D01*
X9850Y-4101D01*
X-17600Y18600D02*
X-16350D01*
X-16100Y18850D01*
Y19350D01*
X-16350Y19600D01*
X-17600D01*
X-17350Y20099D02*
X-17600Y20349D01*
Y20849D01*
X-17350Y21099D01*
X-17100D01*
X-16850Y20849D01*
Y20599D01*
Y20849D01*
X-16600Y21099D01*
X-16350D01*
X-16100Y20849D01*
Y20349D01*
X-16350Y20099D01*
X-17350Y21599D02*
X-17600Y21849D01*
Y22349D01*
X-17350Y22599D01*
X-16350D01*
X-16100Y22349D01*
Y21849D01*
X-16350Y21599D01*
X-17350D01*
X-16100Y23099D02*
Y23598D01*
Y23348D01*
X-17600D01*
X-17350Y23099D01*
X-18600Y6600D02*
Y5350D01*
X-18350Y5100D01*
X-17850D01*
X-17600Y5350D01*
Y6600D01*
X-17100Y6350D02*
X-16851Y6600D01*
X-16351D01*
X-16101Y6350D01*
Y6100D01*
X-16351Y5850D01*
X-16601D01*
X-16351D01*
X-16101Y5600D01*
Y5350D01*
X-16351Y5100D01*
X-16851D01*
X-17100Y5350D01*
X-15601Y6350D02*
X-15351Y6600D01*
X-14851D01*
X-14601Y6350D01*
Y5350D01*
X-14851Y5100D01*
X-15351D01*
X-15601Y5350D01*
Y6350D01*
X-14101D02*
X-13851Y6600D01*
X-13352D01*
X-13102Y6350D01*
Y5350D01*
X-13352Y5100D01*
X-13851D01*
X-14101Y5350D01*
Y6350D01*
X-36900Y11100D02*
Y9850D01*
X-36650Y9600D01*
X-36150D01*
X-35900Y9850D01*
Y11100D01*
X-34401Y9600D02*
X-35401D01*
X-34401Y10600D01*
Y10850D01*
X-34651Y11100D01*
X-35151D01*
X-35401Y10850D01*
X-33901D02*
X-33651Y11100D01*
X-33151D01*
X-32901Y10850D01*
Y9850D01*
X-33151Y9600D01*
X-33651D01*
X-33901Y9850D01*
Y10850D01*
X-32401Y9600D02*
X-31902D01*
X-32151D01*
Y11100D01*
X-32401Y10850D01*
X-17400Y-19894D02*
X-16150D01*
X-15900Y-19644D01*
Y-19144D01*
X-16150Y-18894D01*
X-17400D01*
X-15900Y-17394D02*
Y-18394D01*
X-16900Y-17394D01*
X-17150D01*
X-17400Y-17644D01*
Y-18144D01*
X-17150Y-18394D01*
Y-16895D02*
X-17400Y-16645D01*
Y-16145D01*
X-17150Y-15895D01*
X-16150D01*
X-15900Y-16145D01*
Y-16645D01*
X-16150Y-16895D01*
X-17150D01*
Y-15395D02*
X-17400Y-15145D01*
Y-14645D01*
X-17150Y-14396D01*
X-16150D01*
X-15900Y-14645D01*
Y-15145D01*
X-16150Y-15395D01*
X-17150D01*
X21700Y24974D02*
Y23725D01*
X21950Y23475D01*
X22450D01*
X22700Y23725D01*
Y24974D01*
X23200Y23475D02*
X23699D01*
X23449D01*
Y24974D01*
X23200Y24724D01*
X24449D02*
X24699Y24974D01*
X25199D01*
X25449Y24724D01*
Y23725D01*
X25199Y23475D01*
X24699D01*
X24449Y23725D01*
Y24724D01*
X25949Y23475D02*
X26449D01*
X26199D01*
Y24974D01*
X25949Y24724D01*
X6600Y36299D02*
Y35050D01*
X6850Y34800D01*
X7350D01*
X7600Y35050D01*
Y36299D01*
X8100Y34800D02*
X8599D01*
X8349D01*
Y36299D01*
X8100Y36050D01*
X9349D02*
X9599Y36299D01*
X10099D01*
X10349Y36050D01*
Y35050D01*
X10099Y34800D01*
X9599D01*
X9349Y35050D01*
Y36050D01*
X10849D02*
X11099Y36299D01*
X11598D01*
X11848Y36050D01*
Y35050D01*
X11598Y34800D01*
X11099D01*
X10849Y35050D01*
Y36050D01*
X-43700Y12150D02*
X-43950Y12399D01*
X-44450D01*
X-44700Y12150D01*
Y11900D01*
X-44450Y11650D01*
X-43950D01*
X-43700Y11400D01*
Y11150D01*
X-43950Y10900D01*
X-44450D01*
X-44700Y11150D01*
X-43200Y12399D02*
Y10900D01*
X-42701Y11400D01*
X-42201Y10900D01*
Y12399D01*
X-41701Y10900D02*
X-41201D01*
X-41451D01*
Y12399D01*
X-41701Y12150D01*
X-40451D02*
X-40201Y12399D01*
X-39702D01*
X-39452Y12150D01*
Y11150D01*
X-39702Y10900D01*
X-40201D01*
X-40451Y11150D01*
Y12150D01*
X-38952Y10900D02*
X-38452D01*
X-38702D01*
Y12399D01*
X-38952Y12150D01*
X-27100Y6600D02*
Y8100D01*
X-26350D01*
X-26100Y7850D01*
Y7350D01*
X-26350Y7100D01*
X-27100D01*
X-26600D02*
X-26100Y6600D01*
X-25600Y8100D02*
X-24601D01*
X-25101D01*
Y6600D01*
X-24101Y7850D02*
X-23851Y8100D01*
X-23351D01*
X-23101Y7850D01*
Y7600D01*
X-23351Y7350D01*
X-23601D01*
X-23351D01*
X-23101Y7100D01*
Y6850D01*
X-23351Y6600D01*
X-23851D01*
X-24101Y6850D01*
X-22601Y7850D02*
X-22352Y8100D01*
X-21852D01*
X-21602Y7850D01*
Y6850D01*
X-21852Y6600D01*
X-22352D01*
X-22601Y6850D01*
Y7850D01*
X-21102D02*
X-20852Y8100D01*
X-20352D01*
X-20102Y7850D01*
Y6850D01*
X-20352Y6600D01*
X-20852D01*
X-21102Y6850D01*
Y7850D01*
X19100Y-26800D02*
Y-25300D01*
X19850D01*
X20100Y-25550D01*
Y-26050D01*
X19850Y-26300D01*
X19100D01*
X19600D02*
X20100Y-26800D01*
X20599Y-25550D02*
X20849Y-25300D01*
X21349D01*
X21599Y-25550D01*
Y-25800D01*
X21349Y-26050D01*
X21099D01*
X21349D01*
X21599Y-26300D01*
Y-26550D01*
X21349Y-26800D01*
X20849D01*
X20599Y-26550D01*
X22099Y-26800D02*
X22599D01*
X22349D01*
Y-25300D01*
X22099Y-25550D01*
X23349D02*
X23599Y-25300D01*
X24098D01*
X24348Y-25550D01*
Y-26550D01*
X24098Y-26800D01*
X23599D01*
X23349Y-26550D01*
Y-25550D01*
X18200Y-39700D02*
Y-38201D01*
X18950D01*
X19200Y-38450D01*
Y-38950D01*
X18950Y-39200D01*
X18200D01*
X18700D02*
X19200Y-39700D01*
X19700Y-38450D02*
X19949Y-38201D01*
X20449D01*
X20699Y-38450D01*
Y-38700D01*
X20449Y-38950D01*
X20199D01*
X20449D01*
X20699Y-39200D01*
Y-39450D01*
X20449Y-39700D01*
X19949D01*
X19700Y-39450D01*
X21199Y-38450D02*
X21449Y-38201D01*
X21949D01*
X22199Y-38450D01*
Y-39450D01*
X21949Y-39700D01*
X21449D01*
X21199Y-39450D01*
Y-38450D01*
X22699Y-39450D02*
X22949Y-39700D01*
X23448D01*
X23698Y-39450D01*
Y-38450D01*
X23448Y-38201D01*
X22949D01*
X22699Y-38450D01*
Y-38700D01*
X22949Y-38950D01*
X23698D01*
X-11900Y-12600D02*
Y-11101D01*
X-11150D01*
X-10900Y-11350D01*
Y-11850D01*
X-11150Y-12100D01*
X-11900D01*
X-11400D02*
X-10900Y-12600D01*
X-10401Y-11350D02*
X-10151Y-11101D01*
X-9651D01*
X-9401Y-11350D01*
Y-11600D01*
X-9651Y-11850D01*
X-9901D01*
X-9651D01*
X-9401Y-12100D01*
Y-12350D01*
X-9651Y-12600D01*
X-10151D01*
X-10401Y-12350D01*
X-8901Y-11350D02*
X-8651Y-11101D01*
X-8151D01*
X-7901Y-11350D01*
Y-12350D01*
X-8151Y-12600D01*
X-8651D01*
X-8901Y-12350D01*
Y-11350D01*
X-7401D02*
X-7152Y-11101D01*
X-6652D01*
X-6402Y-11350D01*
Y-11600D01*
X-6652Y-11850D01*
X-6402Y-12100D01*
Y-12350D01*
X-6652Y-12600D01*
X-7152D01*
X-7401Y-12350D01*
Y-12100D01*
X-7152Y-11850D01*
X-7401Y-11600D01*
Y-11350D01*
X-7152Y-11850D02*
X-6652D01*
X-21300Y18300D02*
X-22799D01*
Y19050D01*
X-22550Y19300D01*
X-22050D01*
X-21800Y19050D01*
Y18300D01*
Y18800D02*
X-21300Y19300D01*
X-22550Y19800D02*
X-22799Y20049D01*
Y20549D01*
X-22550Y20799D01*
X-22300D01*
X-22050Y20549D01*
Y20299D01*
Y20549D01*
X-21800Y20799D01*
X-21550D01*
X-21300Y20549D01*
Y20049D01*
X-21550Y19800D01*
X-22550Y21299D02*
X-22799Y21549D01*
Y22049D01*
X-22550Y22299D01*
X-21550D01*
X-21300Y22049D01*
Y21549D01*
X-21550Y21299D01*
X-22550D01*
X-22799Y22799D02*
Y23798D01*
X-22550D01*
X-21550Y22799D01*
X-21300D01*
X-7550Y-4275D02*
Y-2775D01*
X-6801D01*
X-6551Y-3025D01*
Y-3525D01*
X-6801Y-3775D01*
X-7550D01*
X-7051D02*
X-6551Y-4275D01*
X-6051Y-3025D02*
X-5801Y-2775D01*
X-5301D01*
X-5051Y-3025D01*
Y-3275D01*
X-5301Y-3525D01*
X-5551D01*
X-5301D01*
X-5051Y-3775D01*
Y-4025D01*
X-5301Y-4275D01*
X-5801D01*
X-6051Y-4025D01*
X-4551Y-3025D02*
X-4301Y-2775D01*
X-3802D01*
X-3552Y-3025D01*
Y-4025D01*
X-3802Y-4275D01*
X-4301D01*
X-4551Y-4025D01*
Y-3025D01*
X-2052Y-2775D02*
X-2552Y-3025D01*
X-3052Y-3525D01*
Y-4025D01*
X-2802Y-4275D01*
X-2302D01*
X-2052Y-4025D01*
Y-3775D01*
X-2302Y-3525D01*
X-3052D01*
X-19300Y28500D02*
Y30000D01*
X-18550D01*
X-18300Y29750D01*
Y29250D01*
X-18550Y29000D01*
X-19300D01*
X-18800D02*
X-18300Y28500D01*
X-17800Y29750D02*
X-17551Y30000D01*
X-17051D01*
X-16801Y29750D01*
Y29500D01*
X-17051Y29250D01*
X-17301D01*
X-17051D01*
X-16801Y29000D01*
Y28750D01*
X-17051Y28500D01*
X-17551D01*
X-17800Y28750D01*
X-16301Y29750D02*
X-16051Y30000D01*
X-15551D01*
X-15301Y29750D01*
Y28750D01*
X-15551Y28500D01*
X-16051D01*
X-16301Y28750D01*
Y29750D01*
X-14801D02*
X-14551Y30000D01*
X-14052D01*
X-13802Y29750D01*
Y29500D01*
X-14052Y29250D01*
X-14302D01*
X-14052D01*
X-13802Y29000D01*
Y28750D01*
X-14052Y28500D01*
X-14551D01*
X-14801Y28750D01*
X-28100Y6400D02*
X-29599D01*
Y7150D01*
X-29350Y7400D01*
X-28850D01*
X-28600Y7150D01*
Y6400D01*
Y6900D02*
X-28100Y7400D01*
X-29350Y7899D02*
X-29599Y8149D01*
Y8649D01*
X-29350Y8899D01*
X-29100D01*
X-28850Y8649D01*
Y8399D01*
Y8649D01*
X-28600Y8899D01*
X-28350D01*
X-28100Y8649D01*
Y8149D01*
X-28350Y7899D01*
X-29350Y9399D02*
X-29599Y9649D01*
Y10149D01*
X-29350Y10399D01*
X-28350D01*
X-28100Y10149D01*
Y9649D01*
X-28350Y9399D01*
X-29350D01*
X-28100Y10899D02*
Y11398D01*
Y11148D01*
X-29599D01*
X-29350Y10899D01*
X-10700Y5400D02*
X-12200D01*
Y6150D01*
X-11950Y6400D01*
X-11450D01*
X-11200Y6150D01*
Y5400D01*
Y5900D02*
X-10700Y6400D01*
X-11950Y6899D02*
X-12200Y7149D01*
Y7649D01*
X-11950Y7899D01*
X-11700D01*
X-11450Y7649D01*
Y7399D01*
Y7649D01*
X-11200Y7899D01*
X-10950D01*
X-10700Y7649D01*
Y7149D01*
X-10950Y6899D01*
X-11950Y8399D02*
X-12200Y8649D01*
Y9149D01*
X-11950Y9399D01*
X-10950D01*
X-10700Y9149D01*
Y8649D01*
X-10950Y8399D01*
X-11950D01*
Y9899D02*
X-12200Y10148D01*
Y10648D01*
X-11950Y10898D01*
X-10950D01*
X-10700Y10648D01*
Y10148D01*
X-10950Y9899D01*
X-11950D01*
X-21600Y13100D02*
Y14600D01*
X-20850D01*
X-20600Y14350D01*
Y13850D01*
X-20850Y13600D01*
X-21600D01*
X-21100D02*
X-20600Y13100D01*
X-19101D02*
X-20100D01*
X-19101Y14100D01*
Y14350D01*
X-19351Y14600D01*
X-19851D01*
X-20100Y14350D01*
X-18601D02*
X-18351Y14600D01*
X-17851D01*
X-17601Y14350D01*
Y13350D01*
X-17851Y13100D01*
X-18351D01*
X-18601Y13350D01*
Y14350D01*
X-16102Y13100D02*
X-17101D01*
X-16102Y14100D01*
Y14350D01*
X-16352Y14600D01*
X-16851D01*
X-17101Y14350D01*
X-33700Y30100D02*
Y31600D01*
X-32950D01*
X-32700Y31350D01*
Y30850D01*
X-32950Y30600D01*
X-33700D01*
X-33200D02*
X-32700Y30100D01*
X-31201D02*
X-32201D01*
X-31201Y31100D01*
Y31350D01*
X-31451Y31600D01*
X-31951D01*
X-32201Y31350D01*
X-30701D02*
X-30451Y31600D01*
X-29951D01*
X-29701Y31350D01*
Y30350D01*
X-29951Y30100D01*
X-30451D01*
X-30701Y30350D01*
Y31350D01*
X-29201Y30100D02*
X-28702D01*
X-28951D01*
Y31600D01*
X-29201Y31350D01*
X-3800Y20100D02*
X-5300D01*
Y20850D01*
X-5050Y21100D01*
X-4550D01*
X-4300Y20850D01*
Y20100D01*
Y20600D02*
X-3800Y21100D01*
Y22599D02*
Y21599D01*
X-4800Y22599D01*
X-5050D01*
X-5300Y22349D01*
Y21849D01*
X-5050Y21599D01*
Y23099D02*
X-5300Y23349D01*
Y23849D01*
X-5050Y24099D01*
X-4050D01*
X-3800Y23849D01*
Y23349D01*
X-4050Y23099D01*
X-5050D01*
Y24599D02*
X-5300Y24848D01*
Y25348D01*
X-5050Y25598D01*
X-4050D01*
X-3800Y25348D01*
Y24848D01*
X-4050Y24599D01*
X-5050D01*
X800Y-7600D02*
Y-6101D01*
X1550D01*
X1800Y-6350D01*
Y-6850D01*
X1550Y-7100D01*
X800D01*
X1300D02*
X1800Y-7600D01*
X2300D02*
X2799D01*
X2549D01*
Y-6101D01*
X2300Y-6350D01*
X3549D02*
X3799Y-6101D01*
X4299D01*
X4549Y-6350D01*
Y-7350D01*
X4299Y-7600D01*
X3799D01*
X3549Y-7350D01*
Y-6350D01*
X5798Y-7600D02*
Y-6101D01*
X5049Y-6850D01*
X6048D01*
X40581Y16800D02*
X39082D01*
Y17550D01*
X39331Y17800D01*
X39831D01*
X40081Y17550D01*
Y16800D01*
Y17300D02*
X40581Y17800D01*
Y18300D02*
Y18799D01*
Y18549D01*
X39082D01*
X39331Y18300D01*
Y19549D02*
X39082Y19799D01*
Y20299D01*
X39331Y20549D01*
X40331D01*
X40581Y20299D01*
Y19799D01*
X40331Y19549D01*
X39331D01*
Y21049D02*
X39082Y21299D01*
Y21798D01*
X39331Y22048D01*
X40331D01*
X40581Y21798D01*
Y21299D01*
X40331Y21049D01*
X39331D01*
X-19600Y-8201D02*
Y-9700D01*
X-18600D01*
X-18101Y-8450D02*
X-17851Y-8201D01*
X-17351D01*
X-17101Y-8450D01*
Y-8700D01*
X-17351Y-8950D01*
X-17601D01*
X-17351D01*
X-17101Y-9200D01*
Y-9450D01*
X-17351Y-9700D01*
X-17851D01*
X-18101Y-9450D01*
X-16601Y-8450D02*
X-16351Y-8201D01*
X-15851D01*
X-15601Y-8450D01*
Y-9450D01*
X-15851Y-9700D01*
X-16351D01*
X-16601Y-9450D01*
Y-8450D01*
X-15101D02*
X-14852Y-8201D01*
X-14352D01*
X-14102Y-8450D01*
Y-9450D01*
X-14352Y-9700D01*
X-14852D01*
X-15101Y-9450D01*
Y-8450D01*
X11100Y-21400D02*
Y-22900D01*
X11850D01*
X12100Y-22650D01*
Y-21650D01*
X11850Y-21400D01*
X11100D01*
X12599Y-21650D02*
X12849Y-21400D01*
X13349D01*
X13599Y-21650D01*
Y-21900D01*
X13349Y-22150D01*
X13099D01*
X13349D01*
X13599Y-22400D01*
Y-22650D01*
X13349Y-22900D01*
X12849D01*
X12599Y-22650D01*
X14099Y-21650D02*
X14349Y-21400D01*
X14849D01*
X15099Y-21650D01*
Y-22650D01*
X14849Y-22900D01*
X14349D01*
X14099Y-22650D01*
Y-21650D01*
X15599D02*
X15848Y-21400D01*
X16348D01*
X16598Y-21650D01*
Y-21900D01*
X16348Y-22150D01*
X16098D01*
X16348D01*
X16598Y-22400D01*
Y-22650D01*
X16348Y-22900D01*
X15848D01*
X15599Y-22650D01*
X5600Y-17300D02*
Y-18800D01*
X6350D01*
X6600Y-18550D01*
Y-17550D01*
X6350Y-17300D01*
X5600D01*
X7100Y-17550D02*
X7349Y-17300D01*
X7849D01*
X8099Y-17550D01*
Y-17800D01*
X7849Y-18050D01*
X7599D01*
X7849D01*
X8099Y-18300D01*
Y-18550D01*
X7849Y-18800D01*
X7349D01*
X7100Y-18550D01*
X8599Y-17550D02*
X8849Y-17300D01*
X9349D01*
X9599Y-17550D01*
Y-18550D01*
X9349Y-18800D01*
X8849D01*
X8599Y-18550D01*
Y-17550D01*
X11098Y-18800D02*
X10099D01*
X11098Y-17800D01*
Y-17550D01*
X10848Y-17300D01*
X10349D01*
X10099Y-17550D01*
X-900Y-22900D02*
Y-24400D01*
X-150D01*
X100Y-24150D01*
Y-23150D01*
X-150Y-22900D01*
X-900D01*
X599Y-23150D02*
X849Y-22900D01*
X1349D01*
X1599Y-23150D01*
Y-23400D01*
X1349Y-23650D01*
X1099D01*
X1349D01*
X1599Y-23900D01*
Y-24150D01*
X1349Y-24400D01*
X849D01*
X599Y-24150D01*
X2099Y-23150D02*
X2349Y-22900D01*
X2849D01*
X3099Y-23150D01*
Y-24150D01*
X2849Y-24400D01*
X2349D01*
X2099Y-24150D01*
Y-23150D01*
X3599Y-24400D02*
X4098D01*
X3849D01*
Y-22900D01*
X3599Y-23150D01*
X-1600Y8999D02*
Y7500D01*
X-850D01*
X-600Y7750D01*
Y8750D01*
X-850Y8999D01*
X-1600D01*
X-100Y8750D02*
X149Y8999D01*
X649D01*
X899Y8750D01*
Y8500D01*
X649Y8250D01*
X399D01*
X649D01*
X899Y8000D01*
Y7750D01*
X649Y7500D01*
X149D01*
X-100Y7750D01*
X1399Y8750D02*
X1649Y8999D01*
X2149D01*
X2399Y8750D01*
Y7750D01*
X2149Y7500D01*
X1649D01*
X1399Y7750D01*
Y8750D01*
X2899D02*
X3148Y8999D01*
X3648D01*
X3898Y8750D01*
Y7750D01*
X3648Y7500D01*
X3148D01*
X2899Y7750D01*
Y8750D01*
X10700Y1450D02*
X10450Y1699D01*
X9950D01*
X9700Y1450D01*
Y450D01*
X9950Y200D01*
X10450D01*
X10700Y450D01*
X11199Y1450D02*
X11449Y1699D01*
X11949D01*
X12199Y1450D01*
Y1200D01*
X11949Y950D01*
X11699D01*
X11949D01*
X12199Y700D01*
Y450D01*
X11949Y200D01*
X11449D01*
X11199Y450D01*
X12699Y1450D02*
X12949Y1699D01*
X13449D01*
X13699Y1450D01*
Y450D01*
X13449Y200D01*
X12949D01*
X12699Y450D01*
Y1450D01*
X14199Y450D02*
X14448Y200D01*
X14948D01*
X15198Y450D01*
Y1450D01*
X14948Y1699D01*
X14448D01*
X14199Y1450D01*
Y1200D01*
X14448Y950D01*
X15198D01*
X32350Y-1900D02*
X32599Y-1650D01*
Y-1150D01*
X32350Y-900D01*
X31350D01*
X31100Y-1150D01*
Y-1650D01*
X31350Y-1900D01*
X32350Y-2400D02*
X32599Y-2649D01*
Y-3149D01*
X32350Y-3399D01*
X32100D01*
X31850Y-3149D01*
Y-2899D01*
Y-3149D01*
X31600Y-3399D01*
X31350D01*
X31100Y-3149D01*
Y-2649D01*
X31350Y-2400D01*
X32350Y-3899D02*
X32599Y-4149D01*
Y-4649D01*
X32350Y-4899D01*
X31350D01*
X31100Y-4649D01*
Y-4149D01*
X31350Y-3899D01*
X32350D01*
Y-5399D02*
X32599Y-5649D01*
Y-6148D01*
X32350Y-6398D01*
X32100D01*
X31850Y-6148D01*
X31600Y-6398D01*
X31350D01*
X31100Y-6148D01*
Y-5649D01*
X31350Y-5399D01*
X31600D01*
X31850Y-5649D01*
X32100Y-5399D01*
X32350D01*
X31850Y-5649D02*
Y-6148D01*
X3850Y-13300D02*
X3601Y-13550D01*
Y-14050D01*
X3850Y-14300D01*
X4850D01*
X5100Y-14050D01*
Y-13550D01*
X4850Y-13300D01*
X3850Y-12800D02*
X3601Y-12551D01*
Y-12051D01*
X3850Y-11801D01*
X4100D01*
X4350Y-12051D01*
Y-12301D01*
Y-12051D01*
X4600Y-11801D01*
X4850D01*
X5100Y-12051D01*
Y-12551D01*
X4850Y-12800D01*
X3850Y-11301D02*
X3601Y-11051D01*
Y-10551D01*
X3850Y-10301D01*
X4850D01*
X5100Y-10551D01*
Y-11051D01*
X4850Y-11301D01*
X3850D01*
X3601Y-9801D02*
Y-8802D01*
X3850D01*
X4850Y-9801D01*
X5100D01*
X-18300Y27250D02*
X-18550Y27499D01*
X-19050D01*
X-19300Y27250D01*
Y26250D01*
X-19050Y26000D01*
X-18550D01*
X-18300Y26250D01*
X-17800Y27250D02*
X-17551Y27499D01*
X-17051D01*
X-16801Y27250D01*
Y27000D01*
X-17051Y26750D01*
X-17301D01*
X-17051D01*
X-16801Y26500D01*
Y26250D01*
X-17051Y26000D01*
X-17551D01*
X-17800Y26250D01*
X-16301Y27250D02*
X-16051Y27499D01*
X-15551D01*
X-15301Y27250D01*
Y26250D01*
X-15551Y26000D01*
X-16051D01*
X-16301Y26250D01*
Y27250D01*
X-13802Y27499D02*
X-14302Y27250D01*
X-14801Y26750D01*
Y26250D01*
X-14551Y26000D01*
X-14052D01*
X-13802Y26250D01*
Y26500D01*
X-14052Y26750D01*
X-14801D01*
X-23400Y-5850D02*
X-23650Y-5601D01*
X-24150D01*
X-24400Y-5850D01*
Y-6850D01*
X-24150Y-7100D01*
X-23650D01*
X-23400Y-6850D01*
X-22900Y-5850D02*
X-22651Y-5601D01*
X-22151D01*
X-21901Y-5850D01*
Y-6100D01*
X-22151Y-6350D01*
X-22401D01*
X-22151D01*
X-21901Y-6600D01*
Y-6850D01*
X-22151Y-7100D01*
X-22651D01*
X-22900Y-6850D01*
X-21401Y-5850D02*
X-21151Y-5601D01*
X-20651D01*
X-20401Y-5850D01*
Y-6850D01*
X-20651Y-7100D01*
X-21151D01*
X-21401Y-6850D01*
Y-5850D01*
X-19901D02*
X-19651Y-5601D01*
X-19152D01*
X-18902Y-5850D01*
Y-6100D01*
X-19152Y-6350D01*
X-19402D01*
X-19152D01*
X-18902Y-6600D01*
Y-6850D01*
X-19152Y-7100D01*
X-19651D01*
X-19901Y-6850D01*
X-5100Y1550D02*
X-5350Y1799D01*
X-5850D01*
X-6100Y1550D01*
Y550D01*
X-5850Y300D01*
X-5350D01*
X-5100Y550D01*
X-4600Y1550D02*
X-4351Y1799D01*
X-3851D01*
X-3601Y1550D01*
Y1300D01*
X-3851Y1050D01*
X-4101D01*
X-3851D01*
X-3601Y800D01*
Y550D01*
X-3851Y300D01*
X-4351D01*
X-4600Y550D01*
X-3101Y1550D02*
X-2851Y1799D01*
X-2351D01*
X-2101Y1550D01*
Y550D01*
X-2351Y300D01*
X-2851D01*
X-3101Y550D01*
Y1550D01*
X-1601Y300D02*
X-1102D01*
X-1352D01*
Y1799D01*
X-1601Y1550D01*
X-35534Y26400D02*
X-35784Y26150D01*
Y25650D01*
X-35534Y25400D01*
X-34534D01*
X-34284Y25650D01*
Y26150D01*
X-34534Y26400D01*
X-34284Y27899D02*
Y26899D01*
X-35284Y27899D01*
X-35534D01*
X-35784Y27649D01*
Y27149D01*
X-35534Y26899D01*
X-34284Y28399D02*
Y28899D01*
Y28649D01*
X-35784D01*
X-35534Y28399D01*
X-34284Y30398D02*
X-35784D01*
X-35034Y29649D01*
Y30648D01*
X-26452Y26795D02*
X-26702Y26545D01*
Y26045D01*
X-26452Y25795D01*
X-25452D01*
X-25202Y26045D01*
Y26545D01*
X-25452Y26795D01*
X-25202Y28295D02*
Y27295D01*
X-26202Y28295D01*
X-26452D01*
X-26702Y28045D01*
Y27545D01*
X-26452Y27295D01*
X-25202Y28794D02*
Y29294D01*
Y29044D01*
X-26702D01*
X-26452Y28794D01*
Y30044D02*
X-26702Y30294D01*
Y30794D01*
X-26452Y31044D01*
X-26202D01*
X-25952Y30794D01*
Y30544D01*
Y30794D01*
X-25702Y31044D01*
X-25452D01*
X-25202Y30794D01*
Y30294D01*
X-25452Y30044D01*
X-17400Y10150D02*
X-17650Y10400D01*
X-18150D01*
X-18400Y10150D01*
Y9150D01*
X-18150Y8900D01*
X-17650D01*
X-17400Y9150D01*
X-15901Y8900D02*
X-16901D01*
X-15901Y9900D01*
Y10150D01*
X-16151Y10400D01*
X-16651D01*
X-16901Y10150D01*
X-15401Y8900D02*
X-14901D01*
X-15151D01*
Y10400D01*
X-15401Y10150D01*
X-14151Y8900D02*
X-13652D01*
X-13901D01*
Y10400D01*
X-14151Y10150D01*
X-20700Y-33150D02*
X-20950Y-32901D01*
X-21450D01*
X-21700Y-33150D01*
Y-34150D01*
X-21450Y-34400D01*
X-20950D01*
X-20700Y-34150D01*
X-19201Y-34400D02*
X-20200D01*
X-19201Y-33400D01*
Y-33150D01*
X-19451Y-32901D01*
X-19951D01*
X-20200Y-33150D01*
X-18701Y-34400D02*
X-18201D01*
X-18451D01*
Y-32901D01*
X-18701Y-33150D01*
X-17451D02*
X-17201Y-32901D01*
X-16702D01*
X-16452Y-33150D01*
Y-34150D01*
X-16702Y-34400D01*
X-17201D01*
X-17451Y-34150D01*
Y-33150D01*
X-3950Y-21300D02*
X-4200Y-21550D01*
Y-22050D01*
X-3950Y-22300D01*
X-2950D01*
X-2700Y-22050D01*
Y-21550D01*
X-2950Y-21300D01*
X-2700Y-19801D02*
Y-20800D01*
X-3700Y-19801D01*
X-3950D01*
X-4200Y-20051D01*
Y-20551D01*
X-3950Y-20800D01*
Y-19301D02*
X-4200Y-19051D01*
Y-18551D01*
X-3950Y-18301D01*
X-2950D01*
X-2700Y-18551D01*
Y-19051D01*
X-2950Y-19301D01*
X-3950D01*
X-2950Y-17801D02*
X-2700Y-17551D01*
Y-17052D01*
X-2950Y-16802D01*
X-3950D01*
X-4200Y-17052D01*
Y-17551D01*
X-3950Y-17801D01*
X-3700D01*
X-3450Y-17551D01*
Y-16802D01*
X-16700Y-21550D02*
X-16950Y-21301D01*
X-17450D01*
X-17700Y-21550D01*
Y-22550D01*
X-17450Y-22800D01*
X-16950D01*
X-16700Y-22550D01*
X-15201Y-22800D02*
X-16201D01*
X-15201Y-21800D01*
Y-21550D01*
X-15451Y-21301D01*
X-15951D01*
X-16201Y-21550D01*
X-14701D02*
X-14451Y-21301D01*
X-13951D01*
X-13701Y-21550D01*
Y-22550D01*
X-13951Y-22800D01*
X-14451D01*
X-14701Y-22550D01*
Y-21550D01*
X-13201D02*
X-12952Y-21301D01*
X-12452D01*
X-12202Y-21550D01*
Y-21800D01*
X-12452Y-22050D01*
X-12202Y-22300D01*
Y-22550D01*
X-12452Y-22800D01*
X-12952D01*
X-13201Y-22550D01*
Y-22300D01*
X-12952Y-22050D01*
X-13201Y-21800D01*
Y-21550D01*
X-12952Y-22050D02*
X-12452D01*
X18750Y27600D02*
X18500Y27350D01*
Y26850D01*
X18750Y26600D01*
X19750D01*
X20000Y26850D01*
Y27350D01*
X19750Y27600D01*
X20000Y28100D02*
Y28599D01*
Y28349D01*
X18500D01*
X18750Y28100D01*
X20000Y29349D02*
Y29849D01*
Y29599D01*
X18500D01*
X18750Y29349D01*
Y30599D02*
X18500Y30849D01*
Y31348D01*
X18750Y31598D01*
X19750D01*
X20000Y31348D01*
Y30849D01*
X19750Y30599D01*
X18750D01*
X14200Y27149D02*
X13950Y26899D01*
Y26399D01*
X14200Y26149D01*
X15199D01*
X15449Y26399D01*
Y26899D01*
X15199Y27149D01*
X15449Y27649D02*
Y28149D01*
Y27899D01*
X13950D01*
X14200Y27649D01*
Y28898D02*
X13950Y29148D01*
Y29648D01*
X14200Y29898D01*
X15199D01*
X15449Y29648D01*
Y29148D01*
X15199Y28898D01*
X14200D01*
X15199Y30398D02*
X15449Y30648D01*
Y31148D01*
X15199Y31398D01*
X14200D01*
X13950Y31148D01*
Y30648D01*
X14200Y30398D01*
X14449D01*
X14699Y30648D01*
Y31398D01*
X35432Y6800D02*
X35182Y6550D01*
Y6050D01*
X35432Y5800D01*
X36431D01*
X36681Y6050D01*
Y6550D01*
X36431Y6800D01*
X36681Y7299D02*
Y7799D01*
Y7549D01*
X35182D01*
X35432Y7299D01*
Y8549D02*
X35182Y8799D01*
Y9299D01*
X35432Y9549D01*
X36431D01*
X36681Y9299D01*
Y8799D01*
X36431Y8549D01*
X35432D01*
Y10049D02*
X35182Y10299D01*
Y10798D01*
X35432Y11048D01*
X35681D01*
X35931Y10798D01*
X36181Y11048D01*
X36431D01*
X36681Y10798D01*
Y10299D01*
X36431Y10049D01*
X36181D01*
X35931Y10299D01*
X35681Y10049D01*
X35432D01*
X35931Y10299D02*
Y10798D01*
X33400Y17868D02*
X33150Y18118D01*
X32650D01*
X32400Y17868D01*
Y16869D01*
X32650Y16619D01*
X33150D01*
X33400Y16869D01*
X33900Y16619D02*
X34399D01*
X34149D01*
Y18118D01*
X33900Y17868D01*
X35149D02*
X35399Y18118D01*
X35899D01*
X36149Y17868D01*
Y16869D01*
X35899Y16619D01*
X35399D01*
X35149Y16869D01*
Y17868D01*
X36649Y18118D02*
X37648D01*
Y17868D01*
X36649Y16869D01*
Y16619D01*
X19000Y17950D02*
X18750Y18200D01*
X18250D01*
X18000Y17950D01*
Y16950D01*
X18250Y16700D01*
X18750D01*
X19000Y16950D01*
X19500Y16700D02*
X19999D01*
X19749D01*
Y18200D01*
X19500Y17950D01*
X20749D02*
X20999Y18200D01*
X21499D01*
X21749Y17950D01*
Y16950D01*
X21499Y16700D01*
X20999D01*
X20749Y16950D01*
Y17950D01*
X23248Y18200D02*
X22249D01*
Y17450D01*
X22749Y17700D01*
X22998D01*
X23248Y17450D01*
Y16950D01*
X22998Y16700D01*
X22499D01*
X22249Y16950D01*
X-6200Y11450D02*
X-6450Y11699D01*
X-6950D01*
X-7200Y11450D01*
Y10450D01*
X-6950Y10200D01*
X-6450D01*
X-6200Y10450D01*
X-5700Y10200D02*
X-5201D01*
X-5451D01*
Y11699D01*
X-5700Y11450D01*
X-4451D02*
X-4201Y11699D01*
X-3701D01*
X-3451Y11450D01*
Y10450D01*
X-3701Y10200D01*
X-4201D01*
X-4451Y10450D01*
Y11450D01*
X-2202Y10200D02*
Y11699D01*
X-2951Y10950D01*
X-1952D01*
X9900Y5450D02*
X9650Y5700D01*
X9150D01*
X8900Y5450D01*
Y4450D01*
X9150Y4200D01*
X9650D01*
X9900Y4450D01*
X10400Y4200D02*
X10899D01*
X10650D01*
Y5700D01*
X10400Y5450D01*
X11649D02*
X11899Y5700D01*
X12399D01*
X12649Y5450D01*
Y4450D01*
X12399Y4200D01*
X11899D01*
X11649Y4450D01*
Y5450D01*
X14148Y4200D02*
X13149D01*
X14148Y5200D01*
Y5450D01*
X13898Y5700D01*
X13399D01*
X13149Y5450D01*
X29000Y8150D02*
X28750Y8399D01*
X28250D01*
X28000Y8150D01*
Y7150D01*
X28250Y6900D01*
X28750D01*
X29000Y7150D01*
X29500Y6900D02*
X29999D01*
X29749D01*
Y8399D01*
X29500Y8150D01*
X30749D02*
X30999Y8399D01*
X31499D01*
X31749Y8150D01*
Y7150D01*
X31499Y6900D01*
X30999D01*
X30749Y7150D01*
Y8150D01*
X32249Y6900D02*
X32748D01*
X32499D01*
Y8399D01*
X32249Y8150D01*
X1800Y15250D02*
X1550Y15499D01*
X1050D01*
X800Y15250D01*
Y14250D01*
X1050Y14000D01*
X1550D01*
X1800Y14250D01*
X2300Y14000D02*
X2799D01*
X2549D01*
Y15499D01*
X2300Y15250D01*
X3549D02*
X3799Y15499D01*
X4299D01*
X4549Y15250D01*
Y14250D01*
X4299Y14000D01*
X3799D01*
X3549Y14250D01*
Y15250D01*
X5049D02*
X5299Y15499D01*
X5798D01*
X6048Y15250D01*
Y14250D01*
X5798Y14000D01*
X5299D01*
X5049Y14250D01*
Y15250D01*
X35800Y1400D02*
Y2400D01*
X36300Y2899D01*
X36800Y2400D01*
Y1400D01*
Y2150D01*
X35800D01*
X37299Y1400D02*
X37799D01*
X37549D01*
Y2899D01*
X37299Y2650D01*
X38549D02*
X38799Y2899D01*
X39299D01*
X39549Y2650D01*
Y1650D01*
X39299Y1400D01*
X38799D01*
X38549Y1650D01*
Y2650D01*
X40049D02*
X40299Y2899D01*
X40798D01*
X41048Y2650D01*
Y1650D01*
X40798Y1400D01*
X40299D01*
X40049Y1650D01*
Y2650D01*
X-36100Y-11901D02*
X-36600D01*
X-36350D01*
Y-13150D01*
X-36600Y-13400D01*
X-36850D01*
X-37100Y-13150D01*
X-34601Y-13400D02*
X-35601D01*
X-34601Y-12400D01*
Y-12150D01*
X-34851Y-11901D01*
X-35351D01*
X-35601Y-12150D01*
X-34101D02*
X-33851Y-11901D01*
X-33351D01*
X-33101Y-12150D01*
Y-13150D01*
X-33351Y-13400D01*
X-33851D01*
X-34101Y-13150D01*
Y-12150D01*
X-32601D02*
X-32351Y-11901D01*
X-31852D01*
X-31602Y-12150D01*
Y-13150D01*
X-31852Y-13400D01*
X-32351D01*
X-32601Y-13150D01*
Y-12150D01*
X-20700Y38899D02*
X-21200D01*
X-20950D01*
Y37650D01*
X-21200Y37400D01*
X-21450D01*
X-21700Y37650D01*
X-20200Y38650D02*
X-19951Y38899D01*
X-19451D01*
X-19201Y38650D01*
Y38400D01*
X-19451Y38150D01*
X-19701D01*
X-19451D01*
X-19201Y37900D01*
Y37650D01*
X-19451Y37400D01*
X-19951D01*
X-20200Y37650D01*
X-18701Y38650D02*
X-18451Y38899D01*
X-17951D01*
X-17701Y38650D01*
Y37650D01*
X-17951Y37400D01*
X-18451D01*
X-18701Y37650D01*
Y38650D01*
X-17201Y37400D02*
X-16702D01*
X-16951D01*
Y38899D01*
X-17201Y38650D01*
D47*
X12239Y-16204D02*
X14896Y-18861D01*
D48*
X-34040Y-16603D02*
X-31583Y-14883D01*
X-29002Y-18569D01*
X-25560Y-23484D02*
X-22979Y-27170D01*
X-25436Y-28891D02*
X-22979Y-27170D01*
X1539Y38872D02*
X2060Y35917D01*
X-2372Y35136D02*
X2060Y35917D01*
X-12712Y33313D02*
X-8281Y34094D01*
X-13233Y36267D02*
X-12712Y33313D01*
D76*
X-17742Y-13357D02*
G03*
X-17742Y-13357I-315J0D01*
G01*
D77*
X14413Y16800D02*
G03*
X14413Y16800I-413J0D01*
G01*
X-2425Y33272D02*
X13283D01*
Y18706D02*
Y33272D01*
X12378Y17800D02*
X13283Y18706D01*
X-2425Y17800D02*
Y33272D01*
Y17800D02*
X12378D01*
D78*
X-14661Y16325D02*
G03*
X-14661Y16325I-394J0D01*
G01*
X-14850Y17750D02*
Y24050D01*
X-8550Y17750D02*
Y24050D01*
X-31732Y-9849D02*
Y8261D01*
D79*
X26904Y-18861D02*
X29561D01*
Y-16204D01*
X26904Y-1539D02*
X29561D01*
Y-4196D02*
Y-1539D01*
X12239D02*
X14896D01*
X12239Y-4196D02*
Y-1539D01*
X12398Y-28285D02*
X14764D01*
Y-32126D02*
Y-28285D01*
X-14764Y-32126D02*
X-14764Y-28285D01*
X-12398Y-28285D01*
M02*
