G04 Layer_Physical_Order=4*
G04 Layer_Color=16711680*
%FSLAX25Y25*%
%MOIN*%
G70*
G01*
G75*
%ADD59C,0.00800*%
%ADD60C,0.00600*%
%ADD66O,0.05906X0.04921*%
%ADD67O,0.07480X0.04823*%
%ADD68C,0.02598*%
%ADD69C,0.02000*%
%ADD70C,0.01600*%
%ADD71C,0.01400*%
%ADD72C,0.01300*%
%ADD73C,0.01000*%
%ADD74C,0.01800*%
G36*
X278251Y211119D02*
X277751Y210968D01*
X277637Y211137D01*
X277207Y211425D01*
X276950Y211476D01*
Y210200D01*
X276700D01*
Y209950D01*
X275424D01*
X275475Y209693D01*
X275635Y209454D01*
X275723Y209100D01*
X275635Y208747D01*
X275475Y208507D01*
X275424Y208250D01*
X276700D01*
Y207750D01*
X275424D01*
X275475Y207493D01*
X275635Y207254D01*
X275723Y206900D01*
X275635Y206546D01*
X275475Y206307D01*
X275424Y206050D01*
X276700D01*
Y205550D01*
X275424D01*
X275475Y205293D01*
X275635Y205053D01*
X275723Y204700D01*
X275635Y204346D01*
X275475Y204107D01*
X275424Y203850D01*
X276700D01*
Y203350D01*
X275424D01*
X275475Y203093D01*
X275635Y202853D01*
X275723Y202500D01*
X275635Y202147D01*
X275475Y201907D01*
X275424Y201650D01*
X276700D01*
Y201150D01*
X275424D01*
X275475Y200893D01*
X275635Y200654D01*
X275723Y200300D01*
X275635Y199946D01*
X275475Y199707D01*
X275424Y199450D01*
X276700D01*
Y198950D01*
X275424D01*
X275475Y198693D01*
X275635Y198453D01*
X275723Y198100D01*
X275635Y197747D01*
X275475Y197507D01*
X275424Y197250D01*
X276700D01*
Y196750D01*
X275424D01*
X275475Y196493D01*
X275763Y196063D01*
X275906Y195967D01*
Y195366D01*
X275863Y195337D01*
X275575Y194907D01*
X275524Y194650D01*
X276800D01*
Y194150D01*
X275524D01*
X275575Y193893D01*
X275863Y193463D01*
X275956Y193401D01*
Y192799D01*
X275863Y192737D01*
X275575Y192307D01*
X275524Y192050D01*
X276800D01*
Y191550D01*
X275524D01*
X275575Y191293D01*
X275735Y191053D01*
X275823Y190700D01*
X275735Y190347D01*
X275575Y190107D01*
X275524Y189850D01*
X276800D01*
Y189350D01*
X275524D01*
X275575Y189093D01*
X275735Y188854D01*
X275823Y188500D01*
X275735Y188146D01*
X275575Y187907D01*
X275524Y187650D01*
X276800D01*
Y187150D01*
X275524D01*
X275575Y186893D01*
X275735Y186653D01*
X275823Y186300D01*
X275735Y185947D01*
X275575Y185707D01*
X275524Y185450D01*
X276800D01*
Y184950D01*
X275524D01*
X275575Y184693D01*
X275735Y184453D01*
X275823Y184100D01*
X275735Y183747D01*
X275575Y183507D01*
X275524Y183250D01*
X276800D01*
Y182750D01*
X275524D01*
X275575Y182493D01*
X275735Y182254D01*
X275823Y181900D01*
X275735Y181546D01*
X275575Y181307D01*
X275524Y181050D01*
X276800D01*
Y180550D01*
X275524D01*
X275575Y180293D01*
X275735Y180053D01*
X275823Y179700D01*
X275735Y179347D01*
X275575Y179107D01*
X275524Y178850D01*
X276800D01*
Y178350D01*
X275524D01*
X275575Y178093D01*
X275863Y177663D01*
X276039Y177545D01*
Y176955D01*
X275863Y176837D01*
X275575Y176407D01*
X275524Y176150D01*
X276800D01*
Y175650D01*
X275524D01*
X275575Y175393D01*
X275863Y174963D01*
X275956Y174901D01*
Y174299D01*
X275863Y174237D01*
X275575Y173807D01*
X275524Y173550D01*
X276800D01*
Y173050D01*
X275524D01*
X275575Y172793D01*
X275735Y172554D01*
X275823Y172200D01*
X275735Y171846D01*
X275575Y171607D01*
X275524Y171350D01*
X276800D01*
Y170850D01*
X275524D01*
X275575Y170593D01*
X275735Y170353D01*
X275823Y170000D01*
X275735Y169647D01*
X275575Y169407D01*
X275524Y169150D01*
X276800D01*
Y168900D01*
X277050D01*
Y167624D01*
X277307Y167675D01*
X277737Y167963D01*
X277751Y167983D01*
X278251Y167831D01*
Y129558D01*
X277751Y129459D01*
X277583Y129864D01*
X277132Y130452D01*
X276545Y130902D01*
X275861Y131185D01*
X275127Y131282D01*
X272469D01*
X271735Y131185D01*
X271052Y130902D01*
X270464Y130452D01*
X270013Y129864D01*
X269730Y129180D01*
X269634Y128446D01*
X269730Y127713D01*
X270013Y127029D01*
X270464Y126441D01*
X271052Y125991D01*
X271735Y125707D01*
X272469Y125611D01*
X275127D01*
X275861Y125707D01*
X276545Y125991D01*
X277132Y126441D01*
X277583Y127029D01*
X277751Y127434D01*
X278251Y127335D01*
Y101216D01*
X277751Y101117D01*
X277585Y101518D01*
X277134Y102105D01*
X276547Y102556D01*
X275863Y102839D01*
X275129Y102936D01*
X272471D01*
X271737Y102839D01*
X271053Y102556D01*
X270466Y102105D01*
X270016Y101518D01*
X269732Y100834D01*
X269636Y100100D01*
X269732Y99366D01*
X270016Y98682D01*
X270466Y98095D01*
X271053Y97644D01*
X271737Y97361D01*
X272471Y97264D01*
X275129D01*
X275863Y97361D01*
X276547Y97644D01*
X277134Y98095D01*
X277585Y98682D01*
X277751Y99083D01*
X278251Y98984D01*
Y49519D01*
X277751Y49368D01*
X277637Y49537D01*
X277207Y49825D01*
X276950Y49876D01*
Y48600D01*
X276700D01*
Y48350D01*
X275424D01*
X275475Y48093D01*
X275635Y47853D01*
X275723Y47500D01*
X275635Y47146D01*
X275475Y46907D01*
X275424Y46650D01*
X276700D01*
Y46150D01*
X275424D01*
X275475Y45893D01*
X275635Y45654D01*
X275723Y45300D01*
X275635Y44947D01*
X275475Y44707D01*
X275424Y44450D01*
X276700D01*
Y43950D01*
X275424D01*
X275475Y43693D01*
X275635Y43453D01*
X275723Y43100D01*
X275635Y42746D01*
X275475Y42507D01*
X275424Y42250D01*
X276700D01*
Y41750D01*
X275424D01*
X275475Y41493D01*
X275635Y41254D01*
X275723Y40900D01*
X275635Y40547D01*
X275475Y40307D01*
X275424Y40050D01*
X276700D01*
Y39550D01*
X275424D01*
X275475Y39293D01*
X275635Y39053D01*
X275723Y38700D01*
X275635Y38346D01*
X275475Y38107D01*
X275424Y37850D01*
X276700D01*
Y37350D01*
X275424D01*
X275475Y37093D01*
X275635Y36854D01*
X275723Y36500D01*
X275635Y36147D01*
X275475Y35907D01*
X275424Y35650D01*
X276700D01*
Y35150D01*
X275424D01*
X275475Y34893D01*
X275763Y34463D01*
X275906Y34367D01*
Y33766D01*
X275863Y33737D01*
X275575Y33307D01*
X275524Y33050D01*
X276800D01*
Y32550D01*
X275524D01*
X275575Y32293D01*
X275863Y31863D01*
X275956Y31801D01*
Y31199D01*
X275863Y31137D01*
X275575Y30707D01*
X275524Y30450D01*
X276800D01*
Y29950D01*
X275524D01*
X275575Y29693D01*
X275735Y29454D01*
X275823Y29100D01*
X275735Y28747D01*
X275575Y28507D01*
X275524Y28250D01*
X276800D01*
Y27750D01*
X275524D01*
X275575Y27493D01*
X275735Y27253D01*
X275823Y26900D01*
X275735Y26546D01*
X275575Y26307D01*
X275524Y26050D01*
X276800D01*
Y25550D01*
X275524D01*
X275575Y25293D01*
X275735Y25054D01*
X275823Y24700D01*
X275735Y24347D01*
X275575Y24107D01*
X275524Y23850D01*
X276800D01*
Y23350D01*
X275524D01*
X275575Y23093D01*
X275735Y22853D01*
X275823Y22500D01*
X275735Y22147D01*
X275575Y21907D01*
X275524Y21650D01*
X276800D01*
Y21150D01*
X275524D01*
X275575Y20893D01*
X275735Y20653D01*
X275823Y20300D01*
X275735Y19947D01*
X275575Y19707D01*
X275524Y19450D01*
X276800D01*
Y18950D01*
X275524D01*
X275575Y18693D01*
X275735Y18453D01*
X275823Y18100D01*
X275735Y17747D01*
X275575Y17507D01*
X275524Y17250D01*
X276800D01*
Y16750D01*
X275524D01*
X275575Y16493D01*
X275863Y16063D01*
X276039Y15945D01*
Y15355D01*
X275863Y15237D01*
X275575Y14807D01*
X275524Y14550D01*
X276800D01*
Y14050D01*
X275524D01*
X275575Y13793D01*
X275863Y13363D01*
X275956Y13301D01*
Y12699D01*
X275863Y12637D01*
X275575Y12207D01*
X275524Y11950D01*
X276800D01*
Y11450D01*
X275524D01*
X275575Y11193D01*
X275735Y10954D01*
X275823Y10600D01*
X275735Y10246D01*
X275575Y10007D01*
X275524Y9750D01*
X276800D01*
Y9250D01*
X275524D01*
X275575Y8993D01*
X275735Y8754D01*
X275823Y8400D01*
X275735Y8046D01*
X275575Y7807D01*
X275524Y7550D01*
X276800D01*
Y7300D01*
X277050D01*
Y6024D01*
X277307Y6075D01*
X277737Y6363D01*
X277751Y6383D01*
X278251Y6231D01*
Y649D01*
X749D01*
Y2074D01*
X1249Y2123D01*
X1275Y1993D01*
X1563Y1563D01*
X1993Y1275D01*
X2250Y1224D01*
Y2500D01*
X2750D01*
Y1224D01*
X3007Y1275D01*
X3246Y1435D01*
X3600Y1523D01*
X3954Y1435D01*
X4193Y1275D01*
X4450Y1224D01*
Y2500D01*
Y3776D01*
X4193Y3725D01*
X3954Y3565D01*
X3600Y3477D01*
X3246Y3565D01*
X3075Y3679D01*
X3038Y3950D01*
X3075Y4221D01*
X3437Y4463D01*
X3725Y4893D01*
X3776Y5150D01*
X2500D01*
Y5650D01*
X3776D01*
X3725Y5907D01*
X3437Y6337D01*
X3344Y6399D01*
Y7001D01*
X3437Y7063D01*
X3725Y7493D01*
X3776Y7750D01*
X2500D01*
Y8250D01*
X3776D01*
X3725Y8507D01*
X3437Y8937D01*
Y9263D01*
X3725Y9693D01*
X3776Y9950D01*
X2500D01*
Y10450D01*
X3776D01*
X3725Y10707D01*
X3437Y11137D01*
Y11463D01*
X3725Y11893D01*
X3776Y12150D01*
X2500D01*
Y12650D01*
X3776D01*
X3725Y12907D01*
X3437Y13337D01*
Y13663D01*
X3725Y14093D01*
X3776Y14350D01*
X2500D01*
Y14850D01*
X3776D01*
X3725Y15107D01*
X3437Y15537D01*
Y15863D01*
X3725Y16293D01*
X3776Y16550D01*
X2500D01*
Y17050D01*
X3776D01*
X3725Y17307D01*
X3437Y17737D01*
Y18063D01*
X3725Y18493D01*
X3776Y18750D01*
X2500D01*
Y19250D01*
X3776D01*
X3725Y19507D01*
X3437Y19937D01*
Y20263D01*
X3725Y20693D01*
X3776Y20950D01*
X2500D01*
Y21450D01*
X3776D01*
X3725Y21707D01*
X3437Y22137D01*
X3294Y22233D01*
Y22834D01*
X3337Y22863D01*
X3625Y23293D01*
X3676Y23550D01*
X2400D01*
Y24050D01*
X3676D01*
X3625Y24307D01*
X3337Y24737D01*
X3244Y24799D01*
Y25401D01*
X3337Y25463D01*
X3625Y25893D01*
X3676Y26150D01*
X2400D01*
Y26650D01*
X3676D01*
X3625Y26907D01*
X3337Y27337D01*
Y27663D01*
X3625Y28093D01*
X3676Y28350D01*
X2400D01*
Y28850D01*
X3676D01*
X3625Y29107D01*
X3465Y29346D01*
X3377Y29700D01*
X3465Y30053D01*
X3625Y30293D01*
X3676Y30550D01*
X2400D01*
Y31050D01*
X3676D01*
X3625Y31307D01*
X3337Y31737D01*
Y32063D01*
X3625Y32493D01*
X3676Y32750D01*
X2400D01*
Y33250D01*
X3676D01*
X3625Y33507D01*
X3337Y33937D01*
Y34263D01*
X3625Y34693D01*
X3676Y34950D01*
X2400D01*
Y35450D01*
X3676D01*
X3625Y35707D01*
X3337Y36137D01*
Y36463D01*
X3625Y36893D01*
X3676Y37150D01*
X2400D01*
Y37650D01*
X3676D01*
X3625Y37907D01*
X3337Y38337D01*
Y38663D01*
X3625Y39093D01*
X3676Y39350D01*
X2400D01*
Y39850D01*
X3676D01*
X3625Y40107D01*
X3337Y40537D01*
X3161Y40655D01*
Y41245D01*
X3337Y41363D01*
X3625Y41793D01*
X3676Y42050D01*
X2400D01*
Y42550D01*
X3676D01*
X3625Y42807D01*
X3337Y43237D01*
X3244Y43299D01*
Y43901D01*
X3337Y43963D01*
X3625Y44393D01*
X3676Y44650D01*
X2400D01*
Y45150D01*
X3676D01*
X3625Y45407D01*
X3337Y45837D01*
Y46163D01*
X3625Y46593D01*
X3676Y46850D01*
X2400D01*
Y47350D01*
X3676D01*
X3625Y47607D01*
X3337Y48037D01*
Y48363D01*
X3625Y48793D01*
X3676Y49050D01*
X2400D01*
Y49550D01*
X3676D01*
X3625Y49807D01*
X3337Y50237D01*
Y50563D01*
X3625Y50993D01*
X3676Y51250D01*
X2400D01*
Y51750D01*
X3676D01*
X3625Y52007D01*
X3337Y52437D01*
Y52763D01*
X3625Y53193D01*
X3676Y53450D01*
X2400D01*
Y53950D01*
X3676D01*
X3625Y54207D01*
X3337Y54637D01*
Y54963D01*
X3625Y55393D01*
X3676Y55650D01*
X2400D01*
Y56150D01*
X3676D01*
X3625Y56407D01*
X3337Y56837D01*
Y57163D01*
X3625Y57593D01*
X3676Y57850D01*
X2400D01*
Y58350D01*
X3676D01*
X3625Y58607D01*
X3337Y59037D01*
X3194Y59133D01*
Y59734D01*
X3237Y59763D01*
X3525Y60193D01*
X3576Y60450D01*
X2300D01*
Y60950D01*
X3576D01*
X3525Y61207D01*
X3237Y61637D01*
X3144Y61699D01*
Y62301D01*
X3237Y62363D01*
X3525Y62793D01*
X3576Y63050D01*
X2300D01*
Y63550D01*
X3576D01*
X3525Y63807D01*
X3237Y64237D01*
Y64563D01*
X3525Y64993D01*
X3576Y65250D01*
X2300D01*
Y65750D01*
X3576D01*
X3525Y66007D01*
X3237Y66437D01*
Y66763D01*
X3525Y67193D01*
X3576Y67450D01*
X2300D01*
Y67950D01*
X3576D01*
X3525Y68207D01*
X3237Y68637D01*
Y68963D01*
X3525Y69393D01*
X3576Y69650D01*
X2300D01*
Y70150D01*
X3576D01*
X3525Y70407D01*
X3237Y70837D01*
Y71163D01*
X3525Y71593D01*
X3576Y71850D01*
X2300D01*
Y72350D01*
X3576D01*
X3525Y72607D01*
X3237Y73037D01*
Y73363D01*
X3525Y73793D01*
X3576Y74050D01*
X2300D01*
Y74550D01*
X3576D01*
X3525Y74807D01*
X3237Y75237D01*
Y75563D01*
X3525Y75993D01*
X3576Y76250D01*
X2300D01*
Y76750D01*
X3576D01*
X3525Y77007D01*
X3237Y77437D01*
X3019Y77583D01*
X2984Y78158D01*
X2985Y78161D01*
X3137Y78263D01*
X3425Y78693D01*
X3476Y78950D01*
X2200D01*
Y79450D01*
X3476D01*
X3425Y79707D01*
X3137Y80137D01*
X3044Y80199D01*
Y80801D01*
X3137Y80863D01*
X3425Y81293D01*
X3476Y81550D01*
X2200D01*
Y82050D01*
X3476D01*
X3425Y82307D01*
X3137Y82737D01*
Y83063D01*
X3425Y83493D01*
X3476Y83750D01*
X2200D01*
Y84250D01*
X3476D01*
X3425Y84507D01*
X3137Y84937D01*
Y85263D01*
X3425Y85693D01*
X3476Y85950D01*
X2200D01*
Y86450D01*
X3476D01*
X3425Y86707D01*
X3137Y87137D01*
Y87463D01*
X3425Y87893D01*
X3476Y88150D01*
X2200D01*
Y88650D01*
X3476D01*
X3425Y88907D01*
X3137Y89337D01*
Y89663D01*
X3425Y90093D01*
X3476Y90350D01*
X2200D01*
Y90850D01*
X3476D01*
X3425Y91107D01*
X3137Y91537D01*
Y91863D01*
X3425Y92293D01*
X3476Y92550D01*
X2200D01*
Y93050D01*
X3476D01*
X3425Y93307D01*
X3137Y93737D01*
Y94063D01*
X3425Y94493D01*
X3476Y94750D01*
X2200D01*
Y95250D01*
X3476D01*
X3425Y95507D01*
X3137Y95937D01*
X3094Y95966D01*
Y96567D01*
X3237Y96663D01*
X3525Y97093D01*
X3576Y97350D01*
X2300D01*
Y97850D01*
X3576D01*
X3525Y98107D01*
X3237Y98537D01*
X3144Y98599D01*
Y99201D01*
X3237Y99263D01*
X3525Y99693D01*
X3576Y99950D01*
X2300D01*
Y100450D01*
X3576D01*
X3525Y100707D01*
X3237Y101137D01*
Y101463D01*
X3525Y101893D01*
X3576Y102150D01*
X2300D01*
Y102650D01*
X3576D01*
X3525Y102907D01*
X3237Y103337D01*
Y103663D01*
X3525Y104093D01*
X3576Y104350D01*
X2300D01*
Y104850D01*
X3576D01*
X3525Y105107D01*
X3237Y105537D01*
Y105863D01*
X3525Y106293D01*
X3576Y106550D01*
X2300D01*
Y107050D01*
X3576D01*
X3525Y107307D01*
X3237Y107737D01*
Y108063D01*
X3525Y108493D01*
X3576Y108750D01*
X2300D01*
Y109250D01*
X3576D01*
X3525Y109507D01*
X3237Y109937D01*
Y110263D01*
X3525Y110693D01*
X3576Y110950D01*
X2300D01*
Y111450D01*
X3576D01*
X3525Y111707D01*
X3237Y112137D01*
Y112463D01*
X3525Y112893D01*
X3576Y113150D01*
X2300D01*
Y113650D01*
X3576D01*
X3525Y113907D01*
X3319Y114216D01*
X3269Y114550D01*
X3319Y114884D01*
X3525Y115193D01*
X3576Y115450D01*
X2300D01*
Y115950D01*
X3576D01*
X3525Y116207D01*
X3237Y116637D01*
X3144Y116699D01*
Y117301D01*
X3237Y117363D01*
X3525Y117793D01*
X3576Y118050D01*
X2300D01*
Y118550D01*
X3576D01*
X3525Y118807D01*
X3237Y119237D01*
Y119563D01*
X3525Y119993D01*
X3576Y120250D01*
X2300D01*
Y120750D01*
X3576D01*
X3525Y121007D01*
X3237Y121437D01*
Y121763D01*
X3525Y122193D01*
X3576Y122450D01*
X2300D01*
Y122950D01*
X3576D01*
X3525Y123207D01*
X3237Y123637D01*
Y123963D01*
X3525Y124393D01*
X3576Y124650D01*
X2300D01*
Y125150D01*
X3576D01*
X3525Y125407D01*
X3237Y125837D01*
Y126163D01*
X3525Y126593D01*
X3576Y126850D01*
X2300D01*
Y127350D01*
X3576D01*
X3525Y127607D01*
X3237Y128037D01*
Y128363D01*
X3525Y128793D01*
X3576Y129050D01*
X2300D01*
Y129550D01*
X3576D01*
X3525Y129807D01*
X3237Y130237D01*
Y130563D01*
X3525Y130993D01*
X3576Y131250D01*
X2300D01*
Y131500D01*
X2050D01*
Y132776D01*
X1793Y132725D01*
X1363Y132437D01*
X1249Y132268D01*
X749Y132419D01*
Y159281D01*
X1249Y159432D01*
X1363Y159263D01*
X1793Y158975D01*
X2050Y158924D01*
Y160200D01*
X2300D01*
Y160450D01*
X3576D01*
X3525Y160707D01*
X3237Y161137D01*
X3144Y161199D01*
Y161801D01*
X3237Y161863D01*
X3525Y162293D01*
X3576Y162550D01*
X2300D01*
Y163050D01*
X3576D01*
X3525Y163307D01*
X3237Y163737D01*
Y164063D01*
X3525Y164493D01*
X3576Y164750D01*
X2300D01*
Y165250D01*
X3576D01*
X3525Y165507D01*
X3237Y165937D01*
Y166263D01*
X3525Y166693D01*
X3576Y166950D01*
X2300D01*
Y167450D01*
X3576D01*
X3525Y167707D01*
X3237Y168137D01*
Y168463D01*
X3525Y168893D01*
X3576Y169150D01*
X2300D01*
Y169650D01*
X3576D01*
X3525Y169907D01*
X3237Y170337D01*
Y170663D01*
X3525Y171093D01*
X3576Y171350D01*
X2300D01*
Y171850D01*
X3576D01*
X3525Y172107D01*
X3237Y172537D01*
Y172863D01*
X3525Y173293D01*
X3576Y173550D01*
X2300D01*
Y174050D01*
X3576D01*
X3525Y174307D01*
X3237Y174737D01*
Y175063D01*
X3525Y175493D01*
X3576Y175750D01*
X2300D01*
Y176250D01*
X3576D01*
X3525Y176507D01*
X3237Y176937D01*
X2836Y177206D01*
X2806Y177315D01*
X2798Y177736D01*
X3137Y177963D01*
X3425Y178393D01*
X3476Y178650D01*
X2200D01*
Y179150D01*
X3476D01*
X3425Y179407D01*
X3137Y179837D01*
X3044Y179899D01*
Y180501D01*
X3137Y180563D01*
X3425Y180993D01*
X3476Y181250D01*
X2200D01*
Y181750D01*
X3476D01*
X3425Y182007D01*
X3137Y182437D01*
Y182763D01*
X3425Y183193D01*
X3476Y183450D01*
X2200D01*
Y183950D01*
X3476D01*
X3425Y184207D01*
X3137Y184637D01*
Y184963D01*
X3425Y185393D01*
X3476Y185650D01*
X2200D01*
Y186150D01*
X3476D01*
X3425Y186407D01*
X3137Y186837D01*
Y187163D01*
X3425Y187593D01*
X3476Y187850D01*
X2200D01*
Y188350D01*
X3476D01*
X3425Y188607D01*
X3137Y189037D01*
Y189363D01*
X3425Y189793D01*
X3476Y190050D01*
X2200D01*
Y190550D01*
X3476D01*
X3425Y190807D01*
X3137Y191237D01*
Y191563D01*
X3425Y191993D01*
X3476Y192250D01*
X2200D01*
Y192750D01*
X3476D01*
X3425Y193007D01*
X3137Y193437D01*
Y193763D01*
X3425Y194193D01*
X3476Y194450D01*
X2200D01*
Y194950D01*
X3476D01*
X3425Y195207D01*
X3137Y195637D01*
X2860Y195822D01*
X2846Y195865D01*
Y196335D01*
X2860Y196378D01*
X3137Y196563D01*
X3425Y196993D01*
X3476Y197250D01*
X2200D01*
Y197750D01*
X3476D01*
X3425Y198007D01*
X3137Y198437D01*
X3044Y198499D01*
Y199101D01*
X3137Y199163D01*
X3425Y199593D01*
X3476Y199850D01*
X2200D01*
Y200350D01*
X3476D01*
X3425Y200607D01*
X3137Y201037D01*
Y201363D01*
X3425Y201793D01*
X3476Y202050D01*
X2200D01*
Y202550D01*
X3476D01*
X3425Y202807D01*
X3137Y203237D01*
Y203563D01*
X3425Y203993D01*
X3476Y204250D01*
X2200D01*
Y204750D01*
X3476D01*
X3425Y205007D01*
X3137Y205437D01*
Y205763D01*
X3425Y206193D01*
X3476Y206450D01*
X2200D01*
Y206950D01*
X3476D01*
X3425Y207207D01*
X3137Y207637D01*
Y207963D01*
X3425Y208393D01*
X3476Y208650D01*
X2200D01*
Y209150D01*
X3476D01*
X3425Y209407D01*
X3137Y209837D01*
Y210163D01*
X3425Y210593D01*
X3476Y210850D01*
X2200D01*
Y211350D01*
X3476D01*
X3425Y211607D01*
X3137Y212037D01*
Y212363D01*
X3425Y212793D01*
X3476Y213050D01*
X2200D01*
Y213550D01*
X3476D01*
X3425Y213807D01*
X3137Y214237D01*
X2860Y214422D01*
X2846Y214465D01*
Y214934D01*
X2860Y214978D01*
X3137Y215163D01*
X3425Y215593D01*
X3476Y215850D01*
X2200D01*
Y216350D01*
X3476D01*
X3425Y216607D01*
X3137Y217037D01*
X3044Y217099D01*
Y217701D01*
X3137Y217763D01*
X3425Y218193D01*
X3476Y218450D01*
X2200D01*
Y218950D01*
X3476D01*
X3425Y219207D01*
X3137Y219637D01*
Y219963D01*
X3425Y220393D01*
X3476Y220650D01*
X2200D01*
Y221150D01*
X3476D01*
X3425Y221407D01*
X3265Y221646D01*
X3177Y222000D01*
X3265Y222354D01*
X3425Y222593D01*
X3476Y222850D01*
X2200D01*
Y223350D01*
X3476D01*
X3425Y223607D01*
X3262Y223851D01*
X3500Y224351D01*
X5204D01*
X5471Y223851D01*
X5375Y223707D01*
X5324Y223450D01*
X6600D01*
Y223200D01*
X6850D01*
Y221924D01*
X7107Y221975D01*
X7537Y222263D01*
X7863D01*
X8293Y221975D01*
X8550Y221924D01*
Y223200D01*
X9050D01*
Y221924D01*
X9307Y221975D01*
X9737Y222263D01*
X10063D01*
X10493Y221975D01*
X10750Y221924D01*
Y223200D01*
X11250D01*
Y221924D01*
X11507Y221975D01*
X11937Y222263D01*
X12263D01*
X12693Y221975D01*
X12950Y221924D01*
Y223200D01*
X13450D01*
Y221924D01*
X13707Y221975D01*
X14137Y222263D01*
X14463D01*
X14893Y221975D01*
X15150Y221924D01*
Y223200D01*
X15650D01*
Y221924D01*
X15907Y221975D01*
X16337Y222263D01*
X16663D01*
X17093Y221975D01*
X17350Y221924D01*
Y223200D01*
X17850D01*
Y221924D01*
X18107Y221975D01*
X18537Y222263D01*
X18863D01*
X19293Y221975D01*
X19550Y221924D01*
Y223200D01*
X20050D01*
Y221924D01*
X20307Y221975D01*
X20737Y222263D01*
X20833Y222406D01*
X21434D01*
X21463Y222363D01*
X21893Y222075D01*
X22150Y222024D01*
Y223300D01*
X22650D01*
Y222024D01*
X22907Y222075D01*
X23337Y222363D01*
X23399Y222456D01*
X24001D01*
X24063Y222363D01*
X24493Y222075D01*
X24750Y222024D01*
Y223300D01*
X25250D01*
Y222024D01*
X25507Y222075D01*
X25937Y222363D01*
X26263D01*
X26693Y222075D01*
X26950Y222024D01*
Y223300D01*
X27450D01*
Y222024D01*
X27707Y222075D01*
X28137Y222363D01*
X28463D01*
X28893Y222075D01*
X29150Y222024D01*
Y223300D01*
X29650D01*
Y222024D01*
X29907Y222075D01*
X30337Y222363D01*
X30663D01*
X31093Y222075D01*
X31350Y222024D01*
Y223300D01*
X31850D01*
Y222024D01*
X32107Y222075D01*
X32537Y222363D01*
X32863D01*
X33293Y222075D01*
X33550Y222024D01*
Y223300D01*
X34050D01*
Y222024D01*
X34307Y222075D01*
X34737Y222363D01*
X35063D01*
X35493Y222075D01*
X35750Y222024D01*
Y223300D01*
X36250D01*
Y222024D01*
X36507Y222075D01*
X36937Y222363D01*
X37263D01*
X37693Y222075D01*
X37950Y222024D01*
Y223300D01*
X38450D01*
Y222024D01*
X38707Y222075D01*
X39137Y222363D01*
X39255Y222539D01*
X39845D01*
X39963Y222363D01*
X40393Y222075D01*
X40650Y222024D01*
Y223300D01*
X41150D01*
Y222024D01*
X41407Y222075D01*
X41837Y222363D01*
X41899Y222456D01*
X42501D01*
X42563Y222363D01*
X42993Y222075D01*
X43250Y222024D01*
Y223300D01*
X43750D01*
Y222024D01*
X44007Y222075D01*
X44437Y222363D01*
X44763D01*
X45193Y222075D01*
X45450Y222024D01*
Y223300D01*
X45950D01*
Y222024D01*
X46207Y222075D01*
X46637Y222363D01*
X46963D01*
X47393Y222075D01*
X47650Y222024D01*
Y223300D01*
X47900D01*
Y223550D01*
X49176D01*
X49125Y223807D01*
X49096Y223851D01*
X49363Y224351D01*
X205374D01*
X205423Y223851D01*
X205293Y223825D01*
X204863Y223537D01*
X204767Y223394D01*
X204166D01*
X204137Y223437D01*
X203707Y223725D01*
X203450Y223776D01*
Y222500D01*
Y221224D01*
X203707Y221275D01*
X204137Y221563D01*
X204233Y221706D01*
X204834D01*
X204863Y221663D01*
X205293Y221375D01*
X205550Y221324D01*
Y222600D01*
X206050D01*
Y221324D01*
X206307Y221375D01*
X206737Y221663D01*
X206799Y221756D01*
X207401D01*
X207463Y221663D01*
X207893Y221375D01*
X208150Y221324D01*
Y222600D01*
X208650D01*
Y221324D01*
X208907Y221375D01*
X209337Y221663D01*
X209663D01*
X210093Y221375D01*
X210350Y221324D01*
Y222600D01*
X210850D01*
Y221324D01*
X211107Y221375D01*
X211537Y221663D01*
X211863D01*
X212293Y221375D01*
X212550Y221324D01*
Y222600D01*
X213050D01*
Y221324D01*
X213307Y221375D01*
X213737Y221663D01*
X214063D01*
X214493Y221375D01*
X214750Y221324D01*
Y222600D01*
X215250D01*
Y221324D01*
X215507Y221375D01*
X215937Y221663D01*
X216263D01*
X216693Y221375D01*
X216950Y221324D01*
Y222600D01*
X217450D01*
Y221324D01*
X217707Y221375D01*
X218137Y221663D01*
X218463D01*
X218893Y221375D01*
X219150Y221324D01*
Y222600D01*
X219650D01*
Y221324D01*
X219907Y221375D01*
X220337Y221663D01*
X220663D01*
X221093Y221375D01*
X221350Y221324D01*
Y222600D01*
X221850D01*
Y221324D01*
X222107Y221375D01*
X222537Y221663D01*
X222655Y221839D01*
X223245D01*
X223363Y221663D01*
X223793Y221375D01*
X224050Y221324D01*
Y222600D01*
X224550D01*
Y221324D01*
X224807Y221375D01*
X225237Y221663D01*
X225299Y221756D01*
X225901D01*
X225963Y221663D01*
X226393Y221375D01*
X226650Y221324D01*
Y222600D01*
X227150D01*
Y221324D01*
X227407Y221375D01*
X227837Y221663D01*
X228163D01*
X228593Y221375D01*
X228850Y221324D01*
Y222600D01*
X229350D01*
Y221324D01*
X229607Y221375D01*
X230037Y221663D01*
X230363D01*
X230793Y221375D01*
X231050Y221324D01*
Y222600D01*
X231550D01*
Y221324D01*
X231807Y221375D01*
X232237Y221663D01*
X232383Y221881D01*
X232959Y221916D01*
X232961Y221915D01*
X233063Y221763D01*
X233493Y221475D01*
X233750Y221424D01*
Y222700D01*
X234250D01*
Y221424D01*
X234507Y221475D01*
X234937Y221763D01*
X235263D01*
X235693Y221475D01*
X235950Y221424D01*
Y222700D01*
X236450D01*
Y221424D01*
X236707Y221475D01*
X237137Y221763D01*
X237463D01*
X237893Y221475D01*
X238150Y221424D01*
Y222700D01*
X238650D01*
Y221424D01*
X238907Y221475D01*
X239337Y221763D01*
X239663D01*
X240093Y221475D01*
X240350Y221424D01*
Y222700D01*
X240850D01*
Y221424D01*
X241107Y221475D01*
X241537Y221763D01*
X241863D01*
X242293Y221475D01*
X242550Y221424D01*
Y222700D01*
X243050D01*
Y221424D01*
X243307Y221475D01*
X243737Y221763D01*
X244063D01*
X244493Y221475D01*
X244750Y221424D01*
Y222700D01*
X245250D01*
Y221424D01*
X245507Y221475D01*
X245937Y221763D01*
X246263D01*
X246693Y221475D01*
X246950Y221424D01*
Y222700D01*
X247450D01*
Y221424D01*
X247707Y221475D01*
X248137Y221763D01*
X248233Y221906D01*
X248834D01*
X248863Y221863D01*
X249293Y221575D01*
X249550Y221524D01*
Y222800D01*
X250050D01*
Y221524D01*
X250307Y221575D01*
X250737Y221863D01*
X250799Y221956D01*
X251401D01*
X251463Y221863D01*
X251893Y221575D01*
X252150Y221524D01*
Y222800D01*
X252650D01*
Y221524D01*
X252907Y221575D01*
X253337Y221863D01*
X253663D01*
X254093Y221575D01*
X254350Y221524D01*
Y222800D01*
X254850D01*
Y221524D01*
X255107Y221575D01*
X255537Y221863D01*
X255863D01*
X256293Y221575D01*
X256550Y221524D01*
Y222800D01*
X257050D01*
Y221524D01*
X257307Y221575D01*
X257737Y221863D01*
X258063D01*
X258493Y221575D01*
X258750Y221524D01*
Y222800D01*
X259250D01*
Y221524D01*
X259507Y221575D01*
X259937Y221863D01*
X260263D01*
X260693Y221575D01*
X260950Y221524D01*
Y222800D01*
X261450D01*
Y221524D01*
X261707Y221575D01*
X262137Y221863D01*
X262463D01*
X262893Y221575D01*
X263150Y221524D01*
Y222800D01*
X263650D01*
Y221524D01*
X263907Y221575D01*
X264337Y221863D01*
X264663D01*
X265093Y221575D01*
X265350Y221524D01*
Y222800D01*
X265850D01*
Y221524D01*
X266107Y221575D01*
X266537Y221863D01*
X266655Y222039D01*
X267245D01*
X267363Y221863D01*
X267793Y221575D01*
X268050Y221524D01*
Y222800D01*
X268550D01*
Y221524D01*
X268807Y221575D01*
X269237Y221863D01*
X269299Y221956D01*
X269901D01*
X269963Y221863D01*
X270393Y221575D01*
X270650Y221524D01*
Y222800D01*
X271150D01*
Y221524D01*
X271407Y221575D01*
X271837Y221863D01*
X272163D01*
X272593Y221575D01*
X272850Y221524D01*
Y222800D01*
X273350D01*
Y221524D01*
X273607Y221575D01*
X274037Y221863D01*
X274363D01*
X274793Y221575D01*
X275050Y221524D01*
Y222800D01*
X275300D01*
Y223050D01*
X276576D01*
X276525Y223307D01*
X276237Y223737D01*
X276068Y223851D01*
X276219Y224351D01*
X278251D01*
Y211119D01*
D02*
G37*
%LPC*%
G36*
X202950Y223776D02*
X202693Y223725D01*
X202263Y223437D01*
X201937D01*
X201507Y223725D01*
X201250Y223776D01*
Y222500D01*
Y221224D01*
X201507Y221275D01*
X201937Y221563D01*
X202263D01*
X202693Y221275D01*
X202950Y221224D01*
Y222500D01*
Y223776D01*
D02*
G37*
G36*
X200750D02*
X200493Y223725D01*
X200063Y223437D01*
X199737D01*
X199307Y223725D01*
X199050Y223776D01*
Y222500D01*
Y221224D01*
X199307Y221275D01*
X199737Y221563D01*
X200063D01*
X200493Y221275D01*
X200750Y221224D01*
Y222500D01*
Y223776D01*
D02*
G37*
G36*
X198550D02*
X198293Y223725D01*
X197863Y223437D01*
X197537D01*
X197107Y223725D01*
X196850Y223776D01*
Y222500D01*
Y221224D01*
X197107Y221275D01*
X197537Y221563D01*
X197863D01*
X198293Y221275D01*
X198550Y221224D01*
Y222500D01*
Y223776D01*
D02*
G37*
G36*
X196350D02*
X196093Y223725D01*
X195663Y223437D01*
X195337D01*
X194907Y223725D01*
X194650Y223776D01*
Y222500D01*
Y221224D01*
X194907Y221275D01*
X195337Y221563D01*
X195663D01*
X196093Y221275D01*
X196350Y221224D01*
Y222500D01*
Y223776D01*
D02*
G37*
G36*
X194150D02*
X193893Y223725D01*
X193463Y223437D01*
X193137D01*
X192707Y223725D01*
X192450Y223776D01*
Y222500D01*
Y221224D01*
X192707Y221275D01*
X193137Y221563D01*
X193463D01*
X193893Y221275D01*
X194150Y221224D01*
Y222500D01*
Y223776D01*
D02*
G37*
G36*
X191950D02*
X191693Y223725D01*
X191263Y223437D01*
X190937D01*
X190507Y223725D01*
X190250Y223776D01*
Y222500D01*
Y221224D01*
X190507Y221275D01*
X190937Y221563D01*
X191263D01*
X191693Y221275D01*
X191950Y221224D01*
Y222500D01*
Y223776D01*
D02*
G37*
G36*
X187050D02*
X186793Y223725D01*
X186363Y223437D01*
X186037D01*
X185607Y223725D01*
X185350Y223776D01*
Y222500D01*
Y221224D01*
X185607Y221275D01*
X186037Y221563D01*
X186363D01*
X186793Y221275D01*
X187050Y221224D01*
Y222500D01*
Y223776D01*
D02*
G37*
G36*
X184850D02*
X184593Y223725D01*
X184163Y223437D01*
X183837D01*
X183407Y223725D01*
X183150Y223776D01*
Y222500D01*
Y221224D01*
X183407Y221275D01*
X183837Y221563D01*
X184163D01*
X184593Y221275D01*
X184850Y221224D01*
Y222500D01*
Y223776D01*
D02*
G37*
G36*
X177350D02*
X177093Y223725D01*
X176663Y223437D01*
X176337D01*
X175907Y223725D01*
X175650Y223776D01*
Y222500D01*
Y221224D01*
X175907Y221275D01*
X176337Y221563D01*
X176663D01*
X177093Y221275D01*
X177350Y221224D01*
Y222500D01*
Y223776D01*
D02*
G37*
G36*
X175150D02*
X174893Y223725D01*
X174463Y223437D01*
X174137D01*
X173707Y223725D01*
X173450Y223776D01*
Y222500D01*
Y221224D01*
X173707Y221275D01*
X174137Y221563D01*
X174463D01*
X174893Y221275D01*
X175150Y221224D01*
Y222500D01*
Y223776D01*
D02*
G37*
G36*
X172950D02*
X172693Y223725D01*
X172263Y223437D01*
X171937D01*
X171507Y223725D01*
X171250Y223776D01*
Y222500D01*
Y221224D01*
X171507Y221275D01*
X171937Y221563D01*
X172263D01*
X172693Y221275D01*
X172950Y221224D01*
Y222500D01*
Y223776D01*
D02*
G37*
G36*
X170750D02*
X170493Y223725D01*
X170063Y223437D01*
X169737D01*
X169307Y223725D01*
X169050Y223776D01*
Y222500D01*
Y221224D01*
X169307Y221275D01*
X169737Y221563D01*
X170063D01*
X170493Y221275D01*
X170750Y221224D01*
Y222500D01*
Y223776D01*
D02*
G37*
G36*
X168550D02*
X168293Y223725D01*
X167863Y223437D01*
X167537D01*
X167107Y223725D01*
X166850Y223776D01*
Y222500D01*
Y221224D01*
X167107Y221275D01*
X167537Y221563D01*
X167863D01*
X168293Y221275D01*
X168550Y221224D01*
Y222500D01*
Y223776D01*
D02*
G37*
G36*
X166350D02*
X166093Y223725D01*
X165663Y223437D01*
X165337D01*
X164907Y223725D01*
X164650Y223776D01*
Y222500D01*
Y221224D01*
X164907Y221275D01*
X165337Y221563D01*
X165663D01*
X166093Y221275D01*
X166350Y221224D01*
Y222500D01*
Y223776D01*
D02*
G37*
G36*
X142650D02*
X142393Y223725D01*
X141963Y223437D01*
X141637D01*
X141207Y223725D01*
X140950Y223776D01*
Y222500D01*
Y221224D01*
X141207Y221275D01*
X141637Y221563D01*
X141963D01*
X142393Y221275D01*
X142650Y221224D01*
Y222500D01*
Y223776D01*
D02*
G37*
G36*
X140450D02*
X140193Y223725D01*
X139763Y223437D01*
X139437D01*
X139007Y223725D01*
X138750Y223776D01*
Y222500D01*
Y221224D01*
X139007Y221275D01*
X139437Y221563D01*
X139763D01*
X140193Y221275D01*
X140450Y221224D01*
Y222500D01*
Y223776D01*
D02*
G37*
G36*
X132950D02*
X132693Y223725D01*
X132263Y223437D01*
X131937D01*
X131507Y223725D01*
X131250Y223776D01*
Y222500D01*
Y221224D01*
X131507Y221275D01*
X131937Y221563D01*
X132263D01*
X132693Y221275D01*
X132950Y221224D01*
Y222500D01*
Y223776D01*
D02*
G37*
G36*
X130750D02*
X130493Y223725D01*
X130063Y223437D01*
X129737D01*
X129307Y223725D01*
X129050Y223776D01*
Y222500D01*
Y221224D01*
X129307Y221275D01*
X129737Y221563D01*
X130063D01*
X130493Y221275D01*
X130750Y221224D01*
Y222500D01*
Y223776D01*
D02*
G37*
G36*
X128550D02*
X128293Y223725D01*
X127863Y223437D01*
X127537D01*
X127107Y223725D01*
X126850Y223776D01*
Y222500D01*
Y221224D01*
X127107Y221275D01*
X127537Y221563D01*
X127863D01*
X128293Y221275D01*
X128550Y221224D01*
Y222500D01*
Y223776D01*
D02*
G37*
G36*
X126350D02*
X126093Y223725D01*
X125663Y223437D01*
X125337D01*
X124907Y223725D01*
X124650Y223776D01*
Y222500D01*
Y221224D01*
X124907Y221275D01*
X125337Y221563D01*
X125663D01*
X126093Y221275D01*
X126350Y221224D01*
Y222500D01*
Y223776D01*
D02*
G37*
G36*
X124150D02*
X123893Y223725D01*
X123463Y223437D01*
X123137D01*
X122707Y223725D01*
X122450Y223776D01*
Y222500D01*
Y221224D01*
X122707Y221275D01*
X123137Y221563D01*
X123463D01*
X123893Y221275D01*
X124150Y221224D01*
Y222500D01*
Y223776D01*
D02*
G37*
G36*
X121950D02*
X121693Y223725D01*
X121263Y223437D01*
X120937D01*
X120507Y223725D01*
X120250Y223776D01*
Y222500D01*
Y221224D01*
X120507Y221275D01*
X120937Y221563D01*
X121263D01*
X121693Y221275D01*
X121950Y221224D01*
Y222500D01*
Y223776D01*
D02*
G37*
G36*
X182650D02*
X182393Y223725D01*
X181963Y223437D01*
X181901Y223344D01*
X181299D01*
X181237Y223437D01*
X180807Y223725D01*
X180550Y223776D01*
Y222500D01*
Y221224D01*
X180807Y221275D01*
X181237Y221563D01*
X181299Y221656D01*
X181901D01*
X181963Y221563D01*
X182393Y221275D01*
X182650Y221224D01*
Y222500D01*
Y223776D01*
D02*
G37*
G36*
X164150D02*
X163893Y223725D01*
X163463Y223437D01*
X163401Y223344D01*
X162799D01*
X162737Y223437D01*
X162307Y223725D01*
X162050Y223776D01*
Y222500D01*
Y221224D01*
X162307Y221275D01*
X162737Y221563D01*
X162799Y221656D01*
X163401D01*
X163463Y221563D01*
X163893Y221275D01*
X164150Y221224D01*
Y222500D01*
Y223776D01*
D02*
G37*
G36*
X138250D02*
X137993Y223725D01*
X137563Y223437D01*
X137501Y223344D01*
X136899D01*
X136837Y223437D01*
X136407Y223725D01*
X136150Y223776D01*
Y222500D01*
Y221224D01*
X136407Y221275D01*
X136837Y221563D01*
X136899Y221656D01*
X137501D01*
X137563Y221563D01*
X137993Y221275D01*
X138250Y221224D01*
Y222500D01*
Y223776D01*
D02*
G37*
G36*
X119750D02*
X119493Y223725D01*
X119063Y223437D01*
X119001Y223344D01*
X118399D01*
X118337Y223437D01*
X117907Y223725D01*
X117650Y223776D01*
Y222500D01*
Y221224D01*
X117907Y221275D01*
X118337Y221563D01*
X118399Y221656D01*
X119001D01*
X119063Y221563D01*
X119493Y221275D01*
X119750Y221224D01*
Y222500D01*
Y223776D01*
D02*
G37*
G36*
X158950Y223676D02*
X158693Y223625D01*
X158263Y223337D01*
X157937D01*
X157507Y223625D01*
X157250Y223676D01*
Y222400D01*
Y221124D01*
X157507Y221175D01*
X157937Y221463D01*
X158263D01*
X158693Y221175D01*
X158950Y221124D01*
Y222400D01*
Y223676D01*
D02*
G37*
G36*
X156750D02*
X156493Y223625D01*
X156063Y223337D01*
X155737D01*
X155307Y223625D01*
X155050Y223676D01*
Y222400D01*
Y221124D01*
X155307Y221175D01*
X155737Y221463D01*
X156063D01*
X156493Y221175D01*
X156750Y221124D01*
Y222400D01*
Y223676D01*
D02*
G37*
G36*
X154550D02*
X154293Y223625D01*
X153863Y223337D01*
X153537D01*
X153107Y223625D01*
X152850Y223676D01*
Y222400D01*
Y221124D01*
X153107Y221175D01*
X153537Y221463D01*
X153863D01*
X154293Y221175D01*
X154550Y221124D01*
Y222400D01*
Y223676D01*
D02*
G37*
G36*
X152350D02*
X152093Y223625D01*
X151663Y223337D01*
X151337D01*
X150907Y223625D01*
X150650Y223676D01*
Y222400D01*
Y221124D01*
X150907Y221175D01*
X151337Y221463D01*
X151663D01*
X152093Y221175D01*
X152350Y221124D01*
Y222400D01*
Y223676D01*
D02*
G37*
G36*
X150150D02*
X149893Y223625D01*
X149463Y223337D01*
X149137D01*
X148707Y223625D01*
X148450Y223676D01*
Y222400D01*
Y221124D01*
X148707Y221175D01*
X149137Y221463D01*
X149463D01*
X149893Y221175D01*
X150150Y221124D01*
Y222400D01*
Y223676D01*
D02*
G37*
G36*
X147950D02*
X147693Y223625D01*
X147263Y223337D01*
X146937D01*
X146507Y223625D01*
X146250Y223676D01*
Y222400D01*
Y221124D01*
X146507Y221175D01*
X146937Y221463D01*
X147263D01*
X147693Y221175D01*
X147950Y221124D01*
Y222400D01*
Y223676D01*
D02*
G37*
G36*
X114550D02*
X114293Y223625D01*
X113863Y223337D01*
X113537D01*
X113107Y223625D01*
X112850Y223676D01*
Y222400D01*
Y221124D01*
X113107Y221175D01*
X113537Y221463D01*
X113863D01*
X114293Y221175D01*
X114550Y221124D01*
Y222400D01*
Y223676D01*
D02*
G37*
G36*
X112350D02*
X112093Y223625D01*
X111663Y223337D01*
X111337D01*
X110907Y223625D01*
X110650Y223676D01*
Y222400D01*
Y221124D01*
X110907Y221175D01*
X111337Y221463D01*
X111663D01*
X112093Y221175D01*
X112350Y221124D01*
Y222400D01*
Y223676D01*
D02*
G37*
G36*
X110150D02*
X109893Y223625D01*
X109463Y223337D01*
X109137D01*
X108707Y223625D01*
X108450Y223676D01*
Y222400D01*
Y221124D01*
X108707Y221175D01*
X109137Y221463D01*
X109463D01*
X109893Y221175D01*
X110150Y221124D01*
Y222400D01*
Y223676D01*
D02*
G37*
G36*
X107950D02*
X107693Y223625D01*
X107263Y223337D01*
X106937D01*
X106507Y223625D01*
X106250Y223676D01*
Y222400D01*
Y221124D01*
X106507Y221175D01*
X106937Y221463D01*
X107263D01*
X107693Y221175D01*
X107950Y221124D01*
Y222400D01*
Y223676D01*
D02*
G37*
G36*
X105750D02*
X105493Y223625D01*
X105063Y223337D01*
X104737D01*
X104307Y223625D01*
X104050Y223676D01*
Y222400D01*
Y221124D01*
X104307Y221175D01*
X104737Y221463D01*
X105063D01*
X105493Y221175D01*
X105750Y221124D01*
Y222400D01*
Y223676D01*
D02*
G37*
G36*
X103550D02*
X103293Y223625D01*
X102863Y223337D01*
X102537D01*
X102107Y223625D01*
X101850Y223676D01*
Y222400D01*
Y221124D01*
X102107Y221175D01*
X102537Y221463D01*
X102863D01*
X103293Y221175D01*
X103550Y221124D01*
Y222400D01*
Y223676D01*
D02*
G37*
G36*
X161550Y223776D02*
X161293Y223725D01*
X160863Y223437D01*
X160767Y223294D01*
X160166D01*
X160137Y223337D01*
X159707Y223625D01*
X159450Y223676D01*
Y222400D01*
Y221124D01*
X159707Y221175D01*
X160137Y221463D01*
X160233Y221606D01*
X160834D01*
X160863Y221563D01*
X161293Y221275D01*
X161550Y221224D01*
Y222500D01*
Y223776D01*
D02*
G37*
G36*
X117150D02*
X116893Y223725D01*
X116463Y223437D01*
X116367Y223294D01*
X115766D01*
X115737Y223337D01*
X115307Y223625D01*
X115050Y223676D01*
Y222400D01*
Y221124D01*
X115307Y221175D01*
X115737Y221463D01*
X115833Y221606D01*
X116434D01*
X116463Y221563D01*
X116893Y221275D01*
X117150Y221224D01*
Y222500D01*
Y223776D01*
D02*
G37*
G36*
X189750D02*
X189493Y223725D01*
X189063Y223437D01*
X188945Y223261D01*
X188355D01*
X188237Y223437D01*
X187807Y223725D01*
X187550Y223776D01*
Y222500D01*
Y221224D01*
X187807Y221275D01*
X188237Y221563D01*
X188355Y221739D01*
X188945D01*
X189063Y221563D01*
X189493Y221275D01*
X189750Y221224D01*
Y222500D01*
Y223776D01*
D02*
G37*
G36*
X180050D02*
X179793Y223725D01*
X179363Y223437D01*
X179245Y223261D01*
X178655D01*
X178537Y223437D01*
X178107Y223725D01*
X177850Y223776D01*
Y222500D01*
Y221224D01*
X178107Y221275D01*
X178537Y221563D01*
X178655Y221739D01*
X179245D01*
X179363Y221563D01*
X179793Y221275D01*
X180050Y221224D01*
Y222500D01*
Y223776D01*
D02*
G37*
G36*
X135650D02*
X135393Y223725D01*
X134963Y223437D01*
X134845Y223261D01*
X134255D01*
X134137Y223437D01*
X133707Y223725D01*
X133450Y223776D01*
Y222500D01*
Y221224D01*
X133707Y221275D01*
X134137Y221563D01*
X134255Y221739D01*
X134845D01*
X134963Y221563D01*
X135393Y221275D01*
X135650Y221224D01*
Y222500D01*
Y223776D01*
D02*
G37*
G36*
X101350Y223676D02*
X101093Y223625D01*
X100663Y223337D01*
X100375Y222907D01*
X100324Y222650D01*
X101350D01*
Y223676D01*
D02*
G37*
G36*
X49176Y223050D02*
X48150D01*
Y222024D01*
X48407Y222075D01*
X48837Y222363D01*
X49125Y222793D01*
X49176Y223050D01*
D02*
G37*
G36*
X6350Y222950D02*
X5324D01*
X5375Y222693D01*
X5663Y222263D01*
X6093Y221975D01*
X6350Y221924D01*
Y222950D01*
D02*
G37*
G36*
X276576Y222550D02*
X275550D01*
Y221524D01*
X275807Y221575D01*
X276237Y221863D01*
X276525Y222293D01*
X276576Y222550D01*
D02*
G37*
G36*
X143150Y223776D02*
Y222500D01*
Y221224D01*
X143407Y221275D01*
X143837Y221563D01*
X144125Y221993D01*
X144185Y222297D01*
X144695D01*
X144775Y221893D01*
X145063Y221463D01*
X145493Y221175D01*
X145750Y221124D01*
Y222400D01*
Y223676D01*
X145493Y223625D01*
X145063Y223337D01*
X144775Y222907D01*
X144715Y222603D01*
X144205D01*
X144125Y223007D01*
X143837Y223437D01*
X143407Y223725D01*
X143150Y223776D01*
D02*
G37*
G36*
X101350Y222150D02*
X100324D01*
X100375Y221893D01*
X100663Y221463D01*
X101093Y221175D01*
X101350Y221124D01*
Y222150D01*
D02*
G37*
G36*
X94550Y217376D02*
Y216350D01*
X95576D01*
X95525Y216607D01*
X95237Y217037D01*
X94807Y217325D01*
X94550Y217376D01*
D02*
G37*
G36*
X94050D02*
X93793Y217325D01*
X93363Y217037D01*
X93075Y216607D01*
X93024Y216350D01*
X94050D01*
Y217376D01*
D02*
G37*
G36*
X95576Y215850D02*
X94550D01*
Y214824D01*
X94807Y214875D01*
X95237Y215163D01*
X95525Y215593D01*
X95576Y215850D01*
D02*
G37*
G36*
X94050D02*
X93024D01*
X93075Y215593D01*
X93363Y215163D01*
X93793Y214875D01*
X94050Y214824D01*
Y215850D01*
D02*
G37*
G36*
X276450Y211476D02*
X276193Y211425D01*
X275763Y211137D01*
X275475Y210707D01*
X275424Y210450D01*
X276450D01*
Y211476D01*
D02*
G37*
G36*
X158550Y202776D02*
Y201750D01*
X159576D01*
X159525Y202007D01*
X159237Y202437D01*
X158807Y202725D01*
X158550Y202776D01*
D02*
G37*
G36*
X158050D02*
X157793Y202725D01*
X157363Y202437D01*
X157075Y202007D01*
X157024Y201750D01*
X158050D01*
Y202776D01*
D02*
G37*
G36*
X159576Y201250D02*
X158550D01*
Y200224D01*
X158807Y200275D01*
X159237Y200563D01*
X159525Y200993D01*
X159576Y201250D01*
D02*
G37*
G36*
X158050D02*
X157024D01*
X157075Y200993D01*
X157363Y200563D01*
X157793Y200275D01*
X158050Y200224D01*
Y201250D01*
D02*
G37*
G36*
X230437Y193788D02*
Y192763D01*
X231463D01*
X231412Y193020D01*
X231125Y193450D01*
X230695Y193737D01*
X230437Y193788D01*
D02*
G37*
G36*
X229937D02*
X229680Y193737D01*
X229250Y193450D01*
X228963Y193020D01*
X228912Y192763D01*
X229937D01*
Y193788D01*
D02*
G37*
G36*
X203863Y193488D02*
Y192463D01*
X204888D01*
X204837Y192720D01*
X204550Y193150D01*
X204120Y193437D01*
X203863Y193488D01*
D02*
G37*
G36*
X203363D02*
X203105Y193437D01*
X202675Y193150D01*
X202388Y192720D01*
X202337Y192463D01*
X203363D01*
Y193488D01*
D02*
G37*
G36*
X231463Y192263D02*
X230437D01*
Y191237D01*
X230695Y191288D01*
X231125Y191575D01*
X231412Y192005D01*
X231463Y192263D01*
D02*
G37*
G36*
X229937D02*
X228912D01*
X228963Y192005D01*
X229250Y191575D01*
X229680Y191288D01*
X229937Y191237D01*
Y192263D01*
D02*
G37*
G36*
X204888Y191963D02*
X203863D01*
Y190937D01*
X204120Y190988D01*
X204550Y191275D01*
X204837Y191705D01*
X204888Y191963D01*
D02*
G37*
G36*
X203363D02*
X202337D01*
X202388Y191705D01*
X202675Y191275D01*
X203105Y190988D01*
X203363Y190937D01*
Y191963D01*
D02*
G37*
G36*
X76850Y191223D02*
Y190350D01*
X77723D01*
X77683Y190549D01*
X77429Y190929D01*
X77049Y191183D01*
X76850Y191223D01*
D02*
G37*
G36*
X76350D02*
X76151Y191183D01*
X75771Y190929D01*
X75517Y190549D01*
X75477Y190350D01*
X76350D01*
Y191223D01*
D02*
G37*
G36*
X77723Y189850D02*
X76850D01*
Y188977D01*
X77049Y189017D01*
X77429Y189271D01*
X77683Y189651D01*
X77723Y189850D01*
D02*
G37*
G36*
X76350D02*
X75477D01*
X75517Y189651D01*
X75771Y189271D01*
X76151Y189017D01*
X76350Y188977D01*
Y189850D01*
D02*
G37*
G36*
X276550Y168650D02*
X275524D01*
X275575Y168393D01*
X275863Y167963D01*
X276293Y167675D01*
X276550Y167624D01*
Y168650D01*
D02*
G37*
G36*
X17750Y168476D02*
Y167450D01*
X18776D01*
X18725Y167707D01*
X18437Y168137D01*
X18007Y168425D01*
X17750Y168476D01*
D02*
G37*
G36*
X17250D02*
X16993Y168425D01*
X16563Y168137D01*
X16275Y167707D01*
X16224Y167450D01*
X17250D01*
Y168476D01*
D02*
G37*
G36*
X18776Y166950D02*
X17750D01*
Y165924D01*
X18007Y165975D01*
X18437Y166263D01*
X18725Y166693D01*
X18776Y166950D01*
D02*
G37*
G36*
X17250D02*
X16224D01*
X16275Y166693D01*
X16563Y166263D01*
X16993Y165975D01*
X17250Y165924D01*
Y166950D01*
D02*
G37*
G36*
X3576Y159950D02*
X2550D01*
Y158924D01*
X2807Y158975D01*
X3237Y159263D01*
X3525Y159693D01*
X3576Y159950D01*
D02*
G37*
G36*
X6916Y159085D02*
Y158059D01*
X7942D01*
X7891Y158316D01*
X7603Y158746D01*
X7173Y159033D01*
X6916Y159085D01*
D02*
G37*
G36*
X6416D02*
X6159Y159033D01*
X5729Y158746D01*
X5441Y158316D01*
X5390Y158059D01*
X6416D01*
Y159085D01*
D02*
G37*
G36*
X15185Y158016D02*
X14927Y157965D01*
X14497Y157677D01*
X14485Y157659D01*
X13884D01*
X13872Y157677D01*
X13442Y157965D01*
X13185Y158016D01*
Y156740D01*
X12685D01*
Y158016D01*
X12427Y157965D01*
X12119Y157759D01*
X11785Y157709D01*
X11450Y157759D01*
X11142Y157965D01*
X10885Y158016D01*
Y156740D01*
X10635D01*
Y156490D01*
X9359D01*
X9400Y156285D01*
X9379Y156187D01*
X9108Y155785D01*
X4894D01*
X4781Y155864D01*
X4772Y155877D01*
X4342Y156165D01*
X4085Y156216D01*
Y154940D01*
X3835D01*
Y154690D01*
X2559D01*
X2610Y154433D01*
X2897Y154003D01*
Y153677D01*
X2610Y153247D01*
X2559Y152990D01*
X3835D01*
Y152490D01*
X2559D01*
X2610Y152233D01*
X2897Y151803D01*
Y151477D01*
X2610Y151047D01*
X2559Y150790D01*
X3835D01*
Y150290D01*
X2559D01*
X2610Y150033D01*
X2897Y149603D01*
Y149277D01*
X2610Y148847D01*
X2559Y148590D01*
X3835D01*
Y148090D01*
X2559D01*
X2610Y147833D01*
X2897Y147403D01*
Y147077D01*
X2610Y146647D01*
X2559Y146390D01*
X3835D01*
Y145890D01*
X2559D01*
X2610Y145633D01*
X2897Y145203D01*
Y144877D01*
X2610Y144447D01*
X2559Y144190D01*
X3835D01*
Y143690D01*
X2559D01*
X2610Y143433D01*
X2897Y143003D01*
Y142677D01*
X2610Y142247D01*
X2559Y141990D01*
X3835D01*
Y141490D01*
X2559D01*
X2610Y141233D01*
X2897Y140803D01*
X2990Y140741D01*
Y140139D01*
X2897Y140077D01*
X2610Y139647D01*
X2559Y139390D01*
X3835D01*
Y139140D01*
X4085D01*
Y137864D01*
X4342Y137916D01*
X4394Y137951D01*
X4894Y137683D01*
Y136100D01*
X16705Y136100D01*
X17107Y135863D01*
X17327Y135716D01*
X17585Y135664D01*
Y136940D01*
X17835D01*
Y137190D01*
X19110D01*
X19059Y137447D01*
X18772Y137877D01*
X18679Y137940D01*
Y138541D01*
X18772Y138603D01*
X19059Y139033D01*
X19110Y139290D01*
X17835D01*
Y139790D01*
X19110D01*
X19059Y140047D01*
X18772Y140477D01*
Y140803D01*
X19059Y141233D01*
X19110Y141490D01*
X17835D01*
Y141990D01*
X19110D01*
X19059Y142247D01*
X18772Y142677D01*
Y143003D01*
X19059Y143433D01*
X19110Y143690D01*
X17835D01*
Y144190D01*
X19110D01*
X19059Y144447D01*
X18772Y144877D01*
X18679Y144939D01*
Y145541D01*
X18772Y145603D01*
X19059Y146033D01*
X19110Y146290D01*
X17835D01*
Y146790D01*
X19110D01*
X19059Y147047D01*
X18772Y147477D01*
Y147803D01*
X19059Y148233D01*
X19110Y148490D01*
X17835D01*
Y148990D01*
X19110D01*
X19059Y149247D01*
X18772Y149677D01*
X18679Y149740D01*
Y150341D01*
X18772Y150403D01*
X19059Y150833D01*
X19110Y151090D01*
X17835D01*
Y151590D01*
X19110D01*
X19059Y151847D01*
X18772Y152277D01*
X18679Y152339D01*
Y152941D01*
X18772Y153003D01*
X19059Y153433D01*
X19110Y153690D01*
X17835D01*
Y153940D01*
X17585D01*
Y155216D01*
X17327Y155165D01*
X17206Y155083D01*
X16752Y155325D01*
X16705Y155785D01*
X16705Y155785D01*
X16705Y155785D01*
X16670Y156285D01*
X16710Y156490D01*
X15435D01*
Y156740D01*
X15185D01*
Y158016D01*
D02*
G37*
G36*
X15685D02*
Y156990D01*
X16710D01*
X16659Y157247D01*
X16372Y157677D01*
X15942Y157965D01*
X15685Y158016D01*
D02*
G37*
G36*
X10385D02*
X10127Y157965D01*
X9697Y157677D01*
X9410Y157247D01*
X9359Y156990D01*
X10385D01*
Y158016D01*
D02*
G37*
G36*
X7942Y157559D02*
X6916D01*
Y156533D01*
X7173Y156584D01*
X7603Y156872D01*
X7891Y157302D01*
X7942Y157559D01*
D02*
G37*
G36*
X6416D02*
X5390D01*
X5441Y157302D01*
X5729Y156872D01*
X6159Y156584D01*
X6416Y156533D01*
Y157559D01*
D02*
G37*
G36*
X3585Y156216D02*
X3327Y156165D01*
X2897Y155877D01*
X2610Y155447D01*
X2559Y155190D01*
X3585D01*
Y156216D01*
D02*
G37*
G36*
X18085Y155216D02*
Y154190D01*
X19110D01*
X19059Y154447D01*
X18772Y154877D01*
X18342Y155165D01*
X18085Y155216D01*
D02*
G37*
G36*
X3585Y138890D02*
X2559D01*
X2610Y138633D01*
X2897Y138203D01*
X3327Y137916D01*
X3585Y137864D01*
Y138890D01*
D02*
G37*
G36*
X19110Y136690D02*
X18085D01*
Y135664D01*
X18342Y135716D01*
X18772Y136003D01*
X19059Y136433D01*
X19110Y136690D01*
D02*
G37*
G36*
X5385Y135416D02*
Y134390D01*
X6410D01*
X6359Y134647D01*
X6072Y135077D01*
X5642Y135365D01*
X5385Y135416D01*
D02*
G37*
G36*
X4885D02*
X4627Y135365D01*
X4197Y135077D01*
X3910Y134647D01*
X3859Y134390D01*
X4885D01*
Y135416D01*
D02*
G37*
G36*
X6410Y133890D02*
X5385D01*
Y132864D01*
X5642Y132916D01*
X6072Y133203D01*
X6359Y133633D01*
X6410Y133890D01*
D02*
G37*
G36*
X4885D02*
X3859D01*
X3910Y133633D01*
X4197Y133203D01*
X4627Y132916D01*
X4885Y132864D01*
Y133890D01*
D02*
G37*
G36*
X2550Y132776D02*
Y131750D01*
X3576D01*
X3525Y132007D01*
X3237Y132437D01*
X2807Y132725D01*
X2550Y132776D01*
D02*
G37*
G36*
X18250Y128476D02*
Y127450D01*
X19276D01*
X19225Y127707D01*
X18937Y128137D01*
X18507Y128425D01*
X18250Y128476D01*
D02*
G37*
G36*
X17750D02*
X17493Y128425D01*
X17063Y128137D01*
X16775Y127707D01*
X16724Y127450D01*
X17750D01*
Y128476D01*
D02*
G37*
G36*
X10850D02*
Y127450D01*
X11876D01*
X11825Y127707D01*
X11537Y128137D01*
X11107Y128425D01*
X10850Y128476D01*
D02*
G37*
G36*
X10350D02*
X10093Y128425D01*
X9663Y128137D01*
X9375Y127707D01*
X9324Y127450D01*
X10350D01*
Y128476D01*
D02*
G37*
G36*
X19276Y126950D02*
X18250D01*
Y125924D01*
X18507Y125975D01*
X18937Y126263D01*
X19225Y126693D01*
X19276Y126950D01*
D02*
G37*
G36*
X17750D02*
X16724D01*
X16775Y126693D01*
X17063Y126263D01*
X17493Y125975D01*
X17750Y125924D01*
Y126950D01*
D02*
G37*
G36*
X11876D02*
X10850D01*
Y125924D01*
X11107Y125975D01*
X11537Y126263D01*
X11825Y126693D01*
X11876Y126950D01*
D02*
G37*
G36*
X10350D02*
X9324D01*
X9375Y126693D01*
X9663Y126263D01*
X10093Y125975D01*
X10350Y125924D01*
Y126950D01*
D02*
G37*
G36*
X251861Y125165D02*
Y124139D01*
X252887D01*
X252836Y124396D01*
X252548Y124826D01*
X252118Y125113D01*
X251861Y125165D01*
D02*
G37*
G36*
X252887Y123639D02*
X251861D01*
Y122613D01*
X252118Y122664D01*
X252548Y122952D01*
X252836Y123382D01*
X252887Y123639D01*
D02*
G37*
G36*
X248000Y126933D02*
X244200D01*
X244107Y126894D01*
X244006Y126887D01*
X243960Y126833D01*
X243894Y126806D01*
X243855Y126713D01*
X243789Y126637D01*
X243689Y126337D01*
X243694Y126266D01*
X243667Y126200D01*
Y94479D01*
X242794Y93606D01*
X227821Y78633D01*
X191200D01*
X190894Y78506D01*
X190767Y78200D01*
Y64379D01*
X171594Y45206D01*
X171467Y44900D01*
X171567Y44659D01*
Y41100D01*
X171694Y40794D01*
X172000Y40667D01*
X201000Y40667D01*
X201306Y40794D01*
X250706Y90194D01*
X250833Y90500D01*
Y122000D01*
Y122290D01*
X251333Y122619D01*
X251361Y122613D01*
Y123889D01*
Y125165D01*
X251104Y125113D01*
X250674Y124826D01*
X250321Y124791D01*
X248306Y126806D01*
X248000Y126933D01*
D02*
G37*
G36*
X262678Y127001D02*
X261694D01*
X260947Y126903D01*
X260251Y126614D01*
X259653Y126156D01*
X259195Y125558D01*
X258907Y124863D01*
X258808Y124116D01*
X258907Y123369D01*
X259195Y122673D01*
X259653Y122075D01*
X260251Y121617D01*
X260947Y121329D01*
X261694Y121230D01*
X262678D01*
X263425Y121329D01*
X264121Y121617D01*
X264718Y122075D01*
X265177Y122673D01*
X265465Y123369D01*
X265563Y124116D01*
X265465Y124863D01*
X265177Y125558D01*
X264718Y126156D01*
X264121Y126614D01*
X263425Y126903D01*
X262678Y127001D01*
D02*
G37*
G36*
X258041Y120667D02*
Y119641D01*
X259067D01*
X259016Y119899D01*
X258729Y120329D01*
X258299Y120616D01*
X258041Y120667D01*
D02*
G37*
G36*
X257541D02*
X257284Y120616D01*
X256854Y120329D01*
X256567Y119899D01*
X256516Y119641D01*
X257541D01*
Y120667D01*
D02*
G37*
G36*
X259067Y119141D02*
X258041D01*
Y118116D01*
X258299Y118167D01*
X258729Y118454D01*
X259016Y118884D01*
X259067Y119141D01*
D02*
G37*
G36*
X257541D02*
X256516D01*
X256567Y118884D01*
X256854Y118454D01*
X257284Y118167D01*
X257541Y118116D01*
Y119141D01*
D02*
G37*
G36*
X262875Y107316D02*
X261891D01*
X261144Y107218D01*
X260448Y106930D01*
X259850Y106471D01*
X259392Y105873D01*
X259104Y105177D01*
X259005Y104431D01*
X259104Y103684D01*
X259392Y102988D01*
X259850Y102391D01*
X260448Y101932D01*
X261144Y101644D01*
X261891Y101545D01*
X262875D01*
X263622Y101644D01*
X264317Y101932D01*
X264915Y102391D01*
X265374Y102988D01*
X265662Y103684D01*
X265760Y104431D01*
X265662Y105177D01*
X265374Y105873D01*
X264915Y106471D01*
X264317Y106930D01*
X263622Y107218D01*
X262875Y107316D01*
D02*
G37*
G36*
X188300Y189623D02*
X187832Y189530D01*
X187435Y189265D01*
X187170Y188868D01*
X187076Y188400D01*
X187170Y187932D01*
X187236Y187833D01*
X186968Y187333D01*
X43200D01*
X42894Y187206D01*
X42767Y186900D01*
Y82400D01*
X42820Y82271D01*
X42857Y82136D01*
X43164Y81736D01*
X43189Y81721D01*
X43201Y81694D01*
X43330Y81640D01*
X43451Y81571D01*
X43479Y81578D01*
X43507Y81567D01*
X51998D01*
Y16650D01*
X52052Y16377D01*
X52207Y16145D01*
X52473Y15879D01*
X52502Y15860D01*
X52523Y15834D01*
X55878Y13059D01*
X56123Y12926D01*
X56392Y12899D01*
X56435Y12835D01*
X56832Y12570D01*
X57300Y12477D01*
X57768Y12570D01*
X58165Y12835D01*
X58430Y13232D01*
X58523Y13700D01*
X58430Y14168D01*
X58165Y14565D01*
X57768Y14830D01*
X57300Y14923D01*
X56832Y14830D01*
X56435Y14565D01*
X56317Y14548D01*
X53459Y16912D01*
X53426Y16946D01*
Y33581D01*
X53926Y33765D01*
X57712Y29979D01*
X57677Y29800D01*
X57770Y29332D01*
X58035Y28935D01*
X58432Y28670D01*
X58900Y28576D01*
X59368Y28670D01*
X59765Y28935D01*
X60030Y29332D01*
X60123Y29800D01*
X60030Y30268D01*
X59765Y30665D01*
X59368Y30930D01*
X58900Y31023D01*
X58721Y30988D01*
X55014Y34696D01*
Y81567D01*
X55586D01*
Y78900D01*
X55641Y78627D01*
X55795Y78395D01*
X67286Y66904D01*
Y15000D01*
X67341Y14727D01*
X67495Y14495D01*
X67912Y14079D01*
X67876Y13900D01*
X67970Y13432D01*
X68235Y13035D01*
X68632Y12770D01*
X69100Y12676D01*
X69568Y12770D01*
X69965Y13035D01*
X70230Y13432D01*
X70323Y13900D01*
X70230Y14368D01*
X69965Y14765D01*
X69568Y15030D01*
X69100Y15123D01*
X68714Y15505D01*
Y67200D01*
X68659Y67473D01*
X68505Y67705D01*
X57014Y79196D01*
Y82905D01*
X57514Y83017D01*
X57595Y82895D01*
X72912Y67579D01*
X72877Y67400D01*
X72970Y66932D01*
X73235Y66535D01*
X73632Y66270D01*
X74100Y66176D01*
X74568Y66270D01*
X74965Y66535D01*
X75230Y66932D01*
X75323Y67400D01*
X75230Y67868D01*
X74965Y68265D01*
X74568Y68530D01*
X74100Y68624D01*
X73921Y68588D01*
X58814Y83696D01*
Y84705D01*
X59314Y84817D01*
X59395Y84695D01*
X78186Y65904D01*
Y14766D01*
X78035Y14665D01*
X77770Y14268D01*
X77676Y13800D01*
X77770Y13332D01*
X78035Y12935D01*
X78432Y12670D01*
X78900Y12576D01*
X79368Y12670D01*
X79765Y12935D01*
X80030Y13332D01*
X80124Y13800D01*
X80030Y14268D01*
X79765Y14665D01*
X79614Y14766D01*
Y66200D01*
X79559Y66473D01*
X79405Y66705D01*
X65004Y81105D01*
X65196Y81567D01*
X188077D01*
X188338Y81250D01*
X191262D01*
X191523Y81567D01*
X225500D01*
X225806Y81694D01*
X225933Y82000D01*
Y86921D01*
X240106Y101094D01*
X241006Y101994D01*
X241133Y102300D01*
Y123000D01*
Y187047D01*
X241100Y187126D01*
Y187212D01*
X241039Y187273D01*
X241006Y187353D01*
X240927Y187386D01*
X240866Y187447D01*
X240404Y187638D01*
X240318D01*
X240238Y187671D01*
X240159Y187638D01*
X240072D01*
X240012Y187577D01*
X239932Y187544D01*
X239721Y187333D01*
X189632D01*
X189364Y187833D01*
X189430Y187932D01*
X189523Y188400D01*
X189430Y188868D01*
X189165Y189265D01*
X188768Y189530D01*
X188300Y189623D01*
D02*
G37*
G36*
X191076Y80750D02*
X190050D01*
Y79724D01*
X190307Y79776D01*
X190737Y80063D01*
X191025Y80493D01*
X191076Y80750D01*
D02*
G37*
G36*
X189550D02*
X188524D01*
X188575Y80493D01*
X188863Y80063D01*
X189293Y79776D01*
X189550Y79724D01*
Y80750D01*
D02*
G37*
G36*
X177438Y75987D02*
Y74962D01*
X178464D01*
X178413Y75219D01*
X178126Y75649D01*
X177696Y75936D01*
X177438Y75987D01*
D02*
G37*
G36*
X176938D02*
X176681Y75936D01*
X176251Y75649D01*
X175964Y75219D01*
X175912Y74962D01*
X176938D01*
Y75987D01*
D02*
G37*
G36*
X178464Y74462D02*
X177438D01*
Y73436D01*
X177696Y73487D01*
X178126Y73774D01*
X178413Y74204D01*
X178464Y74462D01*
D02*
G37*
G36*
X176938D02*
X175912D01*
X175964Y74204D01*
X176251Y73774D01*
X176681Y73487D01*
X176938Y73436D01*
Y74462D01*
D02*
G37*
G36*
X188350Y70776D02*
Y69750D01*
X189376D01*
X189325Y70007D01*
X189037Y70437D01*
X188607Y70724D01*
X188350Y70776D01*
D02*
G37*
G36*
X187850D02*
X187593Y70724D01*
X187163Y70437D01*
X186875Y70007D01*
X186824Y69750D01*
X187850D01*
Y70776D01*
D02*
G37*
G36*
X189376Y69250D02*
X188350D01*
Y68224D01*
X188607Y68275D01*
X189037Y68563D01*
X189325Y68993D01*
X189376Y69250D01*
D02*
G37*
G36*
X187850D02*
X186824D01*
X186875Y68993D01*
X187163Y68563D01*
X187593Y68275D01*
X187850Y68224D01*
Y69250D01*
D02*
G37*
G36*
X106900Y57922D02*
X106471Y57836D01*
X106107Y57593D01*
X105864Y57229D01*
X105778Y56800D01*
X105864Y56371D01*
X106107Y56007D01*
X106471Y55764D01*
X106900Y55678D01*
X107329Y55764D01*
X107693Y56007D01*
X107936Y56371D01*
X108022Y56800D01*
X107936Y57229D01*
X107693Y57593D01*
X107329Y57836D01*
X106900Y57922D01*
D02*
G37*
G36*
X276450Y49876D02*
X276193Y49825D01*
X275763Y49537D01*
X275475Y49107D01*
X275424Y48850D01*
X276450D01*
Y49876D01*
D02*
G37*
G36*
X218976Y29950D02*
Y28924D01*
X220002D01*
X219951Y29181D01*
X219663Y29611D01*
X219233Y29899D01*
X218976Y29950D01*
D02*
G37*
G36*
X218476D02*
X218219Y29899D01*
X217789Y29611D01*
X217501Y29181D01*
X217450Y28924D01*
X218476D01*
Y29950D01*
D02*
G37*
G36*
X208024D02*
Y28924D01*
X209050D01*
X208999Y29181D01*
X208711Y29611D01*
X208281Y29899D01*
X208024Y29950D01*
D02*
G37*
G36*
X207524D02*
X207267Y29899D01*
X206837Y29611D01*
X206549Y29181D01*
X206498Y28924D01*
X207524D01*
Y29950D01*
D02*
G37*
G36*
X220002Y28424D02*
X218976D01*
Y27398D01*
X219233Y27449D01*
X219663Y27737D01*
X219951Y28167D01*
X220002Y28424D01*
D02*
G37*
G36*
X218476D02*
X217450D01*
X217501Y28167D01*
X217789Y27737D01*
X218219Y27449D01*
X218476Y27398D01*
Y28424D01*
D02*
G37*
G36*
X209050D02*
X208024D01*
Y27398D01*
X208281Y27449D01*
X208711Y27737D01*
X208999Y28167D01*
X209050Y28424D01*
D02*
G37*
G36*
X207524D02*
X206498D01*
X206549Y28167D01*
X206837Y27737D01*
X207267Y27449D01*
X207524Y27398D01*
Y28424D01*
D02*
G37*
G36*
X178350Y15176D02*
Y14150D01*
X179376D01*
X179325Y14407D01*
X179037Y14837D01*
X178607Y15125D01*
X178350Y15176D01*
D02*
G37*
G36*
X177850D02*
X177593Y15125D01*
X177163Y14837D01*
X176875Y14407D01*
X176824Y14150D01*
X177850D01*
Y15176D01*
D02*
G37*
G36*
X179376Y13650D02*
X178350D01*
Y12624D01*
X178607Y12675D01*
X179037Y12963D01*
X179325Y13393D01*
X179376Y13650D01*
D02*
G37*
G36*
X177850D02*
X176824D01*
X176875Y13393D01*
X177163Y12963D01*
X177593Y12675D01*
X177850Y12624D01*
Y13650D01*
D02*
G37*
G36*
X111050Y11076D02*
Y10050D01*
X112076D01*
X112025Y10307D01*
X111737Y10737D01*
X111307Y11025D01*
X111050Y11076D01*
D02*
G37*
G36*
X110550D02*
X110293Y11025D01*
X109863Y10737D01*
X109575Y10307D01*
X109524Y10050D01*
X110550D01*
Y11076D01*
D02*
G37*
G36*
X112076Y9550D02*
X111050D01*
Y8524D01*
X111307Y8575D01*
X111737Y8863D01*
X112025Y9293D01*
X112076Y9550D01*
D02*
G37*
G36*
X110550D02*
X109524D01*
X109575Y9293D01*
X109863Y8863D01*
X110293Y8575D01*
X110550Y8524D01*
Y9550D01*
D02*
G37*
G36*
X276550Y7050D02*
X275524D01*
X275575Y6793D01*
X275863Y6363D01*
X276293Y6075D01*
X276550Y6024D01*
Y7050D01*
D02*
G37*
G36*
X274750Y4576D02*
X274493Y4525D01*
X274254Y4365D01*
X273900Y4277D01*
X273547Y4365D01*
X273307Y4525D01*
X273050Y4576D01*
Y3300D01*
Y2024D01*
X273307Y2075D01*
X273547Y2235D01*
X273900Y2323D01*
X274254Y2235D01*
X274493Y2075D01*
X274750Y2024D01*
Y3300D01*
Y4576D01*
D02*
G37*
G36*
X272550D02*
X272293Y4525D01*
X272054Y4365D01*
X271700Y4277D01*
X271346Y4365D01*
X271107Y4525D01*
X270850Y4576D01*
Y3300D01*
Y2024D01*
X271107Y2075D01*
X271346Y2235D01*
X271700Y2323D01*
X272054Y2235D01*
X272293Y2075D01*
X272550Y2024D01*
Y3300D01*
Y4576D01*
D02*
G37*
G36*
X268150D02*
X267893Y4525D01*
X267653Y4365D01*
X267300Y4277D01*
X266947Y4365D01*
X266707Y4525D01*
X266450Y4576D01*
Y3300D01*
Y2024D01*
X266707Y2075D01*
X266947Y2235D01*
X267300Y2323D01*
X267653Y2235D01*
X267893Y2075D01*
X268150Y2024D01*
Y3300D01*
Y4576D01*
D02*
G37*
G36*
X270350D02*
X270093Y4525D01*
X269663Y4237D01*
X269337D01*
X268907Y4525D01*
X268650Y4576D01*
Y3300D01*
Y2024D01*
X268907Y2075D01*
X269146Y2235D01*
X269500Y2323D01*
X269853Y2235D01*
X270093Y2075D01*
X270350Y2024D01*
Y3300D01*
Y4576D01*
D02*
G37*
G36*
X265950D02*
X265693Y4525D01*
X265263Y4237D01*
X264937D01*
X264507Y4525D01*
X264250Y4576D01*
Y3300D01*
Y2024D01*
X264507Y2075D01*
X264746Y2235D01*
X265100Y2323D01*
X265454Y2235D01*
X265693Y2075D01*
X265950Y2024D01*
Y3300D01*
Y4576D01*
D02*
G37*
G36*
X263750D02*
X263493Y4525D01*
X263063Y4237D01*
X262737D01*
X262307Y4525D01*
X262050Y4576D01*
Y3300D01*
Y2024D01*
X262307Y2075D01*
X262546Y2235D01*
X262900Y2323D01*
X263253Y2235D01*
X263493Y2075D01*
X263750Y2024D01*
Y3300D01*
Y4576D01*
D02*
G37*
G36*
X256350Y4476D02*
X256093Y4425D01*
X255854Y4265D01*
X255500Y4177D01*
X255147Y4265D01*
X254907Y4425D01*
X254650Y4476D01*
Y3200D01*
Y1924D01*
X254907Y1975D01*
X255147Y2135D01*
X255500Y2223D01*
X255854Y2135D01*
X256093Y1975D01*
X256350Y1924D01*
Y3200D01*
Y4476D01*
D02*
G37*
G36*
X254150D02*
X253893Y4425D01*
X253654Y4265D01*
X253300Y4177D01*
X252946Y4265D01*
X252707Y4425D01*
X252450Y4476D01*
Y3200D01*
Y1924D01*
X252707Y1975D01*
X252946Y2135D01*
X253300Y2223D01*
X253654Y2135D01*
X253893Y1975D01*
X254150Y1924D01*
Y3200D01*
Y4476D01*
D02*
G37*
G36*
X251950D02*
X251693Y4425D01*
X251453Y4265D01*
X251100Y4177D01*
X250746Y4265D01*
X250507Y4425D01*
X250250Y4476D01*
Y3200D01*
Y1924D01*
X250507Y1975D01*
X250746Y2135D01*
X251100Y2223D01*
X251453Y2135D01*
X251693Y1975D01*
X251950Y1924D01*
Y3200D01*
Y4476D01*
D02*
G37*
G36*
X249750D02*
X249493Y4425D01*
X249254Y4265D01*
X248900Y4177D01*
X248547Y4265D01*
X248307Y4425D01*
X248050Y4476D01*
Y3200D01*
Y1924D01*
X248307Y1975D01*
X248547Y2135D01*
X248900Y2223D01*
X249254Y2135D01*
X249493Y1975D01*
X249750Y1924D01*
Y3200D01*
Y4476D01*
D02*
G37*
G36*
X247550D02*
X247293Y4425D01*
X247054Y4265D01*
X246700Y4177D01*
X246346Y4265D01*
X246107Y4425D01*
X245850Y4476D01*
Y3200D01*
Y1924D01*
X246107Y1975D01*
X246346Y2135D01*
X246700Y2223D01*
X247054Y2135D01*
X247293Y1975D01*
X247550Y1924D01*
Y3200D01*
Y4476D01*
D02*
G37*
G36*
X245350D02*
X245093Y4425D01*
X244853Y4265D01*
X244500Y4177D01*
X244146Y4265D01*
X243907Y4425D01*
X243650Y4476D01*
Y3200D01*
Y1924D01*
X243907Y1975D01*
X244146Y2135D01*
X244500Y2223D01*
X244853Y2135D01*
X245093Y1975D01*
X245350Y1924D01*
Y3200D01*
Y4476D01*
D02*
G37*
G36*
X237850D02*
X237593Y4425D01*
X237353Y4265D01*
X237000Y4177D01*
X236647Y4265D01*
X236407Y4425D01*
X236150Y4476D01*
Y3200D01*
Y1924D01*
X236407Y1975D01*
X236647Y2135D01*
X237000Y2223D01*
X237353Y2135D01*
X237593Y1975D01*
X237850Y1924D01*
Y3200D01*
Y4476D01*
D02*
G37*
G36*
X235650D02*
X235393Y4425D01*
X235154Y4265D01*
X234800Y4177D01*
X234447Y4265D01*
X234207Y4425D01*
X233950Y4476D01*
Y3200D01*
Y1924D01*
X234207Y1975D01*
X234447Y2135D01*
X234800Y2223D01*
X235154Y2135D01*
X235393Y1975D01*
X235650Y1924D01*
Y3200D01*
Y4476D01*
D02*
G37*
G36*
X233450D02*
X233193Y4425D01*
X232954Y4265D01*
X232600Y4177D01*
X232246Y4265D01*
X232007Y4425D01*
X231750Y4476D01*
Y3200D01*
Y1924D01*
X232007Y1975D01*
X232246Y2135D01*
X232600Y2223D01*
X232954Y2135D01*
X233193Y1975D01*
X233450Y1924D01*
Y3200D01*
Y4476D01*
D02*
G37*
G36*
X231250D02*
X230993Y4425D01*
X230753Y4265D01*
X230400Y4177D01*
X230047Y4265D01*
X229807Y4425D01*
X229550Y4476D01*
Y3200D01*
Y1924D01*
X229807Y1975D01*
X230047Y2135D01*
X230400Y2223D01*
X230753Y2135D01*
X230993Y1975D01*
X231250Y1924D01*
Y3200D01*
Y4476D01*
D02*
G37*
G36*
X229050D02*
X228793Y4425D01*
X228554Y4265D01*
X228200Y4177D01*
X227847Y4265D01*
X227607Y4425D01*
X227350Y4476D01*
Y3200D01*
Y1924D01*
X227607Y1975D01*
X227847Y2135D01*
X228200Y2223D01*
X228554Y2135D01*
X228793Y1975D01*
X229050Y1924D01*
Y3200D01*
Y4476D01*
D02*
G37*
G36*
X226850D02*
X226593Y4425D01*
X226354Y4265D01*
X226000Y4177D01*
X225646Y4265D01*
X225407Y4425D01*
X225150Y4476D01*
Y3200D01*
Y1924D01*
X225407Y1975D01*
X225646Y2135D01*
X226000Y2223D01*
X226354Y2135D01*
X226593Y1975D01*
X226850Y1924D01*
Y3200D01*
Y4476D01*
D02*
G37*
G36*
X261550Y4576D02*
X261293Y4525D01*
X260863Y4237D01*
X260767Y4094D01*
X260166D01*
X260137Y4137D01*
X259707Y4425D01*
X259450Y4476D01*
Y3200D01*
Y1924D01*
X259707Y1975D01*
X260137Y2263D01*
X260233Y2406D01*
X260834D01*
X260863Y2363D01*
X261293Y2075D01*
X261550Y2024D01*
Y3300D01*
Y4576D01*
D02*
G37*
G36*
X219450Y4376D02*
X219193Y4325D01*
X218953Y4165D01*
X218600Y4077D01*
X218247Y4165D01*
X218007Y4325D01*
X217750Y4376D01*
Y3100D01*
Y1824D01*
X218007Y1875D01*
X218247Y2035D01*
X218600Y2123D01*
X218953Y2035D01*
X219193Y1875D01*
X219450Y1824D01*
Y3100D01*
Y4376D01*
D02*
G37*
G36*
X217250D02*
X216993Y4325D01*
X216754Y4165D01*
X216400Y4077D01*
X216047Y4165D01*
X215807Y4325D01*
X215550Y4376D01*
Y3100D01*
Y1824D01*
X215807Y1875D01*
X216047Y2035D01*
X216400Y2123D01*
X216754Y2035D01*
X216993Y1875D01*
X217250Y1824D01*
Y3100D01*
Y4376D01*
D02*
G37*
G36*
X212850D02*
X212593Y4325D01*
X212353Y4165D01*
X212000Y4077D01*
X211647Y4165D01*
X211407Y4325D01*
X211150Y4376D01*
Y3100D01*
Y1824D01*
X211407Y1875D01*
X211647Y2035D01*
X212000Y2123D01*
X212353Y2035D01*
X212593Y1875D01*
X212850Y1824D01*
Y3100D01*
Y4376D01*
D02*
G37*
G36*
X181750D02*
X181493Y4325D01*
X181254Y4165D01*
X180900Y4077D01*
X180546Y4165D01*
X180307Y4325D01*
X180050Y4376D01*
Y3100D01*
Y1824D01*
X180307Y1875D01*
X180546Y2035D01*
X180900Y2123D01*
X181254Y2035D01*
X181493Y1875D01*
X181750Y1824D01*
Y3100D01*
Y4376D01*
D02*
G37*
G36*
X179550D02*
X179293Y4325D01*
X179053Y4165D01*
X178700Y4077D01*
X178347Y4165D01*
X178107Y4325D01*
X177850Y4376D01*
Y3100D01*
Y1824D01*
X178107Y1875D01*
X178347Y2035D01*
X178700Y2123D01*
X179053Y2035D01*
X179293Y1875D01*
X179550Y1824D01*
Y3100D01*
Y4376D01*
D02*
G37*
G36*
X177350D02*
X177093Y4325D01*
X176854Y4165D01*
X176500Y4077D01*
X176146Y4165D01*
X175907Y4325D01*
X175650Y4376D01*
Y3100D01*
Y1824D01*
X175907Y1875D01*
X176146Y2035D01*
X176500Y2123D01*
X176854Y2035D01*
X177093Y1875D01*
X177350Y1824D01*
Y3100D01*
Y4376D01*
D02*
G37*
G36*
X175150D02*
X174893Y4325D01*
X174653Y4165D01*
X174300Y4077D01*
X173946Y4165D01*
X173707Y4325D01*
X173450Y4376D01*
Y3100D01*
Y1824D01*
X173707Y1875D01*
X173946Y2035D01*
X174300Y2123D01*
X174653Y2035D01*
X174893Y1875D01*
X175150Y1824D01*
Y3100D01*
Y4376D01*
D02*
G37*
G36*
X172950D02*
X172693Y4325D01*
X172453Y4165D01*
X172100Y4077D01*
X171747Y4165D01*
X171507Y4325D01*
X171250Y4376D01*
Y3100D01*
Y1824D01*
X171507Y1875D01*
X171747Y2035D01*
X172100Y2123D01*
X172453Y2035D01*
X172693Y1875D01*
X172950Y1824D01*
Y3100D01*
Y4376D01*
D02*
G37*
G36*
X170750D02*
X170493Y4325D01*
X170254Y4165D01*
X169900Y4077D01*
X169546Y4165D01*
X169307Y4325D01*
X169050Y4376D01*
Y3100D01*
Y1824D01*
X169307Y1875D01*
X169546Y2035D01*
X169900Y2123D01*
X170254Y2035D01*
X170493Y1875D01*
X170750Y1824D01*
Y3100D01*
Y4376D01*
D02*
G37*
G36*
X258950Y4476D02*
X258693Y4425D01*
X258263Y4137D01*
X258201Y4044D01*
X257599D01*
X257537Y4137D01*
X257107Y4425D01*
X256850Y4476D01*
Y3200D01*
Y1924D01*
X257107Y1975D01*
X257537Y2263D01*
X257599Y2356D01*
X258201D01*
X258263Y2263D01*
X258693Y1975D01*
X258950Y1924D01*
Y3200D01*
Y4476D01*
D02*
G37*
G36*
X240450D02*
X240193Y4425D01*
X239763Y4137D01*
X239701Y4044D01*
X239099D01*
X239037Y4137D01*
X238607Y4425D01*
X238350Y4476D01*
Y3200D01*
Y1924D01*
X238607Y1975D01*
X239037Y2263D01*
X239099Y2356D01*
X239701D01*
X239763Y2263D01*
X240193Y1975D01*
X240450Y1924D01*
Y3200D01*
Y4476D01*
D02*
G37*
G36*
X215050Y4376D02*
X214793Y4325D01*
X214363Y4037D01*
X214037D01*
X213607Y4325D01*
X213350Y4376D01*
Y3100D01*
Y1824D01*
X213607Y1875D01*
X213846Y2035D01*
X214200Y2123D01*
X214553Y2035D01*
X214793Y1875D01*
X215050Y1824D01*
Y3100D01*
Y4376D01*
D02*
G37*
G36*
X210650D02*
X210393Y4325D01*
X209963Y4037D01*
X209637D01*
X209207Y4325D01*
X208950Y4376D01*
Y3100D01*
Y1824D01*
X209207Y1875D01*
X209447Y2035D01*
X209800Y2123D01*
X210154Y2035D01*
X210393Y1875D01*
X210650Y1824D01*
Y3100D01*
Y4376D01*
D02*
G37*
G36*
X208450D02*
X208193Y4325D01*
X207763Y4037D01*
X207437D01*
X207007Y4325D01*
X206750Y4376D01*
Y3100D01*
Y1824D01*
X207007Y1875D01*
X207246Y2035D01*
X207600Y2123D01*
X207954Y2035D01*
X208193Y1875D01*
X208450Y1824D01*
Y3100D01*
Y4376D01*
D02*
G37*
G36*
X224650Y4476D02*
X224393Y4425D01*
X223963Y4137D01*
X223867Y3994D01*
X223266D01*
X223237Y4037D01*
X222807Y4325D01*
X222550Y4376D01*
Y3100D01*
Y1824D01*
X222807Y1875D01*
X223237Y2163D01*
X223333Y2306D01*
X223934D01*
X223963Y2263D01*
X224393Y1975D01*
X224650Y1924D01*
Y3200D01*
Y4476D01*
D02*
G37*
G36*
X200950Y4276D02*
X200693Y4225D01*
X200453Y4065D01*
X200100Y3977D01*
X199747Y4065D01*
X199507Y4225D01*
X199250Y4276D01*
Y3000D01*
Y1724D01*
X199507Y1775D01*
X199747Y1935D01*
X200100Y2023D01*
X200453Y1935D01*
X200693Y1775D01*
X200950Y1724D01*
Y3000D01*
Y4276D01*
D02*
G37*
G36*
X198750D02*
X198493Y4225D01*
X198254Y4065D01*
X197900Y3977D01*
X197547Y4065D01*
X197307Y4225D01*
X197050Y4276D01*
Y3000D01*
Y1724D01*
X197307Y1775D01*
X197547Y1935D01*
X197900Y2023D01*
X198254Y1935D01*
X198493Y1775D01*
X198750Y1724D01*
Y3000D01*
Y4276D01*
D02*
G37*
G36*
X196550D02*
X196293Y4225D01*
X196054Y4065D01*
X195700Y3977D01*
X195346Y4065D01*
X195107Y4225D01*
X194850Y4276D01*
Y3000D01*
Y1724D01*
X195107Y1775D01*
X195346Y1935D01*
X195700Y2023D01*
X196054Y1935D01*
X196293Y1775D01*
X196550Y1724D01*
Y3000D01*
Y4276D01*
D02*
G37*
G36*
X194350D02*
X194093Y4225D01*
X193853Y4065D01*
X193500Y3977D01*
X193147Y4065D01*
X192907Y4225D01*
X192650Y4276D01*
Y3000D01*
Y1724D01*
X192907Y1775D01*
X193147Y1935D01*
X193500Y2023D01*
X193853Y1935D01*
X194093Y1775D01*
X194350Y1724D01*
Y3000D01*
Y4276D01*
D02*
G37*
G36*
X192150D02*
X191893Y4225D01*
X191654Y4065D01*
X191300Y3977D01*
X190946Y4065D01*
X190707Y4225D01*
X190450Y4276D01*
Y3000D01*
Y1724D01*
X190707Y1775D01*
X190946Y1935D01*
X191300Y2023D01*
X191654Y1935D01*
X191893Y1775D01*
X192150Y1724D01*
Y3000D01*
Y4276D01*
D02*
G37*
G36*
X189950D02*
X189693Y4225D01*
X189453Y4065D01*
X189100Y3977D01*
X188747Y4065D01*
X188507Y4225D01*
X188250Y4276D01*
Y3000D01*
Y1724D01*
X188507Y1775D01*
X188747Y1935D01*
X189100Y2023D01*
X189453Y1935D01*
X189693Y1775D01*
X189950Y1724D01*
Y3000D01*
Y4276D01*
D02*
G37*
G36*
X163350D02*
X163093Y4225D01*
X162854Y4065D01*
X162500Y3977D01*
X162146Y4065D01*
X161907Y4225D01*
X161650Y4276D01*
Y3000D01*
Y1724D01*
X161907Y1775D01*
X162146Y1935D01*
X162500Y2023D01*
X162854Y1935D01*
X163093Y1775D01*
X163350Y1724D01*
Y3000D01*
Y4276D01*
D02*
G37*
G36*
X161150D02*
X160893Y4225D01*
X160653Y4065D01*
X160300Y3977D01*
X159947Y4065D01*
X159707Y4225D01*
X159450Y4276D01*
Y3000D01*
Y1724D01*
X159707Y1775D01*
X159947Y1935D01*
X160300Y2023D01*
X160653Y1935D01*
X160893Y1775D01*
X161150Y1724D01*
Y3000D01*
Y4276D01*
D02*
G37*
G36*
X158950D02*
X158693Y4225D01*
X158454Y4065D01*
X158100Y3977D01*
X157747Y4065D01*
X157507Y4225D01*
X157250Y4276D01*
Y3000D01*
Y1724D01*
X157507Y1775D01*
X157747Y1935D01*
X158100Y2023D01*
X158454Y1935D01*
X158693Y1775D01*
X158950Y1724D01*
Y3000D01*
Y4276D01*
D02*
G37*
G36*
X156750D02*
X156493Y4225D01*
X156254Y4065D01*
X155900Y3977D01*
X155546Y4065D01*
X155307Y4225D01*
X155050Y4276D01*
Y3000D01*
Y1724D01*
X155307Y1775D01*
X155546Y1935D01*
X155900Y2023D01*
X156254Y1935D01*
X156493Y1775D01*
X156750Y1724D01*
Y3000D01*
Y4276D01*
D02*
G37*
G36*
X154550D02*
X154293Y4225D01*
X154053Y4065D01*
X153700Y3977D01*
X153347Y4065D01*
X153107Y4225D01*
X152850Y4276D01*
Y3000D01*
Y1724D01*
X153107Y1775D01*
X153347Y1935D01*
X153700Y2023D01*
X154053Y1935D01*
X154293Y1775D01*
X154550Y1724D01*
Y3000D01*
Y4276D01*
D02*
G37*
G36*
X152350D02*
X152093Y4225D01*
X151854Y4065D01*
X151500Y3977D01*
X151146Y4065D01*
X150907Y4225D01*
X150650Y4276D01*
Y3000D01*
Y1724D01*
X150907Y1775D01*
X151146Y1935D01*
X151500Y2023D01*
X151854Y1935D01*
X152093Y1775D01*
X152350Y1724D01*
Y3000D01*
Y4276D01*
D02*
G37*
G36*
X144850D02*
X144593Y4225D01*
X144353Y4065D01*
X144000Y3977D01*
X143647Y4065D01*
X143407Y4225D01*
X143150Y4276D01*
Y3000D01*
Y1724D01*
X143407Y1775D01*
X143647Y1935D01*
X144000Y2023D01*
X144353Y1935D01*
X144593Y1775D01*
X144850Y1724D01*
Y3000D01*
Y4276D01*
D02*
G37*
G36*
X142650D02*
X142393Y4225D01*
X142154Y4065D01*
X141800Y3977D01*
X141446Y4065D01*
X141207Y4225D01*
X140950Y4276D01*
Y3000D01*
Y1724D01*
X141207Y1775D01*
X141446Y1935D01*
X141800Y2023D01*
X142154Y1935D01*
X142393Y1775D01*
X142650Y1724D01*
Y3000D01*
Y4276D01*
D02*
G37*
G36*
X140450D02*
X140193Y4225D01*
X139953Y4065D01*
X139600Y3977D01*
X139246Y4065D01*
X139007Y4225D01*
X138750Y4276D01*
Y3000D01*
Y1724D01*
X139007Y1775D01*
X139246Y1935D01*
X139600Y2023D01*
X139953Y1935D01*
X140193Y1775D01*
X140450Y1724D01*
Y3000D01*
Y4276D01*
D02*
G37*
G36*
X138250D02*
X137993Y4225D01*
X137753Y4065D01*
X137400Y3977D01*
X137047Y4065D01*
X136807Y4225D01*
X136550Y4276D01*
Y3000D01*
Y1724D01*
X136807Y1775D01*
X137047Y1935D01*
X137400Y2023D01*
X137753Y1935D01*
X137993Y1775D01*
X138250Y1724D01*
Y3000D01*
Y4276D01*
D02*
G37*
G36*
X136050D02*
X135793Y4225D01*
X135554Y4065D01*
X135200Y3977D01*
X134846Y4065D01*
X134607Y4225D01*
X134350Y4276D01*
Y3000D01*
Y1724D01*
X134607Y1775D01*
X134846Y1935D01*
X135200Y2023D01*
X135554Y1935D01*
X135793Y1775D01*
X136050Y1724D01*
Y3000D01*
Y4276D01*
D02*
G37*
G36*
X133850D02*
X133593Y4225D01*
X133353Y4065D01*
X133000Y3977D01*
X132647Y4065D01*
X132407Y4225D01*
X132150Y4276D01*
Y3000D01*
Y1724D01*
X132407Y1775D01*
X132647Y1935D01*
X133000Y2023D01*
X133353Y1935D01*
X133593Y1775D01*
X133850Y1724D01*
Y3000D01*
Y4276D01*
D02*
G37*
G36*
X243150Y4476D02*
X242893Y4425D01*
X242463Y4137D01*
X242345Y3961D01*
X241755D01*
X241637Y4137D01*
X241207Y4425D01*
X240950Y4476D01*
Y3200D01*
Y1924D01*
X241207Y1975D01*
X241637Y2263D01*
X241755Y2439D01*
X242345D01*
X242463Y2263D01*
X242893Y1975D01*
X243150Y1924D01*
Y3200D01*
Y4476D01*
D02*
G37*
G36*
X222050Y4376D02*
X221793Y4325D01*
X221363Y4037D01*
X221301Y3944D01*
X220699D01*
X220637Y4037D01*
X220207Y4325D01*
X219950Y4376D01*
Y3100D01*
Y1824D01*
X220207Y1875D01*
X220637Y2163D01*
X220699Y2256D01*
X221301D01*
X221363Y2163D01*
X221793Y1875D01*
X222050Y1824D01*
Y3100D01*
Y4376D01*
D02*
G37*
G36*
X184350D02*
X184093Y4325D01*
X183663Y4037D01*
X183601Y3944D01*
X182999D01*
X182937Y4037D01*
X182507Y4325D01*
X182250Y4376D01*
Y3100D01*
Y1824D01*
X182507Y1875D01*
X182937Y2163D01*
X182999Y2256D01*
X183601D01*
X183663Y2163D01*
X184093Y1875D01*
X184350Y1824D01*
Y3100D01*
Y4376D01*
D02*
G37*
G36*
X168550D02*
X168293Y4325D01*
X167863Y4037D01*
X167767Y3894D01*
X167166D01*
X167137Y3937D01*
X166707Y4225D01*
X166450Y4276D01*
Y3000D01*
Y1724D01*
X166707Y1775D01*
X167137Y2063D01*
X167233Y2206D01*
X167834D01*
X167863Y2163D01*
X168293Y1875D01*
X168550Y1824D01*
Y3100D01*
Y4376D01*
D02*
G37*
G36*
X126450Y4176D02*
X126193Y4125D01*
X125953Y3965D01*
X125600Y3877D01*
X125247Y3965D01*
X125007Y4125D01*
X124750Y4176D01*
Y2900D01*
Y1624D01*
X125007Y1675D01*
X125247Y1835D01*
X125600Y1923D01*
X125953Y1835D01*
X126193Y1675D01*
X126450Y1624D01*
Y2900D01*
Y4176D01*
D02*
G37*
G36*
X124250D02*
X123993Y4125D01*
X123753Y3965D01*
X123400Y3877D01*
X123047Y3965D01*
X122807Y4125D01*
X122550Y4176D01*
Y2900D01*
Y1624D01*
X122807Y1675D01*
X123047Y1835D01*
X123400Y1923D01*
X123753Y1835D01*
X123993Y1675D01*
X124250Y1624D01*
Y2900D01*
Y4176D01*
D02*
G37*
G36*
X119850D02*
X119593Y4125D01*
X119353Y3965D01*
X119000Y3877D01*
X118647Y3965D01*
X118407Y4125D01*
X118150Y4176D01*
Y2900D01*
Y1624D01*
X118407Y1675D01*
X118647Y1835D01*
X119000Y1923D01*
X119353Y1835D01*
X119593Y1675D01*
X119850Y1624D01*
Y2900D01*
Y4176D01*
D02*
G37*
G36*
X203550Y4276D02*
X203293Y4225D01*
X202863Y3937D01*
X202801Y3844D01*
X202199D01*
X202137Y3937D01*
X201707Y4225D01*
X201450Y4276D01*
Y3000D01*
Y1724D01*
X201707Y1775D01*
X202137Y2063D01*
X202199Y2156D01*
X202801D01*
X202863Y2063D01*
X203293Y1775D01*
X203550Y1724D01*
Y3000D01*
Y4276D01*
D02*
G37*
G36*
X165950D02*
X165693Y4225D01*
X165263Y3937D01*
X165201Y3844D01*
X164599D01*
X164537Y3937D01*
X164107Y4225D01*
X163850Y4276D01*
Y3000D01*
Y1724D01*
X164107Y1775D01*
X164537Y2063D01*
X164599Y2156D01*
X165201D01*
X165263Y2063D01*
X165693Y1775D01*
X165950Y1724D01*
Y3000D01*
Y4276D01*
D02*
G37*
G36*
X147450D02*
X147193Y4225D01*
X146763Y3937D01*
X146701Y3844D01*
X146099D01*
X146037Y3937D01*
X145607Y4225D01*
X145350Y4276D01*
Y3000D01*
Y1724D01*
X145607Y1775D01*
X146037Y2063D01*
X146099Y2156D01*
X146701D01*
X146763Y2063D01*
X147193Y1775D01*
X147450Y1724D01*
Y3000D01*
Y4276D01*
D02*
G37*
G36*
X122050Y4176D02*
X121793Y4125D01*
X121363Y3837D01*
X121037D01*
X120607Y4125D01*
X120350Y4176D01*
Y2900D01*
Y1624D01*
X120607Y1675D01*
X120846Y1835D01*
X121200Y1923D01*
X121554Y1835D01*
X121793Y1675D01*
X122050Y1624D01*
Y2900D01*
Y4176D01*
D02*
G37*
G36*
X117650D02*
X117393Y4125D01*
X116963Y3837D01*
X116637D01*
X116207Y4125D01*
X115950Y4176D01*
Y2900D01*
Y1624D01*
X116207Y1675D01*
X116446Y1835D01*
X116800Y1923D01*
X117154Y1835D01*
X117393Y1675D01*
X117650Y1624D01*
Y2900D01*
Y4176D01*
D02*
G37*
G36*
X115450D02*
X115193Y4125D01*
X114763Y3837D01*
X114437D01*
X114007Y4125D01*
X113750Y4176D01*
Y2900D01*
Y1624D01*
X114007Y1675D01*
X114246Y1835D01*
X114600Y1923D01*
X114953Y1835D01*
X115193Y1675D01*
X115450Y1624D01*
Y2900D01*
Y4176D01*
D02*
G37*
G36*
X131650Y4276D02*
X131393Y4225D01*
X130963Y3937D01*
X130867Y3794D01*
X130266D01*
X130237Y3837D01*
X129807Y4125D01*
X129550Y4176D01*
Y2900D01*
Y1624D01*
X129807Y1675D01*
X130237Y1963D01*
X130333Y2106D01*
X130934D01*
X130963Y2063D01*
X131393Y1775D01*
X131650Y1724D01*
Y3000D01*
Y4276D01*
D02*
G37*
G36*
X206250Y4376D02*
X205993Y4325D01*
X205563Y4037D01*
X205417Y3819D01*
X204841Y3784D01*
X204839Y3785D01*
X204737Y3937D01*
X204307Y4225D01*
X204050Y4276D01*
Y3000D01*
Y1724D01*
X204307Y1775D01*
X204737Y2063D01*
X204883Y2280D01*
X205458Y2316D01*
X205461Y2315D01*
X205563Y2163D01*
X205993Y1875D01*
X206250Y1824D01*
Y3100D01*
Y4376D01*
D02*
G37*
G36*
X107950Y4076D02*
X107693Y4025D01*
X107454Y3865D01*
X107100Y3777D01*
X106746Y3865D01*
X106507Y4025D01*
X106250Y4076D01*
Y2800D01*
Y1524D01*
X106507Y1575D01*
X106746Y1735D01*
X107100Y1823D01*
X107454Y1735D01*
X107693Y1575D01*
X107950Y1524D01*
Y2800D01*
Y4076D01*
D02*
G37*
G36*
X105750D02*
X105493Y4025D01*
X105254Y3865D01*
X104900Y3777D01*
X104546Y3865D01*
X104307Y4025D01*
X104050Y4076D01*
Y2800D01*
Y1524D01*
X104307Y1575D01*
X104546Y1735D01*
X104900Y1823D01*
X105254Y1735D01*
X105493Y1575D01*
X105750Y1524D01*
Y2800D01*
Y4076D01*
D02*
G37*
G36*
X103550D02*
X103293Y4025D01*
X103053Y3865D01*
X102700Y3777D01*
X102347Y3865D01*
X102107Y4025D01*
X101850Y4076D01*
Y2800D01*
Y1524D01*
X102107Y1575D01*
X102347Y1735D01*
X102700Y1823D01*
X103053Y1735D01*
X103293Y1575D01*
X103550Y1524D01*
Y2800D01*
Y4076D01*
D02*
G37*
G36*
X101350D02*
X101093Y4025D01*
X100854Y3865D01*
X100500Y3777D01*
X100146Y3865D01*
X99907Y4025D01*
X99650Y4076D01*
Y2800D01*
Y1524D01*
X99907Y1575D01*
X100146Y1735D01*
X100500Y1823D01*
X100854Y1735D01*
X101093Y1575D01*
X101350Y1524D01*
Y2800D01*
Y4076D01*
D02*
G37*
G36*
X99150D02*
X98893Y4025D01*
X98654Y3865D01*
X98300Y3777D01*
X97947Y3865D01*
X97707Y4025D01*
X97450Y4076D01*
Y2800D01*
Y1524D01*
X97707Y1575D01*
X97947Y1735D01*
X98300Y1823D01*
X98654Y1735D01*
X98893Y1575D01*
X99150Y1524D01*
Y2800D01*
Y4076D01*
D02*
G37*
G36*
X96950D02*
X96693Y4025D01*
X96453Y3865D01*
X96100Y3777D01*
X95746Y3865D01*
X95507Y4025D01*
X95250Y4076D01*
Y2800D01*
Y1524D01*
X95507Y1575D01*
X95746Y1735D01*
X96100Y1823D01*
X96453Y1735D01*
X96693Y1575D01*
X96950Y1524D01*
Y2800D01*
Y4076D01*
D02*
G37*
G36*
X89250D02*
X88993Y4025D01*
X88753Y3865D01*
X88400Y3777D01*
X88046Y3865D01*
X87807Y4025D01*
X87550Y4076D01*
Y2800D01*
Y1524D01*
X87807Y1575D01*
X88046Y1735D01*
X88400Y1823D01*
X88753Y1735D01*
X88993Y1575D01*
X89250Y1524D01*
Y2800D01*
Y4076D01*
D02*
G37*
G36*
X87050D02*
X86793Y4025D01*
X86554Y3865D01*
X86200Y3777D01*
X85847Y3865D01*
X85607Y4025D01*
X85350Y4076D01*
Y2800D01*
Y1524D01*
X85607Y1575D01*
X85847Y1735D01*
X86200Y1823D01*
X86554Y1735D01*
X86793Y1575D01*
X87050Y1524D01*
Y2800D01*
Y4076D01*
D02*
G37*
G36*
X84850D02*
X84593Y4025D01*
X84354Y3865D01*
X84000Y3777D01*
X83647Y3865D01*
X83407Y4025D01*
X83150Y4076D01*
Y2800D01*
Y1524D01*
X83407Y1575D01*
X83647Y1735D01*
X84000Y1823D01*
X84354Y1735D01*
X84593Y1575D01*
X84850Y1524D01*
Y2800D01*
Y4076D01*
D02*
G37*
G36*
X150150Y4276D02*
X149893Y4225D01*
X149463Y3937D01*
X149345Y3761D01*
X148755D01*
X148637Y3937D01*
X148207Y4225D01*
X147950Y4276D01*
Y3000D01*
Y1724D01*
X148207Y1775D01*
X148637Y2063D01*
X148755Y2239D01*
X149345D01*
X149463Y2063D01*
X149893Y1775D01*
X150150Y1724D01*
Y3000D01*
Y4276D01*
D02*
G37*
G36*
X129050Y4176D02*
X128793Y4125D01*
X128363Y3837D01*
X128301Y3744D01*
X127699D01*
X127637Y3837D01*
X127207Y4125D01*
X126950Y4176D01*
Y2900D01*
Y1624D01*
X127207Y1675D01*
X127637Y1963D01*
X127699Y2056D01*
X128301D01*
X128363Y1963D01*
X128793Y1675D01*
X129050Y1624D01*
Y2900D01*
Y4176D01*
D02*
G37*
G36*
X82650Y4076D02*
X82393Y4025D01*
X81963Y3737D01*
X81637D01*
X81207Y4025D01*
X80950Y4076D01*
Y2800D01*
Y1524D01*
X81207Y1575D01*
X81446Y1735D01*
X81800Y1823D01*
X82153Y1735D01*
X82393Y1575D01*
X82650Y1524D01*
Y2800D01*
Y4076D01*
D02*
G37*
G36*
X80450D02*
X80193Y4025D01*
X79763Y3737D01*
X79437D01*
X79007Y4025D01*
X78750Y4076D01*
Y2800D01*
Y1524D01*
X79007Y1575D01*
X79246Y1735D01*
X79600Y1823D01*
X79953Y1735D01*
X80193Y1575D01*
X80450Y1524D01*
Y2800D01*
Y4076D01*
D02*
G37*
G36*
X78250D02*
X77993Y4025D01*
X77563Y3737D01*
X77237D01*
X76807Y4025D01*
X76550Y4076D01*
Y2800D01*
Y1524D01*
X76807Y1575D01*
X77047Y1735D01*
X77400Y1823D01*
X77754Y1735D01*
X77993Y1575D01*
X78250Y1524D01*
Y2800D01*
Y4076D01*
D02*
G37*
G36*
X70850Y3976D02*
X70593Y3925D01*
X70354Y3765D01*
X70000Y3677D01*
X69647Y3765D01*
X69407Y3925D01*
X69150Y3976D01*
Y2700D01*
Y1424D01*
X69407Y1475D01*
X69647Y1635D01*
X70000Y1723D01*
X70354Y1635D01*
X70593Y1475D01*
X70850Y1424D01*
Y2700D01*
Y3976D01*
D02*
G37*
G36*
X68650D02*
X68393Y3925D01*
X68154Y3765D01*
X67800Y3677D01*
X67447Y3765D01*
X67207Y3925D01*
X66950Y3976D01*
Y2700D01*
Y1424D01*
X67207Y1475D01*
X67447Y1635D01*
X67800Y1723D01*
X68154Y1635D01*
X68393Y1475D01*
X68650Y1424D01*
Y2700D01*
Y3976D01*
D02*
G37*
G36*
X66450D02*
X66193Y3925D01*
X65953Y3765D01*
X65600Y3677D01*
X65246Y3765D01*
X65007Y3925D01*
X64750Y3976D01*
Y2700D01*
Y1424D01*
X65007Y1475D01*
X65246Y1635D01*
X65600Y1723D01*
X65953Y1635D01*
X66193Y1475D01*
X66450Y1424D01*
Y2700D01*
Y3976D01*
D02*
G37*
G36*
X64250D02*
X63993Y3925D01*
X63753Y3765D01*
X63400Y3677D01*
X63046Y3765D01*
X62807Y3925D01*
X62550Y3976D01*
Y2700D01*
Y1424D01*
X62807Y1475D01*
X63046Y1635D01*
X63400Y1723D01*
X63753Y1635D01*
X63993Y1475D01*
X64250Y1424D01*
Y2700D01*
Y3976D01*
D02*
G37*
G36*
X62050D02*
X61793Y3925D01*
X61554Y3765D01*
X61200Y3677D01*
X60847Y3765D01*
X60607Y3925D01*
X60350Y3976D01*
Y2700D01*
Y1424D01*
X60607Y1475D01*
X60847Y1635D01*
X61200Y1723D01*
X61554Y1635D01*
X61793Y1475D01*
X62050Y1424D01*
Y2700D01*
Y3976D01*
D02*
G37*
G36*
X59850D02*
X59593Y3925D01*
X59354Y3765D01*
X59000Y3677D01*
X58647Y3765D01*
X58407Y3925D01*
X58150Y3976D01*
Y2700D01*
Y1424D01*
X58407Y1475D01*
X58647Y1635D01*
X59000Y1723D01*
X59354Y1635D01*
X59593Y1475D01*
X59850Y1424D01*
Y2700D01*
Y3976D01*
D02*
G37*
G36*
X52350D02*
X52093Y3925D01*
X51854Y3765D01*
X51500Y3677D01*
X51147Y3765D01*
X50907Y3925D01*
X50650Y3976D01*
Y2700D01*
Y1424D01*
X50907Y1475D01*
X51147Y1635D01*
X51500Y1723D01*
X51854Y1635D01*
X52093Y1475D01*
X52350Y1424D01*
Y2700D01*
Y3976D01*
D02*
G37*
G36*
X50150D02*
X49893Y3925D01*
X49654Y3765D01*
X49300Y3677D01*
X48946Y3765D01*
X48707Y3925D01*
X48450Y3976D01*
Y2700D01*
Y1424D01*
X48707Y1475D01*
X48946Y1635D01*
X49300Y1723D01*
X49654Y1635D01*
X49893Y1475D01*
X50150Y1424D01*
Y2700D01*
Y3976D01*
D02*
G37*
G36*
X47950D02*
X47693Y3925D01*
X47453Y3765D01*
X47100Y3677D01*
X46747Y3765D01*
X46507Y3925D01*
X46250Y3976D01*
Y2700D01*
Y1424D01*
X46507Y1475D01*
X46747Y1635D01*
X47100Y1723D01*
X47453Y1635D01*
X47693Y1475D01*
X47950Y1424D01*
Y2700D01*
Y3976D01*
D02*
G37*
G36*
X45750D02*
X45493Y3925D01*
X45254Y3765D01*
X44900Y3677D01*
X44546Y3765D01*
X44307Y3925D01*
X44050Y3976D01*
Y2700D01*
Y1424D01*
X44307Y1475D01*
X44546Y1635D01*
X44900Y1723D01*
X45254Y1635D01*
X45493Y1475D01*
X45750Y1424D01*
Y2700D01*
Y3976D01*
D02*
G37*
G36*
X43550D02*
X43293Y3925D01*
X43053Y3765D01*
X42700Y3677D01*
X42347Y3765D01*
X42107Y3925D01*
X41850Y3976D01*
Y2700D01*
Y1424D01*
X42107Y1475D01*
X42347Y1635D01*
X42700Y1723D01*
X43053Y1635D01*
X43293Y1475D01*
X43550Y1424D01*
Y2700D01*
Y3976D01*
D02*
G37*
G36*
X41350D02*
X41093Y3925D01*
X40854Y3765D01*
X40500Y3677D01*
X40146Y3765D01*
X39907Y3925D01*
X39650Y3976D01*
Y2700D01*
Y1424D01*
X39907Y1475D01*
X40146Y1635D01*
X40500Y1723D01*
X40854Y1635D01*
X41093Y1475D01*
X41350Y1424D01*
Y2700D01*
Y3976D01*
D02*
G37*
G36*
X110550Y4076D02*
X110293Y4025D01*
X109863Y3737D01*
X109801Y3644D01*
X109199D01*
X109137Y3737D01*
X108707Y4025D01*
X108450Y4076D01*
Y2800D01*
Y1524D01*
X108707Y1575D01*
X109137Y1863D01*
X109199Y1956D01*
X109801D01*
X109863Y1863D01*
X110293Y1575D01*
X110550Y1524D01*
Y2800D01*
Y4076D01*
D02*
G37*
G36*
X91850D02*
X91593Y4025D01*
X91163Y3737D01*
X91101Y3644D01*
X90499D01*
X90437Y3737D01*
X90007Y4025D01*
X89750Y4076D01*
Y2800D01*
Y1524D01*
X90007Y1575D01*
X90437Y1863D01*
X90499Y1956D01*
X91101D01*
X91163Y1863D01*
X91593Y1575D01*
X91850Y1524D01*
Y2800D01*
Y4076D01*
D02*
G37*
G36*
X76050D02*
X75793Y4025D01*
X75363Y3737D01*
X75267Y3594D01*
X74666D01*
X74637Y3637D01*
X74207Y3925D01*
X73950Y3976D01*
Y2700D01*
Y1424D01*
X74207Y1475D01*
X74637Y1763D01*
X74733Y1906D01*
X75334D01*
X75363Y1863D01*
X75793Y1575D01*
X76050Y1524D01*
Y2800D01*
Y4076D01*
D02*
G37*
G36*
X113250Y4176D02*
X112993Y4125D01*
X112563Y3837D01*
X112417Y3619D01*
X111841Y3584D01*
X111839Y3585D01*
X111737Y3737D01*
X111307Y4025D01*
X111050Y4076D01*
Y2800D01*
Y1524D01*
X111307Y1575D01*
X111737Y1863D01*
X111883Y2080D01*
X112459Y2116D01*
X112461Y2115D01*
X112563Y1963D01*
X112993Y1675D01*
X113250Y1624D01*
Y2900D01*
Y4176D01*
D02*
G37*
G36*
X33950Y3876D02*
X33693Y3825D01*
X33454Y3665D01*
X33100Y3577D01*
X32746Y3665D01*
X32507Y3825D01*
X32250Y3876D01*
Y2600D01*
Y1324D01*
X32507Y1375D01*
X32746Y1535D01*
X33100Y1623D01*
X33454Y1535D01*
X33693Y1375D01*
X33950Y1324D01*
Y2600D01*
Y3876D01*
D02*
G37*
G36*
X31750D02*
X31493Y3825D01*
X31253Y3665D01*
X30900Y3577D01*
X30547Y3665D01*
X30307Y3825D01*
X30050Y3876D01*
Y2600D01*
Y1324D01*
X30307Y1375D01*
X30547Y1535D01*
X30900Y1623D01*
X31253Y1535D01*
X31493Y1375D01*
X31750Y1324D01*
Y2600D01*
Y3876D01*
D02*
G37*
G36*
X29550D02*
X29293Y3825D01*
X29054Y3665D01*
X28700Y3577D01*
X28346Y3665D01*
X28107Y3825D01*
X27850Y3876D01*
Y2600D01*
Y1324D01*
X28107Y1375D01*
X28346Y1535D01*
X28700Y1623D01*
X29054Y1535D01*
X29293Y1375D01*
X29550Y1324D01*
Y2600D01*
Y3876D01*
D02*
G37*
G36*
X27350D02*
X27093Y3825D01*
X26853Y3665D01*
X26500Y3577D01*
X26147Y3665D01*
X25907Y3825D01*
X25650Y3876D01*
Y2600D01*
Y1324D01*
X25907Y1375D01*
X26147Y1535D01*
X26500Y1623D01*
X26853Y1535D01*
X27093Y1375D01*
X27350Y1324D01*
Y2600D01*
Y3876D01*
D02*
G37*
G36*
X25150D02*
X24893Y3825D01*
X24654Y3665D01*
X24300Y3577D01*
X23946Y3665D01*
X23707Y3825D01*
X23450Y3876D01*
Y2600D01*
Y1324D01*
X23707Y1375D01*
X23946Y1535D01*
X24300Y1623D01*
X24654Y1535D01*
X24893Y1375D01*
X25150Y1324D01*
Y2600D01*
Y3876D01*
D02*
G37*
G36*
X22950D02*
X22693Y3825D01*
X22454Y3665D01*
X22100Y3577D01*
X21746Y3665D01*
X21507Y3825D01*
X21250Y3876D01*
Y2600D01*
Y1324D01*
X21507Y1375D01*
X21746Y1535D01*
X22100Y1623D01*
X22454Y1535D01*
X22693Y1375D01*
X22950Y1324D01*
Y2600D01*
Y3876D01*
D02*
G37*
G36*
X275250Y4576D02*
Y3550D01*
X276276D01*
X276225Y3807D01*
X275937Y4237D01*
X275507Y4525D01*
X275250Y4576D01*
D02*
G37*
G36*
X73450Y3976D02*
X73193Y3925D01*
X72763Y3637D01*
X72701Y3544D01*
X72099D01*
X72037Y3637D01*
X71607Y3925D01*
X71350Y3976D01*
Y2700D01*
Y1424D01*
X71607Y1475D01*
X72037Y1763D01*
X72099Y1856D01*
X72701D01*
X72763Y1763D01*
X73193Y1475D01*
X73450Y1424D01*
Y2700D01*
Y3976D01*
D02*
G37*
G36*
X54950D02*
X54693Y3925D01*
X54263Y3637D01*
X54201Y3544D01*
X53599D01*
X53537Y3637D01*
X53107Y3925D01*
X52850Y3976D01*
Y2700D01*
Y1424D01*
X53107Y1475D01*
X53537Y1763D01*
X53599Y1856D01*
X54201D01*
X54263Y1763D01*
X54693Y1475D01*
X54950Y1424D01*
Y2700D01*
Y3976D01*
D02*
G37*
G36*
X39150D02*
X38893Y3925D01*
X38463Y3637D01*
X38367Y3494D01*
X37766D01*
X37737Y3537D01*
X37307Y3825D01*
X37050Y3876D01*
Y2600D01*
Y1324D01*
X37307Y1375D01*
X37737Y1663D01*
X37833Y1806D01*
X38434D01*
X38463Y1763D01*
X38893Y1475D01*
X39150Y1424D01*
Y2700D01*
Y3976D01*
D02*
G37*
G36*
X15450Y3776D02*
X15193Y3725D01*
X14954Y3565D01*
X14600Y3477D01*
X14246Y3565D01*
X14007Y3725D01*
X13750Y3776D01*
Y2500D01*
Y1224D01*
X14007Y1275D01*
X14246Y1435D01*
X14600Y1523D01*
X14954Y1435D01*
X15193Y1275D01*
X15450Y1224D01*
Y2500D01*
Y3776D01*
D02*
G37*
G36*
X13250D02*
X12993Y3725D01*
X12754Y3565D01*
X12400Y3477D01*
X12047Y3565D01*
X11807Y3725D01*
X11550Y3776D01*
Y2500D01*
Y1224D01*
X11807Y1275D01*
X12047Y1435D01*
X12400Y1523D01*
X12754Y1435D01*
X12993Y1275D01*
X13250Y1224D01*
Y2500D01*
Y3776D01*
D02*
G37*
G36*
X11050D02*
X10793Y3725D01*
X10554Y3565D01*
X10200Y3477D01*
X9847Y3565D01*
X9607Y3725D01*
X9350Y3776D01*
Y2500D01*
Y1224D01*
X9607Y1275D01*
X9847Y1435D01*
X10200Y1523D01*
X10554Y1435D01*
X10793Y1275D01*
X11050Y1224D01*
Y2500D01*
Y3776D01*
D02*
G37*
G36*
X8850D02*
X8593Y3725D01*
X8354Y3565D01*
X8000Y3477D01*
X7647Y3565D01*
X7407Y3725D01*
X7150Y3776D01*
Y2500D01*
Y1224D01*
X7407Y1275D01*
X7647Y1435D01*
X8000Y1523D01*
X8354Y1435D01*
X8593Y1275D01*
X8850Y1224D01*
Y2500D01*
Y3776D01*
D02*
G37*
G36*
X6650D02*
X6393Y3725D01*
X6154Y3565D01*
X5800Y3477D01*
X5446Y3565D01*
X5207Y3725D01*
X4950Y3776D01*
Y2500D01*
Y1224D01*
X5207Y1275D01*
X5446Y1435D01*
X5800Y1523D01*
X6154Y1435D01*
X6393Y1275D01*
X6650Y1224D01*
Y2500D01*
Y3776D01*
D02*
G37*
G36*
X57650Y3976D02*
X57393Y3925D01*
X56963Y3637D01*
X56845Y3461D01*
X56255D01*
X56137Y3637D01*
X55707Y3925D01*
X55450Y3976D01*
Y2700D01*
Y1424D01*
X55707Y1475D01*
X56137Y1763D01*
X56255Y1939D01*
X56845D01*
X56963Y1763D01*
X57393Y1475D01*
X57650Y1424D01*
Y2700D01*
Y3976D01*
D02*
G37*
G36*
X36550Y3876D02*
X36293Y3825D01*
X35863Y3537D01*
X35801Y3444D01*
X35199D01*
X35137Y3537D01*
X34707Y3825D01*
X34450Y3876D01*
Y2600D01*
Y1324D01*
X34707Y1375D01*
X35137Y1663D01*
X35199Y1756D01*
X35801D01*
X35863Y1663D01*
X36293Y1375D01*
X36550Y1324D01*
Y2600D01*
Y3876D01*
D02*
G37*
G36*
X184850Y4376D02*
Y3350D01*
X185876D01*
X185825Y3607D01*
X185537Y4037D01*
X185107Y4325D01*
X184850Y4376D01*
D02*
G37*
G36*
X18050Y3776D02*
X17793Y3725D01*
X17363Y3437D01*
X17301Y3344D01*
X16699D01*
X16637Y3437D01*
X16207Y3725D01*
X15950Y3776D01*
Y2500D01*
Y1224D01*
X16207Y1275D01*
X16637Y1563D01*
X16699Y1656D01*
X17301D01*
X17363Y1563D01*
X17793Y1275D01*
X18050Y1224D01*
Y2500D01*
Y3776D01*
D02*
G37*
G36*
X94750Y4076D02*
X94493Y4025D01*
X94063Y3737D01*
X93821Y3375D01*
X93550Y3338D01*
X93279Y3375D01*
X93037Y3737D01*
X92607Y4025D01*
X92350Y4076D01*
Y2800D01*
Y1524D01*
X92607Y1575D01*
X93037Y1863D01*
X93279Y2225D01*
X93550Y2262D01*
X93821Y2225D01*
X94063Y1863D01*
X94493Y1575D01*
X94750Y1524D01*
Y2800D01*
Y4076D01*
D02*
G37*
G36*
X20750Y3876D02*
X20493Y3825D01*
X20063Y3537D01*
X19917Y3320D01*
X19342Y3284D01*
X19339Y3285D01*
X19237Y3437D01*
X18807Y3725D01*
X18550Y3776D01*
Y2500D01*
Y1224D01*
X18807Y1275D01*
X19237Y1563D01*
X19383Y1781D01*
X19959Y1816D01*
X19961Y1815D01*
X20063Y1663D01*
X20493Y1375D01*
X20750Y1324D01*
Y2600D01*
Y3876D01*
D02*
G37*
G36*
X187750Y4276D02*
X187493Y4225D01*
X187063Y3937D01*
X186775Y3507D01*
X186724Y3250D01*
X187750D01*
Y4276D01*
D02*
G37*
G36*
X276276Y3050D02*
X275250D01*
Y2024D01*
X275507Y2075D01*
X275937Y2363D01*
X276225Y2793D01*
X276276Y3050D01*
D02*
G37*
G36*
X185876Y2850D02*
X184850D01*
Y1824D01*
X185107Y1875D01*
X185537Y2163D01*
X185825Y2593D01*
X185876Y2850D01*
D02*
G37*
G36*
X187750Y2750D02*
X186724D01*
X186775Y2493D01*
X187063Y2063D01*
X187493Y1775D01*
X187750Y1724D01*
Y2750D01*
D02*
G37*
%LPD*%
G36*
X248200Y126300D02*
X250400Y124100D01*
Y123951D01*
X250388Y123889D01*
X250400Y123826D01*
Y122000D01*
Y90500D01*
X201000Y41100D01*
X172000Y41100D01*
Y44800D01*
X171900Y44900D01*
X191200Y64200D01*
Y78200D01*
X228000D01*
X243100Y93300D01*
X244100Y94300D01*
Y126200D01*
X244200Y126500D01*
X248000D01*
X248200Y126300D01*
D02*
G37*
%LPC*%
G36*
X246639Y125587D02*
Y124561D01*
X247665D01*
X247614Y124818D01*
X247326Y125248D01*
X246896Y125536D01*
X246639Y125587D01*
D02*
G37*
G36*
X246139D02*
X245882Y125536D01*
X245452Y125248D01*
X245164Y124818D01*
X245113Y124561D01*
X246139D01*
Y125587D01*
D02*
G37*
G36*
X247665Y124061D02*
X246639D01*
Y123035D01*
X246896Y123086D01*
X247326Y123374D01*
X247614Y123804D01*
X247665Y124061D01*
D02*
G37*
G36*
X246139D02*
X245113D01*
X245164Y123804D01*
X245452Y123374D01*
X245882Y123086D01*
X246139Y123035D01*
Y124061D01*
D02*
G37*
G36*
X193739Y77187D02*
Y76161D01*
X194765D01*
X194714Y76418D01*
X194426Y76848D01*
X193996Y77135D01*
X193739Y77187D01*
D02*
G37*
G36*
X193239D02*
X192982Y77135D01*
X192552Y76848D01*
X192264Y76418D01*
X192213Y76161D01*
X193239D01*
Y77187D01*
D02*
G37*
G36*
X194765Y75661D02*
X193739D01*
Y74635D01*
X193996Y74686D01*
X194426Y74974D01*
X194714Y75404D01*
X194765Y75661D01*
D02*
G37*
G36*
X193239D02*
X192213D01*
X192264Y75404D01*
X192552Y74974D01*
X192982Y74686D01*
X193239Y74635D01*
Y75661D01*
D02*
G37*
G36*
X214641Y70564D02*
X214173Y70471D01*
X213776Y70206D01*
X213511Y69809D01*
X213417Y69341D01*
X213511Y68873D01*
X213776Y68476D01*
X214173Y68211D01*
X214641Y68117D01*
X215109Y68211D01*
X215506Y68476D01*
X215771Y68873D01*
X215864Y69341D01*
X215771Y69809D01*
X215506Y70206D01*
X215109Y70471D01*
X214641Y70564D01*
D02*
G37*
G36*
X207500Y66523D02*
X207032Y66430D01*
X206635Y66165D01*
X206370Y65768D01*
X206276Y65300D01*
X206370Y64832D01*
X206635Y64435D01*
X207032Y64170D01*
X207500Y64077D01*
X207968Y64170D01*
X208365Y64435D01*
X208630Y64832D01*
X208723Y65300D01*
X208630Y65768D01*
X208365Y66165D01*
X207968Y66430D01*
X207500Y66523D01*
D02*
G37*
G36*
X175150Y45076D02*
Y44050D01*
X176176D01*
X176125Y44307D01*
X175837Y44737D01*
X175407Y45025D01*
X175150Y45076D01*
D02*
G37*
G36*
X174650D02*
X174393Y45025D01*
X173963Y44737D01*
X173675Y44307D01*
X173624Y44050D01*
X174650D01*
Y45076D01*
D02*
G37*
G36*
X176176Y43550D02*
X175150D01*
Y42524D01*
X175407Y42575D01*
X175837Y42863D01*
X176125Y43293D01*
X176176Y43550D01*
D02*
G37*
G36*
X174650D02*
X173624D01*
X173675Y43293D01*
X173963Y42863D01*
X174393Y42575D01*
X174650Y42524D01*
Y43550D01*
D02*
G37*
%LPD*%
G36*
X240700Y187047D02*
Y123000D01*
Y102300D01*
X239800Y101400D01*
X225500Y87100D01*
Y82000D01*
X190463D01*
X190268Y82130D01*
X189800Y82223D01*
X189332Y82130D01*
X189137Y82000D01*
X64109D01*
X60614Y85496D01*
Y138371D01*
X60765Y138472D01*
X61030Y138869D01*
X61124Y139337D01*
X61030Y139805D01*
X60765Y140202D01*
X60368Y140467D01*
X59900Y140560D01*
X59758Y140532D01*
X59324Y140912D01*
X59323Y140917D01*
X59230Y141380D01*
X58965Y141777D01*
X58568Y142042D01*
X58100Y142135D01*
X57958Y142107D01*
X57524Y142486D01*
X57523Y142491D01*
X57430Y142955D01*
X57165Y143352D01*
X56768Y143617D01*
X56300Y143710D01*
X55942Y143639D01*
X55629Y143853D01*
X55503Y143999D01*
X55524Y144100D01*
X55430Y144568D01*
X55165Y144965D01*
X54768Y145230D01*
X54300Y145324D01*
X53926Y145249D01*
X53588Y145428D01*
X53426Y145560D01*
Y149322D01*
X53577Y149423D01*
X53842Y149820D01*
X53935Y150288D01*
X53842Y150756D01*
X53577Y151153D01*
X53180Y151419D01*
X52712Y151512D01*
X52244Y151419D01*
X51847Y151153D01*
X51581Y150756D01*
X51488Y150288D01*
X51581Y149820D01*
X51847Y149423D01*
X51998Y149322D01*
Y82000D01*
X43507D01*
X43200Y82400D01*
Y186900D01*
X239900D01*
X240238Y187238D01*
X240700Y187047D01*
D02*
G37*
G36*
X55586Y141069D02*
Y82000D01*
X55014D01*
Y140891D01*
X55135Y141015D01*
X55514Y141149D01*
X55586Y141069D01*
D02*
G37*
%LPC*%
G36*
X103700Y184824D02*
X103232Y184730D01*
X102835Y184465D01*
X102570Y184068D01*
X102477Y183600D01*
X102570Y183132D01*
X102835Y182735D01*
X103232Y182470D01*
X103700Y182377D01*
X104168Y182470D01*
X104565Y182735D01*
X104830Y183132D01*
X104923Y183600D01*
X104830Y184068D01*
X104565Y184465D01*
X104168Y184730D01*
X103700Y184824D01*
D02*
G37*
G36*
X95850Y183176D02*
Y182150D01*
X96876D01*
X96825Y182407D01*
X96537Y182837D01*
X96107Y183125D01*
X95850Y183176D01*
D02*
G37*
G36*
X95350D02*
X95093Y183125D01*
X94663Y182837D01*
X94375Y182407D01*
X94324Y182150D01*
X95350D01*
Y183176D01*
D02*
G37*
G36*
X96876Y181650D02*
X95850D01*
Y180624D01*
X96107Y180675D01*
X96537Y180963D01*
X96825Y181393D01*
X96876Y181650D01*
D02*
G37*
G36*
X95350D02*
X94324D01*
X94375Y181393D01*
X94663Y180963D01*
X95093Y180675D01*
X95350Y180624D01*
Y181650D01*
D02*
G37*
G36*
X76600Y186218D02*
X76249Y186148D01*
X75951Y185949D01*
X75752Y185651D01*
X75682Y185300D01*
X75752Y184949D01*
X75951Y184651D01*
X76249Y184452D01*
X76600Y184382D01*
X76951Y184452D01*
X77152Y184586D01*
X78004D01*
X79286Y183304D01*
Y182386D01*
X79243Y182357D01*
X79011Y182010D01*
X78929Y181600D01*
X79011Y181190D01*
X79243Y180843D01*
X79590Y180611D01*
X80000Y180529D01*
X80410Y180611D01*
X80757Y180843D01*
X80989Y181190D01*
X81071Y181600D01*
X80989Y182010D01*
X80757Y182357D01*
X80714Y182386D01*
Y183600D01*
X80659Y183873D01*
X80505Y184105D01*
X78805Y185805D01*
X78573Y185959D01*
X78300Y186014D01*
X77152D01*
X76951Y186148D01*
X76600Y186218D01*
D02*
G37*
G36*
X55400Y180771D02*
X54990Y180689D01*
X54643Y180457D01*
X54614Y180414D01*
X52186D01*
X52157Y180457D01*
X51810Y180689D01*
X51400Y180771D01*
X50990Y180689D01*
X50643Y180457D01*
X50411Y180110D01*
X50329Y179700D01*
X50411Y179290D01*
X50643Y178943D01*
X50990Y178711D01*
X51400Y178629D01*
X51810Y178711D01*
X52157Y178943D01*
X52186Y178986D01*
X54614D01*
X54643Y178943D01*
X54990Y178711D01*
X55400Y178629D01*
X55810Y178711D01*
X56157Y178943D01*
X56389Y179290D01*
X56471Y179700D01*
X56389Y180110D01*
X56157Y180457D01*
X55810Y180689D01*
X55400Y180771D01*
D02*
G37*
G36*
X201947Y182170D02*
X201596Y182101D01*
X201395Y181967D01*
X181853D01*
X181580Y181912D01*
X181348Y181757D01*
X165304Y165714D01*
X150827D01*
X150777Y166214D01*
X150898Y166238D01*
X151029Y166264D01*
X151393Y166507D01*
X151636Y166871D01*
X151722Y167300D01*
X151636Y167729D01*
X151393Y168093D01*
X151029Y168336D01*
X150600Y168422D01*
X150171Y168336D01*
X149807Y168093D01*
X149564Y167729D01*
X149478Y167300D01*
X149564Y166871D01*
X149807Y166507D01*
X150171Y166264D01*
X150302Y166238D01*
X150423Y166214D01*
X150373Y165714D01*
X142452D01*
X142251Y165848D01*
X141900Y165918D01*
X141549Y165848D01*
X141251Y165649D01*
X141052Y165351D01*
X140982Y165000D01*
X140587Y164514D01*
X140352D01*
X140151Y164648D01*
X139800Y164718D01*
X139449Y164648D01*
X139151Y164449D01*
X138952Y164151D01*
X138882Y163800D01*
X138952Y163449D01*
X139151Y163151D01*
X139449Y162952D01*
X139800Y162882D01*
X140151Y162952D01*
X140270Y162886D01*
X140357Y162266D01*
X139610Y161519D01*
X138478D01*
X138277Y161653D01*
X137926Y161723D01*
X137575Y161653D01*
X137277Y161454D01*
X137078Y161157D01*
X137008Y160805D01*
X137078Y160454D01*
X137277Y160157D01*
X137575Y159958D01*
X137926Y159888D01*
X138277Y159958D01*
X138478Y160092D01*
X139252D01*
X139404Y159592D01*
X139246Y159486D01*
X139047Y159188D01*
X138977Y158837D01*
X139047Y158486D01*
X139246Y158188D01*
X139543Y157989D01*
X139894Y157919D01*
X140246Y157989D01*
X140543Y158188D01*
X140590Y158257D01*
X141168D01*
X141214Y158188D01*
X141283Y158142D01*
Y157564D01*
X141214Y157517D01*
X141015Y157220D01*
X140945Y156869D01*
X140956Y156814D01*
X140596Y156314D01*
X139193D01*
X138833Y156814D01*
X138844Y156869D01*
X138774Y157220D01*
X138575Y157517D01*
X138277Y157716D01*
X137926Y157786D01*
X137575Y157716D01*
X137374Y157582D01*
X125783D01*
X125583Y157716D01*
X125232Y157786D01*
X124880Y157716D01*
X124583Y157517D01*
X124384Y157220D01*
X124314Y156869D01*
X124384Y156517D01*
X124583Y156220D01*
X124880Y156021D01*
X125232Y155951D01*
X125583Y156021D01*
X125783Y156155D01*
X136538D01*
X136746Y155655D01*
X135395Y154305D01*
X135241Y154073D01*
X135186Y153800D01*
Y153397D01*
X135110Y153283D01*
X135040Y152931D01*
X135110Y152580D01*
X135309Y152283D01*
X135606Y152084D01*
X135958Y152014D01*
X136309Y152084D01*
X136606Y152283D01*
X136653Y152352D01*
X137231D01*
X137277Y152283D01*
X137575Y152084D01*
X137926Y152014D01*
X138277Y152084D01*
X138575Y152283D01*
X138621Y152352D01*
X139199D01*
X139246Y152283D01*
X139543Y152084D01*
X139894Y152014D01*
X140246Y152084D01*
X140543Y152283D01*
X140742Y152580D01*
X140789Y152817D01*
X140859Y152886D01*
X145360D01*
X145633Y152941D01*
X145865Y153095D01*
X148305Y155535D01*
X148459Y155767D01*
X148514Y156040D01*
Y158076D01*
X148867Y158429D01*
X167071D01*
X167344Y158484D01*
X167576Y158638D01*
X176024Y167086D01*
X219648D01*
X219849Y166952D01*
X220200Y166882D01*
X220551Y166952D01*
X220849Y167151D01*
X221048Y167449D01*
X221118Y167800D01*
X221054Y168121D01*
X221054Y168161D01*
X221335Y168621D01*
X225483D01*
X225683Y168487D01*
X226035Y168417D01*
X226386Y168487D01*
X226683Y168686D01*
X226882Y168983D01*
X226952Y169335D01*
X226882Y169686D01*
X226683Y169983D01*
X226386Y170182D01*
X226035Y170252D01*
X225683Y170182D01*
X225483Y170048D01*
X222211D01*
X222020Y170510D01*
X222530Y171021D01*
X229814D01*
X230014Y170887D01*
X230365Y170817D01*
X230716Y170887D01*
X231014Y171086D01*
X231213Y171384D01*
X231283Y171735D01*
X231213Y172086D01*
X231014Y172383D01*
X230716Y172582D01*
X230365Y172652D01*
X230014Y172582D01*
X229814Y172448D01*
X222235D01*
X221961Y172394D01*
X221730Y172239D01*
X220704Y171214D01*
X203492D01*
X203224Y171714D01*
X203248Y171749D01*
X203318Y172100D01*
X203248Y172451D01*
X203049Y172749D01*
X202751Y172948D01*
X202400Y173018D01*
X202049Y172948D01*
X201848Y172814D01*
X176491D01*
X176299Y173276D01*
X177657Y174634D01*
X201701D01*
X201902Y174499D01*
X202253Y174430D01*
X202604Y174499D01*
X202902Y174698D01*
X203100Y174996D01*
X203170Y175347D01*
X203100Y175698D01*
X202902Y175996D01*
X202604Y176195D01*
X202253Y176265D01*
X201902Y176195D01*
X201701Y176061D01*
X178324D01*
X178132Y176523D01*
X182149Y180539D01*
X201395D01*
X201596Y180405D01*
X201947Y180335D01*
X202298Y180405D01*
X202596Y180604D01*
X202795Y180902D01*
X202865Y181253D01*
X202795Y181604D01*
X202596Y181902D01*
X202298Y182101D01*
X201947Y182170D01*
D02*
G37*
G36*
X234653Y182576D02*
X234185Y182483D01*
X233788Y182218D01*
X233522Y181821D01*
X233429Y181353D01*
X233522Y180885D01*
X233788Y180488D01*
X234185Y180222D01*
X234653Y180129D01*
X235121Y180222D01*
X235518Y180488D01*
X235783Y180885D01*
X235876Y181353D01*
X235783Y181821D01*
X235518Y182218D01*
X235121Y182483D01*
X234653Y182576D01*
D02*
G37*
G36*
X214353Y182476D02*
X213884Y182383D01*
X213488Y182118D01*
X213222Y181721D01*
X213129Y181253D01*
X213222Y180784D01*
X213488Y180388D01*
X213884Y180122D01*
X214353Y180029D01*
X214821Y180122D01*
X215218Y180388D01*
X215483Y180784D01*
X215576Y181253D01*
X215483Y181721D01*
X215218Y182118D01*
X214821Y182383D01*
X214353Y182476D01*
D02*
G37*
G36*
X87500Y179623D02*
X87032Y179530D01*
X86635Y179265D01*
X86370Y178868D01*
X86277Y178400D01*
X86370Y177932D01*
X86635Y177535D01*
X87032Y177270D01*
X87500Y177176D01*
X87968Y177270D01*
X88365Y177535D01*
X88630Y177932D01*
X88723Y178400D01*
X88630Y178868D01*
X88365Y179265D01*
X87968Y179530D01*
X87500Y179623D01*
D02*
G37*
G36*
X140600Y178218D02*
X140249Y178148D01*
X139951Y177949D01*
X139752Y177651D01*
X139682Y177300D01*
X139752Y176949D01*
X139951Y176651D01*
X140249Y176452D01*
X140600Y176382D01*
X140951Y176452D01*
X141249Y176651D01*
X141448Y176949D01*
X141518Y177300D01*
X141448Y177651D01*
X141249Y177949D01*
X140951Y178148D01*
X140600Y178218D01*
D02*
G37*
G36*
X132650Y176978D02*
Y175850D01*
X133778D01*
X133719Y176146D01*
X133409Y176609D01*
X132946Y176919D01*
X132650Y176978D01*
D02*
G37*
G36*
X132150D02*
X131854Y176919D01*
X131391Y176609D01*
X131081Y176146D01*
X131022Y175850D01*
X132150D01*
Y176978D01*
D02*
G37*
G36*
X68500Y176924D02*
X68032Y176830D01*
X67635Y176565D01*
X67370Y176168D01*
X67277Y175700D01*
X67370Y175232D01*
X67635Y174835D01*
X68032Y174570D01*
X68500Y174477D01*
X68968Y174570D01*
X69365Y174835D01*
X69630Y175232D01*
X69723Y175700D01*
X69630Y176168D01*
X69365Y176565D01*
X68968Y176830D01*
X68500Y176924D01*
D02*
G37*
G36*
X133778Y175350D02*
X132650D01*
Y174222D01*
X132946Y174281D01*
X133409Y174591D01*
X133719Y175054D01*
X133778Y175350D01*
D02*
G37*
G36*
X132150D02*
X131022D01*
X131081Y175054D01*
X131391Y174591D01*
X131854Y174281D01*
X132150Y174222D01*
Y175350D01*
D02*
G37*
G36*
X123900Y174218D02*
X123549Y174148D01*
X123251Y173949D01*
X123052Y173651D01*
X122982Y173300D01*
X123052Y172949D01*
X123251Y172651D01*
X123549Y172452D01*
X123900Y172382D01*
X124251Y172452D01*
X124549Y172651D01*
X124748Y172949D01*
X124818Y173300D01*
X124748Y173651D01*
X124549Y173949D01*
X124251Y174148D01*
X123900Y174218D01*
D02*
G37*
G36*
X137898Y173726D02*
X137429Y173633D01*
X137032Y173368D01*
X136767Y172971D01*
X136674Y172502D01*
X136767Y172034D01*
X137032Y171637D01*
X137429Y171372D01*
X137898Y171279D01*
X138366Y171372D01*
X138763Y171637D01*
X139028Y172034D01*
X139121Y172502D01*
X139028Y172971D01*
X138763Y173368D01*
X138366Y173633D01*
X137898Y173726D01*
D02*
G37*
G36*
X142200Y173018D02*
X141849Y172948D01*
X141551Y172749D01*
X141352Y172451D01*
X141282Y172100D01*
X141352Y171749D01*
X141551Y171451D01*
X141849Y171252D01*
X142200Y171182D01*
X142551Y171252D01*
X142849Y171451D01*
X143048Y171749D01*
X143118Y172100D01*
X143048Y172451D01*
X142849Y172749D01*
X142551Y172948D01*
X142200Y173018D01*
D02*
G37*
G36*
X50050Y170676D02*
Y169650D01*
X51076D01*
X51025Y169907D01*
X50737Y170337D01*
X50307Y170625D01*
X50050Y170676D01*
D02*
G37*
G36*
X49550D02*
X49293Y170625D01*
X48863Y170337D01*
X48575Y169907D01*
X48524Y169650D01*
X49550D01*
Y170676D01*
D02*
G37*
G36*
X140102Y170621D02*
X139634Y170528D01*
X139237Y170263D01*
X138972Y169866D01*
X138879Y169398D01*
X138972Y168929D01*
X139237Y168533D01*
X139634Y168267D01*
X140102Y168174D01*
X140571Y168267D01*
X140968Y168533D01*
X141233Y168929D01*
X141326Y169398D01*
X141233Y169866D01*
X140968Y170263D01*
X140571Y170528D01*
X140102Y170621D01*
D02*
G37*
G36*
X51076Y169150D02*
X50050D01*
Y168124D01*
X50307Y168175D01*
X50737Y168463D01*
X51025Y168893D01*
X51076Y169150D01*
D02*
G37*
G36*
X49550D02*
X48524D01*
X48575Y168893D01*
X48863Y168463D01*
X49293Y168175D01*
X49550Y168124D01*
Y169150D01*
D02*
G37*
G36*
X120600Y169508D02*
X120132Y169415D01*
X119735Y169149D01*
X119470Y168753D01*
X119377Y168284D01*
X119470Y167816D01*
X119735Y167419D01*
X120132Y167154D01*
X120600Y167061D01*
X121068Y167154D01*
X121465Y167419D01*
X121730Y167816D01*
X121824Y168284D01*
X121730Y168753D01*
X121465Y169149D01*
X121068Y169415D01*
X120600Y169508D01*
D02*
G37*
G36*
X103700Y165471D02*
X103290Y165389D01*
X102943Y165157D01*
X102914Y165114D01*
X86186D01*
X86157Y165157D01*
X85810Y165389D01*
X85400Y165471D01*
X84990Y165389D01*
X84643Y165157D01*
X84411Y164810D01*
X84329Y164400D01*
X84372Y164187D01*
X84052Y163790D01*
X83987Y163753D01*
X83900Y163771D01*
X83490Y163689D01*
X83143Y163457D01*
X82911Y163110D01*
X82829Y162700D01*
X82911Y162290D01*
X83143Y161943D01*
X83490Y161711D01*
X83900Y161629D01*
X84310Y161711D01*
X84657Y161943D01*
X84686Y161986D01*
X107214D01*
X107243Y161943D01*
X107590Y161711D01*
X108000Y161629D01*
X108410Y161711D01*
X108757Y161943D01*
X108989Y162290D01*
X109071Y162700D01*
X108989Y163110D01*
X108757Y163457D01*
X108410Y163689D01*
X108000Y163771D01*
X107590Y163689D01*
X107243Y163457D01*
X107214Y163414D01*
X104905D01*
X104638Y163914D01*
X104689Y163990D01*
X104771Y164400D01*
X104689Y164810D01*
X104457Y165157D01*
X104110Y165389D01*
X103700Y165471D01*
D02*
G37*
G36*
X126600Y161571D02*
X126190Y161489D01*
X125843Y161257D01*
X125611Y160910D01*
X125529Y160500D01*
X125611Y160090D01*
X125843Y159743D01*
X126190Y159511D01*
X126600Y159429D01*
X127010Y159511D01*
X127357Y159743D01*
X127589Y160090D01*
X127671Y160500D01*
X127589Y160910D01*
X127357Y161257D01*
X127010Y161489D01*
X126600Y161571D01*
D02*
G37*
G36*
X100150Y160373D02*
X99682Y160280D01*
X99285Y160015D01*
X99020Y159618D01*
X98927Y159150D01*
X99020Y158682D01*
X99285Y158285D01*
X99682Y158020D01*
X100150Y157926D01*
X100618Y158020D01*
X101015Y158285D01*
X101280Y158682D01*
X101374Y159150D01*
X101280Y159618D01*
X101015Y160015D01*
X100618Y160280D01*
X100150Y160373D01*
D02*
G37*
G36*
X234753Y159476D02*
X234284Y159383D01*
X233888Y159118D01*
X233622Y158721D01*
X233529Y158253D01*
X233622Y157784D01*
X233888Y157388D01*
X234284Y157122D01*
X234753Y157029D01*
X235221Y157122D01*
X235618Y157388D01*
X235883Y157784D01*
X235976Y158253D01*
X235883Y158721D01*
X235618Y159118D01*
X235221Y159383D01*
X234753Y159476D01*
D02*
G37*
G36*
X214447D02*
X213979Y159383D01*
X213582Y159118D01*
X213317Y158721D01*
X213224Y158253D01*
X213317Y157784D01*
X213582Y157388D01*
X213979Y157122D01*
X214447Y157029D01*
X214915Y157122D01*
X215312Y157388D01*
X215578Y157784D01*
X215671Y158253D01*
X215578Y158721D01*
X215312Y159118D01*
X214915Y159383D01*
X214447Y159476D01*
D02*
G37*
G36*
X113800Y155724D02*
X113332Y155630D01*
X112935Y155365D01*
X112670Y154968D01*
X112576Y154500D01*
X112670Y154032D01*
X112935Y153635D01*
X113332Y153370D01*
X113800Y153277D01*
X114268Y153370D01*
X114665Y153635D01*
X114930Y154032D01*
X115024Y154500D01*
X114930Y154968D01*
X114665Y155365D01*
X114268Y155630D01*
X113800Y155724D01*
D02*
G37*
G36*
X109000Y154824D02*
X108532Y154730D01*
X108135Y154465D01*
X107870Y154068D01*
X107776Y153600D01*
X107853Y153214D01*
X107707Y152920D01*
X107548Y152714D01*
X100239D01*
X100039Y152848D01*
X99687Y152918D01*
X99336Y152848D01*
X99038Y152649D01*
X98840Y152351D01*
X98770Y152000D01*
X98840Y151649D01*
X99038Y151351D01*
X99336Y151152D01*
X99687Y151082D01*
X100011Y151147D01*
X100258Y150966D01*
X100396Y150803D01*
X100401Y150786D01*
X100345Y150500D01*
X100414Y150149D01*
X100613Y149851D01*
X100911Y149652D01*
X101262Y149582D01*
X101613Y149652D01*
X101814Y149786D01*
X110484D01*
X110715Y149286D01*
X110570Y149068D01*
X110477Y148600D01*
X110570Y148132D01*
X110835Y147735D01*
X111232Y147470D01*
X111700Y147377D01*
X112168Y147470D01*
X112565Y147735D01*
X112830Y148132D01*
X112924Y148600D01*
X112830Y149068D01*
X113076Y149580D01*
X113372Y149619D01*
X140295Y122695D01*
X140418Y122614D01*
X140305Y122114D01*
X111855D01*
X111693Y122607D01*
X111936Y122971D01*
X112022Y123400D01*
X111936Y123829D01*
X111693Y124193D01*
X111329Y124436D01*
X110900Y124522D01*
X110471Y124436D01*
X110107Y124193D01*
X109864Y123829D01*
X109778Y123400D01*
X109864Y122971D01*
X110107Y122607D01*
X109945Y122114D01*
X100252D01*
X100051Y122248D01*
X99700Y122318D01*
X99349Y122248D01*
X99051Y122049D01*
X98852Y121751D01*
X98782Y121400D01*
X98852Y121049D01*
X99051Y120751D01*
X99349Y120552D01*
X99700Y120482D01*
X100051Y120552D01*
X100252Y120686D01*
X162400D01*
X162701Y120236D01*
X162716Y120125D01*
X159804Y117214D01*
X98752D01*
X98551Y117348D01*
X98200Y117418D01*
X97849Y117348D01*
X97551Y117149D01*
X97352Y116851D01*
X97282Y116500D01*
X97352Y116149D01*
X97551Y115851D01*
X97849Y115652D01*
X98200Y115582D01*
X98551Y115652D01*
X98752Y115786D01*
X160100D01*
X160373Y115841D01*
X160605Y115995D01*
X177196Y132586D01*
X216514D01*
X216543Y132543D01*
X216890Y132311D01*
X217300Y132229D01*
X217710Y132311D01*
X218057Y132543D01*
X218289Y132890D01*
X218371Y133300D01*
X218289Y133710D01*
X218057Y134057D01*
X217710Y134289D01*
X217300Y134371D01*
X216890Y134289D01*
X216543Y134057D01*
X216514Y134014D01*
X176900D01*
X176599Y134464D01*
X176584Y134575D01*
X184296Y142286D01*
X228414D01*
X228443Y142243D01*
X228790Y142011D01*
X229200Y141929D01*
X229610Y142011D01*
X229957Y142243D01*
X230189Y142590D01*
X230271Y143000D01*
X230189Y143410D01*
X229957Y143757D01*
X229610Y143989D01*
X229200Y144071D01*
X228790Y143989D01*
X228443Y143757D01*
X228414Y143714D01*
X184000D01*
X183727Y143659D01*
X183495Y143505D01*
X164553Y124562D01*
X164291Y124637D01*
X164056Y124773D01*
X163989Y125110D01*
X163757Y125457D01*
X163410Y125689D01*
X163000Y125771D01*
X162590Y125689D01*
X162243Y125457D01*
X162214Y125414D01*
X141010D01*
X113919Y152505D01*
X113687Y152659D01*
X113414Y152714D01*
X110452D01*
X110293Y152920D01*
X110147Y153214D01*
X110223Y153600D01*
X110130Y154068D01*
X109865Y154465D01*
X109468Y154730D01*
X109000Y154824D01*
D02*
G37*
G36*
X132250Y150478D02*
Y149350D01*
X133378D01*
X133319Y149646D01*
X133009Y150109D01*
X132546Y150419D01*
X132250Y150478D01*
D02*
G37*
G36*
X131750D02*
X131454Y150419D01*
X130991Y150109D01*
X130681Y149646D01*
X130622Y149350D01*
X131750D01*
Y150478D01*
D02*
G37*
G36*
X189700Y150323D02*
X189232Y150230D01*
X188835Y149965D01*
X188570Y149568D01*
X188477Y149100D01*
X188570Y148632D01*
X188835Y148235D01*
X189232Y147970D01*
X189700Y147877D01*
X190168Y147970D01*
X190565Y148235D01*
X190830Y148632D01*
X190924Y149100D01*
X190830Y149568D01*
X190565Y149965D01*
X190168Y150230D01*
X189700Y150323D01*
D02*
G37*
G36*
X133378Y148850D02*
X132250D01*
Y147722D01*
X132546Y147781D01*
X133009Y148091D01*
X133319Y148554D01*
X133378Y148850D01*
D02*
G37*
G36*
X131750D02*
X130622D01*
X130681Y148554D01*
X130991Y148091D01*
X131454Y147781D01*
X131750Y147722D01*
Y148850D01*
D02*
G37*
G36*
X128850Y148378D02*
Y147250D01*
X129978D01*
X129919Y147546D01*
X129609Y148009D01*
X129146Y148319D01*
X128850Y148378D01*
D02*
G37*
G36*
X128350D02*
X128054Y148319D01*
X127591Y148009D01*
X127281Y147546D01*
X127222Y147250D01*
X128350D01*
Y148378D01*
D02*
G37*
G36*
X129978Y146750D02*
X128850D01*
Y145622D01*
X129146Y145681D01*
X129609Y145991D01*
X129919Y146454D01*
X129978Y146750D01*
D02*
G37*
G36*
X128350D02*
X127222D01*
X127281Y146454D01*
X127591Y145991D01*
X128054Y145681D01*
X128350Y145622D01*
Y146750D01*
D02*
G37*
G36*
X83500Y147424D02*
X83032Y147330D01*
X82635Y147065D01*
X82370Y146668D01*
X82276Y146200D01*
X82370Y145732D01*
X82635Y145335D01*
X83032Y145070D01*
X83500Y144976D01*
X83968Y145070D01*
X84365Y145335D01*
X84630Y145732D01*
X84724Y146200D01*
X84630Y146668D01*
X84365Y147065D01*
X83968Y147330D01*
X83500Y147424D01*
D02*
G37*
G36*
X74700D02*
X74232Y147330D01*
X73835Y147065D01*
X73570Y146668D01*
X73476Y146200D01*
X73570Y145732D01*
X73835Y145335D01*
X74232Y145070D01*
X74700Y144976D01*
X75168Y145070D01*
X75565Y145335D01*
X75830Y145732D01*
X75924Y146200D01*
X75830Y146668D01*
X75565Y147065D01*
X75168Y147330D01*
X74700Y147424D01*
D02*
G37*
G36*
X167100Y143423D02*
X166632Y143330D01*
X166235Y143065D01*
X165970Y142668D01*
X165876Y142200D01*
X165970Y141732D01*
X166235Y141335D01*
X166632Y141070D01*
X167100Y140977D01*
X167568Y141070D01*
X167965Y141335D01*
X168230Y141732D01*
X168324Y142200D01*
X168230Y142668D01*
X167965Y143065D01*
X167568Y143330D01*
X167100Y143423D01*
D02*
G37*
G36*
X105987Y144219D02*
X105324Y144087D01*
X104762Y143712D01*
X104386Y143150D01*
X104254Y142487D01*
X104386Y141824D01*
X104762Y141262D01*
X105324Y140886D01*
X105987Y140754D01*
X106650Y140886D01*
X107212Y141262D01*
X107587Y141824D01*
X107719Y142487D01*
X107587Y143150D01*
X107212Y143712D01*
X106650Y144087D01*
X105987Y144219D01*
D02*
G37*
G36*
X101262D02*
X100599Y144087D01*
X100037Y143712D01*
X99662Y143150D01*
X99530Y142487D01*
X99662Y141824D01*
X100037Y141262D01*
X100599Y140886D01*
X101262Y140754D01*
X101925Y140886D01*
X102487Y141262D01*
X102863Y141824D01*
X102995Y142487D01*
X102863Y143150D01*
X102487Y143712D01*
X101925Y144087D01*
X101262Y144219D01*
D02*
G37*
G36*
X96538D02*
X95875Y144087D01*
X95313Y143712D01*
X94937Y143150D01*
X94805Y142487D01*
X94937Y141824D01*
X95313Y141262D01*
X95875Y140886D01*
X96538Y140754D01*
X97201Y140886D01*
X97763Y141262D01*
X98138Y141824D01*
X98270Y142487D01*
X98138Y143150D01*
X97763Y143712D01*
X97201Y144087D01*
X96538Y144219D01*
D02*
G37*
G36*
X91813D02*
X91150Y144087D01*
X90588Y143712D01*
X90213Y143150D01*
X90081Y142487D01*
X90213Y141824D01*
X90588Y141262D01*
X91150Y140886D01*
X91813Y140754D01*
X92476Y140886D01*
X93038Y141262D01*
X93414Y141824D01*
X93546Y142487D01*
X93414Y143150D01*
X93038Y143712D01*
X92476Y144087D01*
X91813Y144219D01*
D02*
G37*
G36*
X129800Y140255D02*
X129449Y140185D01*
X129151Y139986D01*
X128952Y139688D01*
X128882Y139337D01*
X128952Y138986D01*
X129151Y138688D01*
X129449Y138489D01*
X129800Y138419D01*
X130151Y138489D01*
X130449Y138688D01*
X130648Y138986D01*
X130718Y139337D01*
X130648Y139688D01*
X130449Y139986D01*
X130151Y140185D01*
X129800Y140255D01*
D02*
G37*
G36*
X83538Y138680D02*
X83187Y138610D01*
X82889Y138411D01*
X82690Y138113D01*
X82620Y137762D01*
X82690Y137411D01*
X82889Y137113D01*
X83187Y136914D01*
X83538Y136845D01*
X83889Y136914D01*
X84187Y137113D01*
X84386Y137411D01*
X84455Y137762D01*
X84386Y138113D01*
X84187Y138411D01*
X83889Y138610D01*
X83538Y138680D01*
D02*
G37*
G36*
X73600Y138623D02*
X73132Y138530D01*
X72735Y138265D01*
X72470Y137868D01*
X72377Y137400D01*
X72470Y136932D01*
X72735Y136535D01*
X73132Y136270D01*
X73600Y136177D01*
X74068Y136270D01*
X74465Y136535D01*
X74730Y136932D01*
X74823Y137400D01*
X74730Y137868D01*
X74465Y138265D01*
X74068Y138530D01*
X73600Y138623D01*
D02*
G37*
G36*
X105987Y139495D02*
X105324Y139363D01*
X104762Y138987D01*
X104386Y138425D01*
X104254Y137762D01*
X104386Y137099D01*
X104762Y136537D01*
X105324Y136162D01*
X105987Y136030D01*
X106650Y136162D01*
X107212Y136537D01*
X107587Y137099D01*
X107719Y137762D01*
X107587Y138425D01*
X107212Y138987D01*
X106650Y139363D01*
X105987Y139495D01*
D02*
G37*
G36*
X101262D02*
X100599Y139363D01*
X100037Y138987D01*
X99662Y138425D01*
X99530Y137762D01*
X99662Y137099D01*
X100037Y136537D01*
X100599Y136162D01*
X101262Y136030D01*
X101925Y136162D01*
X102487Y136537D01*
X102863Y137099D01*
X102995Y137762D01*
X102863Y138425D01*
X102487Y138987D01*
X101925Y139363D01*
X101262Y139495D01*
D02*
G37*
G36*
X96538D02*
X95875Y139363D01*
X95313Y138987D01*
X94937Y138425D01*
X94805Y137762D01*
X94937Y137099D01*
X95313Y136537D01*
X95875Y136162D01*
X96538Y136030D01*
X97201Y136162D01*
X97763Y136537D01*
X98138Y137099D01*
X98270Y137762D01*
X98138Y138425D01*
X97763Y138987D01*
X97201Y139363D01*
X96538Y139495D01*
D02*
G37*
G36*
X91813D02*
X91150Y139363D01*
X90588Y138987D01*
X90213Y138425D01*
X90081Y137762D01*
X90213Y137099D01*
X90588Y136537D01*
X91150Y136162D01*
X91813Y136030D01*
X92476Y136162D01*
X93038Y136537D01*
X93414Y137099D01*
X93546Y137762D01*
X93414Y138425D01*
X93038Y138987D01*
X92476Y139363D01*
X91813Y139495D01*
D02*
G37*
G36*
X133800Y137118D02*
X133449Y137048D01*
X133151Y136849D01*
X132952Y136551D01*
X132882Y136200D01*
X132952Y135849D01*
X133151Y135551D01*
X133449Y135352D01*
X133800Y135282D01*
X134151Y135352D01*
X134449Y135551D01*
X134648Y135849D01*
X134718Y136200D01*
X134648Y136551D01*
X134449Y136849D01*
X134151Y137048D01*
X133800Y137118D01*
D02*
G37*
G36*
X143887Y135530D02*
X143536Y135460D01*
X143238Y135261D01*
X143040Y134964D01*
X142970Y134613D01*
X143040Y134261D01*
X143238Y133964D01*
X143536Y133765D01*
X143887Y133695D01*
X144239Y133765D01*
X144536Y133964D01*
X144735Y134261D01*
X144805Y134613D01*
X144735Y134964D01*
X144536Y135261D01*
X144239Y135460D01*
X143887Y135530D01*
D02*
G37*
G36*
X141900Y134018D02*
X141549Y133948D01*
X141251Y133749D01*
X141052Y133451D01*
X140982Y133100D01*
X141052Y132749D01*
X141251Y132451D01*
X141549Y132252D01*
X141900Y132182D01*
X142251Y132252D01*
X142549Y132451D01*
X142748Y132749D01*
X142818Y133100D01*
X142748Y133451D01*
X142549Y133749D01*
X142251Y133948D01*
X141900Y134018D01*
D02*
G37*
G36*
X139150Y132878D02*
Y131750D01*
X140278D01*
X140219Y132046D01*
X139909Y132509D01*
X139446Y132819D01*
X139150Y132878D01*
D02*
G37*
G36*
X138650D02*
X138354Y132819D01*
X137891Y132509D01*
X137581Y132046D01*
X137522Y131750D01*
X138650D01*
Y132878D01*
D02*
G37*
G36*
X105987Y134770D02*
X105324Y134638D01*
X104762Y134263D01*
X104386Y133701D01*
X104254Y133038D01*
X104386Y132375D01*
X104762Y131813D01*
X105324Y131437D01*
X105987Y131305D01*
X106650Y131437D01*
X107212Y131813D01*
X107587Y132375D01*
X107719Y133038D01*
X107587Y133701D01*
X107212Y134263D01*
X106650Y134638D01*
X105987Y134770D01*
D02*
G37*
G36*
X101262D02*
X100599Y134638D01*
X100037Y134263D01*
X99662Y133701D01*
X99530Y133038D01*
X99662Y132375D01*
X100037Y131813D01*
X100599Y131437D01*
X101262Y131305D01*
X101925Y131437D01*
X102487Y131813D01*
X102863Y132375D01*
X102995Y133038D01*
X102863Y133701D01*
X102487Y134263D01*
X101925Y134638D01*
X101262Y134770D01*
D02*
G37*
G36*
X96538D02*
X95875Y134638D01*
X95313Y134263D01*
X94937Y133701D01*
X94805Y133038D01*
X94937Y132375D01*
X95313Y131813D01*
X95875Y131437D01*
X96538Y131305D01*
X97201Y131437D01*
X97763Y131813D01*
X98138Y132375D01*
X98270Y133038D01*
X98138Y133701D01*
X97763Y134263D01*
X97201Y134638D01*
X96538Y134770D01*
D02*
G37*
G36*
X91813D02*
X91150Y134638D01*
X90588Y134263D01*
X90213Y133701D01*
X90081Y133038D01*
X90213Y132375D01*
X90588Y131813D01*
X91150Y131437D01*
X91813Y131305D01*
X92476Y131437D01*
X93038Y131813D01*
X93414Y132375D01*
X93546Y133038D01*
X93414Y133701D01*
X93038Y134263D01*
X92476Y134638D01*
X91813Y134770D01*
D02*
G37*
G36*
X138650Y131250D02*
X137522D01*
X137581Y130954D01*
X137891Y130491D01*
X138354Y130181D01*
X138650Y130122D01*
Y131250D01*
D02*
G37*
G36*
X84363Y131261D02*
X83895Y131167D01*
X83498Y130902D01*
X83233Y130505D01*
X83139Y130037D01*
X83233Y129569D01*
X83498Y129172D01*
X83895Y128907D01*
X84363Y128814D01*
X84831Y128907D01*
X85228Y129172D01*
X85493Y129569D01*
X85587Y130037D01*
X85493Y130505D01*
X85228Y130902D01*
X84831Y131167D01*
X84363Y131261D01*
D02*
G37*
G36*
X140278Y131250D02*
X139150D01*
Y130122D01*
X139322Y130156D01*
X139613Y129833D01*
X139652Y129751D01*
X139652Y129751D01*
X139582Y129400D01*
X139652Y129049D01*
X139851Y128751D01*
X140149Y128552D01*
X140500Y128482D01*
X140851Y128552D01*
X141149Y128751D01*
X141348Y129049D01*
X141418Y129400D01*
X141348Y129751D01*
X141149Y130049D01*
X140851Y130248D01*
X140500Y130318D01*
X140379Y130294D01*
X140078Y130744D01*
X140219Y130954D01*
X140278Y131250D01*
D02*
G37*
G36*
X78900Y130224D02*
X78432Y130130D01*
X78035Y129865D01*
X77770Y129468D01*
X77676Y129000D01*
X77770Y128532D01*
X78035Y128135D01*
X78432Y127870D01*
X78900Y127777D01*
X79368Y127870D01*
X79765Y128135D01*
X80030Y128532D01*
X80124Y129000D01*
X80030Y129468D01*
X79765Y129865D01*
X79368Y130130D01*
X78900Y130224D01*
D02*
G37*
G36*
X105987Y130046D02*
X105324Y129914D01*
X104762Y129538D01*
X104386Y128976D01*
X104254Y128313D01*
X104386Y127650D01*
X104762Y127088D01*
X105324Y126713D01*
X105987Y126581D01*
X106650Y126713D01*
X107212Y127088D01*
X107587Y127650D01*
X107719Y128313D01*
X107587Y128976D01*
X107212Y129538D01*
X106650Y129914D01*
X105987Y130046D01*
D02*
G37*
G36*
X101262D02*
X100599Y129914D01*
X100037Y129538D01*
X99662Y128976D01*
X99530Y128313D01*
X99662Y127650D01*
X100037Y127088D01*
X100599Y126713D01*
X101262Y126581D01*
X101925Y126713D01*
X102487Y127088D01*
X102863Y127650D01*
X102995Y128313D01*
X102863Y128976D01*
X102487Y129538D01*
X101925Y129914D01*
X101262Y130046D01*
D02*
G37*
G36*
X96538D02*
X95875Y129914D01*
X95313Y129538D01*
X94937Y128976D01*
X94805Y128313D01*
X94937Y127650D01*
X95313Y127088D01*
X95875Y126713D01*
X96538Y126581D01*
X97201Y126713D01*
X97763Y127088D01*
X98138Y127650D01*
X98270Y128313D01*
X98138Y128976D01*
X97763Y129538D01*
X97201Y129914D01*
X96538Y130046D01*
D02*
G37*
G36*
X91813D02*
X91150Y129914D01*
X90588Y129538D01*
X90213Y128976D01*
X90081Y128313D01*
X90213Y127650D01*
X90588Y127088D01*
X91150Y126713D01*
X91813Y126581D01*
X92476Y126713D01*
X93038Y127088D01*
X93414Y127650D01*
X93546Y128313D01*
X93414Y128976D01*
X93038Y129538D01*
X92476Y129914D01*
X91813Y130046D01*
D02*
G37*
G36*
X80698Y126126D02*
X80229Y126033D01*
X79833Y125768D01*
X79567Y125371D01*
X79474Y124902D01*
X79567Y124434D01*
X79833Y124037D01*
X80229Y123772D01*
X80698Y123679D01*
X81166Y123772D01*
X81563Y124037D01*
X81828Y124434D01*
X81921Y124902D01*
X81828Y125371D01*
X81563Y125768D01*
X81166Y126033D01*
X80698Y126126D01*
D02*
G37*
G36*
X117702Y125624D02*
X117273Y125539D01*
X116909Y125295D01*
X116666Y124932D01*
X116581Y124502D01*
X116666Y124073D01*
X116909Y123709D01*
X117273Y123466D01*
X117702Y123381D01*
X118132Y123466D01*
X118495Y123709D01*
X118738Y124073D01*
X118824Y124502D01*
X118738Y124932D01*
X118495Y125295D01*
X118132Y125539D01*
X117702Y125624D01*
D02*
G37*
G36*
X202081Y119105D02*
X201613Y119011D01*
X201216Y118746D01*
X200951Y118349D01*
X200858Y117881D01*
X200951Y117413D01*
X201216Y117016D01*
X201613Y116751D01*
X202081Y116658D01*
X202549Y116751D01*
X202946Y117016D01*
X203211Y117413D01*
X203305Y117881D01*
X203211Y118349D01*
X202946Y118746D01*
X202549Y119011D01*
X202081Y119105D01*
D02*
G37*
G36*
X95500Y117123D02*
X95032Y117030D01*
X94635Y116765D01*
X94370Y116368D01*
X94276Y115900D01*
X94370Y115432D01*
X94635Y115035D01*
X95032Y114770D01*
X95500Y114676D01*
X95968Y114770D01*
X96365Y115035D01*
X96630Y115432D01*
X96724Y115900D01*
X96630Y116368D01*
X96365Y116765D01*
X95968Y117030D01*
X95500Y117123D01*
D02*
G37*
G36*
X214400Y116724D02*
X213932Y116630D01*
X213535Y116365D01*
X213270Y115968D01*
X213176Y115500D01*
X213270Y115032D01*
X213535Y114635D01*
X213932Y114370D01*
X214400Y114277D01*
X214868Y114370D01*
X215265Y114635D01*
X215530Y115032D01*
X215623Y115500D01*
X215530Y115968D01*
X215265Y116365D01*
X214868Y116630D01*
X214400Y116724D01*
D02*
G37*
G36*
X123432Y114076D02*
X122964Y113983D01*
X122567Y113718D01*
X122302Y113321D01*
X122209Y112853D01*
X122302Y112384D01*
X122567Y111988D01*
X122964Y111722D01*
X123432Y111629D01*
X123900Y111722D01*
X124297Y111988D01*
X124399Y112139D01*
X132332D01*
X132535Y111835D01*
X132932Y111570D01*
X133400Y111477D01*
X133868Y111570D01*
X134265Y111835D01*
X134530Y112232D01*
X134624Y112700D01*
X134530Y113168D01*
X134265Y113565D01*
X133868Y113830D01*
X133400Y113924D01*
X132932Y113830D01*
X132537Y113567D01*
X124399D01*
X124297Y113718D01*
X123900Y113983D01*
X123432Y114076D01*
D02*
G37*
G36*
X90402Y111124D02*
X89973Y111038D01*
X89609Y110795D01*
X89366Y110432D01*
X89281Y110002D01*
X89366Y109573D01*
X89609Y109209D01*
X89973Y108966D01*
X90402Y108881D01*
X90832Y108966D01*
X91195Y109209D01*
X91439Y109573D01*
X91524Y110002D01*
X91439Y110432D01*
X91195Y110795D01*
X90832Y111038D01*
X90402Y111124D01*
D02*
G37*
G36*
X140550Y109878D02*
Y108750D01*
X141678D01*
X141619Y109046D01*
X141309Y109509D01*
X140846Y109819D01*
X140550Y109878D01*
D02*
G37*
G36*
X140050D02*
X139754Y109819D01*
X139291Y109509D01*
X138981Y109046D01*
X138922Y108750D01*
X140050D01*
Y109878D01*
D02*
G37*
G36*
X219489Y110416D02*
X218943Y110308D01*
X218480Y109998D01*
X218170Y109535D01*
X218062Y108989D01*
X218170Y108443D01*
X218480Y107980D01*
X218943Y107670D01*
X219489Y107562D01*
X220035Y107670D01*
X220498Y107980D01*
X220808Y108443D01*
X220917Y108989D01*
X220808Y109535D01*
X220498Y109998D01*
X220035Y110308D01*
X219489Y110416D01*
D02*
G37*
G36*
X141678Y108250D02*
X140550D01*
Y107122D01*
X140846Y107181D01*
X141309Y107491D01*
X141619Y107954D01*
X141678Y108250D01*
D02*
G37*
G36*
X140050D02*
X138922D01*
X138981Y107954D01*
X139291Y107491D01*
X139754Y107181D01*
X140050Y107122D01*
Y108250D01*
D02*
G37*
G36*
X210350Y105776D02*
Y104750D01*
X211376D01*
X211325Y105007D01*
X211037Y105437D01*
X210607Y105725D01*
X210350Y105776D01*
D02*
G37*
G36*
X209850D02*
X209593Y105725D01*
X209163Y105437D01*
X208875Y105007D01*
X208824Y104750D01*
X209850D01*
Y105776D01*
D02*
G37*
G36*
X123800Y106122D02*
X123371Y106036D01*
X123007Y105793D01*
X122764Y105429D01*
X122678Y105000D01*
X122764Y104571D01*
X123007Y104207D01*
X123371Y103964D01*
X123800Y103878D01*
X124229Y103964D01*
X124593Y104207D01*
X124836Y104571D01*
X124922Y105000D01*
X124836Y105429D01*
X124593Y105793D01*
X124229Y106036D01*
X123800Y106122D01*
D02*
G37*
G36*
X194200Y106969D02*
X193537Y106838D01*
X192975Y106462D01*
X192599Y105900D01*
X192467Y105237D01*
X192599Y104574D01*
X192975Y104012D01*
X193537Y103636D01*
X194200Y103505D01*
X194863Y103636D01*
X195425Y104012D01*
X195801Y104574D01*
X195932Y105237D01*
X195801Y105900D01*
X195425Y106462D01*
X194863Y106838D01*
X194200Y106969D01*
D02*
G37*
G36*
X119475Y106051D02*
X118968Y105950D01*
X118538Y105662D01*
X118250Y105232D01*
X118149Y104725D01*
X118250Y104218D01*
X118538Y103788D01*
X118968Y103501D01*
X119475Y103400D01*
X119982Y103501D01*
X120412Y103788D01*
X120699Y104218D01*
X120800Y104725D01*
X120699Y105232D01*
X120412Y105662D01*
X119982Y105950D01*
X119475Y106051D01*
D02*
G37*
G36*
X101400Y105622D02*
X100971Y105536D01*
X100607Y105293D01*
X100364Y104929D01*
X100278Y104500D01*
X100364Y104071D01*
X100607Y103707D01*
X100971Y103464D01*
X101400Y103378D01*
X101829Y103464D01*
X102193Y103707D01*
X102436Y104071D01*
X102522Y104500D01*
X102436Y104929D01*
X102193Y105293D01*
X101829Y105536D01*
X101400Y105622D01*
D02*
G37*
G36*
X211376Y104250D02*
X210350D01*
Y103224D01*
X210607Y103275D01*
X211037Y103563D01*
X211325Y103993D01*
X211376Y104250D01*
D02*
G37*
G36*
X209850D02*
X208824D01*
X208875Y103993D01*
X209163Y103563D01*
X209593Y103275D01*
X209850Y103224D01*
Y104250D01*
D02*
G37*
G36*
X148550Y102180D02*
Y100950D01*
X149780D01*
X149713Y101285D01*
X149381Y101781D01*
X148885Y102113D01*
X148550Y102180D01*
D02*
G37*
G36*
X148050D02*
X147715Y102113D01*
X147219Y101781D01*
X146887Y101285D01*
X146820Y100950D01*
X148050D01*
Y102180D01*
D02*
G37*
G36*
X216600Y103323D02*
X216132Y103230D01*
X215735Y102965D01*
X215470Y102568D01*
X215376Y102100D01*
X215470Y101632D01*
X215735Y101235D01*
X216132Y100970D01*
X216600Y100876D01*
X217068Y100970D01*
X217465Y101235D01*
X217730Y101632D01*
X217824Y102100D01*
X217730Y102568D01*
X217465Y102965D01*
X217068Y103230D01*
X216600Y103323D01*
D02*
G37*
G36*
X198137Y103033D02*
X197474Y102901D01*
X196912Y102525D01*
X196536Y101963D01*
X196405Y101300D01*
X196536Y100637D01*
X196912Y100075D01*
X197474Y99699D01*
X198137Y99568D01*
X198800Y99699D01*
X199362Y100075D01*
X199738Y100637D01*
X199870Y101300D01*
X199738Y101963D01*
X199362Y102525D01*
X198800Y102901D01*
X198137Y103033D01*
D02*
G37*
G36*
X194200D02*
X193537Y102901D01*
X192975Y102525D01*
X192599Y101963D01*
X192467Y101300D01*
X192599Y100637D01*
X192975Y100075D01*
X193537Y99699D01*
X194200Y99568D01*
X194863Y99699D01*
X195425Y100075D01*
X195801Y100637D01*
X195932Y101300D01*
X195801Y101963D01*
X195425Y102525D01*
X194863Y102901D01*
X194200Y103033D01*
D02*
G37*
G36*
X190263D02*
X189600Y102901D01*
X189038Y102525D01*
X188662Y101963D01*
X188531Y101300D01*
X188662Y100637D01*
X189038Y100075D01*
X189600Y99699D01*
X190263Y99568D01*
X190926Y99699D01*
X191488Y100075D01*
X191864Y100637D01*
X191996Y101300D01*
X191864Y101963D01*
X191488Y102525D01*
X190926Y102901D01*
X190263Y103033D01*
D02*
G37*
G36*
X176500Y101724D02*
X176032Y101630D01*
X175635Y101365D01*
X175370Y100968D01*
X175277Y100500D01*
X175370Y100032D01*
X175635Y99635D01*
X176032Y99370D01*
X176500Y99277D01*
X176968Y99370D01*
X177365Y99635D01*
X177630Y100032D01*
X177724Y100500D01*
X177630Y100968D01*
X177365Y101365D01*
X176968Y101630D01*
X176500Y101724D01*
D02*
G37*
G36*
X149780Y100450D02*
X148550D01*
Y99220D01*
X148885Y99287D01*
X149381Y99619D01*
X149713Y100115D01*
X149780Y100450D01*
D02*
G37*
G36*
X148050D02*
X146820D01*
X146887Y100115D01*
X147219Y99619D01*
X147715Y99287D01*
X148050Y99220D01*
Y100450D01*
D02*
G37*
G36*
X176050Y98676D02*
Y97650D01*
X177076D01*
X177025Y97907D01*
X176737Y98337D01*
X176307Y98625D01*
X176050Y98676D01*
D02*
G37*
G36*
X175550D02*
X175293Y98625D01*
X174863Y98337D01*
X174575Y97907D01*
X174524Y97650D01*
X175550D01*
Y98676D01*
D02*
G37*
G36*
X223716Y97813D02*
Y96584D01*
X224946D01*
X224879Y96919D01*
X224548Y97415D01*
X224051Y97747D01*
X223716Y97813D01*
D02*
G37*
G36*
X223216D02*
X222881Y97747D01*
X222385Y97415D01*
X222053Y96919D01*
X221987Y96584D01*
X223216D01*
Y97813D01*
D02*
G37*
G36*
X177076Y97150D02*
X176050D01*
Y96124D01*
X176307Y96175D01*
X176737Y96463D01*
X177025Y96893D01*
X177076Y97150D01*
D02*
G37*
G36*
X175550D02*
X174524D01*
X174575Y96893D01*
X174863Y96463D01*
X175293Y96175D01*
X175550Y96124D01*
Y97150D01*
D02*
G37*
G36*
X194200Y99095D02*
X193537Y98964D01*
X192975Y98588D01*
X192599Y98026D01*
X192467Y97363D01*
X192599Y96700D01*
X192975Y96138D01*
X193537Y95762D01*
X194200Y95631D01*
X194863Y95762D01*
X195425Y96138D01*
X195801Y96700D01*
X195932Y97363D01*
X195801Y98026D01*
X195425Y98588D01*
X194863Y98964D01*
X194200Y99095D01*
D02*
G37*
G36*
X224946Y96084D02*
X223716D01*
Y94854D01*
X224051Y94921D01*
X224548Y95252D01*
X224879Y95749D01*
X224946Y96084D01*
D02*
G37*
G36*
X223216D02*
X221987D01*
X222053Y95749D01*
X222385Y95252D01*
X222881Y94921D01*
X223216Y94854D01*
Y96084D01*
D02*
G37*
G36*
X198137Y112961D02*
X197669Y112867D01*
X197272Y112602D01*
X197007Y112205D01*
X196914Y111737D01*
X197007Y111269D01*
X197272Y110872D01*
X197669Y110607D01*
X198137Y110513D01*
X198301Y110546D01*
X200984Y107862D01*
Y94198D01*
X200935Y94165D01*
X200670Y93768D01*
X200576Y93300D01*
X200588Y93242D01*
X198175Y90828D01*
X194311D01*
X194278Y90878D01*
X193881Y91143D01*
X193413Y91236D01*
X192944Y91143D01*
X192548Y90878D01*
X192282Y90481D01*
X192189Y90013D01*
X192282Y89544D01*
X192548Y89148D01*
X192944Y88882D01*
X193413Y88789D01*
X193881Y88882D01*
X194278Y89148D01*
X194311Y89197D01*
X198513D01*
X198513Y89197D01*
X198825Y89259D01*
X199089Y89436D01*
X201742Y92088D01*
X201800Y92076D01*
X202268Y92170D01*
X202665Y92435D01*
X202930Y92832D01*
X203024Y93300D01*
X202930Y93768D01*
X202665Y94165D01*
X202616Y94198D01*
Y108200D01*
X202616Y108200D01*
X202554Y108512D01*
X202377Y108777D01*
X202377Y108777D01*
X199347Y111807D01*
X199267Y112205D01*
X199002Y112602D01*
X198605Y112867D01*
X198137Y112961D01*
D02*
G37*
G36*
X179500Y92023D02*
X179032Y91930D01*
X178635Y91665D01*
X178370Y91268D01*
X178277Y90800D01*
X178370Y90332D01*
X178635Y89935D01*
X179032Y89670D01*
X179500Y89577D01*
X179968Y89670D01*
X180365Y89935D01*
X180630Y90332D01*
X180724Y90800D01*
X180630Y91268D01*
X180365Y91665D01*
X179968Y91930D01*
X179500Y92023D01*
D02*
G37*
%LPD*%
D59*
X193413Y90013D02*
X198513D01*
X198137Y111737D02*
X198263D01*
X201800Y108200D01*
Y93300D02*
Y108200D01*
X198513Y90013D02*
X201800Y93300D01*
D60*
X78900Y13800D02*
Y66200D01*
X68000Y15000D02*
X69100Y13900D01*
X54300Y34400D02*
X58900Y29800D01*
X52712Y16650D02*
X52978Y16384D01*
X56333Y13609D02*
X57300Y13700D01*
X52978Y16384D02*
X56333Y13609D01*
X184000Y143000D02*
X229200D01*
X162400Y121400D02*
X184000Y143000D01*
X160100Y116500D02*
X176900Y133300D01*
X217300D01*
X125232Y156869D02*
X137926D01*
X181853Y181253D02*
X201947D01*
X177362Y175347D02*
X202253D01*
X175528Y172100D02*
X202400D01*
X137926Y160805D02*
X139906D01*
X141900Y165000D02*
X165600D01*
X181853Y181253D01*
X165814Y163800D02*
X177362Y175347D01*
X139906Y160805D02*
X141600Y162500D01*
X165928D01*
X139800Y163800D02*
X165814D01*
X165928Y162500D02*
X175528Y172100D01*
X222235Y171735D02*
X230365D01*
X221000Y170500D02*
X222235Y171735D01*
X175600Y170500D02*
X221000D01*
X166300Y161200D02*
X175600Y170500D01*
X147800Y161200D02*
X166300D01*
X145800Y159200D02*
X147800Y161200D01*
X145800Y156869D02*
Y159200D01*
X135900Y152989D02*
Y153800D01*
X137700Y155600D01*
X144532D01*
X145800Y156869D01*
X175849Y169335D02*
X226035D01*
X166657Y160143D02*
X175849Y169335D01*
X148157Y160143D02*
X166657D01*
X146800Y158786D02*
X148157Y160143D01*
X146800Y156454D02*
Y158786D01*
X144946Y154600D02*
X146800Y156454D01*
X138900Y154600D02*
X144946D01*
X137926Y153626D02*
X138900Y154600D01*
X137926Y152931D02*
Y153626D01*
X175728Y167800D02*
X220200D01*
X167071Y159143D02*
X175728Y167800D01*
X148571Y159143D02*
X167071D01*
X147800Y158372D02*
X148571Y159143D01*
X147800Y156040D02*
Y158372D01*
X145360Y153600D02*
X147800Y156040D01*
X140563Y153600D02*
X145360D01*
X139894Y152931D02*
X140563Y153600D01*
X52712Y16650D02*
Y150288D01*
X54300Y34400D02*
Y144100D01*
X56300Y78900D02*
Y142487D01*
Y78900D02*
X68000Y67200D01*
Y15000D02*
Y67200D01*
X58100Y83400D02*
Y140912D01*
Y83400D02*
X74100Y67400D01*
X59900Y85200D02*
Y139337D01*
Y85200D02*
X78900Y66200D01*
X123432Y112853D02*
X133247D01*
X98200Y116500D02*
X160100D01*
X99700Y121400D02*
X162400D01*
X51400Y179700D02*
X55400D01*
X76600Y185300D02*
X78300D01*
X80000Y181600D02*
Y183600D01*
X78300Y185300D02*
X80000Y183600D01*
X85400Y164400D02*
X103700D01*
X83900Y162700D02*
X108000D01*
X101262Y150500D02*
X113500D01*
X140800Y123200D01*
X161600D01*
X99687Y152000D02*
X113414D01*
X140714Y124700D01*
X163000D01*
D66*
X262383Y104431D02*
D03*
X262186Y124116D02*
D03*
D67*
X273800Y100100D02*
D03*
X273798Y128446D02*
D03*
D68*
X91813Y142487D02*
D03*
X96538D02*
D03*
X101262D02*
D03*
X105987D02*
D03*
X91813Y137762D02*
D03*
X96538D02*
D03*
X101262D02*
D03*
X105987D02*
D03*
X91813Y133038D02*
D03*
X96538D02*
D03*
X101262D02*
D03*
X105987D02*
D03*
X91813Y128313D02*
D03*
X96538D02*
D03*
X101262D02*
D03*
X105987D02*
D03*
X190263Y101300D02*
D03*
X198137D02*
D03*
X194200Y97363D02*
D03*
Y105237D02*
D03*
Y101300D02*
D03*
D69*
X148300Y100700D02*
D03*
X219489Y108989D02*
D03*
X223466Y96334D02*
D03*
D70*
X19800Y223200D02*
D03*
X17600D02*
D03*
X15400D02*
D03*
X13200D02*
D03*
X11000D02*
D03*
X8800D02*
D03*
X6600D02*
D03*
X38200Y223300D02*
D03*
X36000D02*
D03*
X33800D02*
D03*
X31600D02*
D03*
X29400D02*
D03*
X27200D02*
D03*
X25000D02*
D03*
X22400D02*
D03*
X47900D02*
D03*
X45700D02*
D03*
X43500D02*
D03*
X40900D02*
D03*
X114800Y222400D02*
D03*
X112600D02*
D03*
X110400D02*
D03*
X108200D02*
D03*
X106000D02*
D03*
X103800D02*
D03*
X101600D02*
D03*
X133200Y222500D02*
D03*
X131000D02*
D03*
X128800D02*
D03*
X126600D02*
D03*
X124400D02*
D03*
X122200D02*
D03*
X120000D02*
D03*
X117400D02*
D03*
X142900D02*
D03*
X140700D02*
D03*
X138500D02*
D03*
X135900D02*
D03*
X159200Y222400D02*
D03*
X157000D02*
D03*
X154800D02*
D03*
X152600D02*
D03*
X150400D02*
D03*
X148200D02*
D03*
X146000D02*
D03*
X177600Y222500D02*
D03*
X175400D02*
D03*
X173200D02*
D03*
X171000D02*
D03*
X168800D02*
D03*
X166600D02*
D03*
X164400D02*
D03*
X161800D02*
D03*
X187300D02*
D03*
X185100D02*
D03*
X182900D02*
D03*
X180300D02*
D03*
X203200D02*
D03*
X201000D02*
D03*
X198800D02*
D03*
X196600D02*
D03*
X194400D02*
D03*
X192200D02*
D03*
X190000D02*
D03*
X221600Y222600D02*
D03*
X219400D02*
D03*
X217200D02*
D03*
X215000D02*
D03*
X212800D02*
D03*
X210600D02*
D03*
X208400D02*
D03*
X205800D02*
D03*
X231300D02*
D03*
X229100D02*
D03*
X226900D02*
D03*
X224300D02*
D03*
X268300Y222800D02*
D03*
X270900D02*
D03*
X273100D02*
D03*
X275300D02*
D03*
X249800D02*
D03*
X252400D02*
D03*
X254600D02*
D03*
X256800D02*
D03*
X259000D02*
D03*
X261200D02*
D03*
X263400D02*
D03*
X265600D02*
D03*
X234000Y222700D02*
D03*
X236200D02*
D03*
X238400D02*
D03*
X240600D02*
D03*
X242800D02*
D03*
X245000D02*
D03*
X247200D02*
D03*
X276800Y175900D02*
D03*
Y173300D02*
D03*
Y171100D02*
D03*
Y168900D02*
D03*
Y194400D02*
D03*
Y191800D02*
D03*
Y189600D02*
D03*
Y187400D02*
D03*
Y185200D02*
D03*
Y183000D02*
D03*
Y180800D02*
D03*
Y178600D02*
D03*
X276700Y210200D02*
D03*
Y208000D02*
D03*
Y205800D02*
D03*
Y203600D02*
D03*
Y201400D02*
D03*
Y199200D02*
D03*
Y197000D02*
D03*
X276800Y14300D02*
D03*
Y11700D02*
D03*
Y9500D02*
D03*
Y7300D02*
D03*
Y32800D02*
D03*
Y30200D02*
D03*
Y28000D02*
D03*
Y25800D02*
D03*
Y23600D02*
D03*
Y21400D02*
D03*
Y19200D02*
D03*
Y17000D02*
D03*
X276700Y48600D02*
D03*
Y46400D02*
D03*
Y44200D02*
D03*
Y42000D02*
D03*
Y39800D02*
D03*
Y37600D02*
D03*
Y35400D02*
D03*
X261800Y3300D02*
D03*
X264000D02*
D03*
X266200D02*
D03*
X268400D02*
D03*
X270600D02*
D03*
X272800D02*
D03*
X275000D02*
D03*
X243400Y3200D02*
D03*
X245600D02*
D03*
X247800D02*
D03*
X250000D02*
D03*
X252200D02*
D03*
X254400D02*
D03*
X256600D02*
D03*
X259200D02*
D03*
X224900D02*
D03*
X227100D02*
D03*
X229300D02*
D03*
X231500D02*
D03*
X233700D02*
D03*
X235900D02*
D03*
X238100D02*
D03*
X240700D02*
D03*
X206500Y3100D02*
D03*
X208700D02*
D03*
X210900D02*
D03*
X213100D02*
D03*
X215300D02*
D03*
X217500D02*
D03*
X219700D02*
D03*
X222300D02*
D03*
X188000Y3000D02*
D03*
X190200D02*
D03*
X192400D02*
D03*
X194600D02*
D03*
X196800D02*
D03*
X199000D02*
D03*
X201200D02*
D03*
X203800D02*
D03*
X168800Y3100D02*
D03*
X171000D02*
D03*
X173200D02*
D03*
X175400D02*
D03*
X177600D02*
D03*
X179800D02*
D03*
X182000D02*
D03*
X184600D02*
D03*
X150400Y3000D02*
D03*
X152600D02*
D03*
X154800D02*
D03*
X157000D02*
D03*
X159200D02*
D03*
X161400D02*
D03*
X163600D02*
D03*
X166200D02*
D03*
X131900D02*
D03*
X134100D02*
D03*
X136300D02*
D03*
X138500D02*
D03*
X140700D02*
D03*
X142900D02*
D03*
X145100D02*
D03*
X147700D02*
D03*
X113500Y2900D02*
D03*
X115700D02*
D03*
X117900D02*
D03*
X120100D02*
D03*
X122300D02*
D03*
X124500D02*
D03*
X126700D02*
D03*
X129300D02*
D03*
X95000Y2800D02*
D03*
X97200D02*
D03*
X99400D02*
D03*
X101600D02*
D03*
X103800D02*
D03*
X106000D02*
D03*
X108200D02*
D03*
X110800D02*
D03*
X18300Y2500D02*
D03*
X15700D02*
D03*
X13500D02*
D03*
X11300D02*
D03*
X9100D02*
D03*
X6900D02*
D03*
X4700D02*
D03*
X2500D02*
D03*
X36800Y2600D02*
D03*
X34200D02*
D03*
X32000D02*
D03*
X29800D02*
D03*
X27600D02*
D03*
X25400D02*
D03*
X23200D02*
D03*
X21000D02*
D03*
X55200Y2700D02*
D03*
X52600D02*
D03*
X50400D02*
D03*
X48200D02*
D03*
X46000D02*
D03*
X43800D02*
D03*
X41600D02*
D03*
X39400D02*
D03*
X73700D02*
D03*
X71100D02*
D03*
X68900D02*
D03*
X66700D02*
D03*
X64500D02*
D03*
X62300D02*
D03*
X60100D02*
D03*
X57900D02*
D03*
X92100Y2800D02*
D03*
X89500D02*
D03*
X87300D02*
D03*
X85100D02*
D03*
X82900D02*
D03*
X80700D02*
D03*
X78500D02*
D03*
X76300D02*
D03*
X2200Y223100D02*
D03*
Y220900D02*
D03*
Y218700D02*
D03*
Y216100D02*
D03*
Y213300D02*
D03*
Y211100D02*
D03*
Y208900D02*
D03*
Y206700D02*
D03*
Y204500D02*
D03*
Y202300D02*
D03*
Y200100D02*
D03*
Y197500D02*
D03*
Y194700D02*
D03*
Y192500D02*
D03*
Y190300D02*
D03*
Y188100D02*
D03*
Y185900D02*
D03*
Y183700D02*
D03*
Y181500D02*
D03*
Y178900D02*
D03*
X2300Y176000D02*
D03*
Y173800D02*
D03*
Y171600D02*
D03*
Y169400D02*
D03*
Y167200D02*
D03*
Y165000D02*
D03*
Y162800D02*
D03*
Y160200D02*
D03*
X2500Y21200D02*
D03*
Y19000D02*
D03*
Y16800D02*
D03*
Y14600D02*
D03*
Y12400D02*
D03*
Y10200D02*
D03*
Y8000D02*
D03*
Y5400D02*
D03*
X2400Y39600D02*
D03*
Y37400D02*
D03*
Y35200D02*
D03*
Y33000D02*
D03*
Y30800D02*
D03*
Y28600D02*
D03*
Y26400D02*
D03*
Y23800D02*
D03*
Y58100D02*
D03*
Y55900D02*
D03*
Y53700D02*
D03*
Y51500D02*
D03*
Y49300D02*
D03*
Y47100D02*
D03*
Y44900D02*
D03*
Y42300D02*
D03*
X2300Y76500D02*
D03*
Y74300D02*
D03*
Y72100D02*
D03*
Y69900D02*
D03*
Y67700D02*
D03*
Y65500D02*
D03*
Y63300D02*
D03*
Y60700D02*
D03*
X2200Y95000D02*
D03*
Y92800D02*
D03*
Y90600D02*
D03*
Y88400D02*
D03*
Y86200D02*
D03*
Y84000D02*
D03*
Y81800D02*
D03*
Y79200D02*
D03*
X2300Y113400D02*
D03*
Y111200D02*
D03*
Y109000D02*
D03*
Y106800D02*
D03*
Y104600D02*
D03*
Y102400D02*
D03*
Y100200D02*
D03*
Y97600D02*
D03*
Y131500D02*
D03*
Y129300D02*
D03*
Y127100D02*
D03*
Y124900D02*
D03*
Y122700D02*
D03*
Y120500D02*
D03*
Y118300D02*
D03*
Y115700D02*
D03*
X193489Y75911D02*
D03*
X176500Y100500D02*
D03*
X175800Y97400D02*
D03*
X179500Y90800D02*
D03*
X207500Y65300D02*
D03*
X214400Y115500D02*
D03*
X193413Y90013D02*
D03*
X198137Y111737D02*
D03*
X202081Y117881D02*
D03*
X189800Y81000D02*
D03*
X201800Y93300D02*
D03*
X210100Y104500D02*
D03*
X216600Y102100D02*
D03*
X188100Y69500D02*
D03*
X174900Y43800D02*
D03*
X246389Y124311D02*
D03*
X218726Y28674D02*
D03*
X207774D02*
D03*
X78900Y13800D02*
D03*
X69100Y13900D02*
D03*
X57300Y13700D02*
D03*
X17500Y167200D02*
D03*
X83500Y146200D02*
D03*
X74700D02*
D03*
X3835Y139140D02*
D03*
Y141740D02*
D03*
Y143940D02*
D03*
Y146140D02*
D03*
Y148340D02*
D03*
Y150540D02*
D03*
Y152740D02*
D03*
Y154940D02*
D03*
X10635Y156740D02*
D03*
X12935D02*
D03*
X15435D02*
D03*
X17835Y153940D02*
D03*
Y151340D02*
D03*
Y148740D02*
D03*
Y146540D02*
D03*
Y143940D02*
D03*
Y141740D02*
D03*
Y139540D02*
D03*
Y136940D02*
D03*
X120600Y168284D02*
D03*
X177188Y74712D02*
D03*
X95600Y181900D02*
D03*
X87500Y178400D02*
D03*
X68500Y175700D02*
D03*
X100150Y159150D02*
D03*
X52712Y150288D02*
D03*
X54300Y144100D02*
D03*
X58900Y29800D02*
D03*
X56300Y142487D02*
D03*
X58100Y140912D02*
D03*
X74100Y67400D02*
D03*
X59900Y139337D02*
D03*
X95500Y115900D02*
D03*
X123432Y112853D02*
D03*
X133400Y112700D02*
D03*
X113800Y154500D02*
D03*
X109000Y153600D02*
D03*
X111700Y148600D02*
D03*
X49800Y169400D02*
D03*
X203613Y192213D02*
D03*
X230187Y192513D02*
D03*
X94300Y216100D02*
D03*
X103700Y183600D02*
D03*
X110800Y9800D02*
D03*
X178100Y13900D02*
D03*
X167100Y142200D02*
D03*
X189700Y149100D02*
D03*
X214353Y181253D02*
D03*
X234653Y181353D02*
D03*
X214447Y158253D02*
D03*
X234753D02*
D03*
X84363Y130037D02*
D03*
X80698Y124902D02*
D03*
X78900Y129000D02*
D03*
X73600Y137400D02*
D03*
X158300Y201500D02*
D03*
X5135Y134140D02*
D03*
X6666Y157809D02*
D03*
X10600Y127200D02*
D03*
X18000D02*
D03*
X214641Y69341D02*
D03*
X251611Y123889D02*
D03*
X257791Y119391D02*
D03*
X137898Y172502D02*
D03*
X140102Y169398D02*
D03*
X188300Y188400D02*
D03*
D71*
X106900Y56800D02*
D03*
X123800Y105000D02*
D03*
X101400Y104500D02*
D03*
X90402Y110002D02*
D03*
X117702Y124502D02*
D03*
X110900Y123400D02*
D03*
X150600Y167300D02*
D03*
D72*
X229200Y143000D02*
D03*
X217300Y133300D02*
D03*
X126600Y160500D02*
D03*
X76600Y190100D02*
D03*
X55400Y179700D02*
D03*
X51400D02*
D03*
X80000Y181600D02*
D03*
X85400Y164400D02*
D03*
X103700D02*
D03*
X83900Y162700D02*
D03*
X108000D02*
D03*
X161600Y123200D02*
D03*
X163000Y124700D02*
D03*
D73*
X83538Y137762D02*
D03*
X137926Y156869D02*
D03*
X125232D02*
D03*
X201947Y181253D02*
D03*
X202253Y175347D02*
D03*
X202400Y172100D02*
D03*
X137926Y160805D02*
D03*
X141900Y165000D02*
D03*
X139800Y163800D02*
D03*
X139894Y158837D02*
D03*
X141863D02*
D03*
Y156869D02*
D03*
X143832D02*
D03*
X230365Y171735D02*
D03*
X135958Y152931D02*
D03*
X137926D02*
D03*
X139894D02*
D03*
X226035Y169335D02*
D03*
X220200Y167800D02*
D03*
X133800Y136200D02*
D03*
X143887Y134613D02*
D03*
X141900Y133100D02*
D03*
X140500Y129400D02*
D03*
X142200Y172100D02*
D03*
X140600Y177300D02*
D03*
X129800Y139337D02*
D03*
X123900Y173300D02*
D03*
X76600Y185300D02*
D03*
X99700Y121400D02*
D03*
X98200Y116500D02*
D03*
X99687Y152000D02*
D03*
X101262Y150500D02*
D03*
D74*
X119475Y104725D02*
D03*
X132400Y175600D02*
D03*
X132000Y149100D02*
D03*
X138900Y131500D02*
D03*
X128600Y147000D02*
D03*
X140300Y108500D02*
D03*
M02*
