G04 Layer_Color=8388736*
%FSLAX25Y25*%
%MOIN*%
G70*
G01*
G75*
%ADD85R,0.01181X0.00984*%
%ADD97R,0.10243X0.05124*%
%ADD98R,0.11227X0.05912*%
%ADD99R,0.01575X0.01772*%
%ADD100R,0.01772X0.01575*%
%ADD101R,0.03550X0.03550*%
%ADD102R,0.05400X0.15400*%
%ADD103R,0.15400X0.05400*%
%ADD104R,0.02762X0.02920*%
%ADD105R,0.02920X0.02762*%
%ADD106R,0.03550X0.04337*%
%ADD107R,0.01654X0.01654*%
%ADD108R,0.01654X0.01654*%
%ADD109R,0.04337X0.03943*%
%ADD110R,0.13589X0.05518*%
%ADD111R,0.07880X0.03550*%
%ADD112R,0.01384X0.02565*%
%ADD113R,0.11424X0.11424*%
%ADD114O,0.02565X0.01187*%
%ADD115O,0.01187X0.02565*%
%ADD116R,0.05400X0.12054*%
%ADD117C,0.01476*%
%ADD118C,0.01437*%
%ADD119R,0.03943X0.04337*%
%ADD120R,0.03550X0.03550*%
%ADD121R,0.03195X0.04022*%
%ADD122R,0.09455X0.03747*%
%ADD123R,0.05518X0.13589*%
%ADD124R,0.03550X0.07880*%
%ADD125R,0.01581X0.03235*%
%ADD126R,0.03235X0.01581*%
%ADD127R,0.08668X0.08668*%
%ADD128O,0.02959X0.01187*%
%ADD129O,0.01187X0.02959*%
%ADD130R,0.18904X0.18904*%
%ADD131R,0.02565X0.02762*%
%ADD132R,0.01975X0.02998*%
%ADD133R,0.05124X0.05321*%
%ADD134R,0.03740X0.01496*%
%ADD135R,0.03347X0.01496*%
%ADD136R,0.01817X0.02369*%
%ADD137R,0.01975X0.02369*%
%ADD138R,0.07880X0.05124*%
%ADD139R,0.05715X0.01975*%
%ADD140R,0.07880X0.06699*%
%ADD141R,0.03353X0.02959*%
%ADD142O,0.06306X0.05321*%
%ADD143O,0.07880X0.05223*%
%ADD144C,0.00598*%
D85*
X9816Y139148D02*
D03*
X9816Y140525D02*
D03*
X7454Y140526D02*
D03*
X7454Y139148D02*
D03*
D97*
X269027Y171742D02*
D03*
Y152058D02*
D03*
Y161900D02*
D03*
X247373D02*
D03*
Y152058D02*
D03*
Y171742D02*
D03*
X267627Y36242D02*
D03*
Y16557D02*
D03*
Y26400D02*
D03*
X245973D02*
D03*
Y16557D02*
D03*
Y36242D02*
D03*
D98*
X203613Y213474D02*
D03*
Y197726D02*
D03*
X230187Y213474D02*
D03*
Y197726D02*
D03*
X226387Y12926D02*
D03*
Y28674D02*
D03*
X199813Y12926D02*
D03*
Y28674D02*
D03*
D99*
X226522Y62314D02*
D03*
X224160D02*
D03*
X181881Y100500D02*
D03*
X179519D02*
D03*
X205419Y93900D02*
D03*
X207781D02*
D03*
X235160Y68814D02*
D03*
X237522D02*
D03*
X180281Y97400D02*
D03*
X177919D02*
D03*
X15381Y131998D02*
D03*
X13019D02*
D03*
X199719Y115200D02*
D03*
X202081D02*
D03*
D100*
X218341Y70676D02*
D03*
Y68314D02*
D03*
X231841Y75176D02*
D03*
Y72814D02*
D03*
X208400Y101958D02*
D03*
Y99596D02*
D03*
X183400Y92619D02*
D03*
Y94981D02*
D03*
X143900Y164619D02*
D03*
Y166981D02*
D03*
X122879Y154803D02*
D03*
Y157165D02*
D03*
X71200Y177419D02*
D03*
Y179781D02*
D03*
X122900Y108119D02*
D03*
Y110481D02*
D03*
X101400Y154819D02*
D03*
Y157181D02*
D03*
X98900Y154819D02*
D03*
Y157181D02*
D03*
X205500Y108519D02*
D03*
Y110881D02*
D03*
X205500Y99596D02*
D03*
Y101958D02*
D03*
D101*
X246847Y111773D02*
D03*
X252753D02*
D03*
X246847Y106273D02*
D03*
X252753D02*
D03*
D102*
X104100Y31350D02*
D03*
Y13850D02*
D03*
X94100Y31350D02*
D03*
Y13850D02*
D03*
X84100Y31350D02*
D03*
Y13850D02*
D03*
X74100Y31350D02*
D03*
Y13850D02*
D03*
X64100Y31350D02*
D03*
Y13850D02*
D03*
X100700Y195250D02*
D03*
Y212750D02*
D03*
X110700Y195250D02*
D03*
Y212750D02*
D03*
X120700Y195250D02*
D03*
Y212750D02*
D03*
X130700Y195250D02*
D03*
Y212750D02*
D03*
X140700Y195250D02*
D03*
Y212750D02*
D03*
X171100Y31350D02*
D03*
Y13850D02*
D03*
X161100Y31350D02*
D03*
Y13850D02*
D03*
X151100Y31350D02*
D03*
Y13850D02*
D03*
X141100Y31350D02*
D03*
Y13850D02*
D03*
X131100Y31350D02*
D03*
Y13850D02*
D03*
D103*
X32750Y174500D02*
D03*
X15250D02*
D03*
X32750Y184500D02*
D03*
X15250D02*
D03*
X32750Y194500D02*
D03*
X15250D02*
D03*
X32750Y204500D02*
D03*
X15250D02*
D03*
X32750Y214500D02*
D03*
X15250D02*
D03*
D104*
X232989Y142273D02*
D03*
X236611D02*
D03*
X250011Y128000D02*
D03*
X246389D02*
D03*
X251611Y120273D02*
D03*
X247989D02*
D03*
X262011Y138900D02*
D03*
X258389D02*
D03*
D105*
X188100Y72289D02*
D03*
Y75911D02*
D03*
X214400Y112611D02*
D03*
Y108989D02*
D03*
X218600Y92712D02*
D03*
Y96334D02*
D03*
X189800Y83489D02*
D03*
Y87111D02*
D03*
X177300Y78189D02*
D03*
Y81811D02*
D03*
X196300Y83389D02*
D03*
Y87011D02*
D03*
X65200Y176889D02*
D03*
Y180511D02*
D03*
X91000Y178289D02*
D03*
Y181911D02*
D03*
X83700Y178389D02*
D03*
Y182011D02*
D03*
X177400Y147889D02*
D03*
Y151511D02*
D03*
X172900Y147889D02*
D03*
Y151511D02*
D03*
X220800Y127462D02*
D03*
Y131084D02*
D03*
D106*
X230865Y158253D02*
D03*
X230865Y152347D02*
D03*
X226535Y152347D02*
D03*
X226535Y158253D02*
D03*
X210365Y181253D02*
D03*
X210365Y175347D02*
D03*
X206035Y175347D02*
D03*
X206035Y181253D02*
D03*
X210365Y158253D02*
D03*
X210365Y152347D02*
D03*
X206035Y152347D02*
D03*
X206035Y158253D02*
D03*
X230365Y181353D02*
D03*
X230365Y175447D02*
D03*
X226035Y175447D02*
D03*
X226035Y181353D02*
D03*
D107*
X205498Y96400D02*
D03*
X207702D02*
D03*
X140102Y167300D02*
D03*
X137898D02*
D03*
X129376Y160784D02*
D03*
X131581D02*
D03*
X129376Y163484D02*
D03*
X131581D02*
D03*
X76598Y137800D02*
D03*
X78802D02*
D03*
X77798Y146200D02*
D03*
X80002D02*
D03*
X95502Y117900D02*
D03*
X93298D02*
D03*
X237443Y65814D02*
D03*
X235239D02*
D03*
D108*
X132179Y157087D02*
D03*
Y154882D02*
D03*
X127479Y154982D02*
D03*
Y157187D02*
D03*
X114200Y147402D02*
D03*
Y145198D02*
D03*
X10600Y129695D02*
D03*
Y131900D02*
D03*
X18000Y129795D02*
D03*
Y132000D02*
D03*
X83700Y122698D02*
D03*
Y124902D02*
D03*
X115400Y122298D02*
D03*
Y124502D02*
D03*
X103600Y107098D02*
D03*
Y109302D02*
D03*
X88400Y110002D02*
D03*
Y107798D02*
D03*
X208300Y110802D02*
D03*
Y108598D02*
D03*
D109*
X167100Y147043D02*
D03*
Y152357D02*
D03*
D110*
X271053Y54454D02*
D03*
Y81817D02*
D03*
D111*
X251860Y65675D02*
D03*
Y70596D02*
D03*
D112*
X76911Y131957D02*
D03*
X78880D02*
D03*
X80848D02*
D03*
Y135303D02*
D03*
X78880D02*
D03*
X76911D02*
D03*
D113*
X194200Y101300D02*
D03*
D114*
X201779Y106812D02*
D03*
Y105237D02*
D03*
Y103662D02*
D03*
Y102087D02*
D03*
Y100513D02*
D03*
Y98938D02*
D03*
Y97363D02*
D03*
Y95788D02*
D03*
X186621Y95788D02*
D03*
Y97363D02*
D03*
Y98938D02*
D03*
Y100513D02*
D03*
Y102087D02*
D03*
Y103662D02*
D03*
Y105237D02*
D03*
Y106812D02*
D03*
D115*
X199712Y93721D02*
D03*
X198137D02*
D03*
X196562D02*
D03*
X194987D02*
D03*
X193413D02*
D03*
X191838D02*
D03*
X190263D02*
D03*
X188688D02*
D03*
Y108879D02*
D03*
X190263D02*
D03*
X191838D02*
D03*
X193413D02*
D03*
X194987D02*
D03*
X196562D02*
D03*
X198137D02*
D03*
X199712D02*
D03*
D116*
X158200Y211287D02*
D03*
X168200Y197113D02*
D03*
X178200Y211287D02*
D03*
X188200Y197113D02*
D03*
D117*
X76600Y187268D02*
D03*
X74631D02*
D03*
Y185300D02*
D03*
X76600D02*
D03*
X74631Y183332D02*
D03*
X76600D02*
D03*
X78568Y187268D02*
D03*
Y185300D02*
D03*
Y183332D02*
D03*
D118*
X145800Y150963D02*
D03*
X143832D02*
D03*
X141863D02*
D03*
X139894D02*
D03*
X137926D02*
D03*
X135958D02*
D03*
X145800Y152931D02*
D03*
X143832D02*
D03*
X141863D02*
D03*
X139894D02*
D03*
X137926D02*
D03*
X135958D02*
D03*
X145800Y154900D02*
D03*
X143832D02*
D03*
X141863D02*
D03*
X139894D02*
D03*
X137926D02*
D03*
X135958D02*
D03*
X145800Y156869D02*
D03*
X143832D02*
D03*
X141863D02*
D03*
X139894D02*
D03*
X137926D02*
D03*
X135958D02*
D03*
X145800Y158837D02*
D03*
X143832D02*
D03*
X141863D02*
D03*
X139894D02*
D03*
X137926D02*
D03*
X135958D02*
D03*
X145800Y160805D02*
D03*
X143832D02*
D03*
X141863D02*
D03*
X139894D02*
D03*
X137926D02*
D03*
X135958D02*
D03*
D119*
X127821Y168284D02*
D03*
X133136D02*
D03*
D120*
X182700Y76347D02*
D03*
Y82253D02*
D03*
D121*
X206156Y88500D02*
D03*
X200644D02*
D03*
D122*
X148479Y131557D02*
D03*
Y140612D02*
D03*
D123*
X85846Y217553D02*
D03*
X58483D02*
D03*
D124*
X74625Y198360D02*
D03*
X69704D02*
D03*
D125*
X229961Y136458D02*
D03*
X232521D02*
D03*
X235080D02*
D03*
X237639D02*
D03*
Y122088D02*
D03*
X235080D02*
D03*
X232521D02*
D03*
X229961D02*
D03*
D126*
X240985Y133112D02*
D03*
Y130553D02*
D03*
Y127994D02*
D03*
Y125435D02*
D03*
X226615D02*
D03*
Y127994D02*
D03*
Y130553D02*
D03*
Y133112D02*
D03*
D127*
X233800Y129273D02*
D03*
D128*
X110809Y126739D02*
D03*
Y128313D02*
D03*
Y129888D02*
D03*
Y131463D02*
D03*
Y133038D02*
D03*
Y134613D02*
D03*
Y136187D02*
D03*
Y137762D02*
D03*
Y139337D02*
D03*
Y140912D02*
D03*
Y142487D02*
D03*
Y144061D02*
D03*
X86990D02*
D03*
Y142487D02*
D03*
Y140912D02*
D03*
Y139337D02*
D03*
Y137762D02*
D03*
Y136187D02*
D03*
Y134613D02*
D03*
Y133038D02*
D03*
Y131463D02*
D03*
Y129888D02*
D03*
Y128313D02*
D03*
Y126739D02*
D03*
D129*
X107561Y147309D02*
D03*
X105987D02*
D03*
X104412D02*
D03*
X102837D02*
D03*
X101262D02*
D03*
X99687D02*
D03*
X98113D02*
D03*
X96538D02*
D03*
X94963D02*
D03*
X93388D02*
D03*
X91813D02*
D03*
X90239D02*
D03*
Y123491D02*
D03*
X91813D02*
D03*
X93388D02*
D03*
X94963D02*
D03*
X96538D02*
D03*
X98113D02*
D03*
X99687D02*
D03*
X101262D02*
D03*
X102837D02*
D03*
X104412D02*
D03*
X105987D02*
D03*
X107561D02*
D03*
D130*
X98900Y135400D02*
D03*
D131*
X262170Y132273D02*
D03*
X258430D02*
D03*
D132*
X221782Y75672D02*
D03*
X224341D02*
D03*
X226900D02*
D03*
Y82956D02*
D03*
X224341D02*
D03*
X221782D02*
D03*
D133*
X158679Y152893D02*
D03*
Y141476D02*
D03*
D134*
X223538Y70251D02*
D03*
D135*
X223341Y68283D02*
D03*
Y66314D02*
D03*
X227868Y70251D02*
D03*
Y68283D02*
D03*
Y66314D02*
D03*
D136*
X116325Y107231D02*
D03*
X119475D02*
D03*
D137*
X117900Y111169D02*
D03*
D138*
X273800Y126084D02*
D03*
X273800Y102462D02*
D03*
D139*
X262774Y109155D02*
D03*
X262774Y111714D02*
D03*
Y114273D02*
D03*
Y116832D02*
D03*
Y119391D02*
D03*
D140*
X273800Y118407D02*
D03*
Y110139D02*
D03*
D141*
X93841Y106931D02*
D03*
X98959D02*
D03*
X93841Y110869D02*
D03*
X98959D02*
D03*
D142*
X262186Y124116D02*
D03*
X262383Y104431D02*
D03*
D143*
X273798Y128446D02*
D03*
X273800Y100100D02*
D03*
D144*
X194200Y101300D02*
D03*
Y105237D02*
D03*
Y97363D02*
D03*
X198137Y101300D02*
D03*
X190263D02*
D03*
X105987Y128313D02*
D03*
X101262D02*
D03*
X96538D02*
D03*
X91813D02*
D03*
X105987Y133038D02*
D03*
X101262D02*
D03*
X96538D02*
D03*
X91813D02*
D03*
X105987Y137762D02*
D03*
X101262D02*
D03*
X96538D02*
D03*
X91813D02*
D03*
X105987Y142487D02*
D03*
X101262D02*
D03*
X96538D02*
D03*
X91813D02*
D03*
M02*
