G04 Layer_Physical_Order=3*
G04 Layer_Color=16440176*
%FSLAX25Y25*%
%MOIN*%
G70*
G01*
G75*
%ADD58C,0.01000*%
%ADD60C,0.00600*%
%ADD62C,0.01500*%
%ADD69C,0.02000*%
%ADD70C,0.01600*%
%ADD71C,0.01400*%
%ADD72C,0.01300*%
%ADD73C,0.01000*%
%ADD74C,0.01800*%
G36*
X278251Y210924D02*
X277751Y210788D01*
X277565Y211065D01*
X277168Y211330D01*
X276700Y211423D01*
X276232Y211330D01*
X275835Y211065D01*
X275570Y210668D01*
X275477Y210200D01*
X275570Y209732D01*
X275774Y209426D01*
X275809Y209100D01*
X275774Y208774D01*
X275570Y208468D01*
X275477Y208000D01*
X275570Y207532D01*
X275774Y207226D01*
X275809Y206900D01*
X275774Y206574D01*
X275570Y206268D01*
X275477Y205800D01*
X275570Y205332D01*
X275774Y205026D01*
X275809Y204700D01*
X275774Y204374D01*
X275570Y204068D01*
X275477Y203600D01*
X275570Y203132D01*
X275774Y202826D01*
X275809Y202500D01*
X275774Y202174D01*
X275570Y201868D01*
X275477Y201400D01*
X275570Y200932D01*
X275774Y200626D01*
X275809Y200300D01*
X275774Y199974D01*
X275570Y199668D01*
X275477Y199200D01*
X275570Y198732D01*
X275774Y198426D01*
X275809Y198100D01*
X275774Y197774D01*
X275570Y197468D01*
X275477Y197000D01*
X275570Y196532D01*
X275835Y196135D01*
X276103Y195956D01*
X276148Y195508D01*
X276120Y195389D01*
X275935Y195265D01*
X275670Y194868D01*
X275576Y194400D01*
X275670Y193932D01*
X275935Y193535D01*
X276170Y193378D01*
X276180Y193350D01*
Y192850D01*
X276170Y192822D01*
X275935Y192665D01*
X275670Y192268D01*
X275576Y191800D01*
X275670Y191332D01*
X275874Y191026D01*
X275909Y190700D01*
X275874Y190374D01*
X275670Y190068D01*
X275576Y189600D01*
X275670Y189132D01*
X275874Y188826D01*
X275909Y188500D01*
X275874Y188174D01*
X275670Y187868D01*
X275576Y187400D01*
X275670Y186932D01*
X275874Y186626D01*
X275909Y186300D01*
X275874Y185974D01*
X275670Y185668D01*
X275576Y185200D01*
X275670Y184732D01*
X275874Y184426D01*
X275909Y184100D01*
X275874Y183774D01*
X275670Y183468D01*
X275576Y183000D01*
X275670Y182532D01*
X275874Y182226D01*
X275909Y181900D01*
X275874Y181574D01*
X275670Y181268D01*
X275576Y180800D01*
X275670Y180332D01*
X275874Y180026D01*
X275909Y179700D01*
X275874Y179374D01*
X275670Y179068D01*
X275576Y178600D01*
X275670Y178132D01*
X275935Y177735D01*
X276250Y177524D01*
X276295Y177252D01*
Y177248D01*
X276250Y176976D01*
X275935Y176765D01*
X275670Y176368D01*
X275576Y175900D01*
X275670Y175432D01*
X275935Y175035D01*
X276170Y174878D01*
X276180Y174850D01*
Y174350D01*
X276170Y174322D01*
X275935Y174165D01*
X275670Y173768D01*
X275576Y173300D01*
X275670Y172832D01*
X275874Y172526D01*
X275909Y172200D01*
X275874Y171874D01*
X275670Y171568D01*
X275576Y171100D01*
X275670Y170632D01*
X275874Y170326D01*
X275909Y170000D01*
X275874Y169674D01*
X275670Y169368D01*
X275576Y168900D01*
X275670Y168432D01*
X275935Y168035D01*
X276332Y167770D01*
X276800Y167676D01*
X277268Y167770D01*
X277665Y168035D01*
X277751Y168163D01*
X278251Y168011D01*
Y129558D01*
X277751Y129459D01*
X277583Y129864D01*
X277132Y130452D01*
X276545Y130902D01*
X275861Y131185D01*
X275127Y131282D01*
X272469D01*
X271735Y131185D01*
X271052Y130902D01*
X270464Y130452D01*
X270013Y129864D01*
X269730Y129180D01*
X269634Y128446D01*
X269730Y127713D01*
X270013Y127029D01*
X270464Y126441D01*
X271052Y125991D01*
X271735Y125707D01*
X272469Y125611D01*
X275127D01*
X275861Y125707D01*
X276545Y125991D01*
X277132Y126441D01*
X277583Y127029D01*
X277751Y127434D01*
X278251Y127335D01*
Y101216D01*
X277751Y101117D01*
X277585Y101518D01*
X277134Y102105D01*
X276547Y102556D01*
X275863Y102839D01*
X275129Y102936D01*
X272471D01*
X271737Y102839D01*
X271053Y102556D01*
X270466Y102105D01*
X270016Y101518D01*
X269732Y100834D01*
X269636Y100100D01*
X269732Y99366D01*
X270016Y98682D01*
X270466Y98095D01*
X271053Y97644D01*
X271737Y97361D01*
X272471Y97264D01*
X275129D01*
X275863Y97361D01*
X276547Y97644D01*
X277134Y98095D01*
X277585Y98682D01*
X277751Y99083D01*
X278251Y98984D01*
Y49324D01*
X277751Y49188D01*
X277565Y49465D01*
X277168Y49730D01*
X276700Y49823D01*
X276232Y49730D01*
X275835Y49465D01*
X275570Y49068D01*
X275477Y48600D01*
X275570Y48132D01*
X275774Y47826D01*
X275809Y47500D01*
X275774Y47174D01*
X275570Y46868D01*
X275477Y46400D01*
X275570Y45932D01*
X275774Y45626D01*
X275809Y45300D01*
X275774Y44974D01*
X275570Y44668D01*
X275477Y44200D01*
X275570Y43732D01*
X275774Y43426D01*
X275809Y43100D01*
X275774Y42774D01*
X275570Y42468D01*
X275477Y42000D01*
X275570Y41532D01*
X275774Y41226D01*
X275809Y40900D01*
X275774Y40574D01*
X275570Y40268D01*
X275477Y39800D01*
X275570Y39332D01*
X275774Y39026D01*
X275809Y38700D01*
X275774Y38374D01*
X275570Y38068D01*
X275477Y37600D01*
X275570Y37132D01*
X275774Y36826D01*
X275809Y36500D01*
X275774Y36174D01*
X275570Y35868D01*
X275477Y35400D01*
X275570Y34932D01*
X275835Y34535D01*
X276103Y34356D01*
X276148Y33907D01*
X276120Y33789D01*
X275935Y33665D01*
X275670Y33268D01*
X275576Y32800D01*
X275670Y32332D01*
X275935Y31935D01*
X276170Y31778D01*
X276180Y31750D01*
Y31250D01*
X276170Y31222D01*
X275935Y31065D01*
X275670Y30668D01*
X275576Y30200D01*
X275670Y29732D01*
X275874Y29426D01*
X275909Y29100D01*
X275874Y28774D01*
X275670Y28468D01*
X275576Y28000D01*
X275670Y27532D01*
X275874Y27226D01*
X275909Y26900D01*
X275874Y26574D01*
X275670Y26268D01*
X275576Y25800D01*
X275670Y25332D01*
X275874Y25026D01*
X275909Y24700D01*
X275874Y24374D01*
X275670Y24068D01*
X275576Y23600D01*
X275670Y23132D01*
X275874Y22826D01*
X275909Y22500D01*
X275874Y22174D01*
X275670Y21868D01*
X275576Y21400D01*
X275670Y20932D01*
X275874Y20626D01*
X275909Y20300D01*
X275874Y19974D01*
X275670Y19668D01*
X275576Y19200D01*
X275670Y18732D01*
X275874Y18426D01*
X275909Y18100D01*
X275874Y17774D01*
X275670Y17468D01*
X275576Y17000D01*
X275670Y16532D01*
X275935Y16135D01*
X276250Y15924D01*
X276295Y15653D01*
Y15647D01*
X276250Y15376D01*
X275935Y15165D01*
X275670Y14768D01*
X275576Y14300D01*
X275670Y13832D01*
X275935Y13435D01*
X276170Y13278D01*
X276180Y13250D01*
Y12750D01*
X276170Y12722D01*
X275935Y12565D01*
X275670Y12168D01*
X275576Y11700D01*
X275670Y11232D01*
X275874Y10926D01*
X275909Y10600D01*
X275874Y10274D01*
X275670Y9968D01*
X275576Y9500D01*
X275670Y9032D01*
X275874Y8726D01*
X275909Y8400D01*
X275874Y8074D01*
X275670Y7768D01*
X275576Y7300D01*
X275670Y6832D01*
X275935Y6435D01*
X276332Y6170D01*
X276800Y6076D01*
X277268Y6170D01*
X277665Y6435D01*
X277751Y6563D01*
X278251Y6411D01*
Y649D01*
X749D01*
Y23384D01*
X1249Y23433D01*
X1270Y23332D01*
X1535Y22935D01*
X1803Y22756D01*
X1847Y22308D01*
X1820Y22189D01*
X1635Y22065D01*
X1370Y21668D01*
X1276Y21200D01*
X1370Y20732D01*
X1574Y20426D01*
X1609Y20100D01*
X1574Y19774D01*
X1370Y19468D01*
X1276Y19000D01*
X1370Y18532D01*
X1574Y18226D01*
X1609Y17900D01*
X1574Y17574D01*
X1370Y17268D01*
X1276Y16800D01*
X1370Y16332D01*
X1574Y16026D01*
X1609Y15700D01*
X1574Y15374D01*
X1370Y15068D01*
X1276Y14600D01*
X1370Y14132D01*
X1574Y13826D01*
X1609Y13500D01*
X1574Y13174D01*
X1370Y12868D01*
X1276Y12400D01*
X1370Y11932D01*
X1574Y11626D01*
X1609Y11300D01*
X1574Y10974D01*
X1370Y10668D01*
X1276Y10200D01*
X1370Y9732D01*
X1574Y9426D01*
X1609Y9100D01*
X1574Y8774D01*
X1370Y8468D01*
X1276Y8000D01*
X1370Y7532D01*
X1635Y7135D01*
X1870Y6978D01*
X1880Y6950D01*
Y6450D01*
X1870Y6422D01*
X1635Y6265D01*
X1370Y5868D01*
X1276Y5400D01*
X1370Y4932D01*
X1635Y4535D01*
X2032Y4270D01*
X2357Y4205D01*
Y3695D01*
X2032Y3630D01*
X1635Y3365D01*
X1370Y2968D01*
X1276Y2500D01*
X1370Y2032D01*
X1635Y1635D01*
X2032Y1370D01*
X2500Y1276D01*
X2968Y1370D01*
X3274Y1574D01*
X3600Y1609D01*
X3926Y1574D01*
X4232Y1370D01*
X4700Y1276D01*
X5168Y1370D01*
X5474Y1574D01*
X5800Y1609D01*
X6126Y1574D01*
X6432Y1370D01*
X6900Y1276D01*
X7368Y1370D01*
X7674Y1574D01*
X8000Y1609D01*
X8326Y1574D01*
X8632Y1370D01*
X9100Y1276D01*
X9568Y1370D01*
X9874Y1574D01*
X10200Y1609D01*
X10526Y1574D01*
X10832Y1370D01*
X11300Y1276D01*
X11768Y1370D01*
X12074Y1574D01*
X12400Y1609D01*
X12726Y1574D01*
X13032Y1370D01*
X13500Y1276D01*
X13968Y1370D01*
X14274Y1574D01*
X14600Y1609D01*
X14926Y1574D01*
X15232Y1370D01*
X15700Y1276D01*
X16168Y1370D01*
X16565Y1635D01*
X16722Y1870D01*
X16750Y1880D01*
X17250D01*
X17278Y1870D01*
X17435Y1635D01*
X17832Y1370D01*
X18300Y1276D01*
X18768Y1370D01*
X19165Y1635D01*
X19406Y1995D01*
X19523Y2029D01*
X19536Y2031D01*
X19939Y2028D01*
X20135Y1735D01*
X20532Y1470D01*
X21000Y1376D01*
X21468Y1470D01*
X21774Y1674D01*
X22100Y1709D01*
X22426Y1674D01*
X22732Y1470D01*
X23200Y1376D01*
X23668Y1470D01*
X23974Y1674D01*
X24300Y1709D01*
X24626Y1674D01*
X24932Y1470D01*
X25400Y1376D01*
X25868Y1470D01*
X26174Y1674D01*
X26500Y1709D01*
X26826Y1674D01*
X27132Y1470D01*
X27600Y1376D01*
X28068Y1470D01*
X28374Y1674D01*
X28700Y1709D01*
X29026Y1674D01*
X29332Y1470D01*
X29800Y1376D01*
X30268Y1470D01*
X30574Y1674D01*
X30900Y1709D01*
X31226Y1674D01*
X31532Y1470D01*
X32000Y1376D01*
X32468Y1470D01*
X32774Y1674D01*
X33100Y1709D01*
X33426Y1674D01*
X33732Y1470D01*
X34200Y1376D01*
X34668Y1470D01*
X35065Y1735D01*
X35222Y1970D01*
X35250Y1980D01*
X35750D01*
X35778Y1970D01*
X35935Y1735D01*
X36332Y1470D01*
X36800Y1376D01*
X37268Y1470D01*
X37665Y1735D01*
X37844Y2003D01*
X38293Y2048D01*
X38411Y2020D01*
X38535Y1835D01*
X38932Y1570D01*
X39400Y1476D01*
X39868Y1570D01*
X40174Y1774D01*
X40500Y1809D01*
X40826Y1774D01*
X41132Y1570D01*
X41600Y1476D01*
X42068Y1570D01*
X42374Y1774D01*
X42700Y1809D01*
X43026Y1774D01*
X43332Y1570D01*
X43800Y1476D01*
X44268Y1570D01*
X44574Y1774D01*
X44900Y1809D01*
X45226Y1774D01*
X45532Y1570D01*
X46000Y1476D01*
X46468Y1570D01*
X46774Y1774D01*
X47100Y1809D01*
X47426Y1774D01*
X47732Y1570D01*
X48200Y1476D01*
X48668Y1570D01*
X48974Y1774D01*
X49300Y1809D01*
X49626Y1774D01*
X49932Y1570D01*
X50400Y1476D01*
X50868Y1570D01*
X51174Y1774D01*
X51500Y1809D01*
X51826Y1774D01*
X52132Y1570D01*
X52600Y1476D01*
X53068Y1570D01*
X53465Y1835D01*
X53622Y2070D01*
X53650Y2080D01*
X54150D01*
X54178Y2070D01*
X54335Y1835D01*
X54732Y1570D01*
X55200Y1476D01*
X55668Y1570D01*
X56065Y1835D01*
X56276Y2150D01*
X56547Y2195D01*
X56552D01*
X56824Y2150D01*
X57035Y1835D01*
X57432Y1570D01*
X57900Y1476D01*
X58368Y1570D01*
X58674Y1774D01*
X59000Y1809D01*
X59326Y1774D01*
X59632Y1570D01*
X60100Y1476D01*
X60568Y1570D01*
X60874Y1774D01*
X61200Y1809D01*
X61526Y1774D01*
X61832Y1570D01*
X62300Y1476D01*
X62768Y1570D01*
X63074Y1774D01*
X63400Y1809D01*
X63726Y1774D01*
X64032Y1570D01*
X64500Y1476D01*
X64968Y1570D01*
X65274Y1774D01*
X65600Y1809D01*
X65926Y1774D01*
X66232Y1570D01*
X66700Y1476D01*
X67168Y1570D01*
X67474Y1774D01*
X67800Y1809D01*
X68126Y1774D01*
X68432Y1570D01*
X68900Y1476D01*
X69368Y1570D01*
X69674Y1774D01*
X70000Y1809D01*
X70326Y1774D01*
X70632Y1570D01*
X71100Y1476D01*
X71568Y1570D01*
X71965Y1835D01*
X72122Y2070D01*
X72150Y2080D01*
X72650D01*
X72678Y2070D01*
X72835Y1835D01*
X73232Y1570D01*
X73700Y1476D01*
X74168Y1570D01*
X74565Y1835D01*
X74744Y2103D01*
X75192Y2148D01*
X75311Y2120D01*
X75435Y1935D01*
X75832Y1670D01*
X76300Y1577D01*
X76768Y1670D01*
X77074Y1874D01*
X77400Y1909D01*
X77726Y1874D01*
X78032Y1670D01*
X78500Y1577D01*
X78968Y1670D01*
X79274Y1874D01*
X79600Y1909D01*
X79926Y1874D01*
X80232Y1670D01*
X80700Y1577D01*
X81168Y1670D01*
X81474Y1874D01*
X81800Y1909D01*
X82126Y1874D01*
X82432Y1670D01*
X82900Y1577D01*
X83368Y1670D01*
X83674Y1874D01*
X84000Y1909D01*
X84326Y1874D01*
X84632Y1670D01*
X85100Y1577D01*
X85568Y1670D01*
X85874Y1874D01*
X86200Y1909D01*
X86526Y1874D01*
X86832Y1670D01*
X87300Y1577D01*
X87768Y1670D01*
X88074Y1874D01*
X88400Y1909D01*
X88726Y1874D01*
X89032Y1670D01*
X89500Y1577D01*
X89968Y1670D01*
X90365Y1935D01*
X90522Y2170D01*
X90550Y2180D01*
X91050D01*
X91078Y2170D01*
X91235Y1935D01*
X91632Y1670D01*
X92100Y1577D01*
X92568Y1670D01*
X92965Y1935D01*
X93230Y2332D01*
X93295Y2657D01*
X93805D01*
X93870Y2332D01*
X94135Y1935D01*
X94532Y1670D01*
X95000Y1577D01*
X95468Y1670D01*
X95774Y1874D01*
X96100Y1909D01*
X96426Y1874D01*
X96732Y1670D01*
X97200Y1577D01*
X97668Y1670D01*
X97974Y1874D01*
X98300Y1909D01*
X98626Y1874D01*
X98932Y1670D01*
X99400Y1577D01*
X99868Y1670D01*
X100174Y1874D01*
X100500Y1909D01*
X100826Y1874D01*
X101132Y1670D01*
X101600Y1577D01*
X102068Y1670D01*
X102374Y1874D01*
X102700Y1909D01*
X103026Y1874D01*
X103332Y1670D01*
X103800Y1577D01*
X104268Y1670D01*
X104574Y1874D01*
X104900Y1909D01*
X105226Y1874D01*
X105532Y1670D01*
X106000Y1577D01*
X106468Y1670D01*
X106774Y1874D01*
X107100Y1909D01*
X107426Y1874D01*
X107732Y1670D01*
X108200Y1577D01*
X108668Y1670D01*
X109065Y1935D01*
X109222Y2170D01*
X109250Y2180D01*
X109750D01*
X109778Y2170D01*
X109935Y1935D01*
X110332Y1670D01*
X110800Y1577D01*
X111268Y1670D01*
X111665Y1935D01*
X111906Y2295D01*
X112023Y2329D01*
X112037Y2331D01*
X112439Y2327D01*
X112635Y2035D01*
X113032Y1770D01*
X113500Y1677D01*
X113968Y1770D01*
X114274Y1974D01*
X114600Y2009D01*
X114926Y1974D01*
X115232Y1770D01*
X115700Y1677D01*
X116168Y1770D01*
X116474Y1974D01*
X116800Y2009D01*
X117126Y1974D01*
X117432Y1770D01*
X117900Y1677D01*
X118368Y1770D01*
X118674Y1974D01*
X119000Y2009D01*
X119326Y1974D01*
X119632Y1770D01*
X120100Y1677D01*
X120568Y1770D01*
X120874Y1974D01*
X121200Y2009D01*
X121526Y1974D01*
X121832Y1770D01*
X122300Y1677D01*
X122768Y1770D01*
X123074Y1974D01*
X123400Y2009D01*
X123726Y1974D01*
X124032Y1770D01*
X124500Y1677D01*
X124968Y1770D01*
X125274Y1974D01*
X125600Y2009D01*
X125926Y1974D01*
X126232Y1770D01*
X126700Y1677D01*
X127168Y1770D01*
X127565Y2035D01*
X127722Y2270D01*
X127750Y2280D01*
X128250D01*
X128278Y2270D01*
X128435Y2035D01*
X128832Y1770D01*
X129300Y1677D01*
X129768Y1770D01*
X130165Y2035D01*
X130344Y2303D01*
X130792Y2348D01*
X130911Y2320D01*
X131035Y2135D01*
X131432Y1870D01*
X131900Y1777D01*
X132368Y1870D01*
X132674Y2074D01*
X133000Y2109D01*
X133326Y2074D01*
X133632Y1870D01*
X134100Y1777D01*
X134568Y1870D01*
X134874Y2074D01*
X135200Y2109D01*
X135526Y2074D01*
X135832Y1870D01*
X136300Y1777D01*
X136768Y1870D01*
X137074Y2074D01*
X137400Y2109D01*
X137726Y2074D01*
X138032Y1870D01*
X138500Y1777D01*
X138968Y1870D01*
X139274Y2074D01*
X139600Y2109D01*
X139926Y2074D01*
X140232Y1870D01*
X140700Y1777D01*
X141168Y1870D01*
X141474Y2074D01*
X141800Y2109D01*
X142126Y2074D01*
X142432Y1870D01*
X142900Y1777D01*
X143368Y1870D01*
X143674Y2074D01*
X144000Y2109D01*
X144326Y2074D01*
X144632Y1870D01*
X145100Y1777D01*
X145568Y1870D01*
X145965Y2135D01*
X146122Y2370D01*
X146150Y2380D01*
X146650D01*
X146678Y2370D01*
X146835Y2135D01*
X147232Y1870D01*
X147700Y1777D01*
X148168Y1870D01*
X148565Y2135D01*
X148776Y2450D01*
X149048Y2495D01*
X149053D01*
X149324Y2450D01*
X149535Y2135D01*
X149932Y1870D01*
X150400Y1777D01*
X150868Y1870D01*
X151174Y2074D01*
X151500Y2109D01*
X151826Y2074D01*
X152132Y1870D01*
X152600Y1777D01*
X153068Y1870D01*
X153374Y2074D01*
X153700Y2109D01*
X154026Y2074D01*
X154332Y1870D01*
X154800Y1777D01*
X155268Y1870D01*
X155574Y2074D01*
X155900Y2109D01*
X156226Y2074D01*
X156532Y1870D01*
X157000Y1777D01*
X157468Y1870D01*
X157774Y2074D01*
X158100Y2109D01*
X158426Y2074D01*
X158732Y1870D01*
X159200Y1777D01*
X159668Y1870D01*
X159974Y2074D01*
X160300Y2109D01*
X160626Y2074D01*
X160932Y1870D01*
X161400Y1777D01*
X161868Y1870D01*
X162174Y2074D01*
X162500Y2109D01*
X162826Y2074D01*
X163132Y1870D01*
X163600Y1777D01*
X164068Y1870D01*
X164465Y2135D01*
X164622Y2370D01*
X164650Y2380D01*
X165150D01*
X165178Y2370D01*
X165335Y2135D01*
X165732Y1870D01*
X166200Y1777D01*
X166668Y1870D01*
X167065Y2135D01*
X167244Y2403D01*
X167692Y2448D01*
X167811Y2420D01*
X167935Y2235D01*
X168332Y1970D01*
X168800Y1877D01*
X169268Y1970D01*
X169574Y2174D01*
X169900Y2209D01*
X170226Y2174D01*
X170532Y1970D01*
X171000Y1877D01*
X171468Y1970D01*
X171774Y2174D01*
X172100Y2209D01*
X172426Y2174D01*
X172732Y1970D01*
X173200Y1877D01*
X173668Y1970D01*
X173974Y2174D01*
X174300Y2209D01*
X174626Y2174D01*
X174932Y1970D01*
X175400Y1877D01*
X175868Y1970D01*
X176174Y2174D01*
X176500Y2209D01*
X176826Y2174D01*
X177132Y1970D01*
X177600Y1877D01*
X178068Y1970D01*
X178374Y2174D01*
X178700Y2209D01*
X179026Y2174D01*
X179332Y1970D01*
X179800Y1877D01*
X180268Y1970D01*
X180574Y2174D01*
X180900Y2209D01*
X181226Y2174D01*
X181532Y1970D01*
X182000Y1877D01*
X182468Y1970D01*
X182865Y2235D01*
X183022Y2470D01*
X183050Y2480D01*
X183550D01*
X183578Y2470D01*
X183735Y2235D01*
X184132Y1970D01*
X184600Y1877D01*
X185068Y1970D01*
X185465Y2235D01*
X185730Y2632D01*
X185824Y3100D01*
X185730Y3568D01*
X185465Y3965D01*
X185068Y4230D01*
X184600Y4324D01*
X184132Y4230D01*
X183735Y3965D01*
X183578Y3730D01*
X183550Y3720D01*
X183050D01*
X183022Y3730D01*
X182865Y3965D01*
X182468Y4230D01*
X182000Y4324D01*
X181532Y4230D01*
X181226Y4026D01*
X180900Y3991D01*
X180574Y4026D01*
X180268Y4230D01*
X179800Y4324D01*
X179332Y4230D01*
X179026Y4026D01*
X178700Y3991D01*
X178374Y4026D01*
X178068Y4230D01*
X177600Y4324D01*
X177132Y4230D01*
X176826Y4026D01*
X176500Y3991D01*
X176174Y4026D01*
X175868Y4230D01*
X175400Y4324D01*
X174932Y4230D01*
X174626Y4026D01*
X174300Y3991D01*
X173974Y4026D01*
X173668Y4230D01*
X173200Y4324D01*
X172732Y4230D01*
X172426Y4026D01*
X172100Y3991D01*
X171774Y4026D01*
X171468Y4230D01*
X171000Y4324D01*
X170532Y4230D01*
X170226Y4026D01*
X169900Y3991D01*
X169574Y4026D01*
X169268Y4230D01*
X168800Y4324D01*
X168332Y4230D01*
X167935Y3965D01*
X167756Y3697D01*
X167307Y3652D01*
X167189Y3680D01*
X167065Y3865D01*
X166668Y4130D01*
X166200Y4223D01*
X165732Y4130D01*
X165335Y3865D01*
X165178Y3630D01*
X165150Y3620D01*
X164650D01*
X164622Y3630D01*
X164465Y3865D01*
X164068Y4130D01*
X163600Y4223D01*
X163132Y4130D01*
X162826Y3926D01*
X162500Y3891D01*
X162174Y3926D01*
X161868Y4130D01*
X161400Y4223D01*
X160932Y4130D01*
X160626Y3926D01*
X160300Y3891D01*
X159974Y3926D01*
X159668Y4130D01*
X159200Y4223D01*
X158732Y4130D01*
X158426Y3926D01*
X158100Y3891D01*
X157774Y3926D01*
X157468Y4130D01*
X157000Y4223D01*
X156532Y4130D01*
X156226Y3926D01*
X155900Y3891D01*
X155574Y3926D01*
X155268Y4130D01*
X154800Y4223D01*
X154332Y4130D01*
X154026Y3926D01*
X153700Y3891D01*
X153374Y3926D01*
X153068Y4130D01*
X152600Y4223D01*
X152132Y4130D01*
X151826Y3926D01*
X151500Y3891D01*
X151174Y3926D01*
X150868Y4130D01*
X150400Y4223D01*
X149932Y4130D01*
X149535Y3865D01*
X149324Y3550D01*
X149053Y3505D01*
X149048D01*
X148776Y3550D01*
X148565Y3865D01*
X148168Y4130D01*
X147700Y4223D01*
X147232Y4130D01*
X146835Y3865D01*
X146678Y3630D01*
X146650Y3620D01*
X146150D01*
X146122Y3630D01*
X145965Y3865D01*
X145568Y4130D01*
X145100Y4223D01*
X144632Y4130D01*
X144326Y3926D01*
X144000Y3891D01*
X143674Y3926D01*
X143368Y4130D01*
X142900Y4223D01*
X142432Y4130D01*
X142126Y3926D01*
X141800Y3891D01*
X141474Y3926D01*
X141168Y4130D01*
X140700Y4223D01*
X140232Y4130D01*
X139926Y3926D01*
X139600Y3891D01*
X139274Y3926D01*
X138968Y4130D01*
X138500Y4223D01*
X138032Y4130D01*
X137726Y3926D01*
X137400Y3891D01*
X137074Y3926D01*
X136768Y4130D01*
X136300Y4223D01*
X135832Y4130D01*
X135526Y3926D01*
X135200Y3891D01*
X134874Y3926D01*
X134568Y4130D01*
X134100Y4223D01*
X133632Y4130D01*
X133326Y3926D01*
X133000Y3891D01*
X132674Y3926D01*
X132368Y4130D01*
X131900Y4223D01*
X131432Y4130D01*
X131035Y3865D01*
X130856Y3597D01*
X130408Y3553D01*
X130289Y3580D01*
X130165Y3765D01*
X129768Y4030D01*
X129300Y4123D01*
X128832Y4030D01*
X128435Y3765D01*
X128278Y3530D01*
X128250Y3520D01*
X127750D01*
X127722Y3530D01*
X127565Y3765D01*
X127168Y4030D01*
X126700Y4123D01*
X126232Y4030D01*
X125926Y3826D01*
X125600Y3791D01*
X125274Y3826D01*
X124968Y4030D01*
X124500Y4123D01*
X124032Y4030D01*
X123726Y3826D01*
X123400Y3791D01*
X123074Y3826D01*
X122768Y4030D01*
X122300Y4123D01*
X121832Y4030D01*
X121526Y3826D01*
X121200Y3791D01*
X120874Y3826D01*
X120568Y4030D01*
X120100Y4123D01*
X119632Y4030D01*
X119326Y3826D01*
X119000Y3791D01*
X118674Y3826D01*
X118368Y4030D01*
X117900Y4123D01*
X117432Y4030D01*
X117126Y3826D01*
X116800Y3791D01*
X116474Y3826D01*
X116168Y4030D01*
X115700Y4123D01*
X115232Y4030D01*
X114926Y3826D01*
X114600Y3791D01*
X114274Y3826D01*
X113968Y4030D01*
X113500Y4123D01*
X113032Y4030D01*
X112635Y3765D01*
X112394Y3405D01*
X112277Y3371D01*
X112264Y3369D01*
X111861Y3373D01*
X111665Y3665D01*
X111268Y3930D01*
X110800Y4024D01*
X110332Y3930D01*
X109935Y3665D01*
X109778Y3430D01*
X109750Y3420D01*
X109250D01*
X109222Y3430D01*
X109065Y3665D01*
X108668Y3930D01*
X108200Y4024D01*
X107732Y3930D01*
X107426Y3726D01*
X107100Y3691D01*
X106774Y3726D01*
X106468Y3930D01*
X106000Y4024D01*
X105532Y3930D01*
X105226Y3726D01*
X104900Y3691D01*
X104574Y3726D01*
X104268Y3930D01*
X103800Y4024D01*
X103332Y3930D01*
X103026Y3726D01*
X102700Y3691D01*
X102374Y3726D01*
X102068Y3930D01*
X101600Y4024D01*
X101132Y3930D01*
X100826Y3726D01*
X100500Y3691D01*
X100174Y3726D01*
X99868Y3930D01*
X99400Y4024D01*
X98932Y3930D01*
X98626Y3726D01*
X98300Y3691D01*
X97974Y3726D01*
X97668Y3930D01*
X97200Y4024D01*
X96732Y3930D01*
X96426Y3726D01*
X96100Y3691D01*
X95774Y3726D01*
X95468Y3930D01*
X95000Y4024D01*
X94532Y3930D01*
X94135Y3665D01*
X93870Y3268D01*
X93805Y2943D01*
X93295D01*
X93230Y3268D01*
X92965Y3665D01*
X92568Y3930D01*
X92100Y4024D01*
X91632Y3930D01*
X91235Y3665D01*
X91078Y3430D01*
X91050Y3420D01*
X90550D01*
X90522Y3430D01*
X90365Y3665D01*
X89968Y3930D01*
X89500Y4024D01*
X89032Y3930D01*
X88726Y3726D01*
X88400Y3691D01*
X88074Y3726D01*
X87768Y3930D01*
X87300Y4024D01*
X86832Y3930D01*
X86526Y3726D01*
X86200Y3691D01*
X85874Y3726D01*
X85568Y3930D01*
X85100Y4024D01*
X84632Y3930D01*
X84326Y3726D01*
X84000Y3691D01*
X83674Y3726D01*
X83368Y3930D01*
X82900Y4024D01*
X82432Y3930D01*
X82126Y3726D01*
X81800Y3691D01*
X81474Y3726D01*
X81168Y3930D01*
X80700Y4024D01*
X80232Y3930D01*
X79926Y3726D01*
X79600Y3691D01*
X79274Y3726D01*
X78968Y3930D01*
X78500Y4024D01*
X78032Y3930D01*
X77726Y3726D01*
X77400Y3691D01*
X77074Y3726D01*
X76768Y3930D01*
X76300Y4024D01*
X75832Y3930D01*
X75435Y3665D01*
X75256Y3397D01*
X74808Y3353D01*
X74689Y3380D01*
X74565Y3565D01*
X74168Y3830D01*
X73700Y3923D01*
X73232Y3830D01*
X72835Y3565D01*
X72678Y3330D01*
X72650Y3320D01*
X72150D01*
X72122Y3330D01*
X71965Y3565D01*
X71568Y3830D01*
X71100Y3923D01*
X70632Y3830D01*
X70326Y3626D01*
X70000Y3591D01*
X69674Y3626D01*
X69368Y3830D01*
X68900Y3923D01*
X68432Y3830D01*
X68126Y3626D01*
X67800Y3591D01*
X67474Y3626D01*
X67168Y3830D01*
X66700Y3923D01*
X66232Y3830D01*
X65926Y3626D01*
X65600Y3591D01*
X65274Y3626D01*
X64968Y3830D01*
X64500Y3923D01*
X64032Y3830D01*
X63726Y3626D01*
X63400Y3591D01*
X63074Y3626D01*
X62768Y3830D01*
X62300Y3923D01*
X61832Y3830D01*
X61526Y3626D01*
X61200Y3591D01*
X60874Y3626D01*
X60568Y3830D01*
X60100Y3923D01*
X59632Y3830D01*
X59326Y3626D01*
X59000Y3591D01*
X58674Y3626D01*
X58368Y3830D01*
X57900Y3923D01*
X57432Y3830D01*
X57035Y3565D01*
X56824Y3250D01*
X56552Y3205D01*
X56547D01*
X56276Y3250D01*
X56065Y3565D01*
X55668Y3830D01*
X55200Y3923D01*
X54732Y3830D01*
X54335Y3565D01*
X54178Y3330D01*
X54150Y3320D01*
X53650D01*
X53622Y3330D01*
X53465Y3565D01*
X53068Y3830D01*
X52600Y3923D01*
X52132Y3830D01*
X51826Y3626D01*
X51500Y3591D01*
X51174Y3626D01*
X50868Y3830D01*
X50400Y3923D01*
X49932Y3830D01*
X49626Y3626D01*
X49300Y3591D01*
X48974Y3626D01*
X48668Y3830D01*
X48200Y3923D01*
X47732Y3830D01*
X47426Y3626D01*
X47100Y3591D01*
X46774Y3626D01*
X46468Y3830D01*
X46000Y3923D01*
X45532Y3830D01*
X45226Y3626D01*
X44900Y3591D01*
X44574Y3626D01*
X44268Y3830D01*
X43800Y3923D01*
X43332Y3830D01*
X43026Y3626D01*
X42700Y3591D01*
X42374Y3626D01*
X42068Y3830D01*
X41600Y3923D01*
X41132Y3830D01*
X40826Y3626D01*
X40500Y3591D01*
X40174Y3626D01*
X39868Y3830D01*
X39400Y3923D01*
X38932Y3830D01*
X38535Y3565D01*
X38356Y3297D01*
X37907Y3252D01*
X37789Y3280D01*
X37665Y3465D01*
X37268Y3730D01*
X36800Y3824D01*
X36332Y3730D01*
X35935Y3465D01*
X35778Y3230D01*
X35750Y3220D01*
X35250D01*
X35222Y3230D01*
X35065Y3465D01*
X34668Y3730D01*
X34200Y3824D01*
X33732Y3730D01*
X33426Y3526D01*
X33100Y3491D01*
X32774Y3526D01*
X32468Y3730D01*
X32000Y3824D01*
X31532Y3730D01*
X31226Y3526D01*
X30900Y3491D01*
X30574Y3526D01*
X30268Y3730D01*
X29800Y3824D01*
X29332Y3730D01*
X29026Y3526D01*
X28700Y3491D01*
X28374Y3526D01*
X28068Y3730D01*
X27600Y3824D01*
X27132Y3730D01*
X26826Y3526D01*
X26500Y3491D01*
X26174Y3526D01*
X25868Y3730D01*
X25400Y3824D01*
X24932Y3730D01*
X24626Y3526D01*
X24300Y3491D01*
X23974Y3526D01*
X23668Y3730D01*
X23200Y3824D01*
X22732Y3730D01*
X22426Y3526D01*
X22100Y3491D01*
X21774Y3526D01*
X21468Y3730D01*
X21000Y3824D01*
X20532Y3730D01*
X20135Y3465D01*
X19894Y3105D01*
X19777Y3071D01*
X19763Y3069D01*
X19361Y3073D01*
X19165Y3365D01*
X18768Y3630D01*
X18300Y3723D01*
X17832Y3630D01*
X17435Y3365D01*
X17278Y3130D01*
X17250Y3120D01*
X16750D01*
X16722Y3130D01*
X16565Y3365D01*
X16168Y3630D01*
X15700Y3723D01*
X15232Y3630D01*
X14926Y3426D01*
X14600Y3391D01*
X14274Y3426D01*
X13968Y3630D01*
X13500Y3723D01*
X13032Y3630D01*
X12726Y3426D01*
X12400Y3391D01*
X12074Y3426D01*
X11768Y3630D01*
X11300Y3723D01*
X10832Y3630D01*
X10526Y3426D01*
X10200Y3391D01*
X9874Y3426D01*
X9568Y3630D01*
X9100Y3723D01*
X8632Y3630D01*
X8326Y3426D01*
X8000Y3391D01*
X7674Y3426D01*
X7368Y3630D01*
X6900Y3723D01*
X6432Y3630D01*
X6126Y3426D01*
X5800Y3391D01*
X5474Y3426D01*
X5168Y3630D01*
X4700Y3723D01*
X4232Y3630D01*
X3926Y3426D01*
X3600Y3391D01*
X3274Y3426D01*
X2968Y3630D01*
X2643Y3695D01*
Y4205D01*
X2968Y4270D01*
X3365Y4535D01*
X3630Y4932D01*
X3723Y5400D01*
X3630Y5868D01*
X3365Y6265D01*
X3130Y6422D01*
X3120Y6450D01*
Y6950D01*
X3130Y6978D01*
X3365Y7135D01*
X3630Y7532D01*
X3723Y8000D01*
X3630Y8468D01*
X3426Y8774D01*
X3391Y9100D01*
X3426Y9426D01*
X3630Y9732D01*
X3723Y10200D01*
X3630Y10668D01*
X3426Y10974D01*
X3391Y11300D01*
X3426Y11626D01*
X3630Y11932D01*
X3723Y12400D01*
X3630Y12868D01*
X3426Y13174D01*
X3391Y13500D01*
X3426Y13826D01*
X3630Y14132D01*
X3723Y14600D01*
X3630Y15068D01*
X3426Y15374D01*
X3391Y15700D01*
X3426Y16026D01*
X3630Y16332D01*
X3723Y16800D01*
X3630Y17268D01*
X3426Y17574D01*
X3391Y17900D01*
X3426Y18226D01*
X3630Y18532D01*
X3723Y19000D01*
X3630Y19468D01*
X3426Y19774D01*
X3391Y20100D01*
X3426Y20426D01*
X3630Y20732D01*
X3723Y21200D01*
X3630Y21668D01*
X3365Y22065D01*
X3097Y22244D01*
X3053Y22693D01*
X3080Y22811D01*
X3265Y22935D01*
X3530Y23332D01*
X3624Y23800D01*
X3530Y24268D01*
X3265Y24665D01*
X3030Y24822D01*
X3020Y24850D01*
Y25350D01*
X3030Y25378D01*
X3265Y25535D01*
X3530Y25932D01*
X3624Y26400D01*
X3530Y26868D01*
X3326Y27174D01*
X3291Y27500D01*
X3326Y27826D01*
X3530Y28132D01*
X3624Y28600D01*
X3530Y29068D01*
X3326Y29374D01*
X3291Y29700D01*
X3326Y30026D01*
X3530Y30332D01*
X3624Y30800D01*
X3530Y31268D01*
X3326Y31574D01*
X3291Y31900D01*
X3326Y32226D01*
X3530Y32532D01*
X3624Y33000D01*
X3530Y33468D01*
X3326Y33774D01*
X3291Y34100D01*
X3326Y34426D01*
X3530Y34732D01*
X3624Y35200D01*
X3530Y35668D01*
X3326Y35974D01*
X3291Y36300D01*
X3326Y36626D01*
X3530Y36932D01*
X3624Y37400D01*
X3530Y37868D01*
X3326Y38174D01*
X3291Y38500D01*
X3326Y38826D01*
X3530Y39132D01*
X3624Y39600D01*
X3530Y40068D01*
X3265Y40465D01*
X2950Y40676D01*
X2905Y40947D01*
Y40953D01*
X2950Y41224D01*
X3265Y41435D01*
X3530Y41832D01*
X3624Y42300D01*
X3530Y42768D01*
X3265Y43165D01*
X3030Y43322D01*
X3020Y43350D01*
Y43850D01*
X3030Y43878D01*
X3265Y44035D01*
X3530Y44432D01*
X3624Y44900D01*
X3530Y45368D01*
X3326Y45674D01*
X3291Y46000D01*
X3326Y46326D01*
X3530Y46632D01*
X3624Y47100D01*
X3530Y47568D01*
X3326Y47874D01*
X3291Y48200D01*
X3326Y48526D01*
X3530Y48832D01*
X3624Y49300D01*
X3530Y49768D01*
X3326Y50074D01*
X3291Y50400D01*
X3326Y50726D01*
X3530Y51032D01*
X3624Y51500D01*
X3530Y51968D01*
X3326Y52274D01*
X3291Y52600D01*
X3326Y52926D01*
X3530Y53232D01*
X3624Y53700D01*
X3530Y54168D01*
X3326Y54474D01*
X3291Y54800D01*
X3326Y55126D01*
X3530Y55432D01*
X3624Y55900D01*
X3530Y56368D01*
X3326Y56674D01*
X3291Y57000D01*
X3326Y57326D01*
X3530Y57632D01*
X3624Y58100D01*
X3530Y58568D01*
X3265Y58965D01*
X2997Y59144D01*
X2953Y59592D01*
X2980Y59711D01*
X3165Y59835D01*
X3430Y60232D01*
X3523Y60700D01*
X3430Y61168D01*
X3165Y61565D01*
X2930Y61722D01*
X2920Y61750D01*
Y62250D01*
X2930Y62278D01*
X3165Y62435D01*
X3430Y62832D01*
X3523Y63300D01*
X3430Y63768D01*
X3226Y64074D01*
X3191Y64400D01*
X3226Y64726D01*
X3430Y65032D01*
X3523Y65500D01*
X3430Y65968D01*
X3226Y66274D01*
X3191Y66600D01*
X3226Y66926D01*
X3430Y67232D01*
X3523Y67700D01*
X3430Y68168D01*
X3226Y68474D01*
X3191Y68800D01*
X3226Y69126D01*
X3430Y69432D01*
X3523Y69900D01*
X3430Y70368D01*
X3226Y70674D01*
X3191Y71000D01*
X3226Y71326D01*
X3430Y71632D01*
X3523Y72100D01*
X3430Y72568D01*
X3226Y72874D01*
X3191Y73200D01*
X3226Y73526D01*
X3430Y73832D01*
X3523Y74300D01*
X3430Y74768D01*
X3226Y75074D01*
X3191Y75400D01*
X3226Y75726D01*
X3430Y76032D01*
X3523Y76500D01*
X3430Y76968D01*
X3165Y77365D01*
X2805Y77606D01*
X2771Y77723D01*
X2769Y77737D01*
X2772Y78139D01*
X3065Y78335D01*
X3330Y78732D01*
X3424Y79200D01*
X3330Y79668D01*
X3065Y80065D01*
X2830Y80222D01*
X2820Y80250D01*
Y80750D01*
X2830Y80778D01*
X3065Y80935D01*
X3330Y81332D01*
X3424Y81800D01*
X3330Y82268D01*
X3126Y82574D01*
X3091Y82900D01*
X3126Y83226D01*
X3330Y83532D01*
X3424Y84000D01*
X3330Y84468D01*
X3126Y84774D01*
X3091Y85100D01*
X3126Y85426D01*
X3330Y85732D01*
X3424Y86200D01*
X3330Y86668D01*
X3126Y86974D01*
X3091Y87300D01*
X3126Y87626D01*
X3330Y87932D01*
X3424Y88400D01*
X3330Y88868D01*
X3126Y89174D01*
X3091Y89500D01*
X3126Y89826D01*
X3330Y90132D01*
X3424Y90600D01*
X3330Y91068D01*
X3126Y91374D01*
X3091Y91700D01*
X3126Y92026D01*
X3330Y92332D01*
X3424Y92800D01*
X3330Y93268D01*
X3126Y93574D01*
X3091Y93900D01*
X3126Y94226D01*
X3330Y94532D01*
X3424Y95000D01*
X3330Y95468D01*
X3065Y95865D01*
X2880Y95989D01*
X2853Y96108D01*
X2897Y96556D01*
X3165Y96735D01*
X3430Y97132D01*
X3523Y97600D01*
X3430Y98068D01*
X3165Y98465D01*
X2930Y98622D01*
X2920Y98650D01*
Y99150D01*
X2930Y99178D01*
X3165Y99335D01*
X3430Y99732D01*
X3523Y100200D01*
X3430Y100668D01*
X3226Y100974D01*
X3191Y101300D01*
X3226Y101626D01*
X3430Y101932D01*
X3523Y102400D01*
X3430Y102868D01*
X3226Y103174D01*
X3191Y103500D01*
X3226Y103826D01*
X3430Y104132D01*
X3523Y104600D01*
X3430Y105068D01*
X3226Y105374D01*
X3191Y105700D01*
X3226Y106026D01*
X3430Y106332D01*
X3523Y106800D01*
X3430Y107268D01*
X3226Y107574D01*
X3191Y107900D01*
X3226Y108226D01*
X3430Y108532D01*
X3523Y109000D01*
X3430Y109468D01*
X3226Y109774D01*
X3191Y110100D01*
X3226Y110426D01*
X3430Y110732D01*
X3523Y111200D01*
X3430Y111668D01*
X3226Y111974D01*
X3191Y112300D01*
X3226Y112626D01*
X3430Y112932D01*
X3523Y113400D01*
X3430Y113868D01*
X3165Y114265D01*
Y114835D01*
X3430Y115232D01*
X3523Y115700D01*
X3430Y116168D01*
X3165Y116565D01*
X2930Y116722D01*
X2920Y116750D01*
Y117250D01*
X2930Y117278D01*
X3165Y117435D01*
X3430Y117832D01*
X3523Y118300D01*
X3430Y118768D01*
X3226Y119074D01*
X3191Y119400D01*
X3226Y119726D01*
X3430Y120032D01*
X3523Y120500D01*
X3430Y120968D01*
X3226Y121274D01*
X3191Y121600D01*
X3226Y121926D01*
X3430Y122232D01*
X3523Y122700D01*
X3430Y123168D01*
X3226Y123474D01*
X3191Y123800D01*
X3226Y124126D01*
X3430Y124432D01*
X3523Y124900D01*
X3430Y125368D01*
X3226Y125674D01*
X3191Y126000D01*
X3226Y126326D01*
X3430Y126632D01*
X3523Y127100D01*
X3430Y127568D01*
X3226Y127874D01*
X3191Y128200D01*
X3226Y128526D01*
X3430Y128832D01*
X3523Y129300D01*
X3430Y129768D01*
X3226Y130074D01*
X3191Y130400D01*
X3226Y130726D01*
X3430Y131032D01*
X3523Y131500D01*
X3430Y131968D01*
X3165Y132365D01*
X2768Y132630D01*
X2300Y132723D01*
X1832Y132630D01*
X1435Y132365D01*
X1249Y132088D01*
X749Y132224D01*
Y159476D01*
X1249Y159612D01*
X1435Y159335D01*
X1832Y159070D01*
X2300Y158976D01*
X2768Y159070D01*
X3165Y159335D01*
X3430Y159732D01*
X3523Y160200D01*
X3430Y160668D01*
X3165Y161065D01*
X2930Y161222D01*
X2920Y161250D01*
Y161750D01*
X2930Y161778D01*
X3165Y161935D01*
X3430Y162332D01*
X3523Y162800D01*
X3430Y163268D01*
X3226Y163574D01*
X3191Y163900D01*
X3226Y164226D01*
X3430Y164532D01*
X3523Y165000D01*
X3430Y165468D01*
X3226Y165774D01*
X3191Y166100D01*
X3226Y166426D01*
X3430Y166732D01*
X3523Y167200D01*
X3430Y167668D01*
X3226Y167974D01*
X3191Y168300D01*
X3226Y168626D01*
X3430Y168932D01*
X3523Y169400D01*
X3430Y169868D01*
X3226Y170174D01*
X3191Y170500D01*
X3226Y170826D01*
X3430Y171132D01*
X3523Y171600D01*
X3430Y172068D01*
X3226Y172374D01*
X3191Y172700D01*
X3226Y173026D01*
X3430Y173332D01*
X3523Y173800D01*
X3430Y174268D01*
X3226Y174574D01*
X3191Y174900D01*
X3226Y175226D01*
X3430Y175532D01*
X3523Y176000D01*
X3430Y176468D01*
X3165Y176865D01*
X2768Y177130D01*
X2300Y177224D01*
X2295Y177695D01*
X2668Y177770D01*
X3065Y178035D01*
X3330Y178432D01*
X3424Y178900D01*
X3330Y179368D01*
X3065Y179765D01*
X2830Y179922D01*
X2820Y179950D01*
Y180450D01*
X2830Y180478D01*
X3065Y180635D01*
X3330Y181032D01*
X3424Y181500D01*
X3330Y181968D01*
X3126Y182274D01*
X3091Y182600D01*
X3126Y182926D01*
X3330Y183232D01*
X3424Y183700D01*
X3330Y184168D01*
X3126Y184474D01*
X3091Y184800D01*
X3126Y185126D01*
X3330Y185432D01*
X3424Y185900D01*
X3330Y186368D01*
X3126Y186674D01*
X3091Y187000D01*
X3126Y187326D01*
X3330Y187632D01*
X3424Y188100D01*
X3330Y188568D01*
X3126Y188874D01*
X3091Y189200D01*
X3126Y189526D01*
X3330Y189832D01*
X3424Y190300D01*
X3330Y190768D01*
X3126Y191074D01*
X3091Y191400D01*
X3126Y191726D01*
X3330Y192032D01*
X3424Y192500D01*
X3330Y192968D01*
X3126Y193274D01*
X3091Y193600D01*
X3126Y193926D01*
X3330Y194232D01*
X3424Y194700D01*
X3330Y195168D01*
X3065Y195565D01*
X2668Y195830D01*
X2594Y195845D01*
Y196355D01*
X2668Y196370D01*
X3065Y196635D01*
X3330Y197032D01*
X3424Y197500D01*
X3330Y197968D01*
X3065Y198365D01*
X2830Y198522D01*
X2820Y198550D01*
Y199050D01*
X2830Y199078D01*
X3065Y199235D01*
X3330Y199632D01*
X3424Y200100D01*
X3330Y200568D01*
X3126Y200874D01*
X3091Y201200D01*
X3126Y201526D01*
X3330Y201832D01*
X3424Y202300D01*
X3330Y202768D01*
X3126Y203074D01*
X3091Y203400D01*
X3126Y203726D01*
X3330Y204032D01*
X3424Y204500D01*
X3330Y204968D01*
X3126Y205274D01*
X3091Y205600D01*
X3126Y205926D01*
X3330Y206232D01*
X3424Y206700D01*
X3330Y207168D01*
X3126Y207474D01*
X3091Y207800D01*
X3126Y208126D01*
X3330Y208432D01*
X3424Y208900D01*
X3330Y209368D01*
X3126Y209674D01*
X3091Y210000D01*
X3126Y210326D01*
X3330Y210632D01*
X3424Y211100D01*
X3330Y211568D01*
X3126Y211874D01*
X3091Y212200D01*
X3126Y212526D01*
X3330Y212832D01*
X3424Y213300D01*
X3330Y213768D01*
X3065Y214165D01*
X2668Y214430D01*
X2594Y214445D01*
Y214955D01*
X2668Y214970D01*
X3065Y215235D01*
X3330Y215632D01*
X3424Y216100D01*
X3330Y216568D01*
X3065Y216965D01*
X2830Y217122D01*
X2820Y217150D01*
Y217650D01*
X2830Y217678D01*
X3065Y217835D01*
X3330Y218232D01*
X3424Y218700D01*
X3330Y219168D01*
X3126Y219474D01*
X3091Y219800D01*
X3126Y220126D01*
X3330Y220432D01*
X3424Y220900D01*
X3330Y221368D01*
X3126Y221674D01*
X3091Y222000D01*
X3126Y222326D01*
X3330Y222632D01*
X3424Y223100D01*
X3330Y223568D01*
X3142Y223851D01*
X3283Y224247D01*
X3363Y224351D01*
X5331D01*
X5592Y223851D01*
X5470Y223668D01*
X5376Y223200D01*
X5470Y222732D01*
X5735Y222335D01*
X6132Y222070D01*
X6600Y221976D01*
X7068Y222070D01*
X7374Y222274D01*
X7700Y222309D01*
X8026Y222274D01*
X8332Y222070D01*
X8800Y221976D01*
X9268Y222070D01*
X9574Y222274D01*
X9900Y222309D01*
X10226Y222274D01*
X10532Y222070D01*
X11000Y221976D01*
X11468Y222070D01*
X11774Y222274D01*
X12100Y222309D01*
X12426Y222274D01*
X12732Y222070D01*
X13200Y221976D01*
X13668Y222070D01*
X13974Y222274D01*
X14300Y222309D01*
X14626Y222274D01*
X14932Y222070D01*
X15400Y221976D01*
X15868Y222070D01*
X16174Y222274D01*
X16500Y222309D01*
X16826Y222274D01*
X17132Y222070D01*
X17600Y221976D01*
X18068Y222070D01*
X18374Y222274D01*
X18700Y222309D01*
X19026Y222274D01*
X19332Y222070D01*
X19800Y221976D01*
X20268Y222070D01*
X20665Y222335D01*
X20844Y222603D01*
X21293Y222648D01*
X21411Y222620D01*
X21535Y222435D01*
X21932Y222170D01*
X22400Y222077D01*
X22868Y222170D01*
X23265Y222435D01*
X23422Y222670D01*
X23450Y222680D01*
X23950D01*
X23978Y222670D01*
X24135Y222435D01*
X24532Y222170D01*
X25000Y222077D01*
X25468Y222170D01*
X25774Y222374D01*
X26100Y222409D01*
X26426Y222374D01*
X26732Y222170D01*
X27200Y222077D01*
X27668Y222170D01*
X27974Y222374D01*
X28300Y222409D01*
X28626Y222374D01*
X28932Y222170D01*
X29400Y222077D01*
X29868Y222170D01*
X30174Y222374D01*
X30500Y222409D01*
X30826Y222374D01*
X31132Y222170D01*
X31600Y222077D01*
X32068Y222170D01*
X32374Y222374D01*
X32700Y222409D01*
X33026Y222374D01*
X33332Y222170D01*
X33800Y222077D01*
X34268Y222170D01*
X34574Y222374D01*
X34900Y222409D01*
X35226Y222374D01*
X35532Y222170D01*
X36000Y222077D01*
X36468Y222170D01*
X36774Y222374D01*
X37100Y222409D01*
X37426Y222374D01*
X37732Y222170D01*
X38200Y222077D01*
X38668Y222170D01*
X39065Y222435D01*
X39276Y222750D01*
X39548Y222795D01*
X39553D01*
X39824Y222750D01*
X40035Y222435D01*
X40432Y222170D01*
X40900Y222077D01*
X41368Y222170D01*
X41765Y222435D01*
X41922Y222670D01*
X41950Y222680D01*
X42450D01*
X42478Y222670D01*
X42635Y222435D01*
X43032Y222170D01*
X43500Y222077D01*
X43968Y222170D01*
X44274Y222374D01*
X44600Y222409D01*
X44926Y222374D01*
X45232Y222170D01*
X45700Y222077D01*
X46168Y222170D01*
X46474Y222374D01*
X46800Y222409D01*
X47126Y222374D01*
X47432Y222170D01*
X47900Y222077D01*
X48368Y222170D01*
X48765Y222435D01*
X49030Y222832D01*
X49123Y223300D01*
X49030Y223768D01*
X48975Y223851D01*
X49243Y224351D01*
X233584D01*
X233633Y223851D01*
X233532Y223830D01*
X233135Y223565D01*
X232894Y223205D01*
X232777Y223171D01*
X232764Y223169D01*
X232361Y223172D01*
X232165Y223465D01*
X231768Y223730D01*
X231300Y223823D01*
X230832Y223730D01*
X230526Y223526D01*
X230200Y223491D01*
X229874Y223526D01*
X229568Y223730D01*
X229100Y223823D01*
X228632Y223730D01*
X228326Y223526D01*
X228000Y223491D01*
X227674Y223526D01*
X227368Y223730D01*
X226900Y223823D01*
X226432Y223730D01*
X226035Y223465D01*
X225878Y223230D01*
X225850Y223220D01*
X225350D01*
X225322Y223230D01*
X225165Y223465D01*
X224768Y223730D01*
X224300Y223823D01*
X223832Y223730D01*
X223435Y223465D01*
X223224Y223150D01*
X222953Y223105D01*
X222948D01*
X222676Y223150D01*
X222465Y223465D01*
X222068Y223730D01*
X221600Y223823D01*
X221132Y223730D01*
X220826Y223526D01*
X220500Y223491D01*
X220174Y223526D01*
X219868Y223730D01*
X219400Y223823D01*
X218932Y223730D01*
X218626Y223526D01*
X218300Y223491D01*
X217974Y223526D01*
X217668Y223730D01*
X217200Y223823D01*
X216732Y223730D01*
X216426Y223526D01*
X216100Y223491D01*
X215774Y223526D01*
X215468Y223730D01*
X215000Y223823D01*
X214532Y223730D01*
X214226Y223526D01*
X213900Y223491D01*
X213574Y223526D01*
X213268Y223730D01*
X212800Y223823D01*
X212332Y223730D01*
X212026Y223526D01*
X211700Y223491D01*
X211374Y223526D01*
X211068Y223730D01*
X210600Y223823D01*
X210132Y223730D01*
X209826Y223526D01*
X209500Y223491D01*
X209174Y223526D01*
X208868Y223730D01*
X208400Y223823D01*
X207932Y223730D01*
X207535Y223465D01*
X207378Y223230D01*
X207350Y223220D01*
X206850D01*
X206822Y223230D01*
X206665Y223465D01*
X206268Y223730D01*
X205800Y223823D01*
X205332Y223730D01*
X204935Y223465D01*
X204756Y223197D01*
X204308Y223152D01*
X204189Y223180D01*
X204065Y223365D01*
X203668Y223630D01*
X203200Y223724D01*
X202732Y223630D01*
X202426Y223426D01*
X202100Y223391D01*
X201774Y223426D01*
X201468Y223630D01*
X201000Y223724D01*
X200532Y223630D01*
X200226Y223426D01*
X199900Y223391D01*
X199574Y223426D01*
X199268Y223630D01*
X198800Y223724D01*
X198332Y223630D01*
X198026Y223426D01*
X197700Y223391D01*
X197374Y223426D01*
X197068Y223630D01*
X196600Y223724D01*
X196132Y223630D01*
X195826Y223426D01*
X195500Y223391D01*
X195174Y223426D01*
X194868Y223630D01*
X194400Y223724D01*
X193932Y223630D01*
X193626Y223426D01*
X193300Y223391D01*
X192974Y223426D01*
X192668Y223630D01*
X192200Y223724D01*
X191732Y223630D01*
X191426Y223426D01*
X191100Y223391D01*
X190774Y223426D01*
X190468Y223630D01*
X190000Y223724D01*
X189532Y223630D01*
X189135Y223365D01*
X188924Y223050D01*
X188653Y223005D01*
X188647D01*
X188376Y223050D01*
X188165Y223365D01*
X187768Y223630D01*
X187300Y223724D01*
X186832Y223630D01*
X186526Y223426D01*
X186200Y223391D01*
X185874Y223426D01*
X185568Y223630D01*
X185100Y223724D01*
X184632Y223630D01*
X184326Y223426D01*
X184000Y223391D01*
X183674Y223426D01*
X183368Y223630D01*
X182900Y223724D01*
X182432Y223630D01*
X182035Y223365D01*
X181878Y223130D01*
X181850Y223120D01*
X181350D01*
X181322Y223130D01*
X181165Y223365D01*
X180768Y223630D01*
X180300Y223724D01*
X179832Y223630D01*
X179435Y223365D01*
X179224Y223050D01*
X178953Y223005D01*
X178947D01*
X178676Y223050D01*
X178465Y223365D01*
X178068Y223630D01*
X177600Y223724D01*
X177132Y223630D01*
X176826Y223426D01*
X176500Y223391D01*
X176174Y223426D01*
X175868Y223630D01*
X175400Y223724D01*
X174932Y223630D01*
X174626Y223426D01*
X174300Y223391D01*
X173974Y223426D01*
X173668Y223630D01*
X173200Y223724D01*
X172732Y223630D01*
X172426Y223426D01*
X172100Y223391D01*
X171774Y223426D01*
X171468Y223630D01*
X171000Y223724D01*
X170532Y223630D01*
X170226Y223426D01*
X169900Y223391D01*
X169574Y223426D01*
X169268Y223630D01*
X168800Y223724D01*
X168332Y223630D01*
X168026Y223426D01*
X167700Y223391D01*
X167374Y223426D01*
X167068Y223630D01*
X166600Y223724D01*
X166132Y223630D01*
X165826Y223426D01*
X165500Y223391D01*
X165174Y223426D01*
X164868Y223630D01*
X164400Y223724D01*
X163932Y223630D01*
X163535Y223365D01*
X163378Y223130D01*
X163350Y223120D01*
X162850D01*
X162822Y223130D01*
X162665Y223365D01*
X162268Y223630D01*
X161800Y223724D01*
X161332Y223630D01*
X160935Y223365D01*
X160756Y223097D01*
X160308Y223053D01*
X160189Y223080D01*
X160065Y223265D01*
X159668Y223530D01*
X159200Y223623D01*
X158732Y223530D01*
X158426Y223326D01*
X158100Y223291D01*
X157774Y223326D01*
X157468Y223530D01*
X157000Y223623D01*
X156532Y223530D01*
X156226Y223326D01*
X155900Y223291D01*
X155574Y223326D01*
X155268Y223530D01*
X154800Y223623D01*
X154332Y223530D01*
X154026Y223326D01*
X153700Y223291D01*
X153374Y223326D01*
X153068Y223530D01*
X152600Y223623D01*
X152132Y223530D01*
X151826Y223326D01*
X151500Y223291D01*
X151174Y223326D01*
X150868Y223530D01*
X150400Y223623D01*
X149932Y223530D01*
X149626Y223326D01*
X149300Y223291D01*
X148974Y223326D01*
X148668Y223530D01*
X148200Y223623D01*
X147732Y223530D01*
X147426Y223326D01*
X147100Y223291D01*
X146774Y223326D01*
X146468Y223530D01*
X146000Y223623D01*
X145532Y223530D01*
X145135Y223265D01*
X144870Y222868D01*
X144776Y222400D01*
X144870Y221932D01*
X145135Y221535D01*
X145532Y221270D01*
X146000Y221177D01*
X146468Y221270D01*
X146774Y221474D01*
X147100Y221509D01*
X147426Y221474D01*
X147732Y221270D01*
X148200Y221177D01*
X148668Y221270D01*
X148974Y221474D01*
X149300Y221509D01*
X149626Y221474D01*
X149932Y221270D01*
X150400Y221177D01*
X150868Y221270D01*
X151174Y221474D01*
X151500Y221509D01*
X151826Y221474D01*
X152132Y221270D01*
X152600Y221177D01*
X153068Y221270D01*
X153374Y221474D01*
X153700Y221509D01*
X154026Y221474D01*
X154332Y221270D01*
X154800Y221177D01*
X155268Y221270D01*
X155574Y221474D01*
X155900Y221509D01*
X156226Y221474D01*
X156532Y221270D01*
X157000Y221177D01*
X157468Y221270D01*
X157774Y221474D01*
X158100Y221509D01*
X158426Y221474D01*
X158732Y221270D01*
X159200Y221177D01*
X159668Y221270D01*
X160065Y221535D01*
X160244Y221803D01*
X160693Y221848D01*
X160811Y221820D01*
X160935Y221635D01*
X161332Y221370D01*
X161800Y221276D01*
X162268Y221370D01*
X162665Y221635D01*
X162822Y221870D01*
X162850Y221880D01*
X163350D01*
X163378Y221870D01*
X163535Y221635D01*
X163932Y221370D01*
X164400Y221276D01*
X164868Y221370D01*
X165174Y221574D01*
X165500Y221609D01*
X165826Y221574D01*
X166132Y221370D01*
X166600Y221276D01*
X167068Y221370D01*
X167374Y221574D01*
X167700Y221609D01*
X168026Y221574D01*
X168332Y221370D01*
X168800Y221276D01*
X169268Y221370D01*
X169574Y221574D01*
X169900Y221609D01*
X170226Y221574D01*
X170532Y221370D01*
X171000Y221276D01*
X171468Y221370D01*
X171774Y221574D01*
X172100Y221609D01*
X172426Y221574D01*
X172732Y221370D01*
X173200Y221276D01*
X173668Y221370D01*
X173974Y221574D01*
X174300Y221609D01*
X174626Y221574D01*
X174932Y221370D01*
X175400Y221276D01*
X175868Y221370D01*
X176174Y221574D01*
X176500Y221609D01*
X176826Y221574D01*
X177132Y221370D01*
X177600Y221276D01*
X178068Y221370D01*
X178465Y221635D01*
X178676Y221950D01*
X178947Y221995D01*
X178953D01*
X179224Y221950D01*
X179435Y221635D01*
X179832Y221370D01*
X180300Y221276D01*
X180768Y221370D01*
X181165Y221635D01*
X181322Y221870D01*
X181350Y221880D01*
X181850D01*
X181878Y221870D01*
X182035Y221635D01*
X182432Y221370D01*
X182900Y221276D01*
X183368Y221370D01*
X183674Y221574D01*
X184000Y221609D01*
X184326Y221574D01*
X184632Y221370D01*
X185100Y221276D01*
X185568Y221370D01*
X185874Y221574D01*
X186200Y221609D01*
X186526Y221574D01*
X186832Y221370D01*
X187300Y221276D01*
X187768Y221370D01*
X188165Y221635D01*
X188376Y221950D01*
X188647Y221995D01*
X188653D01*
X188924Y221950D01*
X189135Y221635D01*
X189532Y221370D01*
X190000Y221276D01*
X190468Y221370D01*
X190774Y221574D01*
X191100Y221609D01*
X191426Y221574D01*
X191732Y221370D01*
X192200Y221276D01*
X192668Y221370D01*
X192974Y221574D01*
X193300Y221609D01*
X193626Y221574D01*
X193932Y221370D01*
X194400Y221276D01*
X194868Y221370D01*
X195174Y221574D01*
X195500Y221609D01*
X195826Y221574D01*
X196132Y221370D01*
X196600Y221276D01*
X197068Y221370D01*
X197374Y221574D01*
X197700Y221609D01*
X198026Y221574D01*
X198332Y221370D01*
X198800Y221276D01*
X199268Y221370D01*
X199574Y221574D01*
X199900Y221609D01*
X200226Y221574D01*
X200532Y221370D01*
X201000Y221276D01*
X201468Y221370D01*
X201774Y221574D01*
X202100Y221609D01*
X202426Y221574D01*
X202732Y221370D01*
X203200Y221276D01*
X203668Y221370D01*
X204065Y221635D01*
X204244Y221903D01*
X204693Y221948D01*
X204811Y221920D01*
X204935Y221735D01*
X205332Y221470D01*
X205800Y221376D01*
X206268Y221470D01*
X206665Y221735D01*
X206822Y221970D01*
X206850Y221980D01*
X207350D01*
X207378Y221970D01*
X207535Y221735D01*
X207932Y221470D01*
X208400Y221376D01*
X208868Y221470D01*
X209174Y221674D01*
X209500Y221709D01*
X209826Y221674D01*
X210132Y221470D01*
X210600Y221376D01*
X211068Y221470D01*
X211374Y221674D01*
X211700Y221709D01*
X212026Y221674D01*
X212332Y221470D01*
X212800Y221376D01*
X213268Y221470D01*
X213574Y221674D01*
X213900Y221709D01*
X214226Y221674D01*
X214532Y221470D01*
X215000Y221376D01*
X215468Y221470D01*
X215774Y221674D01*
X216100Y221709D01*
X216426Y221674D01*
X216732Y221470D01*
X217200Y221376D01*
X217668Y221470D01*
X217974Y221674D01*
X218300Y221709D01*
X218626Y221674D01*
X218932Y221470D01*
X219400Y221376D01*
X219868Y221470D01*
X220174Y221674D01*
X220500Y221709D01*
X220826Y221674D01*
X221132Y221470D01*
X221600Y221376D01*
X222068Y221470D01*
X222465Y221735D01*
X222676Y222050D01*
X222948Y222095D01*
X222953D01*
X223224Y222050D01*
X223435Y221735D01*
X223832Y221470D01*
X224300Y221376D01*
X224768Y221470D01*
X225165Y221735D01*
X225322Y221970D01*
X225350Y221980D01*
X225850D01*
X225878Y221970D01*
X226035Y221735D01*
X226432Y221470D01*
X226900Y221376D01*
X227368Y221470D01*
X227674Y221674D01*
X228000Y221709D01*
X228326Y221674D01*
X228632Y221470D01*
X229100Y221376D01*
X229568Y221470D01*
X229874Y221674D01*
X230200Y221709D01*
X230526Y221674D01*
X230832Y221470D01*
X231300Y221376D01*
X231768Y221470D01*
X232165Y221735D01*
X232406Y222095D01*
X232523Y222129D01*
X232537Y222131D01*
X232939Y222128D01*
X233135Y221835D01*
X233532Y221570D01*
X234000Y221477D01*
X234468Y221570D01*
X234774Y221774D01*
X235100Y221809D01*
X235426Y221774D01*
X235732Y221570D01*
X236200Y221477D01*
X236668Y221570D01*
X236974Y221774D01*
X237300Y221809D01*
X237626Y221774D01*
X237932Y221570D01*
X238400Y221477D01*
X238868Y221570D01*
X239174Y221774D01*
X239500Y221809D01*
X239826Y221774D01*
X240132Y221570D01*
X240600Y221477D01*
X241068Y221570D01*
X241374Y221774D01*
X241700Y221809D01*
X242026Y221774D01*
X242332Y221570D01*
X242800Y221477D01*
X243268Y221570D01*
X243574Y221774D01*
X243900Y221809D01*
X244226Y221774D01*
X244532Y221570D01*
X245000Y221477D01*
X245468Y221570D01*
X245774Y221774D01*
X246100Y221809D01*
X246426Y221774D01*
X246732Y221570D01*
X247200Y221477D01*
X247668Y221570D01*
X248065Y221835D01*
X248244Y222103D01*
X248692Y222147D01*
X248811Y222120D01*
X248935Y221935D01*
X249332Y221670D01*
X249800Y221576D01*
X250268Y221670D01*
X250665Y221935D01*
X250822Y222170D01*
X250850Y222180D01*
X251350D01*
X251378Y222170D01*
X251535Y221935D01*
X251932Y221670D01*
X252400Y221576D01*
X252868Y221670D01*
X253174Y221874D01*
X253500Y221909D01*
X253826Y221874D01*
X254132Y221670D01*
X254600Y221576D01*
X255068Y221670D01*
X255374Y221874D01*
X255700Y221909D01*
X256026Y221874D01*
X256332Y221670D01*
X256800Y221576D01*
X257268Y221670D01*
X257574Y221874D01*
X257900Y221909D01*
X258226Y221874D01*
X258532Y221670D01*
X259000Y221576D01*
X259468Y221670D01*
X259774Y221874D01*
X260100Y221909D01*
X260426Y221874D01*
X260732Y221670D01*
X261200Y221576D01*
X261668Y221670D01*
X261974Y221874D01*
X262300Y221909D01*
X262626Y221874D01*
X262932Y221670D01*
X263400Y221576D01*
X263868Y221670D01*
X264174Y221874D01*
X264500Y221909D01*
X264826Y221874D01*
X265132Y221670D01*
X265600Y221576D01*
X266068Y221670D01*
X266465Y221935D01*
X266676Y222250D01*
X266948Y222295D01*
X266952D01*
X267224Y222250D01*
X267435Y221935D01*
X267832Y221670D01*
X268300Y221576D01*
X268768Y221670D01*
X269165Y221935D01*
X269322Y222170D01*
X269350Y222180D01*
X269850D01*
X269878Y222170D01*
X270035Y221935D01*
X270432Y221670D01*
X270900Y221576D01*
X271368Y221670D01*
X271674Y221874D01*
X272000Y221909D01*
X272326Y221874D01*
X272632Y221670D01*
X273100Y221576D01*
X273568Y221670D01*
X273874Y221874D01*
X274200Y221909D01*
X274526Y221874D01*
X274832Y221670D01*
X275300Y221576D01*
X275768Y221670D01*
X276165Y221935D01*
X276430Y222332D01*
X276523Y222800D01*
X276430Y223268D01*
X276165Y223665D01*
X275888Y223851D01*
X276024Y224351D01*
X278251D01*
Y210924D01*
D02*
G37*
%LPC*%
G36*
X142900Y223724D02*
X142432Y223630D01*
X142126Y223426D01*
X141800Y223391D01*
X141474Y223426D01*
X141168Y223630D01*
X140700Y223724D01*
X140232Y223630D01*
X139926Y223426D01*
X139600Y223391D01*
X139274Y223426D01*
X138968Y223630D01*
X138500Y223724D01*
X138032Y223630D01*
X137635Y223365D01*
X137478Y223130D01*
X137450Y223120D01*
X136950D01*
X136922Y223130D01*
X136765Y223365D01*
X136368Y223630D01*
X135900Y223724D01*
X135432Y223630D01*
X135035Y223365D01*
X134824Y223050D01*
X134553Y223005D01*
X134547D01*
X134276Y223050D01*
X134065Y223365D01*
X133668Y223630D01*
X133200Y223724D01*
X132732Y223630D01*
X132426Y223426D01*
X132100Y223391D01*
X131774Y223426D01*
X131468Y223630D01*
X131000Y223724D01*
X130532Y223630D01*
X130226Y223426D01*
X129900Y223391D01*
X129574Y223426D01*
X129268Y223630D01*
X128800Y223724D01*
X128332Y223630D01*
X128026Y223426D01*
X127700Y223391D01*
X127374Y223426D01*
X127068Y223630D01*
X126600Y223724D01*
X126132Y223630D01*
X125826Y223426D01*
X125500Y223391D01*
X125174Y223426D01*
X124868Y223630D01*
X124400Y223724D01*
X123932Y223630D01*
X123626Y223426D01*
X123300Y223391D01*
X122974Y223426D01*
X122668Y223630D01*
X122200Y223724D01*
X121732Y223630D01*
X121426Y223426D01*
X121100Y223391D01*
X120774Y223426D01*
X120468Y223630D01*
X120000Y223724D01*
X119532Y223630D01*
X119135Y223365D01*
X118978Y223130D01*
X118950Y223120D01*
X118450D01*
X118422Y223130D01*
X118265Y223365D01*
X117868Y223630D01*
X117400Y223724D01*
X116932Y223630D01*
X116535Y223365D01*
X116356Y223097D01*
X115908Y223053D01*
X115789Y223080D01*
X115665Y223265D01*
X115268Y223530D01*
X114800Y223623D01*
X114332Y223530D01*
X114026Y223326D01*
X113700Y223291D01*
X113374Y223326D01*
X113068Y223530D01*
X112600Y223623D01*
X112132Y223530D01*
X111826Y223326D01*
X111500Y223291D01*
X111174Y223326D01*
X110868Y223530D01*
X110400Y223623D01*
X109932Y223530D01*
X109626Y223326D01*
X109300Y223291D01*
X108974Y223326D01*
X108668Y223530D01*
X108200Y223623D01*
X107732Y223530D01*
X107426Y223326D01*
X107100Y223291D01*
X106774Y223326D01*
X106468Y223530D01*
X106000Y223623D01*
X105532Y223530D01*
X105226Y223326D01*
X104900Y223291D01*
X104574Y223326D01*
X104268Y223530D01*
X103800Y223623D01*
X103332Y223530D01*
X103026Y223326D01*
X102700Y223291D01*
X102374Y223326D01*
X102068Y223530D01*
X101600Y223623D01*
X101132Y223530D01*
X100735Y223265D01*
X100470Y222868D01*
X100376Y222400D01*
X100470Y221932D01*
X100735Y221535D01*
X101132Y221270D01*
X101600Y221177D01*
X102068Y221270D01*
X102374Y221474D01*
X102700Y221509D01*
X103026Y221474D01*
X103332Y221270D01*
X103800Y221177D01*
X104268Y221270D01*
X104574Y221474D01*
X104900Y221509D01*
X105226Y221474D01*
X105532Y221270D01*
X106000Y221177D01*
X106468Y221270D01*
X106774Y221474D01*
X107100Y221509D01*
X107426Y221474D01*
X107732Y221270D01*
X108200Y221177D01*
X108668Y221270D01*
X108974Y221474D01*
X109300Y221509D01*
X109626Y221474D01*
X109932Y221270D01*
X110400Y221177D01*
X110868Y221270D01*
X111174Y221474D01*
X111500Y221509D01*
X111826Y221474D01*
X112132Y221270D01*
X112600Y221177D01*
X113068Y221270D01*
X113374Y221474D01*
X113700Y221509D01*
X114026Y221474D01*
X114332Y221270D01*
X114800Y221177D01*
X115268Y221270D01*
X115665Y221535D01*
X115844Y221803D01*
X116293Y221848D01*
X116411Y221820D01*
X116535Y221635D01*
X116932Y221370D01*
X117400Y221276D01*
X117868Y221370D01*
X118265Y221635D01*
X118422Y221870D01*
X118450Y221880D01*
X118950D01*
X118978Y221870D01*
X119135Y221635D01*
X119532Y221370D01*
X120000Y221276D01*
X120468Y221370D01*
X120774Y221574D01*
X121100Y221609D01*
X121426Y221574D01*
X121732Y221370D01*
X122200Y221276D01*
X122668Y221370D01*
X122974Y221574D01*
X123300Y221609D01*
X123626Y221574D01*
X123932Y221370D01*
X124400Y221276D01*
X124868Y221370D01*
X125174Y221574D01*
X125500Y221609D01*
X125826Y221574D01*
X126132Y221370D01*
X126600Y221276D01*
X127068Y221370D01*
X127374Y221574D01*
X127700Y221609D01*
X128026Y221574D01*
X128332Y221370D01*
X128800Y221276D01*
X129268Y221370D01*
X129574Y221574D01*
X129900Y221609D01*
X130226Y221574D01*
X130532Y221370D01*
X131000Y221276D01*
X131468Y221370D01*
X131774Y221574D01*
X132100Y221609D01*
X132426Y221574D01*
X132732Y221370D01*
X133200Y221276D01*
X133668Y221370D01*
X134065Y221635D01*
X134276Y221950D01*
X134547Y221995D01*
X134553D01*
X134824Y221950D01*
X135035Y221635D01*
X135432Y221370D01*
X135900Y221276D01*
X136368Y221370D01*
X136765Y221635D01*
X136922Y221870D01*
X136950Y221880D01*
X137450D01*
X137478Y221870D01*
X137635Y221635D01*
X138032Y221370D01*
X138500Y221276D01*
X138968Y221370D01*
X139274Y221574D01*
X139600Y221609D01*
X139926Y221574D01*
X140232Y221370D01*
X140700Y221276D01*
X141168Y221370D01*
X141474Y221574D01*
X141800Y221609D01*
X142126Y221574D01*
X142432Y221370D01*
X142900Y221276D01*
X143368Y221370D01*
X143765Y221635D01*
X144030Y222032D01*
X144123Y222500D01*
X144030Y222968D01*
X143765Y223365D01*
X143368Y223630D01*
X142900Y223724D01*
D02*
G37*
G36*
X94300Y217323D02*
X93832Y217230D01*
X93435Y216965D01*
X93170Y216568D01*
X93076Y216100D01*
X93170Y215632D01*
X93435Y215235D01*
X93832Y214970D01*
X94300Y214877D01*
X94768Y214970D01*
X95165Y215235D01*
X95430Y215632D01*
X95524Y216100D01*
X95430Y216568D01*
X95165Y216965D01*
X94768Y217230D01*
X94300Y217323D01*
D02*
G37*
G36*
X158300Y202724D02*
X157832Y202630D01*
X157435Y202365D01*
X157170Y201968D01*
X157077Y201500D01*
X157170Y201032D01*
X157435Y200635D01*
X157832Y200370D01*
X158300Y200276D01*
X158768Y200370D01*
X159165Y200635D01*
X159430Y201032D01*
X159523Y201500D01*
X159430Y201968D01*
X159165Y202365D01*
X158768Y202630D01*
X158300Y202724D01*
D02*
G37*
G36*
X230187Y193736D02*
X229719Y193643D01*
X229322Y193378D01*
X229057Y192981D01*
X228964Y192513D01*
X229057Y192044D01*
X229322Y191648D01*
X229719Y191382D01*
X230187Y191289D01*
X230656Y191382D01*
X231053Y191648D01*
X231318Y192044D01*
X231411Y192513D01*
X231318Y192981D01*
X231053Y193378D01*
X230656Y193643D01*
X230187Y193736D01*
D02*
G37*
G36*
X203613Y193436D02*
X203144Y193343D01*
X202748Y193078D01*
X202482Y192681D01*
X202389Y192213D01*
X202482Y191744D01*
X202748Y191348D01*
X203144Y191082D01*
X203613Y190989D01*
X204081Y191082D01*
X204478Y191348D01*
X204743Y191744D01*
X204836Y192213D01*
X204743Y192681D01*
X204478Y193078D01*
X204081Y193343D01*
X203613Y193436D01*
D02*
G37*
G36*
X76600Y191171D02*
X76190Y191089D01*
X75843Y190857D01*
X75611Y190510D01*
X75529Y190100D01*
X75611Y189690D01*
X75843Y189343D01*
X76190Y189111D01*
X76600Y189029D01*
X77010Y189111D01*
X77357Y189343D01*
X77589Y189690D01*
X77671Y190100D01*
X77589Y190510D01*
X77357Y190857D01*
X77010Y191089D01*
X76600Y191171D01*
D02*
G37*
G36*
X188550Y189676D02*
Y188650D01*
X189576D01*
X189525Y188907D01*
X189237Y189337D01*
X188807Y189625D01*
X188550Y189676D01*
D02*
G37*
G36*
X188050D02*
X187793Y189625D01*
X187363Y189337D01*
X187075Y188907D01*
X187024Y188650D01*
X188050D01*
Y189676D01*
D02*
G37*
G36*
X189576Y188150D02*
X188550D01*
Y187124D01*
X188807Y187175D01*
X189237Y187463D01*
X189525Y187893D01*
X189576Y188150D01*
D02*
G37*
G36*
X188050D02*
X187024D01*
X187075Y187893D01*
X187363Y187463D01*
X187793Y187175D01*
X188050Y187124D01*
Y188150D01*
D02*
G37*
G36*
X238000Y186233D02*
X187907D01*
X187904Y186232D01*
X187901Y186233D01*
X187751Y186168D01*
X187601Y186106D01*
X187600Y186103D01*
X187597Y186102D01*
X187248Y185743D01*
X187188Y185592D01*
X187126Y185441D01*
X187127Y185438D01*
X187126Y185435D01*
X187190Y185286D01*
X187252Y185135D01*
X187267Y185121D01*
Y145300D01*
X187394Y144994D01*
X187700Y144867D01*
X237400D01*
X237706Y144994D01*
X238606Y145894D01*
X238733Y146200D01*
X238606Y146506D01*
X238433Y146679D01*
Y185800D01*
X238306Y186106D01*
X238000Y186233D01*
D02*
G37*
G36*
X76600Y186218D02*
X76249Y186148D01*
X75951Y185949D01*
X75752Y185651D01*
X75682Y185300D01*
X75752Y184949D01*
X75951Y184651D01*
X76249Y184452D01*
X76600Y184382D01*
X76951Y184452D01*
X77249Y184651D01*
X77448Y184949D01*
X77518Y185300D01*
X77448Y185651D01*
X77249Y185949D01*
X76951Y186148D01*
X76600Y186218D01*
D02*
G37*
G36*
X103950Y184876D02*
Y183850D01*
X104976D01*
X104925Y184107D01*
X104637Y184537D01*
X104207Y184825D01*
X103950Y184876D01*
D02*
G37*
G36*
X103450D02*
X103193Y184825D01*
X102763Y184537D01*
X102475Y184107D01*
X102424Y183850D01*
X103450D01*
Y184876D01*
D02*
G37*
G36*
X104976Y183350D02*
X103950D01*
Y182324D01*
X104207Y182375D01*
X104637Y182663D01*
X104925Y183093D01*
X104976Y183350D01*
D02*
G37*
G36*
X103450D02*
X102424D01*
X102475Y183093D01*
X102763Y182663D01*
X103193Y182375D01*
X103450Y182324D01*
Y183350D01*
D02*
G37*
G36*
X95600Y183124D02*
X95132Y183030D01*
X94735Y182765D01*
X94470Y182368D01*
X94376Y181900D01*
X94470Y181432D01*
X94735Y181035D01*
X95132Y180770D01*
X95600Y180676D01*
X96068Y180770D01*
X96465Y181035D01*
X96730Y181432D01*
X96824Y181900D01*
X96730Y182368D01*
X96465Y182765D01*
X96068Y183030D01*
X95600Y183124D01*
D02*
G37*
G36*
X80000Y182671D02*
X79590Y182589D01*
X79243Y182357D01*
X79011Y182010D01*
X78929Y181600D01*
X79011Y181190D01*
X79243Y180843D01*
X79590Y180611D01*
X80000Y180529D01*
X80410Y180611D01*
X80757Y180843D01*
X80989Y181190D01*
X81071Y181600D01*
X80989Y182010D01*
X80757Y182357D01*
X80410Y182589D01*
X80000Y182671D01*
D02*
G37*
G36*
X55400Y180771D02*
X54990Y180689D01*
X54643Y180457D01*
X54411Y180110D01*
X54329Y179700D01*
X54411Y179290D01*
X54643Y178943D01*
X54990Y178711D01*
X55400Y178629D01*
X55810Y178711D01*
X56157Y178943D01*
X56389Y179290D01*
X56471Y179700D01*
X56389Y180110D01*
X56157Y180457D01*
X55810Y180689D01*
X55400Y180771D01*
D02*
G37*
G36*
X51400D02*
X50990Y180689D01*
X50643Y180457D01*
X50411Y180110D01*
X50329Y179700D01*
X50411Y179290D01*
X50643Y178943D01*
X50990Y178711D01*
X51400Y178629D01*
X51810Y178711D01*
X52157Y178943D01*
X52389Y179290D01*
X52471Y179700D01*
X52389Y180110D01*
X52157Y180457D01*
X51810Y180689D01*
X51400Y180771D01*
D02*
G37*
G36*
X87500Y179623D02*
X87032Y179530D01*
X86635Y179265D01*
X86370Y178868D01*
X86277Y178400D01*
X86370Y177932D01*
X86635Y177535D01*
X87032Y177270D01*
X87500Y177176D01*
X87968Y177270D01*
X88365Y177535D01*
X88630Y177932D01*
X88723Y178400D01*
X88630Y178868D01*
X88365Y179265D01*
X87968Y179530D01*
X87500Y179623D01*
D02*
G37*
G36*
X68500Y176924D02*
X68032Y176830D01*
X67635Y176565D01*
X67370Y176168D01*
X67277Y175700D01*
X67370Y175232D01*
X67635Y174835D01*
X68032Y174570D01*
X68500Y174477D01*
X68968Y174570D01*
X69365Y174835D01*
X69630Y175232D01*
X69723Y175700D01*
X69630Y176168D01*
X69365Y176565D01*
X68968Y176830D01*
X68500Y176924D01*
D02*
G37*
G36*
X132400Y176926D02*
X131893Y176825D01*
X131463Y176537D01*
X131175Y176107D01*
X131075Y175600D01*
X131175Y175093D01*
X131463Y174663D01*
X131893Y174375D01*
X132400Y174275D01*
X132907Y174375D01*
X133337Y174663D01*
X133625Y175093D01*
X133726Y175600D01*
X133625Y176107D01*
X133337Y176537D01*
X132907Y176825D01*
X132400Y176926D01*
D02*
G37*
G36*
X138148Y173778D02*
Y172752D01*
X139173D01*
X139122Y173010D01*
X138835Y173440D01*
X138405Y173727D01*
X138148Y173778D01*
D02*
G37*
G36*
X137648D02*
X137390Y173727D01*
X136960Y173440D01*
X136673Y173010D01*
X136622Y172752D01*
X137648D01*
Y173778D01*
D02*
G37*
G36*
X139173Y172252D02*
X138148D01*
Y171227D01*
X138405Y171278D01*
X138835Y171565D01*
X139122Y171995D01*
X139173Y172252D01*
D02*
G37*
G36*
X137648D02*
X136622D01*
X136673Y171995D01*
X136960Y171565D01*
X137390Y171278D01*
X137648Y171227D01*
Y172252D01*
D02*
G37*
G36*
X49800Y170624D02*
X49332Y170530D01*
X48935Y170265D01*
X48670Y169868D01*
X48577Y169400D01*
X48670Y168932D01*
X48935Y168535D01*
X49332Y168270D01*
X49800Y168176D01*
X50268Y168270D01*
X50665Y168535D01*
X50930Y168932D01*
X51024Y169400D01*
X50930Y169868D01*
X50665Y170265D01*
X50268Y170530D01*
X49800Y170624D01*
D02*
G37*
G36*
X120600Y169508D02*
X120132Y169415D01*
X119735Y169149D01*
X119470Y168753D01*
X119377Y168284D01*
X119470Y167816D01*
X119735Y167419D01*
X120132Y167154D01*
X120600Y167061D01*
X121068Y167154D01*
X121465Y167419D01*
X121730Y167816D01*
X121824Y168284D01*
X121730Y168753D01*
X121465Y169149D01*
X121068Y169415D01*
X120600Y169508D01*
D02*
G37*
G36*
X150600Y168422D02*
X150171Y168336D01*
X149807Y168093D01*
X149564Y167729D01*
X149478Y167300D01*
X149564Y166871D01*
X149807Y166507D01*
X150171Y166264D01*
X150600Y166178D01*
X151029Y166264D01*
X151393Y166507D01*
X151636Y166871D01*
X151722Y167300D01*
X151636Y167729D01*
X151393Y168093D01*
X151029Y168336D01*
X150600Y168422D01*
D02*
G37*
G36*
X17500Y168423D02*
X17032Y168330D01*
X16635Y168065D01*
X16370Y167668D01*
X16276Y167200D01*
X16370Y166732D01*
X16635Y166335D01*
X17032Y166070D01*
X17500Y165977D01*
X17968Y166070D01*
X18365Y166335D01*
X18630Y166732D01*
X18723Y167200D01*
X18630Y167668D01*
X18365Y168065D01*
X17968Y168330D01*
X17500Y168423D01*
D02*
G37*
G36*
X85400Y165471D02*
X84990Y165389D01*
X84643Y165157D01*
X84411Y164810D01*
X84329Y164400D01*
X84372Y164187D01*
X84052Y163790D01*
X83987Y163753D01*
X83900Y163771D01*
X83490Y163689D01*
X83143Y163457D01*
X82911Y163110D01*
X82829Y162700D01*
X82911Y162290D01*
X83143Y161943D01*
X83490Y161711D01*
X83900Y161629D01*
X84310Y161711D01*
X84657Y161943D01*
X84889Y162290D01*
X84971Y162700D01*
X84928Y162914D01*
X85248Y163310D01*
X85313Y163347D01*
X85400Y163329D01*
X85810Y163411D01*
X86157Y163643D01*
X86389Y163990D01*
X86471Y164400D01*
X86389Y164810D01*
X86157Y165157D01*
X85810Y165389D01*
X85400Y165471D01*
D02*
G37*
G36*
X103700D02*
X103290Y165389D01*
X102943Y165157D01*
X102711Y164810D01*
X102629Y164400D01*
X102711Y163990D01*
X102943Y163643D01*
X103290Y163411D01*
X103700Y163329D01*
X104110Y163411D01*
X104457Y163643D01*
X104689Y163990D01*
X104771Y164400D01*
X104689Y164810D01*
X104457Y165157D01*
X104110Y165389D01*
X103700Y165471D01*
D02*
G37*
G36*
X139800Y164718D02*
X139449Y164648D01*
X139151Y164449D01*
X138952Y164151D01*
X138882Y163800D01*
X138952Y163449D01*
X139151Y163151D01*
X139449Y162952D01*
X139800Y162882D01*
X140151Y162952D01*
X140449Y163151D01*
X140648Y163449D01*
X140718Y163800D01*
X140648Y164151D01*
X140449Y164449D01*
X140151Y164648D01*
X139800Y164718D01*
D02*
G37*
G36*
X108000Y163771D02*
X107590Y163689D01*
X107243Y163457D01*
X107011Y163110D01*
X106929Y162700D01*
X107011Y162290D01*
X107243Y161943D01*
X107590Y161711D01*
X108000Y161629D01*
X108410Y161711D01*
X108757Y161943D01*
X108989Y162290D01*
X109071Y162700D01*
X108989Y163110D01*
X108757Y163457D01*
X108410Y163689D01*
X108000Y163771D01*
D02*
G37*
G36*
X100400Y160426D02*
Y159400D01*
X101426D01*
X101375Y159657D01*
X101087Y160087D01*
X100657Y160375D01*
X100400Y160426D01*
D02*
G37*
G36*
X99900D02*
X99643Y160375D01*
X99213Y160087D01*
X98925Y159657D01*
X98874Y159400D01*
X99900D01*
Y160426D01*
D02*
G37*
G36*
X140600Y178218D02*
X140249Y178148D01*
X139951Y177949D01*
X139752Y177651D01*
X139682Y177300D01*
X139752Y176949D01*
X139951Y176651D01*
X140249Y176452D01*
X140486Y176405D01*
X146686Y170204D01*
Y160696D01*
X145045Y159055D01*
X144545Y159262D01*
Y167069D01*
X144491Y167342D01*
X144336Y167573D01*
X142914Y168996D01*
Y171548D01*
X143048Y171749D01*
X143118Y172100D01*
X143048Y172451D01*
X142849Y172749D01*
X142551Y172948D01*
X142200Y173018D01*
X141849Y172948D01*
X141551Y172749D01*
X141352Y172451D01*
X141282Y172100D01*
X141352Y171749D01*
X141486Y171548D01*
Y170386D01*
X140986Y170235D01*
X140968Y170263D01*
X140571Y170528D01*
X140102Y170621D01*
X139634Y170528D01*
X139237Y170263D01*
X138972Y169866D01*
X138879Y169398D01*
X138972Y168929D01*
X139237Y168533D01*
X139634Y168267D01*
X140102Y168174D01*
X140571Y168267D01*
X140968Y168533D01*
X141000Y168581D01*
X141531Y168476D01*
X141541Y168427D01*
X141695Y168195D01*
X143118Y166773D01*
Y165697D01*
X142618Y165546D01*
X142549Y165649D01*
X142251Y165848D01*
X141900Y165918D01*
X141549Y165848D01*
X141251Y165649D01*
X141052Y165351D01*
X140982Y165000D01*
X141052Y164649D01*
X141251Y164351D01*
X141549Y164152D01*
X141900Y164082D01*
X142251Y164152D01*
X142549Y164351D01*
X142618Y164454D01*
X143118Y164303D01*
Y159479D01*
X142625Y159330D01*
X142613Y159335D01*
X142512Y159486D01*
X142214Y159685D01*
X141863Y159755D01*
X141512Y159685D01*
X141214Y159486D01*
X141168Y159417D01*
X140590D01*
X140543Y159486D01*
X140246Y159685D01*
X139894Y159755D01*
X139543Y159685D01*
X139343Y159551D01*
X138568D01*
X138416Y160051D01*
X138575Y160157D01*
X138774Y160454D01*
X138844Y160805D01*
X138774Y161157D01*
X138575Y161454D01*
X138277Y161653D01*
X137926Y161723D01*
X137575Y161653D01*
X137277Y161454D01*
X137078Y161157D01*
X137008Y160805D01*
X137078Y160454D01*
X137277Y160157D01*
X137436Y160051D01*
X137284Y159551D01*
X127830D01*
X127563Y160051D01*
X127589Y160090D01*
X127671Y160500D01*
X127589Y160910D01*
X127357Y161257D01*
X127010Y161489D01*
X126600Y161571D01*
X126190Y161489D01*
X125843Y161257D01*
X125611Y160910D01*
X125529Y160500D01*
X125611Y160090D01*
X125843Y159743D01*
X125849Y159739D01*
Y158094D01*
X125349Y157763D01*
X125232Y157786D01*
X125114Y157763D01*
X124614Y158094D01*
Y172748D01*
X124748Y172949D01*
X124818Y173300D01*
X124748Y173651D01*
X124549Y173949D01*
X124251Y174148D01*
X123900Y174218D01*
X123549Y174148D01*
X123251Y173949D01*
X123052Y173651D01*
X122982Y173300D01*
X123052Y172949D01*
X123186Y172748D01*
Y145237D01*
X123241Y144964D01*
X123395Y144732D01*
X128905Y139223D01*
X128952Y138986D01*
X129151Y138688D01*
X129449Y138489D01*
X129800Y138419D01*
X130151Y138489D01*
X130449Y138688D01*
X130648Y138986D01*
X130718Y139337D01*
X130686Y139498D01*
X131146Y139744D01*
X133086Y137804D01*
Y136752D01*
X132952Y136551D01*
X132882Y136200D01*
X132952Y135849D01*
X133151Y135551D01*
X133449Y135352D01*
X133800Y135282D01*
X134151Y135352D01*
X134449Y135551D01*
X134528Y135669D01*
X135028Y135517D01*
Y130400D01*
X135117Y129951D01*
X135371Y129571D01*
X139128Y125814D01*
Y109085D01*
X139075Y109007D01*
X138974Y108500D01*
X139075Y107993D01*
X139363Y107563D01*
X139793Y107275D01*
X140300Y107175D01*
X140807Y107275D01*
X141237Y107563D01*
X141525Y107993D01*
X141625Y108500D01*
X141525Y109007D01*
X141472Y109085D01*
Y126300D01*
X141383Y126749D01*
X141129Y127129D01*
X140232Y128026D01*
X140479Y128487D01*
X140500Y128482D01*
X140851Y128552D01*
X141149Y128751D01*
X141348Y129049D01*
X141418Y129400D01*
X141348Y129751D01*
X141214Y129952D01*
Y131875D01*
X141300Y131972D01*
X141714Y132219D01*
X141900Y132182D01*
X142251Y132252D01*
X142549Y132451D01*
X142748Y132749D01*
X142818Y133100D01*
X142748Y133451D01*
X142674Y133562D01*
X142735Y133817D01*
X143089Y133920D01*
X143279Y133937D01*
X143536Y133765D01*
X143887Y133695D01*
X144239Y133765D01*
X144536Y133964D01*
X144735Y134261D01*
X144805Y134613D01*
X144735Y134964D01*
X144600Y135167D01*
X144547Y156319D01*
X144679Y156517D01*
X144717Y156708D01*
X147905Y159895D01*
X148059Y160127D01*
X148114Y160400D01*
Y170500D01*
X148059Y170773D01*
X147905Y171005D01*
X141495Y177415D01*
X141448Y177651D01*
X141249Y177949D01*
X140951Y178148D01*
X140600Y178218D01*
D02*
G37*
G36*
X101426Y158900D02*
X100400D01*
Y157874D01*
X100657Y157925D01*
X101087Y158213D01*
X101375Y158643D01*
X101426Y158900D01*
D02*
G37*
G36*
X99900D02*
X98874D01*
X98925Y158643D01*
X99213Y158213D01*
X99643Y157925D01*
X99900Y157874D01*
Y158900D01*
D02*
G37*
G36*
X15435Y157964D02*
X14966Y157871D01*
X14570Y157605D01*
X14483Y157476D01*
X13886D01*
X13800Y157605D01*
X13403Y157871D01*
X12935Y157964D01*
X12466Y157871D01*
X12070Y157605D01*
X11500D01*
X11103Y157871D01*
X10635Y157964D01*
X10166Y157871D01*
X9770Y157605D01*
X9504Y157208D01*
X9411Y156740D01*
X9502Y156285D01*
X9504Y156271D01*
X9228Y155785D01*
X4894D01*
X4894Y155785D01*
X4467Y155961D01*
X4303Y156071D01*
X3835Y156164D01*
X3366Y156071D01*
X2970Y155805D01*
X2704Y155408D01*
X2611Y154940D01*
X2704Y154472D01*
X2909Y154166D01*
X2944Y153840D01*
X2909Y153514D01*
X2704Y153208D01*
X2611Y152740D01*
X2704Y152272D01*
X2909Y151966D01*
X2944Y151640D01*
X2909Y151314D01*
X2704Y151008D01*
X2611Y150540D01*
X2704Y150072D01*
X2909Y149766D01*
X2944Y149440D01*
X2909Y149114D01*
X2704Y148808D01*
X2611Y148340D01*
X2704Y147872D01*
X2909Y147566D01*
X2944Y147240D01*
X2909Y146914D01*
X2704Y146608D01*
X2611Y146140D01*
X2704Y145672D01*
X2909Y145366D01*
X2944Y145040D01*
X2909Y144714D01*
X2704Y144408D01*
X2611Y143940D01*
X2704Y143472D01*
X2909Y143166D01*
X2944Y142840D01*
X2909Y142514D01*
X2704Y142208D01*
X2611Y141740D01*
X2704Y141272D01*
X2970Y140875D01*
X3204Y140718D01*
X3215Y140691D01*
Y140190D01*
X3204Y140162D01*
X2970Y140005D01*
X2704Y139608D01*
X2611Y139140D01*
X2704Y138672D01*
X2970Y138275D01*
X3366Y138010D01*
X3835Y137917D01*
X4303Y138010D01*
X4394Y138071D01*
X4894Y137804D01*
Y136100D01*
X16705Y136100D01*
X16705Y136100D01*
X17146Y135957D01*
X17366Y135810D01*
X17835Y135717D01*
X18303Y135810D01*
X18700Y136075D01*
X18965Y136472D01*
X19058Y136940D01*
X18965Y137408D01*
X18700Y137805D01*
X18465Y137962D01*
X18455Y137990D01*
Y138490D01*
X18465Y138518D01*
X18700Y138675D01*
X18965Y139072D01*
X19058Y139540D01*
X18965Y140008D01*
X18761Y140314D01*
X18725Y140640D01*
X18761Y140966D01*
X18965Y141272D01*
X19058Y141740D01*
X18965Y142208D01*
X18761Y142514D01*
X18725Y142840D01*
X18761Y143166D01*
X18965Y143472D01*
X19058Y143940D01*
X18965Y144408D01*
X18700Y144805D01*
X18465Y144962D01*
X18455Y144990D01*
Y145491D01*
X18465Y145518D01*
X18700Y145675D01*
X18965Y146072D01*
X19058Y146540D01*
X18965Y147008D01*
X18761Y147314D01*
X18725Y147640D01*
X18761Y147966D01*
X18965Y148272D01*
X19058Y148740D01*
X18965Y149208D01*
X18700Y149605D01*
X18465Y149762D01*
X18455Y149790D01*
Y150291D01*
X18465Y150318D01*
X18700Y150475D01*
X18965Y150872D01*
X19058Y151340D01*
X18965Y151808D01*
X18700Y152205D01*
X18465Y152362D01*
X18455Y152390D01*
Y152891D01*
X18465Y152918D01*
X18700Y153075D01*
X18965Y153472D01*
X19058Y153940D01*
X18965Y154408D01*
X18700Y154805D01*
X18303Y155071D01*
X17835Y155164D01*
X17366Y155071D01*
X17206Y154963D01*
X16705Y155230D01*
Y155785D01*
X16705Y155785D01*
X16705D01*
X16565Y156271D01*
X16568Y156285D01*
X16658Y156740D01*
X16565Y157208D01*
X16300Y157605D01*
X15903Y157871D01*
X15435Y157964D01*
D02*
G37*
G36*
X6666Y159032D02*
X6198Y158939D01*
X5801Y158674D01*
X5536Y158277D01*
X5442Y157809D01*
X5536Y157341D01*
X5801Y156944D01*
X6198Y156678D01*
X6666Y156585D01*
X7134Y156678D01*
X7531Y156944D01*
X7796Y157341D01*
X7890Y157809D01*
X7796Y158277D01*
X7531Y158674D01*
X7134Y158939D01*
X6666Y159032D01*
D02*
G37*
G36*
X113800Y155724D02*
X113332Y155630D01*
X112935Y155365D01*
X112670Y154968D01*
X112576Y154500D01*
X112670Y154032D01*
X112935Y153635D01*
X113332Y153370D01*
X113800Y153277D01*
X114268Y153370D01*
X114665Y153635D01*
X114930Y154032D01*
X115024Y154500D01*
X114930Y154968D01*
X114665Y155365D01*
X114268Y155630D01*
X113800Y155724D01*
D02*
G37*
G36*
X109000Y154824D02*
X108532Y154730D01*
X108135Y154465D01*
X107870Y154068D01*
X107776Y153600D01*
X107870Y153132D01*
X108135Y152735D01*
X108532Y152470D01*
X109000Y152376D01*
X109468Y152470D01*
X109865Y152735D01*
X110130Y153132D01*
X110223Y153600D01*
X110130Y154068D01*
X109865Y154465D01*
X109468Y154730D01*
X109000Y154824D01*
D02*
G37*
G36*
X99687Y152918D02*
X99336Y152848D01*
X99038Y152649D01*
X98840Y152351D01*
X98770Y152000D01*
X98840Y151649D01*
X99038Y151351D01*
X99336Y151152D01*
X99687Y151082D01*
X100011Y151147D01*
X100258Y150966D01*
X100403Y150794D01*
X100345Y150500D01*
X100414Y150149D01*
X100613Y149851D01*
X100911Y149652D01*
X101262Y149582D01*
X101613Y149652D01*
X101911Y149851D01*
X102110Y150149D01*
X102180Y150500D01*
X102110Y150851D01*
X101911Y151149D01*
X101613Y151348D01*
X101262Y151418D01*
X100939Y151353D01*
X100692Y151534D01*
X100547Y151706D01*
X100605Y152000D01*
X100535Y152351D01*
X100336Y152649D01*
X100039Y152848D01*
X99687Y152918D01*
D02*
G37*
G36*
X52712Y151512D02*
X52244Y151419D01*
X51847Y151153D01*
X51581Y150756D01*
X51488Y150288D01*
X51581Y149820D01*
X51847Y149423D01*
X52244Y149158D01*
X52712Y149065D01*
X53180Y149158D01*
X53577Y149423D01*
X53842Y149820D01*
X53935Y150288D01*
X53842Y150756D01*
X53577Y151153D01*
X53180Y151419D01*
X52712Y151512D01*
D02*
G37*
G36*
X111950Y149876D02*
Y148850D01*
X112976D01*
X112925Y149107D01*
X112637Y149537D01*
X112207Y149825D01*
X111950Y149876D01*
D02*
G37*
G36*
X111450D02*
X111193Y149825D01*
X110763Y149537D01*
X110475Y149107D01*
X110424Y148850D01*
X111450D01*
Y149876D01*
D02*
G37*
G36*
X112976Y148350D02*
X111950D01*
Y147324D01*
X112207Y147375D01*
X112637Y147663D01*
X112925Y148093D01*
X112976Y148350D01*
D02*
G37*
G36*
X111450D02*
X110424D01*
X110475Y148093D01*
X110763Y147663D01*
X111193Y147375D01*
X111450Y147324D01*
Y148350D01*
D02*
G37*
G36*
X83750Y147476D02*
Y146450D01*
X84776D01*
X84725Y146707D01*
X84437Y147137D01*
X84007Y147425D01*
X83750Y147476D01*
D02*
G37*
G36*
X83250D02*
X82993Y147425D01*
X82563Y147137D01*
X82275Y146707D01*
X82224Y146450D01*
X83250D01*
Y147476D01*
D02*
G37*
G36*
X74700Y147424D02*
X74232Y147330D01*
X73835Y147065D01*
X73570Y146668D01*
X73476Y146200D01*
X73570Y145732D01*
X73835Y145335D01*
X74232Y145070D01*
X74700Y144976D01*
X75168Y145070D01*
X75565Y145335D01*
X75830Y145732D01*
X75924Y146200D01*
X75830Y146668D01*
X75565Y147065D01*
X75168Y147330D01*
X74700Y147424D01*
D02*
G37*
G36*
X84776Y145950D02*
X83750D01*
Y144924D01*
X84007Y144975D01*
X84437Y145263D01*
X84725Y145693D01*
X84776Y145950D01*
D02*
G37*
G36*
X83250D02*
X82224D01*
X82275Y145693D01*
X82563Y145263D01*
X82993Y144975D01*
X83250Y144924D01*
Y145950D01*
D02*
G37*
G36*
X229200Y144071D02*
X228790Y143989D01*
X228443Y143757D01*
X228211Y143410D01*
X228129Y143000D01*
X228211Y142590D01*
X228443Y142243D01*
X228790Y142011D01*
X229200Y141929D01*
X229610Y142011D01*
X229957Y142243D01*
X230189Y142590D01*
X230271Y143000D01*
X230189Y143410D01*
X229957Y143757D01*
X229610Y143989D01*
X229200Y144071D01*
D02*
G37*
G36*
X167100Y143423D02*
X166632Y143330D01*
X166235Y143065D01*
X165970Y142668D01*
X165876Y142200D01*
X165970Y141732D01*
X166235Y141335D01*
X166632Y141070D01*
X167100Y140977D01*
X167568Y141070D01*
X167965Y141335D01*
X168230Y141732D01*
X168324Y142200D01*
X168230Y142668D01*
X167965Y143065D01*
X167568Y143330D01*
X167100Y143423D01*
D02*
G37*
G36*
X105987Y144219D02*
X105324Y144087D01*
X104762Y143712D01*
X104386Y143150D01*
X104254Y142487D01*
X104386Y141824D01*
X104762Y141262D01*
X105324Y140886D01*
X105987Y140754D01*
X106650Y140886D01*
X107212Y141262D01*
X107587Y141824D01*
X107719Y142487D01*
X107587Y143150D01*
X107212Y143712D01*
X106650Y144087D01*
X105987Y144219D01*
D02*
G37*
G36*
X101262D02*
X100599Y144087D01*
X100037Y143712D01*
X99662Y143150D01*
X99530Y142487D01*
X99662Y141824D01*
X100037Y141262D01*
X100599Y140886D01*
X101262Y140754D01*
X101925Y140886D01*
X102487Y141262D01*
X102863Y141824D01*
X102995Y142487D01*
X102863Y143150D01*
X102487Y143712D01*
X101925Y144087D01*
X101262Y144219D01*
D02*
G37*
G36*
X96538D02*
X95875Y144087D01*
X95313Y143712D01*
X94937Y143150D01*
X94805Y142487D01*
X94937Y141824D01*
X95313Y141262D01*
X95875Y140886D01*
X96538Y140754D01*
X97201Y140886D01*
X97763Y141262D01*
X98138Y141824D01*
X98270Y142487D01*
X98138Y143150D01*
X97763Y143712D01*
X97201Y144087D01*
X96538Y144219D01*
D02*
G37*
G36*
X91813D02*
X91150Y144087D01*
X90588Y143712D01*
X90213Y143150D01*
X90081Y142487D01*
X90213Y141824D01*
X90588Y141262D01*
X91150Y140886D01*
X91813Y140754D01*
X92476Y140886D01*
X93038Y141262D01*
X93414Y141824D01*
X93546Y142487D01*
X93414Y143150D01*
X93038Y143712D01*
X92476Y144087D01*
X91813Y144219D01*
D02*
G37*
G36*
X54300Y145324D02*
X53832Y145230D01*
X53435Y144965D01*
X53170Y144568D01*
X53076Y144100D01*
X53170Y143632D01*
X53435Y143235D01*
X53832Y142970D01*
X54300Y142877D01*
X54658Y142948D01*
X54971Y142734D01*
X55097Y142588D01*
X55076Y142487D01*
X55170Y142018D01*
X55435Y141621D01*
X55832Y141356D01*
X56300Y141263D01*
X56442Y141291D01*
X56876Y140912D01*
X56877Y140907D01*
X56970Y140444D01*
X57235Y140047D01*
X57632Y139781D01*
X58100Y139688D01*
X58242Y139717D01*
X58676Y139337D01*
X58677Y139332D01*
X58770Y138869D01*
X59035Y138472D01*
X59432Y138207D01*
X59900Y138113D01*
X60368Y138207D01*
X60765Y138472D01*
X61030Y138869D01*
X61124Y139337D01*
X61030Y139805D01*
X60765Y140202D01*
X60368Y140467D01*
X59900Y140560D01*
X59758Y140532D01*
X59324Y140912D01*
X59323Y140917D01*
X59230Y141380D01*
X58965Y141777D01*
X58568Y142042D01*
X58100Y142135D01*
X57958Y142107D01*
X57524Y142486D01*
X57523Y142491D01*
X57430Y142955D01*
X57165Y143352D01*
X56768Y143617D01*
X56300Y143710D01*
X55942Y143639D01*
X55629Y143853D01*
X55503Y143999D01*
X55524Y144100D01*
X55430Y144568D01*
X55165Y144965D01*
X54768Y145230D01*
X54300Y145324D01*
D02*
G37*
G36*
X83788Y138732D02*
Y138012D01*
X84508D01*
X84480Y138152D01*
X84259Y138483D01*
X83928Y138704D01*
X83788Y138732D01*
D02*
G37*
G36*
X83288D02*
X83148Y138704D01*
X82817Y138483D01*
X82596Y138152D01*
X82568Y138012D01*
X83288D01*
Y138732D01*
D02*
G37*
G36*
X84508Y137512D02*
X83788D01*
Y136792D01*
X83928Y136820D01*
X84259Y137041D01*
X84480Y137372D01*
X84508Y137512D01*
D02*
G37*
G36*
X83288D02*
X82568D01*
X82596Y137372D01*
X82817Y137041D01*
X83148Y136820D01*
X83288Y136792D01*
Y137512D01*
D02*
G37*
G36*
X73600Y138623D02*
X73132Y138530D01*
X72735Y138265D01*
X72470Y137868D01*
X72377Y137400D01*
X72470Y136932D01*
X72735Y136535D01*
X73132Y136270D01*
X73600Y136177D01*
X74068Y136270D01*
X74465Y136535D01*
X74730Y136932D01*
X74823Y137400D01*
X74730Y137868D01*
X74465Y138265D01*
X74068Y138530D01*
X73600Y138623D01*
D02*
G37*
G36*
X105987Y139495D02*
X105324Y139363D01*
X104762Y138987D01*
X104386Y138425D01*
X104254Y137762D01*
X104386Y137099D01*
X104762Y136537D01*
X105324Y136162D01*
X105987Y136030D01*
X106650Y136162D01*
X107212Y136537D01*
X107587Y137099D01*
X107719Y137762D01*
X107587Y138425D01*
X107212Y138987D01*
X106650Y139363D01*
X105987Y139495D01*
D02*
G37*
G36*
X101262D02*
X100599Y139363D01*
X100037Y138987D01*
X99662Y138425D01*
X99530Y137762D01*
X99662Y137099D01*
X100037Y136537D01*
X100599Y136162D01*
X101262Y136030D01*
X101925Y136162D01*
X102487Y136537D01*
X102863Y137099D01*
X102995Y137762D01*
X102863Y138425D01*
X102487Y138987D01*
X101925Y139363D01*
X101262Y139495D01*
D02*
G37*
G36*
X96538D02*
X95875Y139363D01*
X95313Y138987D01*
X94937Y138425D01*
X94805Y137762D01*
X94937Y137099D01*
X95313Y136537D01*
X95875Y136162D01*
X96538Y136030D01*
X97201Y136162D01*
X97763Y136537D01*
X98138Y137099D01*
X98270Y137762D01*
X98138Y138425D01*
X97763Y138987D01*
X97201Y139363D01*
X96538Y139495D01*
D02*
G37*
G36*
X91813D02*
X91150Y139363D01*
X90588Y138987D01*
X90213Y138425D01*
X90081Y137762D01*
X90213Y137099D01*
X90588Y136537D01*
X91150Y136162D01*
X91813Y136030D01*
X92476Y136162D01*
X93038Y136537D01*
X93414Y137099D01*
X93546Y137762D01*
X93414Y138425D01*
X93038Y138987D01*
X92476Y139363D01*
X91813Y139495D01*
D02*
G37*
G36*
X5135Y135364D02*
X4666Y135271D01*
X4270Y135005D01*
X4004Y134608D01*
X3911Y134140D01*
X4004Y133672D01*
X4270Y133275D01*
X4666Y133010D01*
X5135Y132917D01*
X5603Y133010D01*
X6000Y133275D01*
X6265Y133672D01*
X6358Y134140D01*
X6265Y134608D01*
X6000Y135005D01*
X5603Y135271D01*
X5135Y135364D01*
D02*
G37*
G36*
X217300Y134371D02*
X216890Y134289D01*
X216543Y134057D01*
X216311Y133710D01*
X216229Y133300D01*
X216311Y132890D01*
X216543Y132543D01*
X216890Y132311D01*
X217300Y132229D01*
X217710Y132311D01*
X218057Y132543D01*
X218289Y132890D01*
X218371Y133300D01*
X218289Y133710D01*
X218057Y134057D01*
X217710Y134289D01*
X217300Y134371D01*
D02*
G37*
G36*
X105987Y134770D02*
X105324Y134638D01*
X104762Y134263D01*
X104386Y133701D01*
X104254Y133038D01*
X104386Y132375D01*
X104762Y131813D01*
X105324Y131437D01*
X105987Y131305D01*
X106650Y131437D01*
X107212Y131813D01*
X107587Y132375D01*
X107719Y133038D01*
X107587Y133701D01*
X107212Y134263D01*
X106650Y134638D01*
X105987Y134770D01*
D02*
G37*
G36*
X101262D02*
X100599Y134638D01*
X100037Y134263D01*
X99662Y133701D01*
X99530Y133038D01*
X99662Y132375D01*
X100037Y131813D01*
X100599Y131437D01*
X101262Y131305D01*
X101925Y131437D01*
X102487Y131813D01*
X102863Y132375D01*
X102995Y133038D01*
X102863Y133701D01*
X102487Y134263D01*
X101925Y134638D01*
X101262Y134770D01*
D02*
G37*
G36*
X96538D02*
X95875Y134638D01*
X95313Y134263D01*
X94937Y133701D01*
X94805Y133038D01*
X94937Y132375D01*
X95313Y131813D01*
X95875Y131437D01*
X96538Y131305D01*
X97201Y131437D01*
X97763Y131813D01*
X98138Y132375D01*
X98270Y133038D01*
X98138Y133701D01*
X97763Y134263D01*
X97201Y134638D01*
X96538Y134770D01*
D02*
G37*
G36*
X91813D02*
X91150Y134638D01*
X90588Y134263D01*
X90213Y133701D01*
X90081Y133038D01*
X90213Y132375D01*
X90588Y131813D01*
X91150Y131437D01*
X91813Y131305D01*
X92476Y131437D01*
X93038Y131813D01*
X93414Y132375D01*
X93546Y133038D01*
X93414Y133701D01*
X93038Y134263D01*
X92476Y134638D01*
X91813Y134770D01*
D02*
G37*
G36*
X84363Y131261D02*
X83895Y131167D01*
X83498Y130902D01*
X83233Y130505D01*
X83139Y130037D01*
X83233Y129569D01*
X83498Y129172D01*
X83895Y128907D01*
X84363Y128814D01*
X84831Y128907D01*
X85228Y129172D01*
X85493Y129569D01*
X85587Y130037D01*
X85493Y130505D01*
X85228Y130902D01*
X84831Y131167D01*
X84363Y131261D01*
D02*
G37*
G36*
X78900Y130224D02*
X78432Y130130D01*
X78035Y129865D01*
X77770Y129468D01*
X77676Y129000D01*
X77770Y128532D01*
X78035Y128135D01*
X78432Y127870D01*
X78900Y127777D01*
X79368Y127870D01*
X79765Y128135D01*
X80030Y128532D01*
X80124Y129000D01*
X80030Y129468D01*
X79765Y129865D01*
X79368Y130130D01*
X78900Y130224D01*
D02*
G37*
G36*
X105987Y130046D02*
X105324Y129914D01*
X104762Y129538D01*
X104386Y128976D01*
X104254Y128313D01*
X104386Y127650D01*
X104762Y127088D01*
X105324Y126713D01*
X105987Y126581D01*
X106650Y126713D01*
X107212Y127088D01*
X107587Y127650D01*
X107719Y128313D01*
X107587Y128976D01*
X107212Y129538D01*
X106650Y129914D01*
X105987Y130046D01*
D02*
G37*
G36*
X101262D02*
X100599Y129914D01*
X100037Y129538D01*
X99662Y128976D01*
X99530Y128313D01*
X99662Y127650D01*
X100037Y127088D01*
X100599Y126713D01*
X101262Y126581D01*
X101925Y126713D01*
X102487Y127088D01*
X102863Y127650D01*
X102995Y128313D01*
X102863Y128976D01*
X102487Y129538D01*
X101925Y129914D01*
X101262Y130046D01*
D02*
G37*
G36*
X96538D02*
X95875Y129914D01*
X95313Y129538D01*
X94937Y128976D01*
X94805Y128313D01*
X94937Y127650D01*
X95313Y127088D01*
X95875Y126713D01*
X96538Y126581D01*
X97201Y126713D01*
X97763Y127088D01*
X98138Y127650D01*
X98270Y128313D01*
X98138Y128976D01*
X97763Y129538D01*
X97201Y129914D01*
X96538Y130046D01*
D02*
G37*
G36*
X91813D02*
X91150Y129914D01*
X90588Y129538D01*
X90213Y128976D01*
X90081Y128313D01*
X90213Y127650D01*
X90588Y127088D01*
X91150Y126713D01*
X91813Y126581D01*
X92476Y126713D01*
X93038Y127088D01*
X93414Y127650D01*
X93546Y128313D01*
X93414Y128976D01*
X93038Y129538D01*
X92476Y129914D01*
X91813Y130046D01*
D02*
G37*
G36*
X18000Y128424D02*
X17532Y128330D01*
X17135Y128065D01*
X16870Y127668D01*
X16777Y127200D01*
X16870Y126732D01*
X17135Y126335D01*
X17532Y126070D01*
X18000Y125977D01*
X18468Y126070D01*
X18865Y126335D01*
X19130Y126732D01*
X19223Y127200D01*
X19130Y127668D01*
X18865Y128065D01*
X18468Y128330D01*
X18000Y128424D01*
D02*
G37*
G36*
X10600D02*
X10132Y128330D01*
X9735Y128065D01*
X9470Y127668D01*
X9376Y127200D01*
X9470Y126732D01*
X9735Y126335D01*
X10132Y126070D01*
X10600Y125977D01*
X11068Y126070D01*
X11465Y126335D01*
X11730Y126732D01*
X11823Y127200D01*
X11730Y127668D01*
X11465Y128065D01*
X11068Y128330D01*
X10600Y128424D01*
D02*
G37*
G36*
X80948Y126178D02*
Y125152D01*
X81973D01*
X81922Y125410D01*
X81635Y125840D01*
X81205Y126127D01*
X80948Y126178D01*
D02*
G37*
G36*
X80448D02*
X80190Y126127D01*
X79760Y125840D01*
X79473Y125410D01*
X79422Y125152D01*
X80448D01*
Y126178D01*
D02*
G37*
G36*
X117952Y125676D02*
Y124752D01*
X118876D01*
X118833Y124971D01*
X118568Y125367D01*
X118171Y125633D01*
X117952Y125676D01*
D02*
G37*
G36*
X117452D02*
X117234Y125633D01*
X116837Y125367D01*
X116572Y124971D01*
X116529Y124752D01*
X117452D01*
Y125676D01*
D02*
G37*
G36*
X81973Y124652D02*
X80948D01*
Y123627D01*
X81205Y123678D01*
X81635Y123965D01*
X81922Y124395D01*
X81973Y124652D01*
D02*
G37*
G36*
X80448D02*
X79422D01*
X79473Y124395D01*
X79760Y123965D01*
X80190Y123678D01*
X80448Y123627D01*
Y124652D01*
D02*
G37*
G36*
X118876Y124252D02*
X117952D01*
Y123329D01*
X118171Y123372D01*
X118568Y123637D01*
X118833Y124034D01*
X118876Y124252D01*
D02*
G37*
G36*
X117452D02*
X116529D01*
X116572Y124034D01*
X116837Y123637D01*
X117234Y123372D01*
X117452Y123329D01*
Y124252D01*
D02*
G37*
G36*
X246389Y125534D02*
X245921Y125441D01*
X245524Y125176D01*
X245259Y124779D01*
X245165Y124311D01*
X245259Y123843D01*
X245524Y123446D01*
X245921Y123181D01*
X246389Y123087D01*
X246857Y123181D01*
X247254Y123446D01*
X247519Y123843D01*
X247613Y124311D01*
X247519Y124779D01*
X247254Y125176D01*
X246857Y125441D01*
X246389Y125534D01*
D02*
G37*
G36*
X251611Y125112D02*
X251143Y125019D01*
X250746Y124754D01*
X250481Y124357D01*
X250388Y123889D01*
X250481Y123421D01*
X250746Y123024D01*
X251143Y122758D01*
X251611Y122665D01*
X252079Y122758D01*
X252476Y123024D01*
X252741Y123421D01*
X252835Y123889D01*
X252741Y124357D01*
X252476Y124754D01*
X252079Y125019D01*
X251611Y125112D01*
D02*
G37*
G36*
X110900Y124522D02*
X110471Y124436D01*
X110107Y124193D01*
X109864Y123829D01*
X109778Y123400D01*
X109864Y122971D01*
X110107Y122607D01*
X110471Y122364D01*
X110900Y122278D01*
X111329Y122364D01*
X111693Y122607D01*
X111936Y122971D01*
X112022Y123400D01*
X111936Y123829D01*
X111693Y124193D01*
X111329Y124436D01*
X110900Y124522D01*
D02*
G37*
G36*
X163000Y125771D02*
X162590Y125689D01*
X162243Y125457D01*
X162011Y125110D01*
X161929Y124700D01*
X161600Y124271D01*
X161190Y124189D01*
X160843Y123957D01*
X160611Y123610D01*
X160529Y123200D01*
X160611Y122790D01*
X160843Y122443D01*
X161190Y122211D01*
X161600Y122129D01*
X162010Y122211D01*
X162357Y122443D01*
X162589Y122790D01*
X162671Y123200D01*
X163000Y123629D01*
X163410Y123711D01*
X163757Y123943D01*
X163989Y124290D01*
X164071Y124700D01*
X163989Y125110D01*
X163757Y125457D01*
X163410Y125689D01*
X163000Y125771D01*
D02*
G37*
G36*
X262678Y127001D02*
X261694D01*
X260947Y126903D01*
X260251Y126614D01*
X259653Y126156D01*
X259195Y125558D01*
X258907Y124863D01*
X258808Y124116D01*
X258907Y123369D01*
X259195Y122673D01*
X259653Y122075D01*
X260251Y121617D01*
X260947Y121329D01*
X261694Y121230D01*
X262678D01*
X263425Y121329D01*
X264121Y121617D01*
X264718Y122075D01*
X265177Y122673D01*
X265465Y123369D01*
X265563Y124116D01*
X265465Y124863D01*
X265177Y125558D01*
X264718Y126156D01*
X264121Y126614D01*
X263425Y126903D01*
X262678Y127001D01*
D02*
G37*
G36*
X99700Y122318D02*
X99349Y122248D01*
X99051Y122049D01*
X98852Y121751D01*
X98782Y121400D01*
X98852Y121049D01*
X99051Y120751D01*
X99349Y120552D01*
X99700Y120482D01*
X100051Y120552D01*
X100349Y120751D01*
X100548Y121049D01*
X100618Y121400D01*
X100548Y121751D01*
X100349Y122049D01*
X100051Y122248D01*
X99700Y122318D01*
D02*
G37*
G36*
X257791Y120615D02*
X257323Y120522D01*
X256926Y120256D01*
X256661Y119860D01*
X256568Y119391D01*
X256661Y118923D01*
X256926Y118526D01*
X257323Y118261D01*
X257791Y118168D01*
X258260Y118261D01*
X258657Y118526D01*
X258922Y118923D01*
X259015Y119391D01*
X258922Y119860D01*
X258657Y120256D01*
X258260Y120522D01*
X257791Y120615D01*
D02*
G37*
G36*
X202081Y119105D02*
X201613Y119011D01*
X201216Y118746D01*
X200951Y118349D01*
X200858Y117881D01*
X200951Y117413D01*
X201216Y117016D01*
X201613Y116751D01*
X202081Y116658D01*
X202549Y116751D01*
X202946Y117016D01*
X203211Y117413D01*
X203305Y117881D01*
X203211Y118349D01*
X202946Y118746D01*
X202549Y119011D01*
X202081Y119105D01*
D02*
G37*
G36*
X98200Y117418D02*
X97849Y117348D01*
X97551Y117149D01*
X97352Y116851D01*
X97282Y116500D01*
X97352Y116149D01*
X97551Y115851D01*
X97849Y115652D01*
X98200Y115582D01*
X98551Y115652D01*
X98849Y115851D01*
X99048Y116149D01*
X99118Y116500D01*
X99048Y116851D01*
X98849Y117149D01*
X98551Y117348D01*
X98200Y117418D01*
D02*
G37*
G36*
X95500Y117123D02*
X95032Y117030D01*
X94635Y116765D01*
X94370Y116368D01*
X94276Y115900D01*
X94370Y115432D01*
X94635Y115035D01*
X95032Y114770D01*
X95500Y114676D01*
X95968Y114770D01*
X96365Y115035D01*
X96630Y115432D01*
X96724Y115900D01*
X96630Y116368D01*
X96365Y116765D01*
X95968Y117030D01*
X95500Y117123D01*
D02*
G37*
G36*
X214400Y116724D02*
X213932Y116630D01*
X213535Y116365D01*
X213270Y115968D01*
X213176Y115500D01*
X213270Y115032D01*
X213535Y114635D01*
X213932Y114370D01*
X214400Y114277D01*
X214868Y114370D01*
X215265Y114635D01*
X215530Y115032D01*
X215623Y115500D01*
X215530Y115968D01*
X215265Y116365D01*
X214868Y116630D01*
X214400Y116724D01*
D02*
G37*
G36*
X123432Y114076D02*
X122964Y113983D01*
X122567Y113718D01*
X122302Y113321D01*
X122209Y112853D01*
X122302Y112384D01*
X122567Y111988D01*
X122964Y111722D01*
X123432Y111629D01*
X123900Y111722D01*
X124297Y111988D01*
X124563Y112384D01*
X124656Y112853D01*
X124563Y113321D01*
X124297Y113718D01*
X123900Y113983D01*
X123432Y114076D01*
D02*
G37*
G36*
X133400Y113924D02*
X132932Y113830D01*
X132535Y113565D01*
X132270Y113168D01*
X132176Y112700D01*
X132270Y112232D01*
X132535Y111835D01*
X132932Y111570D01*
X133400Y111477D01*
X133868Y111570D01*
X134265Y111835D01*
X134530Y112232D01*
X134624Y112700D01*
X134530Y113168D01*
X134265Y113565D01*
X133868Y113830D01*
X133400Y113924D01*
D02*
G37*
G36*
X198137Y112961D02*
X197669Y112867D01*
X197272Y112602D01*
X197007Y112205D01*
X196914Y111737D01*
X197007Y111269D01*
X197272Y110872D01*
X197669Y110607D01*
X198137Y110513D01*
X198605Y110607D01*
X199002Y110872D01*
X199267Y111269D01*
X199361Y111737D01*
X199267Y112205D01*
X199002Y112602D01*
X198605Y112867D01*
X198137Y112961D01*
D02*
G37*
G36*
X219739Y110469D02*
Y109239D01*
X220969D01*
X220902Y109574D01*
X220570Y110071D01*
X220074Y110402D01*
X219739Y110469D01*
D02*
G37*
G36*
X219239D02*
X218904Y110402D01*
X218408Y110071D01*
X218076Y109574D01*
X218009Y109239D01*
X219239D01*
Y110469D01*
D02*
G37*
G36*
X90402Y111124D02*
X89973Y111038D01*
X89609Y110795D01*
X89366Y110432D01*
X89281Y110002D01*
X89366Y109573D01*
X89609Y109209D01*
X89973Y108966D01*
X90402Y108881D01*
X90832Y108966D01*
X91195Y109209D01*
X91439Y109573D01*
X91524Y110002D01*
X91439Y110432D01*
X91195Y110795D01*
X90832Y111038D01*
X90402Y111124D01*
D02*
G37*
G36*
X220969Y108739D02*
X219739D01*
Y107509D01*
X220074Y107576D01*
X220570Y107908D01*
X220902Y108404D01*
X220969Y108739D01*
D02*
G37*
G36*
X219239D02*
X218009D01*
X218076Y108404D01*
X218408Y107908D01*
X218904Y107576D01*
X219239Y107509D01*
Y108739D01*
D02*
G37*
G36*
X119725Y106103D02*
Y104975D01*
X120852D01*
X120794Y105271D01*
X120484Y105735D01*
X120021Y106044D01*
X119725Y106103D01*
D02*
G37*
G36*
X119225D02*
X118929Y106044D01*
X118465Y105735D01*
X118156Y105271D01*
X118097Y104975D01*
X119225D01*
Y106103D01*
D02*
G37*
G36*
X123800Y106122D02*
X123371Y106036D01*
X123007Y105793D01*
X122764Y105429D01*
X122678Y105000D01*
X122764Y104571D01*
X123007Y104207D01*
X123371Y103964D01*
X123800Y103878D01*
X124229Y103964D01*
X124593Y104207D01*
X124836Y104571D01*
X124922Y105000D01*
X124836Y105429D01*
X124593Y105793D01*
X124229Y106036D01*
X123800Y106122D01*
D02*
G37*
G36*
X194200Y106969D02*
X193537Y106838D01*
X192975Y106462D01*
X192599Y105900D01*
X192467Y105237D01*
X192599Y104574D01*
X192975Y104012D01*
X193537Y103636D01*
X194200Y103505D01*
X194863Y103636D01*
X195425Y104012D01*
X195801Y104574D01*
X195932Y105237D01*
X195801Y105900D01*
X195425Y106462D01*
X194863Y106838D01*
X194200Y106969D01*
D02*
G37*
G36*
X101400Y105622D02*
X100971Y105536D01*
X100607Y105293D01*
X100364Y104929D01*
X100278Y104500D01*
X100364Y104071D01*
X100607Y103707D01*
X100971Y103464D01*
X101400Y103378D01*
X101829Y103464D01*
X102193Y103707D01*
X102436Y104071D01*
X102522Y104500D01*
X102436Y104929D01*
X102193Y105293D01*
X101829Y105536D01*
X101400Y105622D01*
D02*
G37*
G36*
X120852Y104475D02*
X119725D01*
Y103348D01*
X120021Y103406D01*
X120484Y103716D01*
X120794Y104179D01*
X120852Y104475D01*
D02*
G37*
G36*
X119225D02*
X118097D01*
X118156Y104179D01*
X118465Y103716D01*
X118929Y103406D01*
X119225Y103348D01*
Y104475D01*
D02*
G37*
G36*
X210100Y105724D02*
X209632Y105630D01*
X209235Y105365D01*
X208970Y104968D01*
X208876Y104500D01*
X208970Y104032D01*
X209235Y103635D01*
X209632Y103370D01*
X210100Y103277D01*
X210568Y103370D01*
X210965Y103635D01*
X211230Y104032D01*
X211323Y104500D01*
X211230Y104968D01*
X210965Y105365D01*
X210568Y105630D01*
X210100Y105724D01*
D02*
G37*
G36*
X262875Y107316D02*
X261891D01*
X261144Y107218D01*
X260448Y106930D01*
X259850Y106471D01*
X259392Y105873D01*
X259104Y105177D01*
X259005Y104431D01*
X259104Y103684D01*
X259392Y102988D01*
X259850Y102391D01*
X260448Y101932D01*
X261144Y101644D01*
X261891Y101545D01*
X262875D01*
X263622Y101644D01*
X264317Y101932D01*
X264915Y102391D01*
X265374Y102988D01*
X265662Y103684D01*
X265760Y104431D01*
X265662Y105177D01*
X265374Y105873D01*
X264915Y106471D01*
X264317Y106930D01*
X263622Y107218D01*
X262875Y107316D01*
D02*
G37*
G36*
X216600Y103323D02*
X216132Y103230D01*
X215735Y102965D01*
X215470Y102568D01*
X215376Y102100D01*
X215470Y101632D01*
X215735Y101235D01*
X216132Y100970D01*
X216600Y100876D01*
X217068Y100970D01*
X217465Y101235D01*
X217730Y101632D01*
X217824Y102100D01*
X217730Y102568D01*
X217465Y102965D01*
X217068Y103230D01*
X216600Y103323D01*
D02*
G37*
G36*
X176750Y101776D02*
Y100750D01*
X177776D01*
X177725Y101007D01*
X177437Y101437D01*
X177007Y101725D01*
X176750Y101776D01*
D02*
G37*
G36*
X176250D02*
X175993Y101725D01*
X175563Y101437D01*
X175275Y101007D01*
X175224Y100750D01*
X176250D01*
Y101776D01*
D02*
G37*
G36*
X198137Y103033D02*
X197474Y102901D01*
X196912Y102525D01*
X196536Y101963D01*
X196405Y101300D01*
X196536Y100637D01*
X196912Y100075D01*
X197474Y99699D01*
X198137Y99568D01*
X198800Y99699D01*
X199362Y100075D01*
X199738Y100637D01*
X199870Y101300D01*
X199738Y101963D01*
X199362Y102525D01*
X198800Y102901D01*
X198137Y103033D01*
D02*
G37*
G36*
X194200D02*
X193537Y102901D01*
X192975Y102525D01*
X192599Y101963D01*
X192467Y101300D01*
X192599Y100637D01*
X192975Y100075D01*
X193537Y99699D01*
X194200Y99568D01*
X194863Y99699D01*
X195425Y100075D01*
X195801Y100637D01*
X195932Y101300D01*
X195801Y101963D01*
X195425Y102525D01*
X194863Y102901D01*
X194200Y103033D01*
D02*
G37*
G36*
X190263D02*
X189600Y102901D01*
X189038Y102525D01*
X188662Y101963D01*
X188531Y101300D01*
X188662Y100637D01*
X189038Y100075D01*
X189600Y99699D01*
X190263Y99568D01*
X190926Y99699D01*
X191488Y100075D01*
X191864Y100637D01*
X191996Y101300D01*
X191864Y101963D01*
X191488Y102525D01*
X190926Y102901D01*
X190263Y103033D01*
D02*
G37*
G36*
X148300Y102127D02*
X147754Y102019D01*
X147291Y101709D01*
X146981Y101246D01*
X146873Y100700D01*
X146981Y100154D01*
X147291Y99691D01*
X147754Y99381D01*
X148300Y99273D01*
X148846Y99381D01*
X149309Y99691D01*
X149619Y100154D01*
X149727Y100700D01*
X149619Y101246D01*
X149309Y101709D01*
X148846Y102019D01*
X148300Y102127D01*
D02*
G37*
G36*
X177776Y100250D02*
X176750D01*
Y99224D01*
X177007Y99275D01*
X177437Y99563D01*
X177725Y99993D01*
X177776Y100250D01*
D02*
G37*
G36*
X176250D02*
X175224D01*
X175275Y99993D01*
X175563Y99563D01*
X175993Y99275D01*
X176250Y99224D01*
Y100250D01*
D02*
G37*
G36*
X175800Y98624D02*
X175332Y98530D01*
X174935Y98265D01*
X174670Y97868D01*
X174576Y97400D01*
X174670Y96932D01*
X174935Y96535D01*
X175332Y96270D01*
X175800Y96176D01*
X176268Y96270D01*
X176665Y96535D01*
X176930Y96932D01*
X177023Y97400D01*
X176930Y97868D01*
X176665Y98265D01*
X176268Y98530D01*
X175800Y98624D01*
D02*
G37*
G36*
X194200Y99095D02*
X193537Y98964D01*
X192975Y98588D01*
X192599Y98026D01*
X192467Y97363D01*
X192599Y96700D01*
X192975Y96138D01*
X193537Y95762D01*
X194200Y95631D01*
X194863Y95762D01*
X195425Y96138D01*
X195801Y96700D01*
X195932Y97363D01*
X195801Y98026D01*
X195425Y98588D01*
X194863Y98964D01*
X194200Y99095D01*
D02*
G37*
G36*
X223466Y97761D02*
X222920Y97653D01*
X222457Y97343D01*
X222147Y96880D01*
X222039Y96334D01*
X222147Y95788D01*
X222457Y95324D01*
X222920Y95015D01*
X223466Y94906D01*
X224012Y95015D01*
X224476Y95324D01*
X224785Y95788D01*
X224894Y96334D01*
X224785Y96880D01*
X224476Y97343D01*
X224012Y97653D01*
X223466Y97761D01*
D02*
G37*
G36*
X201800Y94524D02*
X201332Y94430D01*
X200935Y94165D01*
X200670Y93768D01*
X200576Y93300D01*
X200670Y92832D01*
X200935Y92435D01*
X201332Y92170D01*
X201800Y92076D01*
X202268Y92170D01*
X202665Y92435D01*
X202930Y92832D01*
X203024Y93300D01*
X202930Y93768D01*
X202665Y94165D01*
X202268Y94430D01*
X201800Y94524D01*
D02*
G37*
G36*
X179500Y92023D02*
X179032Y91930D01*
X178635Y91665D01*
X178370Y91268D01*
X178277Y90800D01*
X178370Y90332D01*
X178635Y89935D01*
X179032Y89670D01*
X179500Y89577D01*
X179968Y89670D01*
X180365Y89935D01*
X180630Y90332D01*
X180724Y90800D01*
X180630Y91268D01*
X180365Y91665D01*
X179968Y91930D01*
X179500Y92023D01*
D02*
G37*
G36*
X193413Y91236D02*
X192944Y91143D01*
X192548Y90878D01*
X192282Y90481D01*
X192189Y90013D01*
X192282Y89544D01*
X192548Y89148D01*
X192944Y88882D01*
X193413Y88789D01*
X193881Y88882D01*
X194278Y89148D01*
X194543Y89544D01*
X194636Y90013D01*
X194543Y90481D01*
X194278Y90878D01*
X193881Y91143D01*
X193413Y91236D01*
D02*
G37*
G36*
X189800Y82223D02*
X189332Y82130D01*
X188935Y81865D01*
X188670Y81468D01*
X188576Y81000D01*
X188670Y80532D01*
X188935Y80135D01*
X189332Y79870D01*
X189800Y79777D01*
X190268Y79870D01*
X190665Y80135D01*
X190930Y80532D01*
X191024Y81000D01*
X190930Y81468D01*
X190665Y81865D01*
X190268Y82130D01*
X189800Y82223D01*
D02*
G37*
G36*
X193489Y77135D02*
X193021Y77041D01*
X192624Y76776D01*
X192359Y76379D01*
X192266Y75911D01*
X192359Y75443D01*
X192624Y75046D01*
X193021Y74781D01*
X193489Y74687D01*
X193957Y74781D01*
X194354Y75046D01*
X194619Y75443D01*
X194713Y75911D01*
X194619Y76379D01*
X194354Y76776D01*
X193957Y77041D01*
X193489Y77135D01*
D02*
G37*
G36*
X177188Y75935D02*
X176720Y75842D01*
X176323Y75577D01*
X176058Y75180D01*
X175965Y74712D01*
X176058Y74244D01*
X176323Y73847D01*
X176720Y73581D01*
X177188Y73488D01*
X177656Y73581D01*
X178053Y73847D01*
X178319Y74244D01*
X178412Y74712D01*
X178319Y75180D01*
X178053Y75577D01*
X177656Y75842D01*
X177188Y75935D01*
D02*
G37*
G36*
X188100Y70723D02*
X187632Y70630D01*
X187235Y70365D01*
X186970Y69968D01*
X186876Y69500D01*
X186970Y69032D01*
X187235Y68635D01*
X187632Y68370D01*
X188100Y68277D01*
X188568Y68370D01*
X188965Y68635D01*
X189230Y69032D01*
X189323Y69500D01*
X189230Y69968D01*
X188965Y70365D01*
X188568Y70630D01*
X188100Y70723D01*
D02*
G37*
G36*
X214641Y70564D02*
X214173Y70471D01*
X213776Y70206D01*
X213511Y69809D01*
X213417Y69341D01*
X213511Y68873D01*
X213776Y68476D01*
X214173Y68211D01*
X214641Y68117D01*
X215109Y68211D01*
X215506Y68476D01*
X215771Y68873D01*
X215864Y69341D01*
X215771Y69809D01*
X215506Y70206D01*
X215109Y70471D01*
X214641Y70564D01*
D02*
G37*
G36*
X74100Y68624D02*
X73632Y68530D01*
X73235Y68265D01*
X72970Y67868D01*
X72877Y67400D01*
X72970Y66932D01*
X73235Y66535D01*
X73632Y66270D01*
X74100Y66176D01*
X74568Y66270D01*
X74965Y66535D01*
X75230Y66932D01*
X75323Y67400D01*
X75230Y67868D01*
X74965Y68265D01*
X74568Y68530D01*
X74100Y68624D01*
D02*
G37*
G36*
X207500Y66523D02*
X207032Y66430D01*
X206635Y66165D01*
X206370Y65768D01*
X206300Y65418D01*
X114600D01*
X114249Y65348D01*
X113951Y65149D01*
X106680Y57878D01*
X106471Y57836D01*
X106107Y57593D01*
X105864Y57229D01*
X105778Y56800D01*
X105864Y56371D01*
X106107Y56007D01*
X106471Y55764D01*
X106900Y55678D01*
X107329Y55764D01*
X107693Y56007D01*
X107936Y56371D01*
X107978Y56580D01*
X114980Y63582D01*
X206700D01*
X207051Y63652D01*
X207349Y63851D01*
X207593Y64095D01*
X207968Y64170D01*
X208365Y64435D01*
X208630Y64832D01*
X208723Y65300D01*
X208630Y65768D01*
X208365Y66165D01*
X207968Y66430D01*
X207500Y66523D01*
D02*
G37*
G36*
X174900Y45024D02*
X174432Y44930D01*
X174035Y44665D01*
X173770Y44268D01*
X173677Y43800D01*
X173770Y43332D01*
X174035Y42935D01*
X174432Y42670D01*
X174900Y42577D01*
X175368Y42670D01*
X175765Y42935D01*
X176030Y43332D01*
X176123Y43800D01*
X176030Y44268D01*
X175765Y44665D01*
X175368Y44930D01*
X174900Y45024D01*
D02*
G37*
G36*
X58900Y31023D02*
X58432Y30930D01*
X58035Y30665D01*
X57770Y30268D01*
X57677Y29800D01*
X57770Y29332D01*
X58035Y28935D01*
X58432Y28670D01*
X58900Y28576D01*
X59368Y28670D01*
X59765Y28935D01*
X60030Y29332D01*
X60123Y29800D01*
X60030Y30268D01*
X59765Y30665D01*
X59368Y30930D01*
X58900Y31023D01*
D02*
G37*
G36*
X218726Y29897D02*
X218258Y29804D01*
X217861Y29539D01*
X217596Y29142D01*
X217502Y28674D01*
X217596Y28206D01*
X217861Y27809D01*
X218258Y27544D01*
X218726Y27450D01*
X219194Y27544D01*
X219591Y27809D01*
X219856Y28206D01*
X219950Y28674D01*
X219856Y29142D01*
X219591Y29539D01*
X219194Y29804D01*
X218726Y29897D01*
D02*
G37*
G36*
X207774D02*
X207306Y29804D01*
X206909Y29539D01*
X206644Y29142D01*
X206551Y28674D01*
X206644Y28206D01*
X206909Y27809D01*
X207306Y27544D01*
X207774Y27450D01*
X208242Y27544D01*
X208639Y27809D01*
X208904Y28206D01*
X208998Y28674D01*
X208904Y29142D01*
X208639Y29539D01*
X208242Y29804D01*
X207774Y29897D01*
D02*
G37*
G36*
X178100Y15123D02*
X177632Y15030D01*
X177235Y14765D01*
X176970Y14368D01*
X176876Y13900D01*
X176970Y13432D01*
X177235Y13035D01*
X177632Y12770D01*
X178100Y12676D01*
X178568Y12770D01*
X178965Y13035D01*
X179230Y13432D01*
X179323Y13900D01*
X179230Y14368D01*
X178965Y14765D01*
X178568Y15030D01*
X178100Y15123D01*
D02*
G37*
G36*
X69100D02*
X68632Y15030D01*
X68235Y14765D01*
X67970Y14368D01*
X67876Y13900D01*
X67970Y13432D01*
X68235Y13035D01*
X68632Y12770D01*
X69100Y12676D01*
X69568Y12770D01*
X69965Y13035D01*
X70230Y13432D01*
X70323Y13900D01*
X70230Y14368D01*
X69965Y14765D01*
X69568Y15030D01*
X69100Y15123D01*
D02*
G37*
G36*
X78900Y15023D02*
X78432Y14930D01*
X78035Y14665D01*
X77770Y14268D01*
X77676Y13800D01*
X77770Y13332D01*
X78035Y12935D01*
X78432Y12670D01*
X78900Y12576D01*
X79368Y12670D01*
X79765Y12935D01*
X80030Y13332D01*
X80124Y13800D01*
X80030Y14268D01*
X79765Y14665D01*
X79368Y14930D01*
X78900Y15023D01*
D02*
G37*
G36*
X57300Y14923D02*
X56832Y14830D01*
X56435Y14565D01*
X56170Y14168D01*
X56077Y13700D01*
X56170Y13232D01*
X56435Y12835D01*
X56832Y12570D01*
X57300Y12477D01*
X57768Y12570D01*
X58165Y12835D01*
X58430Y13232D01*
X58523Y13700D01*
X58430Y14168D01*
X58165Y14565D01*
X57768Y14830D01*
X57300Y14923D01*
D02*
G37*
G36*
X110800Y11023D02*
X110332Y10930D01*
X109935Y10665D01*
X109670Y10268D01*
X109576Y9800D01*
X109670Y9332D01*
X109935Y8935D01*
X110332Y8670D01*
X110800Y8576D01*
X111268Y8670D01*
X111665Y8935D01*
X111930Y9332D01*
X112023Y9800D01*
X111930Y10268D01*
X111665Y10665D01*
X111268Y10930D01*
X110800Y11023D01*
D02*
G37*
G36*
X275000Y4524D02*
X274532Y4430D01*
X274226Y4226D01*
X273900Y4191D01*
X273574Y4226D01*
X273268Y4430D01*
X272800Y4524D01*
X272332Y4430D01*
X272026Y4226D01*
X271700Y4191D01*
X271374Y4226D01*
X271068Y4430D01*
X270600Y4524D01*
X270132Y4430D01*
X269826Y4226D01*
X269500Y4191D01*
X269174Y4226D01*
X268868Y4430D01*
X268400Y4524D01*
X267932Y4430D01*
X267626Y4226D01*
X267300Y4191D01*
X266974Y4226D01*
X266668Y4430D01*
X266200Y4524D01*
X265732Y4430D01*
X265426Y4226D01*
X265100Y4191D01*
X264774Y4226D01*
X264468Y4430D01*
X264000Y4524D01*
X263532Y4430D01*
X263226Y4226D01*
X262900Y4191D01*
X262574Y4226D01*
X262268Y4430D01*
X261800Y4524D01*
X261332Y4430D01*
X260935Y4165D01*
X260756Y3897D01*
X260308Y3853D01*
X260189Y3880D01*
X260065Y4065D01*
X259668Y4330D01*
X259200Y4423D01*
X258732Y4330D01*
X258335Y4065D01*
X258178Y3830D01*
X258150Y3820D01*
X257650D01*
X257622Y3830D01*
X257465Y4065D01*
X257068Y4330D01*
X256600Y4423D01*
X256132Y4330D01*
X255826Y4126D01*
X255500Y4091D01*
X255174Y4126D01*
X254868Y4330D01*
X254400Y4423D01*
X253932Y4330D01*
X253626Y4126D01*
X253300Y4091D01*
X252974Y4126D01*
X252668Y4330D01*
X252200Y4423D01*
X251732Y4330D01*
X251426Y4126D01*
X251100Y4091D01*
X250774Y4126D01*
X250468Y4330D01*
X250000Y4423D01*
X249532Y4330D01*
X249226Y4126D01*
X248900Y4091D01*
X248574Y4126D01*
X248268Y4330D01*
X247800Y4423D01*
X247332Y4330D01*
X247026Y4126D01*
X246700Y4091D01*
X246374Y4126D01*
X246068Y4330D01*
X245600Y4423D01*
X245132Y4330D01*
X244826Y4126D01*
X244500Y4091D01*
X244174Y4126D01*
X243868Y4330D01*
X243400Y4423D01*
X242932Y4330D01*
X242535Y4065D01*
X242324Y3750D01*
X242053Y3705D01*
X242048D01*
X241776Y3750D01*
X241565Y4065D01*
X241168Y4330D01*
X240700Y4423D01*
X240232Y4330D01*
X239835Y4065D01*
X239678Y3830D01*
X239650Y3820D01*
X239150D01*
X239122Y3830D01*
X238965Y4065D01*
X238568Y4330D01*
X238100Y4423D01*
X237632Y4330D01*
X237326Y4126D01*
X237000Y4091D01*
X236674Y4126D01*
X236368Y4330D01*
X235900Y4423D01*
X235432Y4330D01*
X235126Y4126D01*
X234800Y4091D01*
X234474Y4126D01*
X234168Y4330D01*
X233700Y4423D01*
X233232Y4330D01*
X232926Y4126D01*
X232600Y4091D01*
X232274Y4126D01*
X231968Y4330D01*
X231500Y4423D01*
X231032Y4330D01*
X230726Y4126D01*
X230400Y4091D01*
X230074Y4126D01*
X229768Y4330D01*
X229300Y4423D01*
X228832Y4330D01*
X228526Y4126D01*
X228200Y4091D01*
X227874Y4126D01*
X227568Y4330D01*
X227100Y4423D01*
X226632Y4330D01*
X226326Y4126D01*
X226000Y4091D01*
X225674Y4126D01*
X225368Y4330D01*
X224900Y4423D01*
X224432Y4330D01*
X224035Y4065D01*
X223856Y3797D01*
X223408Y3752D01*
X223289Y3780D01*
X223165Y3965D01*
X222768Y4230D01*
X222300Y4324D01*
X221832Y4230D01*
X221435Y3965D01*
X221278Y3730D01*
X221250Y3720D01*
X220750D01*
X220722Y3730D01*
X220565Y3965D01*
X220168Y4230D01*
X219700Y4324D01*
X219232Y4230D01*
X218926Y4026D01*
X218600Y3991D01*
X218274Y4026D01*
X217968Y4230D01*
X217500Y4324D01*
X217032Y4230D01*
X216726Y4026D01*
X216400Y3991D01*
X216074Y4026D01*
X215768Y4230D01*
X215300Y4324D01*
X214832Y4230D01*
X214526Y4026D01*
X214200Y3991D01*
X213874Y4026D01*
X213568Y4230D01*
X213100Y4324D01*
X212632Y4230D01*
X212326Y4026D01*
X212000Y3991D01*
X211674Y4026D01*
X211368Y4230D01*
X210900Y4324D01*
X210432Y4230D01*
X210126Y4026D01*
X209800Y3991D01*
X209474Y4026D01*
X209168Y4230D01*
X208700Y4324D01*
X208232Y4230D01*
X207926Y4026D01*
X207600Y3991D01*
X207274Y4026D01*
X206968Y4230D01*
X206500Y4324D01*
X206032Y4230D01*
X205635Y3965D01*
X205394Y3605D01*
X205277Y3571D01*
X205263Y3569D01*
X204861Y3573D01*
X204665Y3865D01*
X204268Y4130D01*
X203800Y4223D01*
X203332Y4130D01*
X202935Y3865D01*
X202778Y3630D01*
X202750Y3620D01*
X202250D01*
X202222Y3630D01*
X202065Y3865D01*
X201668Y4130D01*
X201200Y4223D01*
X200732Y4130D01*
X200426Y3926D01*
X200100Y3891D01*
X199774Y3926D01*
X199468Y4130D01*
X199000Y4223D01*
X198532Y4130D01*
X198226Y3926D01*
X197900Y3891D01*
X197574Y3926D01*
X197268Y4130D01*
X196800Y4223D01*
X196332Y4130D01*
X196026Y3926D01*
X195700Y3891D01*
X195374Y3926D01*
X195068Y4130D01*
X194600Y4223D01*
X194132Y4130D01*
X193826Y3926D01*
X193500Y3891D01*
X193174Y3926D01*
X192868Y4130D01*
X192400Y4223D01*
X191932Y4130D01*
X191626Y3926D01*
X191300Y3891D01*
X190974Y3926D01*
X190668Y4130D01*
X190200Y4223D01*
X189732Y4130D01*
X189426Y3926D01*
X189100Y3891D01*
X188774Y3926D01*
X188468Y4130D01*
X188000Y4223D01*
X187532Y4130D01*
X187135Y3865D01*
X186870Y3468D01*
X186776Y3000D01*
X186870Y2532D01*
X187135Y2135D01*
X187532Y1870D01*
X188000Y1777D01*
X188468Y1870D01*
X188774Y2074D01*
X189100Y2109D01*
X189426Y2074D01*
X189732Y1870D01*
X190200Y1777D01*
X190668Y1870D01*
X190974Y2074D01*
X191300Y2109D01*
X191626Y2074D01*
X191932Y1870D01*
X192400Y1777D01*
X192868Y1870D01*
X193174Y2074D01*
X193500Y2109D01*
X193826Y2074D01*
X194132Y1870D01*
X194600Y1777D01*
X195068Y1870D01*
X195374Y2074D01*
X195700Y2109D01*
X196026Y2074D01*
X196332Y1870D01*
X196800Y1777D01*
X197268Y1870D01*
X197574Y2074D01*
X197900Y2109D01*
X198226Y2074D01*
X198532Y1870D01*
X199000Y1777D01*
X199468Y1870D01*
X199774Y2074D01*
X200100Y2109D01*
X200426Y2074D01*
X200732Y1870D01*
X201200Y1777D01*
X201668Y1870D01*
X202065Y2135D01*
X202222Y2370D01*
X202250Y2380D01*
X202750D01*
X202778Y2370D01*
X202935Y2135D01*
X203332Y1870D01*
X203800Y1777D01*
X204268Y1870D01*
X204665Y2135D01*
X204906Y2495D01*
X205023Y2529D01*
X205036Y2531D01*
X205439Y2527D01*
X205635Y2235D01*
X206032Y1970D01*
X206500Y1877D01*
X206968Y1970D01*
X207365Y2235D01*
X207835D01*
X208232Y1970D01*
X208700Y1877D01*
X209168Y1970D01*
X209474Y2174D01*
X209800Y2209D01*
X210126Y2174D01*
X210432Y1970D01*
X210900Y1877D01*
X211368Y1970D01*
X211674Y2174D01*
X212000Y2209D01*
X212326Y2174D01*
X212632Y1970D01*
X213100Y1877D01*
X213568Y1970D01*
X213874Y2174D01*
X214200Y2209D01*
X214526Y2174D01*
X214832Y1970D01*
X215300Y1877D01*
X215768Y1970D01*
X216074Y2174D01*
X216400Y2209D01*
X216726Y2174D01*
X217032Y1970D01*
X217500Y1877D01*
X217968Y1970D01*
X218274Y2174D01*
X218600Y2209D01*
X218926Y2174D01*
X219232Y1970D01*
X219700Y1877D01*
X220168Y1970D01*
X220565Y2235D01*
X220722Y2470D01*
X220750Y2480D01*
X221250D01*
X221278Y2470D01*
X221435Y2235D01*
X221832Y1970D01*
X222300Y1877D01*
X222768Y1970D01*
X223165Y2235D01*
X223344Y2503D01*
X223793Y2547D01*
X223911Y2520D01*
X224035Y2335D01*
X224432Y2070D01*
X224900Y1977D01*
X225368Y2070D01*
X225674Y2274D01*
X226000Y2309D01*
X226326Y2274D01*
X226632Y2070D01*
X227100Y1977D01*
X227568Y2070D01*
X227874Y2274D01*
X228200Y2309D01*
X228526Y2274D01*
X228832Y2070D01*
X229300Y1977D01*
X229768Y2070D01*
X230074Y2274D01*
X230400Y2309D01*
X230726Y2274D01*
X231032Y2070D01*
X231500Y1977D01*
X231968Y2070D01*
X232274Y2274D01*
X232600Y2309D01*
X232926Y2274D01*
X233232Y2070D01*
X233700Y1977D01*
X234168Y2070D01*
X234474Y2274D01*
X234800Y2309D01*
X235126Y2274D01*
X235432Y2070D01*
X235900Y1977D01*
X236368Y2070D01*
X236674Y2274D01*
X237000Y2309D01*
X237326Y2274D01*
X237632Y2070D01*
X238100Y1977D01*
X238568Y2070D01*
X238965Y2335D01*
X239122Y2570D01*
X239150Y2580D01*
X239650D01*
X239678Y2570D01*
X239835Y2335D01*
X240232Y2070D01*
X240700Y1977D01*
X241168Y2070D01*
X241565Y2335D01*
X241776Y2650D01*
X242048Y2695D01*
X242053D01*
X242324Y2650D01*
X242535Y2335D01*
X242932Y2070D01*
X243400Y1977D01*
X243868Y2070D01*
X244174Y2274D01*
X244500Y2309D01*
X244826Y2274D01*
X245132Y2070D01*
X245600Y1977D01*
X246068Y2070D01*
X246374Y2274D01*
X246700Y2309D01*
X247026Y2274D01*
X247332Y2070D01*
X247800Y1977D01*
X248268Y2070D01*
X248574Y2274D01*
X248900Y2309D01*
X249226Y2274D01*
X249532Y2070D01*
X250000Y1977D01*
X250468Y2070D01*
X250774Y2274D01*
X251100Y2309D01*
X251426Y2274D01*
X251732Y2070D01*
X252200Y1977D01*
X252668Y2070D01*
X252974Y2274D01*
X253300Y2309D01*
X253626Y2274D01*
X253932Y2070D01*
X254400Y1977D01*
X254868Y2070D01*
X255174Y2274D01*
X255500Y2309D01*
X255826Y2274D01*
X256132Y2070D01*
X256600Y1977D01*
X257068Y2070D01*
X257465Y2335D01*
X257622Y2570D01*
X257650Y2580D01*
X258150D01*
X258178Y2570D01*
X258335Y2335D01*
X258732Y2070D01*
X259200Y1977D01*
X259668Y2070D01*
X260065Y2335D01*
X260244Y2603D01*
X260693Y2647D01*
X260811Y2620D01*
X260935Y2435D01*
X261332Y2170D01*
X261800Y2076D01*
X262268Y2170D01*
X262574Y2374D01*
X262900Y2409D01*
X263226Y2374D01*
X263532Y2170D01*
X264000Y2076D01*
X264468Y2170D01*
X264774Y2374D01*
X265100Y2409D01*
X265426Y2374D01*
X265732Y2170D01*
X266200Y2076D01*
X266668Y2170D01*
X266974Y2374D01*
X267300Y2409D01*
X267626Y2374D01*
X267932Y2170D01*
X268400Y2076D01*
X268868Y2170D01*
X269174Y2374D01*
X269500Y2409D01*
X269826Y2374D01*
X270132Y2170D01*
X270600Y2076D01*
X271068Y2170D01*
X271374Y2374D01*
X271700Y2409D01*
X272026Y2374D01*
X272332Y2170D01*
X272800Y2076D01*
X273268Y2170D01*
X273574Y2374D01*
X273900Y2409D01*
X274226Y2374D01*
X274532Y2170D01*
X275000Y2076D01*
X275468Y2170D01*
X275865Y2435D01*
X276130Y2832D01*
X276223Y3300D01*
X276130Y3768D01*
X275865Y4165D01*
X275468Y4430D01*
X275000Y4524D01*
D02*
G37*
%LPD*%
G36*
X238000Y146500D02*
X238300Y146200D01*
X237400Y145300D01*
X187700D01*
Y185300D01*
X187559Y185441D01*
X187907Y185800D01*
X238000D01*
Y146500D01*
D02*
G37*
%LPC*%
G36*
X234903Y182629D02*
Y181603D01*
X235929D01*
X235877Y181860D01*
X235590Y182290D01*
X235160Y182577D01*
X234903Y182629D01*
D02*
G37*
G36*
X234403D02*
X234145Y182577D01*
X233716Y182290D01*
X233428Y181860D01*
X233377Y181603D01*
X234403D01*
Y182629D01*
D02*
G37*
G36*
X214603Y182528D02*
Y181503D01*
X215629D01*
X215577Y181760D01*
X215290Y182190D01*
X214860Y182477D01*
X214603Y182528D01*
D02*
G37*
G36*
X214103D02*
X213845Y182477D01*
X213416Y182190D01*
X213128Y181760D01*
X213077Y181503D01*
X214103D01*
Y182528D01*
D02*
G37*
G36*
X201947Y182170D02*
X201596Y182101D01*
X201298Y181902D01*
X201099Y181604D01*
X201029Y181253D01*
X201099Y180902D01*
X201298Y180604D01*
X201596Y180405D01*
X201947Y180335D01*
X202298Y180405D01*
X202596Y180604D01*
X202795Y180902D01*
X202865Y181253D01*
X202795Y181604D01*
X202596Y181902D01*
X202298Y182101D01*
X201947Y182170D01*
D02*
G37*
G36*
X235929Y181103D02*
X234903D01*
Y180077D01*
X235160Y180128D01*
X235590Y180415D01*
X235877Y180845D01*
X235929Y181103D01*
D02*
G37*
G36*
X234403D02*
X233377D01*
X233428Y180845D01*
X233716Y180415D01*
X234145Y180128D01*
X234403Y180077D01*
Y181103D01*
D02*
G37*
G36*
X215629Y181003D02*
X214603D01*
Y179977D01*
X214860Y180028D01*
X215290Y180315D01*
X215577Y180745D01*
X215629Y181003D01*
D02*
G37*
G36*
X214103D02*
X213077D01*
X213128Y180745D01*
X213416Y180315D01*
X213845Y180028D01*
X214103Y179977D01*
Y181003D01*
D02*
G37*
G36*
X202253Y176265D02*
X201902Y176195D01*
X201604Y175996D01*
X201405Y175698D01*
X201335Y175347D01*
X201405Y174996D01*
X201604Y174698D01*
X201902Y174499D01*
X202253Y174430D01*
X202604Y174499D01*
X202902Y174698D01*
X203100Y174996D01*
X203170Y175347D01*
X203100Y175698D01*
X202902Y175996D01*
X202604Y176195D01*
X202253Y176265D01*
D02*
G37*
G36*
X202400Y173018D02*
X202049Y172948D01*
X201751Y172749D01*
X201552Y172451D01*
X201482Y172100D01*
X201552Y171749D01*
X201751Y171451D01*
X202049Y171252D01*
X202400Y171182D01*
X202751Y171252D01*
X203049Y171451D01*
X203248Y171749D01*
X203318Y172100D01*
X203248Y172451D01*
X203049Y172749D01*
X202751Y172948D01*
X202400Y173018D01*
D02*
G37*
G36*
X230365Y172652D02*
X230014Y172582D01*
X229716Y172383D01*
X229518Y172086D01*
X229448Y171735D01*
X229518Y171384D01*
X229716Y171086D01*
X230014Y170887D01*
X230365Y170817D01*
X230716Y170887D01*
X231014Y171086D01*
X231213Y171384D01*
X231283Y171735D01*
X231213Y172086D01*
X231014Y172383D01*
X230716Y172582D01*
X230365Y172652D01*
D02*
G37*
G36*
X226035Y170252D02*
X225683Y170182D01*
X225386Y169983D01*
X225187Y169686D01*
X225117Y169335D01*
X225187Y168983D01*
X225386Y168686D01*
X225683Y168487D01*
X226035Y168417D01*
X226386Y168487D01*
X226683Y168686D01*
X226882Y168983D01*
X226952Y169335D01*
X226882Y169686D01*
X226683Y169983D01*
X226386Y170182D01*
X226035Y170252D01*
D02*
G37*
G36*
X220200Y168718D02*
X219849Y168648D01*
X219551Y168449D01*
X219352Y168151D01*
X219282Y167800D01*
X219352Y167449D01*
X219551Y167151D01*
X219849Y166952D01*
X220200Y166882D01*
X220551Y166952D01*
X220849Y167151D01*
X221048Y167449D01*
X221118Y167800D01*
X221048Y168151D01*
X220849Y168449D01*
X220551Y168648D01*
X220200Y168718D01*
D02*
G37*
G36*
X235003Y159529D02*
Y158503D01*
X236029D01*
X235977Y158760D01*
X235690Y159190D01*
X235260Y159477D01*
X235003Y159529D01*
D02*
G37*
G36*
X234503D02*
X234245Y159477D01*
X233816Y159190D01*
X233528Y158760D01*
X233477Y158503D01*
X234503D01*
Y159529D01*
D02*
G37*
G36*
X214697D02*
Y158503D01*
X215723D01*
X215672Y158760D01*
X215385Y159190D01*
X214954Y159477D01*
X214697Y159529D01*
D02*
G37*
G36*
X214197D02*
X213940Y159477D01*
X213510Y159190D01*
X213223Y158760D01*
X213172Y158503D01*
X214197D01*
Y159529D01*
D02*
G37*
G36*
X236029Y158003D02*
X235003D01*
Y156977D01*
X235260Y157028D01*
X235690Y157316D01*
X235977Y157746D01*
X236029Y158003D01*
D02*
G37*
G36*
X234503D02*
X233477D01*
X233528Y157746D01*
X233816Y157316D01*
X234245Y157028D01*
X234503Y156977D01*
Y158003D01*
D02*
G37*
G36*
X215723D02*
X214697D01*
Y156977D01*
X214954Y157028D01*
X215385Y157316D01*
X215672Y157746D01*
X215723Y158003D01*
D02*
G37*
G36*
X214197D02*
X213172D01*
X213223Y157746D01*
X213510Y157316D01*
X213940Y157028D01*
X214197Y156977D01*
Y158003D01*
D02*
G37*
G36*
X189950Y150376D02*
Y149350D01*
X190976D01*
X190925Y149607D01*
X190637Y150037D01*
X190207Y150325D01*
X189950Y150376D01*
D02*
G37*
G36*
X189450D02*
X189193Y150325D01*
X188763Y150037D01*
X188475Y149607D01*
X188424Y149350D01*
X189450D01*
Y150376D01*
D02*
G37*
G36*
X190976Y148850D02*
X189950D01*
Y147824D01*
X190207Y147875D01*
X190637Y148163D01*
X190925Y148593D01*
X190976Y148850D01*
D02*
G37*
G36*
X189450D02*
X188424D01*
X188475Y148593D01*
X188763Y148163D01*
X189193Y147875D01*
X189450Y147824D01*
Y148850D01*
D02*
G37*
%LPD*%
G36*
X137436Y157623D02*
X137277Y157517D01*
X137078Y157220D01*
X137008Y156869D01*
X137078Y156517D01*
X137277Y156220D01*
X137428Y156119D01*
X137433Y156106D01*
X137284Y155614D01*
X135700D01*
X135427Y155559D01*
X135195Y155405D01*
X133395Y153605D01*
X133241Y153373D01*
X133186Y153100D01*
Y150472D01*
X132686Y150205D01*
X132507Y150325D01*
X132000Y150426D01*
X131493Y150325D01*
X131063Y150037D01*
X130775Y149607D01*
X130675Y149100D01*
X130775Y148593D01*
X131063Y148163D01*
X131082Y148150D01*
Y146883D01*
X130582Y146676D01*
X129843Y147415D01*
X129825Y147507D01*
X129537Y147937D01*
X129107Y148225D01*
X128600Y148326D01*
X128093Y148225D01*
X127777Y148013D01*
X127382Y148153D01*
X127277Y148235D01*
Y158123D01*
X137284D01*
X137436Y157623D01*
D02*
G37*
G36*
X135309Y152283D02*
X135606Y152084D01*
X135958Y152014D01*
X136309Y152084D01*
X136606Y152283D01*
X136653Y152352D01*
X137231D01*
X137277Y152283D01*
X137575Y152084D01*
X137926Y152014D01*
X138277Y152084D01*
X138575Y152283D01*
X138621Y152352D01*
X139199D01*
X139246Y152283D01*
X139543Y152084D01*
X139894Y152014D01*
X140246Y152084D01*
X140543Y152283D01*
X140656Y152451D01*
X141156Y152300D01*
X141173Y141543D01*
X140673Y141336D01*
X134614Y147396D01*
Y152511D01*
X135110Y152580D01*
X135309Y152283D01*
D02*
G37*
D58*
X206700Y64500D02*
X207500Y65300D01*
X114600Y64500D02*
X206700D01*
X106900Y56800D02*
X114600Y64500D01*
X132000Y146500D02*
Y149100D01*
Y146500D02*
X138900Y139600D01*
Y131500D02*
Y139600D01*
D60*
X126563Y158837D02*
X139894D01*
X126563Y145337D02*
Y158837D01*
Y145337D02*
X133800Y138100D01*
Y136200D02*
Y138100D01*
X143832Y156869D02*
X143887Y134613D01*
X141863Y156869D02*
X141900Y133100D01*
X137926Y154900D02*
X141863Y158837D01*
X135700Y154900D02*
X137926D01*
X133900Y153100D02*
X135700Y154900D01*
X133900Y147100D02*
Y153100D01*
Y147100D02*
X140500Y140500D01*
Y129400D02*
Y140500D01*
X126563Y158837D02*
Y160463D01*
X141863Y156869D02*
X143832Y158837D01*
Y167069D01*
X142200Y168700D02*
X143832Y167069D01*
X142200Y168700D02*
Y172100D01*
X143832Y156869D02*
X143869D01*
X147400Y160400D01*
Y170500D01*
X140600Y177300D02*
X147400Y170500D01*
X123900Y145237D02*
X129800Y139337D01*
X123900Y145237D02*
Y173300D01*
D62*
X128600Y147000D02*
X136200Y139400D01*
Y130400D02*
Y139400D01*
Y130400D02*
X140300Y126300D01*
Y108500D02*
Y126300D01*
D69*
X219489Y108989D02*
D03*
D70*
X176500Y100500D02*
D03*
X207500Y65300D02*
D03*
X83500Y146200D02*
D03*
X100150Y159150D02*
D03*
X111700Y148600D02*
D03*
X103700Y183600D02*
D03*
X189700Y149100D02*
D03*
X214353Y181253D02*
D03*
X234653Y181353D02*
D03*
X214447Y158253D02*
D03*
X234753D02*
D03*
X80698Y124902D02*
D03*
X137898Y172502D02*
D03*
X188300Y188400D02*
D03*
D71*
X106900Y56800D02*
D03*
X117702Y124502D02*
D03*
D72*
X126600Y160500D02*
D03*
D73*
X83538Y137762D02*
D03*
X139894Y158837D02*
D03*
X141863D02*
D03*
Y156869D02*
D03*
X143832D02*
D03*
X133800Y136200D02*
D03*
X143887Y134613D02*
D03*
X141900Y133100D02*
D03*
X140500Y129400D02*
D03*
X142200Y172100D02*
D03*
X140600Y177300D02*
D03*
X129800Y139337D02*
D03*
X123900Y173300D02*
D03*
D74*
X119475Y104725D02*
D03*
X132000Y149100D02*
D03*
X138900Y131500D02*
D03*
X128600Y147000D02*
D03*
X140300Y108500D02*
D03*
M02*
