G04 Layer_Color=8388736*
%FSLAX25Y25*%
%MOIN*%
G70*
G01*
G75*
%ADD92R,0.01181X0.00984*%
%ADD94R,0.03353X0.02959*%
%ADD95R,0.06699X0.07880*%
%ADD96R,0.01975X0.05715*%
%ADD97R,0.05124X0.07880*%
%ADD98R,0.03943X0.05518*%
%ADD99R,0.07487X0.03353*%
%ADD100R,0.07487X0.02762*%
%ADD101R,0.01496X0.03740*%
%ADD102R,0.01496X0.03347*%
%ADD103R,0.03550X0.03550*%
%ADD104R,0.02565X0.02762*%
%ADD105R,0.01772X0.01575*%
%ADD106R,0.08668X0.08668*%
%ADD107R,0.01581X0.03235*%
%ADD108R,0.03235X0.01581*%
%ADD109R,0.03195X0.04022*%
%ADD110C,0.01181*%
%ADD111R,0.01654X0.01654*%
G04:AMPARAMS|DCode=112|XSize=51.24mil|YSize=70.93mil|CornerRadius=0mil|HoleSize=0mil|Usage=FLASHONLY|Rotation=10.000|XOffset=0mil|YOffset=0mil|HoleType=Round|Shape=Rectangle|*
%AMROTATEDRECTD112*
4,1,4,-0.01908,-0.03938,-0.03139,0.03048,0.01908,0.03938,0.03139,-0.03048,-0.01908,-0.03938,0.0*
%
%ADD112ROTATEDRECTD112*%

G04:AMPARAMS|DCode=113|XSize=23.69mil|YSize=47.31mil|CornerRadius=0mil|HoleSize=0mil|Usage=FLASHONLY|Rotation=10.000|XOffset=0mil|YOffset=0mil|HoleType=Round|Shape=Rectangle|*
%AMROTATEDRECTD113*
4,1,4,-0.00756,-0.02535,-0.01577,0.02124,0.00756,0.02535,0.01577,-0.02124,-0.00756,-0.02535,0.0*
%
%ADD113ROTATEDRECTD113*%

%ADD114C,0.01437*%
%ADD115C,0.01476*%
G04:AMPARAMS|DCode=116|XSize=12.94mil|YSize=12.94mil|CornerRadius=6.47mil|HoleSize=0mil|Usage=FLASHONLY|Rotation=0.000|XOffset=0mil|YOffset=0mil|HoleType=Round|Shape=RoundedRectangle|*
%AMROUNDEDRECTD116*
21,1,0.01294,0.00000,0,0,0.0*
21,1,0.00000,0.01294,0,0,0.0*
1,1,0.01294,0.00000,0.00000*
1,1,0.01294,0.00000,0.00000*
1,1,0.01294,0.00000,0.00000*
1,1,0.01294,0.00000,0.00000*
%
%ADD116ROUNDEDRECTD116*%
%ADD117C,0.01260*%
%ADD118R,0.01575X0.01772*%
%ADD119R,0.02762X0.02920*%
%ADD120R,0.02920X0.02762*%
%ADD121R,0.01654X0.01654*%
G04:AMPARAMS|DCode=122|XSize=51.24mil|YSize=70.93mil|CornerRadius=0mil|HoleSize=0mil|Usage=FLASHONLY|Rotation=125.000|XOffset=0mil|YOffset=0mil|HoleType=Round|Shape=Rectangle|*
%AMROTATEDRECTD122*
4,1,4,0.04375,-0.00065,-0.01436,-0.04133,-0.04375,0.00065,0.01436,0.04133,0.04375,-0.00065,0.0*
%
%ADD122ROTATEDRECTD122*%

G04:AMPARAMS|DCode=123|XSize=23.69mil|YSize=47.31mil|CornerRadius=0mil|HoleSize=0mil|Usage=FLASHONLY|Rotation=125.000|XOffset=0mil|YOffset=0mil|HoleType=Round|Shape=Rectangle|*
%AMROTATEDRECTD123*
4,1,4,0.02617,0.00387,-0.01258,-0.02327,-0.02617,-0.00387,0.01258,0.02327,0.02617,0.00387,0.0*
%
%ADD123ROTATEDRECTD123*%

%ADD124O,0.05321X0.06306*%
%ADD125O,0.05223X0.07880*%
%ADD126C,0.03998*%
%ADD127C,0.03600*%
D92*
X43040Y7452D02*
D03*
X43040Y6075D02*
D03*
X40678Y6074D02*
D03*
X40679Y7452D02*
D03*
D94*
X17478Y6472D02*
D03*
X22596D02*
D03*
X17478Y10409D02*
D03*
X22596D02*
D03*
D95*
X-4134Y-40000D02*
D03*
X4134D02*
D03*
D96*
X5118Y-28974D02*
D03*
X2559D02*
D03*
X0D02*
D03*
X-2559D02*
D03*
X-5118Y-28974D02*
D03*
D97*
X-11811Y-40000D02*
D03*
X11811Y-40000D02*
D03*
D98*
X-44134Y-7683D02*
D03*
Y6883D02*
D03*
D99*
X-36457Y-5223D02*
D03*
Y4423D02*
D03*
D100*
Y-400D02*
D03*
D101*
X-13669Y18833D02*
D03*
D102*
X-11700Y18636D02*
D03*
X-9732D02*
D03*
X-13669Y23164D02*
D03*
X-11700D02*
D03*
X-9732D02*
D03*
D103*
X25053Y-35300D02*
D03*
X19147D02*
D03*
X3553Y4600D02*
D03*
X-2353D02*
D03*
X24953Y-30000D02*
D03*
X19047D02*
D03*
D104*
X-3970Y-12100D02*
D03*
X-230D02*
D03*
D105*
X39900Y15000D02*
D03*
Y12638D02*
D03*
X-26400Y2319D02*
D03*
Y4681D02*
D03*
X-19500Y19819D02*
D03*
Y22181D02*
D03*
X-28400Y-3100D02*
D03*
Y-5462D02*
D03*
X-28800Y4681D02*
D03*
Y2319D02*
D03*
X-11600Y1419D02*
D03*
Y3781D02*
D03*
X-23100Y14981D02*
D03*
Y12619D02*
D03*
X-4500Y27619D02*
D03*
Y29981D02*
D03*
D106*
X20900Y-10200D02*
D03*
D107*
X17061Y-17385D02*
D03*
X19621D02*
D03*
X22179D02*
D03*
X24739D02*
D03*
Y-3015D02*
D03*
X22179D02*
D03*
X19621D02*
D03*
X17061D02*
D03*
D108*
X28085Y-14039D02*
D03*
Y-11479D02*
D03*
Y-8920D02*
D03*
Y-6361D02*
D03*
X13715D02*
D03*
Y-8920D02*
D03*
Y-11479D02*
D03*
Y-14039D02*
D03*
D109*
X-27956Y-9800D02*
D03*
X-22444D02*
D03*
D110*
X1276Y19001D02*
D03*
X2850D02*
D03*
X-299Y20576D02*
D03*
X1276D02*
D03*
X-299Y22150D02*
D03*
X4425Y20576D02*
D03*
X2850D02*
D03*
X1276Y23725D02*
D03*
X-299D02*
D03*
X2850Y22150D02*
D03*
X1276D02*
D03*
X2850Y23725D02*
D03*
Y25300D02*
D03*
X4425Y19001D02*
D03*
X6000D02*
D03*
X7575Y20576D02*
D03*
X9150Y19001D02*
D03*
X7575D02*
D03*
X10724D02*
D03*
X12299D02*
D03*
X6000Y20576D02*
D03*
X12299D02*
D03*
X4425Y22150D02*
D03*
X6000D02*
D03*
X12299Y23725D02*
D03*
Y22150D02*
D03*
X-299Y25300D02*
D03*
X1276Y26875D02*
D03*
X-299D02*
D03*
X1276Y28450D02*
D03*
X-299D02*
D03*
X1276Y25300D02*
D03*
X2850Y26875D02*
D03*
X4425Y28450D02*
D03*
X2850D02*
D03*
X1276Y30024D02*
D03*
X2850D02*
D03*
X-299D02*
D03*
X2850Y31599D02*
D03*
X1276D02*
D03*
X4425D02*
D03*
Y30024D02*
D03*
X9150Y26875D02*
D03*
Y25300D02*
D03*
X6000Y28450D02*
D03*
X9150D02*
D03*
X7575D02*
D03*
X10724Y25300D02*
D03*
X12299D02*
D03*
X10724Y26875D02*
D03*
X12299D02*
D03*
Y28450D02*
D03*
X6000Y30024D02*
D03*
X7575D02*
D03*
X6000Y31599D02*
D03*
X9150Y30024D02*
D03*
X7575Y31599D02*
D03*
X10724Y28450D02*
D03*
X12299Y30024D02*
D03*
X9150Y31599D02*
D03*
X10724Y30024D02*
D03*
Y31599D02*
D03*
D111*
X7600Y13598D02*
D03*
Y15802D02*
D03*
X-25900Y-3179D02*
D03*
Y-5384D02*
D03*
X-28300Y28500D02*
D03*
Y26295D02*
D03*
X21500Y29602D02*
D03*
Y27398D02*
D03*
X16800Y29402D02*
D03*
Y27198D02*
D03*
X16300Y18300D02*
D03*
Y16095D02*
D03*
X-2600Y13298D02*
D03*
Y15502D02*
D03*
X13700Y9702D02*
D03*
Y7498D02*
D03*
X26300Y7298D02*
D03*
Y9502D02*
D03*
D112*
X-13048Y39866D02*
D03*
X134Y42190D02*
D03*
D113*
X-3949Y35873D02*
D03*
X-7051Y35326D02*
D03*
D114*
X-36521Y13579D02*
D03*
Y15547D02*
D03*
Y17516D02*
D03*
Y19484D02*
D03*
Y21453D02*
D03*
Y23421D02*
D03*
X-34553Y13579D02*
D03*
Y15547D02*
D03*
Y17516D02*
D03*
Y19484D02*
D03*
Y21453D02*
D03*
Y23421D02*
D03*
X-32584Y13579D02*
D03*
Y15547D02*
D03*
Y17516D02*
D03*
Y19484D02*
D03*
Y21453D02*
D03*
Y23421D02*
D03*
X-30616Y13579D02*
D03*
Y15547D02*
D03*
Y17516D02*
D03*
Y19484D02*
D03*
Y21453D02*
D03*
Y23421D02*
D03*
X-28647Y13579D02*
D03*
Y15547D02*
D03*
Y17516D02*
D03*
Y19484D02*
D03*
Y21453D02*
D03*
Y23421D02*
D03*
X-26679Y13579D02*
D03*
Y15547D02*
D03*
Y17516D02*
D03*
Y19484D02*
D03*
Y21453D02*
D03*
Y23421D02*
D03*
D115*
X-23568Y-14931D02*
D03*
Y-16900D02*
D03*
Y-18868D02*
D03*
X-21600Y-14931D02*
D03*
X-19631D02*
D03*
X-21600Y-16900D02*
D03*
X-19631D02*
D03*
Y-18868D02*
D03*
X-21600D02*
D03*
D116*
X-16450Y-3450D02*
D03*
Y-1875D02*
D03*
X-18025Y-3450D02*
D03*
Y-1875D02*
D03*
X-16450Y1275D02*
D03*
Y-300D02*
D03*
Y2850D02*
D03*
X-18025Y1275D02*
D03*
Y-300D02*
D03*
X-19600Y2850D02*
D03*
X-18025D02*
D03*
X-19600Y-3450D02*
D03*
X-21175D02*
D03*
X-19600Y-1875D02*
D03*
X-21175D02*
D03*
Y-300D02*
D03*
X-22750Y-3450D02*
D03*
Y-1875D02*
D03*
X-19600Y-300D02*
D03*
X-22750D02*
D03*
X-19600Y1275D02*
D03*
X-21175D02*
D03*
Y2850D02*
D03*
X-22750D02*
D03*
Y1275D02*
D03*
D117*
X19537Y23700D02*
D03*
X17569D02*
D03*
X15600D02*
D03*
X19537Y22125D02*
D03*
X15600D02*
D03*
D118*
X-11481Y-3500D02*
D03*
X-9119D02*
D03*
X-26119Y0D02*
D03*
X-28481D02*
D03*
X-11781Y29300D02*
D03*
X-9419D02*
D03*
X-33262Y28700D02*
D03*
X-30900D02*
D03*
X-338Y-6900D02*
D03*
X-2700D02*
D03*
D119*
X22911Y-22100D02*
D03*
X19289D02*
D03*
X3311Y-20600D02*
D03*
X-311D02*
D03*
X21411Y1600D02*
D03*
X17789D02*
D03*
X26989Y1600D02*
D03*
X30611D02*
D03*
X3311Y-16400D02*
D03*
X-311D02*
D03*
D120*
X8300Y-11289D02*
D03*
Y-14911D02*
D03*
X-8200Y1089D02*
D03*
Y4711D02*
D03*
X-17800Y-30011D02*
D03*
Y-26389D02*
D03*
X-6500Y-20911D02*
D03*
Y-17289D02*
D03*
X-10200Y-20911D02*
D03*
Y-17289D02*
D03*
D121*
X-9498Y26700D02*
D03*
X-11702D02*
D03*
X-30998Y26300D02*
D03*
X-33202D02*
D03*
X-22902Y9600D02*
D03*
X-20698D02*
D03*
X33798Y12619D02*
D03*
X36002D02*
D03*
X33798Y15019D02*
D03*
X36002D02*
D03*
D122*
X-28776Y-30244D02*
D03*
X-36454Y-19279D02*
D03*
D123*
X-29003Y-20310D02*
D03*
X-27197Y-22890D02*
D03*
D124*
X-9843Y-28583D02*
D03*
X9843Y-28386D02*
D03*
D125*
X-14173Y-40000D02*
D03*
X14173Y-39998D02*
D03*
D126*
X37200Y-24200D02*
D03*
X24100Y36300D02*
D03*
X-40700Y-14700D02*
D03*
D127*
X0Y-2500D02*
D03*
M02*
