G04 Layer_Color=8421504*
%FSLAX25Y25*%
%MOIN*%
G70*
G01*
G75*
G04:AMPARAMS|DCode=10|XSize=19.69mil|YSize=43.31mil|CornerRadius=0mil|HoleSize=0mil|Usage=FLASHONLY|Rotation=125.000|XOffset=0mil|YOffset=0mil|HoleType=Round|Shape=Rectangle|*
%AMROTATEDRECTD10*
4,1,4,0.02338,0.00436,-0.01209,-0.02048,-0.02338,-0.00436,0.01209,0.02048,0.02338,0.00436,0.0*
%
%ADD10ROTATEDRECTD10*%

G04:AMPARAMS|DCode=11|XSize=47.24mil|YSize=66.93mil|CornerRadius=0mil|HoleSize=0mil|Usage=FLASHONLY|Rotation=125.000|XOffset=0mil|YOffset=0mil|HoleType=Round|Shape=Rectangle|*
%AMROTATEDRECTD11*
4,1,4,0.04096,-0.00016,-0.01386,-0.03855,-0.04096,0.00016,0.01386,0.03855,0.04096,-0.00016,0.0*
%
%ADD11ROTATEDRECTD11*%

%ADD12R,0.01260X0.01260*%
%ADD13R,0.01260X0.01260*%
%ADD14R,0.02520X0.02362*%
%ADD15R,0.02362X0.02520*%
%ADD16R,0.01181X0.01378*%
%ADD17R,0.01378X0.01181*%
%ADD18R,0.03150X0.03150*%
%ADD22C,0.00866*%
G04:AMPARAMS|DCode=23|XSize=9mil|YSize=9mil|CornerRadius=4.5mil|HoleSize=0mil|Usage=FLASHONLY|Rotation=0.000|XOffset=0mil|YOffset=0mil|HoleType=Round|Shape=RoundedRectangle|*
%AMROUNDEDRECTD23*
21,1,0.00900,0.00000,0,0,0.0*
21,1,0.00000,0.00900,0,0,0.0*
1,1,0.00900,0.00000,0.00000*
1,1,0.00900,0.00000,0.00000*
1,1,0.00900,0.00000,0.00000*
1,1,0.00900,0.00000,0.00000*
%
%ADD23ROUNDEDRECTD23*%
%ADD24C,0.01083*%
G04:AMPARAMS|DCode=26|XSize=19.69mil|YSize=43.31mil|CornerRadius=0mil|HoleSize=0mil|Usage=FLASHONLY|Rotation=10.000|XOffset=0mil|YOffset=0mil|HoleType=Round|Shape=Rectangle|*
%AMROTATEDRECTD26*
4,1,4,-0.00593,-0.02303,-0.01345,0.01962,0.00593,0.02303,0.01345,-0.01962,-0.00593,-0.02303,0.0*
%
%ADD26ROTATEDRECTD26*%

G04:AMPARAMS|DCode=27|XSize=47.24mil|YSize=66.93mil|CornerRadius=0mil|HoleSize=0mil|Usage=FLASHONLY|Rotation=10.000|XOffset=0mil|YOffset=0mil|HoleType=Round|Shape=Rectangle|*
%AMROTATEDRECTD27*
4,1,4,-0.01745,-0.03706,-0.02907,0.02885,0.01745,0.03706,0.02907,-0.02885,-0.01745,-0.03706,0.0*
%
%ADD27ROTATEDRECTD27*%

%ADD28C,0.00709*%
%ADD29R,0.02795X0.03622*%
%ADD30R,0.02835X0.01181*%
%ADD31R,0.01181X0.02835*%
%ADD33R,0.02165X0.02362*%
%ADD34R,0.01102X0.02953*%
%ADD35R,0.01102X0.03347*%
%ADD36R,0.07087X0.02362*%
%ADD37R,0.07087X0.02953*%
%ADD38R,0.03543X0.05118*%
%ADD39R,0.04724X0.07480*%
%ADD40R,0.01575X0.05315*%
%ADD41R,0.06299X0.07480*%
%ADD42R,0.02953X0.02559*%
%ADD80C,0.00197*%
%ADD81R,0.01181X0.00984*%
%ADD82R,0.00591X0.00591*%
%ADD83R,0.00591X0.00197*%
%ADD84R,0.00197X0.00591*%
%ADD85R,0.00591X0.00591*%
%ADD86R,0.00197X0.00591*%
%ADD87R,0.00197X0.00591*%
%ADD88R,0.00591X0.00197*%
%ADD89R,0.00591X0.00591*%
%ADD90R,0.00591X0.00197*%
%ADD91R,0.00591X0.00591*%
%ADD92R,0.00591X0.00197*%
%ADD93R,0.00197X0.00591*%
%ADD94R,0.07480X0.07480*%
%ADD95C,0.00000*%
D10*
X-27197Y-22890D02*
D03*
X-29003Y-20310D02*
D03*
D11*
X-36454Y-19279D02*
D03*
X-28776Y-30244D02*
D03*
D12*
X26300Y9502D02*
D03*
Y7298D02*
D03*
X13700Y7498D02*
D03*
Y9702D02*
D03*
X-2600Y15502D02*
D03*
Y13298D02*
D03*
X16300Y16095D02*
D03*
Y18300D02*
D03*
X16800Y27198D02*
D03*
Y29402D02*
D03*
X21500Y27398D02*
D03*
Y29602D02*
D03*
X-28300Y26295D02*
D03*
Y28500D02*
D03*
X-25900Y-5384D02*
D03*
Y-3179D02*
D03*
X7600Y15802D02*
D03*
Y13598D02*
D03*
D13*
X36002Y15019D02*
D03*
X33798D02*
D03*
X36002Y12619D02*
D03*
X33798D02*
D03*
X-20698Y9600D02*
D03*
X-22902D02*
D03*
X-33202Y26300D02*
D03*
X-30998D02*
D03*
X-11702Y26700D02*
D03*
X-9498D02*
D03*
D14*
X-10200Y-17289D02*
D03*
Y-20911D02*
D03*
X-6500Y-17289D02*
D03*
Y-20911D02*
D03*
X-17800Y-26389D02*
D03*
Y-30011D02*
D03*
X-8200Y4711D02*
D03*
Y1089D02*
D03*
X8300Y-14911D02*
D03*
Y-11289D02*
D03*
D15*
X-311Y-16400D02*
D03*
X3311D02*
D03*
X30611Y1600D02*
D03*
X26989D02*
D03*
X17789Y1600D02*
D03*
X21411D02*
D03*
X-311Y-20600D02*
D03*
X3311D02*
D03*
X19289Y-22100D02*
D03*
X22911D02*
D03*
D16*
X-2700Y-6900D02*
D03*
X-338D02*
D03*
X-30900Y28700D02*
D03*
X-33262D02*
D03*
X-9419Y29300D02*
D03*
X-11781D02*
D03*
X-28481Y0D02*
D03*
X-26119D02*
D03*
X-9119Y-3500D02*
D03*
X-11481D02*
D03*
D17*
X-4500Y29981D02*
D03*
Y27619D02*
D03*
X-23100Y12619D02*
D03*
Y14981D02*
D03*
X-11600Y3781D02*
D03*
Y1419D02*
D03*
X-28800Y2319D02*
D03*
Y4681D02*
D03*
X-28400Y-5462D02*
D03*
Y-3100D02*
D03*
X-19500Y22181D02*
D03*
Y19819D02*
D03*
X-26400Y4681D02*
D03*
Y2319D02*
D03*
X39900Y12638D02*
D03*
Y15000D02*
D03*
D18*
X19047Y-30000D02*
D03*
X24953D02*
D03*
X-2353Y4600D02*
D03*
X3553D02*
D03*
X19147Y-35300D02*
D03*
X25053D02*
D03*
D22*
X15600Y22125D02*
D03*
X19537D02*
D03*
X15600Y23700D02*
D03*
X17569D02*
D03*
X19537D02*
D03*
D23*
X-22750Y1275D02*
D03*
Y2850D02*
D03*
X-21175D02*
D03*
Y1275D02*
D03*
X-19600D02*
D03*
X-22750Y-300D02*
D03*
X-19600D02*
D03*
X-22750Y-1875D02*
D03*
Y-3450D02*
D03*
X-21175Y-300D02*
D03*
Y-1875D02*
D03*
X-19600D02*
D03*
X-21175Y-3450D02*
D03*
X-19600D02*
D03*
X-18025Y2850D02*
D03*
X-19600D02*
D03*
X-18025Y-300D02*
D03*
Y1275D02*
D03*
X-16450Y2850D02*
D03*
Y-300D02*
D03*
Y1275D02*
D03*
X-18025Y-1875D02*
D03*
Y-3450D02*
D03*
X-16450Y-1875D02*
D03*
Y-3450D02*
D03*
D24*
X-21600Y-18868D02*
D03*
X-19631D02*
D03*
Y-16900D02*
D03*
X-21600D02*
D03*
X-19631Y-14931D02*
D03*
X-21600D02*
D03*
X-23568Y-18868D02*
D03*
Y-16900D02*
D03*
Y-14931D02*
D03*
D26*
X-7051Y35326D02*
D03*
X-3949Y35873D02*
D03*
D27*
X134Y42190D02*
D03*
X-13048Y39866D02*
D03*
D28*
X10724Y31599D02*
D03*
Y30024D02*
D03*
X9150Y31599D02*
D03*
X12299Y30024D02*
D03*
X10724Y28450D02*
D03*
X7575Y31599D02*
D03*
X9150Y30024D02*
D03*
X6000Y31599D02*
D03*
X7575Y30024D02*
D03*
X6000D02*
D03*
X12299Y28450D02*
D03*
Y26875D02*
D03*
X10724D02*
D03*
X12299Y25300D02*
D03*
X10724D02*
D03*
X7575Y28450D02*
D03*
X9150D02*
D03*
X6000D02*
D03*
X9150Y25300D02*
D03*
Y26875D02*
D03*
X4425Y30024D02*
D03*
Y31599D02*
D03*
X1276D02*
D03*
X2850D02*
D03*
X-299Y30024D02*
D03*
X2850D02*
D03*
X1276D02*
D03*
X2850Y28450D02*
D03*
X4425D02*
D03*
X2850Y26875D02*
D03*
X1276Y25300D02*
D03*
X-299Y28450D02*
D03*
X1276D02*
D03*
X-299Y26875D02*
D03*
X1276D02*
D03*
X-299Y25300D02*
D03*
X12299Y22150D02*
D03*
Y23725D02*
D03*
X6000Y22150D02*
D03*
X4425D02*
D03*
X12299Y20576D02*
D03*
X6000D02*
D03*
X12299Y19001D02*
D03*
X10724D02*
D03*
X7575D02*
D03*
X9150D02*
D03*
X7575Y20576D02*
D03*
X6000Y19001D02*
D03*
X4425D02*
D03*
X2850Y25300D02*
D03*
Y23725D02*
D03*
X1276Y22150D02*
D03*
X2850D02*
D03*
X-299Y23725D02*
D03*
X1276D02*
D03*
X2850Y20576D02*
D03*
X4425D02*
D03*
X-299Y22150D02*
D03*
X1276Y20576D02*
D03*
X-299D02*
D03*
X2850Y19001D02*
D03*
X1276D02*
D03*
D29*
X-22444Y-9800D02*
D03*
X-27956D02*
D03*
D30*
X13715Y-14039D02*
D03*
Y-11479D02*
D03*
Y-8920D02*
D03*
Y-6361D02*
D03*
X28085D02*
D03*
Y-8920D02*
D03*
Y-11479D02*
D03*
Y-14039D02*
D03*
D31*
X17061Y-3015D02*
D03*
X19621D02*
D03*
X22179D02*
D03*
X24739D02*
D03*
Y-17385D02*
D03*
X22179D02*
D03*
X19621D02*
D03*
X17061D02*
D03*
D33*
X-230Y-12100D02*
D03*
X-3970D02*
D03*
D34*
X-9732Y23164D02*
D03*
X-11700D02*
D03*
X-13669D02*
D03*
X-9732Y18636D02*
D03*
X-11700D02*
D03*
D35*
X-13669Y18833D02*
D03*
D36*
X-36457Y-400D02*
D03*
D37*
Y4423D02*
D03*
Y-5223D02*
D03*
D38*
X-44134Y6883D02*
D03*
Y-7683D02*
D03*
D39*
X11811Y-40000D02*
D03*
X-11811Y-40000D02*
D03*
D40*
X-5118Y-28974D02*
D03*
X-2559Y-28974D02*
D03*
X0D02*
D03*
X2559D02*
D03*
X5118D02*
D03*
D41*
X4134Y-40000D02*
D03*
X-4134D02*
D03*
D42*
X22596Y10409D02*
D03*
X17478D02*
D03*
X22596Y6472D02*
D03*
X17478D02*
D03*
D80*
X-26876Y23717D02*
G03*
X-26876Y23717I-98J0D01*
G01*
X-26285Y23126D02*
G03*
X-26285Y23126I-98J0D01*
G01*
X-26876D02*
G03*
X-26876Y23126I-98J0D01*
G01*
X-26285Y23717D02*
G03*
X-26285Y23717I-98J0D01*
G01*
X-26876Y21748D02*
G03*
X-26876Y21748I-98J0D01*
G01*
X-26285Y21158D02*
G03*
X-26285Y21158I-98J0D01*
G01*
X-26876D02*
G03*
X-26876Y21158I-98J0D01*
G01*
X-26285Y21748D02*
G03*
X-26285Y21748I-98J0D01*
G01*
X-26876Y19780D02*
G03*
X-26876Y19780I-98J0D01*
G01*
X-26285Y19189D02*
G03*
X-26285Y19189I-98J0D01*
G01*
X-26876D02*
G03*
X-26876Y19189I-98J0D01*
G01*
X-26285Y19780D02*
G03*
X-26285Y19780I-98J0D01*
G01*
X-26876Y17811D02*
G03*
X-26876Y17811I-98J0D01*
G01*
X-26285Y17221D02*
G03*
X-26285Y17221I-98J0D01*
G01*
X-26876D02*
G03*
X-26876Y17221I-98J0D01*
G01*
X-26285Y17811D02*
G03*
X-26285Y17811I-98J0D01*
G01*
X-26876Y15843D02*
G03*
X-26876Y15843I-98J0D01*
G01*
X-26285Y15252D02*
G03*
X-26285Y15252I-98J0D01*
G01*
X-26876D02*
G03*
X-26876Y15252I-98J0D01*
G01*
X-26285Y15843D02*
G03*
X-26285Y15843I-98J0D01*
G01*
X-26876Y13874D02*
G03*
X-26876Y13874I-98J0D01*
G01*
X-26285Y13284D02*
G03*
X-26285Y13284I-98J0D01*
G01*
X-26876D02*
G03*
X-26876Y13284I-98J0D01*
G01*
X-26285Y13874D02*
G03*
X-26285Y13874I-98J0D01*
G01*
X-28844Y23717D02*
G03*
X-28844Y23717I-98J0D01*
G01*
X-28253Y23126D02*
G03*
X-28253Y23126I-98J0D01*
G01*
X-28844D02*
G03*
X-28844Y23126I-98J0D01*
G01*
X-28253Y23717D02*
G03*
X-28253Y23717I-98J0D01*
G01*
X-28844Y21748D02*
G03*
X-28844Y21748I-98J0D01*
G01*
X-28253Y21158D02*
G03*
X-28253Y21158I-98J0D01*
G01*
X-28844D02*
G03*
X-28844Y21158I-98J0D01*
G01*
X-28253Y21748D02*
G03*
X-28253Y21748I-98J0D01*
G01*
X-28844Y19780D02*
G03*
X-28844Y19780I-98J0D01*
G01*
X-28253Y19189D02*
G03*
X-28253Y19189I-98J0D01*
G01*
X-28844D02*
G03*
X-28844Y19189I-98J0D01*
G01*
X-28253Y19780D02*
G03*
X-28253Y19780I-98J0D01*
G01*
X-28844Y17811D02*
G03*
X-28844Y17811I-98J0D01*
G01*
X-28253Y17221D02*
G03*
X-28253Y17221I-98J0D01*
G01*
X-28844D02*
G03*
X-28844Y17221I-98J0D01*
G01*
X-28253Y17811D02*
G03*
X-28253Y17811I-98J0D01*
G01*
X-28844Y15843D02*
G03*
X-28844Y15843I-98J0D01*
G01*
X-28253Y15252D02*
G03*
X-28253Y15252I-98J0D01*
G01*
X-28844D02*
G03*
X-28844Y15252I-98J0D01*
G01*
X-28253Y15843D02*
G03*
X-28253Y15843I-98J0D01*
G01*
X-28844Y13874D02*
G03*
X-28844Y13874I-98J0D01*
G01*
X-28253Y13284D02*
G03*
X-28253Y13284I-98J0D01*
G01*
X-28844D02*
G03*
X-28844Y13284I-98J0D01*
G01*
X-28253Y13874D02*
G03*
X-28253Y13874I-98J0D01*
G01*
X-30813Y23717D02*
G03*
X-30813Y23717I-98J0D01*
G01*
X-30222Y23126D02*
G03*
X-30222Y23126I-98J0D01*
G01*
X-30813D02*
G03*
X-30813Y23126I-98J0D01*
G01*
X-30222Y23717D02*
G03*
X-30222Y23717I-98J0D01*
G01*
X-30813Y21748D02*
G03*
X-30813Y21748I-98J0D01*
G01*
X-30222Y21158D02*
G03*
X-30222Y21158I-98J0D01*
G01*
X-30813D02*
G03*
X-30813Y21158I-98J0D01*
G01*
X-30222Y21748D02*
G03*
X-30222Y21748I-98J0D01*
G01*
X-30813Y19780D02*
G03*
X-30813Y19780I-98J0D01*
G01*
X-30222Y19189D02*
G03*
X-30222Y19189I-98J0D01*
G01*
X-30813D02*
G03*
X-30813Y19189I-98J0D01*
G01*
X-30222Y19780D02*
G03*
X-30222Y19780I-98J0D01*
G01*
X-30813Y17811D02*
G03*
X-30813Y17811I-98J0D01*
G01*
X-30222Y17221D02*
G03*
X-30222Y17221I-98J0D01*
G01*
X-30813D02*
G03*
X-30813Y17221I-98J0D01*
G01*
X-30222Y17811D02*
G03*
X-30222Y17811I-98J0D01*
G01*
X-30813Y15843D02*
G03*
X-30813Y15843I-98J0D01*
G01*
X-30222Y15252D02*
G03*
X-30222Y15252I-98J0D01*
G01*
X-30813D02*
G03*
X-30813Y15252I-98J0D01*
G01*
X-30222Y15843D02*
G03*
X-30222Y15843I-98J0D01*
G01*
X-30813Y13874D02*
G03*
X-30813Y13874I-98J0D01*
G01*
X-30222Y13284D02*
G03*
X-30222Y13284I-98J0D01*
G01*
X-30813D02*
G03*
X-30813Y13284I-98J0D01*
G01*
X-30222Y13874D02*
G03*
X-30222Y13874I-98J0D01*
G01*
X-32781Y23717D02*
G03*
X-32781Y23717I-98J0D01*
G01*
X-32191Y23126D02*
G03*
X-32191Y23126I-98J0D01*
G01*
X-32781D02*
G03*
X-32781Y23126I-98J0D01*
G01*
X-32191Y23717D02*
G03*
X-32191Y23717I-98J0D01*
G01*
X-32781Y21748D02*
G03*
X-32781Y21748I-98J0D01*
G01*
X-32191Y21158D02*
G03*
X-32191Y21158I-98J0D01*
G01*
X-32781D02*
G03*
X-32781Y21158I-98J0D01*
G01*
X-32191Y21748D02*
G03*
X-32191Y21748I-98J0D01*
G01*
X-32781Y19780D02*
G03*
X-32781Y19780I-98J0D01*
G01*
X-32191Y19189D02*
G03*
X-32191Y19189I-98J0D01*
G01*
X-32781D02*
G03*
X-32781Y19189I-98J0D01*
G01*
X-32191Y19780D02*
G03*
X-32191Y19780I-98J0D01*
G01*
X-32781Y17811D02*
G03*
X-32781Y17811I-98J0D01*
G01*
X-32191Y17221D02*
G03*
X-32191Y17221I-98J0D01*
G01*
X-32781D02*
G03*
X-32781Y17221I-98J0D01*
G01*
X-32191Y17811D02*
G03*
X-32191Y17811I-98J0D01*
G01*
X-32781Y15843D02*
G03*
X-32781Y15843I-98J0D01*
G01*
X-32191Y15252D02*
G03*
X-32191Y15252I-98J0D01*
G01*
X-32781D02*
G03*
X-32781Y15252I-98J0D01*
G01*
X-32191Y15843D02*
G03*
X-32191Y15843I-98J0D01*
G01*
X-32781Y13874D02*
G03*
X-32781Y13874I-98J0D01*
G01*
X-32191Y13284D02*
G03*
X-32191Y13284I-98J0D01*
G01*
X-32781D02*
G03*
X-32781Y13284I-98J0D01*
G01*
X-32191Y13874D02*
G03*
X-32191Y13874I-98J0D01*
G01*
X-34750Y23717D02*
G03*
X-34750Y23717I-98J0D01*
G01*
X-34159Y23126D02*
G03*
X-34159Y23126I-98J0D01*
G01*
X-34750D02*
G03*
X-34750Y23126I-98J0D01*
G01*
X-34159Y23717D02*
G03*
X-34159Y23717I-98J0D01*
G01*
X-34750Y21748D02*
G03*
X-34750Y21748I-98J0D01*
G01*
X-34159Y21158D02*
G03*
X-34159Y21158I-98J0D01*
G01*
X-34750D02*
G03*
X-34750Y21158I-98J0D01*
G01*
X-34159Y21748D02*
G03*
X-34159Y21748I-98J0D01*
G01*
X-34750Y19780D02*
G03*
X-34750Y19780I-98J0D01*
G01*
X-34159Y19189D02*
G03*
X-34159Y19189I-98J0D01*
G01*
X-34750D02*
G03*
X-34750Y19189I-98J0D01*
G01*
X-34159Y19780D02*
G03*
X-34159Y19780I-98J0D01*
G01*
X-34750Y17811D02*
G03*
X-34750Y17811I-98J0D01*
G01*
X-34159Y17221D02*
G03*
X-34159Y17221I-98J0D01*
G01*
X-34750D02*
G03*
X-34750Y17221I-98J0D01*
G01*
X-34159Y17811D02*
G03*
X-34159Y17811I-98J0D01*
G01*
X-34750Y15843D02*
G03*
X-34750Y15843I-98J0D01*
G01*
X-34159Y15252D02*
G03*
X-34159Y15252I-98J0D01*
G01*
X-34750D02*
G03*
X-34750Y15252I-98J0D01*
G01*
X-34159Y15843D02*
G03*
X-34159Y15843I-98J0D01*
G01*
X-34750Y13874D02*
G03*
X-34750Y13874I-98J0D01*
G01*
X-34159Y13284D02*
G03*
X-34159Y13284I-98J0D01*
G01*
X-34750D02*
G03*
X-34750Y13284I-98J0D01*
G01*
X-34159Y13874D02*
G03*
X-34159Y13874I-98J0D01*
G01*
X-36718Y23717D02*
G03*
X-36718Y23717I-98J0D01*
G01*
X-36128Y23126D02*
G03*
X-36128Y23126I-98J0D01*
G01*
X-36718D02*
G03*
X-36718Y23126I-98J0D01*
G01*
X-36128Y23717D02*
G03*
X-36128Y23717I-98J0D01*
G01*
X-36718Y21748D02*
G03*
X-36718Y21748I-98J0D01*
G01*
X-36128Y21158D02*
G03*
X-36128Y21158I-98J0D01*
G01*
X-36718D02*
G03*
X-36718Y21158I-98J0D01*
G01*
X-36128Y21748D02*
G03*
X-36128Y21748I-98J0D01*
G01*
X-36718Y19780D02*
G03*
X-36718Y19780I-98J0D01*
G01*
X-36128Y19189D02*
G03*
X-36128Y19189I-98J0D01*
G01*
X-36718D02*
G03*
X-36718Y19189I-98J0D01*
G01*
X-36128Y19780D02*
G03*
X-36128Y19780I-98J0D01*
G01*
X-36718Y17811D02*
G03*
X-36718Y17811I-98J0D01*
G01*
X-36128Y17221D02*
G03*
X-36128Y17221I-98J0D01*
G01*
X-36718D02*
G03*
X-36718Y17221I-98J0D01*
G01*
X-36128Y17811D02*
G03*
X-36128Y17811I-98J0D01*
G01*
X-36718Y15843D02*
G03*
X-36718Y15843I-98J0D01*
G01*
X-36128Y15252D02*
G03*
X-36128Y15252I-98J0D01*
G01*
X-36718D02*
G03*
X-36718Y15252I-98J0D01*
G01*
X-36128Y15843D02*
G03*
X-36128Y15843I-98J0D01*
G01*
X-36718Y13874D02*
G03*
X-36718Y13874I-98J0D01*
G01*
X-36128Y13284D02*
G03*
X-36128Y13284I-98J0D01*
G01*
X-36718D02*
G03*
X-36718Y13284I-98J0D01*
G01*
X-36128Y13874D02*
G03*
X-36128Y13874I-98J0D01*
G01*
D81*
X43040Y6075D02*
D03*
X43040Y7452D02*
D03*
X40679Y7452D02*
D03*
X40678Y6074D02*
D03*
D82*
X-26678Y23421D02*
D03*
Y13579D02*
D03*
X-36521Y23421D02*
D03*
Y13579D02*
D03*
D83*
X-26679Y23815D02*
D03*
X-26679Y23027D02*
D03*
Y21846D02*
D03*
Y21059D02*
D03*
Y19878D02*
D03*
Y19090D02*
D03*
X-26679Y17910D02*
D03*
Y17122D02*
D03*
Y15941D02*
D03*
Y15154D02*
D03*
Y13973D02*
D03*
D84*
X-26285Y23421D02*
D03*
X-27073Y23421D02*
D03*
X-26285Y21453D02*
D03*
Y19484D02*
D03*
X-26285Y17516D02*
D03*
Y15547D02*
D03*
X-26285Y13579D02*
D03*
X-27073Y13579D02*
D03*
X-28254Y23421D02*
D03*
X-29041D02*
D03*
X-28254Y21453D02*
D03*
Y19484D02*
D03*
X-28254Y17516D02*
D03*
Y15547D02*
D03*
X-28254Y13579D02*
D03*
X-29041D02*
D03*
X-30222Y23421D02*
D03*
X-31010D02*
D03*
X-30222Y21453D02*
D03*
Y19484D02*
D03*
X-30222Y17516D02*
D03*
Y15547D02*
D03*
X-30222Y13579D02*
D03*
X-31010D02*
D03*
X-32190Y23421D02*
D03*
X-32978D02*
D03*
X-32190Y21452D02*
D03*
X-32978D02*
D03*
X-32190Y19484D02*
D03*
X-32978D02*
D03*
X-32190Y17516D02*
D03*
Y15547D02*
D03*
X-32190Y13579D02*
D03*
X-32978D02*
D03*
X-34159Y23421D02*
D03*
X-34946D02*
D03*
X-34159Y21452D02*
D03*
X-34946D02*
D03*
X-34159Y19484D02*
D03*
X-34946D02*
D03*
X-34159Y17516D02*
D03*
Y15547D02*
D03*
X-34159Y13579D02*
D03*
X-34946D02*
D03*
X-36127Y23421D02*
D03*
X-36915Y23421D02*
D03*
X-36127Y21452D02*
D03*
Y19484D02*
D03*
X-36127Y17516D02*
D03*
Y15547D02*
D03*
X-36127Y13579D02*
D03*
X-36915D02*
D03*
D85*
X-26679Y21452D02*
D03*
Y19484D02*
D03*
X-26679Y17516D02*
D03*
Y15548D02*
D03*
X-36521Y21452D02*
D03*
Y19484D02*
D03*
X-36521Y17516D02*
D03*
Y15548D02*
D03*
D86*
X-27073Y21453D02*
D03*
Y19484D02*
D03*
X-29041Y21453D02*
D03*
Y19484D02*
D03*
X-31010Y21453D02*
D03*
Y19484D02*
D03*
X-36915Y21452D02*
D03*
Y19484D02*
D03*
D87*
X-27073Y17516D02*
D03*
Y15547D02*
D03*
X-29041Y17516D02*
D03*
Y15547D02*
D03*
X-31010Y17516D02*
D03*
Y15547D02*
D03*
X-36915Y17516D02*
D03*
Y15547D02*
D03*
D88*
X-26685Y13186D02*
D03*
D89*
X-28648Y23421D02*
D03*
X-28648Y13579D02*
D03*
X-30616Y23421D02*
D03*
X-30616Y13579D02*
D03*
X-32584Y23421D02*
D03*
Y13579D02*
D03*
X-34552Y23421D02*
D03*
Y13579D02*
D03*
D90*
X-28647Y23815D02*
D03*
Y23027D02*
D03*
Y21846D02*
D03*
Y21059D02*
D03*
Y19878D02*
D03*
Y19090D02*
D03*
X-28647Y17910D02*
D03*
Y17122D02*
D03*
Y15941D02*
D03*
Y15154D02*
D03*
Y13973D02*
D03*
X-30616Y23815D02*
D03*
Y23027D02*
D03*
Y21846D02*
D03*
Y21059D02*
D03*
Y19878D02*
D03*
Y19090D02*
D03*
X-30616Y17910D02*
D03*
Y17122D02*
D03*
Y15941D02*
D03*
Y15154D02*
D03*
Y13973D02*
D03*
X-32584Y23815D02*
D03*
Y23027D02*
D03*
Y21846D02*
D03*
Y21059D02*
D03*
Y19878D02*
D03*
Y19090D02*
D03*
X-32584Y17910D02*
D03*
Y17122D02*
D03*
Y15941D02*
D03*
Y15154D02*
D03*
Y13973D02*
D03*
X-34553Y23815D02*
D03*
Y23027D02*
D03*
Y21846D02*
D03*
Y21059D02*
D03*
Y19878D02*
D03*
Y19090D02*
D03*
X-34553Y17910D02*
D03*
Y17122D02*
D03*
Y15941D02*
D03*
Y15154D02*
D03*
Y13973D02*
D03*
X-36521Y23815D02*
D03*
Y23027D02*
D03*
Y21846D02*
D03*
Y21059D02*
D03*
Y19878D02*
D03*
Y19090D02*
D03*
X-36521Y17910D02*
D03*
Y17122D02*
D03*
Y15941D02*
D03*
Y15154D02*
D03*
Y13973D02*
D03*
D91*
X-28647Y21453D02*
D03*
Y19484D02*
D03*
X-28647Y17516D02*
D03*
Y15547D02*
D03*
X-30616Y21453D02*
D03*
Y19484D02*
D03*
X-30616Y17516D02*
D03*
Y15547D02*
D03*
X-32584Y21452D02*
D03*
Y19484D02*
D03*
X-32584Y17516D02*
D03*
Y15547D02*
D03*
X-34553Y21452D02*
D03*
Y19484D02*
D03*
X-34553Y17516D02*
D03*
Y15547D02*
D03*
D92*
X-28648Y13185D02*
D03*
X-30616D02*
D03*
X-32584Y13185D02*
D03*
X-34552D02*
D03*
X-36521D02*
D03*
D93*
X-32978Y17516D02*
D03*
Y15547D02*
D03*
X-34946Y17516D02*
D03*
Y15547D02*
D03*
D94*
X20900Y-10200D02*
D03*
D95*
X-26679Y23421D02*
D03*
Y21453D02*
D03*
Y19484D02*
D03*
Y17516D02*
D03*
Y15547D02*
D03*
Y13579D02*
D03*
X-28647Y23421D02*
D03*
Y21453D02*
D03*
Y19484D02*
D03*
Y17516D02*
D03*
Y15547D02*
D03*
Y13579D02*
D03*
X-30616Y23421D02*
D03*
Y21453D02*
D03*
Y19484D02*
D03*
Y17516D02*
D03*
Y15547D02*
D03*
Y13579D02*
D03*
X-32584Y23421D02*
D03*
Y21453D02*
D03*
Y19484D02*
D03*
Y17516D02*
D03*
Y15547D02*
D03*
Y13579D02*
D03*
X-34553Y23421D02*
D03*
Y21453D02*
D03*
Y19484D02*
D03*
Y17516D02*
D03*
Y15547D02*
D03*
Y13579D02*
D03*
X-36521Y23421D02*
D03*
Y21453D02*
D03*
Y19484D02*
D03*
Y17516D02*
D03*
Y15547D02*
D03*
Y13579D02*
D03*
M02*
