G04 Layer_Color=128*
%FSLAX25Y25*%
%MOIN*%
G70*
G01*
G75*
%ADD21R,0.01378X0.01181*%
%ADD27R,0.01260X0.01260*%
%ADD37R,0.01181X0.01378*%
%ADD38R,0.02362X0.02520*%
%ADD39R,0.02520X0.02362*%
%ADD40R,0.01260X0.01260*%
%ADD62R,0.01417X0.01969*%
%ADD63R,0.01575X0.01969*%
%ADD64R,0.04724X0.04921*%
%ADD65R,0.02598X0.01575*%
%ADD66R,0.03347X0.09055*%
%ADD69R,0.03937X0.03543*%
G04:AMPARAMS|DCode=70|XSize=39.37mil|YSize=31.5mil|CornerRadius=0mil|HoleSize=0mil|Usage=FLASHONLY|Rotation=45.000|XOffset=0mil|YOffset=0mil|HoleType=Round|Shape=Rectangle|*
%AMROTATEDRECTD70*
4,1,4,-0.00278,-0.02506,-0.02506,-0.00278,0.00278,0.02506,0.02506,0.00278,-0.00278,-0.02506,0.0*
%
%ADD70ROTATEDRECTD70*%

G04:AMPARAMS|DCode=71|XSize=39.37mil|YSize=31.5mil|CornerRadius=0mil|HoleSize=0mil|Usage=FLASHONLY|Rotation=135.000|XOffset=0mil|YOffset=0mil|HoleType=Round|Shape=Rectangle|*
%AMROTATEDRECTD71*
4,1,4,0.02506,-0.00278,0.00278,-0.02506,-0.02506,0.00278,-0.00278,0.02506,0.02506,-0.00278,0.0*
%
%ADD71ROTATEDRECTD71*%

%ADD72R,0.03543X0.03937*%
D21*
X3800Y14119D02*
D03*
Y16481D02*
D03*
X-6400Y22081D02*
D03*
Y19719D02*
D03*
X1100Y29300D02*
D03*
Y26938D02*
D03*
X4400Y29281D02*
D03*
Y26919D02*
D03*
D27*
X-3999Y30622D02*
D03*
Y32827D02*
D03*
D37*
X-14081Y13100D02*
D03*
X-11719D02*
D03*
D38*
X-16789Y3600D02*
D03*
X-20411D02*
D03*
D39*
X29800Y13889D02*
D03*
Y17511D02*
D03*
X-9200Y-17611D02*
D03*
Y-13989D02*
D03*
X-14000Y-17611D02*
D03*
Y-13989D02*
D03*
X-19200Y-17511D02*
D03*
Y-13889D02*
D03*
X34300Y13889D02*
D03*
Y17511D02*
D03*
D40*
X-19300Y15300D02*
D03*
X-21505D02*
D03*
X-19298Y12400D02*
D03*
X-21502D02*
D03*
D62*
X75Y13532D02*
D03*
X-3075D02*
D03*
D63*
X-1500Y17469D02*
D03*
D64*
X-34500Y-15709D02*
D03*
Y-4291D02*
D03*
D65*
X-16642Y18141D02*
D03*
Y20700D02*
D03*
Y23259D02*
D03*
X-9358D02*
D03*
Y20700D02*
D03*
Y18141D02*
D03*
D66*
X-27272Y5800D02*
D03*
X-36328D02*
D03*
D69*
X36100Y-13942D02*
D03*
Y-19257D02*
D03*
D70*
X29100Y-24924D02*
D03*
X24924Y-29100D02*
D03*
X27987Y-32162D02*
D03*
X32162Y-27986D02*
D03*
X-27987Y32162D02*
D03*
X-32162Y27986D02*
D03*
X-29100Y24924D02*
D03*
X-24924Y29100D02*
D03*
D71*
X-32162Y-27987D02*
D03*
X-27986Y-32162D02*
D03*
X-24924Y-29100D02*
D03*
X-29100Y-24924D02*
D03*
X32162Y27987D02*
D03*
X27986Y32162D02*
D03*
X24924Y29100D02*
D03*
X29100Y24924D02*
D03*
D72*
X-16443Y8500D02*
D03*
X-21757D02*
D03*
M02*
