M48
;Layer_Color=9474304
;FILE_FORMAT=2:5
INCH,LZ
;TYPE=PLATED
T1F00S00C0.00600
T2F00S00C0.00700
T3F00S00C0.00800
T4F00S00C0.01299
%
T01
X0163975Y0082698
X01288Y01044
X01302Y01081
X0132187Y0109613
X01221Y01112
X01181Y0114337
X0124258Y0127931
X0126226
X0128194
X0130163Y0131869
X0132132
X0130163Y0133837
X0128194
X0126226Y0135805
Y0131869
X01281Y01388
X01302Y014
X01305Y01471
X01289Y01523
X01122Y01483
X0113531Y0131869
X0089562Y01255
X0087987Y0127
X0071838Y0112762
X0088Y00964
X00865Y00915
X00649Y01603
X0190247Y0156253
X0190553Y0150347
X01907Y01471
X02085Y01428
X0214335Y0144335
X0218665Y0146735
T02
X00397Y01547
X00437
X00683Y01566
X00649Y01651
X00737Y01394
X00722Y01377
X0092Y01394
X00963Y01377
X01149Y01355
X01513Y00997
X01499Y00982
X01544Y00937
X01679Y0108
X0179Y01189
T03
X01852Y00019
X01884
X01925
X0197Y0002
X0201Y00019
X02048
X02083
X02115
X02156
X02196Y00017
X0223Y00018
X0227Y00017
Y00049
Y00081
Y00119
Y00157
Y00189
Y00227
Y00271
Y00328
Y00559
Y00598
Y00642
X021Y00488
X01871Y00461
X01888Y00649
X01944Y00718
X0200787Y0032187
X01768Y00327
X0182Y00499
X0172488Y0067812
X0171677Y0075323
X01578Y00876
X01286Y00835
X01217Y00877
X0111732Y0087853
X01121Y008
X0107775Y0079725
X00897Y00795
X0078702Y0085002
X00624Y00424
X00478Y00312
X00454Y00141
X00563Y00137
X00556Y0002
X00591
X00623
X00664
X00706
X00746Y00019
X00784
X00819
X00851
X00892
X00929
X00969Y00018
X01007
X01042
X01074
X01115
X00985Y00089
X00984Y0035
X00672Y00173
X00518Y0002
X00478Y00021
X00421Y00022
X0038
X00348
X00313
X01739Y0002
X01779Y00019
X01817
X01655Y00156
X01362Y00665
X00016Y00668
X00017Y00629
Y00592
Y00555
Y00518
Y00481
Y00444
Y00407
Y0037
Y00333
Y00296
Y00259
Y00222
Y00185
Y00148
Y00111
Y00074
Y00024
X00057Y00023
X00095
X0013
X00162
X00203
X00235
X00275Y00022
X00016Y00718
Y00768
Y00817
Y00854
Y00903
Y00953
Y01003
X00096Y01022
X0017
X0016835Y011194
Y011454
Y011674
Y011894
Y012154
Y012374
Y012634
Y012894
X0014435Y013174
X0011935
X0009635
X0005666Y0132809
X0002835Y012994
Y012774
Y012554
Y012334
Y012114
Y011894
Y011674
Y011414
X0004135Y010914
X00022Y01415
Y01492
Y0157
Y01648
Y01764
Y01842
Y0192
X00029Y01982
X00095
X00171
X0024Y01981
X00119Y01427
X00381Y01444
X0041012Y0125288
X00426Y01191
X00446Y0117487
X00464Y0115912
X00482Y0114337
X00619Y01124
X0063Y01212
X00718
X0072663Y0105037
X00672Y0104
X0068998Y0099902
X00838Y00909
X00992Y00984
X0106002Y0099502
X01272Y01065
X01203Y01241
X01169Y0122
X01Y01236
X00973Y01286
X01021Y01295
X008845Y013415
X00839Y01569
X0092Y01586
X00758Y01534
X00568Y01507
X00565Y01979
X00628
X00689
X0076Y01978
X00828Y01979
X00866Y01978
X00935Y01976
X01005Y01978
X01079
X01146Y01979
X01215
X01313
X01369Y0198
X01418Y01979
X0147Y0198
X01514
X01566Y01981
X01626
X01676Y0198
X01735Y01979
X01782Y0198
X0183
X01772Y01664
X01472Y01655
X01389Y01423
X0128402Y0144398
X0126198Y0147502
X01207Y01506
X01089Y0143284
X01554Y01172
X0178Y01241
X01521Y0088
X00826Y01911
X00487Y0198
X00406Y01977
X00321Y01982
X01885Y0198
X01952Y01981
X02007Y01982
X02052Y01981
X0211Y01982
X02152Y01979
X02202Y0198
X02269Y01964
Y01913
Y01856
Y01794
Y01737
Y01699
Y01642
Y01598
Y01554
Y0151
Y01472
Y01428
Y01384
Y0134
Y01296
Y01245
Y01207
X0227Y01169
Y01125
X0223053Y0133253
X0202747
X0202653Y0156253
X0222953Y0156353
X0218487Y0167513
X0191913Y0167213
X01975Y01035
X0202011Y0100489
X0208191Y0095991
T04
X0080113Y0103313
Y0108038
X0084838
Y0103313
X0089562
X0094287
Y0108038
X0089562
Y0112762
X0094287
Y0117487
X0089562
X0084838
Y0112762
X0080113
Y0117487
M30
