M48
;Layer_Color=9474304
;FILE_FORMAT=2:5
INCH,LZ
;TYPE=PLATED
T1F00S00C0.00600
T2F00S00C0.00700
T3F00S00C0.00800
%
T01
X01947Y00409
X02023Y00414
X02013Y00579
X01968Y00574
X01624Y0077973
Y0081123
X0160825
X015925
Y0079548
X01561Y00837
X01533Y00781
X01479
X0132132Y0127931
Y01299
X01341
X0132132Y0133837
X0126226
X0124258Y0135805
X01262Y01399
X01322Y01441
X01345Y0142
X01352Y01553
Y0156875
X01149Y01484
X0128194Y01299
X01068Y0116
Y01127
X0081688Y0125288
X0080113Y0127487
X0078539Y0127539
X00769Y0125288
X0066868Y0158332
X00649
X0062931
X01877Y01358
X01897Y01338
Y01301
X01877Y013
X01862Y01299
X021Y01334
X02099Y01261
T02
X01688Y00595
X01755Y00565
T03
X01647Y00349
X0183753Y0068547
X00151Y01848
X00339Y01854
X00446Y01791
X00483Y01742
X0124258Y0123442
X0132132Y0123932
M30
